<svg width="12" height="12" viewBox="0 0 12 12" fill="none" xmlns="http://www.w3.org/2000/svg">
<path fill-rule="evenodd" clip-rule="evenodd" d="M4.26379 1.10211C4.44144 0.924504 4.68237 0.824731 4.93357 0.824731C5.18478 0.824731 5.42571 0.924504 5.60336 1.10211L9.79073 5.28948C9.96834 5.46713 10.0681 5.70806 10.0681 5.95927C10.0681 6.21047 9.96834 6.4514 9.79073 6.62906L5.60336 10.8164C5.51663 10.9095 5.41204 10.9842 5.29583 11.0359C5.17962 11.0877 5.05418 11.1156 4.92697 11.1178C4.79977 11.12 4.67342 11.0966 4.55545 11.049C4.43749 11.0014 4.33033 10.9304 4.24037 10.8405C4.15041 10.7505 4.07949 10.6434 4.03184 10.5254C3.98419 10.4074 3.96079 10.2811 3.96304 10.1539C3.96528 10.0267 3.99312 9.90122 4.0449 9.78501C4.09668 9.6688 4.17134 9.56421 4.26442 9.47748L7.78168 5.95958L4.26379 2.44169C4.08618 2.26403 3.98641 2.02311 3.98641 1.7719C3.98641 1.52069 4.08618 1.27977 4.26379 1.10211Z" fill="white"/>
</svg>
