<svg width="49" height="48" viewBox="0 0 49 48" fill="none" xmlns="http://www.w3.org/2000/svg">
<g clip-path="url(#clip0_175_18114)">
<path d="M20.8967 10.5703C21.9734 11.2502 23.031 11.3084 24.2678 11.2937C24.5184 11.291 24.7687 11.2918 25.0193 11.293C26.4423 11.2912 27.4974 11.0066 28.6929 10.2086C30.1291 9.25232 31.6392 8.65478 33.3127 8.24997C33.4123 8.22496 33.5119 8.19994 33.6144 8.17417C35.975 7.68238 38.4081 8.22122 40.4377 9.46872C42.8512 11.1218 44.363 13.5225 45.5997 16.1276C45.6576 16.2493 45.7162 16.3706 45.7757 16.4915C47.5506 20.1129 48.5018 24.3688 48.5192 28.389C48.5202 28.5419 48.5202 28.5419 48.5212 28.6979C48.5228 29.0245 48.5234 29.3511 48.5236 29.6777C48.5237 29.7891 48.5238 29.9004 48.5239 30.0151C48.523 31.6217 48.4966 33.195 48.2189 34.7812C48.1979 34.9066 48.1979 34.9066 48.1764 35.0345C47.8864 36.7101 47.4137 38.3351 45.9689 39.375C45.0102 39.9711 43.8923 40.1027 42.7888 39.8829C41.2001 39.3682 39.8971 38.0847 38.7036 36.9736C38.5674 36.8481 38.4292 36.7248 38.291 36.6017C37.4881 35.8838 36.7595 35.1053 36.0314 34.3125C35.933 34.2059 35.8344 34.0993 35.7359 33.9928C35.4893 33.7256 35.2444 33.4569 35.0002 33.1875C34.9312 33.1118 34.8622 33.0362 34.7911 32.9582C34.7305 32.8908 34.67 32.8234 34.6076 32.7539C34.556 32.6966 34.5044 32.6393 34.4512 32.5803C34.3439 32.4375 34.3439 32.4375 34.3439 32.25C34.29 32.2239 34.2361 32.1978 34.1806 32.1709C33.9689 32.0625 33.9689 32.0625 33.7807 31.9482C33.7152 31.9086 33.6497 31.8689 33.5822 31.8281C33.5182 31.7885 33.4541 31.7488 33.3881 31.708C32.5343 31.337 31.6064 31.3793 30.6934 31.382C30.5442 31.3817 30.395 31.3814 30.2459 31.381C29.8432 31.3801 29.4405 31.3804 29.0378 31.381C28.6149 31.3815 28.1921 31.3811 27.7693 31.3808C27.0594 31.3804 26.3495 31.3809 25.6396 31.3818C24.8207 31.3828 24.0017 31.3825 23.1828 31.3814C22.4778 31.3806 21.7727 31.3805 21.0677 31.381C20.6474 31.3812 20.2272 31.3813 19.8069 31.3807C19.4117 31.3801 19.0165 31.3805 18.6213 31.3816C18.4768 31.3818 18.3324 31.3818 18.188 31.3813C16.7872 31.3757 16.7872 31.3756 15.4709 31.8105C15.3978 31.8469 15.3247 31.8833 15.2493 31.9207C14.9802 32.0958 14.7835 32.2977 14.5627 32.5312C14.5134 32.5832 14.4641 32.6351 14.4133 32.6887C14.2474 32.864 14.0827 33.0403 13.9182 33.2168C13.8357 33.3048 13.8357 33.3048 13.7515 33.3946C13.471 33.6951 13.1951 33.9986 12.9254 34.3088C11.9998 35.3725 11.0239 36.3774 9.96894 37.3125C9.89365 37.383 9.81836 37.4536 9.74079 37.5263C8.37772 38.7976 6.84402 40.0023 4.90901 39.9631C3.94588 39.9166 3.16155 39.5679 2.46894 38.9062C2.41722 38.8572 2.36549 38.8081 2.3122 38.7575C0.601148 36.9495 0.491095 33.5748 0.481149 31.2246C0.480491 31.1205 0.479834 31.0164 0.479156 30.9091C0.477523 30.5748 0.47692 30.2405 0.476754 29.9062C0.476691 29.7922 0.476628 29.6781 0.476562 29.5606C0.477995 27.938 0.509335 26.3531 0.781442 24.75C0.805574 24.5974 0.805574 24.5974 0.830194 24.4417C1.59988 19.6151 3.40495 14.7488 6.68769 11.0625C6.748 10.9942 6.8083 10.9259 6.87043 10.8556C10.73 6.74486 16.6431 7.69357 20.8967 10.5703ZM31.7189 14.5312C31.3442 15.1107 31.1672 15.7134 31.2502 16.4062C31.4349 17.114 31.6687 17.7247 32.3016 18.1344C33.02 18.5454 33.6084 18.6429 34.4377 18.5625C35.1718 18.3523 35.7066 17.8789 36.1252 17.25C36.4238 16.6371 36.4779 16.0346 36.3127 15.375C36.0468 14.6139 35.6155 14.0805 34.9152 13.6787C33.7319 13.1549 32.5422 13.6092 31.7189 14.5312ZM12.3127 15.5625C12.3127 16.6762 12.3127 17.79 12.3127 18.9375C11.1989 18.9375 10.0852 18.9375 8.93769 18.9375C8.6068 19.7468 8.6068 19.7468 8.51582 20.5312C8.51485 20.6144 8.51388 20.6975 8.51289 20.7832C8.58718 21.2464 8.77736 21.6841 8.93769 22.125C9.98957 22.125 11.0414 22.125 12.1252 22.125C12.09 23.6953 12.09 23.6953 12.0745 24.1892C12.0729 24.319 12.0714 24.4488 12.0703 24.5786C12.0674 24.6455 12.0645 24.7124 12.0615 24.7813C12.0552 25.0021 12.0552 25.0021 12.1252 25.3125C12.6701 25.7799 13.249 25.9032 13.9475 25.8633C14.4379 25.8072 15.0433 25.6756 15.4064 25.3125C15.4147 25.0762 15.4173 24.8424 15.4156 24.6061C15.4155 24.5435 15.4154 24.4809 15.4153 24.4165C15.4148 24.1819 15.4135 23.9474 15.4123 23.7129C15.4104 23.1889 15.4084 22.6649 15.4064 22.125C16.5202 22.125 17.6339 22.125 18.7814 22.125C19.1169 21.2893 19.1169 21.2893 19.2092 20.4785C19.2123 20.3391 19.2123 20.3391 19.2154 20.1969C19.1494 19.7519 19.1494 19.7519 18.6877 18.9375C17.6358 18.9375 16.5839 18.9375 15.5002 18.9375C15.5002 17.8547 15.5002 16.7718 15.5002 15.6562C14.8788 15.4232 14.4402 15.2692 13.7951 15.2578C13.7145 15.2554 13.6339 15.253 13.5509 15.2505C13.1274 15.2938 12.7204 15.4402 12.3127 15.5625ZM38.1877 18.375C37.7942 18.9869 37.6608 19.6724 37.7471 20.391C37.9228 21.1544 38.4127 21.7248 39.0439 22.1733C39.6855 22.5095 40.4657 22.5333 41.1555 22.3344C41.8823 22.0292 42.328 21.6033 42.6877 20.9062C42.9742 20.1423 42.9468 19.5286 42.6243 18.7932C42.2042 18.0124 41.637 17.6185 40.8127 17.3437C39.7394 17.2364 38.9022 17.557 38.1877 18.375ZM31.9064 21.4687C31.4182 22.1325 31.1948 22.7004 31.2502 23.5312C31.4341 24.3063 31.7812 24.9668 32.4689 25.4062C33.1938 25.7796 33.7829 25.9028 34.5783 25.6758C35.339 25.3938 35.8737 24.9225 36.2189 24.1875C36.4679 23.5701 36.4657 22.9155 36.2354 22.2901C35.8823 21.549 35.3988 21.0219 34.6138 20.7414C33.6206 20.4748 32.629 20.7261 31.9064 21.4687Z" fill="white"/>
</g>
<defs>
<clipPath id="clip0_175_18114">
<rect width="48" height="48" fill="white" transform="translate(0.5)"/>
</clipPath>
</defs>
</svg>
