<svg width="24" height="24" viewBox="0 0 24 24" fill="none" xmlns="http://www.w3.org/2000/svg">
<path d="M20.6957 5.93966H19.2398C19.4318 5.63521 19.5586 5.29346 19.5947 4.93205C19.7101 3.77697 19.1029 2.74154 18.0691 2.28248C17.1188 1.86051 16.0511 2.03301 15.2821 2.73168L13.4438 4.40066C13.0858 4.0084 12.5712 3.76187 12 3.76187C11.4278 3.76187 10.9123 4.00918 10.5542 4.40266L8.71363 2.73147C7.94343 2.03281 6.87601 1.86098 5.92621 2.28271C4.8927 2.7418 4.28535 3.7776 4.40113 4.93263C4.43734 5.29377 4.56398 5.63537 4.75597 5.93966H3.30434C2.58394 5.93966 2 6.52468 2 7.24632V9.20634C2 9.56714 2.292 9.85969 2.65219 9.85969H21.3479C21.708 9.85969 22 9.56718 22 9.20634V7.24632C22 6.52468 21.416 5.93966 20.6957 5.93966ZM10.0435 5.72188V5.93966H6.97538C6.16476 5.93966 5.52679 5.1826 5.72925 4.33711C5.81844 3.96477 6.08671 3.64737 6.4337 3.48669C6.91018 3.26606 7.438 3.3369 7.83819 3.69977L10.044 5.70264C10.0439 5.70909 10.0435 5.71543 10.0435 5.72188ZM18.3005 4.75857C18.2519 5.43763 17.6396 5.93973 16.9601 5.93973H13.9565V5.72197C13.9565 5.71425 13.956 5.70662 13.956 5.69892C14.4557 5.24514 15.5396 4.26088 16.1276 3.727C16.4617 3.42361 16.9292 3.28199 17.3615 3.41113C17.9816 3.59646 18.3458 4.12482 18.3005 4.75857Z" fill="white"/>
<path d="M3.37988 11.0563V20.6386C3.37988 21.3602 4.01192 21.9452 4.79163 21.9452H11.3799V11.0563H3.37988Z" fill="white"/>
<path d="M12.6201 11.0563V21.9452H19.2084C19.9881 21.9452 20.6202 21.3602 20.6202 20.6386V11.0563H12.6201Z" fill="white"/>
</svg>
