<svg width="32" height="35" viewBox="0 0 32 35" fill="none" xmlns="http://www.w3.org/2000/svg">
<path d="M12.6565 16.9279V30.6422H5.63206C4.52522 30.6422 3.6251 29.7195 3.6251 28.585V16.8586C3.84118 16.9039 4.06495 16.9279 4.29408 16.9279H12.6565ZM13.9944 16.9279V30.6422H18.0084V16.9279H13.9944ZM27.7087 16.9279H19.3464V30.6422H26.3708C27.4776 30.6422 28.3777 29.7195 28.3777 28.585V16.8586C28.1616 16.9039 27.9379 16.9279 27.7087 16.9279ZM29.7157 10.7565V13.4993C29.7157 14.6338 28.8156 15.5565 27.7087 15.5565H4.29408C3.18724 15.5565 2.28711 14.6338 2.28711 13.4993V10.7565C2.28711 9.62196 3.18724 8.69933 4.29408 8.69933H10.6558C10.234 8.12538 9.9805 7.4143 9.9805 6.64218C9.9805 4.75168 11.481 3.21362 13.3254 3.21362C14.4203 3.21362 15.3909 3.75808 16.0015 4.59396C16.6121 3.75808 17.5825 3.21362 18.6773 3.21362C20.5217 3.21362 22.0223 4.75168 22.0223 6.64218C22.0223 7.4143 21.7688 8.12538 21.3469 8.69933H27.7087C28.8156 8.69933 29.7157 9.62196 29.7157 10.7565ZM16.6704 6.64218V8.69933H18.6773C19.7843 8.69933 20.6844 7.7767 20.6844 6.64218C20.6844 5.50768 19.7843 4.58505 18.6773 4.58505C17.5705 4.58505 16.6704 5.50768 16.6704 6.64218ZM13.3254 8.69933H15.3324V6.64218C15.3324 5.50768 14.4323 4.58505 13.3254 4.58505C12.2186 4.58505 11.3185 5.50768 11.3185 6.64218C11.3185 7.7767 12.2186 8.69933 13.3254 8.69933Z" fill="white"/>
</svg>
