<svg width="12" height="20" viewBox="0 0 12 20" fill="none" xmlns="http://www.w3.org/2000/svg">
<path d="M3.834 10.762V12.49H7.758V13.804H3.834V16H2.196V13.804H0.648V12.49H2.196V10.762H0.648V9.466H2.196V3.454H6.246C7.662 3.454 8.736 3.796 9.468 4.48C10.212 5.164 10.584 6.046 10.584 7.126C10.584 8.17 10.224 9.04 9.504 9.736C8.796 10.42 7.71 10.762 6.246 10.762H3.834ZM3.834 9.466H6.246C7.146 9.466 7.812 9.262 8.244 8.854C8.688 8.434 8.91 7.858 8.91 7.126C8.91 6.37 8.694 5.788 8.262 5.38C7.83 4.96 7.158 4.75 6.246 4.75H3.834V9.466Z" fill="#8E8E93"/>
</svg>
