<svg width="24" height="24" viewBox="0 0 24 24" fill="none" xmlns="http://www.w3.org/2000/svg">
<g clip-path="url(#clip0_175_15547)">
<path d="M17.8734 3.40932C17.1479 3.40932 16.4658 3.69186 15.9527 4.2049C14.8937 5.26398 14.8937 6.98722 15.9527 8.0463C16.4658 8.55934 17.1479 8.84189 17.8734 8.84189C18.5989 8.84189 19.281 8.55934 19.7941 8.0463C20.8531 6.98722 20.8531 5.26398 19.7941 4.2049C19.2811 3.69186 18.599 3.40932 17.8734 3.40932ZM18.7444 6.99657C18.5118 7.22924 18.2025 7.3574 17.8734 7.3574C17.5443 7.3574 17.235 7.22924 17.0023 6.99662C16.5221 6.51634 16.5221 5.73486 17.0023 5.25458C17.235 5.02191 17.5443 4.8938 17.8734 4.8938C18.2025 4.8938 18.5117 5.02191 18.7444 5.25458C19.2247 5.73486 19.2247 6.51629 18.7444 6.99657Z" fill="white" fill-opacity="0.8"/>
<path d="M21.8695 2.12954C20.4963 0.756295 18.6704 0 16.7284 0C14.7863 0 12.9604 0.756295 11.5872 2.12954C9.49778 4.219 8.89088 7.33409 10.0006 10.0318L0.0125745 20.02L0.00440979 23.9918L7.15774 24V21.2427H9.91418V18.4863H12.6706V15.295L13.9677 13.998C14.8393 14.3544 15.7836 14.5411 16.7288 14.5411C18.6707 14.5411 20.4964 13.7849 21.8695 12.4118C24.7043 9.57695 24.7043 4.96436 21.8695 2.12954ZM20.8198 11.3621C19.7271 12.4548 18.2742 13.0566 16.7288 13.0566C15.8315 13.0566 14.9356 12.8456 14.1382 12.4464L13.6596 12.2068L11.1861 14.6802V17.0018H8.4297V19.7582H5.67326V22.5138L1.49196 22.5091L1.49582 20.6362L11.7923 10.3394L11.5527 9.86083C10.4358 7.6298 10.8715 4.94467 12.6369 3.17922C13.7298 2.08634 15.1828 1.48448 16.7284 1.48448C18.2739 1.48448 19.7269 2.08634 20.8198 3.17922C23.0758 5.43524 23.0758 9.10607 20.8198 11.3621Z" fill="white" fill-opacity="0.8"/>
</g>
<defs>
<clipPath id="clip0_175_15547">
<rect width="24" height="24" fill="white"/>
</clipPath>
</defs>
</svg>
