<svg width="16" height="16" viewBox="0 0 16 16" fill="none" xmlns="http://www.w3.org/2000/svg">
<g clip-path="url(#clip0_175_19044)">
<path d="M13.9378 0.124987C13.9667 0.137515 13.9957 0.150043 14.0255 0.16295C14.4321 0.361671 14.7555 0.747851 15.0734 1.06383C15.1146 1.10474 15.1561 1.14551 15.1976 1.18614C15.4906 1.47272 15.7486 1.74891 15.9026 2.13671C15.9148 2.1666 15.927 2.19649 15.9395 2.22728C16.0995 2.68878 16.0361 3.25556 15.8304 3.68822C15.6021 4.11522 15.2105 4.45072 14.871 4.79017C14.8271 4.8341 14.7833 4.87803 14.7395 4.92197C14.6201 5.04173 14.5005 5.1614 14.3809 5.28106C14.2516 5.41047 14.1224 5.53998 13.9932 5.66947C13.6819 5.98143 13.3704 6.29325 13.0589 6.60505C12.9268 6.73727 12.7947 6.8695 12.6626 7.00173C12.1597 7.50516 11.6568 8.00855 11.1538 8.51182C11.1223 8.54334 11.0908 8.57486 11.0592 8.60638C11.0358 8.62983 11.0358 8.62983 11.0119 8.65375C10.9328 8.73293 10.8536 8.81211 10.7745 8.8913C10.7588 8.90701 10.7431 8.92273 10.7269 8.93892C10.2169 9.44914 9.70716 9.95961 9.19756 10.4702C8.65816 11.0107 8.11854 11.5509 7.57866 12.0909C7.28458 12.3851 6.99061 12.6793 6.6969 12.9738C6.44704 13.2244 6.19696 13.4747 5.94661 13.7247C5.81889 13.8523 5.69127 13.98 5.56392 14.1079C5.44737 14.225 5.33052 14.3419 5.21345 14.4585C5.17114 14.5007 5.12893 14.543 5.08684 14.5855C5.02961 14.6432 4.97201 14.7005 4.9143 14.7577C4.88994 14.7825 4.88994 14.7825 4.86509 14.8079C4.70421 14.9658 4.51752 15.058 4.29936 15.1131C4.26805 15.1212 4.23674 15.1292 4.20448 15.1375C4.17095 15.1459 4.13742 15.1542 4.10288 15.1627C4.06692 15.1719 4.03096 15.1811 3.99391 15.1905C3.89595 15.2154 3.79792 15.24 3.69985 15.2645C3.6176 15.285 3.53539 15.3057 3.45318 15.3265C3.25897 15.3754 3.06468 15.424 2.87034 15.4725C2.6708 15.5222 2.47142 15.5725 2.2721 15.6231C2.10014 15.6667 1.9281 15.7099 1.75598 15.7529C1.65355 15.7784 1.55116 15.8041 1.44885 15.8302C1.33449 15.8592 1.21999 15.8876 1.10544 15.9159C1.07223 15.9245 1.03902 15.9331 1.0048 15.9419C0.76914 15.9991 0.471213 16.0673 0.239736 15.9689C0.116178 15.8907 0.0444217 15.7964 0.000303788 15.6562C-0.0179785 15.4221 0.0134878 15.2108 0.0724092 14.985C0.080083 14.9543 0.0877563 14.9236 0.0956626 14.8919C0.120907 14.7911 0.146722 14.6905 0.172545 14.59C0.190423 14.5191 0.208265 14.4482 0.226072 14.3773C0.27297 14.191 0.320352 14.0049 0.36784 13.8187C0.415599 13.6312 0.46291 13.4436 0.510253 13.2559C0.563776 13.0439 0.617349 12.8319 0.671223 12.62C0.679428 12.5877 0.687632 12.5554 0.696086 12.5221C0.712164 12.459 0.728335 12.3959 0.744604 12.3328C0.782838 12.184 0.819291 12.0352 0.851848 11.8851C0.858197 11.8569 0.864546 11.8287 0.871088 11.7997C0.882734 11.7476 0.893799 11.6953 0.904103 11.643C0.987746 11.2759 1.36586 11.0047 1.62326 10.7472C1.66791 10.7024 1.71256 10.6577 1.75721 10.6129C1.87955 10.4901 2.002 10.3675 2.12446 10.2449C2.25665 10.1125 2.38876 9.98006 2.52088 9.84761C2.8397 9.52803 3.15866 9.2086 3.47766 8.8892C3.56778 8.79897 3.65789 8.70873 3.748 8.61849C4.30788 8.05783 4.86781 7.49721 5.42789 6.93674C5.55748 6.80706 5.68707 6.67738 5.81666 6.54769C5.83276 6.53158 5.84885 6.51547 5.86544 6.49887C6.38755 5.97638 6.90937 5.4536 7.43102 4.93065C7.96777 4.39256 8.50478 3.85472 9.04212 3.31721C9.11805 3.24126 9.19397 3.16531 9.26989 3.08935C9.28484 3.07441 9.29978 3.05946 9.31517 3.04406C9.55528 2.80385 9.79512 2.56337 10.0349 2.3228C10.2759 2.08092 10.5173 1.83934 10.7589 1.59803C10.8897 1.46738 11.0204 1.33661 11.1508 1.20549C11.2702 1.08535 11.39 0.965585 11.5101 0.846097C11.5533 0.802916 11.5965 0.759604 11.6395 0.716145C12.2519 0.0974422 13.0822 -0.255157 13.9378 0.124987ZM12.5386 1.31639C12.5126 1.34073 12.5126 1.34073 12.4861 1.36555C12.248 1.58996 12.018 1.82268 11.7874 2.05467C11.7411 2.10115 11.6948 2.14762 11.6484 2.19408C11.5365 2.30638 11.4246 2.41878 11.3128 2.53124C11.4357 2.67834 11.5635 2.81762 11.6994 2.95268C11.7184 2.97161 11.7373 2.99054 11.7568 3.01004C11.8186 3.07183 11.8805 3.1335 11.9424 3.19518C11.9856 3.2383 12.0288 3.28142 12.072 3.32456C12.185 3.43749 12.2982 3.55034 12.4113 3.66316C12.527 3.77853 12.6426 3.89399 12.7582 4.00945C12.9847 4.23555 13.2112 4.46155 13.4378 4.68749C13.5555 4.58778 13.6722 4.48813 13.7822 4.37989C13.8042 4.35829 13.8262 4.33669 13.8489 4.31443C13.8718 4.29168 13.8948 4.26892 13.9185 4.24547C13.9428 4.22143 13.9671 4.19739 13.9921 4.17263C14.0432 4.12201 14.0942 4.07135 14.1451 4.02064C14.197 3.96914 14.249 3.91778 14.3011 3.86656C14.377 3.792 14.4525 3.71703 14.5279 3.64195C14.551 3.61939 14.5741 3.59682 14.5979 3.57357C14.8122 3.35837 14.9693 3.13307 14.9788 2.82225C14.9729 2.42135 14.6713 2.16684 14.4077 1.89989C14.3877 1.87973 14.3678 1.85957 14.3473 1.8388C14.3056 1.79664 14.2638 1.75452 14.222 1.71245C14.1796 1.66968 14.1373 1.62677 14.0952 1.58373C14.0336 1.52083 13.9717 1.45837 13.9096 1.39598C13.8911 1.37691 13.8725 1.35783 13.8535 1.33817C13.6731 1.15877 13.4614 1.0294 13.2015 1.02147C12.9217 1.02754 12.74 1.12561 12.5386 1.31639ZM10.4705 3.36579C10.4453 3.39104 10.42 3.41629 10.394 3.44231C10.3504 3.48574 10.3504 3.48574 10.3059 3.53005C10.2734 3.56272 10.2409 3.59539 10.2085 3.62806C10.1741 3.66236 10.1398 3.69665 10.1054 3.73092C10.0107 3.82556 9.91609 3.92039 9.82154 4.01525C9.7197 4.11736 9.61768 4.21929 9.51568 4.32123C9.33885 4.49803 9.16214 4.67494 8.98551 4.85193C8.73012 5.10782 8.47455 5.36355 8.21895 5.61923C7.8043 6.03402 7.38978 6.44895 6.97536 6.86397C6.57268 7.26722 6.16994 7.67041 5.7671 8.0735C5.74229 8.09833 5.71748 8.12316 5.69191 8.14874C5.56744 8.2733 5.44296 8.39785 5.31849 8.52241C4.28514 9.5564 3.25202 10.5906 2.21905 11.625C2.26047 11.7107 2.29861 11.7748 2.36618 11.8421C2.38336 11.8594 2.40054 11.8767 2.41824 11.8944C2.437 11.913 2.45577 11.9315 2.47511 11.9506C2.49493 11.9705 2.51475 11.9903 2.53517 12.0107C2.60063 12.0761 2.66631 12.1413 2.73199 12.2065C2.77746 12.2519 2.82291 12.2972 2.86835 12.3426C2.98791 12.4619 3.10766 12.5811 3.22746 12.7002C3.34969 12.8218 3.47174 12.9435 3.59381 13.0653C3.8333 13.3041 4.07299 13.5427 4.3128 13.7812C4.42475 13.7337 4.49643 13.6679 4.58203 13.5822C4.61101 13.5533 4.64 13.5245 4.66987 13.4947C4.70193 13.4625 4.73398 13.4303 4.76604 13.398C4.80016 13.3639 4.8343 13.3298 4.86845 13.2958C4.96237 13.202 5.0561 13.108 5.14979 13.014C5.25082 12.9127 5.35203 12.8116 5.45321 12.7105C5.62854 12.5352 5.80375 12.3597 5.97889 12.1843C6.2321 11.9305 6.48549 11.677 6.73892 11.4235C7.15008 11.0122 7.56109 10.6008 7.97201 10.1892C8.37123 9.78945 8.77052 9.38972 9.16989 8.99008C9.20681 8.95314 9.20681 8.95314 9.24447 8.91546C9.36792 8.79192 9.49138 8.66838 9.61485 8.54484C10.6394 7.51967 11.6637 6.49428 12.6878 5.46874C12.627 5.33592 12.5353 5.24493 12.4327 5.14308C12.413 5.12325 12.3933 5.10342 12.373 5.08299C12.3078 5.01757 12.2425 4.95237 12.1771 4.88719C12.1318 4.84184 12.0864 4.79648 12.0412 4.75111C11.9463 4.65612 11.8513 4.56125 11.7562 4.46646C11.6341 4.3447 11.5122 4.22266 11.3905 4.10054C11.297 4.00686 11.2034 3.91334 11.1098 3.81986C11.0648 3.7749 11.0198 3.7299 10.9749 3.68485C10.9123 3.62207 10.8495 3.55949 10.7866 3.49697C10.7679 3.47817 10.7493 3.45937 10.73 3.44C10.6112 3.30289 10.6112 3.30289 10.4705 3.36579ZM1.7503 12.7187C1.67333 12.9387 1.61369 13.1601 1.55853 13.3865C1.54965 13.4226 1.54076 13.4587 1.53161 13.496C1.51299 13.5719 1.49442 13.6478 1.47591 13.7237C1.44749 13.8402 1.41882 13.9566 1.39014 14.073C1.37203 14.1469 1.35395 14.2208 1.33588 14.2947C1.32728 14.3295 1.31869 14.3644 1.30984 14.4003C1.30201 14.4326 1.29418 14.4648 1.28611 14.498C1.27917 14.5264 1.27224 14.5548 1.2651 14.584C1.24717 14.6593 1.24717 14.6593 1.2503 14.75C1.47534 14.7286 1.68875 14.6756 1.90753 14.62C1.96526 14.6055 1.96526 14.6055 2.02416 14.5907C2.12571 14.5652 2.22721 14.5395 2.3287 14.5138C2.43259 14.4875 2.53652 14.4614 2.64044 14.4352C2.84377 14.3841 3.04705 14.3327 3.2503 14.2812C3.26027 14.185 3.26027 14.185 3.19476 14.1205C3.16876 14.0946 3.14276 14.0687 3.11597 14.042C3.1017 14.0277 3.08742 14.0133 3.07271 13.9986C3.0254 13.9512 2.97777 13.9041 2.93011 13.857C2.89724 13.8243 2.86439 13.7915 2.83155 13.7587C2.76268 13.6899 2.69365 13.6214 2.6245 13.5529C2.53566 13.4649 2.44709 13.3767 2.35862 13.2884C2.29079 13.2207 2.22287 13.1531 2.15491 13.0855C2.12221 13.053 2.08953 13.0204 2.05686 12.9879C2.0113 12.9425 1.96563 12.8973 1.91993 12.8521C1.88089 12.8134 1.88089 12.8134 1.84107 12.7739C1.79125 12.7152 1.79125 12.7152 1.7503 12.7187Z" fill="white" fill-opacity="0.8"/>
</g>
<defs>
<clipPath id="clip0_175_19044">
<rect width="16" height="16" fill="white"/>
</clipPath>
</defs>
</svg>
