<svg width="32" height="32" viewBox="0 0 32 32" fill="none" xmlns="http://www.w3.org/2000/svg">
<path d="M2.99977 12C11.5798 12 20.1598 12 28.9998 12C29.0049 14.5446 29.0101 17.0892 29.0154 19.7109C29.0177 20.5145 29.0199 21.318 29.0223 22.1458C29.0234 23.1269 29.0234 23.1269 29.0236 23.5862C29.0239 23.907 29.0248 24.2278 29.0262 24.5486C29.0279 24.958 29.0284 25.3673 29.028 25.7767C29.0281 25.9268 29.0286 26.077 29.0296 26.2271C29.0308 26.4302 29.0305 26.6333 29.0298 26.8364C29.0306 26.8949 29.0313 26.9533 29.032 27.0136C29.0271 27.5666 28.8629 28.0581 28.4812 28.4668C28.0781 28.8292 27.6409 29.0154 27.0962 29.0161C27.0157 29.0165 26.9352 29.0169 26.8523 29.0173C26.7634 29.0171 26.6746 29.0169 26.5857 29.0167C26.491 29.0169 26.3962 29.0172 26.3015 29.0176C26.0413 29.0183 25.7811 29.0183 25.5209 29.0182C25.2402 29.0181 24.9596 29.0188 24.6789 29.0194C24.129 29.0205 23.5792 29.0208 23.0293 29.0209C22.5823 29.0209 22.1353 29.0212 21.6883 29.0216C20.421 29.0227 19.1536 29.0233 17.8862 29.0232C17.8179 29.0232 17.7495 29.0232 17.6792 29.0232C17.6107 29.0232 17.5423 29.0232 17.4719 29.0231C16.3633 29.0231 15.2547 29.0243 14.1462 29.0261C13.0078 29.0278 11.8694 29.0287 10.7311 29.0286C10.092 29.0286 9.45296 29.0289 8.81389 29.0303C8.26975 29.0314 7.72562 29.0317 7.18148 29.0308C6.90394 29.0304 6.62641 29.0304 6.34886 29.0315C6.09455 29.0325 5.84027 29.0323 5.58597 29.0312C5.4942 29.031 5.40242 29.0312 5.31065 29.0319C4.6272 29.0368 4.0484 28.9628 3.53297 28.4814C3.09582 27.9952 2.98081 27.5055 2.98474 26.8665C2.98463 26.803 2.98452 26.7395 2.98441 26.6742C2.98421 26.461 2.9849 26.2478 2.98558 26.0346C2.98562 25.8793 2.9856 25.7241 2.98553 25.5689C2.98551 25.1951 2.98604 24.8214 2.98684 24.4477C2.98775 24.0153 2.98784 23.5829 2.98794 23.1506C2.9886 22.0092 2.99034 20.8679 2.99196 19.7266C2.99453 17.1768 2.99711 14.627 2.99977 12ZM15.4467 14.4405C15.2735 14.6782 15.1523 14.929 15.0254 15.1936C14.9707 15.3054 14.916 15.4172 14.8612 15.5289C14.7759 15.7042 14.6908 15.8796 14.6062 16.0552C14.5239 16.2254 14.4407 16.395 14.3574 16.5647C14.3325 16.6171 14.3075 16.6695 14.2818 16.7235C14.1426 17.0056 14.0248 17.204 13.7498 17.375C13.5484 17.4316 13.5484 17.4316 13.3084 17.4688C13.2641 17.4759 13.2198 17.4831 13.1741 17.4905C12.8646 17.5394 12.5541 17.5809 12.2437 17.623C12.1661 17.6337 12.0886 17.6444 12.0087 17.6554C11.8539 17.6765 11.6991 17.6969 11.5442 17.7167C11.0956 17.777 10.7299 17.8426 10.3513 18.1016C10.202 18.3199 10.1629 18.5496 10.1873 18.8125C10.3142 19.0552 10.4691 19.2347 10.6626 19.4272C10.7471 19.5116 10.7471 19.5116 10.8334 19.5977C10.8627 19.6266 10.892 19.6555 10.9222 19.6853C11.0105 19.7724 11.0982 19.8601 11.1859 19.9478C11.4767 20.2367 11.7703 20.518 12.0837 20.7824C12.2747 20.9532 12.4472 21.1448 12.5623 21.375C12.5797 21.7567 12.5328 22.1079 12.4644 22.4827C12.4441 22.5987 12.4239 22.7147 12.4037 22.8307C12.3717 23.0115 12.3395 23.1922 12.307 23.3729C12.2755 23.5487 12.2449 23.7247 12.2144 23.9006C12.2045 23.9542 12.1946 24.0078 12.1844 24.063C12.1193 24.4413 12.0834 24.7764 12.3005 25.1133C12.4997 25.3124 12.6054 25.3689 12.8882 25.3899C13.1586 25.3729 13.3079 25.3065 13.5466 25.1797C13.5877 25.1585 13.6288 25.1372 13.671 25.1154C13.891 25.0012 14.109 24.8836 14.3268 24.7654C14.512 24.6651 14.6976 24.5656 14.8835 24.4666C14.994 24.4073 15.1037 24.3466 15.2135 24.2859C15.3174 24.2304 15.3174 24.2304 15.4234 24.1738C15.4847 24.1404 15.5461 24.1069 15.6094 24.0724C15.9558 23.9488 16.2788 23.9417 16.618 24.0926C16.6989 24.1344 16.7792 24.1774 16.8589 24.2214C16.9242 24.2557 16.9242 24.2557 16.9907 24.2907C17.1285 24.3633 17.2653 24.4374 17.4021 24.5117C17.4936 24.5604 17.5851 24.6089 17.6766 24.6573C17.8521 24.7503 18.0273 24.8436 18.2024 24.9372C18.4995 25.0959 18.4995 25.0959 18.7979 25.2522C18.8434 25.276 18.889 25.2999 18.936 25.3245C19.1785 25.4215 19.3135 25.3954 19.5623 25.3125C19.7728 25.1442 19.9105 24.9786 19.9785 24.7155C20.006 24.4372 19.9618 24.1959 19.9102 23.9226C19.9004 23.8676 19.8906 23.8126 19.8805 23.7559C19.8492 23.5806 19.8172 23.4056 19.7849 23.2305C19.753 23.056 19.7212 22.8816 19.69 22.707C19.6707 22.5987 19.6509 22.4905 19.6306 22.3823C19.4812 21.5481 19.4812 21.5481 19.6482 21.1914C19.9421 20.8163 20.3053 20.4835 20.6677 20.1758C20.9292 19.9493 21.1805 19.7127 21.4295 19.4727C21.492 19.4144 21.492 19.4144 21.5558 19.3551C21.8333 19.0838 21.953 18.8887 21.9998 18.5C21.9763 18.3488 21.9763 18.3488 21.9021 18.2305C21.8814 18.1907 21.8607 18.151 21.8394 18.1101C21.5655 17.7735 21.1803 17.7576 20.7774 17.7051C20.7135 17.6961 20.6496 17.6871 20.5838 17.6778C20.3801 17.6491 20.1763 17.6213 19.9724 17.5938C19.7042 17.5574 19.436 17.5202 19.168 17.4824C19.076 17.4704 19.076 17.4704 18.9821 17.4581C18.265 17.3571 18.265 17.3571 18.0367 17.081C18.0173 17.0418 17.9978 17.0026 17.9778 16.9622C17.9546 16.9168 17.9315 16.8715 17.9077 16.8249C17.8839 16.7757 17.8602 16.7265 17.8357 16.6758C17.8097 16.6245 17.7838 16.5732 17.757 16.5204C17.67 16.3475 17.5847 16.1739 17.4998 16C17.4013 15.7984 17.3028 15.5969 17.2037 15.3957C17.1391 15.2643 17.0753 15.1327 17.0122 15.0007C16.7648 14.462 16.7648 14.462 16.2947 14.1367C15.9121 14.1044 15.7133 14.1453 15.4467 14.4405Z" fill="white"/>
<path d="M9.375 2C9.71576 2.15821 9.77975 2.29463 10 2.625C10 3.73875 10 4.8525 10 6C13.96 6 17.92 6 22 6C22 4.88625 22 3.7725 22 2.625C22.3233 2.14009 22.3233 2.14009 22.625 2C22.975 1.95289 23.2709 1.95169 23.5938 2.10156C23.8938 2.3866 24.0137 2.5614 24.0284 2.97739C24.0283 3.11823 24.0269 3.25908 24.0244 3.3999C24.0241 3.47428 24.0237 3.54866 24.0233 3.6253C24.0219 3.86221 24.0188 4.09905 24.0156 4.33594C24.0144 4.49683 24.0132 4.65771 24.0122 4.8186C24.0095 5.21242 24.0053 5.60621 24 6C24.0425 5.99945 24.0849 5.99889 24.1287 5.99832C24.5728 5.99276 25.0169 5.98901 25.461 5.98627C25.6265 5.98501 25.792 5.98331 25.9575 5.98114C26.1961 5.97809 26.4347 5.97669 26.6733 5.97559C26.7467 5.9743 26.82 5.97301 26.8956 5.97168C27.5024 5.97151 28.0143 6.09593 28.4668 6.51856C29.3493 7.50008 29 8.65206 29 10C20.42 10 11.84 10 3 10C3 7.08842 3 7.08842 3.51855 6.5332C3.90566 6.18516 4.33838 5.98343 4.86386 5.98581C4.96893 5.98582 4.96893 5.98582 5.07612 5.98584C5.18805 5.98681 5.18805 5.98681 5.30225 5.98779C5.3794 5.98797 5.45656 5.98815 5.53605 5.98833C5.78185 5.98903 6.02764 5.9906 6.27344 5.99219C6.44035 5.99289 6.60726 5.99339 6.77417 5.9939C7.18279 5.99527 7.59139 5.99736 8 6C7.99944 5.95855 7.99889 5.9171 7.99832 5.8744C7.99278 5.44248 7.98901 5.01058 7.98627 4.57864C7.98501 4.41751 7.98331 4.25637 7.98114 4.09525C7.9781 3.86346 7.97669 3.63171 7.97559 3.3999C7.9743 3.32801 7.97301 3.25613 7.97168 3.18206C7.97157 2.78822 7.98257 2.54775 8.25 2.25C8.57946 1.93702 8.94426 1.94202 9.375 2Z" fill="white"/>
</svg>
