<svg width="24" height="24" viewBox="0 0 24 24" fill="none" xmlns="http://www.w3.org/2000/svg">
<path fill-rule="evenodd" clip-rule="evenodd" d="M11.0851 3H4.51418C3.59328 3 3 3.78756 3 5V18.7617C3 19.9741 3.59328 21 4.51418 21H11.2457C11.7093 21 12.0851 20.6242 12.0851 20.1606C12.0851 19.697 11.7093 19.3212 11.2457 19.3212H5.52364C5.31112 19.3212 5.01891 19.0414 5.01891 18.7617V5.5C5.01891 5.22021 5.24028 5 5.52364 5H11.0851C11.6374 5 12.0851 4.55228 12.0851 4C12.0851 3.44772 11.6374 3 11.0851 3ZM15.6045 16.5947C15.4088 16.7562 15.1135 16.617 15.1135 16.3633V13.5H9.35674C9.19105 13.5 9.05674 13.3657 9.05674 13.2V10.8C9.05674 10.6343 9.19105 10.5 9.35674 10.5H15.1521L15.1206 7.64584C15.1178 7.39061 15.4147 7.24869 15.6116 7.41119L20.89 11.7686C21.0353 11.8886 21.0353 12.1114 20.89 12.2314L15.6045 16.5947Z" fill="white"/>
</svg>
