<svg width="49" height="48" viewBox="0 0 49 48" fill="none" xmlns="http://www.w3.org/2000/svg">
<mask id="mask0_175_18096" style="mask-type:luminance" maskUnits="userSpaceOnUse" x="5" y="4" width="39" height="40">
<path d="M44 4.5H5V43.5H44V4.5Z" fill="white"/>
</mask>
<g mask="url(#mask0_175_18096)">
<path d="M11.7712 16.9584L18.0004 18.7568L24.847 13.7842L15.0212 14.0658C14.925 14.0711 14.8317 14.1009 14.7503 14.1525L11.6412 15.9401C11.5445 15.9936 11.4661 16.0749 11.4161 16.1736C11.3661 16.2723 11.3469 16.3836 11.3609 16.4933C11.3749 16.6029 11.4215 16.706 11.4946 16.7888C11.5678 16.8717 11.6641 16.9308 11.7712 16.9584Z" fill="white"/>
<path d="M42.3969 11.39L35.5719 9.91664C34.998 9.79203 34.4039 9.79236 33.8301 9.9176C33.2562 10.0428 32.7161 10.29 32.2461 10.6425L11.6303 25.6249L6.67948 25.4083C6.3959 25.3986 6.11645 25.4784 5.88061 25.6361C5.64476 25.7938 5.46442 26.0217 5.36504 26.2875C5.26568 26.5533 5.25232 26.8435 5.32682 27.1173C5.40133 27.391 5.55997 27.6345 5.7803 27.8133L10.6011 31.6374C10.6805 31.7015 10.775 31.7441 10.8755 31.7612C10.976 31.7783 11.0793 31.7693 11.1753 31.7349C12.5511 31.2042 17.6753 28.485 23.7311 25.1592L24.9444 37.6283C24.9548 37.7363 24.9944 37.8395 25.0589 37.9266C25.1235 38.0138 25.2107 38.0815 25.311 38.1228C25.4114 38.164 25.521 38.1771 25.6283 38.1606C25.7355 38.1441 25.8362 38.0986 25.9194 38.0292L28.6278 35.7757C28.776 35.6514 28.8758 35.4789 28.9095 35.2882L31.4769 20.8908C35.8103 18.4859 39.9486 16.1567 42.8628 14.51C43.1652 14.3454 43.4097 14.0919 43.5633 13.7837C43.7168 13.4755 43.7718 13.1276 43.721 12.7871C43.6701 12.4466 43.5158 12.1299 43.2791 11.88C43.0422 11.6301 42.7343 11.459 42.3969 11.39Z" fill="white"/>
</g>
</svg>
