<svg width="24" height="24" viewBox="0 0 24 24" fill="none" xmlns="http://www.w3.org/2000/svg">
<path d="M19.3108 4H4.68923C4.56272 3.99975 4.43859 4.0336 4.33054 4.0978C4.2225 4.16201 4.13473 4.25408 4.07691 4.36387C4.01833 4.47515 3.99239 4.60004 4.00193 4.72479C4.01148 4.84954 4.05616 4.9693 4.13103 5.07085L9.48769 12.433L9.49318 12.4404C9.68772 12.6968 9.79296 13.0073 9.79347 13.3264V18.1999C9.79347 18.4989 9.9725 18.7472 10.2422 18.8275L13.2524 19.9472C13.3378 19.9819 13.4295 19.9999 13.5221 20C13.6123 20 13.7015 19.9826 13.7848 19.9488C13.8681 19.915 13.9437 19.8655 14.0073 19.8031C14.0708 19.7407 14.1211 19.6666 14.1553 19.5852C14.1894 19.5037 14.2067 19.4165 14.2062 19.3285V13.3263C14.2068 13.0073 14.312 12.6968 14.5066 12.4403L14.5121 12.4329L19.8689 5.07105C19.9438 4.96948 19.9885 4.84968 19.9981 4.7249C20.0076 4.60011 19.9816 4.47517 19.923 4.36387C19.8652 4.2541 19.7775 4.16203 19.6694 4.09782C19.5614 4.03362 19.4373 3.99977 19.3108 4Z" stroke="white" stroke-opacity="0.9" stroke-width="2"/>
</svg>
