<svg width="49" height="48" viewBox="0 0 49 48" fill="none" xmlns="http://www.w3.org/2000/svg">
<path d="M9.63994 23.7083C9.69452 23.7082 9.7491 23.708 9.80533 23.7078C9.98925 23.7072 10.1732 23.7072 10.3571 23.7071C10.4899 23.7068 10.6227 23.7065 10.7554 23.7061C11.1212 23.7053 11.4869 23.7049 11.8526 23.7045C12.2468 23.7041 12.6409 23.7032 13.035 23.7025C13.9874 23.7007 14.9397 23.6996 15.892 23.6986C16.161 23.6984 16.43 23.6981 16.6989 23.6978C18.3691 23.6959 20.0393 23.6943 21.7095 23.6934C22.0964 23.6932 22.4833 23.693 22.8702 23.6928C22.9664 23.6927 23.0626 23.6927 23.1617 23.6926C24.7193 23.6917 26.2769 23.6893 27.8345 23.6862C29.4336 23.6831 31.0326 23.6814 32.6317 23.681C33.5296 23.6808 34.4274 23.6799 35.3252 23.6775C36.09 23.6754 36.8547 23.6746 37.6194 23.6755C38.0095 23.6758 38.3995 23.6756 38.7896 23.6738C39.147 23.6722 39.5045 23.6722 39.862 23.6736C39.9909 23.6738 40.1198 23.6734 40.2488 23.6723C41.4017 23.6631 42.2694 23.8989 43.1274 24.7107C43.6968 25.314 43.9658 26.0456 43.9663 26.8592C43.9666 26.9185 43.967 26.9777 43.9673 27.0388C43.9683 27.2376 43.9687 27.4364 43.9692 27.6353C43.9697 27.7777 43.9703 27.9202 43.971 28.0627C43.9729 28.531 43.974 28.9992 43.975 29.4675C43.9754 29.6289 43.9758 29.7903 43.9762 29.9517C43.9778 30.6233 43.9792 31.2949 43.98 31.9665C43.9812 32.9279 43.9836 33.8892 43.9878 34.8505C43.9906 35.5271 43.992 36.2036 43.9924 36.8801C43.9927 37.2838 43.9936 37.6875 43.9959 38.0912C43.9981 38.4715 43.9986 38.8518 43.9977 39.2321C43.9977 39.371 43.9983 39.51 43.9996 39.649C44.0101 40.8484 43.814 41.719 42.9627 42.6187C42.378 43.1707 41.6526 43.4577 40.8601 43.4564C40.8055 43.4566 40.7509 43.4568 40.6947 43.457C40.5107 43.4575 40.3268 43.4576 40.1429 43.4576C40.0101 43.4579 39.8773 43.4582 39.7446 43.4586C39.3788 43.4594 39.0131 43.4599 38.6474 43.4602C38.2532 43.4606 37.8591 43.4615 37.465 43.4623C36.5126 43.4641 35.5603 43.4651 34.608 43.4661C34.339 43.4663 34.07 43.4666 33.801 43.4669C32.1309 43.4688 30.4607 43.4704 28.7905 43.4713C28.4036 43.4715 28.0167 43.4717 27.6297 43.4719C27.4855 43.472 27.4855 43.472 27.3383 43.4721C25.7807 43.473 24.2231 43.4755 22.6655 43.4785C21.0664 43.4816 19.4674 43.4833 17.8683 43.4837C16.9704 43.484 16.0726 43.4848 15.1747 43.4872C14.41 43.4893 13.6453 43.4901 12.8806 43.4893C12.4905 43.4889 12.1005 43.4891 11.7104 43.4909C11.3529 43.4925 10.9955 43.4925 10.638 43.4911C10.5091 43.4909 10.3801 43.4913 10.2512 43.4924C9.09834 43.5016 8.23063 43.2659 7.37264 42.454C6.80317 41.8507 6.53422 41.1192 6.53368 40.3055C6.53336 40.2462 6.53304 40.187 6.53271 40.1259C6.53174 39.9271 6.53128 39.7283 6.53084 39.5295C6.53026 39.387 6.52965 39.2445 6.52902 39.102C6.52711 38.6338 6.52599 38.1655 6.52495 37.6972C6.52456 37.5358 6.52416 37.3744 6.52377 37.2131C6.52219 36.5414 6.52082 35.8698 6.52 35.1982C6.51881 34.2369 6.51639 33.2755 6.51222 32.3142C6.50939 31.6377 6.50797 30.9612 6.50758 30.2846C6.50732 29.8809 6.50644 29.4772 6.50407 29.0735C6.50186 28.6932 6.50141 28.313 6.50227 27.9327C6.50228 27.7937 6.50168 27.6547 6.50039 27.5157C6.48988 26.3163 6.68598 25.4458 7.53732 24.5461C8.12204 23.9941 8.84742 23.707 9.63994 23.7083ZM33.1823 28.486C32.8941 28.9931 32.901 29.4834 32.9031 30.0532C32.9028 30.138 32.9026 30.2227 32.9023 30.3101C32.9017 30.5895 32.9021 30.8689 32.9026 31.1483C32.9025 31.3429 32.9023 31.5376 32.9022 31.7322C32.9019 32.1398 32.9023 32.5474 32.9029 32.9549C32.9037 33.4252 32.9035 33.8955 32.9027 34.3658C32.902 34.7706 32.9019 35.1754 32.9023 35.5802C32.9025 35.8215 32.9025 36.0628 32.9021 36.3041C32.9017 36.5733 32.9023 36.8424 32.9031 37.1115C32.9028 37.1909 32.9025 37.2702 32.9022 37.352C32.9036 38.0715 32.9036 38.0715 33.2462 38.6833C33.644 39.0229 33.9423 39.0711 34.4538 39.073C34.5829 39.0737 34.5829 39.0737 34.7147 39.0744C34.8071 39.0745 34.8995 39.0745 34.9947 39.0746C35.0903 39.0749 35.1859 39.0751 35.2843 39.0754C35.4864 39.0758 35.6884 39.0759 35.8905 39.0759C36.1484 39.0759 36.4062 39.0769 36.6641 39.0781C36.9114 39.0792 37.1586 39.0791 37.4059 39.0792C37.5441 39.08 37.5441 39.08 37.685 39.0808C38.4592 39.0929 38.4592 39.0929 39.119 38.7381C39.4036 38.4047 39.463 38.2171 39.4518 37.7891C39.4074 37.4782 39.292 37.2961 39.0596 37.0896C38.5955 36.8576 38.1275 36.8405 37.6185 36.849C37.5105 36.8494 37.5105 36.8494 37.4002 36.8499C37.1724 36.8511 36.9447 36.8539 36.7169 36.8567C36.5615 36.8578 36.4061 36.8588 36.2507 36.8597C35.8717 36.8619 35.4929 36.8662 35.114 36.8704C35.114 36.147 35.114 35.4236 35.114 34.6784C35.3454 34.6801 35.5768 34.6817 35.8153 34.6835C36.0404 34.6846 36.2655 34.6855 36.4907 34.6864C36.6467 34.6871 36.8027 34.6881 36.9586 34.6894C37.1834 34.6912 37.4081 34.692 37.6328 34.6926C37.7021 34.6934 37.7714 34.6941 37.8427 34.6949C38.3291 34.695 38.7367 34.6854 39.119 34.3541C39.4036 34.0207 39.463 33.8331 39.4518 33.4051C39.4074 33.0942 39.292 32.9121 39.0596 32.7056C38.5955 32.4736 38.1275 32.4565 37.6185 32.465C37.5105 32.4654 37.5105 32.4654 37.4002 32.4659C37.1724 32.4671 36.9447 32.4699 36.7169 32.4727C36.5615 32.4738 36.4061 32.4748 36.2507 32.4757C35.8717 32.4779 35.4929 32.4822 35.114 32.4864C35.114 31.763 35.114 31.0396 35.114 30.2944C35.3454 30.2961 35.5768 30.2977 35.8153 30.2995C36.0404 30.3006 36.2655 30.3015 36.4907 30.3024C36.6467 30.3031 36.8027 30.3041 36.9586 30.3054C37.1834 30.3072 37.4081 30.308 37.6328 30.3086C37.7021 30.3094 37.7714 30.3101 37.8427 30.3109C38.3291 30.311 38.7367 30.3014 39.119 29.9701C39.4067 29.633 39.4575 29.4475 39.4481 29.0163C39.4139 28.7459 39.3135 28.595 39.1327 28.3946C38.7675 28.1231 38.4135 28.0935 37.9685 28.0906C37.8829 28.0899 37.7973 28.0892 37.7091 28.0885C37.6171 28.0881 37.5252 28.0878 37.4304 28.0875C37.3352 28.0871 37.24 28.0867 37.1419 28.0863C36.9404 28.0855 36.739 28.0851 36.5375 28.0848C36.281 28.0844 36.0244 28.0826 35.7679 28.0806C35.5214 28.0789 35.2749 28.0787 35.0284 28.0784C34.937 28.0775 34.8457 28.0766 34.7515 28.0756C34.1824 28.0771 33.6194 28.0825 33.1823 28.486ZM11.2943 28.4677C11.0371 28.8135 10.993 29.1492 10.9922 29.5717C10.9919 29.6453 10.9916 29.7188 10.9913 29.7946C10.9913 29.8744 10.9913 29.9543 10.9914 30.0366C10.9911 30.1213 10.9909 30.2061 10.9906 30.2934C10.9899 30.5736 10.9898 30.8538 10.9897 31.1341C10.9895 31.2796 10.9894 31.4252 10.9892 31.5708C10.9886 32.0285 10.9884 32.4862 10.9885 32.9439C10.9885 33.4153 10.9877 33.8866 10.9866 34.358C10.9856 34.7634 10.9852 35.1688 10.9853 35.5742C10.9853 35.816 10.985 36.0578 10.9843 36.2996C10.9836 36.5695 10.9838 36.8394 10.9842 37.1092C10.9838 37.1888 10.9834 37.2684 10.983 37.3504C10.9833 38.0708 10.9833 38.0708 11.3262 38.6833C11.724 39.0229 12.0223 39.0711 12.5338 39.073C12.6629 39.0737 12.6629 39.0737 12.7947 39.0744C12.8871 39.0745 12.9795 39.0745 13.0747 39.0746C13.1703 39.0749 13.2658 39.0751 13.3643 39.0754C13.5664 39.0758 13.7684 39.0759 13.9705 39.0759C14.2284 39.0759 14.4862 39.0769 14.7441 39.0781C14.9914 39.0792 15.2386 39.0791 15.4859 39.0792C15.6241 39.08 15.6241 39.08 15.765 39.0808C16.5392 39.0929 16.5392 39.0929 17.199 38.7381C17.4836 38.4047 17.543 38.2171 17.5318 37.7891C17.4874 37.4782 17.372 37.2961 17.1396 37.0896C16.6755 36.8576 16.2075 36.8405 15.6985 36.849C15.5905 36.8494 15.5905 36.8494 15.4802 36.8499C15.2524 36.8511 15.0247 36.8539 14.7969 36.8567C14.6415 36.8578 14.4861 36.8588 14.3307 36.8597C13.9518 36.8621 13.5729 36.8658 13.194 36.8704C13.1943 36.7754 13.1946 36.6804 13.195 36.5825C13.1979 35.687 13.2001 34.7915 13.2016 33.8959C13.2023 33.4356 13.2034 32.9752 13.205 32.5148C13.2066 32.0704 13.2075 31.626 13.2079 31.1816C13.2081 31.0122 13.2087 30.8427 13.2094 30.6733C13.2105 30.4357 13.2107 30.1982 13.2106 29.9607C13.2111 29.8908 13.2116 29.8209 13.2122 29.7489C13.2107 29.2661 13.1985 28.8606 12.8698 28.4814C12.5327 28.1936 12.3471 28.1429 11.9159 28.1523C11.6456 28.1864 11.4946 28.2869 11.2943 28.4677ZM20.0623 28.4677C19.8051 28.8135 19.761 29.1492 19.7602 29.5717C19.7599 29.6453 19.7596 29.7188 19.7593 29.7946C19.7593 29.8744 19.7593 29.9543 19.7594 30.0366C19.7591 30.1213 19.7589 30.2061 19.7586 30.2934C19.7579 30.5736 19.7578 30.8538 19.7577 31.1341C19.7575 31.2796 19.7574 31.4252 19.7572 31.5708C19.7566 32.0285 19.7564 32.4862 19.7565 32.9439C19.7565 33.4153 19.7557 33.8866 19.7546 34.358C19.7536 34.7634 19.7532 35.1688 19.7533 35.5742C19.7533 35.816 19.753 36.0578 19.7523 36.2996C19.7516 36.5695 19.7518 36.8394 19.7522 37.1092C19.7518 37.1888 19.7514 37.2684 19.751 37.3504C19.7513 38.0708 19.7513 38.0708 20.0942 38.6833C20.4313 38.9711 20.6169 39.0218 21.0481 39.0124C21.3184 38.9783 21.4694 38.8778 21.6697 38.697C21.9269 38.3512 21.971 38.0155 21.9718 37.593C21.9721 37.5195 21.9724 37.4459 21.9727 37.3702C21.9727 37.2503 21.9727 37.2503 21.9726 37.1281C21.9729 37.0434 21.9731 36.9586 21.9734 36.8713C21.974 36.5911 21.9742 36.3109 21.9743 36.0307C21.9744 35.8851 21.9746 35.7395 21.9748 35.5939C21.9754 35.1362 21.9756 34.6785 21.9755 34.2208C21.9755 33.7494 21.9763 33.2781 21.9774 32.8067C21.9784 32.4013 21.9788 31.9959 21.9787 31.5905C21.9787 31.3487 21.979 31.1069 21.9797 30.8651C21.9804 30.5952 21.9802 30.3254 21.9797 30.0555C21.9802 29.9759 21.9806 29.8963 21.981 29.8144C21.9807 29.094 21.9807 29.094 21.6378 28.4814C21.3007 28.1936 21.1151 28.1429 20.6839 28.1523C20.4136 28.1864 20.2626 28.2869 20.0623 28.4677ZM24.4739 28.4246C24.1775 28.7799 24.1904 29.1195 24.2271 29.5637C24.2772 29.861 24.3484 30.1513 24.4225 30.4434C24.4433 30.5282 24.4641 30.613 24.4855 30.7004C24.5422 30.9309 24.5997 31.1612 24.6577 31.3914C24.7061 31.5844 24.754 31.7774 24.8019 31.9705C24.915 32.4261 25.029 32.8815 25.1435 33.3368C25.2613 33.8052 25.3777 34.2739 25.4934 34.7428C25.5931 35.1469 25.6937 35.5507 25.795 35.9544C25.8553 36.1949 25.9153 36.4354 25.9745 36.6761C26.0407 36.9445 26.1084 37.2124 26.1764 37.4803C26.1956 37.5593 26.2147 37.6383 26.2345 37.7197C26.3598 38.2054 26.5022 38.6444 26.9311 38.9465C27.3231 39.0618 27.6935 39.0452 28.0585 38.866C28.3472 38.6054 28.4804 38.3335 28.5745 37.9598C28.5933 37.8866 28.612 37.8134 28.6313 37.7379C28.651 37.6584 28.6707 37.5789 28.691 37.4969C28.7124 37.4125 28.7339 37.3281 28.7559 37.2412C28.8143 37.0103 28.8722 36.7793 28.9298 36.5482C28.978 36.3548 29.0267 36.1615 29.0753 35.9682C29.1901 35.5116 29.3042 35.055 29.418 34.5982C29.535 34.1283 29.6531 33.6588 29.7717 33.1893C29.8738 32.7852 29.9752 32.3809 30.0761 31.9765C30.1363 31.7354 30.1966 31.4944 30.2577 31.2536C30.3257 30.9845 30.3926 30.7151 30.4592 30.4457C30.4793 30.3669 30.4995 30.2881 30.5203 30.207C30.7339 29.3586 30.7339 29.3586 30.5108 28.5453C30.2911 28.2841 30.0447 28.151 29.7071 28.1024C29.325 28.1263 29.0184 28.2571 28.7572 28.5408C28.5464 29.0345 28.4219 29.5471 28.2928 30.0672C28.2592 30.2011 28.2592 30.2011 28.225 30.3378C28.1779 30.5256 28.1311 30.7135 28.0844 30.9015C28.0247 31.1421 27.9644 31.3825 27.9038 31.6228C27.8459 31.8531 27.7886 32.0835 27.7311 32.314C27.7094 32.4001 27.6877 32.4863 27.6654 32.5751C27.6456 32.6551 27.6259 32.7351 27.6055 32.8175C27.5792 32.9229 27.5792 32.9229 27.5524 33.0305C27.5055 33.2331 27.5055 33.2331 27.5151 33.5093C27.4668 33.5093 27.4186 33.5093 27.3689 33.5093C27.3614 33.4322 27.3539 33.355 27.3462 33.2756C27.2912 32.8385 27.181 32.415 27.0752 31.988C27.0533 31.8991 27.0314 31.8101 27.0088 31.7185C26.9625 31.5311 26.9161 31.3438 26.8694 31.1566C26.8098 30.9177 26.7514 30.6785 26.6933 30.4392C26.6372 30.2094 26.5798 29.9799 26.5227 29.7504C26.502 29.6649 26.4814 29.5795 26.4601 29.4915C26.334 28.9926 26.2307 28.5854 25.8071 28.2622C25.3211 28.0423 24.884 28.0679 24.4739 28.4246Z" fill="white"/>
<path d="M16.921 6.03626C17.2602 6.19691 17.4075 6.36643 17.5786 6.69386C17.6725 7.0412 17.6721 7.38234 17.5094 7.71013C17.3836 7.91875 17.2466 8.11829 17.1079 8.31844C15.685 10.3768 15.2208 12.9778 15.6115 15.4347C15.8828 16.869 16.4624 18.2535 17.3274 19.4303C17.5829 19.801 17.6505 20.0817 17.6171 20.53C17.5475 20.8784 17.4058 21.0757 17.1202 21.2798C16.8923 21.3947 16.7412 21.4119 16.4872 21.4122C16.4142 21.4136 16.3412 21.4151 16.266 21.4165C15.8848 21.3542 15.6713 21.1685 15.4314 20.8737C15.3742 20.7891 15.3183 20.7037 15.2633 20.6176C15.2327 20.5703 15.202 20.523 15.1705 20.4742C13.4869 17.8167 12.6948 14.5235 13.3379 11.397C13.3625 11.2904 13.3879 11.1841 13.4138 11.0779C13.4287 11.0163 13.4436 10.9547 13.459 10.8913C13.6779 10.0142 13.9647 9.18541 14.3637 8.3744C14.3861 8.32829 14.4085 8.28219 14.4316 8.23469C14.6934 7.70199 14.9869 7.19868 15.3272 6.71213C15.3568 6.6694 15.3863 6.62668 15.4167 6.58266C15.8274 6.01515 16.2527 5.95476 16.921 6.03626Z" fill="white"/>
<path d="M34.0132 6.00428C34.0862 6.00287 34.1592 6.00146 34.2344 6C34.6156 6.0623 34.8291 6.248 35.069 6.54286C35.1262 6.62744 35.1821 6.71284 35.2371 6.79888C35.2831 6.86986 35.2831 6.86986 35.3299 6.94227C37.0132 9.5993 37.8067 12.8941 37.1622 16.0201C37.1376 16.1264 37.1124 16.2326 37.0866 16.3386C37.0648 16.4298 37.0648 16.4298 37.0426 16.5229C36.6753 18.0164 35.939 20.3262 34.6488 21.2901C34.3037 21.4517 33.9518 21.4257 33.5794 21.3802C33.2402 21.2196 33.0929 21.0501 32.9218 20.7226C32.8279 20.3753 32.8283 20.0342 32.991 19.7064C33.1167 19.4979 33.2535 19.2985 33.3924 19.0987C34.0328 18.1742 34.4743 17.1354 34.7485 16.0464C34.7717 15.9567 34.795 15.867 34.819 15.7747C35.3704 13.2336 34.8271 10.6491 33.5063 8.44745C33.3974 8.28757 33.2831 8.13292 33.1684 7.97708C32.9145 7.61063 32.8502 7.33043 32.8833 6.8865C32.9529 6.53807 33.0946 6.34081 33.3802 6.13671C33.6081 6.02179 33.7592 6.00461 34.0132 6.00428Z" fill="white"/>
<path d="M27.1188 10.9057C27.8111 11.4135 28.3574 12.1219 28.5379 12.9776C28.6327 14.0011 28.5498 14.899 27.926 15.7496C27.3963 16.3712 26.6701 16.9324 25.8283 17.0103C24.7656 17.0488 23.8961 16.9702 23.0522 16.251C22.4581 15.6944 21.9722 14.96 21.9419 14.1241C21.9115 13.039 22.0719 12.1885 22.8387 11.3701C23.936 10.2105 25.797 10.0626 27.1188 10.9057Z" fill="white"/>
<path d="M20.7931 8.22824C21.0715 8.35527 21.1897 8.46339 21.3685 8.70774C21.4862 9.06743 21.5161 9.38845 21.4507 9.76264C21.364 9.92793 21.2643 10.0539 21.1424 10.195C20.2087 11.2864 19.7678 12.708 19.8615 14.1321C20.0024 15.3641 20.4572 16.4194 21.2606 17.367C21.4943 17.6481 21.4749 17.8955 21.4712 18.2506C21.44 18.5648 21.3512 18.7188 21.1584 18.969C20.8879 19.1666 20.6926 19.2198 20.3592 19.2202C20.2862 19.2216 20.2132 19.223 20.138 19.2245C19.5673 19.1312 19.2578 18.6643 18.9367 18.2255C17.7313 16.4945 17.2712 14.3978 17.6247 12.3192C17.863 11.0109 18.4051 9.8327 19.2587 8.81278C19.2957 8.76483 19.3327 8.71689 19.3708 8.6675C19.7605 8.16821 20.1894 8.16359 20.7931 8.22824Z" fill="white"/>
<path d="M30.1402 8.1963C30.2132 8.19489 30.2862 8.19347 30.3614 8.19202C30.9322 8.28532 31.2417 8.75226 31.5627 9.19126C32.1402 10.0207 32.5216 10.9069 32.7752 11.8816C32.7922 11.944 32.8093 12.0065 32.8268 12.0708C33.2833 13.9922 32.8409 16.0347 31.8889 17.7309C31.7206 17.996 31.5377 18.2457 31.3458 18.4941C31.3122 18.538 31.2787 18.5818 31.2441 18.627C30.9965 18.9384 30.7812 19.1587 30.3711 19.2199C29.6014 19.2209 29.6014 19.2209 29.268 18.896C29.0297 18.5703 29.0023 18.2464 29.0139 17.8531C29.062 17.5779 29.1771 17.4298 29.357 17.2215C30.2907 16.1301 30.7316 14.7085 30.638 13.2844C30.497 12.0524 30.0422 10.9971 29.2388 10.0495C29.0051 9.76844 29.0245 9.52097 29.0282 9.16586C29.0594 8.85167 29.1482 8.69766 29.341 8.44746C29.6115 8.24994 29.8068 8.19673 30.1402 8.1963Z" fill="white"/>
</svg>
