<svg width="20" height="21" viewBox="0 0 20 21" fill="none" xmlns="http://www.w3.org/2000/svg">
<mask id="path-1-inside-1_175_18175" fill="white">
<path d="M7.96041 18.625H11.9268C13.1536 18.6237 14.3299 18.1431 15.1974 17.2888C16.0649 16.4344 16.5528 15.276 16.5542 14.0677V7.55729C16.5528 6.34902 16.0649 5.1906 15.1974 4.33623C14.3299 3.48185 13.1536 3.00129 11.9268 3H7.96041C6.73355 3.00129 5.55732 3.48185 4.68979 4.33623C3.82227 5.1906 3.33432 6.34902 3.33301 7.55729C3.33301 7.72996 3.40266 7.89556 3.52663 8.01765C3.6506 8.13974 3.81874 8.20833 3.99407 8.20833C4.16939 8.20833 4.33753 8.13974 4.46151 8.01765C4.58548 7.89556 4.65512 7.72996 4.65512 7.55729C4.65609 6.69425 5.00463 5.86682 5.62428 5.25656C6.24393 4.64629 7.08409 4.30303 7.96041 4.30208H11.9268C12.8031 4.30303 13.6432 4.64629 14.2629 5.25656C14.8825 5.86682 15.2311 6.69425 15.232 7.55729V14.0677C15.2311 14.9308 14.8825 15.7582 14.2629 16.3684C13.6432 16.9787 12.8031 17.322 11.9268 17.3229H7.96041C7.08409 17.322 6.24393 16.9787 5.62428 16.3684C5.00463 15.7582 4.65609 14.9308 4.65512 14.0677C4.65512 13.8951 4.58548 13.7294 4.46151 13.6073C4.33753 13.4853 4.16939 13.4166 3.99407 13.4166C3.81874 13.4166 3.6506 13.4853 3.52663 13.6073C3.40266 13.7294 3.33301 13.8951 3.33301 14.0677C3.33432 15.276 3.82227 16.4344 4.68979 17.2888C5.55732 18.1431 6.73355 18.6237 7.96041 18.625Z"/>
</mask>
<path d="M7.96041 18.625H11.9268C13.1536 18.6237 14.3299 18.1431 15.1974 17.2888C16.0649 16.4344 16.5528 15.276 16.5542 14.0677V7.55729C16.5528 6.34902 16.0649 5.1906 15.1974 4.33623C14.3299 3.48185 13.1536 3.00129 11.9268 3H7.96041C6.73355 3.00129 5.55732 3.48185 4.68979 4.33623C3.82227 5.1906 3.33432 6.34902 3.33301 7.55729C3.33301 7.72996 3.40266 7.89556 3.52663 8.01765C3.6506 8.13974 3.81874 8.20833 3.99407 8.20833C4.16939 8.20833 4.33753 8.13974 4.46151 8.01765C4.58548 7.89556 4.65512 7.72996 4.65512 7.55729C4.65609 6.69425 5.00463 5.86682 5.62428 5.25656C6.24393 4.64629 7.08409 4.30303 7.96041 4.30208H11.9268C12.8031 4.30303 13.6432 4.64629 14.2629 5.25656C14.8825 5.86682 15.2311 6.69425 15.232 7.55729V14.0677C15.2311 14.9308 14.8825 15.7582 14.2629 16.3684C13.6432 16.9787 12.8031 17.322 11.9268 17.3229H7.96041C7.08409 17.322 6.24393 16.9787 5.62428 16.3684C5.00463 15.7582 4.65609 14.9308 4.65512 14.0677C4.65512 13.8951 4.58548 13.7294 4.46151 13.6073C4.33753 13.4853 4.16939 13.4166 3.99407 13.4166C3.81874 13.4166 3.6506 13.4853 3.52663 13.6073C3.40266 13.7294 3.33301 13.8951 3.33301 14.0677C3.33432 15.276 3.82227 16.4344 4.68979 17.2888C5.55732 18.1431 6.73355 18.6237 7.96041 18.625Z" fill="white"/>
<path d="M7.96041 18.625L7.95733 21.625H7.96041V18.625ZM11.9268 18.625V21.625L11.9298 21.625L11.9268 18.625ZM15.1974 17.2888L13.0923 15.1513L13.0923 15.1514L15.1974 17.2888ZM16.5542 14.0677L19.5542 14.071V14.0677H16.5542ZM16.5542 7.55729H19.5542L19.5542 7.55401L16.5542 7.55729ZM15.1974 4.33623L13.0923 6.47363L13.0923 6.47372L15.1974 4.33623ZM11.9268 3L11.9299 0H11.9268V3ZM7.96041 3V-1.66893e-06L7.95725 1.66893e-06L7.96041 3ZM4.68979 4.33623L6.79485 6.47368L6.79486 6.47368L4.68979 4.33623ZM3.33301 7.55729L0.333008 7.55403V7.55729H3.33301ZM3.52663 8.01765L5.63172 5.88022L5.63167 5.88017L3.52663 8.01765ZM4.46151 8.01765L2.35646 5.88017L2.35641 5.88022L4.46151 8.01765ZM4.65512 7.55729L1.65512 7.55395V7.55729H4.65512ZM7.96041 4.30208V1.30208L7.95716 1.30208L7.96041 4.30208ZM11.9268 4.30208L11.93 1.30208H11.9268V4.30208ZM15.232 7.55729H18.2321L18.232 7.55395L15.232 7.55729ZM15.232 14.0677L18.232 14.0711V14.0677H15.232ZM11.9268 17.3229V20.3229L11.9298 20.3229L11.9268 17.3229ZM7.96041 17.3229L7.95733 20.3229H7.96041V17.3229ZM4.65512 14.0677H1.65512L1.65513 14.0711L4.65512 14.0677ZM4.46151 13.6073L6.56676 11.4701L6.56623 11.4695L4.46151 13.6073ZM3.52663 13.6073L1.4219 11.4695L1.42137 11.4701L3.52663 13.6073ZM3.33301 14.0677H0.333006L0.333009 14.071L3.33301 14.0677ZM4.68979 17.2888L2.58472 19.4262L2.58472 19.4262L4.68979 17.2888ZM7.96041 21.625H11.9268V15.625H7.96041V21.625ZM11.9298 21.625C13.9367 21.6229 15.8698 20.8372 17.3025 19.4262L13.0923 15.1514C12.79 15.4491 12.3705 15.6245 11.9237 15.625L11.9298 21.625ZM17.3024 19.4262C18.7368 18.0136 19.552 16.0886 19.5542 14.071L13.5542 14.0644C13.5537 14.4633 13.3931 14.8551 13.0923 15.1513L17.3024 19.4262ZM19.5542 14.0677V7.55729H13.5542V14.0677H19.5542ZM19.5542 7.55401C19.552 5.53638 18.7368 3.61134 17.3024 2.19874L13.0923 6.47372C13.3931 6.76987 13.5537 7.16165 13.5542 7.56058L19.5542 7.55401ZM17.3025 2.19882C15.8697 0.787721 13.9367 0.00211596 11.9299 1.66893e-06L11.9236 6C12.3706 6.00047 12.79 6.17597 13.0923 6.47363L17.3025 2.19882ZM11.9268 0H7.96041V6H11.9268V0ZM7.95725 1.66893e-06C5.95048 0.00211596 4.01747 0.787741 2.58473 2.19878L6.79486 6.47368C7.09716 6.17595 7.51662 6.00047 7.96357 6L7.95725 1.66893e-06ZM2.58473 2.19877C1.15044 3.61133 0.335201 5.53635 0.333009 7.55403L6.33301 7.56055C6.33344 7.16169 6.4941 6.76988 6.79485 6.47368L2.58473 2.19877ZM0.333008 7.55729C0.333008 8.54052 0.730029 9.47406 1.42158 10.1551L5.63167 5.88017C6.07528 6.31705 6.33301 6.91941 6.33301 7.55729H0.333008ZM1.42153 10.1551C2.11155 10.8347 3.03778 11.2083 3.99407 11.2083V5.20833C4.5997 5.20833 5.18965 5.44484 5.63172 5.88022L1.42153 10.1551ZM3.99407 11.2083C4.95034 11.2083 5.87658 10.8347 6.5666 10.1551L2.35641 5.88022C2.79849 5.44484 3.38844 5.20833 3.99407 5.20833V11.2083ZM6.56655 10.1551C7.25812 9.47404 7.65512 8.54049 7.65512 7.55729H1.65512C1.65512 6.91943 1.91284 6.31707 2.35646 5.88017L6.56655 10.1551ZM7.65512 7.56064C7.65518 7.50698 7.67643 7.44612 7.72935 7.39401L3.51921 3.11911C2.33283 4.28752 1.65699 5.88151 1.65513 7.55395L7.65512 7.56064ZM7.72935 7.39401C7.7838 7.34038 7.86722 7.30218 7.96366 7.30208L7.95716 1.30208C6.30096 1.30388 4.70407 1.95221 3.51921 3.11911L7.72935 7.39401ZM7.96041 7.30208H11.9268V1.30208H7.96041V7.30208ZM11.9235 7.30208C12.0199 7.30218 12.1034 7.34037 12.1578 7.39401L16.3679 3.11911C15.1831 1.95222 13.5862 1.30388 11.93 1.30208L11.9235 7.30208ZM12.1578 7.39401C12.2107 7.44614 12.232 7.50701 12.2321 7.56064L18.232 7.55395C18.2302 5.88148 17.5543 4.28751 16.3679 3.11911L12.1578 7.39401ZM12.232 7.55729V14.0677H18.232V7.55729H12.232ZM12.2321 14.0644C12.232 14.118 12.2108 14.1788 12.1578 14.231L16.368 18.5059C17.5543 17.3375 18.2302 15.7436 18.232 14.0711L12.2321 14.0644ZM12.1578 14.231C12.1033 14.2847 12.02 14.3228 11.9237 14.3229L11.9298 20.3229C13.5862 20.3212 15.1831 19.6728 16.368 18.5059L12.1578 14.231ZM11.9268 14.3229H7.96041V20.3229H11.9268V14.3229ZM7.9635 14.3229C7.86719 14.3228 7.78383 14.2847 7.72937 14.231L3.51919 18.5059C4.70404 19.6728 6.30099 20.3212 7.95733 20.3229L7.9635 14.3229ZM7.72937 14.231C7.67642 14.1789 7.65518 14.118 7.65512 14.0644L1.65513 14.0711C1.65699 15.7435 2.33285 17.3375 3.51919 18.5059L7.72937 14.231ZM7.65512 14.0677C7.65512 13.0846 7.25818 12.1511 6.56676 11.4701L2.35625 15.7446C1.91277 15.3078 1.65512 14.7055 1.65512 14.0677H7.65512ZM6.56623 11.4695C5.87667 10.7906 4.95077 10.4166 3.99407 10.4166V16.4166C3.38801 16.4166 2.79839 16.1799 2.35678 15.7451L6.56623 11.4695ZM3.99407 10.4166C3.03735 10.4166 2.11146 10.7907 1.4219 11.4695L5.63135 15.7451C5.18974 16.1799 4.60013 16.4166 3.99407 16.4166V10.4166ZM1.42137 11.4701C0.729967 12.1511 0.333008 13.0846 0.333008 14.0677H6.33301C6.33301 14.7056 6.07534 15.3078 5.63188 15.7446L1.42137 11.4701ZM0.333009 14.071C0.335201 16.0887 1.15045 18.0137 2.58472 19.4262L6.79487 15.1513C6.49409 14.8551 6.33344 14.4633 6.33301 14.0645L0.333009 14.071ZM2.58472 19.4262C4.01742 20.8372 5.95044 21.6229 7.95733 21.625L7.9635 15.625C7.51666 15.6245 7.09721 15.4491 6.79487 15.1513L2.58472 19.4262Z" fill="white" mask="url(#path-1-inside-1_175_18175)"/>
<path d="M3.33301 10.8125C3.33301 10.9851 3.40266 11.1508 3.52663 11.2728C3.6506 11.3949 3.81874 11.4635 3.99407 11.4635H8.67832L7.82357 12.3053C7.76044 12.3654 7.71008 12.4372 7.67543 12.5166C7.64079 12.5961 7.62255 12.6815 7.62178 12.7679C7.62102 12.8544 7.63775 12.9401 7.67099 13.0201C7.70423 13.1002 7.75331 13.1728 7.81538 13.2339C7.87745 13.2951 7.95125 13.3434 8.0325 13.3762C8.11374 13.4089 8.20079 13.4254 8.28856 13.4246C8.37634 13.4239 8.46308 13.4059 8.54373 13.3718C8.62439 13.3377 8.69733 13.2881 8.75831 13.2259L10.7415 11.2727C10.8654 11.1507 10.9351 10.9851 10.9351 10.8125C10.9351 10.6398 10.8654 10.4742 10.7415 10.3522L8.75831 8.39906C8.63364 8.28047 8.46665 8.21485 8.29332 8.21633C8.11999 8.21781 7.95419 8.28629 7.83163 8.40699C7.70906 8.52767 7.63954 8.69101 7.63803 8.86169C7.63652 9.03242 7.70316 9.19684 7.82357 9.31962L8.67832 10.1614H3.99407C3.81874 10.1614 3.6506 10.23 3.52663 10.3521C3.40266 10.4742 3.33301 10.6398 3.33301 10.8125Z" fill="white"/>
</svg>
