<svg width="1045" height="481" viewBox="0 0 1045 481" fill="none" xmlns="http://www.w3.org/2000/svg">
<path d="M479.468 47.7617C480.258 47.7519 481.048 47.7421 481.861 47.7321C507.063 47.484 530.039 49.6986 554 58C554.978 58.3357 554.978 58.3357 555.975 58.6782C603.378 75.3376 641.032 111.973 662.886 156.641C664.632 160.339 666.25 164.071 667.75 167.875C668.147 168.847 668.147 168.847 668.551 169.838C669.673 172.864 670.067 174.711 669.328 177.883C668 180 668 180 665 181C660.375 176.971 658.334 172.895 655.937 167.313C641.737 135.893 616.923 110.656 587 94C586.394 93.6573 585.787 93.3146 585.163 92.9614C547.632 72.0094 501.252 67.7274 460 79C447.368 82.7138 435.54 87.69 424 94C422.932 94.5762 421.865 95.1524 420.765 95.7461C409.42 102.11 399.421 110.07 390 119C389.504 119.458 389.007 119.917 388.496 120.389C359.528 147.244 341.948 186.817 339.831 226.129C338.248 270.165 351.724 312.201 381.957 344.746C383.375 346.311 384.736 347.93 386.047 349.586C408.727 377.619 451.135 393.981 485.899 398.052C529.844 402.554 574.989 391.199 609.593 363.18C610.058 362.79 610.522 362.401 611 362C610.462 359.511 610.084 358.109 608.5 356.062C606.685 353.567 606.147 352.086 606 349C607.187 345.75 607.187 345.75 609 343C611.113 342.328 611.113 342.328 613 342C612.362 341.108 611.724 340.216 611.066 339.297C610.231 338.115 609.397 336.933 608.562 335.75C608.141 335.163 607.72 334.577 607.287 333.973C602.534 327.205 602.144 321.163 603 313C605.28 305.134 610.028 300.097 617 296C624.618 291.86 632.845 290.26 641.25 288.5C643.923 287.934 646.595 287.362 649.265 286.781C649.915 286.64 650.565 286.499 651.234 286.354C656.697 285.136 662.002 283.547 667.319 281.807C670.936 280.718 673.272 280.301 677 281C679.56 282.655 680.568 283.4 682 286C682.754 290.409 682.745 294.785 682.75 299.25C682.783 301.63 682.82 304.01 682.859 306.391C682.882 308.103 682.882 308.103 682.905 309.849C683.006 313.207 683.347 316.468 683.768 319.796C684.227 324.167 684.225 328.547 684.25 332.938C684.281 334.325 684.281 334.325 684.312 335.74C684.36 344.297 683.258 352.53 677.125 358.938C676.139 360.003 676.139 360.003 675.133 361.09C669.43 366.197 664.259 367.334 656.816 367.301C651.912 366.777 647.509 364.92 643 363C642.587 364.114 642.175 365.227 641.75 366.375C640.859 368.78 640.311 369.788 638.168 371.246C635.68 372.111 634.156 372.061 631.562 371.688C630.45 371.539 630.45 371.539 629.316 371.387C627 371 627 371 624.543 370.164C621.816 369.711 621.816 369.711 619.484 371.887C618.582 372.811 617.679 373.735 616.75 374.688C605.694 385.496 592.581 393.733 579 401C577.499 401.855 577.499 401.855 575.968 402.727C553.857 414.713 526.742 421.979 501.531 422.238C500.741 422.248 499.952 422.258 499.138 422.268C473.936 422.516 450.96 420.301 427 412C426.348 411.776 425.696 411.552 425.024 411.322C399.606 402.389 377.566 387.279 358 369C357.136 368.202 356.272 367.404 355.383 366.582C343.65 355.343 333.991 342.117 326 328C325.645 327.388 325.289 326.776 324.924 326.145C308.978 298.504 301.543 267.395 301.625 235.625C301.626 234.791 301.626 233.958 301.627 233.099C301.806 181.26 323.391 135.138 359.799 98.8306C390.923 68.7943 435.949 48.2101 479.468 47.7617Z" fill="#FEFEFE"/>
<path d="M689.022 208.379C690.882 208.382 690.882 208.382 692.779 208.385C693.464 208.379 694.148 208.374 694.854 208.368C697.12 208.356 699.383 208.38 701.648 208.406C703.224 208.408 704.799 208.408 706.375 208.406C709.679 208.408 712.982 208.426 716.286 208.458C720.515 208.498 724.744 208.502 728.973 208.495C732.228 208.491 735.482 208.504 738.737 208.521C740.296 208.528 741.855 208.531 743.414 208.53C745.597 208.532 747.779 208.553 749.962 208.58C751.824 208.593 751.824 208.593 753.723 208.606C758.465 209.176 760.995 210.909 764.187 214.375C768.529 220.663 768.546 226.558 768 234C767.344 236.004 766.681 238.005 766 240C766.661 241.669 767.328 243.335 768 245C768.923 252.177 768.14 258.009 764 264C761.611 266.823 760.519 267.827 757 269C754.967 269.119 752.931 269.18 750.895 269.209C749.637 269.228 748.378 269.247 747.082 269.267C745.705 269.282 744.329 269.296 742.953 269.309C741.911 269.318 741.911 269.318 740.848 269.328C737.17 269.361 733.492 269.386 729.814 269.405C726.778 269.423 723.743 269.458 720.707 269.508C717.033 269.568 713.361 269.599 709.687 269.608C708.291 269.617 706.896 269.635 705.501 269.665C693.255 269.91 693.255 269.91 688.776 266.524C683.073 260.388 682.542 252.542 682.601 244.547C682.599 243.684 682.596 242.82 682.593 241.931C682.591 240.123 682.596 238.314 682.609 236.506C682.625 233.743 682.609 230.982 682.59 228.219C682.592 226.453 682.596 224.687 682.601 222.922C682.595 222.101 682.589 221.28 682.583 220.434C682.592 219.663 682.602 218.891 682.612 218.097C682.614 217.424 682.616 216.752 682.619 216.059C683.423 211.715 684.55 209.298 689.022 208.379ZM695 224C695 226.64 695 229.28 695 232C702.658 232.046 710.316 232.082 717.974 232.104C721.53 232.114 725.086 232.128 728.641 232.151C732.727 232.177 736.813 232.186 740.898 232.195C742.179 232.206 743.459 232.216 744.778 232.227C746.549 232.227 746.549 232.227 748.357 232.227C749.4 232.231 750.444 232.236 751.519 232.24C754.175 232.248 754.175 232.248 756 230C756.25 227.458 756.25 227.458 756 225C754.952 223.729 754.952 223.729 752.602 223.88C751.006 223.883 751.006 223.883 749.379 223.886C747.577 223.887 747.577 223.887 745.739 223.887C743.778 223.894 743.778 223.894 741.777 223.902C740.433 223.904 739.09 223.906 737.746 223.907C734.203 223.91 730.66 223.92 727.117 223.931C723.505 223.942 719.892 223.946 716.279 223.951C709.186 223.962 702.093 223.979 695 224ZM695 246C694.79 250.141 694.79 250.141 696 254C703.675 254.023 711.351 254.041 719.026 254.052C722.59 254.057 726.153 254.064 729.717 254.075C733.81 254.088 737.903 254.093 741.996 254.098C743.281 254.103 744.567 254.108 745.891 254.113C747.072 254.113 748.253 254.113 749.47 254.114C750.516 254.116 751.562 254.118 752.64 254.12C754.957 254.266 754.957 254.266 756 253C756.333 250.542 756.333 250.542 756 248C752.573 245.715 751.36 245.755 747.335 245.773C745.594 245.773 745.594 245.773 743.817 245.773C742.564 245.784 741.311 245.794 740.019 245.805C738.736 245.808 737.453 245.81 736.131 245.813C732.723 245.821 729.315 245.841 725.907 245.863C722.428 245.883 718.949 245.892 715.471 245.902C708.647 245.924 701.823 245.958 695 246Z" fill="#FF0000"/>
<path d="M794.415 208.379C795.853 208.355 797.291 208.359 798.728 208.385C799.907 208.376 799.907 208.376 801.109 208.368C803.709 208.356 806.307 208.38 808.906 208.406C810.711 208.408 812.515 208.408 814.32 208.406C818.103 208.408 821.885 208.426 825.668 208.458C830.521 208.498 835.373 208.502 840.226 208.495C843.952 208.491 847.679 208.504 851.405 208.521C853.195 208.528 854.984 208.531 856.773 208.53C859.273 208.532 861.772 208.553 864.271 208.58C865.013 208.577 865.755 208.574 866.52 208.571C871.505 208.654 871.505 208.654 873.928 210.347C875.591 212.912 875.878 214.961 876 218C873.869 222.565 873.869 222.565 871 224C868.723 224.092 866.443 224.117 864.163 224.113C863.461 224.114 862.758 224.114 862.034 224.114C859.708 224.113 857.381 224.105 855.055 224.098C853.443 224.096 851.832 224.094 850.22 224.093C845.976 224.09 841.731 224.08 837.486 224.069C833.156 224.058 828.826 224.054 824.496 224.049C815.997 224.038 807.499 224.021 799 224C799 226.64 799 229.28 799 232C799.883 231.993 800.766 231.987 801.675 231.98C809.989 231.92 818.302 231.874 826.616 231.845C830.891 231.829 835.165 231.808 839.439 231.774C843.563 231.741 847.686 231.723 851.81 231.715C853.385 231.71 854.959 231.699 856.534 231.683C858.737 231.661 860.939 231.658 863.142 231.659C865.024 231.649 865.024 231.649 866.944 231.639C870 232 870 232 871.904 233.4C873.269 235.393 873.402 236.597 873.375 239C873.386 240.021 873.386 240.021 873.398 241.062C872.86 243.681 872.157 244.409 870 246C866.982 246.361 866.982 246.361 863.233 246.341C862.55 246.341 861.867 246.341 861.163 246.342C858.907 246.34 856.651 246.316 854.394 246.293C852.829 246.287 851.264 246.283 849.699 246.28C845.581 246.269 841.463 246.239 837.345 246.206C833.142 246.175 828.939 246.162 824.736 246.146C816.491 246.114 808.245 246.063 800 246C800.33 248.64 800.66 251.28 801 254C801.868 253.993 802.736 253.987 803.63 253.98C811.811 253.92 819.992 253.874 828.173 253.845C832.379 253.829 836.585 253.808 840.791 253.774C844.85 253.741 848.909 253.723 852.968 253.715C854.516 253.71 856.065 253.699 857.613 253.683C859.782 253.661 861.951 253.658 864.12 253.659C865.355 253.653 866.589 253.646 867.861 253.639C871.263 254.03 872.642 254.554 875 257C876.044 260.76 876.382 263.023 874.948 266.685C873 269 873 269 869.839 269.642C868.534 269.649 867.23 269.656 865.886 269.663C865.165 269.673 864.444 269.684 863.702 269.694C861.316 269.721 858.932 269.712 856.547 269.699C854.886 269.705 853.226 269.712 851.565 269.721C848.082 269.733 844.598 269.726 841.115 269.707C836.661 269.684 832.209 269.711 827.756 269.752C824.324 269.777 820.893 269.775 817.461 269.764C815.82 269.762 814.179 269.77 812.538 269.787C798.127 269.913 798.127 269.913 793.626 266.515C788.101 260.319 787.542 252.488 787.601 244.547C787.599 243.684 787.596 242.82 787.593 241.931C787.591 240.123 787.596 238.314 787.609 236.506C787.625 233.743 787.609 230.982 787.59 228.219C787.592 226.453 787.596 224.687 787.601 222.922C787.595 222.101 787.589 221.28 787.583 220.434C787.592 219.663 787.602 218.891 787.612 218.097C787.614 217.424 787.616 216.752 787.619 216.059C788.483 211.39 789.602 209.254 794.415 208.379Z" fill="#FF0000"/>
<path d="M570.415 208.379C571.853 208.355 573.291 208.359 574.728 208.385C575.907 208.376 575.907 208.376 577.109 208.368C579.709 208.356 582.307 208.38 584.906 208.406C586.711 208.408 588.515 208.408 590.32 208.406C594.103 208.408 597.885 208.426 601.668 208.458C606.521 208.498 611.373 208.502 616.226 208.495C619.952 208.491 623.679 208.504 627.405 208.521C629.195 208.528 630.984 208.531 632.773 208.53C635.273 208.532 637.772 208.553 640.271 208.58C641.013 208.577 641.755 208.574 642.52 208.571C647.505 208.654 647.505 208.654 649.928 210.347C651.591 212.912 651.878 214.961 652 218C649.869 222.565 649.869 222.565 647 224C644.753 224.092 642.504 224.117 640.255 224.113C639.216 224.114 639.216 224.114 638.156 224.114C635.862 224.113 633.567 224.105 631.273 224.098C629.684 224.096 628.095 224.094 626.506 224.093C622.321 224.09 618.135 224.08 613.95 224.069C609.68 224.058 605.41 224.054 601.14 224.049C592.76 224.038 584.38 224.021 576 224C576 226.64 576 229.28 576 232C576.87 231.993 577.74 231.987 578.637 231.98C586.833 231.92 595.029 231.874 603.225 231.845C607.439 231.829 611.653 231.808 615.866 231.774C619.932 231.741 623.997 231.723 628.062 231.715C629.615 231.71 631.167 231.699 632.719 231.683C634.891 231.661 637.062 231.658 639.233 231.659C641.089 231.649 641.089 231.649 642.982 231.639C646 232 646 232 647.898 233.4C649.27 235.393 649.402 236.594 649.375 239C649.386 240.021 649.386 240.021 649.398 241.062C648.86 243.681 648.157 244.409 646 246C642.982 246.361 642.982 246.361 639.233 246.341C638.55 246.341 637.867 246.341 637.163 246.342C634.907 246.34 632.651 246.316 630.394 246.293C628.829 246.287 627.264 246.283 625.699 246.28C621.581 246.269 617.463 246.239 613.345 246.206C609.142 246.175 604.939 246.162 600.736 246.146C592.491 246.114 584.245 246.063 576 246C576.33 248.64 576.66 251.28 577 254C577.868 253.993 578.736 253.987 579.63 253.98C587.811 253.92 595.992 253.874 604.173 253.845C608.379 253.829 612.585 253.808 616.791 253.774C620.85 253.741 624.909 253.723 628.968 253.715C630.516 253.71 632.065 253.699 633.613 253.683C635.782 253.661 637.951 253.658 640.12 253.659C641.355 253.653 642.589 253.646 643.861 253.639C647.263 254.03 648.647 254.547 651 257C651.892 260.507 652.37 262.918 651.187 266.375C650 268 650 268 648 269C645.699 269.123 643.395 269.18 641.091 269.209C640.025 269.223 640.025 269.223 638.937 269.238C636.579 269.268 634.221 269.29 631.863 269.309C630.654 269.318 630.654 269.318 629.421 269.328C625.153 269.361 620.885 269.386 616.617 269.405C613.089 269.423 609.562 269.458 606.034 269.508C601.772 269.568 597.51 269.598 593.248 269.608C591.626 269.617 590.005 269.636 588.383 269.665C574.122 269.91 574.122 269.91 569.637 266.524C564.103 260.324 563.542 252.497 563.601 244.547C563.599 243.684 563.596 242.82 563.593 241.931C563.591 240.123 563.596 238.314 563.609 236.506C563.625 233.743 563.609 230.982 563.59 228.219C563.592 226.453 563.596 224.687 563.601 222.922C563.595 222.101 563.589 221.28 563.583 220.434C563.592 219.663 563.602 218.891 563.612 218.097C563.614 217.424 563.616 216.752 563.619 216.059C564.483 211.39 565.602 209.254 570.415 208.379Z" fill="white"/>
<path d="M674 289C674.025 289.76 674.05 290.521 674.076 291.304C674.193 294.807 674.315 298.31 674.437 301.812C674.477 303.008 674.516 304.204 674.557 305.436C674.784 311.854 675.152 318.22 675.775 324.612C676.678 334.198 676.904 343.418 672 352C668.219 356.348 664.739 358.665 658.937 359.375C651.919 358.707 646.096 355.684 641.5 350.312C640.661 349.213 639.827 348.109 639 347C638.34 346.34 637.68 345.68 637 345C635.371 349.356 634.659 353.239 634.375 357.875C634.3 359.027 634.225 360.18 634.148 361.367C634.099 362.236 634.05 363.105 634 364C626.657 361.682 619.606 357.926 615.859 350.844C615.576 350.235 615.292 349.627 615 349C615.808 348.685 616.616 348.371 617.449 348.047C618.518 347.619 619.586 347.191 620.687 346.75C621.743 346.332 622.799 345.915 623.887 345.484C627.019 343.991 629.388 342.268 632 340C631.42 339.83 630.84 339.66 630.242 339.484C621.989 336.924 616.408 333.568 612 326C610.397 321.192 609.823 316.52 612.023 311.809C618.338 302.615 629.118 299.082 639.656 297.008C641.27 296.71 642.885 296.416 644.5 296.125C652.777 294.565 660.752 292.458 668.789 289.953C672 289 672 289 674 289Z" fill="#030303"/>
<path d="M219.38 208.839C220.505 208.829 221.63 208.82 222.789 208.81C224.62 208.803 224.62 208.803 226.488 208.797C228.364 208.788 228.364 208.788 230.278 208.78C232.928 208.77 235.579 208.763 238.229 208.76C241.619 208.754 245.008 208.73 248.397 208.702C251.636 208.679 254.875 208.677 258.113 208.672C259.328 208.66 260.543 208.647 261.794 208.635C262.929 208.638 264.063 208.641 265.232 208.644C266.227 208.64 267.223 208.636 268.248 208.633C273.763 209.369 277.212 212.778 280.578 216.934C286.674 225.793 288.088 236.694 286.375 247.188C284.229 255.929 280.514 262.871 273 268C270.422 269.289 268.538 269.148 265.652 269.177C263.974 269.196 263.974 269.196 262.263 269.216C261.048 269.223 259.833 269.231 258.582 269.238C257.336 269.246 256.091 269.254 254.807 269.263C252.165 269.277 249.523 269.288 246.881 269.295C244.177 269.304 241.475 269.325 238.771 269.357C234.875 269.399 230.979 269.416 227.082 269.426C225.878 269.443 224.673 269.461 223.432 269.479C215.839 269.459 210.967 268.809 205.328 263.395C199.071 254.212 196.618 243.074 198.496 232.102C200.643 222.469 204.004 215.864 212 210C214.588 208.706 216.482 208.859 219.38 208.839ZM212 229C209.181 235.041 209.159 241.085 211.25 247.313C212.47 250.654 213.995 252.106 217 254C219.413 254.476 219.413 254.476 222.041 254.452C223.042 254.474 224.043 254.496 225.075 254.52C226.151 254.526 227.227 254.532 228.336 254.539C230.004 254.558 230.004 254.558 231.706 254.577C234.058 254.596 236.41 254.607 238.762 254.611C242.356 254.625 245.946 254.692 249.539 254.762C251.826 254.774 254.112 254.783 256.399 254.789C257.471 254.816 258.543 254.843 259.647 254.87C265.194 254.889 265.194 254.889 270.021 252.488C274.583 247.345 275.26 242.773 275 236C274.096 230.397 272.556 227.414 268 224C264.18 223.249 260.414 223.299 256.531 223.336C255.418 223.331 254.305 223.326 253.158 223.322C250.808 223.318 248.458 223.327 246.108 223.348C242.512 223.375 238.92 223.348 235.324 223.316C233.039 223.32 230.754 223.326 228.469 223.336C227.395 223.326 226.321 223.316 225.214 223.305C219.103 223.401 215.768 223.678 212 229Z" fill="white"/>
<path d="M466 208.5C469 209 469 209 472 212C472 218.6 472 225.2 472 232C492.13 232 512.26 232 533 232C533 225.73 533 219.46 533 213C536 209 536 209 539 208.562C542 209 542 209 543.663 210.199C545.473 212.637 545.381 214.228 545.388 217.25C545.398 218.321 545.407 219.392 545.417 220.496C545.411 221.652 545.405 222.809 545.398 224C545.401 225.187 545.404 226.374 545.407 227.598C545.409 230.109 545.404 232.621 545.391 235.133C545.375 238.985 545.391 242.836 545.41 246.688C545.408 249.125 545.404 251.563 545.398 254C545.405 255.156 545.411 256.313 545.417 257.504C545.403 259.111 545.403 259.111 545.388 260.75C545.386 261.694 545.383 262.637 545.381 263.609C545 266 545 266 543.663 267.801C541.05 269.685 539.117 269.455 536 269C533 265 533 265 533 246C512.87 246 492.74 246 472 246C472 252.6 472 259.2 472 266C469 269 469 269 466 269.5C463 269 463 269 461.337 267.172C459.328 262.406 459.572 257.871 459.602 252.75C459.599 251.659 459.596 250.568 459.593 249.444C459.591 247.141 459.596 244.838 459.609 242.535C459.625 239.013 459.609 235.491 459.59 231.969C459.592 229.729 459.596 227.49 459.602 225.25C459.595 224.198 459.589 223.146 459.583 222.062C459.703 209.549 459.703 209.549 466 208.5Z" fill="white"/>
<path d="M900.34 208.379C901.741 208.355 903.143 208.359 904.545 208.385C905.311 208.379 906.077 208.374 906.866 208.368C909.401 208.356 911.934 208.38 914.469 208.406C916.228 208.408 917.988 208.408 919.748 208.406C923.437 208.408 927.125 208.426 930.814 208.458C935.545 208.498 940.276 208.502 945.008 208.495C948.642 208.491 952.276 208.504 955.91 208.521C957.654 208.528 959.399 208.531 961.144 208.53C963.581 208.532 966.018 208.553 968.455 208.58C969.178 208.577 969.901 208.574 970.647 208.571C973.568 208.621 975.527 208.662 977.944 210.391C979.336 212.512 979.433 213.974 979.437 216.5C979.457 217.273 979.476 218.047 979.496 218.844C979 221 979 221 977.431 222.616C974.056 224.537 971.477 224.339 967.609 224.293C966.905 224.289 966.2 224.284 965.474 224.28C963.232 224.263 960.991 224.226 958.75 224.187C957.226 224.172 955.703 224.159 954.18 224.146C950.453 224.113 946.726 224.062 943 224C943.016 225.221 943.031 226.442 943.048 227.7C943.102 232.232 943.136 236.765 943.165 241.297C943.18 243.259 943.2 245.22 943.226 247.181C943.263 250.001 943.28 252.82 943.293 255.641C943.308 256.517 943.324 257.393 943.34 258.296C943.341 264.344 943.341 264.344 941.669 267.558C940 269 940 269 937 269.437C933.673 268.952 932.991 268.589 931 266C930.639 264.045 930.639 264.045 930.659 261.804C930.66 260.543 930.66 260.543 930.66 259.257C930.675 258.353 930.691 257.45 930.707 256.52C930.711 255.592 930.715 254.664 930.72 253.707C930.737 250.742 930.774 247.778 930.812 244.812C930.827 242.803 930.841 240.793 930.853 238.783C930.887 233.855 930.938 228.928 931 224C929.577 224.024 929.577 224.024 928.126 224.048C924.6 224.099 921.074 224.136 917.548 224.165C916.023 224.18 914.498 224.2 912.974 224.226C910.779 224.263 908.585 224.28 906.391 224.293C905.071 224.309 903.751 224.324 902.392 224.341C898.829 223.983 897.432 223.579 895 221C893.959 217.251 893.629 214.974 895.024 211.312C897 209 897 209 900.34 208.379Z" fill="#FF0000"/>
<path d="M362.34 208.379C363.741 208.355 365.143 208.359 366.545 208.385C367.311 208.379 368.077 208.374 368.866 208.368C371.401 208.356 373.934 208.38 376.469 208.406C378.228 208.408 379.988 208.408 381.748 208.406C385.437 208.408 389.125 208.426 392.814 208.458C397.545 208.498 402.276 208.502 407.008 208.495C410.642 208.491 414.276 208.504 417.91 208.521C419.654 208.528 421.399 208.531 423.144 208.53C425.581 208.532 428.018 208.553 430.455 208.58C431.178 208.577 431.901 208.574 432.647 208.571C435.568 208.621 437.527 208.662 439.944 210.391C441.336 212.512 441.433 213.974 441.437 216.5C441.457 217.273 441.476 218.047 441.496 218.844C441 221 441 221 439.431 222.616C436.056 224.537 433.477 224.339 429.609 224.293C428.905 224.289 428.2 224.284 427.474 224.28C425.232 224.263 422.991 224.226 420.75 224.187C419.226 224.172 417.703 224.159 416.18 224.146C412.453 224.113 408.726 224.062 405 224C405.016 225.221 405.031 226.442 405.048 227.7C405.102 232.232 405.136 236.765 405.165 241.297C405.18 243.259 405.2 245.22 405.226 247.181C405.263 250.001 405.28 252.82 405.293 255.641C405.308 256.517 405.324 257.393 405.34 258.296C405.341 264.344 405.341 264.344 403.669 267.558C402 269 402 269 399 269.437C395.673 268.952 394.991 268.589 393 266C392.639 264.045 392.639 264.045 392.659 261.804C392.66 260.543 392.66 260.543 392.66 259.257C392.675 258.353 392.691 257.45 392.707 256.52C392.711 255.592 392.715 254.664 392.72 253.707C392.737 250.742 392.774 247.778 392.812 244.812C392.827 242.803 392.841 240.793 392.853 238.783C392.887 233.855 392.938 228.928 393 224C391.577 224.024 391.577 224.024 390.126 224.048C386.6 224.099 383.074 224.136 379.548 224.165C378.023 224.18 376.498 224.2 374.974 224.226C372.779 224.263 370.585 224.28 368.391 224.293C367.071 224.309 365.751 224.324 364.392 224.341C360.829 223.983 359.432 223.579 357 221C355.959 217.251 355.629 214.974 357.024 211.312C359 209 359 209 362.34 208.379Z" fill="white"/>
<path d="M102.34 208.379C103.741 208.355 105.143 208.359 106.545 208.385C107.311 208.379 108.077 208.374 108.866 208.368C111.401 208.356 113.934 208.38 116.469 208.406C118.228 208.408 119.988 208.408 121.748 208.406C125.437 208.408 129.125 208.426 132.814 208.458C137.545 208.498 142.276 208.502 147.008 208.495C150.642 208.491 154.276 208.504 157.91 208.521C159.654 208.528 161.399 208.531 163.144 208.53C165.581 208.532 168.018 208.553 170.455 208.58C171.178 208.577 171.901 208.574 172.647 208.571C175.568 208.621 177.527 208.662 179.944 210.391C181.336 212.512 181.433 213.974 181.437 216.5C181.457 217.273 181.476 218.047 181.496 218.844C181 221 181 221 179.431 222.616C176.056 224.537 173.477 224.339 169.609 224.293C168.905 224.289 168.2 224.284 167.474 224.28C165.232 224.263 162.991 224.226 160.75 224.187C159.226 224.172 157.703 224.159 156.18 224.146C152.453 224.113 148.726 224.062 145 224C145.016 225.221 145.031 226.442 145.048 227.7C145.102 232.232 145.136 236.765 145.165 241.297C145.18 243.259 145.2 245.22 145.226 247.181C145.263 250.001 145.28 252.82 145.293 255.641C145.308 256.517 145.324 257.393 145.34 258.296C145.341 264.344 145.341 264.344 143.669 267.558C142 269 142 269 139 269.437C135.673 268.952 134.991 268.589 133 266C132.639 264.045 132.639 264.045 132.659 261.804C132.66 260.543 132.66 260.543 132.66 259.257C132.675 258.353 132.691 257.45 132.707 256.52C132.711 255.592 132.715 254.664 132.72 253.707C132.737 250.742 132.774 247.778 132.812 244.812C132.827 242.803 132.841 240.793 132.853 238.783C132.887 233.855 132.938 228.928 133 224C131.577 224.024 131.577 224.024 130.126 224.048C126.6 224.099 123.074 224.136 119.548 224.165C118.023 224.18 116.498 224.2 114.974 224.226C112.779 224.263 110.585 224.28 108.391 224.293C107.071 224.309 105.751 224.324 104.392 224.341C100.829 223.983 99.4324 223.579 96.9999 221C95.9585 217.251 95.6288 214.974 97.0244 211.312C98.9999 209 98.9999 209 102.34 208.379Z" fill="white"/>
</svg>
