<svg width="49" height="48" viewBox="0 0 49 48" fill="none" xmlns="http://www.w3.org/2000/svg">
<g clip-path="url(#clip0_175_18110)">
<path d="M2.01327 20.4259C2.10508 20.4258 2.19689 20.4256 2.29149 20.4254C2.44387 20.4258 2.44387 20.4258 2.59934 20.4262C2.70669 20.4261 2.81405 20.426 2.92465 20.426C3.22352 20.4258 3.52239 20.4261 3.82126 20.4266C4.14321 20.427 4.46517 20.4269 4.78713 20.4268C5.34524 20.4267 5.90335 20.427 6.46146 20.4276C7.2684 20.4283 8.07534 20.4286 8.88228 20.4287C10.1914 20.4289 11.5005 20.4295 12.8096 20.4304C14.0815 20.4313 15.3534 20.4319 16.6253 20.4323C16.7037 20.4324 16.782 20.4324 16.8628 20.4324C17.2559 20.4325 17.649 20.4326 18.0421 20.4328C21.3048 20.4337 24.5675 20.4354 27.8302 20.4375C27.8321 20.5022 27.834 20.5669 27.8359 20.6336C27.8449 20.9296 27.8551 21.2255 27.8654 21.5215C27.8697 21.6742 27.8697 21.6742 27.8742 21.83C27.8961 22.7952 27.8961 22.7952 28.3459 23.6191C28.6729 23.8604 28.9879 23.8797 29.3859 23.8575C29.7729 23.7802 29.9168 23.6459 30.174 23.3437C30.4023 22.7498 30.4021 22.152 30.4201 21.5215C30.4237 21.4171 30.4273 21.3128 30.4311 21.2052C30.4399 20.9493 30.4479 20.6934 30.4552 20.4375C32.0085 20.4243 33.5617 20.4144 35.1151 20.4083C35.8363 20.4054 36.5575 20.4015 37.2788 20.395C37.9076 20.3894 38.5363 20.3858 39.1651 20.3846C39.4979 20.3838 39.8307 20.3821 40.1635 20.378C40.5354 20.3735 40.9072 20.3734 41.2792 20.3736C41.389 20.3716 41.4989 20.3696 41.6121 20.3675C42.2135 20.3721 42.5678 20.4263 43.0001 20.8609C43.2603 21.1858 43.2238 21.5173 43.2293 21.9153C43.2306 21.9905 43.232 22.0657 43.2334 22.1431C43.2453 22.8386 43.2517 23.5342 43.2567 24.2298C43.26 24.6967 43.265 25.1635 43.274 25.6304C43.2828 26.0823 43.2873 26.534 43.2889 26.986C43.2903 27.1576 43.293 27.3292 43.2973 27.5008C43.3332 29.0086 43.3332 29.0086 42.8 29.6631C42.6557 29.8085 42.5096 29.9522 42.3615 30.0937C41.2237 31.5127 41.0259 33.0189 41.1427 34.7812C41.3559 36.0563 42.0349 37.1354 42.9203 38.0489C43.2552 38.4012 43.2213 38.7076 43.2248 39.1713C43.2257 39.247 43.2266 39.3228 43.2276 39.4009C43.2304 39.6524 43.2324 39.9039 43.2342 40.1554C43.2348 40.2413 43.2354 40.3272 43.236 40.4157C43.2391 40.8705 43.2414 41.3253 43.2432 41.7801C43.2449 42.1564 43.2481 42.5325 43.2528 42.9087C43.2585 43.363 43.2614 43.8173 43.2623 44.2716C43.2631 44.4445 43.2648 44.6175 43.2676 44.7904C43.2712 45.033 43.2713 45.2754 43.2706 45.5181C43.2725 45.589 43.2743 45.66 43.2763 45.7332C43.2695 46.2316 43.1214 46.4823 42.7818 46.844C42.5173 47.0813 42.3229 47.0741 41.9771 47.0738C41.8253 47.0739 41.8253 47.0739 41.6704 47.0741C41.5031 47.0736 41.5031 47.0736 41.3324 47.0731C41.1568 47.0731 41.1568 47.0731 40.9776 47.0732C40.6561 47.0731 40.3346 47.0726 40.0131 47.072C39.6773 47.0714 39.3414 47.0713 39.0056 47.0712C38.3695 47.0709 37.7333 47.0702 37.0971 47.0692C36.373 47.0682 35.6489 47.0677 34.9247 47.0672C33.4349 47.0662 31.9451 47.0646 30.4552 47.0625C30.4534 46.9978 30.4515 46.933 30.4496 46.8664C30.4406 46.5704 30.4304 46.2744 30.4201 45.9785C30.4157 45.8258 30.4157 45.8258 30.4113 45.67C30.3894 44.7047 30.3894 44.7047 29.9396 43.8808C29.6125 43.6395 29.2976 43.6203 28.8996 43.6424C28.5125 43.7197 28.3686 43.8541 28.1115 44.1562C27.8832 44.7501 27.8834 45.348 27.8654 45.9785C27.8618 46.0828 27.8581 46.1872 27.8544 46.2947C27.8456 46.5506 27.8376 46.8065 27.8302 47.0625C24.4973 47.0754 21.1644 47.0853 17.8315 47.0912C17.438 47.0919 17.0445 47.0926 16.6511 47.0934C16.5727 47.0935 16.4944 47.0937 16.4137 47.0938C15.1453 47.0963 13.8769 47.1007 12.6085 47.1059C11.307 47.1111 10.0056 47.1143 8.7041 47.1154C7.90099 47.1162 7.09791 47.1186 6.29481 47.1232C5.74412 47.1262 5.19346 47.1271 4.64277 47.1263C4.32499 47.126 4.00735 47.1268 3.68957 47.1295C3.3449 47.1323 3.00039 47.1317 2.65571 47.1301C2.55548 47.1318 2.45526 47.1334 2.35199 47.1351C1.77518 47.1281 1.45486 47.0492 1.03889 46.639C0.773596 46.3181 0.810407 45.9849 0.803232 45.5876C0.801562 45.5128 0.799892 45.4379 0.798171 45.3607C0.783645 44.6672 0.77548 43.9736 0.769109 43.2799C0.764791 42.8144 0.758499 42.3491 0.747294 41.8837C0.736483 41.433 0.73086 40.9825 0.728748 40.5317C0.727091 40.3608 0.723662 40.1899 0.718341 40.019C0.691336 39.1083 0.706215 38.4395 1.33644 37.7378C1.50826 37.5613 1.68492 37.3906 1.86149 37.2187C2.84191 35.8618 3.04694 34.3501 2.89274 32.7187C2.67777 31.4069 1.9943 30.3901 1.09464 29.4371C0.778911 29.0909 0.81407 28.776 0.810671 28.3287C0.809754 28.2529 0.808836 28.1771 0.807891 28.0991C0.805081 27.8476 0.803077 27.5961 0.80131 27.3446C0.800386 27.2157 0.800386 27.2157 0.799443 27.0843C0.796386 26.6295 0.794094 26.1747 0.792269 25.7198C0.7906 25.3436 0.787338 24.9674 0.782656 24.5912C0.777008 24.1369 0.77413 23.6827 0.773221 23.2284C0.77242 23.0554 0.770656 22.8825 0.767902 22.7096C0.764246 22.4669 0.764157 22.2245 0.764895 21.9819C0.76302 21.9109 0.761144 21.8399 0.759213 21.7668C0.765984 21.2684 0.914109 21.0176 1.25368 20.656C1.50582 20.4298 1.68394 20.4258 2.01327 20.4259ZM15.4552 26.0625C15.2269 26.3697 15.0678 26.7016 14.9045 27.0469C14.8574 27.1417 14.8104 27.2366 14.7619 27.3344C14.6647 27.5309 14.5684 27.7278 14.473 27.9252C14.335 28.2089 14.1933 28.4904 14.0497 28.7713C13.8028 29.2556 13.8028 29.2556 13.5583 29.7411C13.5262 29.8049 13.494 29.8688 13.4609 29.9345C13.3804 30.0936 13.3804 30.0936 13.3927 30.2812C13.3046 30.2893 13.2165 30.2974 13.1258 30.3058C12.2086 30.3958 11.2945 30.516 10.383 30.6512C10.2536 30.6701 10.1242 30.6881 9.99458 30.7054C9.21288 30.8102 8.67885 30.8995 8.14274 31.5C8.03305 31.7194 8.01727 31.8763 8.00212 32.1211C7.99535 32.1977 7.98858 32.2743 7.98161 32.3533C8.14993 33.032 8.85594 33.5258 9.34355 33.9994C9.43003 34.0835 9.43003 34.0835 9.51826 34.1693C9.88024 34.521 9.88024 34.521 10.2448 34.8702C10.4244 35.0413 10.6019 35.2144 10.7791 35.388C10.8621 35.4656 10.8621 35.4656 10.9469 35.5446C11.2146 35.8105 11.3218 35.9357 11.3724 36.3198C11.3269 36.6827 11.2751 37.0425 11.2072 37.4018C11.1815 37.5445 11.1559 37.6872 11.1303 37.8299C11.0899 38.0513 11.0491 38.2726 11.0081 38.4938C10.6836 39.9137 10.6836 39.9137 10.9201 41.2969C11.1763 41.5666 11.3507 41.6966 11.7052 41.8125C12.3283 41.785 12.7752 41.5964 13.3224 41.3086C13.4026 41.2677 13.4828 41.2268 13.5654 41.1847C13.9999 40.9611 14.428 40.7278 14.8528 40.4864C14.9792 40.415 14.9792 40.415 15.1082 40.3421C15.2704 40.2497 15.4318 40.156 15.5925 40.0609C15.7027 39.9978 15.7027 39.9978 15.8152 39.9335C15.9115 39.8769 15.9115 39.8769 16.0097 39.8191C16.3304 39.7057 16.5483 39.7863 16.8518 39.925C17.0687 40.0331 17.2826 40.1458 17.4965 40.2597C17.6586 40.3445 17.8207 40.4292 17.9828 40.5139C18.2369 40.6475 18.4907 40.7814 18.7444 40.9157C18.9901 41.0456 19.2364 41.1742 19.4828 41.3027C19.5579 41.343 19.6331 41.3832 19.7105 41.4246C20.1906 41.6742 20.6546 41.8982 21.2048 41.7561C21.7309 41.476 21.7309 41.476 22.0177 40.9687C22.0623 40.2849 21.9907 39.6275 21.8742 38.9549C21.8596 38.8669 21.8451 38.7789 21.83 38.6882C21.784 38.4111 21.7368 38.1343 21.6896 37.8574C21.6579 37.6679 21.6263 37.4784 21.5948 37.2889C21.5179 36.8278 21.44 36.367 21.3615 35.9062C21.417 35.8812 21.4725 35.8561 21.5298 35.8303C21.7397 35.717 21.8766 35.6019 22.0444 35.4336C22.1022 35.3761 22.1601 35.3185 22.2197 35.2592C22.281 35.1972 22.3424 35.1352 22.4056 35.0713C22.4693 35.0075 22.5331 34.9437 22.5988 34.8779C22.7332 34.7433 22.8673 34.6083 23.0013 34.4732C23.2069 34.2659 23.4133 34.0593 23.6197 33.8529C23.7502 33.7219 23.8806 33.591 24.011 33.4599C24.0729 33.3979 24.1348 33.3359 24.1986 33.272C24.2556 33.2145 24.3126 33.1569 24.3713 33.0976C24.4467 33.0216 24.4467 33.0216 24.5237 32.9441C24.7969 32.6421 24.7789 32.323 24.7749 31.9325C24.7214 31.5912 24.5801 31.4112 24.352 31.1601C23.8858 30.8225 23.2841 30.781 22.7289 30.7024C22.6453 30.6902 22.5617 30.6779 22.4755 30.6653C22.2995 30.6397 22.1235 30.6144 21.9474 30.5893C21.6781 30.5508 21.4088 30.5115 21.1396 30.472C20.9682 30.4472 20.7968 30.4224 20.6254 30.3977C20.545 30.386 20.4647 30.3743 20.3818 30.3622C20.3067 30.3515 20.2316 30.3409 20.1542 30.3299C20.0885 30.3205 20.0227 30.311 19.955 30.3013C19.737 30.2746 19.737 30.2746 19.3927 30.2812C19.3695 30.2044 19.3462 30.1276 19.3222 30.0485C19.1858 29.664 19.0155 29.307 18.8343 28.942C18.7982 28.869 18.7621 28.796 18.7249 28.7208C18.6488 28.5671 18.5724 28.4136 18.4959 28.2601C18.3795 28.0262 18.2646 27.7917 18.1496 27.5572C18.0752 27.4074 18.0007 27.2577 17.9261 27.108C17.8922 27.0384 17.8583 26.9687 17.8233 26.897C17.5768 26.4082 17.3108 26.0091 16.8088 25.7519C16.2772 25.602 15.8785 25.7379 15.4552 26.0625ZM34.5802 26.3437C34.3322 26.9827 34.3664 27.6257 34.3685 28.3033C34.3682 28.4354 34.3679 28.5674 34.3675 28.6994C34.3666 29.0566 34.367 29.4138 34.3676 29.771C34.368 30.1455 34.3676 30.5201 34.3673 30.8946C34.367 31.5235 34.3674 32.1524 34.3683 32.7813C34.3693 33.5074 34.369 34.2335 34.368 34.9596C34.3671 35.5841 34.367 36.2085 34.3675 36.833C34.3678 37.2055 34.3678 37.578 34.3672 37.9505C34.3666 38.3008 34.367 38.6511 34.3681 39.0013C34.3685 39.1905 34.3679 39.3797 34.3673 39.5689C34.3552 40.5015 34.3552 40.5015 34.7091 41.3434C35.0278 41.626 35.2748 41.7608 35.7052 41.789C36.1357 41.7608 36.3827 41.626 36.7013 41.3434C37.1341 40.7151 37.0443 39.9242 37.042 39.1966C37.0423 39.0646 37.0426 38.9326 37.043 38.8005C37.0438 38.4434 37.0435 38.0862 37.0429 37.729C37.0424 37.3545 37.0429 36.9799 37.0432 36.6054C37.0435 35.9765 37.0431 35.3476 37.0422 34.7187C37.0412 33.9926 37.0415 33.2665 37.0425 32.5404C37.0434 31.9159 37.0435 31.2914 37.043 30.667C37.0427 30.2945 37.0427 29.922 37.0433 29.5495C37.0438 29.1992 37.0435 28.8489 37.0424 28.4986C37.042 28.3094 37.0426 28.1203 37.0432 27.9311C37.0552 26.9984 37.0552 26.9984 36.7013 26.1566C36.3827 25.8739 36.1357 25.7391 35.7052 25.7109C35.2098 25.7434 34.8632 25.9329 34.5802 26.3437ZM28.2052 27.6562C27.7524 28.2449 27.8104 28.9393 27.8068 29.6484C27.8049 29.7421 27.8029 29.8357 27.8009 29.9322C27.7979 30.523 27.8443 31.058 28.1115 31.5937C28.4419 31.9161 28.6594 32.0534 29.1193 32.0918C29.5332 32.0858 29.7633 31.9602 30.0802 31.6875C30.5299 31.0827 30.4724 30.405 30.4728 29.6836C30.4745 29.5407 30.4745 29.5407 30.4763 29.395C30.4798 28.4673 30.4798 28.4673 30.0451 27.6738C29.737 27.4171 29.5581 27.2991 29.1603 27.2461C28.7744 27.2915 28.5105 27.4182 28.2052 27.6562ZM28.2052 35.8125C27.7555 36.4173 27.8131 37.095 27.8127 37.8164C27.8115 37.9116 27.8104 38.0068 27.8092 38.105C27.8057 39.0326 27.8057 39.0326 28.2404 39.8262C28.5104 40.0511 28.7103 40.2082 29.0662 40.233C29.4655 40.195 29.66 40.1616 29.9806 39.9023C30.5005 39.2406 30.4745 38.6643 30.4787 37.8515C30.4806 37.7579 30.4825 37.6642 30.4845 37.5677C30.4876 36.977 30.4412 36.442 30.174 35.9062C29.8436 35.5839 29.6261 35.4465 29.1662 35.4082C28.7523 35.4142 28.5222 35.5398 28.2052 35.8125Z" fill="white"/>
<path d="M30.1094 0.914062C30.198 0.911646 30.2865 0.909229 30.3778 0.906738C30.9155 0.96921 31.2477 1.3315 31.6177 1.70084C31.6659 1.74875 31.7141 1.79665 31.7638 1.846C31.9222 2.00352 32.0798 2.1617 32.2374 2.31995C32.3477 2.43007 32.458 2.54017 32.5683 2.65025C32.7989 2.88061 33.0292 3.11131 33.2593 3.34225C33.554 3.63806 33.8496 3.93302 34.1454 4.22774C34.3731 4.45477 34.6004 4.68224 34.8275 4.90984C34.9363 5.01879 35.0453 5.12759 35.1544 5.23626C35.3068 5.38815 35.4585 5.54063 35.6101 5.69328C35.6966 5.77986 35.783 5.86645 35.8721 5.95566C36.157 6.27326 36.2846 6.51609 36.3104 6.93933C36.3158 7.0113 36.3212 7.08326 36.3268 7.15741C36.3324 7.23373 36.338 7.31004 36.3438 7.38867C36.4893 8.98169 37.0601 10.4099 38.2363 11.5312C39.5007 12.583 40.9985 13.0338 42.6228 13.0778C43.1429 13.1963 43.5349 13.6187 43.901 13.9841C43.9483 14.0311 43.9956 14.0781 44.0444 14.1266C44.1992 14.2805 44.3533 14.4352 44.5073 14.5898C44.6153 14.6977 44.7234 14.8056 44.8315 14.9134C45.0571 15.1388 45.2825 15.3645 45.5075 15.5905C45.7959 15.8799 46.085 16.1685 46.3745 16.4568C46.5974 16.679 46.8199 16.9018 47.0423 17.1246C47.1488 17.2312 47.2554 17.3377 47.3621 17.444C47.5111 17.5925 47.6595 17.7416 47.8077 17.8909C47.8922 17.9755 47.9767 18.0602 48.0637 18.1474C48.3806 18.5012 48.4869 18.7695 48.5078 19.2422C48.5167 19.3676 48.5167 19.3676 48.5258 19.4956C48.4143 19.9461 48.1179 20.205 47.7988 20.5312C47.7235 20.609 47.6482 20.6867 47.5706 20.7668C47.3243 21.0183 47.0756 21.2672 46.8262 21.5156C46.6976 21.6447 46.6976 21.6447 46.5665 21.7764C46.4852 21.8576 46.4039 21.9388 46.3201 22.0225C46.2462 22.0962 46.1723 22.17 46.0962 22.246C45.9238 22.4062 45.9238 22.4062 45.8301 22.4062C45.822 22.311 45.8139 22.2158 45.8055 22.1177C45.6731 20.7532 45.2971 19.5888 44.2188 18.6797C43.5737 18.204 42.7921 17.9172 41.9863 17.9062C41.7738 17.9431 41.5617 17.9829 41.35 18.0247C40.3514 18.1855 39.3354 18.201 38.4477 17.6539C37.0621 16.6431 35.8936 15.312 34.732 14.0584C34.2085 13.494 33.6741 12.9402 33.1396 12.3862C32.5942 11.8203 32.0498 11.2537 31.5123 10.6803C31.4311 10.5938 31.3499 10.5074 31.2662 10.4183C31.1148 10.2569 30.9637 10.0951 30.8132 9.93274C30.7465 9.86163 30.6797 9.79051 30.6109 9.71724C30.5533 9.65531 30.4957 9.59338 30.4363 9.52958C30.0953 9.21718 29.7983 9.14582 29.333 9.1571C29.0192 9.20718 28.8198 9.3627 28.5801 9.5625C28.3707 9.87649 28.32 10.0317 28.2988 10.4062C28.4777 11.0359 28.7495 11.3915 29.2144 11.8423C29.3105 11.9383 29.3105 11.9383 29.4085 12.0362C29.619 12.2458 29.831 12.4538 30.0431 12.6617C30.1899 12.8075 30.3367 12.9533 30.4833 13.0993C30.8683 13.482 31.2548 13.8634 31.6415 14.2444C32.188 14.7834 32.7327 15.3242 33.2775 15.8648C33.5676 16.1526 33.8582 16.4399 34.1492 16.7268C34.281 16.8571 34.4128 16.9873 34.5446 17.1176C34.636 17.2074 34.636 17.2074 34.7292 17.299C34.8688 17.4371 35.006 17.5777 35.1426 17.7188C35.1426 17.7497 35.1426 17.7806 35.1426 17.8125C33.0698 17.8125 30.997 17.8125 28.8613 17.8125C28.7685 17.5341 28.6757 17.2556 28.5801 16.9688C28.3914 16.7002 28.3914 16.7002 28.1589 16.4828C28.0774 16.4018 27.9958 16.3207 27.9117 16.2372C27.8268 16.1557 27.7418 16.0742 27.6543 15.9902C27.5701 15.9062 27.4858 15.8221 27.399 15.7355C26.7772 15.1175 26.7772 15.1175 25.9551 14.877C25.636 14.9102 25.469 15.0115 25.2051 15.1875C25.1432 15.1875 25.0813 15.1875 25.0176 15.1875C24.7982 15.6126 24.7401 16.0323 24.8301 16.5C24.9838 16.7827 25.1791 17.0106 25.3926 17.25C25.5473 17.4356 25.702 17.6213 25.8613 17.8125C21.5301 17.8125 17.1988 17.8125 12.7363 17.8125C13.1158 17.3698 13.493 16.9489 13.9049 16.5396C13.9626 16.4819 14.0202 16.4242 14.0797 16.3647C14.2681 16.1763 14.4569 15.9882 14.6458 15.8002C14.7774 15.6687 14.909 15.5372 15.0406 15.4057C15.3853 15.0614 15.7303 14.7173 16.0754 14.3733C16.4281 14.0215 16.7806 13.6695 17.1331 13.3174C17.8235 12.628 18.5142 11.9389 19.2051 11.25C19.4926 11.3872 19.6843 11.5218 19.9045 11.7535C19.9642 11.8151 20.0239 11.8767 20.0854 11.9401C20.2089 12.0693 20.3322 12.1987 20.4553 12.3283C21.0164 12.9087 21.0164 12.9087 21.7719 13.1451C22.2308 13.0868 22.5534 13.0295 22.8613 12.6562C23.0341 12.2447 23.0863 11.9468 22.965 11.5122C22.7305 11.0095 22.3005 10.6499 21.9062 10.2715C21.827 10.194 21.7478 10.1164 21.6662 10.0366C21.4717 9.84641 21.2763 9.65719 21.0801 9.46875C21.503 8.96206 21.9506 8.4911 22.4178 8.02519C22.4934 7.94935 22.5691 7.87351 22.6471 7.79537C22.8955 7.54653 23.1443 7.29804 23.3931 7.04956C23.5663 6.87628 23.7395 6.70298 23.9127 6.52968C24.2747 6.16749 24.6369 5.80551 24.9992 5.44363C25.4182 5.02517 25.8368 4.60638 26.2553 4.1874C26.6585 3.78368 27.062 3.38023 27.4656 2.97688C27.6372 2.80538 27.8087 2.6338 27.9801 2.46216C28.2189 2.22314 28.458 1.98442 28.6972 1.74577C28.804 1.63868 28.804 1.63868 28.9129 1.52943C28.9779 1.46478 29.0428 1.40013 29.1097 1.33351C29.1661 1.27707 29.2226 1.22063 29.2808 1.16248C29.5475 0.917757 29.7565 0.919792 30.1094 0.914062Z" fill="white"/>
<path d="M16.2988 29.9062C16.3607 29.9062 16.4226 29.9062 16.4863 29.9062C16.518 29.9724 16.5496 30.0386 16.5822 30.1068C16.7268 30.4078 16.8731 30.7078 17.0195 31.0078C17.0693 31.112 17.119 31.2162 17.1702 31.3235C17.2195 31.4238 17.2687 31.5241 17.3195 31.6274C17.3641 31.7197 17.4088 31.812 17.4548 31.9071C17.7061 32.3071 17.9605 32.4985 18.4144 32.6228C18.5391 32.6445 18.664 32.6647 18.7891 32.6836C18.8545 32.6946 18.9199 32.7057 18.9874 32.717C19.1848 32.7501 19.3824 32.7813 19.5801 32.8125C19.7988 32.8495 20.0176 32.8866 20.2363 32.9238C20.3926 32.9494 20.5488 32.9748 20.7051 33C20.5691 33.3137 20.3978 33.5157 20.1539 33.7537C20.0831 33.8235 20.0122 33.8934 19.9391 33.9653C19.8651 34.0374 19.7911 34.1094 19.7148 34.1836C19.568 34.3272 19.4214 34.471 19.275 34.615C19.1774 34.7101 19.1774 34.7101 19.0778 34.8071C18.7544 35.1467 18.8059 35.4838 18.8081 35.9326C18.8424 36.4765 18.9458 37.0043 19.0498 37.5385C19.1113 37.875 19.1113 37.875 19.1113 38.1562C18.5488 37.9941 18.0711 37.7164 17.5683 37.424C17.0953 37.162 16.6599 36.9911 16.1113 37.0312C15.838 37.1128 15.6026 37.2359 15.3555 37.377C15.2313 37.4437 15.1072 37.5105 14.983 37.5773C14.9225 37.6107 14.8619 37.6441 14.7995 37.6785C14.6016 37.7866 14.4023 37.8913 14.2015 37.994C14.1408 38.0252 14.0801 38.0563 14.0175 38.0884C13.8613 38.1562 13.8613 38.1562 13.6738 38.1562C13.6823 38.102 13.6909 38.0478 13.6996 37.9919C14.063 36.4494 14.063 36.4494 13.8507 34.9713C13.6799 34.7648 13.4953 34.5888 13.2988 34.4062C13.1373 34.248 12.9769 34.0887 12.8168 33.929C12.7054 33.8183 12.5932 33.7083 12.4803 33.5992C12.3434 33.4654 12.2113 33.3268 12.0801 33.1875C12.0801 33.1256 12.0801 33.0638 12.0801 33C12.1822 32.9852 12.1822 32.9852 12.2863 32.97C12.5966 32.9244 12.9067 32.8772 13.2168 32.8301C13.3239 32.8145 13.4309 32.799 13.5413 32.783C14.4184 32.6835 14.4184 32.6835 15.1075 32.1902C15.4159 31.7196 15.6592 31.2078 15.9062 30.7031C15.9444 30.626 15.9825 30.5489 16.0218 30.4695C16.1145 30.2819 16.2068 30.0942 16.2988 29.9062Z" fill="white"/>
</g>
<defs>
<clipPath id="clip0_175_18110">
<rect width="48" height="48" fill="white" transform="translate(0.642578)"/>
</clipPath>
</defs>
</svg>
