<svg width="16" height="16" viewBox="0 0 24 24" fill="none" xmlns="http://www.w3.org/2000/svg">
<mask id="mask0_175_18049" style="mask-type:alpha" maskUnits="userSpaceOnUse" x="2" y="3" width="21" height="17">
<path fill-rule="evenodd" clip-rule="evenodd" d="M4.00099 3.99976H20.001C21.101 3.99976 22.001 4.89976 22.001 5.99977V17.9997C22.001 19.0998 21.101 19.9998 20.001 19.9998H4.00099C2.90098 19.9998 2.00098 19.0998 2.00098 17.9997V5.99977C2.00098 4.89976 2.90098 3.99976 4.00099 3.99976ZM13.061 12.3398L19.601 8.24976C19.851 8.08976 20.001 7.81976 20.001 7.52977C20.001 6.85976 19.271 6.45976 18.701 6.80977L12.001 10.9998L5.30098 6.80977C4.73098 6.45976 4.00099 6.85976 4.00099 7.52977C4.00099 7.81976 4.15099 8.08976 4.40098 8.24976L10.941 12.3398C11.591 12.7498 12.411 12.7498 13.061 12.3398Z" fill="black"/>
</mask>
<g mask="url(#mask0_175_18049)">
<path d="M24 0H0V24H24V0Z" fill="white" fill-opacity="0.9"/>
</g>
</svg>
