<svg width="25" height="24" viewBox="0 0 25 24" fill="none" xmlns="http://www.w3.org/2000/svg">
<mask id="mask0_175_20495" style="mask-type:luminance" maskUnits="userSpaceOnUse" x="0" y="0" width="25" height="24">
<path d="M24.5 0H0.5V24H24.5V0Z" fill="white"/>
</mask>
<g mask="url(#mask0_175_20495)">
<path fill-rule="evenodd" clip-rule="evenodd" d="M4.92899 11.2175C4.72157 11.425 4.60518 11.7064 4.60547 11.9997C4.60554 12.611 5.09971 13.1051 5.71101 13.1051H11.3952V18.7893C11.3952 19.4006 11.8894 19.8948 12.5007 19.8948C13.1121 19.8948 13.6063 19.4006 13.6063 18.7893V13.1051H19.2905C19.9018 13.1051 20.396 12.6109 20.396 11.9996C20.396 11.3882 19.9018 10.894 19.2905 10.894H13.6063V5.20983C13.6063 4.61071 13.1062 4.11051 12.5071 4.11035C12.2137 4.11002 11.9322 4.22642 11.7248 4.43388C11.5174 4.64131 11.401 4.92282 11.4013 5.21618L11.3955 10.894H5.71108C5.41778 10.8937 5.1364 11.0101 4.92899 11.2175Z" fill="#121212" fill-opacity="0.92"/>
</g>
</svg>
