<svg width="24" height="24" viewBox="0 0 24 24" fill="none" xmlns="http://www.w3.org/2000/svg">
<path fill-rule="evenodd" clip-rule="evenodd" d="M14.0799 5H4.94384C4.42831 5 3.93388 5.203 3.56934 5.56434C3.2048 5.92568 3 6.41577 3 6.92678V9.49583C3.00025 9.63779 3.04794 9.77568 3.13563 9.88793C3.22332 10.0002 3.34606 10.0805 3.48467 10.1162C3.90401 10.2263 4.27486 10.4707 4.53946 10.8114C4.80405 11.1521 4.94753 11.57 4.94753 12C4.94753 12.43 4.80405 12.8479 4.53946 13.1886C4.27486 13.5293 3.90401 13.7737 3.48467 13.8837C3.34609 13.9198 3.22348 14.0004 3.13602 14.1129C3.04856 14.2254 3.00118 14.3634 3.0013 14.5055V17.0732C3.0013 17.5842 3.20609 18.0743 3.57063 18.4357C3.93518 18.797 4.4296 19 4.94514 19H14.0812V16.797C14.0812 16.5841 14.1665 16.3799 14.3184 16.2294C14.4703 16.0788 14.6763 15.9942 14.8911 15.9942C15.106 15.9942 15.312 16.0788 15.4639 16.2294C15.6157 16.3799 15.7011 16.5841 15.7011 16.797V19H19.0549C19.5704 19 20.0648 18.797 20.4294 18.4357C20.7939 18.0743 20.9987 17.5842 20.9987 17.0732V14.5003C20.9988 14.3592 20.9521 14.222 20.8656 14.1098C20.7792 13.9977 20.6579 13.9169 20.5205 13.8799C20.1051 13.767 19.7385 13.5219 19.4773 13.1824C19.216 12.8429 19.0745 12.4277 19.0745 12.0006C19.0745 11.5736 19.216 11.1584 19.4773 10.8189C19.7385 10.4794 20.1051 10.2343 20.5205 10.1214C20.6582 10.0847 20.7797 10.004 20.8664 9.89179C20.9531 9.77962 21.0001 9.64226 21 9.50096V6.92807C21 6.41705 20.7952 5.92697 20.4307 5.56563C20.0661 5.20428 19.5717 5.00128 19.0562 5.00128H15.6998V7.21451C15.6998 7.42744 15.6145 7.63164 15.4626 7.7822C15.3107 7.93276 15.1047 8.01734 14.8898 8.01734C14.675 8.01734 14.469 7.93276 14.3171 7.7822C14.1652 7.63164 14.0799 7.42744 14.0799 7.21451V5ZM14.8898 9.90173C15.3382 9.90173 15.6998 10.2614 15.6998 10.7046V13.2942C15.6998 13.5071 15.6145 13.7113 15.4626 13.8618C15.3107 14.0124 15.1047 14.097 14.8898 14.097C14.675 14.097 14.469 14.0124 14.3171 13.8618C14.1652 13.7113 14.0799 13.5071 14.0799 13.2942V10.7046C14.0799 10.2614 14.4428 9.90173 14.8898 9.90173Z" fill="#F8C154"/>
</svg>
