<svg width="33" height="32" viewBox="0 0 33 32" fill="none" xmlns="http://www.w3.org/2000/svg">
<path d="M20.3389 2.6672C20.3389 2.24285 20.1703 1.83589 19.8702 1.53583C19.5702 1.23577 19.1632 1.0672 18.7389 1.0672C18.3145 1.0672 17.9076 1.23577 17.6075 1.53583C17.3074 1.83589 17.1389 2.24285 17.1389 2.6672V8C17.1389 8.42435 17.3074 8.83131 17.6075 9.13137C17.9076 9.43143 18.3145 9.6 18.7389 9.6C19.1632 9.6 19.5702 9.43143 19.8702 9.13137C20.1703 8.83131 20.3389 8.42435 20.3389 8V6.9328H28.0717C28.496 6.9328 28.903 6.76423 29.2031 6.46417C29.5031 6.16411 29.6717 5.75715 29.6717 5.3328C29.6717 4.90845 29.5031 4.50149 29.2031 4.20143C28.903 3.90137 28.496 3.7328 28.0717 3.7328H20.3389V2.6672ZM2.47168 5.3328C2.47168 4.90845 2.64025 4.50149 2.94031 4.20143C3.24037 3.90137 3.64733 3.7328 4.07168 3.7328H13.4045C13.8288 3.7328 14.2358 3.90137 14.5358 4.20143C14.8359 4.50149 15.0045 4.90845 15.0045 5.3328C15.0045 5.75715 14.8359 6.16411 14.5358 6.46417C14.2358 6.76423 13.8288 6.9328 13.4045 6.9328H4.07168C3.64733 6.9328 3.24037 6.76423 2.94031 6.46417C2.64025 6.16411 2.47168 5.75715 2.47168 5.3328ZM16.0717 14.4C15.6473 14.4 15.2404 14.5686 14.9403 14.8686C14.6403 15.1687 14.4717 15.5757 14.4717 16C14.4717 16.4243 14.6403 16.8313 14.9403 17.1314C15.2404 17.4314 15.6473 17.6 16.0717 17.6H28.0717C28.496 17.6 28.903 17.4314 29.2031 17.1314C29.5031 16.8313 29.6717 16.4243 29.6717 16C29.6717 15.5757 29.5031 15.1687 29.2031 14.8686C28.903 14.5686 28.496 14.4 28.0717 14.4H16.0717ZM2.47168 16C2.47168 15.5757 2.64025 15.1687 2.94031 14.8686C3.24037 14.5686 3.64733 14.4 4.07168 14.4H9.13888V13.3328C9.13888 12.9085 9.30745 12.5015 9.60751 12.2014C9.90757 11.9014 10.3145 11.7328 10.7389 11.7328C11.1632 11.7328 11.5702 11.9014 11.8702 12.2014C12.1703 12.5015 12.3389 12.9085 12.3389 13.3328V18.6672C12.3389 19.0915 12.1703 19.4985 11.8702 19.7986C11.5702 20.0986 11.1632 20.2672 10.7389 20.2672C10.3145 20.2672 9.90757 20.0986 9.60751 19.7986C9.30745 19.4985 9.13888 19.0915 9.13888 18.6672V17.6H4.07168C3.64733 17.6 3.24037 17.4314 2.94031 17.1314C2.64025 16.8313 2.47168 16.4243 2.47168 16ZM19.8045 24C19.8045 23.5757 19.9731 23.1687 20.2731 22.8686C20.5732 22.5686 20.9801 22.4 21.4045 22.4C21.8288 22.4 22.2358 22.5686 22.5358 22.8686C22.8359 23.1687 23.0045 23.5757 23.0045 24V25.0672H28.0717C28.496 25.0672 28.903 25.2358 29.2031 25.5358C29.5031 25.8359 29.6717 26.2429 29.6717 26.6672C29.6717 27.0915 29.5031 27.4985 29.2031 27.7986C28.903 28.0986 28.496 28.2672 28.0717 28.2672H23.0045V29.3328C23.0045 29.7571 22.8359 30.1641 22.5358 30.4642C22.2358 30.7642 21.8288 30.9328 21.4045 30.9328C20.9801 30.9328 20.5732 30.7642 20.2731 30.4642C19.9731 30.1641 19.8045 29.7571 19.8045 29.3328V24ZM2.47168 26.6672C2.47168 26.2429 2.64025 25.8359 2.94031 25.5358C3.24037 25.2358 3.64733 25.0672 4.07168 25.0672H16.0717C16.496 25.0672 16.903 25.2358 17.203 25.5358C17.5031 25.8359 17.6717 26.2429 17.6717 26.6672C17.6717 27.0915 17.5031 27.4985 17.203 27.7986C16.903 28.0986 16.496 28.2672 16.0717 28.2672H4.07168C3.64733 28.2672 3.24037 28.0986 2.94031 27.7986C2.64025 27.4985 2.47168 27.0915 2.47168 26.6672Z" fill="white"/>
</svg>
