<svg width="32" height="32" viewBox="0 0 32 32" fill="none" xmlns="http://www.w3.org/2000/svg">
<path d="M5 8.14286C5 6.41429 6.41429 5 8.14286 5H23.8571C24.6907 5 25.4901 5.33112 26.0795 5.92052C26.6689 6.50992 27 7.30932 27 8.14286V23.8571C27 24.6907 26.6689 25.4901 26.0795 26.0795C25.4901 26.6689 24.6907 27 23.8571 27H8.14286C7.30932 27 6.50992 26.6689 5.92052 26.0795C5.33112 25.4901 5 24.6907 5 23.8571V8.14286ZM9.71429 17.5714C10.1311 17.5714 10.5308 17.4059 10.8255 17.1112C11.1202 16.8165 11.2857 16.4168 11.2857 16C11.2857 15.5832 11.1202 15.1835 10.8255 14.8888C10.5308 14.5941 10.1311 14.4286 9.71429 14.4286C9.29752 14.4286 8.89782 14.5941 8.60312 14.8888C8.30842 15.1835 8.14286 15.5832 8.14286 16C8.14286 16.4168 8.30842 16.8165 8.60312 17.1112C8.89782 17.4059 9.29752 17.5714 9.71429 17.5714ZM11.2857 11.2857C11.2857 10.8689 11.1202 10.4692 10.8255 10.1745C10.5308 9.87985 10.1311 9.71429 9.71429 9.71429C9.29752 9.71429 8.89782 9.87985 8.60312 10.1745C8.30842 10.4692 8.14286 10.8689 8.14286 11.2857C8.14286 11.7025 8.30842 12.1022 8.60312 12.3969C8.89782 12.6916 9.29752 12.8571 9.71429 12.8571C10.1311 12.8571 10.5308 12.6916 10.8255 12.3969C11.1202 12.1022 11.2857 11.7025 11.2857 11.2857ZM9.71429 22.2857C10.1311 22.2857 10.5308 22.1202 10.8255 21.8255C11.1202 21.5308 11.2857 21.1311 11.2857 20.7143C11.2857 20.2975 11.1202 19.8978 10.8255 19.6031C10.5308 19.3084 10.1311 19.1429 9.71429 19.1429C9.29752 19.1429 8.89782 19.3084 8.60312 19.6031C8.30842 19.8978 8.14286 20.2975 8.14286 20.7143C8.14286 21.1311 8.30842 21.5308 8.60312 21.8255C8.89782 22.1202 9.29752 22.2857 9.71429 22.2857ZM14.4286 10.1071C14.116 10.1071 13.8162 10.2313 13.5952 10.4523C13.3742 10.6734 13.25 10.9731 13.25 11.2857C13.25 11.5983 13.3742 11.8981 13.5952 12.1191C13.8162 12.3401 14.116 12.4643 14.4286 12.4643H22.2857C22.5983 12.4643 22.8981 12.3401 23.1191 12.1191C23.3401 11.8981 23.4643 11.5983 23.4643 11.2857C23.4643 10.9731 23.3401 10.6734 23.1191 10.4523C22.8981 10.2313 22.5983 10.1071 22.2857 10.1071H14.4286ZM14.4286 14.8214C14.116 14.8214 13.8162 14.9456 13.5952 15.1666C13.3742 15.3876 13.25 15.6874 13.25 16C13.25 16.3126 13.3742 16.6123 13.5952 16.8334C13.8162 17.0544 14.116 17.1786 14.4286 17.1786H22.2857C22.5983 17.1786 22.8981 17.0544 23.1191 16.8334C23.3401 16.6123 23.4643 16.3126 23.4643 16C23.4643 15.6874 23.3401 15.3876 23.1191 15.1666C22.8981 14.9456 22.5983 14.8214 22.2857 14.8214H14.4286ZM14.4286 19.5357C14.116 19.5357 13.8162 19.6599 13.5952 19.8809C13.3742 20.1019 13.25 20.4017 13.25 20.7143C13.25 21.0269 13.3742 21.3266 13.5952 21.5477C13.8162 21.7687 14.116 21.8929 14.4286 21.8929H22.2857C22.5983 21.8929 22.8981 21.7687 23.1191 21.5477C23.3401 21.3266 23.4643 21.0269 23.4643 20.7143C23.4643 20.4017 23.3401 20.1019 23.1191 19.8809C22.8981 19.6599 22.5983 19.5357 22.2857 19.5357H14.4286Z" fill="white"/>
</svg>
