<svg xmlns="http://www.w3.org/2000/svg" width="24" height="24" viewBox="0 0 24 24" fill="none">
<path d="M15.1731 12.0169C14.254 13.1877 13.1021 14.2012 11.7299 14.9943C10.3639 15.7811 8.90355 16.2784 7.43689 16.4861C5.75621 18.0032 4.50986 20.4203 4.05664 22.3339C7.45577 21.8429 10.8171 20.7099 13.9708 18.8844C17.1244 17.059 19.7871 14.711 21.9084 12.0169C19.9444 12.6401 17.0741 12.6904 15.1731 12.0169Z" fill="#990E19"/>
<path d="M13.9708 5.1495C10.8171 3.33034 7.44948 2.19729 4.05664 1.70001C5.78768 3.44993 6.93961 5.3887 7.43689 7.54777C8.90984 7.76179 10.3639 8.25278 11.7299 9.03962C13.0958 9.82645 14.254 10.8462 15.1731 12.017C17.0803 12.6905 19.9444 12.6402 21.9084 12.017C19.7871 9.31658 17.1244 6.96866 13.9708 5.1495Z" fill="#BF1220"/>
<path d="M6.58078 12.017C6.58078 10.437 6.88292 8.92631 7.43686 7.54777C6.93958 5.39499 5.78765 3.45623 4.05661 1.70001C2.77879 4.89142 2.08008 8.37238 2.08008 12.017C2.08008 15.6616 2.78508 19.1426 4.05661 22.334C4.50983 20.4204 5.75617 18.0032 7.43686 16.4862C6.88292 15.1077 6.58078 13.597 6.58078 12.017Z" fill="#E61626"/>
</svg>