<svg width="25" height="25" viewBox="0 0 25 25" fill="none" xmlns="http://www.w3.org/2000/svg">
<mask id="mask0_175_20488" style="mask-type:alpha" maskUnits="userSpaceOnUse" x="4" y="4" width="17" height="17">
<path d="M18.1415 6.85146C16.5115 5.22146 14.2015 4.28146 11.6615 4.54146C7.99148 4.91146 4.97148 7.89146 4.56148 11.5615C4.01148 16.4115 7.76148 20.5015 12.4915 20.5015C15.6815 20.5015 18.4215 18.6315 19.7015 15.9415C20.0215 15.2715 19.5415 14.5015 18.8015 14.5015C18.4315 14.5015 18.0815 14.7015 17.9215 15.0315C16.7915 17.4615 14.0815 19.0015 11.1215 18.3415C8.90148 17.8515 7.11148 16.0415 6.64148 13.8215C5.80148 9.94146 8.75148 6.50146 12.4915 6.50146C14.1515 6.50146 15.6315 7.19146 16.7115 8.28146L15.2015 9.79146C14.5715 10.4215 15.0115 11.5015 15.9015 11.5015H19.4915C20.0415 11.5015 20.4915 11.0515 20.4915 10.5015V6.91146C20.4915 6.02146 19.4115 5.57146 18.7815 6.20146L18.1415 6.85146Z" fill="black"/>
</mask>
<g mask="url(#mask0_175_20488)">
<path d="M24.5 0.5H0.5V24.5H24.5V0.5Z" fill="white" fill-opacity="0.9"/>
</g>
</svg>
