<svg width="20" height="21" viewBox="0 0 20 21" fill="none" xmlns="http://www.w3.org/2000/svg">
<mask id="path-1-inside-1_491_4311" fill="white">
<path fill-rule="evenodd" clip-rule="evenodd" d="M4.44429 2.77392C6.06579 1.73062 7.96808 1.16694 9.91692 1.15137L10.9435 2.37357C10.6308 2.34065 10.3162 2.32442 10.0014 2.32501H10C8.26331 2.32501 6.56563 2.82093 5.12161 3.75004C3.6776 4.67916 2.55213 5.99975 1.88753 7.54484C1.22293 9.08992 1.04904 10.7901 1.38785 12.4303C1.69299 13.9075 2.40164 15.2764 3.43655 16.3977L3.58277 16.5561L3.70805 16.3819C4.31028 15.5442 5.08865 14.8328 5.99677 14.2961C6.36844 14.0764 6.75737 13.8886 7.15905 13.7339L7.43695 13.627L7.20195 13.4484C6.15155 12.6507 5.47775 11.4147 5.47775 10.0271C5.47775 7.62205 7.50243 5.67236 10 5.67236C12.4975 5.67236 14.5222 7.62205 14.5222 10.0271C14.5222 11.4148 13.8484 12.6508 12.7979 13.4485L12.5629 13.627L12.8408 13.734C13.2425 13.8886 13.6314 14.0764 14.003 14.2961C14.9112 14.8328 15.6895 15.5443 16.2918 16.3821L16.4171 16.5564L16.5632 16.3979C16.8298 16.1092 17.0765 15.8021 17.3011 15.4784C18.2659 14.0878 18.7808 12.453 18.7808 10.7807V10.7795C18.7818 10.335 18.7452 9.89103 18.6714 9.45222C18.6175 9.13214 18.8432 8.83074 19.1755 8.77896C19.5079 8.72711 19.8209 8.94444 19.8748 9.26444C19.9591 9.76592 20.001 10.2731 20 10.7811V10.7821C19.9997 12.6862 19.4132 14.5475 18.3147 16.1306C17.8603 16.7854 17.3268 17.3805 16.7281 17.9048L16.7238 17.9087L16.7197 17.9127C16.6993 17.9331 16.6773 17.9523 16.6536 17.9699L16.6489 17.9734L16.6445 17.9772C15.8148 18.6876 14.8635 19.2638 13.8268 19.6773C11.9996 20.4061 9.98892 20.5968 8.04908 20.2253C6.30215 19.8907 4.68331 19.1136 3.3572 17.9787L3.3526 17.9747L3.34771 17.9711C3.32283 17.9527 3.29975 17.9327 3.27853 17.9112L3.27428 17.9069L3.26972 17.9029C3.15378 17.8013 3.04015 17.697 2.92894 17.5898C1.53042 16.2431 0.578007 14.5273 0.192154 12.6593C-0.1937 10.7913 0.00433 8.85518 0.761206 7.09556C1.51808 5.33599 2.79981 3.83204 4.44429 2.77392ZM10 6.84633C8.17577 6.84633 6.69688 8.27044 6.69688 10.0271C6.69688 11.7668 8.14738 13.1804 9.94731 13.2075L9.94923 13.2075H9.95115C9.96738 13.2074 9.98361 13.2073 9.99984 13.2073C10.0063 13.2073 10.0128 13.2074 10.0192 13.2074H10.0295C10.0359 13.2075 10.0424 13.2075 10.0488 13.2075H10.0507L10.0526 13.2075C11.8526 13.1804 13.3031 11.7669 13.3031 10.0271C13.3031 8.27044 11.8242 6.84633 10 6.84633ZM9.94731 14.3816H9.94554H9.94384C8.77523 14.3914 7.63107 14.7076 6.63448 15.2966C5.80301 15.788 5.10095 16.4536 4.57863 17.2409L4.49363 17.369L4.61838 17.4621C5.69088 18.2632 6.9459 18.817 8.28692 19.0738C9.99023 19.4001 11.7558 19.2327 13.3603 18.5927C14.0872 18.3027 14.7663 17.9217 15.3814 17.4623L15.5062 17.3691L15.4212 17.241C14.8988 16.4537 14.1967 15.788 13.3652 15.2966C12.3686 14.7076 11.2245 14.3914 10.0561 14.3816H10.0543H10.0526C10.0351 14.3818 10.0175 14.3818 10 14.3818C9.99454 14.3818 9.98908 14.3818 9.98354 14.3818C9.97146 14.3818 9.95938 14.3817 9.94731 14.3816Z"/>
</mask>
<path fill-rule="evenodd" clip-rule="evenodd" d="M4.44429 2.77392C6.06579 1.73062 7.96808 1.16694 9.91692 1.15137L10.9435 2.37357C10.6308 2.34065 10.3162 2.32442 10.0014 2.32501H10C8.26331 2.32501 6.56563 2.82093 5.12161 3.75004C3.6776 4.67916 2.55213 5.99975 1.88753 7.54484C1.22293 9.08992 1.04904 10.7901 1.38785 12.4303C1.69299 13.9075 2.40164 15.2764 3.43655 16.3977L3.58277 16.5561L3.70805 16.3819C4.31028 15.5442 5.08865 14.8328 5.99677 14.2961C6.36844 14.0764 6.75737 13.8886 7.15905 13.7339L7.43695 13.627L7.20195 13.4484C6.15155 12.6507 5.47775 11.4147 5.47775 10.0271C5.47775 7.62205 7.50243 5.67236 10 5.67236C12.4975 5.67236 14.5222 7.62205 14.5222 10.0271C14.5222 11.4148 13.8484 12.6508 12.7979 13.4485L12.5629 13.627L12.8408 13.734C13.2425 13.8886 13.6314 14.0764 14.003 14.2961C14.9112 14.8328 15.6895 15.5443 16.2918 16.3821L16.4171 16.5564L16.5632 16.3979C16.8298 16.1092 17.0765 15.8021 17.3011 15.4784C18.2659 14.0878 18.7808 12.453 18.7808 10.7807V10.7795C18.7818 10.335 18.7452 9.89103 18.6714 9.45222C18.6175 9.13214 18.8432 8.83074 19.1755 8.77896C19.5079 8.72711 19.8209 8.94444 19.8748 9.26444C19.9591 9.76592 20.001 10.2731 20 10.7811V10.7821C19.9997 12.6862 19.4132 14.5475 18.3147 16.1306C17.8603 16.7854 17.3268 17.3805 16.7281 17.9048L16.7238 17.9087L16.7197 17.9127C16.6993 17.9331 16.6773 17.9523 16.6536 17.9699L16.6489 17.9734L16.6445 17.9772C15.8148 18.6876 14.8635 19.2638 13.8268 19.6773C11.9996 20.4061 9.98892 20.5968 8.04908 20.2253C6.30215 19.8907 4.68331 19.1136 3.3572 17.9787L3.3526 17.9747L3.34771 17.9711C3.32283 17.9527 3.29975 17.9327 3.27853 17.9112L3.27428 17.9069L3.26972 17.9029C3.15378 17.8013 3.04015 17.697 2.92894 17.5898C1.53042 16.2431 0.578007 14.5273 0.192154 12.6593C-0.1937 10.7913 0.00433 8.85518 0.761206 7.09556C1.51808 5.33599 2.79981 3.83204 4.44429 2.77392ZM10 6.84633C8.17577 6.84633 6.69688 8.27044 6.69688 10.0271C6.69688 11.7668 8.14738 13.1804 9.94731 13.2075L9.94923 13.2075H9.95115C9.96738 13.2074 9.98361 13.2073 9.99984 13.2073C10.0063 13.2073 10.0128 13.2074 10.0192 13.2074H10.0295C10.0359 13.2075 10.0424 13.2075 10.0488 13.2075H10.0507L10.0526 13.2075C11.8526 13.1804 13.3031 11.7669 13.3031 10.0271C13.3031 8.27044 11.8242 6.84633 10 6.84633ZM9.94731 14.3816H9.94554H9.94384C8.77523 14.3914 7.63107 14.7076 6.63448 15.2966C5.80301 15.788 5.10095 16.4536 4.57863 17.2409L4.49363 17.369L4.61838 17.4621C5.69088 18.2632 6.9459 18.817 8.28692 19.0738C9.99023 19.4001 11.7558 19.2327 13.3603 18.5927C14.0872 18.3027 14.7663 17.9217 15.3814 17.4623L15.5062 17.3691L15.4212 17.241C14.8988 16.4537 14.1967 15.788 13.3652 15.2966C12.3686 14.7076 11.2245 14.3914 10.0561 14.3816H10.0543H10.0526C10.0351 14.3818 10.0175 14.3818 10 14.3818C9.99454 14.3818 9.98908 14.3818 9.98354 14.3818C9.97146 14.3818 9.95938 14.3817 9.94731 14.3816Z" fill="white"/>
<path d="M4.44429 2.77392L2.82102 0.25103L2.82099 0.251048L4.44429 2.77392ZM9.91692 1.15137L12.2141 -0.778168L11.3055 -1.85983L9.89294 -1.84854L9.91692 1.15137ZM10.9435 2.37357L10.6295 5.35709L18.0211 6.13522L13.2407 0.444036L10.9435 2.37357ZM10.0014 2.32501L10.0014 5.32501L10.007 5.325L10.0014 2.32501ZM5.12161 3.75004L3.49833 1.22715L3.4983 1.22717L5.12161 3.75004ZM1.88753 7.54484L4.6434 8.73025L4.6434 8.73024L1.88753 7.54484ZM1.38785 12.4303L-1.55012 13.0372L-1.55012 13.0372L1.38785 12.4303ZM3.43655 16.3977L5.64119 14.3631L5.64112 14.363L3.43655 16.3977ZM3.58277 16.5561L1.37813 18.5907L3.87176 21.2928L6.01841 18.3076L3.58277 16.5561ZM3.70805 16.3819L6.14369 18.1334L6.14392 18.1331L3.70805 16.3819ZM5.99677 14.2961L7.52322 16.8787L7.52337 16.8786L5.99677 14.2961ZM7.15905 13.7339L6.08142 10.9342L6.08107 10.9343L7.15905 13.7339ZM7.43695 13.627L8.51459 16.4267L13.5371 14.4935L9.25167 11.2381L7.43695 13.627ZM7.20195 13.4484L9.01667 11.0596L9.01633 11.0593L7.20195 13.4484ZM12.7979 13.4485L14.6122 15.8378L14.6122 15.8377L12.7979 13.4485ZM12.5629 13.627L10.7487 11.2377L6.46258 14.4923L11.4847 16.4265L12.5629 13.627ZM12.8408 13.734L11.7626 16.5335L11.7631 16.5337L12.8408 13.734ZM14.003 14.2961L12.4762 16.8785L12.4766 16.8787L14.003 14.2961ZM16.2918 16.3821L13.8558 18.1331L13.8559 18.1333L16.2918 16.3821ZM16.4171 16.5564L13.9812 18.3076L16.1283 21.294L18.6222 18.5904L16.4171 16.5564ZM16.5632 16.3979L14.3589 14.363L14.3581 14.3638L16.5632 16.3979ZM17.3011 15.4784L19.7658 17.1886L19.7658 17.1886L17.3011 15.4784ZM18.7808 10.7795L15.7808 10.7732V10.7795H18.7808ZM18.6714 9.45222L21.6299 8.95487L21.6298 8.95452L18.6714 9.45222ZM19.1755 8.77896L19.6374 11.7432L19.6379 11.7431L19.1755 8.77896ZM19.8748 9.26444L22.8332 8.76707L22.8332 8.76663L19.8748 9.26444ZM20 10.7811L17 10.7752V10.7811H20ZM20 10.7821L23 10.7826V10.7821H20ZM18.3147 16.1306L20.7794 17.8409L20.7794 17.8409L18.3147 16.1306ZM16.7281 17.9048L14.7518 15.6478L14.7401 15.658L14.7285 15.6684L16.7281 17.9048ZM16.7238 17.9087L14.7242 15.6722L14.6621 15.7278L14.6031 15.7866L16.7238 17.9087ZM16.7197 17.9127L18.8403 20.0348L18.8403 20.0347L16.7197 17.9127ZM16.6536 17.9699L18.4412 20.3792L18.4445 20.3767L16.6536 17.9699ZM16.6489 17.9734L14.8614 15.5641L14.7736 15.6292L14.6909 15.7005L16.6489 17.9734ZM16.6445 17.9772L18.5957 20.256L18.6026 20.2501L16.6445 17.9772ZM13.8268 19.6773L12.7154 16.8907L12.7153 16.8908L13.8268 19.6773ZM8.04908 20.2253L8.61343 17.2788L8.61342 17.2788L8.04908 20.2253ZM3.3572 17.9787L5.30781 15.6994L5.30484 15.6968L3.3572 17.9787ZM3.3526 17.9747L5.30024 15.6929L5.2232 15.6272L5.1419 15.5667L3.3526 17.9747ZM3.34771 17.9711L5.13701 15.5631L5.13411 15.561L3.34771 17.9711ZM3.27853 17.9112L5.41303 15.8031L5.41033 15.8004L3.27853 17.9112ZM3.27428 17.9069L5.40608 15.7961L5.33256 15.7218L5.25405 15.6529L3.27428 17.9069ZM3.26972 17.9029L5.2495 15.6489L5.24637 15.6461L3.26972 17.9029ZM2.92894 17.5898L5.01009 15.4291L5.00988 15.4289L2.92894 17.5898ZM0.192154 12.6593L-2.74582 13.2662L-2.74582 13.2662L0.192154 12.6593ZM0.761206 7.09556L-1.99465 5.91013L-1.99467 5.91016L0.761206 7.09556ZM9.94731 13.2075L10.0619 10.2097L10.0272 10.2083L9.99249 10.2078L9.94731 13.2075ZM9.94923 13.2075L9.83468 16.2054L9.89194 16.2075H9.94923V13.2075ZM9.95115 13.2075V16.2075H9.96484L9.97853 16.2074L9.95115 13.2075ZM10.0295 13.2074L10.0643 10.2076L10.0469 10.2074H10.0295V13.2074ZM10.0488 13.2075L10.014 16.2073L10.0314 16.2075H10.0488V13.2075ZM10.0507 13.2075V16.2075H10.108L10.1652 16.2054L10.0507 13.2075ZM10.0526 13.2075L10.0076 10.2078L9.97282 10.2083L9.93811 10.2097L10.0526 13.2075ZM9.94731 14.3816L9.98411 11.3818L9.96571 11.3816H9.94731V14.3816ZM9.94384 14.3816V11.3816H9.9312L9.91855 11.3817L9.94384 14.3816ZM6.63448 15.2966L8.16087 17.8793L8.16095 17.8792L6.63448 15.2966ZM4.57863 17.2409L7.07822 18.8998L7.07847 18.8994L4.57863 17.2409ZM4.49363 17.369L1.99404 15.71L0.424894 18.0743L2.69833 19.7725L4.49363 17.369ZM4.61838 17.4621L2.82308 19.8657L2.82317 19.8657L4.61838 17.4621ZM8.28692 19.0738L8.85136 16.1274L8.85134 16.1274L8.28692 19.0738ZM13.3603 18.5927L12.2489 15.8061L12.2489 15.8061L13.3603 18.5927ZM15.3814 17.4623L13.5862 15.0587L13.5861 15.0587L15.3814 17.4623ZM15.5062 17.3691L17.3013 19.7727L19.5744 18.0751L18.0062 15.7108L15.5062 17.3691ZM15.4212 17.241L17.9212 15.5827L17.921 15.5824L15.4212 17.241ZM13.3652 15.2966L11.8388 17.8792L11.8388 17.8792L13.3652 15.2966ZM10.0561 14.3816L10.0814 11.3817L10.0687 11.3816H10.0561V14.3816ZM10.0526 14.3816V11.3816H10.0336L10.0146 11.3818L10.0526 14.3816ZM9.98354 14.3818L9.96514 17.3818L9.97434 17.3818H9.98354V14.3818ZM6.06757 5.29681C7.20596 4.56434 8.55254 4.16237 9.9409 4.15127L9.89294 -1.84854C7.38361 -1.82848 4.92562 -1.10311 2.82102 0.25103L6.06757 5.29681ZM7.61977 3.0809L8.64639 4.30311L13.2407 0.444036L12.2141 -0.778168L7.61977 3.0809ZM11.2576 -0.609942C10.8387 -0.654044 10.4174 -0.67578 9.99574 -0.674986L10.007 5.325C10.215 5.32461 10.4229 5.33534 10.6295 5.35709L11.2576 -0.609942ZM10.0014 -0.674991H10V5.32501H10.0014V-0.674991ZM10 -0.674991C7.6946 -0.674991 5.43228 -0.0171892 3.49833 1.22715L6.74488 6.27293C7.69898 5.65904 8.83201 5.32501 10 5.32501V-0.674991ZM3.4983 1.22717C1.56324 2.47225 0.0374391 4.25364 -0.86834 6.35944L4.6434 8.73024C5.06682 7.74586 5.79196 6.88608 6.74491 6.27291L3.4983 1.22717ZM-0.868338 6.35943C-1.77472 8.46661 -2.01385 10.7922 -1.55012 13.0372L4.32583 11.8234C4.11193 10.7879 4.22058 9.71324 4.6434 8.73025L-0.868338 6.35943ZM-1.55012 13.0372C-1.13272 15.0578 -0.165736 16.9179 1.23197 18.4324L5.64112 14.363C4.96901 13.6348 4.5187 12.7571 4.32583 11.8234L-1.55012 13.0372ZM1.2319 18.4323L1.37813 18.5907L5.78741 14.5216L5.64119 14.3631L1.2319 18.4323ZM6.01841 18.3076L6.14369 18.1334L1.27242 14.6304L1.14713 14.8047L6.01841 18.3076ZM6.14392 18.1331C6.50088 17.6366 6.96816 17.2068 7.52322 16.8787L4.47031 11.7134C3.20915 12.4589 2.11969 13.4519 1.27219 14.6308L6.14392 18.1331ZM7.52337 16.8786C7.75043 16.7444 7.98918 16.629 8.23704 16.5336L6.08107 10.9343C5.52556 11.1482 4.98645 11.4083 4.47016 11.7135L7.52337 16.8786ZM8.23669 16.5337L8.51459 16.4267L6.35932 10.8272L6.08142 10.9342L8.23669 16.5337ZM9.25167 11.2381L9.01667 11.0596L5.38723 15.8373L5.62223 16.0158L9.25167 11.2381ZM9.01633 11.0593C8.65932 10.7882 8.47775 10.4115 8.47775 10.0271H2.47775C2.47775 12.4179 3.64377 14.5133 5.38758 15.8376L9.01633 11.0593ZM8.47775 10.0271C8.47775 9.38461 9.05156 8.67236 10 8.67236V2.67236C5.9533 2.67236 2.47775 5.85949 2.47775 10.0271H8.47775ZM10 8.67236C10.9484 8.67236 11.5222 9.38462 11.5222 10.0271H17.5222C17.5222 5.85949 14.0467 2.67236 10 2.67236V8.67236ZM11.5222 10.0271C11.5222 10.4115 11.3407 10.7882 10.9836 11.0593L14.6122 15.8377C16.3561 14.5134 17.5222 12.4181 17.5222 10.0271H11.5222ZM10.9837 11.0593L10.7487 11.2377L14.3772 16.0162L14.6122 15.8378L10.9837 11.0593ZM11.4847 16.4265L11.7626 16.5335L13.919 10.9344L13.6411 10.8274L11.4847 16.4265ZM11.7631 16.5337C12.0107 16.629 12.2493 16.7443 12.4762 16.8785L15.5298 11.7136C15.0135 11.4084 14.4742 11.1481 13.9185 10.9343L11.7631 16.5337ZM12.4766 16.8787C13.0316 17.2067 13.4989 17.6365 13.8558 18.1331L18.7277 14.631C17.8802 13.4521 16.7907 12.4589 15.5294 11.7134L12.4766 16.8787ZM13.8559 18.1333L13.9812 18.3076L18.8529 14.8052L18.7276 14.6309L13.8559 18.1333ZM18.6222 18.5904L18.7683 18.432L14.3581 14.3638L14.212 14.5223L18.6222 18.5904ZM18.7676 18.4328C19.1275 18.0429 19.4613 17.6274 19.7658 17.1886L14.8363 13.7681C14.6916 13.9767 14.532 14.1754 14.3589 14.363L18.7676 18.4328ZM19.7658 17.1886C21.0747 15.3022 21.7808 13.0721 21.7808 10.7807H15.7808C15.7808 11.834 15.4571 12.8734 14.8363 13.7681L19.7658 17.1886ZM21.7808 10.7807V10.7795H15.7808V10.7807H21.7808ZM21.7808 10.7857C21.7821 10.1723 21.7316 9.55988 21.6299 8.95487L15.7129 9.94957C15.7587 10.2222 15.7814 10.4977 15.7809 10.7732L21.7808 10.7857ZM21.6298 8.95452C21.87 10.3823 20.8543 11.5536 19.6374 11.7432L18.7137 5.81472C16.8322 6.10789 15.3651 7.88202 15.713 9.94991L21.6298 8.95452ZM19.6379 11.7431C18.4467 11.9289 17.1515 11.16 16.9164 9.76225L22.8332 8.76663C22.4903 6.72893 20.5692 5.52527 18.7131 5.81481L19.6379 11.7431ZM16.9163 9.76181C16.9727 10.0974 17.0007 10.4363 17 10.7752L23 10.787C23.0013 10.1099 22.9454 9.43441 22.8332 8.76707L16.9163 9.76181ZM17 10.7811V10.7821H23V10.7811H17ZM17 10.7817C16.9998 12.0668 16.6045 13.3329 15.85 14.4203L20.7794 17.8409C22.2219 15.7621 22.9996 13.3056 23 10.7826L17 10.7817ZM15.85 14.4203C15.5373 14.8709 15.1685 15.2829 14.7518 15.6478L18.7044 20.1618C19.4852 19.4781 20.1833 18.6999 20.7794 17.8409L15.85 14.4203ZM14.7285 15.6684L14.7242 15.6722L18.7233 20.1451L18.7277 20.1413L14.7285 15.6684ZM14.6031 15.7866L14.5991 15.7907L18.8403 20.0347L18.8444 20.0307L14.6031 15.7866ZM14.5991 15.7907C14.676 15.7139 14.7636 15.6369 14.8627 15.5631L18.4445 20.3767C18.5911 20.2677 18.7227 20.1523 18.8403 20.0348L14.5991 15.7907ZM14.8661 15.5606L14.8614 15.5641L18.4365 20.3827L18.4412 20.3792L14.8661 15.5606ZM14.6909 15.7005L14.6865 15.7043L18.6026 20.2501L18.607 20.2463L14.6909 15.7005ZM14.6934 15.6983C14.1153 16.1933 13.448 16.5985 12.7154 16.8907L14.9382 22.4638C16.279 21.929 17.5144 21.1818 18.5957 20.256L14.6934 15.6983ZM12.7153 16.8908C11.4223 17.4066 9.99328 17.5431 8.61343 17.2788L7.48472 23.1717C9.98456 23.6505 12.5769 23.4057 14.9384 22.4637L12.7153 16.8908ZM8.61342 17.2788C7.37168 17.041 6.23227 16.4905 5.30781 15.6994L1.40659 20.2579C3.13436 21.7366 5.23263 22.7403 7.48474 23.1717L8.61342 17.2788ZM5.30484 15.6968L5.30024 15.6929L1.40496 20.2566L1.40956 20.2605L5.30484 15.6968ZM5.1419 15.5667L5.13701 15.5631L1.55842 20.3791L1.5633 20.3827L5.1419 15.5667ZM5.13411 15.561C5.22994 15.632 5.32362 15.7126 5.41303 15.8031L1.14403 20.0192C1.27587 20.1527 1.41572 20.2733 1.56132 20.3813L5.13411 15.561ZM5.41033 15.8004L5.40608 15.7961L1.14247 20.0177L1.14673 20.022L5.41033 15.8004ZM5.25405 15.6529L5.2495 15.6489L1.28995 20.1569L1.2945 20.1609L5.25405 15.6529ZM5.24637 15.6461C5.16598 15.5757 5.08719 15.5034 5.01009 15.4291L0.847788 19.7506C0.993097 19.8905 1.14157 20.0269 1.29308 20.1596L5.24637 15.6461ZM5.00988 15.4289C4.0389 14.4939 3.39125 13.3166 3.13013 12.0524L-2.74582 13.2662C-2.23524 15.738 -0.978073 17.9923 0.848001 19.7508L5.00988 15.4289ZM3.13013 12.0525C2.86918 10.7892 3.00198 9.47849 3.51708 8.28096L-1.99467 5.91016C-2.99332 8.23187 -3.25658 10.7935 -2.74582 13.2662L3.13013 12.0525ZM3.51706 8.28099C4.03277 7.08209 4.91417 6.03894 6.0676 5.29679L2.82099 0.251048C0.68544 1.62513 -0.996602 3.58989 -1.99465 5.91013L3.51706 8.28099ZM10 3.84633C6.62664 3.84633 3.69688 6.50787 3.69688 10.0271H9.69688C9.69688 10.0144 9.69753 9.98491 9.74527 9.93893C9.79501 9.89104 9.87906 9.84633 10 9.84633V3.84633ZM3.69688 10.0271C3.69688 13.5119 6.57109 16.157 9.90212 16.2071L9.99249 10.2078C9.87491 10.206 9.79257 10.1615 9.74388 10.1139C9.69758 10.0687 9.69688 10.04 9.69688 10.0271H3.69688ZM9.83276 16.2053L9.83468 16.2054L10.0638 10.2097L10.0619 10.2097L9.83276 16.2053ZM9.94923 16.2075H9.95115V10.2075H9.94923V16.2075ZM9.97853 16.2074C9.98559 16.2074 9.99269 16.2073 9.99984 16.2073V10.2073C9.97454 10.2073 9.94918 10.2074 9.92377 10.2077L9.97853 16.2074ZM9.99984 16.2073C9.99579 16.2073 9.99281 16.2073 9.99165 16.2073C9.99073 16.2073 9.99018 16.2073 9.99215 16.2073C9.99341 16.2073 9.9972 16.2073 10.0013 16.2074C10.0057 16.2074 10.0119 16.2074 10.0192 16.2074V10.2074C10.0233 10.2074 10.0263 10.2074 10.0274 10.2074C10.0283 10.2074 10.0289 10.2074 10.0269 10.2074C10.0257 10.2074 10.0219 10.2074 10.0177 10.2074C10.0133 10.2073 10.0071 10.2073 9.99984 10.2073V16.2073ZM10.0192 16.2074H10.0295V10.2074H10.0192V16.2074ZM9.99473 16.2072C10.0022 16.2073 10.0085 16.2073 10.0129 16.2074C10.0171 16.2074 10.0209 16.2074 10.0221 16.2074C10.0241 16.2074 10.0235 16.2074 10.0225 16.2074C10.0213 16.2074 10.0182 16.2074 10.014 16.2073L10.0836 10.2078C10.0761 10.2077 10.0698 10.2076 10.0654 10.2076C10.0612 10.2076 10.0574 10.2075 10.0562 10.2075C10.0542 10.2075 10.0548 10.2075 10.0558 10.2075C10.057 10.2075 10.0601 10.2076 10.0643 10.2076L9.99473 16.2072ZM10.0488 16.2075H10.0507V10.2075H10.0488V16.2075ZM10.1652 16.2054L10.1671 16.2053L9.93811 10.2097L9.93619 10.2097L10.1652 16.2054ZM10.0977 16.2071C13.429 16.1571 16.3031 13.5119 16.3031 10.0271H10.3031C10.3031 10.0401 10.3023 10.0688 10.2561 10.114C10.2074 10.1615 10.1252 10.206 10.0076 10.2078L10.0977 16.2071ZM16.3031 10.0271C16.3031 6.50792 13.3734 3.84633 10 3.84633V9.84633C10.1209 9.84633 10.205 9.89103 10.2547 9.93891C10.3024 9.98488 10.3031 10.0143 10.3031 10.0271H16.3031ZM9.94731 11.3816H9.94554V17.3816H9.94731V11.3816ZM9.94554 11.3816H9.94384V17.3816H9.94554V11.3816ZM9.91855 11.3817C8.22738 11.3959 6.56452 11.8531 5.10802 12.714L8.16095 17.8792C8.69762 17.562 9.32308 17.3869 9.96914 17.3814L9.91855 11.3817ZM5.1081 12.7139C3.89207 13.4326 2.85517 14.4121 2.07879 15.5823L7.07847 18.8994C7.34672 18.4951 7.71396 18.1434 8.16087 17.8793L5.1081 12.7139ZM2.07904 15.582L1.99404 15.71L6.99322 19.0279L7.07822 18.8998L2.07904 15.582ZM2.69833 19.7725L2.82308 19.8657L6.41369 15.0586L6.28893 14.9654L2.69833 19.7725ZM2.82317 19.8657C4.26293 20.9411 5.93958 21.6787 7.7225 22.0203L8.85134 16.1274C7.95222 15.9552 7.11882 15.5853 6.4136 15.0586L2.82317 19.8657ZM7.72249 22.0203C9.98593 22.4539 12.3331 22.2322 14.4718 21.3792L12.2489 15.8061C11.1784 16.2331 9.99453 16.3464 8.85136 16.1274L7.72249 22.0203ZM14.4717 21.3792C15.4415 20.9924 16.3506 20.4828 17.1766 19.8659L13.5861 15.0587C13.182 15.3606 12.7329 15.6131 12.2489 15.8061L14.4717 21.3792ZM17.1765 19.8659L17.3013 19.7727L13.711 14.9655L13.5862 15.0587L17.1765 19.8659ZM18.0062 15.7108L17.9212 15.5827L12.9211 18.8992L13.0061 19.0274L18.0062 15.7108ZM17.921 15.5824C17.1446 14.4122 16.1076 13.4326 14.8916 12.7139L11.8388 17.8792C12.2857 18.1434 12.6531 18.4952 12.9213 18.8995L17.921 15.5824ZM14.8917 12.714C13.4352 11.8531 11.7725 11.3959 10.0814 11.3817L10.0308 17.3814C10.6766 17.3869 11.302 17.562 11.8388 17.8792L14.8917 12.714ZM10.0561 11.3816H10.0543V17.3816H10.0561V11.3816ZM10.0543 11.3816H10.0526V17.3816H10.0543V11.3816ZM10.0146 11.3818C10.0137 11.3818 10.0096 11.3818 10 11.3818V17.3818C10.0255 17.3818 10.0564 17.3817 10.0906 17.3813L10.0146 11.3818ZM10 11.3818C9.99999 11.3818 9.99998 11.3818 9.99997 11.3818C9.99996 11.3818 9.99995 11.3818 9.99993 11.3818C9.99992 11.3818 9.99991 11.3818 9.9999 11.3818C9.99989 11.3818 9.99988 11.3818 9.99987 11.3818C9.99986 11.3818 9.99985 11.3818 9.99984 11.3818C9.99983 11.3818 9.99982 11.3818 9.99981 11.3818C9.9998 11.3818 9.99979 11.3818 9.99977 11.3818C9.99976 11.3818 9.99975 11.3818 9.99974 11.3818C9.99973 11.3818 9.99972 11.3818 9.99971 11.3818C9.9997 11.3818 9.99969 11.3818 9.99968 11.3818C9.99967 11.3818 9.99966 11.3818 9.99965 11.3818C9.99964 11.3818 9.99963 11.3818 9.99961 11.3818C9.9996 11.3818 9.99959 11.3818 9.99958 11.3818C9.99957 11.3818 9.99956 11.3818 9.99955 11.3818C9.99954 11.3818 9.99953 11.3818 9.99952 11.3818C9.99951 11.3818 9.9995 11.3818 9.99949 11.3818C9.99948 11.3818 9.99947 11.3818 9.99945 11.3818C9.99944 11.3818 9.99943 11.3818 9.99942 11.3818C9.99941 11.3818 9.9994 11.3818 9.99939 11.3818C9.99938 11.3818 9.99937 11.3818 9.99936 11.3818C9.99935 11.3818 9.99934 11.3818 9.99933 11.3818C9.99932 11.3818 9.99931 11.3818 9.99929 11.3818C9.99928 11.3818 9.99927 11.3818 9.99926 11.3818C9.99925 11.3818 9.99924 11.3818 9.99923 11.3818C9.99922 11.3818 9.99921 11.3818 9.9992 11.3818C9.99919 11.3818 9.99918 11.3818 9.99917 11.3818C9.99916 11.3818 9.99915 11.3818 9.99913 11.3818C9.99912 11.3818 9.99911 11.3818 9.9991 11.3818C9.99909 11.3818 9.99908 11.3818 9.99907 11.3818C9.99906 11.3818 9.99905 11.3818 9.99904 11.3818C9.99903 11.3818 9.99902 11.3818 9.99901 11.3818C9.999 11.3818 9.99899 11.3818 9.99897 11.3818C9.99896 11.3818 9.99895 11.3818 9.99894 11.3818C9.99893 11.3818 9.99892 11.3818 9.99891 11.3818C9.9989 11.3818 9.99889 11.3818 9.99888 11.3818C9.99887 11.3818 9.99886 11.3818 9.99885 11.3818C9.99884 11.3818 9.99883 11.3818 9.99881 11.3818C9.9988 11.3818 9.99879 11.3818 9.99878 11.3818C9.99877 11.3818 9.99876 11.3818 9.99875 11.3818C9.99874 11.3818 9.99873 11.3818 9.99872 11.3818C9.99871 11.3818 9.9987 11.3818 9.99869 11.3818C9.99868 11.3818 9.99867 11.3818 9.99865 11.3818C9.99864 11.3818 9.99863 11.3818 9.99862 11.3818C9.99861 11.3818 9.9986 11.3818 9.99859 11.3818C9.99858 11.3818 9.99857 11.3818 9.99856 11.3818C9.99855 11.3818 9.99854 11.3818 9.99853 11.3818C9.99852 11.3818 9.99851 11.3818 9.99849 11.3818C9.99848 11.3818 9.99847 11.3818 9.99846 11.3818C9.99845 11.3818 9.99844 11.3818 9.99843 11.3818C9.99842 11.3818 9.99841 11.3818 9.9984 11.3818C9.99839 11.3818 9.99838 11.3818 9.99837 11.3818C9.99836 11.3818 9.99835 11.3818 9.99833 11.3818C9.99832 11.3818 9.99831 11.3818 9.9983 11.3818C9.99829 11.3818 9.99828 11.3818 9.99827 11.3818C9.99826 11.3818 9.99825 11.3818 9.99824 11.3818C9.99823 11.3818 9.99822 11.3818 9.99821 11.3818C9.9982 11.3818 9.99819 11.3818 9.99817 11.3818C9.99816 11.3818 9.99815 11.3818 9.99814 11.3818C9.99813 11.3818 9.99812 11.3818 9.99811 11.3818C9.9981 11.3818 9.99809 11.3818 9.99808 11.3818C9.99807 11.3818 9.99806 11.3818 9.99805 11.3818C9.99804 11.3818 9.99803 11.3818 9.99801 11.3818C9.998 11.3818 9.99799 11.3818 9.99798 11.3818C9.99797 11.3818 9.99796 11.3818 9.99795 11.3818C9.99794 11.3818 9.99793 11.3818 9.99792 11.3818C9.99791 11.3818 9.9979 11.3818 9.99789 11.3818C9.99788 11.3818 9.99787 11.3818 9.99785 11.3818C9.99784 11.3818 9.99783 11.3818 9.99782 11.3818C9.99781 11.3818 9.9978 11.3818 9.99779 11.3818C9.99778 11.3818 9.99777 11.3818 9.99776 11.3818C9.99775 11.3818 9.99774 11.3818 9.99773 11.3818C9.99772 11.3818 9.9977 11.3818 9.99769 11.3818C9.99768 11.3818 9.99767 11.3818 9.99766 11.3818C9.99765 11.3818 9.99764 11.3818 9.99763 11.3818C9.99762 11.3818 9.99761 11.3818 9.9976 11.3818C9.99759 11.3818 9.99758 11.3818 9.99757 11.3818C9.99756 11.3818 9.99754 11.3818 9.99753 11.3818C9.99752 11.3818 9.99751 11.3818 9.9975 11.3818C9.99749 11.3818 9.99748 11.3818 9.99747 11.3818C9.99746 11.3818 9.99745 11.3818 9.99744 11.3818C9.99743 11.3818 9.99742 11.3818 9.99741 11.3818C9.9974 11.3818 9.99738 11.3818 9.99737 11.3818C9.99736 11.3818 9.99735 11.3818 9.99734 11.3818C9.99733 11.3818 9.99732 11.3818 9.99731 11.3818C9.9973 11.3818 9.99729 11.3818 9.99728 11.3818C9.99727 11.3818 9.99726 11.3818 9.99725 11.3818C9.99724 11.3818 9.99722 11.3818 9.99721 11.3818C9.9972 11.3818 9.99719 11.3818 9.99718 11.3818C9.99717 11.3818 9.99716 11.3818 9.99715 11.3818C9.99714 11.3818 9.99713 11.3818 9.99712 11.3818C9.99711 11.3818 9.9971 11.3818 9.99709 11.3818C9.99708 11.3818 9.99706 11.3818 9.99705 11.3818C9.99704 11.3818 9.99703 11.3818 9.99702 11.3818C9.99701 11.3818 9.997 11.3818 9.99699 11.3818C9.99698 11.3818 9.99697 11.3818 9.99696 11.3818C9.99695 11.3818 9.99694 11.3818 9.99693 11.3818C9.99692 11.3818 9.9969 11.3818 9.99689 11.3818C9.99688 11.3818 9.99687 11.3818 9.99686 11.3818C9.99685 11.3818 9.99684 11.3818 9.99683 11.3818C9.99682 11.3818 9.99681 11.3818 9.9968 11.3818C9.99679 11.3818 9.99678 11.3818 9.99677 11.3818C9.99676 11.3818 9.99674 11.3818 9.99673 11.3818C9.99672 11.3818 9.99671 11.3818 9.9967 11.3818C9.99669 11.3818 9.99668 11.3818 9.99667 11.3818C9.99666 11.3818 9.99665 11.3818 9.99664 11.3818C9.99663 11.3818 9.99662 11.3818 9.99661 11.3818C9.9966 11.3818 9.99658 11.3818 9.99657 11.3818C9.99656 11.3818 9.99655 11.3818 9.99654 11.3818C9.99653 11.3818 9.99652 11.3818 9.99651 11.3818C9.9965 11.3818 9.99649 11.3818 9.99648 11.3818C9.99647 11.3818 9.99646 11.3818 9.99645 11.3818C9.99643 11.3818 9.99642 11.3818 9.99641 11.3818C9.9964 11.3818 9.99639 11.3818 9.99638 11.3818C9.99637 11.3818 9.99636 11.3818 9.99635 11.3818C9.99634 11.3818 9.99633 11.3818 9.99632 11.3818C9.99631 11.3818 9.9963 11.3818 9.99629 11.3818C9.99627 11.3818 9.99626 11.3818 9.99625 11.3818C9.99624 11.3818 9.99623 11.3818 9.99622 11.3818C9.99621 11.3818 9.9962 11.3818 9.99619 11.3818C9.99618 11.3818 9.99617 11.3818 9.99616 11.3818C9.99615 11.3818 9.99614 11.3818 9.99613 11.3818C9.99611 11.3818 9.9961 11.3818 9.99609 11.3818C9.99608 11.3818 9.99607 11.3818 9.99606 11.3818C9.99605 11.3818 9.99604 11.3818 9.99603 11.3818C9.99602 11.3818 9.99601 11.3818 9.996 11.3818C9.99599 11.3818 9.99598 11.3818 9.99597 11.3818C9.99595 11.3818 9.99594 11.3818 9.99593 11.3818C9.99592 11.3818 9.99591 11.3818 9.9959 11.3818C9.99589 11.3818 9.99588 11.3818 9.99587 11.3818C9.99586 11.3818 9.99585 11.3818 9.99584 11.3818C9.99583 11.3818 9.99582 11.3818 9.99581 11.3818C9.99579 11.3818 9.99578 11.3818 9.99577 11.3818C9.99576 11.3818 9.99575 11.3818 9.99574 11.3818C9.99573 11.3818 9.99572 11.3818 9.99571 11.3818C9.9957 11.3818 9.99569 11.3818 9.99568 11.3818C9.99567 11.3818 9.99566 11.3818 9.99564 11.3818C9.99563 11.3818 9.99562 11.3818 9.99561 11.3818C9.9956 11.3818 9.99559 11.3818 9.99558 11.3818C9.99557 11.3818 9.99556 11.3818 9.99555 11.3818C9.99554 11.3818 9.99553 11.3818 9.99552 11.3818C9.99551 11.3818 9.9955 11.3818 9.99548 11.3818C9.99547 11.3818 9.99546 11.3818 9.99545 11.3818C9.99544 11.3818 9.99543 11.3818 9.99542 11.3818C9.99541 11.3818 9.9954 11.3818 9.99539 11.3818C9.99538 11.3818 9.99537 11.3818 9.99536 11.3818C9.99535 11.3818 9.99534 11.3818 9.99532 11.3818C9.99531 11.3818 9.9953 11.3818 9.99529 11.3818C9.99528 11.3818 9.99527 11.3818 9.99526 11.3818C9.99525 11.3818 9.99524 11.3818 9.99523 11.3818C9.99522 11.3818 9.99521 11.3818 9.9952 11.3818C9.99519 11.3818 9.99518 11.3818 9.99516 11.3818C9.99515 11.3818 9.99514 11.3818 9.99513 11.3818C9.99512 11.3818 9.99511 11.3818 9.9951 11.3818C9.99509 11.3818 9.99508 11.3818 9.99507 11.3818C9.99506 11.3818 9.99505 11.3818 9.99504 11.3818C9.99503 11.3818 9.99501 11.3818 9.995 11.3818C9.99499 11.3818 9.99498 11.3818 9.99497 11.3818C9.99496 11.3818 9.99495 11.3818 9.99494 11.3818C9.99493 11.3818 9.99492 11.3818 9.99491 11.3818C9.9949 11.3818 9.99489 11.3818 9.99488 11.3818C9.99487 11.3818 9.99485 11.3818 9.99484 11.3818C9.99483 11.3818 9.99482 11.3818 9.99481 11.3818C9.9948 11.3818 9.99479 11.3818 9.99478 11.3818C9.99477 11.3818 9.99476 11.3818 9.99475 11.3818C9.99474 11.3818 9.99473 11.3818 9.99472 11.3818C9.99471 11.3818 9.99469 11.3818 9.99468 11.3818C9.99467 11.3818 9.99466 11.3818 9.99465 11.3818C9.99464 11.3818 9.99463 11.3818 9.99462 11.3818C9.99461 11.3818 9.9946 11.3818 9.99459 11.3818C9.99458 11.3818 9.99457 11.3818 9.99456 11.3818C9.99454 11.3818 9.99453 11.3818 9.99452 11.3818C9.99451 11.3818 9.9945 11.3818 9.99449 11.3818C9.99448 11.3818 9.99447 11.3818 9.99446 11.3818C9.99445 11.3818 9.99444 11.3818 9.99443 11.3818C9.99442 11.3818 9.99441 11.3818 9.9944 11.3818C9.99438 11.3818 9.99437 11.3818 9.99436 11.3818C9.99435 11.3818 9.99434 11.3818 9.99433 11.3818C9.99432 11.3818 9.99431 11.3818 9.9943 11.3818C9.99429 11.3818 9.99428 11.3818 9.99427 11.3818C9.99426 11.3818 9.99425 11.3818 9.99423 11.3818C9.99422 11.3818 9.99421 11.3818 9.9942 11.3818C9.99419 11.3818 9.99418 11.3818 9.99417 11.3818C9.99416 11.3818 9.99415 11.3818 9.99414 11.3818C9.99413 11.3818 9.99412 11.3818 9.99411 11.3818C9.9941 11.3818 9.99409 11.3818 9.99407 11.3818C9.99406 11.3818 9.99405 11.3818 9.99404 11.3818C9.99403 11.3818 9.99402 11.3818 9.99401 11.3818C9.994 11.3818 9.99399 11.3818 9.99398 11.3818C9.99397 11.3818 9.99396 11.3818 9.99395 11.3818C9.99394 11.3818 9.99393 11.3818 9.99391 11.3818C9.9939 11.3818 9.99389 11.3818 9.99388 11.3818C9.99387 11.3818 9.99386 11.3818 9.99385 11.3818C9.99384 11.3818 9.99383 11.3818 9.99382 11.3818C9.99381 11.3818 9.9938 11.3818 9.99379 11.3818C9.99378 11.3818 9.99376 11.3818 9.99375 11.3818C9.99374 11.3818 9.99373 11.3818 9.99372 11.3818C9.99371 11.3818 9.9937 11.3818 9.99369 11.3818C9.99368 11.3818 9.99367 11.3818 9.99366 11.3818C9.99365 11.3818 9.99364 11.3818 9.99363 11.3818C9.99362 11.3818 9.9936 11.3818 9.99359 11.3818C9.99358 11.3818 9.99357 11.3818 9.99356 11.3818C9.99355 11.3818 9.99354 11.3818 9.99353 11.3818C9.99352 11.3818 9.99351 11.3818 9.9935 11.3818C9.99349 11.3818 9.99348 11.3818 9.99347 11.3818C9.99345 11.3818 9.99344 11.3818 9.99343 11.3818C9.99342 11.3818 9.99341 11.3818 9.9934 11.3818C9.99339 11.3818 9.99338 11.3818 9.99337 11.3818C9.99336 11.3818 9.99335 11.3818 9.99334 11.3818C9.99333 11.3818 9.99332 11.3818 9.99331 11.3818C9.99329 11.3818 9.99328 11.3818 9.99327 11.3818C9.99326 11.3818 9.99325 11.3818 9.99324 11.3818C9.99323 11.3818 9.99322 11.3818 9.99321 11.3818C9.9932 11.3818 9.99319 11.3818 9.99318 11.3818C9.99317 11.3818 9.99316 11.3818 9.99314 11.3818C9.99313 11.3818 9.99312 11.3818 9.99311 11.3818C9.9931 11.3818 9.99309 11.3818 9.99308 11.3818C9.99307 11.3818 9.99306 11.3818 9.99305 11.3818C9.99304 11.3818 9.99303 11.3818 9.99302 11.3818C9.99301 11.3818 9.99299 11.3818 9.99298 11.3818C9.99297 11.3818 9.99296 11.3818 9.99295 11.3818C9.99294 11.3818 9.99293 11.3818 9.99292 11.3818C9.99291 11.3818 9.9929 11.3818 9.99289 11.3818C9.99288 11.3818 9.99287 11.3818 9.99286 11.3818C9.99285 11.3818 9.99283 11.3818 9.99282 11.3818C9.99281 11.3818 9.9928 11.3818 9.99279 11.3818C9.99278 11.3818 9.99277 11.3818 9.99276 11.3818C9.99275 11.3818 9.99274 11.3818 9.99273 11.3818C9.99272 11.3818 9.99271 11.3818 9.9927 11.3818C9.99268 11.3818 9.99267 11.3818 9.99266 11.3818C9.99265 11.3818 9.99264 11.3818 9.99263 11.3818C9.99262 11.3818 9.99261 11.3818 9.9926 11.3818C9.99259 11.3818 9.99258 11.3818 9.99257 11.3818C9.99256 11.3818 9.99255 11.3818 9.99253 11.3818C9.99252 11.3818 9.99251 11.3818 9.9925 11.3818C9.99249 11.3818 9.99248 11.3818 9.99247 11.3818C9.99246 11.3818 9.99245 11.3818 9.99244 11.3818C9.99243 11.3818 9.99242 11.3818 9.99241 11.3818C9.9924 11.3818 9.99239 11.3818 9.99237 11.3818C9.99236 11.3818 9.99235 11.3818 9.99234 11.3818C9.99233 11.3818 9.99232 11.3818 9.99231 11.3818C9.9923 11.3818 9.99229 11.3818 9.99228 11.3818C9.99227 11.3818 9.99226 11.3818 9.99225 11.3818C9.99224 11.3818 9.99222 11.3818 9.99221 11.3818C9.9922 11.3818 9.99219 11.3818 9.99218 11.3818C9.99217 11.3818 9.99216 11.3818 9.99215 11.3818C9.99214 11.3818 9.99213 11.3818 9.99212 11.3818C9.99211 11.3818 9.9921 11.3818 9.99209 11.3818C9.99207 11.3818 9.99206 11.3818 9.99205 11.3818C9.99204 11.3818 9.99203 11.3818 9.99202 11.3818C9.99201 11.3818 9.992 11.3818 9.99199 11.3818C9.99198 11.3818 9.99197 11.3818 9.99196 11.3818C9.99195 11.3818 9.99194 11.3818 9.99192 11.3818C9.99191 11.3818 9.9919 11.3818 9.99189 11.3818C9.99188 11.3818 9.99187 11.3818 9.99186 11.3818C9.99185 11.3818 9.99184 11.3818 9.99183 11.3818C9.99182 11.3818 9.99181 11.3818 9.9918 11.3818C9.99179 11.3818 9.99178 11.3818 9.99176 11.3818C9.99175 11.3818 9.99174 11.3818 9.99173 11.3818C9.99172 11.3818 9.99171 11.3818 9.9917 11.3818C9.99169 11.3818 9.99168 11.3818 9.99167 11.3818C9.99166 11.3818 9.99165 11.3818 9.99164 11.3818C9.99163 11.3818 9.99161 11.3818 9.9916 11.3818C9.99159 11.3818 9.99158 11.3818 9.99157 11.3818C9.99156 11.3818 9.99155 11.3818 9.99154 11.3818C9.99153 11.3818 9.99152 11.3818 9.99151 11.3818C9.9915 11.3818 9.99149 11.3818 9.99148 11.3818C9.99146 11.3818 9.99145 11.3818 9.99144 11.3818C9.99143 11.3818 9.99142 11.3818 9.99141 11.3818C9.9914 11.3818 9.99139 11.3818 9.99138 11.3818C9.99137 11.3818 9.99136 11.3818 9.99135 11.3818C9.99134 11.3818 9.99133 11.3818 9.99131 11.3818C9.9913 11.3818 9.99129 11.3818 9.99128 11.3818C9.99127 11.3818 9.99126 11.3818 9.99125 11.3818C9.99124 11.3818 9.99123 11.3818 9.99122 11.3818C9.99121 11.3818 9.9912 11.3818 9.99119 11.3818C9.99118 11.3818 9.99116 11.3818 9.99115 11.3818C9.99114 11.3818 9.99113 11.3818 9.99112 11.3818C9.99111 11.3818 9.9911 11.3818 9.99109 11.3818C9.99108 11.3818 9.99107 11.3818 9.99106 11.3818C9.99105 11.3818 9.99104 11.3818 9.99103 11.3818C9.99101 11.3818 9.991 11.3818 9.99099 11.3818C9.99098 11.3818 9.99097 11.3818 9.99096 11.3818C9.99095 11.3818 9.99094 11.3818 9.99093 11.3818C9.99092 11.3818 9.99091 11.3818 9.9909 11.3818C9.99089 11.3818 9.99088 11.3818 9.99086 11.3818C9.99085 11.3818 9.99084 11.3818 9.99083 11.3818C9.99082 11.3818 9.99081 11.3818 9.9908 11.3818C9.99079 11.3818 9.99078 11.3818 9.99077 11.3818C9.99076 11.3818 9.99075 11.3818 9.99074 11.3818C9.99073 11.3818 9.99071 11.3818 9.9907 11.3818C9.99069 11.3818 9.99068 11.3818 9.99067 11.3818C9.99066 11.3818 9.99065 11.3818 9.99064 11.3818C9.99063 11.3818 9.99062 11.3818 9.99061 11.3818C9.9906 11.3818 9.99059 11.3818 9.99058 11.3818C9.99056 11.3818 9.99055 11.3818 9.99054 11.3818C9.99053 11.3818 9.99052 11.3818 9.99051 11.3818C9.9905 11.3818 9.99049 11.3818 9.99048 11.3818C9.99047 11.3818 9.99046 11.3818 9.99045 11.3818C9.99044 11.3818 9.99043 11.3818 9.99041 11.3818C9.9904 11.3818 9.99039 11.3818 9.99038 11.3818C9.99037 11.3818 9.99036 11.3818 9.99035 11.3818C9.99034 11.3818 9.99033 11.3818 9.99032 11.3818C9.99031 11.3818 9.9903 11.3818 9.99029 11.3818C9.99028 11.3818 9.99026 11.3818 9.99025 11.3818C9.99024 11.3818 9.99023 11.3818 9.99022 11.3818C9.99021 11.3818 9.9902 11.3818 9.99019 11.3818C9.99018 11.3818 9.99017 11.3818 9.99016 11.3818C9.99015 11.3818 9.99014 11.3818 9.99013 11.3818C9.99011 11.3818 9.9901 11.3818 9.99009 11.3818C9.99008 11.3818 9.99007 11.3818 9.99006 11.3818C9.99005 11.3818 9.99004 11.3818 9.99003 11.3818C9.99002 11.3818 9.99001 11.3818 9.99 11.3818C9.98999 11.3818 9.98998 11.3818 9.98996 11.3818C9.98995 11.3818 9.98994 11.3818 9.98993 11.3818C9.98992 11.3818 9.98991 11.3818 9.9899 11.3818C9.98989 11.3818 9.98988 11.3818 9.98987 11.3818C9.98986 11.3818 9.98985 11.3818 9.98984 11.3818C9.98983 11.3818 9.98981 11.3818 9.9898 11.3818C9.98979 11.3818 9.98978 11.3818 9.98977 11.3818C9.98976 11.3818 9.98975 11.3818 9.98974 11.3818C9.98973 11.3818 9.98972 11.3818 9.98971 11.3818C9.9897 11.3818 9.98969 11.3818 9.98967 11.3818C9.98966 11.3818 9.98965 11.3818 9.98964 11.3818C9.98963 11.3818 9.98962 11.3818 9.98961 11.3818C9.9896 11.3818 9.98959 11.3818 9.98958 11.3818C9.98957 11.3818 9.98956 11.3818 9.98955 11.3818C9.98954 11.3818 9.98952 11.3818 9.98951 11.3818C9.9895 11.3818 9.98949 11.3818 9.98948 11.3818C9.98947 11.3818 9.98946 11.3818 9.98945 11.3818C9.98944 11.3818 9.98943 11.3818 9.98942 11.3818C9.98941 11.3818 9.9894 11.3818 9.98939 11.3818C9.98937 11.3818 9.98936 11.3818 9.98935 11.3818C9.98934 11.3818 9.98933 11.3818 9.98932 11.3818C9.98931 11.3818 9.9893 11.3818 9.98929 11.3818C9.98928 11.3818 9.98927 11.3818 9.98926 11.3818C9.98925 11.3818 9.98923 11.3818 9.98922 11.3818C9.98921 11.3818 9.9892 11.3818 9.98919 11.3818C9.98918 11.3818 9.98917 11.3818 9.98916 11.3818C9.98915 11.3818 9.98914 11.3818 9.98913 11.3818C9.98912 11.3818 9.98911 11.3818 9.9891 11.3818C9.98908 11.3818 9.98907 11.3818 9.98906 11.3818C9.98905 11.3818 9.98904 11.3818 9.98903 11.3818C9.98902 11.3818 9.98901 11.3818 9.989 11.3818C9.98899 11.3818 9.98898 11.3818 9.98897 11.3818C9.98896 11.3818 9.98895 11.3818 9.98893 11.3818C9.98892 11.3818 9.98891 11.3818 9.9889 11.3818C9.98889 11.3818 9.98888 11.3818 9.98887 11.3818C9.98886 11.3818 9.98885 11.3818 9.98884 11.3818C9.98883 11.3818 9.98882 11.3818 9.98881 11.3818C9.98879 11.3818 9.98878 11.3818 9.98877 11.3818C9.98876 11.3818 9.98875 11.3818 9.98874 11.3818C9.98873 11.3818 9.98872 11.3818 9.98871 11.3818C9.9887 11.3818 9.98869 11.3818 9.98868 11.3818C9.98867 11.3818 9.98866 11.3818 9.98864 11.3818C9.98863 11.3818 9.98862 11.3818 9.98861 11.3818C9.9886 11.3818 9.98859 11.3818 9.98858 11.3818C9.98857 11.3818 9.98856 11.3818 9.98855 11.3818C9.98854 11.3818 9.98853 11.3818 9.98852 11.3818C9.9885 11.3818 9.98849 11.3818 9.98848 11.3818C9.98847 11.3818 9.98846 11.3818 9.98845 11.3818C9.98844 11.3818 9.98843 11.3818 9.98842 11.3818C9.98841 11.3818 9.9884 11.3818 9.98839 11.3818C9.98838 11.3818 9.98837 11.3818 9.98835 11.3818C9.98834 11.3818 9.98833 11.3818 9.98832 11.3818C9.98831 11.3818 9.9883 11.3818 9.98829 11.3818C9.98828 11.3818 9.98827 11.3818 9.98826 11.3818C9.98825 11.3818 9.98824 11.3818 9.98823 11.3818C9.98821 11.3818 9.9882 11.3818 9.98819 11.3818C9.98818 11.3818 9.98817 11.3818 9.98816 11.3818C9.98815 11.3818 9.98814 11.3818 9.98813 11.3818C9.98812 11.3818 9.98811 11.3818 9.9881 11.3818C9.98809 11.3818 9.98808 11.3818 9.98806 11.3818C9.98805 11.3818 9.98804 11.3818 9.98803 11.3818C9.98802 11.3818 9.98801 11.3818 9.988 11.3818C9.98799 11.3818 9.98798 11.3818 9.98797 11.3818C9.98796 11.3818 9.98795 11.3818 9.98794 11.3818C9.98792 11.3818 9.98791 11.3818 9.9879 11.3818C9.98789 11.3818 9.98788 11.3818 9.98787 11.3818C9.98786 11.3818 9.98785 11.3818 9.98784 11.3818C9.98783 11.3818 9.98782 11.3818 9.98781 11.3818C9.9878 11.3818 9.98778 11.3818 9.98777 11.3818C9.98776 11.3818 9.98775 11.3818 9.98774 11.3818C9.98773 11.3818 9.98772 11.3818 9.98771 11.3818C9.9877 11.3818 9.98769 11.3818 9.98768 11.3818C9.98767 11.3818 9.98766 11.3818 9.98765 11.3818C9.98763 11.3818 9.98762 11.3818 9.98761 11.3818C9.9876 11.3818 9.98759 11.3818 9.98758 11.3818C9.98757 11.3818 9.98756 11.3818 9.98755 11.3818C9.98754 11.3818 9.98753 11.3818 9.98752 11.3818C9.98751 11.3818 9.98749 11.3818 9.98748 11.3818C9.98747 11.3818 9.98746 11.3818 9.98745 11.3818C9.98744 11.3818 9.98743 11.3818 9.98742 11.3818C9.98741 11.3818 9.9874 11.3818 9.98739 11.3818C9.98738 11.3818 9.98737 11.3818 9.98735 11.3818C9.98734 11.3818 9.98733 11.3818 9.98732 11.3818C9.98731 11.3818 9.9873 11.3818 9.98729 11.3818C9.98728 11.3818 9.98727 11.3818 9.98726 11.3818C9.98725 11.3818 9.98724 11.3818 9.98723 11.3818C9.98721 11.3818 9.9872 11.3818 9.98719 11.3818C9.98718 11.3818 9.98717 11.3818 9.98716 11.3818C9.98715 11.3818 9.98714 11.3818 9.98713 11.3818C9.98712 11.3818 9.98711 11.3818 9.9871 11.3818C9.98709 11.3818 9.98708 11.3818 9.98706 11.3818C9.98705 11.3818 9.98704 11.3818 9.98703 11.3818C9.98702 11.3818 9.98701 11.3818 9.987 11.3818C9.98699 11.3818 9.98698 11.3818 9.98697 11.3818C9.98696 11.3818 9.98695 11.3818 9.98694 11.3818C9.98692 11.3818 9.98691 11.3818 9.9869 11.3818C9.98689 11.3818 9.98688 11.3818 9.98687 11.3818C9.98686 11.3818 9.98685 11.3818 9.98684 11.3818C9.98683 11.3818 9.98682 11.3818 9.98681 11.3818C9.9868 11.3818 9.98678 11.3818 9.98677 11.3818C9.98676 11.3818 9.98675 11.3818 9.98674 11.3818C9.98673 11.3818 9.98672 11.3818 9.98671 11.3818C9.9867 11.3818 9.98669 11.3818 9.98668 11.3818C9.98667 11.3818 9.98666 11.3818 9.98664 11.3818C9.98663 11.3818 9.98662 11.3818 9.98661 11.3818C9.9866 11.3818 9.98659 11.3818 9.98658 11.3818C9.98657 11.3818 9.98656 11.3818 9.98655 11.3818C9.98654 11.3818 9.98653 11.3818 9.98652 11.3818C9.9865 11.3818 9.98649 11.3818 9.98648 11.3818C9.98647 11.3818 9.98646 11.3818 9.98645 11.3818C9.98644 11.3818 9.98643 11.3818 9.98642 11.3818C9.98641 11.3818 9.9864 11.3818 9.98639 11.3818C9.98638 11.3818 9.98636 11.3818 9.98635 11.3818C9.98634 11.3818 9.98633 11.3818 9.98632 11.3818C9.98631 11.3818 9.9863 11.3818 9.98629 11.3818C9.98628 11.3818 9.98627 11.3818 9.98626 11.3818C9.98625 11.3818 9.98624 11.3818 9.98622 11.3818C9.98621 11.3818 9.9862 11.3818 9.98619 11.3818C9.98618 11.3818 9.98617 11.3818 9.98616 11.3818C9.98615 11.3818 9.98614 11.3818 9.98613 11.3818C9.98612 11.3818 9.98611 11.3818 9.9861 11.3818C9.98608 11.3818 9.98607 11.3818 9.98606 11.3818C9.98605 11.3818 9.98604 11.3818 9.98603 11.3818C9.98602 11.3818 9.98601 11.3818 9.986 11.3818C9.98599 11.3818 9.98598 11.3818 9.98597 11.3818C9.98596 11.3818 9.98594 11.3818 9.98593 11.3818C9.98592 11.3818 9.98591 11.3818 9.9859 11.3818C9.98589 11.3818 9.98588 11.3818 9.98587 11.3818C9.98586 11.3818 9.98585 11.3818 9.98584 11.3818C9.98583 11.3818 9.98582 11.3818 9.9858 11.3818C9.98579 11.3818 9.98578 11.3818 9.98577 11.3818C9.98576 11.3818 9.98575 11.3818 9.98574 11.3818C9.98573 11.3818 9.98572 11.3818 9.98571 11.3818C9.9857 11.3818 9.98569 11.3818 9.98567 11.3818C9.98566 11.3818 9.98565 11.3818 9.98564 11.3818C9.98563 11.3818 9.98562 11.3818 9.98561 11.3818C9.9856 11.3818 9.98559 11.3818 9.98558 11.3818C9.98557 11.3818 9.98556 11.3818 9.98555 11.3818C9.98553 11.3818 9.98552 11.3818 9.98551 11.3818C9.9855 11.3818 9.98549 11.3818 9.98548 11.3818C9.98547 11.3818 9.98546 11.3818 9.98545 11.3818C9.98544 11.3818 9.98543 11.3818 9.98542 11.3818C9.98541 11.3818 9.98539 11.3818 9.98538 11.3818C9.98537 11.3818 9.98536 11.3818 9.98535 11.3818C9.98534 11.3818 9.98533 11.3818 9.98532 11.3818C9.98531 11.3818 9.9853 11.3818 9.98529 11.3818C9.98528 11.3818 9.98527 11.3818 9.98525 11.3818C9.98524 11.3818 9.98523 11.3818 9.98522 11.3818C9.98521 11.3818 9.9852 11.3818 9.98519 11.3818C9.98518 11.3818 9.98517 11.3818 9.98516 11.3818C9.98515 11.3818 9.98514 11.3818 9.98512 11.3818C9.98511 11.3818 9.9851 11.3818 9.98509 11.3818C9.98508 11.3818 9.98507 11.3818 9.98506 11.3818C9.98505 11.3818 9.98504 11.3818 9.98503 11.3818C9.98502 11.3818 9.98501 11.3818 9.985 11.3818C9.98498 11.3818 9.98497 11.3818 9.98496 11.3818C9.98495 11.3818 9.98494 11.3818 9.98493 11.3818C9.98492 11.3818 9.98491 11.3818 9.9849 11.3818C9.98489 11.3818 9.98488 11.3818 9.98487 11.3818C9.98486 11.3818 9.98484 11.3818 9.98483 11.3818C9.98482 11.3818 9.98481 11.3818 9.9848 11.3818C9.98479 11.3818 9.98478 11.3818 9.98477 11.3818C9.98476 11.3818 9.98475 11.3818 9.98474 11.3818C9.98473 11.3818 9.98471 11.3818 9.9847 11.3818C9.98469 11.3818 9.98468 11.3818 9.98467 11.3818C9.98466 11.3818 9.98465 11.3818 9.98464 11.3818C9.98463 11.3818 9.98462 11.3818 9.98461 11.3818C9.9846 11.3818 9.98459 11.3818 9.98457 11.3818C9.98456 11.3818 9.98455 11.3818 9.98454 11.3818C9.98453 11.3818 9.98452 11.3818 9.98451 11.3818C9.9845 11.3818 9.98449 11.3818 9.98448 11.3818C9.98447 11.3818 9.98446 11.3818 9.98444 11.3818C9.98443 11.3818 9.98442 11.3818 9.98441 11.3818C9.9844 11.3818 9.98439 11.3818 9.98438 11.3818C9.98437 11.3818 9.98436 11.3818 9.98435 11.3818C9.98434 11.3818 9.98433 11.3818 9.98432 11.3818C9.9843 11.3818 9.98429 11.3818 9.98428 11.3818C9.98427 11.3818 9.98426 11.3818 9.98425 11.3818C9.98424 11.3818 9.98423 11.3818 9.98422 11.3818C9.98421 11.3818 9.9842 11.3818 9.98419 11.3818C9.98417 11.3818 9.98416 11.3818 9.98415 11.3818C9.98414 11.3818 9.98413 11.3818 9.98412 11.3818C9.98411 11.3818 9.9841 11.3818 9.98409 11.3818C9.98408 11.3818 9.98407 11.3818 9.98406 11.3818C9.98404 11.3818 9.98403 11.3818 9.98402 11.3818C9.98401 11.3818 9.984 11.3818 9.98399 11.3818C9.98398 11.3818 9.98397 11.3818 9.98396 11.3818C9.98395 11.3818 9.98394 11.3818 9.98393 11.3818C9.98392 11.3818 9.9839 11.3818 9.98389 11.3818C9.98388 11.3818 9.98387 11.3818 9.98386 11.3818C9.98385 11.3818 9.98384 11.3818 9.98383 11.3818C9.98382 11.3818 9.98381 11.3818 9.9838 11.3818C9.98379 11.3818 9.98377 11.3818 9.98376 11.3818C9.98375 11.3818 9.98374 11.3818 9.98373 11.3818C9.98372 11.3818 9.98371 11.3818 9.9837 11.3818C9.98369 11.3818 9.98368 11.3818 9.98367 11.3818C9.98366 11.3818 9.98364 11.3818 9.98363 11.3818C9.98362 11.3818 9.98361 11.3818 9.9836 11.3818C9.98359 11.3818 9.98358 11.3818 9.98357 11.3818C9.98356 11.3818 9.98355 11.3818 9.98354 11.3818V17.3818C9.98355 17.3818 9.98356 17.3818 9.98357 17.3818C9.98358 17.3818 9.98359 17.3818 9.9836 17.3818C9.98361 17.3818 9.98362 17.3818 9.98363 17.3818C9.98364 17.3818 9.98366 17.3818 9.98367 17.3818C9.98368 17.3818 9.98369 17.3818 9.9837 17.3818C9.98371 17.3818 9.98372 17.3818 9.98373 17.3818C9.98374 17.3818 9.98375 17.3818 9.98376 17.3818C9.98377 17.3818 9.98379 17.3818 9.9838 17.3818C9.98381 17.3818 9.98382 17.3818 9.98383 17.3818C9.98384 17.3818 9.98385 17.3818 9.98386 17.3818C9.98387 17.3818 9.98388 17.3818 9.98389 17.3818C9.9839 17.3818 9.98392 17.3818 9.98393 17.3818C9.98394 17.3818 9.98395 17.3818 9.98396 17.3818C9.98397 17.3818 9.98398 17.3818 9.98399 17.3818C9.984 17.3818 9.98401 17.3818 9.98402 17.3818C9.98403 17.3818 9.98404 17.3818 9.98406 17.3818C9.98407 17.3818 9.98408 17.3818 9.98409 17.3818C9.9841 17.3818 9.98411 17.3818 9.98412 17.3818C9.98413 17.3818 9.98414 17.3818 9.98415 17.3818C9.98416 17.3818 9.98417 17.3818 9.98419 17.3818C9.9842 17.3818 9.98421 17.3818 9.98422 17.3818C9.98423 17.3818 9.98424 17.3818 9.98425 17.3818C9.98426 17.3818 9.98427 17.3818 9.98428 17.3818C9.98429 17.3818 9.9843 17.3818 9.98432 17.3818C9.98433 17.3818 9.98434 17.3818 9.98435 17.3818C9.98436 17.3818 9.98437 17.3818 9.98438 17.3818C9.98439 17.3818 9.9844 17.3818 9.98441 17.3818C9.98442 17.3818 9.98443 17.3818 9.98444 17.3818C9.98446 17.3818 9.98447 17.3818 9.98448 17.3818C9.98449 17.3818 9.9845 17.3818 9.98451 17.3818C9.98452 17.3818 9.98453 17.3818 9.98454 17.3818C9.98455 17.3818 9.98456 17.3818 9.98457 17.3818C9.98459 17.3818 9.9846 17.3818 9.98461 17.3818C9.98462 17.3818 9.98463 17.3818 9.98464 17.3818C9.98465 17.3818 9.98466 17.3818 9.98467 17.3818C9.98468 17.3818 9.98469 17.3818 9.9847 17.3818C9.98471 17.3818 9.98473 17.3818 9.98474 17.3818C9.98475 17.3818 9.98476 17.3818 9.98477 17.3818C9.98478 17.3818 9.98479 17.3818 9.9848 17.3818C9.98481 17.3818 9.98482 17.3818 9.98483 17.3818C9.98484 17.3818 9.98486 17.3818 9.98487 17.3818C9.98488 17.3818 9.98489 17.3818 9.9849 17.3818C9.98491 17.3818 9.98492 17.3818 9.98493 17.3818C9.98494 17.3818 9.98495 17.3818 9.98496 17.3818C9.98497 17.3818 9.98498 17.3818 9.985 17.3818C9.98501 17.3818 9.98502 17.3818 9.98503 17.3818C9.98504 17.3818 9.98505 17.3818 9.98506 17.3818C9.98507 17.3818 9.98508 17.3818 9.98509 17.3818C9.9851 17.3818 9.98511 17.3818 9.98512 17.3818C9.98514 17.3818 9.98515 17.3818 9.98516 17.3818C9.98517 17.3818 9.98518 17.3818 9.98519 17.3818C9.9852 17.3818 9.98521 17.3818 9.98522 17.3818C9.98523 17.3818 9.98524 17.3818 9.98525 17.3818C9.98527 17.3818 9.98528 17.3818 9.98529 17.3818C9.9853 17.3818 9.98531 17.3818 9.98532 17.3818C9.98533 17.3818 9.98534 17.3818 9.98535 17.3818C9.98536 17.3818 9.98537 17.3818 9.98538 17.3818C9.98539 17.3818 9.98541 17.3818 9.98542 17.3818C9.98543 17.3818 9.98544 17.3818 9.98545 17.3818C9.98546 17.3818 9.98547 17.3818 9.98548 17.3818C9.98549 17.3818 9.9855 17.3818 9.98551 17.3818C9.98552 17.3818 9.98553 17.3818 9.98555 17.3818C9.98556 17.3818 9.98557 17.3818 9.98558 17.3818C9.98559 17.3818 9.9856 17.3818 9.98561 17.3818C9.98562 17.3818 9.98563 17.3818 9.98564 17.3818C9.98565 17.3818 9.98566 17.3818 9.98567 17.3818C9.98569 17.3818 9.9857 17.3818 9.98571 17.3818C9.98572 17.3818 9.98573 17.3818 9.98574 17.3818C9.98575 17.3818 9.98576 17.3818 9.98577 17.3818C9.98578 17.3818 9.98579 17.3818 9.9858 17.3818C9.98582 17.3818 9.98583 17.3818 9.98584 17.3818C9.98585 17.3818 9.98586 17.3818 9.98587 17.3818C9.98588 17.3818 9.98589 17.3818 9.9859 17.3818C9.98591 17.3818 9.98592 17.3818 9.98593 17.3818C9.98594 17.3818 9.98596 17.3818 9.98597 17.3818C9.98598 17.3818 9.98599 17.3818 9.986 17.3818C9.98601 17.3818 9.98602 17.3818 9.98603 17.3818C9.98604 17.3818 9.98605 17.3818 9.98606 17.3818C9.98607 17.3818 9.98608 17.3818 9.9861 17.3818C9.98611 17.3818 9.98612 17.3818 9.98613 17.3818C9.98614 17.3818 9.98615 17.3818 9.98616 17.3818C9.98617 17.3818 9.98618 17.3818 9.98619 17.3818C9.9862 17.3818 9.98621 17.3818 9.98622 17.3818C9.98624 17.3818 9.98625 17.3818 9.98626 17.3818C9.98627 17.3818 9.98628 17.3818 9.98629 17.3818C9.9863 17.3818 9.98631 17.3818 9.98632 17.3818C9.98633 17.3818 9.98634 17.3818 9.98635 17.3818C9.98636 17.3818 9.98638 17.3818 9.98639 17.3818C9.9864 17.3818 9.98641 17.3818 9.98642 17.3818C9.98643 17.3818 9.98644 17.3818 9.98645 17.3818C9.98646 17.3818 9.98647 17.3818 9.98648 17.3818C9.98649 17.3818 9.9865 17.3818 9.98652 17.3818C9.98653 17.3818 9.98654 17.3818 9.98655 17.3818C9.98656 17.3818 9.98657 17.3818 9.98658 17.3818C9.98659 17.3818 9.9866 17.3818 9.98661 17.3818C9.98662 17.3818 9.98663 17.3818 9.98664 17.3818C9.98666 17.3818 9.98667 17.3818 9.98668 17.3818C9.98669 17.3818 9.9867 17.3818 9.98671 17.3818C9.98672 17.3818 9.98673 17.3818 9.98674 17.3818C9.98675 17.3818 9.98676 17.3818 9.98677 17.3818C9.98678 17.3818 9.9868 17.3818 9.98681 17.3818C9.98682 17.3818 9.98683 17.3818 9.98684 17.3818C9.98685 17.3818 9.98686 17.3818 9.98687 17.3818C9.98688 17.3818 9.98689 17.3818 9.9869 17.3818C9.98691 17.3818 9.98692 17.3818 9.98694 17.3818C9.98695 17.3818 9.98696 17.3818 9.98697 17.3818C9.98698 17.3818 9.98699 17.3818 9.987 17.3818C9.98701 17.3818 9.98702 17.3818 9.98703 17.3818C9.98704 17.3818 9.98705 17.3818 9.98706 17.3818C9.98708 17.3818 9.98709 17.3818 9.9871 17.3818C9.98711 17.3818 9.98712 17.3818 9.98713 17.3818C9.98714 17.3818 9.98715 17.3818 9.98716 17.3818C9.98717 17.3818 9.98718 17.3818 9.98719 17.3818C9.9872 17.3818 9.98721 17.3818 9.98723 17.3818C9.98724 17.3818 9.98725 17.3818 9.98726 17.3818C9.98727 17.3818 9.98728 17.3818 9.98729 17.3818C9.9873 17.3818 9.98731 17.3818 9.98732 17.3818C9.98733 17.3818 9.98734 17.3818 9.98735 17.3818C9.98737 17.3818 9.98738 17.3818 9.98739 17.3818C9.9874 17.3818 9.98741 17.3818 9.98742 17.3818C9.98743 17.3818 9.98744 17.3818 9.98745 17.3818C9.98746 17.3818 9.98747 17.3818 9.98748 17.3818C9.98749 17.3818 9.98751 17.3818 9.98752 17.3818C9.98753 17.3818 9.98754 17.3818 9.98755 17.3818C9.98756 17.3818 9.98757 17.3818 9.98758 17.3818C9.98759 17.3818 9.9876 17.3818 9.98761 17.3818C9.98762 17.3818 9.98763 17.3818 9.98765 17.3818C9.98766 17.3818 9.98767 17.3818 9.98768 17.3818C9.98769 17.3818 9.9877 17.3818 9.98771 17.3818C9.98772 17.3818 9.98773 17.3818 9.98774 17.3818C9.98775 17.3818 9.98776 17.3818 9.98777 17.3818C9.98778 17.3818 9.9878 17.3818 9.98781 17.3818C9.98782 17.3818 9.98783 17.3818 9.98784 17.3818C9.98785 17.3818 9.98786 17.3818 9.98787 17.3818C9.98788 17.3818 9.98789 17.3818 9.9879 17.3818C9.98791 17.3818 9.98792 17.3818 9.98794 17.3818C9.98795 17.3818 9.98796 17.3818 9.98797 17.3818C9.98798 17.3818 9.98799 17.3818 9.988 17.3818C9.98801 17.3818 9.98802 17.3818 9.98803 17.3818C9.98804 17.3818 9.98805 17.3818 9.98806 17.3818C9.98808 17.3818 9.98809 17.3818 9.9881 17.3818C9.98811 17.3818 9.98812 17.3818 9.98813 17.3818C9.98814 17.3818 9.98815 17.3818 9.98816 17.3818C9.98817 17.3818 9.98818 17.3818 9.98819 17.3818C9.9882 17.3818 9.98821 17.3818 9.98823 17.3818C9.98824 17.3818 9.98825 17.3818 9.98826 17.3818C9.98827 17.3818 9.98828 17.3818 9.98829 17.3818C9.9883 17.3818 9.98831 17.3818 9.98832 17.3818C9.98833 17.3818 9.98834 17.3818 9.98835 17.3818C9.98837 17.3818 9.98838 17.3818 9.98839 17.3818C9.9884 17.3818 9.98841 17.3818 9.98842 17.3818C9.98843 17.3818 9.98844 17.3818 9.98845 17.3818C9.98846 17.3818 9.98847 17.3818 9.98848 17.3818C9.98849 17.3818 9.9885 17.3818 9.98852 17.3818C9.98853 17.3818 9.98854 17.3818 9.98855 17.3818C9.98856 17.3818 9.98857 17.3818 9.98858 17.3818C9.98859 17.3818 9.9886 17.3818 9.98861 17.3818C9.98862 17.3818 9.98863 17.3818 9.98864 17.3818C9.98866 17.3818 9.98867 17.3818 9.98868 17.3818C9.98869 17.3818 9.9887 17.3818 9.98871 17.3818C9.98872 17.3818 9.98873 17.3818 9.98874 17.3818C9.98875 17.3818 9.98876 17.3818 9.98877 17.3818C9.98878 17.3818 9.98879 17.3818 9.98881 17.3818C9.98882 17.3818 9.98883 17.3818 9.98884 17.3818C9.98885 17.3818 9.98886 17.3818 9.98887 17.3818C9.98888 17.3818 9.98889 17.3818 9.9889 17.3818C9.98891 17.3818 9.98892 17.3818 9.98893 17.3818C9.98895 17.3818 9.98896 17.3818 9.98897 17.3818C9.98898 17.3818 9.98899 17.3818 9.989 17.3818C9.98901 17.3818 9.98902 17.3818 9.98903 17.3818C9.98904 17.3818 9.98905 17.3818 9.98906 17.3818C9.98907 17.3818 9.98908 17.3818 9.9891 17.3818C9.98911 17.3818 9.98912 17.3818 9.98913 17.3818C9.98914 17.3818 9.98915 17.3818 9.98916 17.3818C9.98917 17.3818 9.98918 17.3818 9.98919 17.3818C9.9892 17.3818 9.98921 17.3818 9.98922 17.3818C9.98923 17.3818 9.98925 17.3818 9.98926 17.3818C9.98927 17.3818 9.98928 17.3818 9.98929 17.3818C9.9893 17.3818 9.98931 17.3818 9.98932 17.3818C9.98933 17.3818 9.98934 17.3818 9.98935 17.3818C9.98936 17.3818 9.98937 17.3818 9.98939 17.3818C9.9894 17.3818 9.98941 17.3818 9.98942 17.3818C9.98943 17.3818 9.98944 17.3818 9.98945 17.3818C9.98946 17.3818 9.98947 17.3818 9.98948 17.3818C9.98949 17.3818 9.9895 17.3818 9.98951 17.3818C9.98952 17.3818 9.98954 17.3818 9.98955 17.3818C9.98956 17.3818 9.98957 17.3818 9.98958 17.3818C9.98959 17.3818 9.9896 17.3818 9.98961 17.3818C9.98962 17.3818 9.98963 17.3818 9.98964 17.3818C9.98965 17.3818 9.98966 17.3818 9.98967 17.3818C9.98969 17.3818 9.9897 17.3818 9.98971 17.3818C9.98972 17.3818 9.98973 17.3818 9.98974 17.3818C9.98975 17.3818 9.98976 17.3818 9.98977 17.3818C9.98978 17.3818 9.98979 17.3818 9.9898 17.3818C9.98981 17.3818 9.98983 17.3818 9.98984 17.3818C9.98985 17.3818 9.98986 17.3818 9.98987 17.3818C9.98988 17.3818 9.98989 17.3818 9.9899 17.3818C9.98991 17.3818 9.98992 17.3818 9.98993 17.3818C9.98994 17.3818 9.98995 17.3818 9.98996 17.3818C9.98998 17.3818 9.98999 17.3818 9.99 17.3818C9.99001 17.3818 9.99002 17.3818 9.99003 17.3818C9.99004 17.3818 9.99005 17.3818 9.99006 17.3818C9.99007 17.3818 9.99008 17.3818 9.99009 17.3818C9.9901 17.3818 9.99011 17.3818 9.99013 17.3818C9.99014 17.3818 9.99015 17.3818 9.99016 17.3818C9.99017 17.3818 9.99018 17.3818 9.99019 17.3818C9.9902 17.3818 9.99021 17.3818 9.99022 17.3818C9.99023 17.3818 9.99024 17.3818 9.99025 17.3818C9.99026 17.3818 9.99028 17.3818 9.99029 17.3818C9.9903 17.3818 9.99031 17.3818 9.99032 17.3818C9.99033 17.3818 9.99034 17.3818 9.99035 17.3818C9.99036 17.3818 9.99037 17.3818 9.99038 17.3818C9.99039 17.3818 9.9904 17.3818 9.99041 17.3818C9.99043 17.3818 9.99044 17.3818 9.99045 17.3818C9.99046 17.3818 9.99047 17.3818 9.99048 17.3818C9.99049 17.3818 9.9905 17.3818 9.99051 17.3818C9.99052 17.3818 9.99053 17.3818 9.99054 17.3818C9.99055 17.3818 9.99056 17.3818 9.99058 17.3818C9.99059 17.3818 9.9906 17.3818 9.99061 17.3818C9.99062 17.3818 9.99063 17.3818 9.99064 17.3818C9.99065 17.3818 9.99066 17.3818 9.99067 17.3818C9.99068 17.3818 9.99069 17.3818 9.9907 17.3818C9.99071 17.3818 9.99073 17.3818 9.99074 17.3818C9.99075 17.3818 9.99076 17.3818 9.99077 17.3818C9.99078 17.3818 9.99079 17.3818 9.9908 17.3818C9.99081 17.3818 9.99082 17.3818 9.99083 17.3818C9.99084 17.3818 9.99085 17.3818 9.99086 17.3818C9.99088 17.3818 9.99089 17.3818 9.9909 17.3818C9.99091 17.3818 9.99092 17.3818 9.99093 17.3818C9.99094 17.3818 9.99095 17.3818 9.99096 17.3818C9.99097 17.3818 9.99098 17.3818 9.99099 17.3818C9.991 17.3818 9.99101 17.3818 9.99103 17.3818C9.99104 17.3818 9.99105 17.3818 9.99106 17.3818C9.99107 17.3818 9.99108 17.3818 9.99109 17.3818C9.9911 17.3818 9.99111 17.3818 9.99112 17.3818C9.99113 17.3818 9.99114 17.3818 9.99115 17.3818C9.99116 17.3818 9.99118 17.3818 9.99119 17.3818C9.9912 17.3818 9.99121 17.3818 9.99122 17.3818C9.99123 17.3818 9.99124 17.3818 9.99125 17.3818C9.99126 17.3818 9.99127 17.3818 9.99128 17.3818C9.99129 17.3818 9.9913 17.3818 9.99131 17.3818C9.99133 17.3818 9.99134 17.3818 9.99135 17.3818C9.99136 17.3818 9.99137 17.3818 9.99138 17.3818C9.99139 17.3818 9.9914 17.3818 9.99141 17.3818C9.99142 17.3818 9.99143 17.3818 9.99144 17.3818C9.99145 17.3818 9.99146 17.3818 9.99148 17.3818C9.99149 17.3818 9.9915 17.3818 9.99151 17.3818C9.99152 17.3818 9.99153 17.3818 9.99154 17.3818C9.99155 17.3818 9.99156 17.3818 9.99157 17.3818C9.99158 17.3818 9.99159 17.3818 9.9916 17.3818C9.99161 17.3818 9.99163 17.3818 9.99164 17.3818C9.99165 17.3818 9.99166 17.3818 9.99167 17.3818C9.99168 17.3818 9.99169 17.3818 9.9917 17.3818C9.99171 17.3818 9.99172 17.3818 9.99173 17.3818C9.99174 17.3818 9.99175 17.3818 9.99176 17.3818C9.99178 17.3818 9.99179 17.3818 9.9918 17.3818C9.99181 17.3818 9.99182 17.3818 9.99183 17.3818C9.99184 17.3818 9.99185 17.3818 9.99186 17.3818C9.99187 17.3818 9.99188 17.3818 9.99189 17.3818C9.9919 17.3818 9.99191 17.3818 9.99192 17.3818C9.99194 17.3818 9.99195 17.3818 9.99196 17.3818C9.99197 17.3818 9.99198 17.3818 9.99199 17.3818C9.992 17.3818 9.99201 17.3818 9.99202 17.3818C9.99203 17.3818 9.99204 17.3818 9.99205 17.3818C9.99206 17.3818 9.99207 17.3818 9.99209 17.3818C9.9921 17.3818 9.99211 17.3818 9.99212 17.3818C9.99213 17.3818 9.99214 17.3818 9.99215 17.3818C9.99216 17.3818 9.99217 17.3818 9.99218 17.3818C9.99219 17.3818 9.9922 17.3818 9.99221 17.3818C9.99222 17.3818 9.99224 17.3818 9.99225 17.3818C9.99226 17.3818 9.99227 17.3818 9.99228 17.3818C9.99229 17.3818 9.9923 17.3818 9.99231 17.3818C9.99232 17.3818 9.99233 17.3818 9.99234 17.3818C9.99235 17.3818 9.99236 17.3818 9.99237 17.3818C9.99239 17.3818 9.9924 17.3818 9.99241 17.3818C9.99242 17.3818 9.99243 17.3818 9.99244 17.3818C9.99245 17.3818 9.99246 17.3818 9.99247 17.3818C9.99248 17.3818 9.99249 17.3818 9.9925 17.3818C9.99251 17.3818 9.99252 17.3818 9.99253 17.3818C9.99255 17.3818 9.99256 17.3818 9.99257 17.3818C9.99258 17.3818 9.99259 17.3818 9.9926 17.3818C9.99261 17.3818 9.99262 17.3818 9.99263 17.3818C9.99264 17.3818 9.99265 17.3818 9.99266 17.3818C9.99267 17.3818 9.99268 17.3818 9.9927 17.3818C9.99271 17.3818 9.99272 17.3818 9.99273 17.3818C9.99274 17.3818 9.99275 17.3818 9.99276 17.3818C9.99277 17.3818 9.99278 17.3818 9.99279 17.3818C9.9928 17.3818 9.99281 17.3818 9.99282 17.3818C9.99283 17.3818 9.99285 17.3818 9.99286 17.3818C9.99287 17.3818 9.99288 17.3818 9.99289 17.3818C9.9929 17.3818 9.99291 17.3818 9.99292 17.3818C9.99293 17.3818 9.99294 17.3818 9.99295 17.3818C9.99296 17.3818 9.99297 17.3818 9.99298 17.3818C9.99299 17.3818 9.99301 17.3818 9.99302 17.3818C9.99303 17.3818 9.99304 17.3818 9.99305 17.3818C9.99306 17.3818 9.99307 17.3818 9.99308 17.3818C9.99309 17.3818 9.9931 17.3818 9.99311 17.3818C9.99312 17.3818 9.99313 17.3818 9.99314 17.3818C9.99316 17.3818 9.99317 17.3818 9.99318 17.3818C9.99319 17.3818 9.9932 17.3818 9.99321 17.3818C9.99322 17.3818 9.99323 17.3818 9.99324 17.3818C9.99325 17.3818 9.99326 17.3818 9.99327 17.3818C9.99328 17.3818 9.99329 17.3818 9.99331 17.3818C9.99332 17.3818 9.99333 17.3818 9.99334 17.3818C9.99335 17.3818 9.99336 17.3818 9.99337 17.3818C9.99338 17.3818 9.99339 17.3818 9.9934 17.3818C9.99341 17.3818 9.99342 17.3818 9.99343 17.3818C9.99344 17.3818 9.99345 17.3818 9.99347 17.3818C9.99348 17.3818 9.99349 17.3818 9.9935 17.3818C9.99351 17.3818 9.99352 17.3818 9.99353 17.3818C9.99354 17.3818 9.99355 17.3818 9.99356 17.3818C9.99357 17.3818 9.99358 17.3818 9.99359 17.3818C9.9936 17.3818 9.99362 17.3818 9.99363 17.3818C9.99364 17.3818 9.99365 17.3818 9.99366 17.3818C9.99367 17.3818 9.99368 17.3818 9.99369 17.3818C9.9937 17.3818 9.99371 17.3818 9.99372 17.3818C9.99373 17.3818 9.99374 17.3818 9.99375 17.3818C9.99376 17.3818 9.99378 17.3818 9.99379 17.3818C9.9938 17.3818 9.99381 17.3818 9.99382 17.3818C9.99383 17.3818 9.99384 17.3818 9.99385 17.3818C9.99386 17.3818 9.99387 17.3818 9.99388 17.3818C9.99389 17.3818 9.9939 17.3818 9.99391 17.3818C9.99393 17.3818 9.99394 17.3818 9.99395 17.3818C9.99396 17.3818 9.99397 17.3818 9.99398 17.3818C9.99399 17.3818 9.994 17.3818 9.99401 17.3818C9.99402 17.3818 9.99403 17.3818 9.99404 17.3818C9.99405 17.3818 9.99406 17.3818 9.99407 17.3818C9.99409 17.3818 9.9941 17.3818 9.99411 17.3818C9.99412 17.3818 9.99413 17.3818 9.99414 17.3818C9.99415 17.3818 9.99416 17.3818 9.99417 17.3818C9.99418 17.3818 9.99419 17.3818 9.9942 17.3818C9.99421 17.3818 9.99422 17.3818 9.99423 17.3818C9.99425 17.3818 9.99426 17.3818 9.99427 17.3818C9.99428 17.3818 9.99429 17.3818 9.9943 17.3818C9.99431 17.3818 9.99432 17.3818 9.99433 17.3818C9.99434 17.3818 9.99435 17.3818 9.99436 17.3818C9.99437 17.3818 9.99438 17.3818 9.9944 17.3818C9.99441 17.3818 9.99442 17.3818 9.99443 17.3818C9.99444 17.3818 9.99445 17.3818 9.99446 17.3818C9.99447 17.3818 9.99448 17.3818 9.99449 17.3818C9.9945 17.3818 9.99451 17.3818 9.99452 17.3818C9.99453 17.3818 9.99454 17.3818 9.99456 17.3818C9.99457 17.3818 9.99458 17.3818 9.99459 17.3818C9.9946 17.3818 9.99461 17.3818 9.99462 17.3818C9.99463 17.3818 9.99464 17.3818 9.99465 17.3818C9.99466 17.3818 9.99467 17.3818 9.99468 17.3818C9.99469 17.3818 9.99471 17.3818 9.99472 17.3818C9.99473 17.3818 9.99474 17.3818 9.99475 17.3818C9.99476 17.3818 9.99477 17.3818 9.99478 17.3818C9.99479 17.3818 9.9948 17.3818 9.99481 17.3818C9.99482 17.3818 9.99483 17.3818 9.99484 17.3818C9.99485 17.3818 9.99487 17.3818 9.99488 17.3818C9.99489 17.3818 9.9949 17.3818 9.99491 17.3818C9.99492 17.3818 9.99493 17.3818 9.99494 17.3818C9.99495 17.3818 9.99496 17.3818 9.99497 17.3818C9.99498 17.3818 9.99499 17.3818 9.995 17.3818C9.99501 17.3818 9.99503 17.3818 9.99504 17.3818C9.99505 17.3818 9.99506 17.3818 9.99507 17.3818C9.99508 17.3818 9.99509 17.3818 9.9951 17.3818C9.99511 17.3818 9.99512 17.3818 9.99513 17.3818C9.99514 17.3818 9.99515 17.3818 9.99516 17.3818C9.99518 17.3818 9.99519 17.3818 9.9952 17.3818C9.99521 17.3818 9.99522 17.3818 9.99523 17.3818C9.99524 17.3818 9.99525 17.3818 9.99526 17.3818C9.99527 17.3818 9.99528 17.3818 9.99529 17.3818C9.9953 17.3818 9.99531 17.3818 9.99532 17.3818C9.99534 17.3818 9.99535 17.3818 9.99536 17.3818C9.99537 17.3818 9.99538 17.3818 9.99539 17.3818C9.9954 17.3818 9.99541 17.3818 9.99542 17.3818C9.99543 17.3818 9.99544 17.3818 9.99545 17.3818C9.99546 17.3818 9.99547 17.3818 9.99548 17.3818C9.9955 17.3818 9.99551 17.3818 9.99552 17.3818C9.99553 17.3818 9.99554 17.3818 9.99555 17.3818C9.99556 17.3818 9.99557 17.3818 9.99558 17.3818C9.99559 17.3818 9.9956 17.3818 9.99561 17.3818C9.99562 17.3818 9.99563 17.3818 9.99564 17.3818C9.99566 17.3818 9.99567 17.3818 9.99568 17.3818C9.99569 17.3818 9.9957 17.3818 9.99571 17.3818C9.99572 17.3818 9.99573 17.3818 9.99574 17.3818C9.99575 17.3818 9.99576 17.3818 9.99577 17.3818C9.99578 17.3818 9.99579 17.3818 9.99581 17.3818C9.99582 17.3818 9.99583 17.3818 9.99584 17.3818C9.99585 17.3818 9.99586 17.3818 9.99587 17.3818C9.99588 17.3818 9.99589 17.3818 9.9959 17.3818C9.99591 17.3818 9.99592 17.3818 9.99593 17.3818C9.99594 17.3818 9.99595 17.3818 9.99597 17.3818C9.99598 17.3818 9.99599 17.3818 9.996 17.3818C9.99601 17.3818 9.99602 17.3818 9.99603 17.3818C9.99604 17.3818 9.99605 17.3818 9.99606 17.3818C9.99607 17.3818 9.99608 17.3818 9.99609 17.3818C9.9961 17.3818 9.99611 17.3818 9.99613 17.3818C9.99614 17.3818 9.99615 17.3818 9.99616 17.3818C9.99617 17.3818 9.99618 17.3818 9.99619 17.3818C9.9962 17.3818 9.99621 17.3818 9.99622 17.3818C9.99623 17.3818 9.99624 17.3818 9.99625 17.3818C9.99626 17.3818 9.99627 17.3818 9.99629 17.3818C9.9963 17.3818 9.99631 17.3818 9.99632 17.3818C9.99633 17.3818 9.99634 17.3818 9.99635 17.3818C9.99636 17.3818 9.99637 17.3818 9.99638 17.3818C9.99639 17.3818 9.9964 17.3818 9.99641 17.3818C9.99642 17.3818 9.99643 17.3818 9.99645 17.3818C9.99646 17.3818 9.99647 17.3818 9.99648 17.3818C9.99649 17.3818 9.9965 17.3818 9.99651 17.3818C9.99652 17.3818 9.99653 17.3818 9.99654 17.3818C9.99655 17.3818 9.99656 17.3818 9.99657 17.3818C9.99658 17.3818 9.9966 17.3818 9.99661 17.3818C9.99662 17.3818 9.99663 17.3818 9.99664 17.3818C9.99665 17.3818 9.99666 17.3818 9.99667 17.3818C9.99668 17.3818 9.99669 17.3818 9.9967 17.3818C9.99671 17.3818 9.99672 17.3818 9.99673 17.3818C9.99674 17.3818 9.99676 17.3818 9.99677 17.3818C9.99678 17.3818 9.99679 17.3818 9.9968 17.3818C9.99681 17.3818 9.99682 17.3818 9.99683 17.3818C9.99684 17.3818 9.99685 17.3818 9.99686 17.3818C9.99687 17.3818 9.99688 17.3818 9.99689 17.3818C9.9969 17.3818 9.99692 17.3818 9.99693 17.3818C9.99694 17.3818 9.99695 17.3818 9.99696 17.3818C9.99697 17.3818 9.99698 17.3818 9.99699 17.3818C9.997 17.3818 9.99701 17.3818 9.99702 17.3818C9.99703 17.3818 9.99704 17.3818 9.99705 17.3818C9.99706 17.3818 9.99708 17.3818 9.99709 17.3818C9.9971 17.3818 9.99711 17.3818 9.99712 17.3818C9.99713 17.3818 9.99714 17.3818 9.99715 17.3818C9.99716 17.3818 9.99717 17.3818 9.99718 17.3818C9.99719 17.3818 9.9972 17.3818 9.99721 17.3818C9.99722 17.3818 9.99724 17.3818 9.99725 17.3818C9.99726 17.3818 9.99727 17.3818 9.99728 17.3818C9.99729 17.3818 9.9973 17.3818 9.99731 17.3818C9.99732 17.3818 9.99733 17.3818 9.99734 17.3818C9.99735 17.3818 9.99736 17.3818 9.99737 17.3818C9.99738 17.3818 9.9974 17.3818 9.99741 17.3818C9.99742 17.3818 9.99743 17.3818 9.99744 17.3818C9.99745 17.3818 9.99746 17.3818 9.99747 17.3818C9.99748 17.3818 9.99749 17.3818 9.9975 17.3818C9.99751 17.3818 9.99752 17.3818 9.99753 17.3818C9.99754 17.3818 9.99756 17.3818 9.99757 17.3818C9.99758 17.3818 9.99759 17.3818 9.9976 17.3818C9.99761 17.3818 9.99762 17.3818 9.99763 17.3818C9.99764 17.3818 9.99765 17.3818 9.99766 17.3818C9.99767 17.3818 9.99768 17.3818 9.99769 17.3818C9.9977 17.3818 9.99772 17.3818 9.99773 17.3818C9.99774 17.3818 9.99775 17.3818 9.99776 17.3818C9.99777 17.3818 9.99778 17.3818 9.99779 17.3818C9.9978 17.3818 9.99781 17.3818 9.99782 17.3818C9.99783 17.3818 9.99784 17.3818 9.99785 17.3818C9.99787 17.3818 9.99788 17.3818 9.99789 17.3818C9.9979 17.3818 9.99791 17.3818 9.99792 17.3818C9.99793 17.3818 9.99794 17.3818 9.99795 17.3818C9.99796 17.3818 9.99797 17.3818 9.99798 17.3818C9.99799 17.3818 9.998 17.3818 9.99801 17.3818C9.99803 17.3818 9.99804 17.3818 9.99805 17.3818C9.99806 17.3818 9.99807 17.3818 9.99808 17.3818C9.99809 17.3818 9.9981 17.3818 9.99811 17.3818C9.99812 17.3818 9.99813 17.3818 9.99814 17.3818C9.99815 17.3818 9.99816 17.3818 9.99817 17.3818C9.99819 17.3818 9.9982 17.3818 9.99821 17.3818C9.99822 17.3818 9.99823 17.3818 9.99824 17.3818C9.99825 17.3818 9.99826 17.3818 9.99827 17.3818C9.99828 17.3818 9.99829 17.3818 9.9983 17.3818C9.99831 17.3818 9.99832 17.3818 9.99833 17.3818C9.99835 17.3818 9.99836 17.3818 9.99837 17.3818C9.99838 17.3818 9.99839 17.3818 9.9984 17.3818C9.99841 17.3818 9.99842 17.3818 9.99843 17.3818C9.99844 17.3818 9.99845 17.3818 9.99846 17.3818C9.99847 17.3818 9.99848 17.3818 9.99849 17.3818C9.99851 17.3818 9.99852 17.3818 9.99853 17.3818C9.99854 17.3818 9.99855 17.3818 9.99856 17.3818C9.99857 17.3818 9.99858 17.3818 9.99859 17.3818C9.9986 17.3818 9.99861 17.3818 9.99862 17.3818C9.99863 17.3818 9.99864 17.3818 9.99865 17.3818C9.99867 17.3818 9.99868 17.3818 9.99869 17.3818C9.9987 17.3818 9.99871 17.3818 9.99872 17.3818C9.99873 17.3818 9.99874 17.3818 9.99875 17.3818C9.99876 17.3818 9.99877 17.3818 9.99878 17.3818C9.99879 17.3818 9.9988 17.3818 9.99881 17.3818C9.99883 17.3818 9.99884 17.3818 9.99885 17.3818C9.99886 17.3818 9.99887 17.3818 9.99888 17.3818C9.99889 17.3818 9.9989 17.3818 9.99891 17.3818C9.99892 17.3818 9.99893 17.3818 9.99894 17.3818C9.99895 17.3818 9.99896 17.3818 9.99897 17.3818C9.99899 17.3818 9.999 17.3818 9.99901 17.3818C9.99902 17.3818 9.99903 17.3818 9.99904 17.3818C9.99905 17.3818 9.99906 17.3818 9.99907 17.3818C9.99908 17.3818 9.99909 17.3818 9.9991 17.3818C9.99911 17.3818 9.99912 17.3818 9.99913 17.3818C9.99915 17.3818 9.99916 17.3818 9.99917 17.3818C9.99918 17.3818 9.99919 17.3818 9.9992 17.3818C9.99921 17.3818 9.99922 17.3818 9.99923 17.3818C9.99924 17.3818 9.99925 17.3818 9.99926 17.3818C9.99927 17.3818 9.99928 17.3818 9.99929 17.3818C9.99931 17.3818 9.99932 17.3818 9.99933 17.3818C9.99934 17.3818 9.99935 17.3818 9.99936 17.3818C9.99937 17.3818 9.99938 17.3818 9.99939 17.3818C9.9994 17.3818 9.99941 17.3818 9.99942 17.3818C9.99943 17.3818 9.99944 17.3818 9.99945 17.3818C9.99947 17.3818 9.99948 17.3818 9.99949 17.3818C9.9995 17.3818 9.99951 17.3818 9.99952 17.3818C9.99953 17.3818 9.99954 17.3818 9.99955 17.3818C9.99956 17.3818 9.99957 17.3818 9.99958 17.3818C9.99959 17.3818 9.9996 17.3818 9.99961 17.3818C9.99963 17.3818 9.99964 17.3818 9.99965 17.3818C9.99966 17.3818 9.99967 17.3818 9.99968 17.3818C9.99969 17.3818 9.9997 17.3818 9.99971 17.3818C9.99972 17.3818 9.99973 17.3818 9.99974 17.3818C9.99975 17.3818 9.99976 17.3818 9.99977 17.3818C9.99979 17.3818 9.9998 17.3818 9.99981 17.3818C9.99982 17.3818 9.99983 17.3818 9.99984 17.3818C9.99985 17.3818 9.99986 17.3818 9.99987 17.3818C9.99988 17.3818 9.99989 17.3818 9.9999 17.3818C9.99991 17.3818 9.99992 17.3818 9.99993 17.3818C9.99995 17.3818 9.99996 17.3818 9.99997 17.3818C9.99998 17.3818 9.99999 17.3818 10 17.3818V11.3818ZM10.0019 11.3819C9.9954 11.3819 9.99168 11.3818 9.9883 11.3818C9.98519 11.3818 9.98406 11.3818 9.98411 11.3818L9.91051 17.3813C9.9334 17.3816 9.95484 17.3817 9.96514 17.3818L10.0019 11.3819Z" fill="white" mask="url(#path-1-inside-1_491_4311)"/>
<path d="M16.4336 1.73799C16.4336 1.4138 16.7065 1.151 17.0432 1.151C17.3798 1.151 17.6527 1.4138 17.6527 1.73799V3.41166H19.3907C19.7274 3.41166 20.0003 3.67446 20.0003 3.99865C20.0003 4.32283 19.7274 4.58563 19.3907 4.58563H17.6527V6.25931C17.6527 6.58351 17.3798 6.84629 17.0432 6.84629C16.7065 6.84629 16.4336 6.58351 16.4336 6.25931V4.58563H14.6956C14.3589 4.58563 14.0859 4.32283 14.0859 3.99865C14.0859 3.67446 14.3589 3.41166 14.6956 3.41166H16.4336V1.73799Z" fill="white"/>
</svg>
