<svg width="32" height="32" viewBox="0 0 32 32" fill="none" xmlns="http://www.w3.org/2000/svg">
<g clip-path="url(#clip0_427_14809)">
<path d="M12.8711 -0.0234396C12.9242 -0.0234264 12.9773 -0.0234132 13.032 -0.0233996C13.9367 -0.0211627 14.8025 0.0518863 15.6875 0.249998C15.7385 0.260703 15.7896 0.271408 15.8421 0.282438C17.412 0.61705 18.9463 1.31725 20.25 2.25C20.3122 2.29431 20.3744 2.33862 20.4385 2.38428C20.8235 2.66567 21.1808 2.96654 21.5298 3.2915C21.6655 3.41713 21.8039 3.53718 21.9453 3.65625C22.8035 4.40867 23.5061 5.39387 24.0614 6.38647C24.1242 6.49853 24.1885 6.60959 24.2529 6.7207C25.1753 8.34451 25.7512 10.345 25.7627 12.2158C25.7631 12.2642 25.7636 12.3126 25.764 12.3624C25.7712 13.3787 25.778 14.377 25.5625 15.375C25.5507 15.4323 25.539 15.4897 25.5269 15.5488C25.173 17.2383 24.4977 18.8402 23.5 20.25C23.4668 20.2972 23.4336 20.3444 23.3994 20.3931C23.3294 20.4917 23.2586 20.5897 23.1875 20.6875C23.287 20.9339 23.4572 21.0985 23.6434 21.2813C23.6774 21.3153 23.7115 21.3492 23.7466 21.3843C23.861 21.4981 23.9757 21.6114 24.0905 21.7248C24.1726 21.8063 24.2546 21.8878 24.3366 21.9694C24.5133 22.145 24.6901 22.3205 24.8672 22.4958C25.1473 22.7734 25.4268 23.0515 25.7063 23.3297C26.501 24.1208 27.2963 24.9113 28.0926 25.7009C28.5323 26.1369 28.9715 26.5735 29.41 27.0107C29.6874 27.2871 29.9654 27.5629 30.2439 27.8381C30.4176 28.01 30.5905 28.1825 30.7633 28.3553C30.8432 28.4349 30.9234 28.5143 31.0039 28.5933C31.9727 29.5459 31.9727 29.5459 32.0393 30.186C32.0293 30.737 32.0063 31.1076 31.6191 31.5115C31.1526 31.9477 30.8021 32.0373 30.166 32.0188C29.28 31.9459 28.6023 30.9863 28.0071 30.3893C27.9283 30.3104 27.8493 30.2315 27.7704 30.1526C27.558 29.9402 27.3458 29.7276 27.1337 29.515C26.9112 29.2922 26.6886 29.0696 26.466 28.8469C26.0454 28.426 25.6249 28.005 25.2044 27.5839C24.7254 27.1042 24.2462 26.6247 23.767 26.1451C22.7819 25.1595 21.7971 24.1735 20.8125 23.1875C20.5943 23.2717 20.4218 23.3598 20.2344 23.5C18.8773 24.4647 17.3558 25.1087 15.7383 25.4844C15.6582 25.503 15.6582 25.503 15.5765 25.522C14.6887 25.7179 13.8197 25.7756 12.914 25.7734C12.8593 25.7734 12.8045 25.7734 12.748 25.7733C11.8332 25.7707 10.9565 25.7061 10.0625 25.5C9.97645 25.4809 9.97645 25.4809 9.88868 25.4614C7.76475 24.9776 5.87251 23.9339 4.24998 22.5C4.20088 22.4568 4.20088 22.4568 4.1508 22.4128C1.78214 20.3199 0.284118 17.271 -2.21934e-05 14.125C-0.00963653 13.9434 -0.0130666 13.7621 -0.0149148 13.5803C-0.0155297 13.53 -0.0161447 13.4797 -0.0167783 13.4279C-0.0531137 9.68056 1.14763 6.38556 3.76145 3.67627C5.45837 1.95578 7.66556 0.811315 10.0078 0.265623C10.0606 0.253201 10.1135 0.240778 10.1679 0.227979C11.0657 0.029108 11.9549 -0.0255613 12.8711 -0.0234396ZM10.8125 3.4375C10.7611 3.44992 10.7097 3.46233 10.6567 3.47513C8.14976 4.09663 5.95779 5.64251 4.60947 7.86317C4.13903 8.66036 3.80264 9.47206 3.54295 10.3594C3.52777 10.411 3.5126 10.4627 3.49697 10.516C3.28093 11.2919 3.22631 12.0583 3.23045 12.8594C3.23058 12.9064 3.23072 12.9533 3.23085 13.0018C3.234 13.686 3.25877 14.3357 3.43748 15C3.4499 15.048 3.46231 15.0961 3.47511 15.1455C4.14867 17.7162 5.73153 19.885 8.02871 21.2486C9.50886 22.0936 11.1535 22.5273 12.8554 22.5195C12.9374 22.5192 13.0194 22.5188 13.1038 22.5185C15.419 22.4897 17.5948 21.6086 19.3125 20.0625C19.393 19.9959 19.4737 19.9294 19.5547 19.8633C19.7908 19.6588 19.9892 19.4283 20.1875 19.1875C20.2398 19.1251 20.2921 19.0626 20.3459 18.9983C21.3192 17.8143 21.9342 16.4791 22.3125 15C22.3294 14.9342 22.3294 14.9342 22.3467 14.867C22.8879 12.6409 22.4124 10.1619 21.3125 8.1875C21.2907 8.14773 21.269 8.10796 21.2466 8.06698C20.9146 7.46476 20.5305 6.94067 20.0625 6.4375C20.0258 6.39776 19.9891 6.35802 19.9514 6.31708C19.3587 5.68153 18.7347 5.15148 18 4.6875C17.9391 4.64875 17.9391 4.64875 17.8771 4.60922C16.384 3.67434 14.6442 3.22251 12.8906 3.23047C12.7673 3.231 12.7673 3.231 12.6416 3.23153C12.0135 3.23935 11.4221 3.28682 10.8125 3.4375Z" fill="white"/>
</g>
<defs>
<clipPath id="clip0_427_14809">
<rect width="32" height="32" fill="white"/>
</clipPath>
</defs>
</svg>
