<svg width="32" height="32" viewBox="0 0 32 32" fill="none" xmlns="http://www.w3.org/2000/svg">
<path d="M12.7202 6.63995L14.4802 9.59995H10.8002C10.2698 9.59995 9.76105 9.38924 9.38598 9.01417C9.01091 8.63909 8.8002 8.13038 8.8002 7.59995C8.8002 7.06952 9.01091 6.56081 9.38598 6.18574C9.76105 5.81067 10.2698 5.59995 10.8002 5.59995H10.9122C11.6482 5.59995 12.3522 5.99995 12.7202 6.63995ZM6.4002 7.59995C6.4002 8.31995 6.5602 9.00795 6.8802 9.59995H4.8002C4.37585 9.59995 3.96888 9.76852 3.66882 10.0686C3.36877 10.3686 3.2002 10.7756 3.2002 11.2V14.4C3.2002 14.8243 3.36877 15.2313 3.66882 15.5313C3.96888 15.8314 4.37585 16 4.8002 16H27.2002C27.6245 16 28.0315 15.8314 28.3316 15.5313C28.6316 15.2313 28.8002 14.8243 28.8002 14.4V11.2C28.8002 10.7756 28.6316 10.3686 28.3316 10.0686C28.0315 9.76852 27.6245 9.59995 27.2002 9.59995H25.1202C25.4625 8.92911 25.6269 8.18163 25.5977 7.42906C25.5684 6.67649 25.3465 5.94402 24.9531 5.30178C24.5598 4.65954 24.0081 4.12902 23.351 3.761C22.6939 3.39299 21.9533 3.19981 21.2002 3.19995H21.0882C19.4882 3.19995 18.0162 4.04795 17.2002 5.42395L16.0002 7.47195L14.8002 5.43995C14.4038 4.75987 13.8364 4.19532 13.1544 3.80237C12.4723 3.40942 11.6993 3.20174 10.9122 3.19995H10.8002C9.63324 3.19995 8.51409 3.66352 7.68893 4.48868C6.86377 5.31384 6.4002 6.433 6.4002 7.59995ZM23.2002 7.59995C23.2002 8.71995 22.3042 9.59995 21.2002 9.59995H17.5362L19.2802 6.63995C19.6482 5.99995 20.3522 5.59995 21.0882 5.59995H21.2002C22.3202 5.59995 23.2002 6.49595 23.2002 7.59995ZM4.8002 17.6V26.4C4.8002 27.728 5.8722 28.8 7.2002 28.8H14.4002V17.6H4.8002ZM17.6002 28.8H24.8002C26.1282 28.8 27.2002 27.728 27.2002 26.4V17.6H17.6002V28.8Z" fill="white"/>
</svg>
