<svg width="48" height="48" viewBox="0 0 48 48" fill="none" xmlns="http://www.w3.org/2000/svg">
<path d="M42.7733 7.47658C43.4736 8.04954 43.9161 8.65471 44.0624 9.56252C44.0826 9.9709 44.0838 10.3793 44.0849 10.7881C44.0858 10.9841 44.0887 11.1801 44.0917 11.3762C44.1001 12.419 43.9955 13.2414 43.3164 14.0581C42.9598 14.4154 42.5439 14.6812 42.0936 14.9063C42.0627 21.1866 42.0318 27.4669 41.9999 33.9375C42.433 33.9375 42.8661 33.9375 43.3124 33.9375C43.7146 34.1252 43.898 34.2824 44.0624 34.6875C44.0875 34.9032 44.0875 34.9032 44.0896 35.1429C44.0908 35.233 44.092 35.3231 44.0933 35.416C44.0935 35.5128 44.0937 35.6095 44.0939 35.7093C44.0945 35.8093 44.0951 35.9094 44.0958 36.0126C44.0967 36.2242 44.0972 36.4359 44.0971 36.6476C44.0976 36.9708 44.101 37.294 44.1045 37.6172C44.1051 37.823 44.1054 38.0288 44.1056 38.2346C44.1076 38.3792 44.1076 38.3792 44.1097 38.5268C44.1061 39.0892 44.0662 39.4178 43.6874 39.8438C43.3322 40.0805 43.0513 40.0551 42.6404 40.0496C42.5286 40.0492 42.5286 40.0492 42.4146 40.0488C42.1767 40.0477 41.9389 40.0454 41.7011 40.043C41.5398 40.0421 41.3784 40.0412 41.2171 40.0404C40.8218 40.0384 40.4265 40.0351 40.0311 40.0313C40.0329 40.1957 40.0329 40.1957 40.0347 40.3634C40.0356 40.5086 40.0365 40.6537 40.0374 40.7989C40.0382 40.8709 40.039 40.943 40.0399 41.0173C40.0438 41.8719 39.8393 42.4539 39.2892 43.1177C38.4979 43.906 37.5828 44.0826 36.5064 44.088C36.3892 44.0877 36.2721 44.0873 36.1513 44.087C36.0241 44.0872 35.8969 44.0876 35.7697 44.088C35.4215 44.089 35.0734 44.0888 34.7252 44.0884C34.3492 44.0882 33.9732 44.089 33.5971 44.0897C32.861 44.0909 32.1248 44.0911 31.3887 44.0909C30.7902 44.0907 30.1917 44.0909 29.5933 44.0913C29.508 44.0913 29.4228 44.0914 29.335 44.0914C29.1618 44.0915 28.9887 44.0917 28.8155 44.0918C27.1922 44.0928 25.569 44.0926 23.9457 44.092C22.4614 44.0915 20.9771 44.0926 19.4928 44.0944C17.9679 44.0962 16.443 44.097 14.9181 44.0966C14.0623 44.0964 13.2065 44.0967 12.3507 44.098C11.6222 44.0991 10.8937 44.0992 10.1651 44.0981C9.79361 44.0976 9.42212 44.0974 9.05061 44.0986C8.7101 44.0996 8.36962 44.0993 8.02912 44.098C7.84848 44.0976 7.66783 44.0986 7.4872 44.0997C6.35053 44.0926 5.53078 43.8657 4.7134 43.0595C4.04194 42.3253 3.92356 41.5454 3.9223 40.5816C3.92183 40.4962 3.92136 40.4108 3.92089 40.3227C3.91952 40.0406 3.91888 39.7586 3.91836 39.4765C3.91782 39.2797 3.91728 39.0829 3.91674 38.8862C3.91576 38.4736 3.91521 38.0611 3.91488 37.6485C3.91437 37.1215 3.91211 36.5946 3.90944 36.0677C3.90769 35.6611 3.90721 35.2545 3.90707 34.848C3.90678 34.6538 3.90604 34.4596 3.9048 34.2655C3.90319 33.9929 3.90338 33.7204 3.90399 33.4478C3.90312 33.3687 3.90226 33.2895 3.90137 33.2079C3.90808 32.2369 4.18608 31.4428 4.8749 30.75C5.44834 30.2915 5.9892 29.9769 6.73613 29.9759C6.90183 29.975 6.90184 29.975 7.07088 29.9741C7.25237 29.9745 7.25236 29.9745 7.43751 29.975C7.56764 29.9746 7.69776 29.9742 7.82788 29.9737C8.18541 29.9725 8.54294 29.9725 8.90047 29.9728C9.28609 29.9728 9.67171 29.9718 10.0573 29.9709C10.8129 29.9693 11.5684 29.9688 12.3239 29.9687C12.9381 29.9686 13.5522 29.9682 14.1664 29.9676C15.9077 29.966 17.6489 29.9651 19.3902 29.9653C19.4841 29.9653 19.578 29.9653 19.6747 29.9653C19.8157 29.9653 19.8157 29.9653 19.9596 29.9653C21.4827 29.9654 23.0059 29.9636 24.5291 29.9609C26.0931 29.9582 27.6571 29.957 29.2211 29.9571C30.0991 29.9572 30.9772 29.9567 31.8552 29.9546C32.6029 29.9529 33.3505 29.9525 34.0982 29.9538C34.4796 29.9544 34.8609 29.9544 35.2423 29.9528C35.5917 29.9513 35.9411 29.9516 36.2905 29.9532C36.4762 29.9536 36.6619 29.9522 36.8475 29.9507C37.6924 29.9573 38.3797 30.1032 39.0233 30.6797C39.0799 30.7285 39.1365 30.7774 39.1947 30.8277C39.4495 31.1156 39.6399 31.4552 39.8436 31.7813C39.8746 26.1816 39.9055 20.5819 39.9374 14.8125C39.7827 14.7816 39.628 14.7506 39.4686 14.7188C38.7456 14.2127 38.1425 13.5408 37.9686 12.6563C37.9565 12.415 37.9488 12.1762 37.9463 11.9348C37.9456 11.8648 37.9448 11.7947 37.944 11.7225C37.9427 11.5742 37.9417 11.4259 37.941 11.2776C37.9399 11.1274 37.938 10.9772 37.9352 10.827C37.9142 9.69349 37.9976 8.77775 38.7348 7.85817C39.8112 6.78638 41.5261 6.58805 42.7733 7.47658ZM9.67959 35.1387C9.09863 35.9617 8.98707 36.6778 9.09365 37.6875C9.287 38.4735 9.83699 39.1135 10.5058 39.5508C11.0904 39.9043 11.6332 39.9649 12.3002 39.962C12.4292 39.9625 12.4292 39.9625 12.5608 39.963C12.8486 39.964 13.1364 39.9636 13.4242 39.9633C13.6307 39.9637 13.8373 39.9642 14.0438 39.9647C14.6046 39.966 15.1653 39.966 15.7261 39.9658C16.1944 39.9657 16.6626 39.9662 17.1309 39.9666C18.299 39.9677 19.4671 39.9676 20.6352 39.967C21.6486 39.9665 22.6619 39.9676 23.6752 39.9694C24.7167 39.9712 25.7582 39.9719 26.7997 39.9716C27.384 39.9714 27.9683 39.9717 28.5527 39.973C29.1023 39.9742 29.6519 39.974 30.2016 39.9728C30.4031 39.9725 30.6045 39.9728 30.806 39.9736C31.0816 39.9746 31.3571 39.9738 31.6327 39.9726C31.7515 39.9736 31.7515 39.9736 31.8728 39.9747C32.8055 39.9663 33.558 39.6644 34.2186 39C34.7442 38.3005 35.0725 37.5459 34.9686 36.6563C34.7792 35.7646 34.3688 35.0746 33.6561 34.5C32.9525 34.0993 32.3027 34.0173 31.507 34.0181C31.4227 34.0178 31.3383 34.0175 31.2514 34.0173C30.9688 34.0164 30.6861 34.0163 30.4034 34.0162C30.2007 34.0157 29.9981 34.0153 29.7954 34.0148C29.2447 34.0135 28.694 34.0129 28.1433 34.0125C27.7991 34.0122 27.4549 34.0118 27.1108 34.0114C26.0337 34.0101 24.9566 34.0092 23.8794 34.0089C22.6366 34.0085 21.3939 34.0068 20.1511 34.0041C19.1901 34.0021 18.2291 34.0011 17.2681 34.001C16.6943 34.0009 16.1205 34.0003 15.5467 33.9987C15.0068 33.9971 14.4668 33.9969 13.9269 33.9977C13.7291 33.9978 13.5313 33.9974 13.3335 33.9965C13.0626 33.9953 12.7919 33.9958 12.521 33.9968C12.4435 33.9961 12.3659 33.9953 12.286 33.9945C11.2033 34.0036 10.429 34.3722 9.67959 35.1387Z" fill="white"/>
<path d="M9.44079 13.9437C9.60762 13.9431 9.60762 13.9431 9.77783 13.9424C10.0858 13.9414 10.3938 13.9413 10.7017 13.9415C11.0342 13.9416 11.3666 13.9405 11.6991 13.9396C12.3502 13.9381 13.0012 13.9376 13.6523 13.9375C14.1817 13.9374 14.7111 13.937 15.2405 13.9364C16.7421 13.9347 18.2437 13.9339 19.7453 13.934C19.8262 13.934 19.9071 13.934 19.9905 13.934C20.112 13.934 20.112 13.934 20.236 13.9341C21.5488 13.9341 22.8615 13.9323 24.1742 13.9297C25.5229 13.927 26.8715 13.9257 28.2201 13.9259C28.977 13.9259 29.7338 13.9254 30.4907 13.9234C31.1352 13.9217 31.7797 13.9213 32.4241 13.9226C32.7527 13.9232 33.0813 13.9232 33.4099 13.9215C33.7668 13.9201 34.1235 13.921 34.4803 13.9224C34.5834 13.9215 34.6864 13.9205 34.7926 13.9195C35.7499 13.928 36.6248 14.2157 37.3125 14.9063C39.9855 18.4465 38.0625 29.1366 38.0625 29.1563C27.4819 29.1563 16.9012 29.1563 6 29.1563C6 15.7072 6 15.7072 6.85071 14.7927C7.62722 14.0714 8.41125 13.9408 9.44079 13.9437ZM9.1875 17.4375C9.03742 17.7377 9.04695 18.0493 9.09375 18.375C9.2619 18.6385 9.37676 18.7978 9.65625 18.9375C9.85362 18.9455 10.0512 18.9476 10.2488 18.9467C10.4255 18.9462 10.4255 18.9462 10.6058 18.9458C10.7295 18.945 10.8531 18.9442 10.9805 18.9434C11.1061 18.9429 11.2317 18.9425 11.3573 18.9421C11.6653 18.941 11.9733 18.9394 12.2812 18.9375C12.229 19.0422 12.1768 19.1468 12.123 19.2547C10.3705 22.7173 10.3705 22.7173 10.125 26.4375C10.3134 26.7059 10.4473 26.8725 10.775 26.948C11.1225 26.9677 11.3092 26.9266 11.6133 26.7481C12.013 26.3131 12.0623 25.7749 12.1641 25.2129C12.6328 22.7841 13.5295 20.4401 14.9062 18.375C14.9607 17.8294 14.9607 17.8294 14.7305 17.3496C14.4433 17.0709 14.2892 17.0503 13.8996 17.0459C13.8073 17.0447 13.715 17.0435 13.6198 17.0423C13.5198 17.0416 13.4197 17.0409 13.3165 17.0402C13.2139 17.0394 13.1112 17.0387 13.0054 17.0379C12.7878 17.0366 12.5702 17.0356 12.3526 17.0349C12.0199 17.0332 11.6873 17.0291 11.3546 17.025C11.1433 17.024 10.9321 17.0232 10.7208 17.0226C10.6213 17.021 10.5218 17.0193 10.4192 17.0176C9.72557 17.0192 9.72557 17.0192 9.1875 17.4375ZM19.125 17.5313C19.0131 17.9 18.9893 18.0903 19.1426 18.4453C19.3952 18.7589 19.5603 18.9232 19.971 18.9695C20.079 18.968 20.1871 18.9665 20.2983 18.965C20.4742 18.9636 20.4742 18.9636 20.6536 18.9622C20.7756 18.9599 20.8977 18.9575 21.0234 18.9551C21.1469 18.9538 21.2705 18.9526 21.3977 18.9513C21.7027 18.9479 22.0076 18.9433 22.3125 18.9375C22.2852 18.9911 22.2579 19.0446 22.2297 19.0998C21.1589 21.2179 19.8934 23.9026 20.0625 26.3438C20.2307 26.6072 20.3455 26.7665 20.625 26.9063C21.1548 26.961 21.1548 26.961 21.6251 26.7488C21.8778 26.4974 21.9217 26.3683 21.9844 26.0215C22.0061 25.9135 22.0279 25.8054 22.0503 25.6941C22.062 25.6337 22.0736 25.5733 22.0856 25.5111C22.4731 23.5567 23.0519 21.724 24 19.9688C24.0526 19.8702 24.1051 19.7715 24.1593 19.6699C24.5026 19.0336 24.5026 19.0336 24.6804 18.7486C24.9045 18.3881 25.0021 18.1434 24.9375 17.7188C24.7756 17.3626 24.6413 17.2067 24.2812 17.0625C24.0621 17.0326 24.0621 17.0326 23.8259 17.0338C23.7358 17.0323 23.6457 17.0308 23.5528 17.0293C23.4076 17.0285 23.4076 17.0285 23.2595 17.0277C23.1594 17.0269 23.0593 17.026 22.9562 17.0252C22.7445 17.0238 22.5329 17.023 22.3212 17.0226C21.9979 17.0215 21.6748 17.0169 21.3516 17.0122C21.1458 17.0113 20.9399 17.0106 20.7341 17.0102C20.6377 17.0083 20.5413 17.0065 20.442 17.0046C19.8369 17.0084 19.5321 17.07 19.125 17.5313ZM29.25 17.3438C29.0317 17.6452 29.0253 17.9164 29.0625 18.2813C29.2238 18.6362 29.3565 18.7993 29.7188 18.9375C30.0001 18.9633 30.0001 18.9633 30.3091 18.9558C30.4221 18.9552 30.5351 18.9546 30.6515 18.954C30.7691 18.9524 30.8867 18.9509 31.0078 18.9492C31.1268 18.9484 31.2459 18.9476 31.3685 18.9467C31.6624 18.9445 31.9562 18.9414 32.25 18.9375C32.2222 18.9982 32.1944 19.0589 32.1657 19.1214C31.3886 20.8273 30.7202 22.5137 30.2871 24.3399C30.2573 24.4631 30.2573 24.4631 30.2269 24.5888C30.0796 25.2502 29.9075 26.0333 30.2695 26.6367C30.5775 26.9085 30.7955 26.9254 31.203 26.9553C31.5285 26.8768 31.7047 26.7154 31.875 26.4375C31.9978 26.0595 32.0663 25.6736 32.1387 25.2832C32.6211 22.9348 33.4113 20.6647 34.7578 18.6643C34.9382 18.3634 34.9828 18.1636 34.9688 17.8125C34.8171 17.4613 34.6334 17.2651 34.3125 17.0625C34.0932 17.0204 34.0932 17.0204 33.8557 17.0261C33.7652 17.0252 33.6748 17.0244 33.5816 17.0234C33.436 17.0243 33.436 17.0243 33.2875 17.0252C33.1872 17.0249 33.0868 17.0246 32.9835 17.0244C32.7714 17.0242 32.5594 17.0247 32.3473 17.0259C32.023 17.0274 31.6988 17.0259 31.3746 17.0241C31.1685 17.0243 30.9623 17.0246 30.7562 17.0252C30.6593 17.0246 30.5625 17.024 30.4626 17.0234C29.809 17.0257 29.809 17.0257 29.25 17.3438Z" fill="white"/>
<path d="M22.5758 4.05687C23.0371 4.38098 23.2276 4.93731 23.4609 5.43163C23.5132 5.53935 23.5655 5.64707 23.6194 5.75806C23.779 6.08798 23.9365 6.41887 24.0937 6.74999C24.1895 6.94961 24.2853 7.1492 24.3812 7.34874C24.5997 7.80455 24.8163 8.26122 25.0312 8.71874C26.1575 8.17711 27.2417 7.57419 28.3218 6.94575C28.744 6.70403 29.0606 6.72932 29.5312 6.84374C29.8183 7.02538 29.8183 7.02538 30 7.31249C30 9.3 28.974 11.157 28.3125 13.0312C24.1359 13.0312 19.9593 13.0312 15.6562 13.0312C15.1612 11.7009 14.6662 10.3706 14.1562 8.99999C14.0943 8.8453 14.0325 8.69061 13.9687 8.53124C13.9243 8.06511 13.9188 7.87284 14.1445 7.45897C14.3407 7.2224 14.414 7.1471 14.7074 7.09173C15.5215 7.03467 16.1284 7.4207 16.8105 7.81053C16.9286 7.87608 17.0469 7.94145 17.1652 8.00664C17.6358 8.26715 18.1023 8.53387 18.5625 8.81249C18.979 8.16454 19.3515 7.495 19.7226 6.8203C19.9597 6.38995 20.1977 5.96012 20.4375 5.53124C20.4961 5.42628 20.5548 5.32132 20.6152 5.21318C20.6718 5.11366 20.7285 5.01414 20.7868 4.91161C20.8369 4.82318 20.887 4.73474 20.9387 4.64363C21.3448 4.02183 21.8514 3.72842 22.5758 4.05687Z" fill="white"/>
<path d="M12.3445 35.9862C12.4297 35.9859 12.5149 35.9855 12.6027 35.9852C12.8899 35.9841 13.1771 35.9838 13.4644 35.9834C13.6696 35.9828 13.8748 35.9822 14.0801 35.9816C14.6389 35.9799 15.1977 35.9789 15.7566 35.9782C16.1054 35.9777 16.4543 35.9771 16.8031 35.9765C17.8312 35.9748 18.8593 35.9735 19.8874 35.9728C20.0755 35.9726 20.2637 35.9725 20.4519 35.9723C20.5142 35.9723 20.5765 35.9723 20.6407 35.9722C21.65 35.9714 22.6594 35.9691 23.6688 35.966C24.7047 35.9629 25.7407 35.9612 26.7767 35.9609C27.3585 35.9607 27.9403 35.9599 28.5221 35.9575C29.0693 35.9553 29.6164 35.9549 30.1636 35.9559C30.3646 35.9559 30.5656 35.9553 30.7667 35.9541C31.0408 35.9524 31.3148 35.9531 31.5889 35.9543C31.6687 35.9533 31.7486 35.9522 31.8308 35.9512C32.2083 35.9553 32.3928 35.9715 32.7192 36.1787C33.0467 36.5222 33.0368 36.8076 33.0335 37.2671C33.0001 37.5 33.0001 37.5 32.7834 37.7871C32.3491 38.1002 31.9556 38.0764 31.4407 38.0763C31.357 38.0767 31.2733 38.077 31.1871 38.0774C30.9055 38.0784 30.624 38.0788 30.3424 38.0791C30.141 38.0797 29.9396 38.0803 29.7382 38.081C29.1903 38.0826 28.6423 38.0836 28.0943 38.0844C27.7521 38.0849 27.4099 38.0854 27.0678 38.086C25.9976 38.0878 24.9275 38.0891 23.8574 38.0899C22.6212 38.0908 21.385 38.0933 20.1488 38.0971C19.1939 38.0999 18.2389 38.1013 17.284 38.1016C16.7133 38.1018 16.1427 38.1027 15.5721 38.105C15.0354 38.1072 14.4987 38.1076 13.9619 38.1066C13.7649 38.1066 13.5678 38.1072 13.3708 38.1085C13.1019 38.1101 12.833 38.1095 12.5641 38.1082C12.486 38.1093 12.408 38.1103 12.3276 38.1114C11.832 38.1059 11.5485 38.0177 11.1564 37.6875C10.925 37.3405 10.9051 37.0589 10.9689 36.6563C11.3394 35.977 11.6188 35.9861 12.3445 35.9862Z" fill="white"/>
</svg>
