<svg width="24" height="24" viewBox="0 0 24 24" fill="none" xmlns="http://www.w3.org/2000/svg">
<path fill-rule="evenodd" clip-rule="evenodd" d="M19.9186 6.5157H18.6012C18.7749 6.24019 18.8896 5.93094 18.9223 5.60386C19.0267 4.55859 18.4773 3.62157 17.5417 3.20614C16.6818 2.82429 15.7155 2.98038 15.0196 3.61264L13.3561 5.12299C13.0321 4.76802 12.5664 4.54491 12.0495 4.54491C11.5317 4.54491 11.0652 4.76872 10.7412 5.12479L9.07548 3.61246C8.3785 2.9802 7.41253 2.82471 6.55302 3.20635C5.61774 3.62181 5.06813 4.55914 5.1729 5.60439C5.20567 5.93121 5.32027 6.24033 5.49402 6.5157H4.18035C3.52843 6.5157 3 7.04512 3 7.69816V9.47188C3 9.79839 3.26424 10.0631 3.59019 10.0631H20.5087C20.8347 10.0631 21.099 9.79842 21.099 9.47188V7.69816C21.099 7.04512 20.5705 6.5157 19.9186 6.5157ZM10.2789 6.31863V6.5157H7.50246C6.7689 6.5157 6.19156 5.8306 6.37477 5.06548C6.45549 4.72852 6.69826 4.4413 7.01227 4.29589C7.44346 4.09623 7.92111 4.16034 8.28327 4.48872L10.2794 6.30121L10.2792 6.30856L10.2789 6.31863ZM17.7511 5.44687C17.7072 6.06139 17.1531 6.51577 16.5381 6.51577H13.82V6.3187L13.8198 6.30733L13.8195 6.29784L15.7848 4.51336C16.0872 4.2388 16.5102 4.11064 16.9014 4.22751C17.4625 4.39522 17.7922 4.87336 17.7511 5.44687ZM4.24854 11.146V19.8175C4.24854 20.4706 4.82049 21 5.5261 21H11.4881V11.146H4.24854ZM12.6108 21V11.146H19.8504V19.8175C19.8504 20.4706 19.2784 21 18.5728 21H12.6108Z" fill="white"/>
</svg>
