<svg width="49" height="48" viewBox="0 0 49 48" fill="none" xmlns="http://www.w3.org/2000/svg">
<path d="M18.3733 8.30738C18.5218 8.307 18.6703 8.3065 18.8189 8.30589C19.2206 8.30461 19.6223 8.3051 20.024 8.306C20.4453 8.30671 20.8666 8.30605 21.2879 8.30561C21.9953 8.3051 22.7027 8.30577 23.4101 8.30711C24.2268 8.30864 25.0434 8.30814 25.8602 8.3066C26.5626 8.30532 27.265 8.30514 27.9674 8.30588C28.3864 8.30631 28.8054 8.30638 29.2243 8.30544C29.6183 8.30463 30.0123 8.3052 30.4063 8.30682C30.5505 8.30719 30.6947 8.30709 30.8389 8.30646C32.3683 8.30047 32.3683 8.30047 33.0503 8.76638C33.1 8.81642 33.1496 8.86645 33.2008 8.918C33.2771 8.99087 33.2771 8.99087 33.355 9.06521C33.7635 9.67535 33.822 10.3453 33.8166 11.0608C33.817 11.1512 33.8175 11.2417 33.8179 11.3349C33.819 11.6361 33.8182 11.9372 33.8173 12.2384C33.8177 12.4552 33.8182 12.6719 33.8188 12.8886C33.82 13.4759 33.8196 14.0632 33.8187 14.6505C33.8179 15.2657 33.8186 15.8809 33.8191 16.4961C33.8197 17.5952 33.8187 18.6944 33.8173 19.7935C33.816 20.789 33.8163 21.7844 33.8176 22.7799C33.8191 23.9375 33.8196 25.095 33.8188 26.2526C33.8183 26.8648 33.8183 27.477 33.8192 28.0891C33.82 28.6647 33.8195 29.2403 33.8178 29.8159C33.8175 30.0269 33.8176 30.2379 33.8182 30.4489C33.819 30.7374 33.818 31.0258 33.8166 31.3143C33.8172 31.3973 33.8179 31.4804 33.8185 31.566C33.8121 32.2511 33.6723 32.8246 33.3004 33.4043C32.5419 34.1134 31.6752 34.085 30.6904 34.0783C30.5398 34.0787 30.3893 34.0792 30.2388 34.0798C29.832 34.0812 29.4253 34.0801 29.0185 34.0786C28.5919 34.0773 28.1653 34.0779 27.7387 34.0782C27.0227 34.0785 26.3067 34.0772 25.5906 34.075C24.7636 34.0725 23.9367 34.0724 23.1097 34.0735C22.3127 34.0745 21.5158 34.0739 20.7188 34.0726C20.3803 34.072 20.0417 34.072 19.7031 34.0725C19.3043 34.0729 18.9056 34.072 18.5068 34.07C18.3608 34.0694 18.2147 34.0694 18.0687 34.0698C17.8688 34.0704 17.669 34.0692 17.4691 34.0676C17.3574 34.0674 17.2457 34.0672 17.1306 34.0669C16.5663 34.0038 16.0966 33.7734 15.6871 33.375C15.2252 32.7234 15.2045 32.128 15.2052 31.3594C15.2049 31.2692 15.2047 31.1791 15.2044 31.0862C15.2036 30.7839 15.2034 30.4815 15.2033 30.1792C15.2028 29.9625 15.2024 29.7458 15.2019 29.5292C15.2006 28.9403 15.2 28.3515 15.1996 27.7626C15.1993 27.3947 15.199 27.0268 15.1985 26.6589C15.1974 25.6396 15.1964 24.6203 15.1961 23.601C15.1961 23.5358 15.1961 23.4706 15.196 23.4035C15.196 23.3381 15.196 23.2728 15.196 23.2054C15.1959 23.073 15.1959 22.9406 15.1959 22.8082C15.1958 22.7425 15.1958 22.6768 15.1958 22.6092C15.1954 21.5452 15.1938 20.4813 15.1916 19.4173C15.1894 18.3241 15.1882 17.2309 15.1881 16.1377C15.188 15.5243 15.1875 14.9108 15.1858 14.2974C15.1842 13.7202 15.184 13.1431 15.1849 12.566C15.1849 12.3544 15.1845 12.1428 15.1836 11.9312C15.1824 11.6419 15.183 11.3526 15.1839 11.0633C15.1832 10.98 15.1824 10.8967 15.1816 10.8108C15.1866 10.1832 15.2898 9.59473 15.6443 9.06521C15.6952 9.01663 15.746 8.96805 15.7985 8.918C15.8481 8.86796 15.8978 8.81793 15.949 8.76638C16.6989 8.25407 17.5028 8.30363 18.3733 8.30738ZM23.5621 15.9375C23.4405 16.1849 23.3515 16.3992 23.2692 16.6582C23.2222 16.7928 23.1751 16.9273 23.1278 17.0618C23.0948 17.1587 23.0948 17.1587 23.0611 17.2576C22.9831 17.4858 22.9016 17.7116 22.8121 17.9356C22.7889 17.9971 22.7657 18.0586 22.7418 18.122C22.5489 18.3842 22.3693 18.4515 22.0621 18.5625C21.6047 18.6122 21.1458 18.6079 20.6861 18.612C20.0842 18.6252 19.7388 18.6789 19.2731 19.0782C19.0053 19.3995 19.0285 19.759 19.0621 20.1563C19.3263 20.6429 19.6428 20.8979 20.0934 21.1934C21.0484 21.8257 21.0484 21.8257 21.2125 22.47C21.2515 22.9533 21.0941 23.3731 20.9371 23.8242C20.6661 24.5551 20.6661 24.5551 20.7496 25.3125C20.9143 25.5862 21.1169 25.8243 21.4059 25.9688C21.9559 26.0589 22.245 26.0046 22.7112 25.6856C22.9658 25.5016 23.2175 25.3141 23.4684 25.125C23.8641 24.8453 24.2015 24.6844 24.6919 24.7152C25.1343 24.7995 25.4621 25.0732 25.8132 25.3378C26.5335 25.905 26.5335 25.905 27.4117 26.0277C27.8202 25.8952 28.0543 25.6481 28.2965 25.2949C28.4071 24.6731 28.1453 24.0567 27.9508 23.4727C27.7915 22.9631 27.7212 22.6393 27.8746 22.125C28.2438 21.6192 28.6694 21.3129 29.1875 20.972C29.5309 20.7383 29.7604 20.5457 29.9371 20.1563C29.9877 19.6842 29.9411 19.4116 29.6559 19.0313C29.4623 18.8055 29.385 18.7535 29.0934 18.6563C28.9338 18.6456 28.7739 18.6396 28.614 18.6365C28.5202 18.6338 28.4263 18.6312 28.3296 18.6284C28.1329 18.6236 27.9361 18.6194 27.7393 18.616C26.8079 18.5873 26.8079 18.5873 26.3746 18.2813C26.2574 18.122 26.2574 18.122 26.1871 17.9356C26.1579 17.8623 26.1286 17.7891 26.0985 17.7136C26.0209 17.4969 25.9457 17.2797 25.8715 17.0618C25.8481 16.9954 25.8248 16.929 25.8008 16.8606C25.7545 16.7281 25.71 16.5949 25.6675 16.4611C25.5042 15.9916 25.3159 15.7865 24.8746 15.5625C24.6812 15.505 24.6812 15.505 24.4996 15.5157C24.4126 15.5142 24.4126 15.5142 24.3239 15.5127C24.0063 15.5921 23.8136 15.7284 23.5621 15.9375Z" fill="white"/>
<path d="M13.7188 12.5625C13.719 12.6635 13.7192 12.7645 13.7195 12.8686C13.725 15.3279 13.7321 17.7872 13.7409 20.2465C13.7451 21.4359 13.7488 22.6252 13.7513 23.8145C13.7534 24.8513 13.7566 25.8881 13.7609 26.9249C13.7631 27.4737 13.7649 28.0225 13.7654 28.5713C13.766 29.0883 13.7679 29.6053 13.7708 30.1224C13.7716 30.3116 13.7719 30.5009 13.7718 30.6902C13.7709 32.0935 13.8192 33.377 14.8057 34.4795C15.571 35.1871 16.4242 35.4497 17.4422 35.4567C17.5245 35.4577 17.6069 35.4586 17.6917 35.4596C17.9636 35.4625 18.2355 35.4648 18.5074 35.4672C18.696 35.4691 18.8846 35.4711 19.0733 35.4731C19.5695 35.4782 20.0658 35.4829 20.5621 35.4874C21.0686 35.4921 21.5751 35.4973 22.0816 35.5025C23.0752 35.5126 24.0689 35.5221 25.0625 35.5312C25.0625 35.5931 25.0625 35.655 25.0625 35.7188C24.9791 35.7525 24.8956 35.7863 24.8096 35.8211C22.7695 36.6464 20.7312 37.4762 18.6948 38.3105C18.533 38.3767 18.3711 38.4428 18.2092 38.5088C17.7759 38.6856 17.3437 38.865 16.9128 39.0477C16.7743 39.1059 16.7743 39.1059 16.633 39.1652C16.4564 39.2394 16.28 39.3144 16.104 39.3902C15.359 39.7015 14.6495 39.869 13.8642 39.5684C13.1195 39.1499 12.7859 38.4918 12.485 37.7267C12.4492 37.6381 12.4134 37.5494 12.3764 37.4581C12.2585 37.1658 12.142 36.8729 12.0254 36.5801C11.9424 36.3736 11.8592 36.1671 11.7759 35.9607C11.6028 35.5315 11.4302 35.1021 11.2579 34.6725C10.8983 33.7769 10.5329 32.8837 10.1676 31.9905C10.0111 31.6078 9.85485 31.225 9.69864 30.8423C9.05067 29.2545 8.40126 27.6674 7.75169 26.0803C7.49981 25.4648 7.24819 24.8492 6.99663 24.2336C6.88672 23.9647 6.7768 23.6958 6.66688 23.4269C6.59524 23.2516 6.5236 23.0764 6.45198 22.9011C6.10242 22.0457 5.75223 21.1907 5.39738 20.3375C5.35709 20.2406 5.35709 20.2406 5.31598 20.1416C5.19349 19.847 5.07068 19.5526 4.94736 19.2583C4.90565 19.1583 4.86394 19.0582 4.82097 18.9551C4.78507 18.8694 4.74917 18.7837 4.71218 18.6954C4.49648 18.1343 4.42106 17.5335 4.59209 16.9482C4.97515 16.097 5.71548 15.7366 6.54106 15.397C6.63514 15.3572 6.72922 15.3174 6.82616 15.2765C7.1231 15.1515 7.4208 15.0286 7.7188 14.9062C7.81295 14.8674 7.90711 14.8286 8.00412 14.7886C8.65762 14.5196 9.31298 14.2554 9.9688 13.9922C10.1594 13.9154 10.3499 13.8386 10.5405 13.7618C10.904 13.6154 11.2676 13.4692 11.6314 13.3233C11.9432 13.1982 12.2548 13.0724 12.566 12.9457C12.6318 12.919 12.6977 12.8924 12.7655 12.8648C12.9375 12.7951 13.1093 12.7251 13.2812 12.6551C13.5313 12.5625 13.5313 12.5625 13.7188 12.5625Z" fill="white"/>
<path d="M35.2812 12.5625C35.5878 12.6213 35.8647 12.6907 36.1541 12.8081C36.2315 12.8393 36.3089 12.8704 36.3887 12.9025C36.472 12.9366 36.5552 12.9706 36.641 13.0056C36.7291 13.0412 36.8171 13.0768 36.9079 13.1135C37.196 13.2302 37.4837 13.3475 37.7715 13.4648C37.9701 13.5457 38.1687 13.6265 38.3673 13.7073C38.7698 13.8713 39.1721 14.0356 39.5744 14.2001C40.0269 14.385 40.48 14.5684 40.9334 14.7511C41.2433 14.8761 41.5527 15.0023 41.862 15.1288C42.0047 15.1869 42.1476 15.2446 42.2907 15.3019C43.8648 15.933 43.8648 15.933 44.3633 16.6641C44.8909 18.1883 43.9069 19.7446 43.332 21.1406C43.2479 21.3457 43.1638 21.5508 43.0798 21.7559C42.9077 22.1757 42.7354 22.5954 42.563 23.015C42.3325 23.5762 42.1026 24.1376 41.873 24.6991C41.8383 24.784 41.8036 24.8689 41.7679 24.9563C41.6987 25.1256 41.6295 25.2949 41.5603 25.4642C41.3868 25.8885 41.2132 26.3128 41.0395 26.7371C40.9882 26.8626 40.9882 26.8626 40.9357 26.9908C40.7976 27.3282 40.6596 27.6656 40.5215 28.0029C40.3134 28.5113 40.1054 29.0196 39.8974 29.528C39.828 29.6976 39.7586 29.8673 39.6891 30.037C39.2746 31.0499 38.8607 32.0631 38.4475 33.0765C38.3642 33.2807 38.281 33.4849 38.1977 33.6891C38.0403 34.0752 37.883 34.4613 37.7258 34.8474C37.5799 35.2055 37.4335 35.5634 37.2866 35.9211C37.1276 36.3084 36.9709 36.6967 36.8149 37.0853C36.7325 37.2885 36.6499 37.4917 36.5674 37.6948C36.53 37.789 36.4927 37.8832 36.4542 37.9802C36.2061 38.5867 35.9352 39.181 35.3281 39.5039C34.5287 39.8389 33.7204 39.7114 32.9382 39.4014C32.659 39.2869 32.3822 39.1672 32.1055 39.0469C31.9561 38.9838 31.8066 38.921 31.657 38.8584C31.3418 38.7263 31.0271 38.593 30.7127 38.4591C29.9519 38.1358 29.1858 37.8252 28.4204 37.5129C28.0268 37.3521 27.6336 37.1904 27.2404 37.0287C27.1714 37.0003 27.1024 36.972 27.0314 36.9428C26.8751 36.8785 26.7188 36.8143 26.5625 36.75C26.8515 36.1721 28.0111 35.9042 28.6044 35.6933C29.4718 35.414 30.3765 35.4311 31.2791 35.4514C32.3697 35.4733 33.2104 35.3053 34.0621 34.5923C34.8389 33.8231 35.1941 32.8472 35.2021 31.7655C35.2021 31.6899 35.2022 31.6143 35.2023 31.5364C35.2028 31.4552 35.2033 31.3741 35.2037 31.2904C35.2052 31.0185 35.206 30.7466 35.2067 30.4747C35.2076 30.2797 35.2086 30.0848 35.2096 29.8898C35.2121 29.3605 35.2141 28.8311 35.2159 28.3018C35.218 27.7487 35.2206 27.1955 35.2231 26.6423C35.2277 25.5948 35.232 24.5473 35.236 23.4998C35.2406 22.3072 35.2458 21.1147 35.251 19.9221C35.2616 17.4689 35.2717 15.0157 35.2812 12.5625Z" fill="white"/>
</svg>
