<svg width="32" height="32" viewBox="0 0 32 32" fill="none" xmlns="http://www.w3.org/2000/svg">
<g clip-path="url(#clip0_427_14417)">
<path d="M13.5334 13.2318C13.5923 13.2314 13.6512 13.231 13.7119 13.2306C13.906 13.2294 14.1001 13.2291 14.2942 13.229C14.4297 13.2286 14.5651 13.2282 14.7005 13.2277C14.9843 13.227 15.268 13.2268 15.5518 13.2268C15.9145 13.2268 16.2772 13.2251 16.64 13.223C16.9197 13.2216 17.1994 13.2213 17.4791 13.2214C17.6128 13.2213 17.7465 13.2207 17.8802 13.2197C18.0676 13.2185 18.2549 13.2189 18.4424 13.2196C18.497 13.2189 18.5517 13.2182 18.608 13.2175C19.1935 13.2234 19.7029 13.4717 20.125 13.875C20.5114 14.342 20.7077 14.7438 20.7026 15.3567C20.7027 15.404 20.7028 15.4512 20.7029 15.4999C20.7031 15.6577 20.7024 15.8155 20.7017 15.9732C20.7017 16.0866 20.7017 16.1999 20.7018 16.3133C20.7018 16.6206 20.7011 16.9279 20.7002 17.2352C20.6994 17.5565 20.6993 17.8778 20.6992 18.1991C20.6988 18.8074 20.6978 19.4156 20.6965 20.0239C20.6949 20.846 20.6942 21.668 20.6935 22.4901C20.6923 23.7851 20.6898 25.08 20.6875 26.375C17.5938 26.375 14.5 26.375 11.3125 26.375C11.3024 23.5138 11.3024 23.5138 11.3003 22.3146C11.2988 21.4866 11.2971 20.6587 11.2937 19.8308C11.2912 19.2278 11.2896 18.6248 11.289 18.0218C11.2887 17.7026 11.2879 17.3834 11.2861 17.0642C11.2844 16.7636 11.2839 16.4629 11.2842 16.1622C11.2842 16.0521 11.2837 15.942 11.2827 15.8319C11.2739 14.7633 11.2739 14.7633 11.5625 14.3125C11.6043 14.2454 11.6043 14.2454 11.6469 14.177C12.0918 13.4941 12.7497 13.231 13.5334 13.2318Z" fill="white"/>
<path d="M-0.000444114 28.25C10.5596 28.25 21.1196 28.25 31.9996 28.25C31.9996 30.875 31.9996 30.875 31.6871 31.5C31.2624 31.8716 30.9416 32.0192 30.3732 32.0163C30.3228 32.0165 30.2724 32.0167 30.2205 32.017C30.0509 32.0176 29.8813 32.0174 29.7118 32.0171C29.5892 32.0174 29.4667 32.0177 29.3441 32.0181C29.0069 32.019 28.6696 32.0191 28.3323 32.0191C27.9687 32.0192 27.6052 32.02 27.2416 32.0207C26.4464 32.0222 25.6513 32.0227 24.8561 32.023C24.3597 32.0232 23.8632 32.0236 23.3668 32.024C21.9927 32.0253 20.6186 32.0263 19.2445 32.0265C19.1786 32.0265 19.1786 32.0265 19.1113 32.0265C18.9332 32.0265 18.7551 32.0265 18.5769 32.0265C18.4429 32.0266 18.3088 32.0266 18.1747 32.0266C18.1083 32.0266 18.1083 32.0266 18.0405 32.0266C16.6487 32.0268 15.2569 32.0282 13.8651 32.0304C12.3015 32.033 10.738 32.0345 9.17438 32.0345C8.34647 32.0345 7.51857 32.0351 6.69066 32.0369C5.98572 32.0384 5.28079 32.0389 4.57585 32.0379C4.21615 32.0375 3.85647 32.0375 3.49677 32.0389C3.1674 32.0402 2.83807 32.0401 2.5087 32.0388C2.38963 32.0385 2.27056 32.0388 2.15149 32.0397C0.956347 32.0481 0.956347 32.0481 0.499556 31.6875C-0.411055 30.7145 -0.000444114 29.7302 -0.000444114 28.25Z" fill="white"/>
<path d="M16.9199 0.195297C17.376 0.570146 17.6114 1.12506 17.8663 1.64442C17.9303 1.77472 17.9951 1.90458 18.0601 2.03441C18.1011 2.11715 18.1421 2.19991 18.1831 2.2827C18.2121 2.3409 18.2121 2.3409 18.2417 2.40027C18.375 2.67297 18.375 2.67297 18.375 2.81248C18.4426 2.8149 18.4426 2.8149 18.5115 2.81737C19.027 2.8446 19.5361 2.90651 20.0469 2.98045C20.1127 2.98897 20.1784 2.99749 20.2462 3.00627C20.7884 3.08891 21.2797 3.27261 21.625 3.71873C21.8993 4.16455 21.9387 4.62143 21.8525 5.13353C21.7293 5.54404 21.4181 5.82726 21.125 6.12498C21.0807 6.17046 21.0364 6.21594 20.9908 6.2628C20.8395 6.41793 20.6875 6.57237 20.5352 6.72655C20.4848 6.77774 20.4344 6.82893 20.3826 6.88167C20.335 6.92925 20.2875 6.97684 20.2385 7.02586C20.1956 7.06902 20.1527 7.11217 20.1085 7.15663C20 7.24998 20 7.24998 19.875 7.24998C19.892 7.34496 19.892 7.34496 19.9094 7.44186C19.9518 7.67905 19.9936 7.91635 20.0352 8.15369C20.0532 8.25597 20.0714 8.35823 20.0898 8.46045C20.1163 8.60824 20.1422 8.75612 20.168 8.90404C20.1762 8.94898 20.1844 8.99393 20.1928 9.04024C20.2915 9.61518 20.2925 10.1061 20 10.625C19.7407 10.9596 19.4462 11.177 19.0352 11.293C18.298 11.3829 17.7369 11.1069 17.1094 10.75C16.935 10.6524 16.7606 10.555 16.5858 10.4582C16.4663 10.3912 16.3486 10.321 16.2314 10.25C16.0042 10.1659 15.9104 10.2258 15.6875 10.3125C15.5737 10.3666 15.461 10.4232 15.3496 10.4822C15.2877 10.5148 15.2257 10.5473 15.1619 10.5809C15.0981 10.6148 15.0344 10.6487 14.9688 10.6836C14.8418 10.7506 14.7149 10.8176 14.5879 10.8845C14.5289 10.9157 14.4699 10.9468 14.4091 10.9789C13.8851 11.2543 13.4469 11.4142 12.8477 11.2461C12.3555 11.0672 12.032 10.7154 11.8125 10.25C11.6434 9.68012 11.8005 9.08731 11.9062 8.51952C11.9358 8.35917 11.9651 8.19877 11.9941 8.03831C12.0072 7.96793 12.0203 7.89754 12.0338 7.82501C12.0624 7.62579 12.0828 7.45048 12.0625 7.24998C11.9763 7.13141 11.9763 7.13141 11.8486 7.04295C11.5412 6.79645 11.2638 6.52757 10.9844 6.24998C10.9104 6.17796 10.9104 6.17796 10.835 6.10448C10.402 5.67441 10.1226 5.30128 10.1055 4.67577C10.1117 4.20755 10.2571 3.86195 10.5664 3.5117C11.0533 3.07575 11.7353 3.00618 12.3594 2.92186C12.4331 2.91106 12.5068 2.90027 12.5828 2.88914C12.9329 2.83952 13.2713 2.79801 13.625 2.81248C13.6417 2.75899 13.6583 2.70549 13.6755 2.65038C13.7932 2.31403 13.957 2.00031 14.1161 1.68211C14.1755 1.56307 14.2341 1.44366 14.2926 1.3242C14.3308 1.24736 14.3691 1.17053 14.4075 1.09373C14.4417 1.02477 14.4759 0.955805 14.5112 0.88475C15.03 -0.0144399 15.9846 -0.278929 16.9199 0.195297Z" fill="white"/>
<path d="M22.5625 17.625C26.9707 17.625 26.9707 17.625 27.625 18.25C28.0819 18.8022 28.2066 19.2405 28.2017 19.9466C28.2017 20.0162 28.2017 20.0857 28.2017 20.1574C28.2017 20.3867 28.2007 20.6159 28.1997 20.8452C28.1995 21.0044 28.1993 21.1636 28.1992 21.3228C28.1987 21.6987 28.1978 22.0745 28.1965 22.4504C28.195 22.9204 28.1943 23.3905 28.1936 23.8606C28.1924 24.6987 28.1899 25.5369 28.1875 26.375C26.3312 26.375 24.475 26.375 22.5625 26.375C22.5625 23.4875 22.5625 20.6 22.5625 17.625Z" fill="white"/>
<path d="M5.84693 20.7358C5.96868 20.7358 5.96868 20.7358 6.09289 20.7358C6.17819 20.7365 6.26349 20.7371 6.34879 20.7378C6.42705 20.7379 6.5053 20.738 6.58593 20.7382C6.87749 20.7388 7.16905 20.7406 7.46061 20.7422C8.43901 20.746 8.43901 20.746 9.43717 20.75C9.43717 22.6062 9.43717 24.4625 9.43717 26.375C7.58092 26.375 5.72467 26.375 3.81217 26.375C3.80702 25.7266 3.80186 25.0782 3.79655 24.4101C3.79427 24.2064 3.792 24.0027 3.78965 23.7928C3.78892 23.6302 3.78828 23.4676 3.78776 23.3049C3.78711 23.2634 3.78645 23.2218 3.78578 23.179C3.77461 22.4305 3.91053 21.8638 4.43717 21.3125C4.87733 20.9483 5.26529 20.7335 5.84693 20.7358Z" fill="white"/>
</g>
<defs>
<clipPath id="clip0_427_14417">
<rect width="32" height="32" fill="white"/>
</clipPath>
</defs>
</svg>
