<svg width="25" height="24" viewBox="0 0 25 24" fill="none" xmlns="http://www.w3.org/2000/svg">
<path fill-rule="evenodd" clip-rule="evenodd" d="M7.73732 12.0758C8.01273 11.9485 8.34398 11.9874 8.61461 12.1486C8.88604 12.3103 9.05711 12.5703 9.05711 12.8436C9.05711 12.9108 9.04933 12.9905 9.03645 13.0619C9.03007 13.0973 9.02293 13.1279 9.01593 13.1519C9.01135 13.1677 9.0077 13.1775 9.00565 13.1827C9.00355 13.1854 9.00025 13.1897 8.99542 13.1956C8.98202 13.2121 8.96261 13.2345 8.93686 13.263C8.88559 13.3198 8.8148 13.3944 8.72888 13.482C8.55753 13.6568 8.33109 13.8782 8.09098 14.1037L6.73605 15.3562H14.3008C16.8397 15.3562 18.307 15.3614 19.1668 15.3745C19.5971 15.3811 19.8719 15.3896 20.0515 15.4001C20.2361 15.4109 20.3027 15.4232 20.3284 15.4306L20.3311 15.4313C20.5415 15.4891 20.7379 15.6471 20.8648 15.8494C20.993 16.0537 21.0283 16.2658 20.9776 16.424L20.9763 16.4285C20.8948 16.7007 20.7599 16.8689 20.5422 16.9886L20.5394 16.9901C20.5007 17.0121 20.4727 17.0352 20.4528 17.0546C20.4391 17.0566 20.4192 17.059 20.3915 17.0614C20.3206 17.0677 20.2137 17.0732 20.0502 17.0777C19.3954 17.096 17.9105 17.0978 14.4675 17.0978H6.75157L8.09026 18.3566C8.33039 18.582 8.55787 18.8062 8.72883 18.9865C8.81459 19.0769 8.88386 19.1539 8.93278 19.2131C8.95736 19.2429 8.97461 19.2656 8.98559 19.2815C8.98881 19.2862 8.99139 19.2905 8.99279 19.2927C9.04367 19.4156 9.06448 19.5672 9.05144 19.7154C9.03826 19.8652 8.9925 19.9902 8.93288 20.0696L8.92946 20.0744C8.69907 20.3966 8.22095 20.5685 7.83983 20.4742C7.83159 20.4691 7.8197 20.4613 7.8037 20.45C7.76504 20.4227 7.71234 20.3826 7.64612 20.3298C7.51424 20.2246 7.33843 20.0767 7.13236 19.8984C6.72076 19.5423 6.19532 19.071 5.67307 18.5917C5.15084 18.1124 4.63342 17.6267 4.23777 17.2418C4.03972 17.0491 3.87371 16.8832 3.75332 16.7567C3.69295 16.6932 3.64592 16.6416 3.61271 16.6026C3.59171 16.578 3.58091 16.5636 3.57634 16.5576C3.57483 16.5556 3.574 16.5545 3.57371 16.5542C3.46795 16.3226 3.47384 16.1095 3.60539 15.8757C3.60532 15.8759 3.60571 15.8754 3.60666 15.8741C3.61049 15.869 3.62342 15.8518 3.65229 15.8187C3.68626 15.7798 3.73292 15.7294 3.79166 15.6682C3.9089 15.5461 4.0682 15.3875 4.25706 15.2041C4.63441 14.8375 5.1245 14.3768 5.62026 13.9207C6.11602 13.4646 6.61601 13.0144 7.0131 12.6688C7.21184 12.4958 7.38338 12.3502 7.51509 12.2436C7.58109 12.1902 7.63536 12.1479 7.67708 12.1174C7.71236 12.0915 7.73056 12.0802 7.736 12.0768C7.73784 12.0756 7.73822 12.0754 7.73732 12.0758Z" fill="white" fill-opacity="0.9"/>
<path fill-rule="evenodd" clip-rule="evenodd" d="M17.2625 3.07582C16.9871 2.94852 16.6558 2.98736 16.3852 3.1486C16.1138 3.31031 15.9427 3.57034 15.9427 3.84359C15.9427 3.91084 15.9505 3.99046 15.9634 4.06192C15.9697 4.09727 15.9769 4.1279 15.9839 4.15195C15.9884 4.16767 15.9921 4.17754 15.9942 4.18267C15.9962 4.18543 15.9995 4.18968 16.0044 4.19561C16.0178 4.21206 16.0372 4.23451 16.0629 4.26302C16.1142 4.3198 16.185 4.39438 16.2709 4.48201C16.4423 4.65676 16.6687 4.87823 16.9088 5.10367L18.2637 6.35618H10.699C8.16012 6.35618 6.69285 6.36144 5.83304 6.37454C5.40269 6.3811 5.12793 6.38958 4.94838 6.40008C4.76372 6.41089 4.69716 6.42317 4.67139 6.43056L4.6687 6.4313C4.45834 6.48912 4.26195 6.64715 4.13505 6.84937C4.00684 7.05368 3.97159 7.26578 4.0222 7.42396L4.02356 7.4285C4.105 7.70069 4.2399 7.86887 4.45766 7.98855L4.46046 7.99015C4.49918 8.01208 4.52714 8.03519 4.54703 8.05464C4.56079 8.05661 4.5806 8.059 4.60833 8.06144C4.67923 8.06768 4.78618 8.07316 4.94961 8.07772C5.60442 8.09598 7.08932 8.09776 10.5323 8.09776H18.2482L16.9095 9.3566C16.6694 9.58205 16.4419 9.8062 16.271 9.98645C16.1852 10.0769 16.1159 10.1539 16.067 10.2131C16.0424 10.2429 16.0252 10.2656 16.0142 10.2815C16.011 10.2862 16.0084 10.2905 16.007 10.2927C15.9561 10.4156 15.9353 10.5672 15.9484 10.7154C15.9615 10.8652 16.0073 10.9902 16.0669 11.0696L16.0703 11.0744C16.3007 11.3966 16.7789 11.5685 17.16 11.4742C17.1682 11.4691 17.1801 11.4613 17.1961 11.45C17.2348 11.4227 17.2875 11.3826 17.3537 11.3298C17.4856 11.2246 17.6614 11.0767 17.8674 10.8984C18.279 10.5423 18.8045 10.071 19.3267 9.59169C19.849 9.11243 20.3664 8.62668 20.762 8.24178C20.9601 8.04912 21.1261 7.88321 21.2465 7.75668C21.3068 7.69323 21.3539 7.64164 21.3871 7.60262C21.4081 7.57796 21.4189 7.56364 21.4235 7.55758C21.425 7.55559 21.4258 7.55449 21.4261 7.55421C21.5319 7.32258 21.526 7.10949 21.3944 6.8757C21.3945 6.87587 21.3941 6.87535 21.3931 6.87409C21.3893 6.869 21.3764 6.85181 21.3475 6.81873C21.3135 6.77982 21.2669 6.72939 21.2081 6.66822C21.0909 6.54614 20.9316 6.38753 20.7427 6.20407C20.3654 5.8375 19.8753 5.3768 19.3795 4.9207C18.8838 4.46459 18.3838 4.01442 17.9867 3.66878C17.788 3.4958 17.6164 3.35024 17.4847 3.2436C17.4187 3.19016 17.3644 3.14791 17.3227 3.11737C17.2874 3.09154 17.2692 3.08019 17.2638 3.07679C17.262 3.07564 17.2616 3.07541 17.2625 3.07582Z" fill="white" fill-opacity="0.9"/>
</svg>
