<svg width="25" height="24" viewBox="0 0 25 24" fill="none" xmlns="http://www.w3.org/2000/svg">
<path fill-rule="evenodd" clip-rule="evenodd" d="M4.55469 2.97656C9.50783 2.96875 14.461 2.97656 19.4141 3C20.2992 3.26027 20.8227 3.84621 20.9844 4.75781C21.0078 5.16375 21.0156 5.57002 21.0078 5.97656C17.9609 5.96873 14.914 5.97656 11.8672 6C10.8455 6.13106 10.2283 6.70134 10.0156 7.71094C9.98436 10.5547 9.98436 13.3984 10.0156 16.2422C10.2283 17.2518 10.8455 17.8221 11.8672 17.9531C14.914 17.9766 17.9609 17.9844 21.0078 17.9766C21.0156 18.3831 21.0078 18.7894 20.9844 19.1953C20.8216 20.1086 20.2982 20.6945 19.4141 20.9531C14.4609 20.9844 9.50783 20.9844 4.55469 20.9531C3.69829 20.7374 3.17485 20.1983 2.98438 19.3359C2.95312 14.4297 2.95312 9.52345 2.98438 4.61719C3.18347 3.75414 3.7069 3.20726 4.55469 2.97656Z" fill="white"/>
<path fill-rule="evenodd" clip-rule="evenodd" d="M12.8516 7.94531C15.8749 7.99214 18.9062 8.00775 21.9453 7.99219C21.9453 10.6485 21.9453 13.3047 21.9453 15.9609C18.9374 15.9454 15.9374 15.961 12.9453 16.0078C12.4433 15.9566 12.1229 15.691 11.9844 15.2109C11.9531 13.0547 11.9531 10.8984 11.9844 8.74219C12.1023 8.28895 12.3914 8.02331 12.8516 7.94531ZM15.8984 10.4766C16.8476 10.5352 17.3632 11.0351 17.4453 11.9766C17.3731 12.8848 16.8809 13.3848 15.9688 13.4766C14.8657 13.2959 14.397 12.6553 14.5625 11.5547C14.7951 10.923 15.2404 10.5636 15.8984 10.4766Z" fill="white"/>
</svg>
