<svg width="58" height="56" viewBox="0 0 58 56" fill="none" xmlns="http://www.w3.org/2000/svg">
<path d="M22.0002 18.6654H36.0002V13.9987C36.0002 12.0543 35.3196 10.4015 33.9585 9.04036C32.5974 7.67925 30.9446 6.9987 29.0002 6.9987C27.0557 6.9987 25.4029 7.67925 24.0418 9.04036C22.6807 10.4015 22.0002 12.0543 22.0002 13.9987V18.6654ZM43.0002 53.6654C39.7724 53.6654 37.0214 52.5283 34.7472 50.254C32.4714 47.9783 31.3335 45.2265 31.3335 41.9987C31.3335 38.7709 32.4714 36.0191 34.7472 33.7434C37.0214 31.4691 39.7724 30.332 43.0002 30.332C46.2279 30.332 48.9797 31.4691 51.2555 33.7434C53.5297 36.0191 54.6668 38.7709 54.6668 41.9987C54.6668 45.2265 53.5297 47.9783 51.2555 50.254C48.9797 52.5283 46.2279 53.6654 43.0002 53.6654ZM46.8502 47.482L48.4835 45.8487L44.1668 41.532V34.9987H41.8335V42.4654L46.8502 47.482ZM29.5835 51.332H15.0002C13.7168 51.332 12.6186 50.8755 11.7055 49.9624C10.7908 49.0477 10.3335 47.9487 10.3335 46.6654V23.332C10.3335 22.0487 10.7908 20.9497 11.7055 20.035C12.6186 19.1219 13.7168 18.6654 15.0002 18.6654H17.3335V13.9987C17.3335 10.7709 18.4714 8.01914 20.7472 5.74336C23.0214 3.46914 25.7724 2.33203 29.0002 2.33203C32.2279 2.33203 34.9797 3.46914 37.2555 5.74336C39.5297 8.01914 40.6668 10.7709 40.6668 13.9987V18.6654H43.0002C44.2835 18.6654 45.3825 19.1219 46.2972 20.035C47.2103 20.9497 47.6668 22.0487 47.6668 23.332V26.3654C46.889 26.0931 46.1113 25.908 45.3335 25.81C44.5557 25.7136 43.7779 25.6654 43.0002 25.6654C38.4502 25.6654 34.5908 27.2497 31.4222 30.4184C28.2519 33.5886 26.6668 37.4487 26.6668 41.9987C26.6668 43.6709 26.9297 45.2941 27.4555 46.8684C27.9797 48.4441 28.6891 49.932 29.5835 51.332Z" fill="white" fill-opacity="0.47"/>
</svg>
