<svg width="98" height="17" viewBox="0 0 98 17" fill="none" xmlns="http://www.w3.org/2000/svg">
<g clip-path="url(#clip0_175_18277)">
<mask id="mask0_175_18277" style="mask-type:luminance" maskUnits="userSpaceOnUse" x="0" y="0" width="97" height="17">
<path d="M96.9043 0.619629H0.613281V16.6196H96.9043V0.619629Z" fill="white"/>
</mask>
<g mask="url(#mask0_175_18277)">
<path fill-rule="evenodd" clip-rule="evenodd" d="M35.2606 5.2708C34.6273 5.2708 34.032 5.43106 33.4732 5.75233C32.9515 6.03278 32.5422 6.47349 32.2811 7.03514H32.1695C32.2439 6.27317 32.2811 5.63138 32.2811 4.99035V0.939331H30.1953V16.5795H32.2811V11.0854C32.2811 9.68165 32.5043 8.71935 32.9143 8.07757C33.3987 7.47661 34.1064 7.15533 34.8513 7.1954C35.4094 7.15533 35.931 7.39648 36.3038 7.83718C36.6759 8.39884 36.8619 9.08069 36.7875 9.76178V16.6196H38.8733V9.4012C38.8361 6.67456 37.644 5.2708 35.2606 5.2708Z" fill="#00A1E3"/>
<path fill-rule="evenodd" clip-rule="evenodd" d="M71.4238 5.27075C69.9341 5.27075 68.7799 5.79234 67.9971 6.7947C67.2151 7.79707 66.7686 9.24089 66.7686 11.0052C66.7686 12.0476 66.9546 13.1309 67.3646 14.0932C67.6995 14.9353 68.2583 15.6171 68.966 16.138C69.7108 16.6195 70.5301 16.8599 71.3866 16.8198C72.6903 16.8999 73.9561 16.339 74.8133 15.2959C75.6326 14.2534 76.0419 12.8497 76.0419 11.0052C76.0419 9.28096 75.5947 7.87719 74.8133 6.83477C74.0312 5.79159 72.8763 5.27075 71.4238 5.27075ZM71.4238 14.8952C69.748 14.8952 68.8915 13.6117 68.8915 11.0052C68.8543 10.0028 69.0404 9.04057 69.4869 8.1584C69.8597 7.51662 70.5301 7.15528 71.4238 7.15528C73.0996 7.15528 73.9561 8.43885 73.9561 10.9651C73.9561 13.4915 73.0624 14.8952 71.4238 14.8952Z" fill="#00A1E3"/>
<path fill-rule="evenodd" clip-rule="evenodd" d="M18.7992 6.19298C18.1667 5.5512 17.2351 5.27075 15.9321 5.27075C15.3361 5.27075 14.74 5.35088 14.144 5.51114C13.548 5.67139 12.9526 5.91253 12.3566 6.19298L13.0642 7.87719C13.5107 7.63681 13.9579 7.47655 14.4051 7.31554C14.8889 7.15528 15.3733 7.07515 15.857 7.07515C16.3414 7.03509 16.863 7.23541 17.1979 7.59674C17.4962 8.07752 17.6451 8.63917 17.6451 9.20083V9.76173L15.8949 9.84185C14.3307 9.88267 13.2131 10.1631 12.4682 10.8049C11.7233 11.4059 11.2761 12.409 11.3513 13.4113C11.2761 14.3336 11.5745 15.2558 12.1705 15.8976C12.7659 16.4993 13.5852 16.8198 14.4424 16.7798C15.0749 16.8198 15.7081 16.6996 16.267 16.4192C16.863 16.0979 17.3467 15.6171 17.6823 15.0154H17.7567L18.2039 16.5794H19.6936V9.1207C19.7681 7.83713 19.4697 6.83477 18.7992 6.19298ZM17.6823 12.2888C17.7195 13.0508 17.459 13.7727 16.9746 14.3336C16.453 14.8151 15.8198 15.0555 15.15 15.0154C14.7028 15.0555 14.2928 14.9353 13.9579 14.614C13.6975 14.2935 13.548 13.8929 13.5852 13.4514C13.5107 12.8497 13.8091 12.248 14.2928 11.9274C14.74 11.5669 15.4849 11.4059 16.453 11.3658L17.7567 11.2857C17.6823 11.647 17.6823 11.9675 17.6823 12.2888Z" fill="#00A1E3"/>
<path fill-rule="evenodd" clip-rule="evenodd" d="M6.99353 3.78695C7.51445 3.78695 8.03607 3.90715 8.55769 4.0674C9.0414 4.26848 9.52581 4.4688 9.97301 4.70919L10.6807 2.62433C9.52581 1.98255 8.25932 1.66128 6.95633 1.70134C5.80146 1.66128 4.68451 1.98255 3.67848 2.62433C2.74757 3.26536 1.96549 4.18835 1.51899 5.31091C0.997372 6.59448 0.736211 7.95742 0.774122 9.32111C0.774122 11.7673 1.25783 13.6117 2.33828 14.9354C3.41802 16.259 4.83334 16.86 6.76958 16.86C7.96165 16.86 9.15372 16.6596 10.2707 16.2189V14.1333C9.74906 14.2936 9.19093 14.4939 8.66931 14.6149C8.1477 14.735 7.58957 14.7751 7.06795 14.7751C5.76425 14.7751 4.79613 14.2936 4.16289 13.3714C3.45523 12.4491 3.08315 11.0454 3.08315 9.24098C3.08315 7.51671 3.45523 6.15301 4.16289 5.19071C4.79613 4.22842 5.87588 3.70683 6.99353 3.78695Z" fill="#00A1E3"/>
<path fill-rule="evenodd" clip-rule="evenodd" d="M27.5514 11.0854C26.9925 10.6848 26.3965 10.3635 25.7639 10.0831C25.0935 9.84272 24.4603 9.52144 23.8642 9.08074C23.6038 8.87966 23.4549 8.55915 23.417 8.19857C23.417 7.51672 23.9386 7.15539 25.0935 7.15539C26.0244 7.19545 26.9553 7.43659 27.7746 7.8773L28.4823 6.07289C27.4397 5.5513 26.3221 5.27085 25.2051 5.27085C24.1998 5.23079 23.231 5.51124 22.4117 6.07289C21.7412 6.55442 21.3691 7.39653 21.4064 8.2787C21.3691 8.95979 21.5924 9.64165 22.0024 10.2033C22.3745 10.7249 23.1938 11.2056 24.3114 11.7272C24.7951 11.9275 25.2423 12.1279 25.6516 12.4491C25.9128 12.6094 26.136 12.8097 26.3593 13.0108C26.5088 13.2111 26.5832 13.4515 26.5832 13.6919C26.5832 14.5741 25.95 15.0155 24.6463 15.0155C23.5293 15.0155 22.4117 14.695 21.4064 14.0933V16.1381C22.4117 16.6597 23.4921 16.86 24.5719 16.8199C25.8756 16.8199 26.8809 16.5395 27.5886 15.9378C28.2962 15.336 28.7055 14.4138 28.6683 13.4515C28.6683 12.97 28.5939 12.4892 28.4078 12.0477C28.1846 11.7272 27.8862 11.3659 27.5514 11.0854Z" fill="#00A1E3"/>
<path fill-rule="evenodd" clip-rule="evenodd" d="M84.049 4.9904C84.049 5.63143 84.1235 6.27321 84.1979 6.915H84.0863C83.4158 5.83251 82.2982 5.23079 81.1068 5.31092C79.9519 5.27085 78.8722 5.83251 78.2017 6.83487C77.4941 7.83723 77.1592 9.28106 77.1592 11.1255C77.1592 12.97 77.4941 14.3737 78.2017 15.3768C78.8722 16.3792 79.9519 16.9409 81.1068 16.9C82.2982 16.9409 83.453 16.2991 84.0863 15.2158H84.1979L84.57 16.6597H86.1713V1.02026H84.0863L84.049 4.9904ZM84.1607 11.4067C84.1607 12.6094 83.9374 13.5717 83.5646 14.0532C83.0802 14.6149 82.3726 14.9354 81.6656 14.8553C80.9952 14.8953 80.3247 14.5347 79.9519 13.893C79.5054 13.0108 79.3187 12.0477 79.3559 11.0454C79.3187 10.043 79.5054 9.04067 79.9519 8.1585C80.2875 7.51672 80.9579 7.11532 81.6656 7.15538C82.5221 7.15538 83.1546 7.43659 83.5646 8.03755C83.9746 8.63927 84.1607 9.60157 84.1607 11.0454V11.4067Z" fill="#00A1E3"/>
<path fill-rule="evenodd" clip-rule="evenodd" d="M96.6 10.3234C96.6 8.75936 96.2279 7.55668 95.4831 6.59438C94.701 5.71146 93.5833 5.23068 92.4292 5.27075C91.0138 5.27075 89.8962 5.79234 89.1513 6.83477C88.4065 7.87719 87.96 9.32102 87.96 11.1254C87.96 12.9298 88.4065 14.3336 89.2637 15.2959C90.2318 16.339 91.5355 16.8599 92.8757 16.8198C93.4717 16.8198 94.0677 16.7798 94.6638 16.6596C95.2219 16.5394 95.7435 16.339 96.2279 16.0979V14.1733C95.7063 14.4538 95.1847 14.6548 94.6266 14.8151C94.1049 14.9353 93.5461 14.9754 93.0252 14.9754C92.2424 15.0154 91.4976 14.6949 90.9766 14.0932C90.455 13.4113 90.1946 12.4891 90.2318 11.6069H96.7488L96.6 10.3234ZM90.0457 9.84261C90.0457 9.08063 90.3062 8.35872 90.7534 7.757C91.6471 6.83477 93.0624 6.83477 93.9189 7.757C94.3282 8.35872 94.5521 9.08063 94.5149 9.84261H90.0457Z" fill="#00A1E3"/>
<path fill-rule="evenodd" clip-rule="evenodd" d="M50.3064 5.47116C49.0771 5.4311 47.9229 5.99275 47.1409 6.99512C46.3216 7.99748 46.0232 9.36118 46.0232 11.1656C45.986 12.2087 46.1727 13.2512 46.5448 14.1734C46.8425 14.9754 47.3641 15.6573 48.0346 16.1388C49.7848 17.3014 52.0938 16.9809 53.4719 15.3368C54.2168 14.3337 54.5896 12.9707 54.5896 11.1656C54.5896 9.4413 54.2168 8.03754 53.4719 6.99512C52.6898 5.95269 51.5357 5.39104 50.3064 5.47116ZM52.7642 14.695C51.6473 16.1789 49.6731 16.3792 48.295 15.2158C48.109 15.0556 47.9602 14.8953 47.8113 14.695C47.2153 13.8128 46.9548 12.6494 46.9548 11.1656C46.9548 9.68169 47.2153 8.47901 47.8113 7.6369C48.4074 6.83486 49.3383 6.3934 50.2692 6.43346C51.2373 6.35333 52.1682 6.83486 52.7642 7.71703C53.3603 8.51907 53.6207 9.76182 53.6207 11.2457C53.7331 12.4491 53.4347 13.6518 52.7642 14.695Z" fill="#00A1E3"/>
<path fill-rule="evenodd" clip-rule="evenodd" d="M62.1878 3.7869C62.7087 3.7869 63.2303 3.9071 63.7519 4.06735C64.2356 4.26843 64.6828 4.46875 65.1672 4.70914L65.9121 2.66435C64.7573 2.02256 63.4908 1.70205 62.1878 1.74211C61.0329 1.70129 59.8787 2.02256 58.9099 2.66435C57.979 3.30613 57.1969 4.22837 56.7504 5.35092C56.2288 6.63449 55.9677 7.99743 56.0056 9.36113C56.0056 11.8073 56.4893 13.6518 57.5697 14.9754C58.575 16.299 60.0276 16.9408 62.001 16.9408C63.1931 16.9408 64.3852 16.7397 65.5021 16.299V14.2134C64.9805 14.3737 64.4224 14.5747 63.9008 14.6949C63.3791 14.8151 62.821 14.8552 62.2994 14.8552C60.9957 14.8552 60.0276 14.3737 59.3943 13.4514C58.7611 12.5292 58.3518 11.1254 58.3518 9.32106C58.3518 7.51666 58.7239 6.23309 59.4315 5.27079C60.0276 4.26843 61.0701 3.70677 62.1878 3.7869Z" fill="#00A1E3"/>
<path fill-rule="evenodd" clip-rule="evenodd" d="M42.4857 15.3768C42.1874 14.8151 42.0757 14.1733 42.1129 13.5315V6.55433H44.9808V5.67141H42.1129V3.0249H41.6664L41.182 5.51115L39.7295 5.99268V6.5944H41.182V13.6517C41.182 14.735 41.4053 15.5771 41.7781 16.0979C42.1501 16.6195 42.7834 16.8599 43.6771 16.8599C44.1987 16.8599 44.6831 16.7798 45.1668 16.6195V15.8175C44.6831 15.9377 44.1987 15.9777 43.7143 15.9777C43.2678 16.0178 42.7834 15.7774 42.4857 15.3768Z" fill="#00A1E3"/>
</g>
</g>
<defs>
<clipPath id="clip0_175_18277">
<rect width="97" height="17" fill="white" transform="translate(0.5 0.00012207)"/>
</clipPath>
</defs>
</svg>
