<svg width="78" height="33" viewBox="0 0 78 33" fill="none" xmlns="http://www.w3.org/2000/svg">
<path d="M6.37027 1.67932L1.33398 18.0767H4.2928L5.71555 13.2918H9.80753L11.2681 18.0767H14.2898L9.25354 1.67932H6.37027ZM9.10245 10.5776H6.4584L7.55379 6.96791C7.62934 6.71607 7.70488 6.47823 7.76784 6.22639C7.84338 6.47823 7.90633 6.73006 7.99447 6.9819L9.10245 10.5776Z" fill="white"/>
<path d="M19.2756 10.6196C17.9159 10.018 17.7648 9.73816 17.7648 9.30444C17.7648 8.75879 18.1803 8.40902 18.8476 8.40902C19.6534 8.40902 20.2703 8.75879 20.5725 8.96866L21.1517 9.3744L21.9197 6.77207L21.5798 6.52023C20.9124 6.03055 19.9052 5.75073 18.8853 5.75073C16.6064 5.75073 14.957 7.3457 14.957 9.55628C14.957 11.5849 16.5686 12.6623 17.9284 13.2079C19.2756 13.7675 19.389 14.1593 19.389 14.635C19.389 15.5304 18.5328 15.6703 18.0418 15.6703C17.2611 15.6703 16.4176 15.2926 15.9391 14.9848L15.3599 14.607L14.6045 17.2653L14.9696 17.5031C15.8006 18.0488 16.896 18.3566 18.004 18.3566C20.5095 18.3566 22.1967 16.7896 22.1967 14.4671C22.1967 12.1026 20.5221 11.1372 19.2756 10.6196Z" fill="white"/>
<path d="M26.6417 3.14844L23.8214 4.09982V5.97461H22.3105V8.67487H23.834V14.0334C23.834 15.5304 24.111 16.5937 24.665 17.3073C25.2064 17.9789 26.0374 18.3426 26.9817 18.3426C27.8379 18.3426 28.4548 18.1468 28.7444 18.0348L29.1221 17.8809L28.971 15.1667L28.3289 15.3905C28.1274 15.4465 27.9134 15.5025 27.4476 15.5025C27.1076 15.5025 26.6417 15.5025 26.6417 13.9774V8.67487H29.1977V5.97461H26.6543L26.6417 3.14844Z" fill="white"/>
<path d="M36.0593 5.86266L35.543 5.7927C35.392 5.76472 35.2409 5.75073 35.0394 5.75073C34.1455 5.75073 33.3271 6.15647 32.6976 6.87001L32.6724 5.97459H30.0283L30.0661 6.60418C30.1165 7.52759 30.1542 8.60489 30.1542 9.97601V18.0908H33.0123V11.6689C33.0123 11.3611 33.0375 11.0673 33.0627 10.8434C33.2767 9.58426 33.9818 8.80076 34.9261 8.80076C35.1527 8.80076 35.2912 8.80076 35.4171 8.82875L36.0593 8.98265V5.86266Z" fill="white"/>
<path d="M41.2714 5.75073C38.086 5.75073 35.8574 8.36704 35.8574 12.1306C35.8574 15.7822 38.0104 18.3426 41.0952 18.3426C43.714 18.3426 46.5218 16.3419 46.5218 11.9487C46.5469 8.29709 44.3813 5.75073 41.2714 5.75073ZM43.6511 12.0047C43.6511 14.1173 42.6186 15.6563 41.2085 15.6563C39.7983 15.6563 38.7785 14.1313 38.7785 12.0606C38.7785 10.7175 39.3073 8.437 41.2588 8.437C43.1474 8.42301 43.6511 10.7595 43.6511 12.0047Z" fill="white"/>
<path d="M55.9151 2.98047C54.9707 2.04307 53.5606 1.56738 51.7224 1.56738C50.4885 1.56738 49.3175 1.66532 48.2473 1.87518L47.8066 1.95913V18.0907H50.6395V12.0886C50.9291 12.1166 51.2313 12.1306 51.5209 12.1306C53.4347 12.1306 55.0589 11.473 56.0913 10.2838C56.8971 9.37435 57.3 8.14314 57.3 6.61812C57.2874 5.14907 56.809 3.8619 55.9151 2.98047ZM54.4545 6.71606C54.4545 9.01058 52.6415 9.34637 51.5587 9.34637C51.1935 9.34637 50.8914 9.33238 50.627 9.2904V4.36558C50.904 4.3236 51.2817 4.30961 51.7601 4.30961C52.994 4.3236 54.4545 4.74333 54.4545 6.71606Z" fill="white"/>
<path d="M65.9872 14.8728V10.7875C65.9872 7.52758 64.4637 5.75073 61.7189 5.75073C60.4473 5.75073 59.1127 6.14248 58.1809 6.78606L57.8284 7.0379L58.5964 9.55628L59.1882 9.10857C59.78 8.66085 60.6361 8.39503 61.4797 8.39503C62.0463 8.38104 62.4744 8.53494 62.7514 8.84274C62.978 9.09458 63.1165 9.47233 63.1669 9.94802C60.9383 10.018 59.3015 10.6196 58.3194 11.7109C57.627 12.4664 57.2744 13.4458 57.2744 14.607C57.2744 16.4538 58.4831 18.3426 60.8124 18.3426C61.8071 18.3426 62.7388 17.9928 63.469 17.3632L63.5446 18.0768H66.2516L66.1635 17.3912C66.025 16.7336 65.9872 15.8802 65.9872 14.8728ZM61.2279 15.6843C60.7998 15.6843 60.0947 15.5164 60.0947 14.3831C60.0947 13.9494 60.2081 13.6136 60.4599 13.3338C60.7998 12.9701 61.5301 12.5503 63.1921 12.5084V13.8095C63.1921 13.9075 63.1795 14.0753 63.1417 14.2572C62.9276 14.9148 62.3107 15.6843 61.2279 15.6843Z" fill="white"/>
<path d="M73.8438 5.97444L71.7789 12.788C71.7285 12.9559 71.6782 13.1378 71.6278 13.3057C71.5774 13.1378 71.5271 12.9699 71.4641 12.816L69.2104 5.97444H66.0879L69.991 16.8454L70.0036 16.8734C70.0666 17.0133 70.0917 17.0972 70.0917 17.1252C70.0666 17.1812 70.0288 17.2931 70.0036 17.3631C69.6637 18.1746 69.16 18.9161 68.6564 19.3638L68.6438 19.3778C68.0772 19.9094 67.4855 20.1613 67.2588 20.2312L66.7552 20.4131L67.4855 23.1274L67.9513 23.0294C68.2409 22.9735 69.2482 22.7076 70.4065 21.6303C71.7915 20.2732 72.7106 18.0906 73.9193 14.5509L76.8781 5.96045L73.8438 5.97444Z" fill="white"/>
<path d="M11.7721 6.19835C13.6104 4.11369 16.7329 2.8685 20.1198 2.8685C21.4418 2.8685 22.726 3.05038 23.9347 3.42814L24.0355 3.45612L26.2137 2.72859L25.2316 2.32285C23.3807 1.53935 21.2403 1.11963 19.0495 1.11963C15.8641 1.11963 12.9053 1.97308 10.6767 3.52607L10.4375 3.69396L11.3566 6.67404L11.7721 6.19835Z" fill="#FF0000"/>
<path d="M65.2444 30.3189C65.2444 31.2283 64.577 31.9838 63.7461 31.9838H47.4915C46.6731 31.9838 45.9932 31.2423 45.9932 30.3189V22.4979C45.9932 21.5885 46.6731 20.833 47.4915 20.833H63.7461C64.5645 20.833 65.2444 21.5885 65.2444 22.4979V30.3189Z" fill="#FF0000"/>
<path d="M50.4631 24.4146C49.9847 24.4146 49.5943 24.6104 49.3299 24.9882C49.0529 25.3659 48.9144 25.8836 48.9144 26.5552C48.9144 27.2547 49.0529 27.7724 49.3173 28.1501C49.5818 28.5139 49.9595 28.6818 50.4631 28.6818C50.6771 28.6818 50.8912 28.6678 51.0926 28.5979C51.3067 28.5559 51.5081 28.4999 51.7222 28.416V29.2275C51.3193 29.3953 50.866 29.4793 50.3498 29.4793C49.5943 29.4793 49.0152 29.2275 48.6249 28.7238C48.222 28.2201 48.0205 27.4926 48.0205 26.5552C48.0205 25.9536 48.1212 25.4359 48.3101 25.0022C48.5115 24.5545 48.7885 24.2187 49.1663 23.9808C49.5314 23.743 49.9721 23.6311 50.4505 23.6311C50.9793 23.6311 51.4578 23.757 51.911 23.9948L51.6089 24.7783C51.4452 24.6804 51.2563 24.6104 51.0675 24.5405C50.8786 24.4565 50.6771 24.4146 50.4631 24.4146Z" fill="white"/>
<path d="M55.1848 29.4093L55.0211 28.8077H54.9959C54.8196 29.0595 54.6308 29.2414 54.4293 29.3393C54.253 29.4372 54.0012 29.4932 53.7116 29.4932C53.3339 29.4932 53.0317 29.3813 52.8177 29.1434C52.6037 28.9056 52.5029 28.5978 52.5029 28.1781C52.5029 27.7303 52.654 27.3946 52.9436 27.1707C53.2332 26.9468 53.6865 26.8209 54.2908 26.8069L54.9707 26.779V26.5411C54.9707 26.2613 54.9203 26.0654 54.7944 25.9255C54.6811 25.7856 54.5049 25.7156 54.253 25.7156C54.0516 25.7156 53.8627 25.7436 53.6865 25.8136C53.4976 25.8835 53.3339 25.9535 53.1576 26.0514L52.8932 25.3938C53.1073 25.2679 53.3339 25.17 53.5857 25.114C53.8375 25.0441 54.0768 25.0161 54.3034 25.0161C54.7944 25.0161 55.1722 25.142 55.424 25.3799C55.6758 25.6177 55.8017 25.9815 55.8017 26.4991V29.3953H55.1848V29.4093ZM53.9509 28.7797C54.2404 28.7797 54.4923 28.6817 54.6685 28.4998C54.8448 28.318 54.9455 28.0521 54.9455 27.7164V27.3526L54.4545 27.3806C54.0642 27.3946 53.7746 27.4785 53.5983 27.6044C53.422 27.7303 53.3465 27.9262 53.3465 28.192C53.3465 28.3879 53.3969 28.5278 53.4976 28.6398C53.5983 28.7517 53.7494 28.7797 53.9509 28.7797Z" fill="white"/>
<path d="M58.7729 25.0161C58.9365 25.0161 59.075 25.0301 59.1883 25.0581L59.1128 25.9115C58.9995 25.8835 58.8736 25.8695 58.7477 25.8695C58.4203 25.8695 58.1559 25.9815 57.9419 26.2333C57.7404 26.4712 57.6397 26.779 57.6397 27.1567V29.4093H56.8213V25.1H57.4634L57.5767 25.8556H57.6145C57.753 25.6037 57.9041 25.3938 58.1181 25.2399C58.307 25.086 58.5462 25.0161 58.7729 25.0161Z" fill="white"/>
<path d="M61.2156 29.4933C60.7372 29.4933 60.3595 29.2974 60.0825 28.9056C59.8055 28.5139 59.667 27.9682 59.667 27.2687C59.667 26.5552 59.8055 26.0095 60.0825 25.6178C60.3469 25.226 60.7246 25.0162 61.2156 25.0162C61.7193 25.0162 62.1096 25.226 62.374 25.6457H62.4118C62.374 25.324 62.3614 25.1001 62.3614 24.9042V23.3372H63.1798V29.4093H62.5377L62.3992 28.8497H62.3614C62.1222 29.2694 61.7193 29.4933 61.2156 29.4933ZM61.4423 28.7377C61.7822 28.7377 62.034 28.6398 62.1851 28.4299C62.3488 28.2201 62.4243 27.8703 62.4243 27.3946V27.2687C62.4243 26.723 62.3362 26.3313 62.1851 26.1074C62.034 25.8836 61.7822 25.7717 61.4423 25.7717C61.1527 25.7717 60.9261 25.8976 60.7624 26.1634C60.6113 26.4292 60.5357 26.793 60.5357 27.2827C60.5357 27.7724 60.6113 28.1221 60.7624 28.374C60.9009 28.6118 61.1275 28.7377 61.4423 28.7377Z" fill="white"/>
</svg>
