<svg width="100" height="25" viewBox="0 0 100 25" fill="none" xmlns="http://www.w3.org/2000/svg">
<g clip-path="url(#clip0_175_18257)">
<path fill-rule="evenodd" clip-rule="evenodd" d="M1.41406 24.7247V4.42451C1.41406 2.58784 2.70974 1.25434 4.46034 1.25434C6.21093 1.25434 7.23238 2.01145 8.01042 3.6863L12.5979 13.8275H12.6627V1.6323H17.8008V21.7341C17.8008 23.8424 16.3744 25.1027 15.0776 25.1027C13.749 25.1027 12.7765 24.4188 11.4149 21.4825L6.6329 11.1971H6.56807V24.707H1.41406V24.7247ZM27.1373 18.3844L25.2082 14.9614L29.3418 11.8999C28.5797 11.359 27.9802 11.2869 27.3967 11.2869C25.3219 11.2869 24.1878 13.6834 24.1878 15.7363C24.1878 17.88 25.5493 20.1136 27.5912 20.1136C29.4874 20.1136 31.3358 18.2226 32.0968 16.2229L35.7117 18.33C34.2694 22.2573 31.0435 25.1027 27.234 25.1027C23.0207 25.1027 19.325 20.9959 19.325 16.0245C19.325 11.0353 23.0037 6.94625 27.234 6.94625C30.7682 6.94625 33.0864 9.09001 34.7392 12.4763L27.1373 18.3844ZM40.5745 16.0245C40.5745 14.0248 41.8712 12.3499 43.6378 12.3499C45.4054 12.3499 46.7021 14.0248 46.7021 16.0245C46.7021 18.0241 45.4054 19.699 43.6378 19.699C41.8712 19.699 40.5745 18.0241 40.5745 16.0245ZM35.7117 16.0245C35.7117 21.0148 39.4074 25.1027 43.6378 25.1027C47.8681 25.1027 51.5638 20.9959 51.5638 16.0245C51.5638 11.0353 47.8681 6.94625 43.6378 6.94625C39.4074 6.94625 35.7117 11.0353 35.7117 16.0245ZM52.6012 19.771H57.3832C57.9667 19.771 58.259 19.4474 58.259 18.9962C58.259 17.3757 52.7638 17.9875 52.7638 12.3322C52.7638 9.10773 55.2436 7.48721 57.6107 7.48721H62.4405V12.044H58.5503C57.9667 12.044 57.5288 12.3866 57.5288 12.8543C57.5288 14.2232 63.3323 14.5658 63.3323 19.1592C63.3323 22.6353 61.4031 24.5263 58.1453 24.5263H52.5853V19.771H52.6012ZM69.783 17.3391C69.783 18.8167 70.4484 19.7356 71.5336 19.7356C72.6199 19.7356 73.2842 18.8167 73.2842 17.3391V7.50493H78.1959V17.3391C78.1959 21.7884 75.8777 25.1204 71.5336 25.1204C67.2065 25.1204 64.8724 21.8061 64.8724 17.3391V7.50493H69.783V17.3391ZM84.0312 10.3503H84.096C84.8411 7.93722 86.2675 7.50493 88.4242 7.50493V12.6204C84.9878 12.7645 84.6796 13.5937 84.6796 16.5477V24.5452H79.719V7.50493H84.0312V10.3503ZM89.4615 24.5452V6.26237C89.4615 2.73194 91.9254 0.119263 95.8156 0.119263H98.6673V5.21706H96.2694C94.9727 5.21706 94.6485 6.02732 94.6485 7.45059H97.6629V12.5484H94.6485V24.544L89.4615 24.5452Z" fill="#FF3399"/>
</g>
<defs>
<clipPath id="clip0_175_18257">
<rect width="99" height="25" fill="white" transform="translate(0.5 0.00012207)"/>
</clipPath>
</defs>
</svg>
