<svg width="99" height="19" viewBox="0 0 99 19" fill="none" xmlns="http://www.w3.org/2000/svg">
<g clip-path="url(#clip0_175_18241)">
<path d="M91.1662 3.0985C90.6663 2.51399 90.045 2.06629 89.3536 1.79231C88.6158 1.50171 87.8459 1.31726 87.0637 1.24372C86.8341 1.24372 86.6045 1.198 86.3749 1.16534C86.2722 1.16534 86.1695 1.16534 86.0667 1.16534H79.2091C79.1003 1.81844 78.9855 2.47153 78.8768 3.12462C78.6029 4.73994 78.327 6.35307 78.049 7.96404C77.8074 9.40084 77.5596 10.8311 77.3119 12.2679L77.0038 14.1031C77.0038 14.2925 76.9675 14.299 76.8044 14.299H69.3063C69.2462 14.3059 69.1856 14.2946 69.1311 14.2664C69.1673 14.0639 69.1975 13.8549 69.2398 13.6459C69.3546 12.9406 69.4815 12.2352 69.6023 11.5168C69.6326 11.347 69.6326 11.347 69.7896 11.347H74.152C74.3936 11.347 74.3695 11.347 74.4118 11.1185C74.5749 10.1127 74.7501 9.11348 74.9132 8.11425C74.9132 7.98363 74.9132 7.98363 74.8045 7.98363H70.3939C70.1945 7.98363 70.1945 7.98363 70.2307 7.76811C70.3757 6.93868 70.5147 6.10925 70.6597 5.27983C70.702 5.01206 70.6597 5.04471 70.9195 5.04471H75.4691C75.5658 5.04471 75.596 5.00553 75.6141 4.9141C75.6866 4.43081 75.7712 3.94752 75.8498 3.47076L76.1881 1.32209C76.1943 1.2635 76.1943 1.20434 76.1881 1.14575H66.2793C66.2592 1.40542 66.2208 1.66305 66.1645 1.9164C66.0315 2.74583 65.8865 3.57525 65.7415 4.40468C65.5784 5.37126 65.4092 6.36396 65.2461 7.31748C65.0527 8.47998 64.8473 9.64248 64.6419 10.805C64.4908 11.6866 64.3458 12.5618 64.1948 13.4173C64.1948 13.5545 64.1948 13.561 64.0256 13.561H60.7025C60.5515 13.561 60.5454 13.561 60.5756 13.3912C60.7811 12.1895 60.9865 10.9813 61.1798 9.77963L61.784 6.30518C61.9895 5.07737 62.207 3.85608 62.3882 2.6348L62.6239 1.24372C62.6269 1.20242 62.6269 1.16093 62.6239 1.11963H57.4278C57.18 2.56949 56.9384 4.0063 56.6906 5.45616C56.4429 6.90603 56.2314 8.15343 56.0019 9.50534L55.3312 13.4239C55.3312 13.5676 55.3312 13.5741 55.1681 13.5741H52.0202C51.8691 13.5741 51.8691 13.5741 51.8994 13.4108C52.1652 11.8369 52.4371 10.2891 52.7029 8.72815C52.9688 7.16726 53.2286 5.51494 53.5065 3.91486C53.6515 3.05278 53.8026 2.19723 53.9415 1.34168C53.9595 1.27559 53.9595 1.20531 53.9415 1.13922H48.7575C48.7346 1.39418 48.6962 1.64725 48.6427 1.89681C48.5159 2.66093 48.3829 3.41851 48.256 4.18263C48.0869 5.15574 47.9237 6.14191 47.7546 7.10195C47.5854 8.062 47.4041 9.15266 47.2349 10.178C47.0658 11.2034 46.8603 12.3397 46.6791 13.4435C46.6368 13.6851 46.5885 13.9268 46.5582 14.1684C46.5582 14.2664 46.5039 14.286 46.4193 14.286C46.3871 14.2827 46.3548 14.2827 46.3226 14.286H38.8487C38.6372 14.286 38.613 14.3447 38.6614 14.0378C38.8064 13.1953 38.9454 12.3593 39.0843 11.5168C39.0843 11.3405 39.0843 11.3405 39.2958 11.3405H43.7789C43.8514 11.3405 43.8877 11.3405 43.9058 11.2295L44.4315 8.03588C44.3683 8.01628 44.3013 8.01628 44.2381 8.03588H39.9362C39.7248 8.03588 39.7187 8.03588 39.755 7.81383C39.906 6.94521 40.051 6.0766 40.196 5.20146C40.196 5.11002 40.2444 5.07084 40.341 5.07084H45.0477C45.1384 5.07084 45.1746 5.02512 45.1928 4.93369C45.2411 4.58755 45.3015 4.28059 45.3619 3.90833C45.5069 3.05931 45.6459 2.21682 45.7909 1.3678C45.7909 1.31556 45.7909 1.26331 45.7909 1.20453H14.8258C14.7956 1.53761 14.7231 1.85762 14.6687 2.17764C14.4753 3.3532 14.276 4.5353 14.0645 5.70434L13.5388 8.80653C13.3999 9.64248 13.2549 10.485 13.1159 11.3209C13.1018 11.3766 13.0917 11.4334 13.0857 11.4907C13.0313 11.4907 13.0313 11.445 13.0192 11.4189C12.415 9.55758 11.7685 7.69627 11.1402 5.84149C10.6447 4.30019 10.1432 2.78719 9.63572 1.30249L9.59947 1.13922H4.19794C4.11939 1.57679 4.04085 2.01436 3.96834 2.4454L3.2433 6.69704C3.00163 8.12078 2.7539 9.53799 2.51223 10.9617C2.27055 12.3855 2.05304 13.6851 1.8174 15.0501C1.66031 15.984 1.50322 16.9179 1.34008 17.8518C1.32975 17.9084 1.30458 17.9605 1.26758 18.002C1.26758 18.0543 1.26758 18.1392 1.35217 18.1131C1.43675 18.087 1.4005 18.1131 1.42467 18.1131H6.46368C6.44244 18.0209 6.44244 17.9244 6.46368 17.8322C6.6389 16.7808 6.80807 15.7228 6.98329 14.6647C7.15851 13.6067 7.36393 12.3789 7.55124 11.2425C7.73854 10.1062 7.90167 9.10042 8.07085 8.02935C8.10106 7.8726 8.12522 7.72239 8.14939 7.56565C8.20981 7.56565 8.20377 7.60484 8.21585 7.63749L8.90464 9.80576L10.6024 15.1154C10.8924 16.0428 11.2066 16.9636 11.4846 17.891C11.5162 17.9627 11.5347 18.0403 11.5389 18.1196H30.0274C30.0485 17.8575 30.0889 17.5976 30.1482 17.3424C30.3295 16.2452 30.5168 15.1415 30.7041 14.0443L31.266 10.7788L31.7554 7.89873L32.2267 5.16227C32.2267 5.01206 32.2267 5.00553 32.3958 5.00553H35.012C35.0785 5.00553 35.1027 5.00553 35.0906 5.10349C35.0906 5.27983 35.0362 5.45616 35.006 5.62597C34.7643 7.06277 34.5166 8.5061 34.2689 9.94291L33.5438 14.2011C33.3746 15.1676 33.2115 16.1603 33.0484 17.0943C32.994 17.4339 32.9336 17.7473 32.8792 18.1065H81.3903C81.4113 17.8496 81.4476 17.5943 81.499 17.3424C81.638 16.4934 81.783 15.6509 81.928 14.8019C82.1213 13.6394 82.3268 12.4769 82.5322 11.3144C82.6047 10.8637 82.6832 10.4131 82.7557 9.9625C82.8162 9.9625 82.8101 10.0213 82.8162 10.0605C83.1666 11.3209 83.517 12.5944 83.8675 13.868L85.0094 18.0216C85.0123 18.0477 85.0123 18.074 85.0094 18.1H90.1753C89.994 17.571 89.8188 17.042 89.6315 16.5195C89.0575 14.8607 88.4775 13.2018 87.9035 11.5495C87.831 11.347 87.837 11.347 88.0304 11.3079C88.5117 11.2088 88.9831 11.0601 89.4382 10.8637C90.0258 10.5911 90.5486 10.1779 90.9672 9.65525C91.3859 9.13263 91.6894 8.5142 91.8549 7.84648C91.9782 7.34743 92.0471 6.83456 92.0604 6.31824C92.0855 5.81639 92.0469 5.31318 91.9456 4.82266C91.8329 4.18299 91.5638 3.58763 91.1662 3.0985ZM26.9279 5.9917C26.7829 6.83419 26.6378 7.69627 26.4868 8.54529C26.3297 9.51187 26.1605 10.4719 25.9914 11.445C25.8222 12.4181 25.6953 13.2084 25.5442 14.0574C25.5442 14.2206 25.5442 14.2206 25.363 14.2206H17.8166C17.7696 14.2386 17.7185 14.2386 17.6715 14.2206C17.7863 13.5676 17.9011 12.8687 18.0099 12.2026L18.1368 11.4777C18.1368 11.3013 18.1368 11.3013 18.3362 11.3013H22.8737C23.0972 11.3013 23.1033 11.3013 23.1456 11.0466C23.2966 10.1192 23.4537 9.19838 23.6108 8.27099L23.6471 8.04241C23.6471 7.91832 23.6471 7.91832 23.5504 7.91832H19.0008C18.7833 7.91832 18.7833 7.91832 18.8195 7.69627L19.2183 5.18839C19.2485 4.99247 19.2485 4.99247 19.4298 4.99247H26.9399C27.0789 4.99247 27.0849 4.99247 27.0608 5.14921C27.0245 5.43657 26.9702 5.71087 26.9279 5.9917ZM86.8764 7.60484C86.6872 8.1185 86.3212 8.53287 85.8553 8.76081C85.4992 8.93141 85.1195 9.03733 84.7315 9.07429C84.4184 9.10908 84.1036 9.12434 83.7889 9.12001H83.088C82.9128 9.12001 82.9128 9.12001 82.9491 8.93714C83.0095 8.57141 83.0699 8.20568 83.1364 7.83995C83.3056 6.84725 83.4687 5.88067 83.6439 4.87491C83.6862 4.58755 83.6862 4.58755 83.952 4.58755C84.313 4.57765 84.6741 4.59074 85.0336 4.62673C85.3772 4.65651 85.7151 4.7401 86.0365 4.87491C86.3374 5.00531 86.5948 5.23102 86.7749 5.52241C86.955 5.8138 87.0493 6.15724 87.0455 6.50764C87.0627 6.88226 87.005 7.25647 86.8764 7.60484ZM94.8457 13.1561C94.2603 13.2668 93.7374 13.6185 93.3869 14.1374C93.0365 14.6563 92.8858 15.3018 92.9667 15.9383C93.0159 16.406 93.1884 16.8486 93.4637 17.2133C93.739 17.578 94.1054 17.8496 94.5195 17.9955C94.6299 18.0186 94.7374 18.0559 94.8397 18.1065H95.6554C95.8427 18.0282 96.036 17.9955 96.2112 17.9041C96.5318 17.7498 96.8155 17.5184 97.0406 17.2275C97.2657 16.9366 97.4264 16.5939 97.5102 16.2256C97.5106 16.1296 97.5269 16.0345 97.5586 15.9448V15.2917C97.522 15.1824 97.4997 15.0681 97.4921 14.9521C97.3384 14.3494 96.9815 13.8308 96.4917 13.4984C96.0019 13.166 95.4147 13.0439 94.8457 13.1561ZM95.2505 17.682C94.7477 17.6735 94.2679 17.453 93.9135 17.0674C93.559 16.6818 93.358 16.1618 93.3534 15.6183C93.3808 15.0935 93.5929 14.6 93.9462 14.239C94.2996 13.878 94.7673 13.6769 95.2536 13.6769C95.7398 13.6769 96.2076 13.878 96.5609 14.239C96.9143 14.6 97.1264 15.0935 97.1538 15.6183C97.1522 16.164 96.9514 16.6869 96.5949 17.0734C96.2385 17.4599 95.7554 17.6786 95.2505 17.682ZM95.8547 15.677C95.9614 15.6348 96.0564 15.564 96.1308 15.4712C96.2052 15.3784 96.2566 15.2668 96.2801 15.1467C96.3037 15.0266 96.2986 14.9019 96.2654 14.7845C96.2322 14.6671 96.172 14.5607 96.0904 14.4754C96.0272 14.4099 95.9522 14.3593 95.87 14.3267C95.7879 14.2941 95.7004 14.2802 95.6131 14.286C95.2385 14.286 94.8639 14.286 94.4953 14.3251C94.2597 14.3251 94.2597 14.3251 94.2717 14.5929C94.2717 14.5929 94.2717 14.6386 94.2717 14.6647C94.2717 15.0697 94.308 15.4681 94.3322 15.8664L94.3684 16.8004C94.3684 17.0224 94.3684 17.0093 94.5799 17.0028C94.7914 16.9963 94.7189 17.0028 94.7128 16.8461C94.7128 16.5914 94.7128 16.3367 94.7128 16.082C94.7128 16.0036 94.6705 15.9122 94.7128 15.8468C94.7551 15.7815 94.8518 15.8468 94.9182 15.8142C95.0481 15.7754 95.1861 15.7823 95.3121 15.834C95.4381 15.8857 95.5457 15.9794 95.6191 16.1016C95.7822 16.3301 95.9333 16.5718 96.0964 16.8069C96.1266 16.8461 96.1508 16.9179 96.2052 16.9179C96.3354 16.9443 96.47 16.9284 96.5919 16.8722C96.3565 16.4424 96.061 16.0547 95.7158 15.7228L95.8547 15.677ZM95.462 15.455C95.2566 15.455 95.0512 15.455 94.8578 15.4942H94.8095C94.6826 15.4942 94.6886 15.4942 94.6705 15.357C94.6524 15.2199 94.6705 14.9913 94.6705 14.8084C94.6705 14.6256 94.6705 14.6321 94.8276 14.6256C95.0156 14.6288 95.2035 14.6157 95.3895 14.5864C95.4917 14.5735 95.5952 14.587 95.6916 14.6256C95.7669 14.6438 95.835 14.6872 95.8863 14.7495C95.9376 14.8118 95.9695 14.89 95.9775 14.9729C95.9855 15.0559 95.9692 15.1395 95.9309 15.2119C95.8926 15.2843 95.8343 15.3419 95.7641 15.3766C95.6751 15.4225 95.5786 15.4492 95.4801 15.455H95.462Z" fill="#8DC540"/>
</g>
<defs>
<clipPath id="clip0_175_18241">
<rect width="98" height="18" fill="white" transform="translate(0.5 0.500122)"/>
</clipPath>
</defs>
</svg>
