<svg width="99" height="33" viewBox="0 0 99 33" fill="none" xmlns="http://www.w3.org/2000/svg">
<g clip-path="url(#clip0_175_18274)">
<path fill-rule="evenodd" clip-rule="evenodd" d="M52.0836 15.7649C52.213 16.214 51.9543 16.8342 52.6246 16.5308C54.3888 16.0688 55.741 14.8544 56.4118 13.0192C56.6825 12.2534 56.5411 11.488 56.0002 11.0389C55.6001 10.5769 55.0476 10.8938 54.5182 11.0389C54.1066 11.1841 53.7065 11.488 53.4242 11.95C52.6246 13.1779 52.213 14.5505 52.0836 15.7649ZM62.5389 16.689V21.4149C60.916 22.6428 59.4104 24.0024 57.5168 24.7678C56.1526 25.2169 54.9414 25.6789 53.4474 25.3621C50.4603 24.913 48.4253 22.6164 48.143 19.2765C47.8723 15.6197 48.684 12.2798 50.8479 9.38896C52.2121 7.56733 53.9763 6.80145 56.1522 7.2505C58.7277 7.71252 60.2217 10.6034 59.2806 13.3495C58.1867 16.3856 56.0228 18.2207 53.318 19.2899C52.5063 19.6068 52.3534 19.752 53.0357 20.5044C53.4474 21.2702 54.1297 21.4154 54.8 21.2702C57.1052 20.9664 59.0224 19.752 60.9155 18.2342C61.445 17.7457 61.9864 17.2962 62.5389 16.689Z" fill="#BE2631"/>
<path fill-rule="evenodd" clip-rule="evenodd" d="M0.393555 8.425C1.20523 8.26634 2.01646 7.81779 2.83969 7.51394C3.11039 7.36874 3.11039 7.05192 3.11039 6.90672C3.11039 5.99566 3.11039 5.08509 3.23974 4.16105C3.65136 1.7322 5.14491 0.359115 7.86174 0.0552599C9.07303 -0.0899321 10.4372 0.200452 11.649 0.504307C11.9312 0.649499 12.1899 0.649499 11.9312 1.11152C11.649 1.70576 11.5196 2.32594 11.2489 3.09182C11.1195 3.54086 10.9666 3.54086 10.5666 3.39567C10.1665 3.25048 9.614 3.09182 9.07303 3.09182C7.59104 3.09182 7.03851 3.54086 6.6269 5.21731C6.22684 7.19761 6.35619 7.3428 8.12045 7.3428H8.39115C10.6964 7.3428 10.6964 7.3428 10.4377 9.93031C10.4377 10.3793 10.3083 10.3793 10.0261 10.3793H7.32122C6.79181 10.3793 6.52155 10.5245 6.52155 11.2904V24.5443C6.52155 25.1515 6.3922 25.4554 5.83923 25.3102H3.66336C3.2633 25.165 3.13395 24.8611 3.13395 24.3991V11C3.13395 10.4058 3.0046 10.089 2.45163 10.2341H0.405112C0.393555 10.2341 0.393555 8.425 0.393555 8.425ZM97.3982 25.0058H94.5405C94.1404 25.0058 94.0111 24.8606 94.0111 24.3986V14.3524C94.0111 13.8904 94.0111 13.4413 93.8817 12.9793C93.5994 11.1577 92.7878 10.2336 91.1769 10.0885C89.001 9.94328 87.3781 11.1577 86.9665 13.6C86.8371 14.5111 86.8371 15.4216 86.8371 16.4909V24.2534C86.8371 24.8606 86.7078 25.0193 86.1548 25.0193H83.979C83.5789 25.0193 83.4495 24.8741 83.4495 24.425V7.80482C83.4495 7.3428 83.5789 7.19761 83.979 7.19761C84.6613 7.19761 85.6019 6.89375 86.0255 7.3428C86.4255 7.80482 86.4255 8.71589 86.7078 9.63993C87.6604 8.26684 88.8717 7.51444 90.2363 7.05242C91.5889 6.74856 93.0825 6.74856 94.4467 7.36924C96.2109 7.96348 97.1515 9.49473 97.4222 11.475C97.4222 11.6202 97.2929 11.9241 97.5516 11.9241V12.3861C97.2809 12.6899 97.4222 12.9803 97.4222 13.2971V25.0068H97.3987L97.3982 25.0058ZM97.4569 25.0188V13.2961C97.4569 12.9793 97.3275 12.6889 97.5863 12.3851L97.4569 25.0188ZM65.9492 32.8736V33.0188H62.5621V32.8736H65.9492ZM66.067 16.2135C66.067 16.8207 66.1964 17.7447 66.1964 18.5106C66.1964 18.9596 66.3257 19.2765 66.4671 19.725C66.8787 21.2563 67.8313 22.1673 69.4542 22.1673C71.2184 22.3125 72.159 21.7053 72.9827 20.0418C73.5121 18.8139 73.665 17.4543 73.665 16.2399C73.665 14.8668 73.5357 13.349 72.9827 12.1341C72.3004 10.761 71.0891 9.99567 69.5955 10.1408C68.102 10.286 67.0201 10.9067 66.4671 12.7284C66.067 13.7846 66.067 14.8538 66.067 16.2135ZM65.9141 32.8207H62.5385V16.6755V8.0024C62.5385 7.39519 62.6679 7.23652 63.2088 7.23652C63.8912 7.38172 64.8317 6.93267 65.2554 7.38172C65.679 7.83076 65.6554 8.74133 65.7848 9.50721C66.067 9.36202 66.1964 9.05816 66.3257 8.91297C68.4896 6.0221 74.3233 5.87691 76.2165 11.0384C77.3104 14.3784 77.3104 17.8899 76.2165 21.2428C74.3229 26.563 68.3483 26.2592 66.1728 23.2231L65.7728 22.7611C66.0666 26.2726 65.9141 29.626 65.9141 32.8207ZM48.1431 25.0582H44.6146C44.2145 25.0582 44.0852 24.7414 43.9323 24.5962C42.721 22.6159 41.6391 20.6356 40.4038 18.5106C39.3218 20.4909 38.1106 22.3125 37.0166 24.1476C36.6166 24.7419 36.2049 25.0587 35.5231 25.0587C34.5705 24.9135 33.6295 25.0587 32.5475 25.0587C33.2299 23.8308 33.9117 22.9332 34.594 21.851C35.676 20.0423 36.6286 18.3529 37.7105 16.676C38.1221 16.0688 37.9928 15.7649 37.7105 15.3164C36.0992 12.7289 34.4643 10.1284 32.6884 7.39569H36.4872C36.7579 7.39569 36.7579 7.71251 36.8873 7.85771C37.8398 9.53415 38.9338 11.1976 39.8744 13.0327C40.0037 13.1779 40.1451 13.3495 40.2744 13.6399C41.3564 11.8183 42.5796 9.83801 43.5322 8.0029C43.8029 7.54088 44.0616 7.39569 44.4848 7.39569H47.6133C47.7426 7.71252 47.4839 8.0029 47.3426 8.16156C45.849 10.6039 44.2141 13.1779 42.7206 15.6202C42.4498 16.0693 42.4498 16.2145 42.7206 16.6895L47.6013 24.452C47.7426 24.452 47.872 24.7424 48.1422 25.0592L48.1431 25.0582ZM25.3505 14.2601H28.4789C28.6083 14.2601 28.8906 14.4053 28.8906 13.9433C29.0199 12.2798 27.926 10.4317 26.4444 10.1413C24.1392 9.38896 21.9753 11.0524 21.6931 13.7981C21.6931 14.2601 21.6931 14.4053 22.1047 14.4053C23.1866 14.2601 24.2682 14.2601 25.3505 14.2601ZM31.5954 21.0981V23.8308C31.5954 24.1476 31.466 24.2928 31.1838 24.2928C28.3376 25.5072 25.3505 25.8241 22.375 24.5967C20.0817 23.5274 18.7171 21.402 18.3055 18.6563C17.9054 15.7654 18.0348 13.0192 19.5288 10.4317C20.8814 7.85771 23.1866 6.93367 25.7621 7.09183C28.2082 7.09183 30.1018 8.16106 31.466 10.4317C32.2777 11.963 32.4186 13.4678 32.4186 15.1712C32.4186 17.1515 32.4186 17.1515 30.6544 17.1515H22.3745C21.8451 17.1515 21.6922 17.2967 21.8451 17.9173C22.3745 21.4154 24.2912 22.9337 27.5375 22.4717C28.7608 22.3265 29.9836 22.0226 31.0775 21.4025C31.1833 21.2573 31.3367 21.0981 31.5954 21.0981ZM82.0733 16.0683V24.2928C82.0733 24.7419 81.944 24.8871 81.5324 24.8871H79.2392C78.9569 24.8871 78.6982 24.8871 78.6982 24.438V7.68557C78.6982 7.23652 78.8275 7.23652 79.2392 7.23652H81.5324C82.0733 7.23652 82.0733 7.38172 82.0733 7.83076V16.0683ZM16.9533 12.5702V24.2928C16.9533 24.8871 16.8239 25.0587 16.271 25.0587H14.2244C13.5421 25.0587 13.4128 24.9135 13.4128 24.2928V3.75192V0.86105C13.4128 0.253839 13.5421 0.0951753 14.0951 0.0951753H16.271C16.8004 0.0951753 16.9533 0.240367 16.9533 0.86105C16.8239 4.7952 16.9533 8.62308 16.9533 12.5702ZM80.4389 4.64951C79.2156 4.64951 78.5337 3.89711 78.3924 2.66921C78.3924 1.3096 79.0747 0.543724 80.286 0.543724C81.4973 0.543724 82.1796 1.3096 82.1796 2.66921C82.3325 3.89711 81.6622 4.64951 80.4389 4.64951Z" fill="#FEFEFE"/>
</g>
<defs>
<clipPath id="clip0_175_18274">
<rect width="98" height="33" fill="white" transform="translate(0.5 0.00012207)"/>
</clipPath>
</defs>
</svg>
