<svg width="101" height="29" viewBox="0 0 101 29" fill="none" xmlns="http://www.w3.org/2000/svg">
<g clip-path="url(#clip0_175_18292)">
<path fill-rule="evenodd" clip-rule="evenodd" d="M24.712 29.2005V0.200562H26.0434V29.2005H24.712ZM38.6974 3.97113V3.82453H44.024V18.3259C44.024 22.3307 41.0434 25.5766 37.3648 25.5766C33.6874 25.5766 30.7056 22.3307 30.7056 18.3259H36.0334C36.0334 19.126 36.6296 19.7755 37.3648 19.7755C38.1 19.7755 38.6974 19.126 38.6974 18.3259V3.97113ZM57.9348 11.6095C58.5235 12.3042 58.978 13.1482 59.286 14.1196C59.5878 15.0773 59.7406 16.1597 59.7406 17.3394C59.7406 17.623 59.7306 17.8792 59.712 18.1039C59.6847 18.4163 59.6586 18.5547 59.6052 18.6712L59.4587 18.9931H50.2436C50.2895 19.2219 50.3566 19.4398 50.4448 19.6412C50.6112 20.0194 50.8322 20.3523 51.103 20.6304C51.3725 20.9072 51.6879 21.1264 52.0419 21.2826C52.3933 21.4374 52.7783 21.5155 53.1882 21.5155C53.9942 21.5155 54.6077 21.3237 55.0113 20.9456L55.2274 20.7428L59.1333 21.9279L58.716 22.5952C58.3471 23.1871 57.8864 23.7118 57.3437 24.1557C56.8022 24.5969 56.1775 24.9477 55.487 25.1984C54.7965 25.4491 54.0228 25.5766 53.1882 25.5766C52.2381 25.5766 51.3228 25.3916 50.4646 25.0285C49.6003 24.6641 48.8315 24.1229 48.1782 23.4227C47.5275 22.724 46.9997 21.8608 46.6109 20.8565C46.2197 19.8522 46.0223 18.6986 46.0223 17.4271C46.0223 16.2337 46.211 15.1349 46.5824 14.1593C46.9537 13.1866 47.4617 12.3384 48.0938 11.6397C48.7247 10.9423 49.4624 10.3929 50.287 10.0065C51.1142 9.61878 51.9823 9.42285 52.8678 9.42285C53.9271 9.42285 54.8946 9.61193 55.7453 9.98734C56.6047 10.3655 57.3412 10.9108 57.9348 11.6095ZM50.3678 15.3678H55.4783C55.4497 15.2363 55.4125 15.1075 55.3678 14.9814C55.2622 14.6827 55.1007 14.4142 54.8884 14.1826C54.6735 13.9483 54.4015 13.7565 54.0786 13.6127C53.7533 13.4688 53.3558 13.3962 52.8951 13.3962C52.4927 13.3962 52.1301 13.4715 51.8183 13.6209C51.5016 13.7743 51.2309 13.9757 51.0136 14.2196C50.79 14.4704 50.6087 14.7581 50.4746 15.0746C50.4336 15.1719 50.3976 15.2705 50.3678 15.3678ZM83.3745 11.7274C84.0252 12.4453 84.5381 13.3044 84.9008 14.2799C85.2622 15.2554 85.446 16.3337 85.446 17.4846C85.446 18.6355 85.2622 19.7179 84.902 20.7017C84.5394 21.6882 84.0252 22.5527 83.3745 23.272C82.7249 23.99 81.95 24.5599 81.0719 24.9641C80.1926 25.3697 79.2177 25.5766 78.1745 25.5766C77.1487 25.5766 76.1787 25.371 75.2907 24.9655C74.4028 24.5599 73.6266 23.9886 72.9832 23.2679C72.3424 22.55 71.8345 21.6868 71.4731 20.7017C71.1117 19.7193 70.9279 18.6369 70.9279 17.4846C70.9279 16.3324 71.1117 15.2541 71.4731 14.2799C71.8357 13.3058 72.3437 12.4481 72.9832 11.7301C73.6266 11.0094 74.4028 10.4381 75.2907 10.0325C76.1787 9.62837 77.1487 9.42285 78.1745 9.42285C79.2177 9.42285 80.1926 9.62837 81.0719 10.0339C81.95 10.4395 82.7249 11.0094 83.3745 11.7274ZM81.0061 19.2219C81.1775 18.7301 81.2644 18.145 81.2644 17.4846C81.2644 16.8256 81.1775 16.246 81.0061 15.7651C80.8384 15.2897 80.6087 14.8882 80.323 14.569C80.0411 14.2539 79.7145 14.0168 79.3531 13.8634C78.9805 13.7072 78.5843 13.6277 78.1745 13.6277C77.7634 13.6277 77.366 13.7072 76.9947 13.8634C76.6358 14.0155 76.3153 14.2511 76.0434 14.5635C75.7627 14.8855 75.5292 15.2924 75.3516 15.7733C75.174 16.2515 75.0846 16.8283 75.0846 17.4846C75.0846 18.1423 75.174 18.7246 75.3528 19.2137C75.5304 19.7029 75.7627 20.1139 76.0434 20.4345C76.3178 20.751 76.6407 20.9921 77.0034 21.1524C77.3722 21.3169 77.7659 21.4004 78.1745 21.4004C78.5819 21.4004 78.9755 21.3169 79.3444 21.1524C79.7095 20.9908 80.0386 20.7483 80.323 20.429C80.6074 20.1111 80.8372 19.7056 81.0061 19.2219ZM99.6462 13.2797C99.8573 14.01 99.9629 14.8006 99.9629 15.6281V25.1409H95.8086V16.209C95.8086 15.4664 95.6397 14.8334 95.3081 14.3265C95.0126 13.8757 94.4785 13.6565 93.6775 13.6565C92.9584 13.6565 92.4393 13.899 92.0903 14.3991C91.7065 14.9485 91.519 15.6062 91.519 16.4118V25.1409H87.3648V9.85718H91.4395V10.6998C91.7227 10.4354 92.0356 10.2148 92.3722 10.0421C93.1422 9.65029 93.9395 9.45162 94.743 9.45162C95.6149 9.45162 96.3874 9.61467 97.0406 9.93802C97.6988 10.2641 98.2527 10.7231 98.6862 11.304C99.1084 11.8712 99.4313 12.5357 99.6462 13.2797ZM68.3583 21.1292C68.6266 21.0922 68.7036 21.0743 68.721 21.0689L69.3841 20.888V24.8079L69.0488 24.9545C68.9743 24.9874 68.8315 25.0408 68.4018 25.1655C68.0503 25.2655 67.5796 25.3149 66.9599 25.3149C65.6137 25.3149 64.5295 24.8888 63.7371 24.0475C62.941 23.2035 62.5374 22.0197 62.5374 20.5304V14.0045H60.939V9.85718H62.5374V5.53581H66.6668V9.85718H69.3568V14.0045H66.6668V19.9782C66.6668 20.4249 66.7488 20.7469 66.9028 20.9099C67.063 21.0785 67.3685 21.1675 67.7858 21.1675C67.9758 21.1675 68.1683 21.1552 68.3583 21.1292ZM1.44205 9.71058C1.32779 9.74346 1.23465 9.61193 1.29053 9.49821C2.55357 6.97718 4.7257 5.0001 7.47533 4.1972C10.225 3.39568 13.0143 3.92592 15.2659 5.42209C15.3665 5.48923 15.3467 5.65364 15.2324 5.6879L1.44205 9.71058ZM18.3496 8.63229C18.9495 9.60234 19.4152 10.6943 19.7083 11.8863C20.0026 13.0783 20.0995 14.2785 20.0262 15.4445C20.0225 15.5062 19.9828 15.5596 19.9269 15.5747L1.91771 20.8277C1.86306 20.8442 1.80345 20.8209 1.7724 20.7688C1.17255 19.7988 0.706829 18.7068 0.412492 17.5148C0.119397 16.3228 0.021285 15.1239 0.0945591 13.9566C0.0995271 13.8949 0.139268 13.8428 0.193913 13.8264L18.2031 8.57337C18.259 8.55693 18.3174 8.58022 18.3496 8.63229ZM18.68 19.6905C18.793 19.6576 18.8862 19.7892 18.8303 19.9029C17.5672 22.4239 15.3963 24.401 12.6455 25.2039C9.89585 26.0054 7.10772 25.4752 4.85611 23.979C4.75427 23.9119 4.77538 23.7475 4.8884 23.7132L18.68 19.6905Z" fill="#FF6300"/>
</g>
<defs>
<clipPath id="clip0_175_18292">
<rect width="100" height="29" fill="white" transform="translate(0.5 0.00012207)"/>
</clipPath>
</defs>
</svg>
