<svg width="97" height="29" viewBox="0 0 97 29" fill="none" xmlns="http://www.w3.org/2000/svg">
<g clip-path="url(#clip0_175_18375)">
<path fill-rule="evenodd" clip-rule="evenodd" d="M13.6281 28.6816C20.6338 28.6816 26.3127 22.4125 26.3127 14.6803C26.3127 6.94807 20.6338 0.678955 13.6281 0.678955C6.62228 0.678955 0.943359 6.94807 0.943359 14.6803C0.943359 22.4125 6.62228 28.6816 13.6281 28.6816ZM13.7191 15.5045L12.8142 18.9281H19.971L19.2363 21.681H7.77173L8.94276 17.2586L7.28511 17.8671L7.83406 15.7928L9.49171 15.1843L11.4778 7.67962H15.7855L14.2669 13.4289L16.3752 12.655L16.3932 12.7052L15.8598 14.7173L13.7191 15.5045Z" fill="#3978DB"/>
<path fill-rule="evenodd" clip-rule="evenodd" d="M29.4844 2.4292H31.7401V24.8334H29.4844V2.4292Z" fill="#3978DB"/>
<path fill-rule="evenodd" clip-rule="evenodd" d="M34.2131 7.99045C33.4244 7.99045 32.8994 7.22582 32.8994 6.31436C32.8994 5.40422 33.4496 4.6687 34.261 4.6687C35.0725 4.6687 35.5974 5.40422 35.5974 6.31436C35.5974 7.22582 35.0725 7.99045 34.237 7.99045H34.2131ZM33.2098 24.8333V10.6058H35.311V24.8333H33.2098Z" fill="#3978DB"/>
<path fill-rule="evenodd" clip-rule="evenodd" d="M82.5998 7.99045C81.8111 7.99045 81.2861 7.22582 81.2861 6.31436C81.2861 5.40422 81.8363 4.6687 82.6465 4.6687C83.4592 4.6687 83.9842 5.40422 83.9842 6.31436C83.9842 7.22582 83.4592 7.99045 82.6226 7.99045H82.5998ZM81.5966 24.8333V10.6058H83.6977V24.8333H81.5966Z" fill="#3978DB"/>
<path fill-rule="evenodd" clip-rule="evenodd" d="M36.8564 5.90039H39.0619V9.56079H44.3165V11.6748H39.0619V19.9097C39.0619 21.804 39.4969 22.8769 40.7531 22.8769C42.5749 22.8769 43.6692 22.2975 44.0036 22.1705L44.5981 24.2659C44.1631 24.4551 43.0508 25.1813 40.1634 25.1813C39.1122 25.1813 38.2672 24.7382 37.729 24.0119C37.1129 23.1613 36.8564 21.804 36.8564 20.0049V5.90039Z" fill="#3978DB"/>
<path fill-rule="evenodd" clip-rule="evenodd" d="M46.5461 17.6714C46.6024 21.427 48.7191 22.9708 51.2038 22.9708C52.9825 22.9708 54.084 22.6242 54.9865 22.2141L55.4384 24.172C54.5634 24.6125 53.04 25.1496 50.8646 25.1496C46.6863 25.1496 44.1465 22.025 44.1465 17.4491C44.1465 12.8111 46.6024 9.18115 50.5829 9.18115C55.0429 9.18115 56.2019 13.5678 56.2019 16.3763C56.2019 16.9451 56.1719 17.3856 56.1156 17.7031L46.5461 17.6714ZM53.8011 15.6818C53.8299 13.9462 53.1527 11.1694 50.3851 11.1694C47.8453 11.1694 46.7714 13.757 46.5736 15.6818H53.8011Z" fill="#3978DB"/>
<path fill-rule="evenodd" clip-rule="evenodd" d="M67.4117 24.2976C66.7836 24.6415 65.3908 25.1812 63.6169 25.1812C59.6328 25.1812 57.0391 22.0566 57.0391 17.3551C57.0391 12.6523 59.8222 9.21411 64.1359 9.21411C65.5551 9.21411 66.81 9.62288 67.4656 10.0343L66.919 12.1483C66.3473 11.8004 65.446 11.422 64.1359 11.422C61.1059 11.422 59.4686 14.0413 59.4686 17.2294C59.4686 20.7642 61.4331 22.939 64.0532 22.939C65.4184 22.939 66.3198 22.562 67.0018 22.214L67.4117 24.2976Z" fill="#3978DB"/>
<path fill-rule="evenodd" clip-rule="evenodd" d="M73.8105 25.1812C70.4784 25.1812 67.8643 22.1505 67.8643 17.3247C67.8643 12.2104 70.6066 9.21411 74.0154 9.21411C77.5788 9.21411 79.988 12.4009 79.988 17.0389C79.988 22.7194 76.7842 25.1812 73.8368 25.1812H73.8105ZM73.8884 23.0977C76.0399 23.0977 77.6556 20.6054 77.6556 17.1355C77.6556 14.5466 76.6056 11.2963 73.9387 11.2963C71.2982 11.2963 70.1452 14.3257 70.1452 17.2294C70.1452 20.5723 71.683 23.0977 73.862 23.0977H73.8884Z" fill="#3978DB"/>
<path fill-rule="evenodd" clip-rule="evenodd" d="M87.7763 11.7687V24.8334H85.5205V10.34C86.5058 9.10971 90.3472 9.54494 90.3472 9.54494C92.0648 9.54494 96.0801 10.7805 96.0801 15.908V24.8334H94.094V16.2162C94.094 13.4633 92.561 11.6801 90.4335 11.6801C90.4335 11.6801 89.0839 11.5517 87.7763 11.7687Z" fill="#3978DB"/>
</g>
<defs>
<clipPath id="clip0_175_18375">
<rect width="97" height="28" fill="white" transform="translate(0 0.5)"/>
</clipPath>
</defs>
</svg>
