<svg width="96" height="29" viewBox="0 0 96 29" fill="none" xmlns="http://www.w3.org/2000/svg">
<g clip-path="url(#clip0_175_18341)">
<path fill-rule="evenodd" clip-rule="evenodd" d="M5.5757 8.75552C7.70153 8.85554 9.34945 9.85299 10.3969 11.9383C10.9441 13.0289 12.1104 13.4975 13.1442 13.0043C14.1644 12.5165 14.6683 11.256 14.3167 10.0859C14.2276 9.78586 14.0864 9.51594 13.9478 9.24329C13.3324 8.03895 13.0873 6.7387 13.2841 5.38365C13.5714 3.40383 14.526 1.8871 16.1268 0.918426C16.9985 0.392299 17.9518 0.138826 18.9534 0.212813C22.487 0.473136 24.8047 3.85871 24.0817 7.56215C23.8056 8.97885 23.1419 10.1887 22.0598 11.0669C21.005 11.9232 19.8337 12.3781 18.5065 12.2945C17.6658 12.2425 16.8239 12.8837 16.4995 13.7935C16.1764 14.6991 16.4265 15.7829 17.074 16.42C17.6237 16.9598 18.2688 17.0859 18.9757 17.0982C21.4816 17.1393 23.6025 18.9917 24.2315 21.6511C25.0536 25.1312 22.8832 28.6757 19.6406 29.147C16.6914 29.5745 13.9701 27.3892 13.486 24.1749C13.2619 22.6883 13.4921 21.2798 14.2288 19.9905C14.76 19.0602 14.6473 17.8668 13.9564 17.0913C13.2557 16.3022 12.1364 16.1528 11.2809 16.6817C10.7844 16.9886 10.5479 17.4996 10.257 17.986C9.58221 19.1191 8.70315 19.9933 7.53438 20.4783C4.25464 21.8402 0.704993 19.5672 0.146607 15.7473C-0.331302 12.4686 1.78338 9.29398 4.74617 8.83225C5.02103 8.78978 5.29465 8.78293 5.5757 8.75552Z" fill="#3774AB"/>
<path fill-rule="evenodd" clip-rule="evenodd" d="M65.6908 22.0486C65.6908 22.1362 65.6908 22.2212 65.6908 22.3061C65.6908 24.5148 65.6883 26.722 65.6957 28.932C65.6957 29.1321 65.6573 29.202 65.4518 29.1992C64.3685 29.1869 63.2826 29.1883 62.1993 29.1992C62.0049 29.2006 61.9678 29.1362 61.9678 28.943C61.9715 22.5665 61.9715 16.1899 61.9678 9.81202C61.9678 9.62705 61.9913 9.55306 62.1931 9.55443C63.2356 9.56813 64.2781 9.56539 65.3206 9.55717C65.4889 9.5558 65.5546 9.59006 65.5447 9.78598C65.5286 10.0929 65.5409 10.4025 65.5409 10.7108C65.5682 10.7149 65.5905 10.7259 65.5967 10.719C66.4955 9.7942 67.6024 9.37084 68.8207 9.27082C70.8227 9.10777 72.5808 9.70515 73.9799 11.289C74.8812 12.3097 75.369 13.5497 75.5684 14.9198C75.8284 16.7201 75.6575 18.4657 74.8057 20.0728C73.5428 22.4596 71.5866 23.5434 69.0262 23.4118C67.8339 23.3502 66.7667 22.9213 65.8381 22.1198C65.8121 22.0979 65.7848 22.0773 65.7564 22.0581C65.7452 22.0513 65.7267 22.054 65.6908 22.0486ZM68.7551 19.7892C70.5813 19.7961 71.9333 18.3451 71.9457 16.3653C71.958 14.3704 70.6172 12.8879 68.786 12.8756C66.9648 12.8646 65.5917 14.3498 65.5917 16.3324C65.5905 18.3122 66.9375 19.7824 68.7551 19.7892Z" fill="white"/>
<path fill-rule="evenodd" clip-rule="evenodd" d="M50.3196 10.7655C53.7665 7.66074 59.0161 9.43779 60.1688 14.0757C60.7507 16.4172 60.5352 18.6848 59.2067 20.7139C57.9105 22.6937 56.0657 23.5377 53.8148 23.4144C52.6052 23.3459 51.5243 22.9143 50.5846 22.0964C50.5598 22.0758 50.5326 22.058 50.4694 22.0114C50.4694 22.1347 50.4694 22.2265 50.4694 22.3183C50.4694 24.5187 50.467 26.7178 50.4744 28.9182C50.4756 29.1333 50.4335 29.2018 50.2193 29.1991C49.1608 29.1867 48.1009 29.1854 47.0411 29.2004C46.7997 29.2032 46.739 29.1374 46.7403 28.8798C46.7477 22.6883 46.7452 16.4967 46.7465 10.3051C46.7465 10.0681 46.6709 9.74743 46.7836 9.61179C46.9173 9.45423 47.2244 9.56521 47.4547 9.56384C48.3387 9.55699 49.2239 9.56658 50.1067 9.55561C50.2887 9.55424 50.332 9.61042 50.3233 9.79402C50.3097 10.1009 50.3196 10.4092 50.3196 10.7655ZM53.5511 19.7891C55.3822 19.7863 56.733 18.3107 56.7256 16.3186C56.7194 14.3456 55.36 12.8741 53.5437 12.8754C51.7162 12.8782 50.3642 14.3607 50.3704 16.3528C50.3778 18.3313 51.7286 19.7904 53.5511 19.7891Z" fill="white"/>
<path fill-rule="evenodd" clip-rule="evenodd" d="M90.7847 17.8298C89.3497 17.8298 87.9148 17.8339 86.481 17.8257C86.2606 17.8243 86.2334 17.8818 86.2966 18.097C86.6333 19.252 87.6275 20.0302 88.8025 20.1097C90.1706 20.2015 91.2007 19.5767 92.024 18.4847C92.1862 18.2682 92.284 18.2668 92.4821 18.4313C93.2361 19.0588 94.005 19.6685 94.7739 20.2768C94.9039 20.3782 94.9459 20.4357 94.8271 20.5974C93.7413 22.0813 92.3472 23.0157 90.594 23.3199C87.9321 23.7843 85.0139 22.7759 83.4898 20.2385C82.5996 18.756 82.3098 17.1324 82.5018 15.406C82.7283 13.3687 83.5938 11.6903 85.2095 10.564C87.3638 9.06372 89.689 8.74722 92.0773 9.89538C93.662 10.6572 94.5349 12.0931 95.0165 13.8235C95.3681 15.0827 95.3632 16.3774 95.357 17.6736C95.3558 17.8887 95.2146 17.8284 95.1131 17.8284C93.6695 17.8311 92.2271 17.8298 90.7847 17.8298ZM88.9263 14.6744C89.7434 14.6744 90.5606 14.6662 91.3765 14.6799C91.5845 14.684 91.6055 14.6155 91.5672 14.4278C91.3802 13.5043 90.8862 12.8713 90.0356 12.5685C89.7645 12.4726 89.4847 12.4329 89.2024 12.4082C87.7538 12.2753 86.6742 13.0426 86.2941 14.4593C86.2445 14.647 86.2817 14.6799 86.4526 14.6771C87.2771 14.6703 88.1029 14.6744 88.9263 14.6744Z" fill="white"/>
<path fill-rule="evenodd" clip-rule="evenodd" d="M80.9623 12.9181C80.9623 16.2968 80.9598 19.6756 80.9684 23.0556C80.9697 23.3023 80.9053 23.3571 80.6824 23.3543C79.6152 23.342 78.5467 23.3447 77.4795 23.353C77.3074 23.353 77.238 23.3283 77.2393 23.1146C77.2455 16.3037 77.2442 9.49283 77.2393 2.68195C77.2393 2.48328 77.2851 2.43122 77.4733 2.43259C78.5579 2.44218 79.6424 2.44492 80.7258 2.43122C80.9363 2.42848 80.966 2.50658 80.966 2.7025C80.961 6.10726 80.9623 9.51338 80.9623 12.9181Z" fill="white"/>
<path fill-rule="evenodd" clip-rule="evenodd" d="M34.2103 10.7394C34.37 10.5763 34.4889 10.4421 34.6213 10.3256C35.8594 9.23908 37.2536 9.00478 38.7752 9.47748C38.8631 9.50488 38.9101 9.54324 38.9089 9.65696C38.9039 10.8901 38.9064 12.1218 38.9064 13.3823C38.5969 13.3042 38.3047 13.2261 38.01 13.1576C37.4838 13.0316 36.9527 12.9946 36.4203 13.0946C35.2553 13.3111 34.4319 14.2373 34.2524 15.5143C34.2227 15.7253 34.209 15.9363 34.209 16.15C34.2103 18.3751 34.2066 20.6015 34.2152 22.8266C34.2165 23.0609 34.1632 23.1212 33.9416 23.1184C32.8657 23.1061 31.7898 23.1102 30.7139 23.1171C30.5455 23.1184 30.4873 23.0787 30.4873 22.8855C30.4923 18.5134 30.4923 14.1428 30.4873 9.77068C30.4873 9.58572 30.548 9.55694 30.7003 9.55694C31.8022 9.56379 32.9029 9.56379 34.0023 9.55694C34.1595 9.55694 34.2227 9.5912 34.214 9.77342C34.1991 10.0735 34.2103 10.3749 34.2103 10.7394Z" fill="white"/>
<path fill-rule="evenodd" clip-rule="evenodd" d="M44.3813 16.3501C44.3813 18.5135 44.3775 20.6783 44.385 22.8417C44.3862 23.0609 44.3342 23.1253 44.1237 23.1226C43.0478 23.1116 41.9719 23.113 40.896 23.1212C40.7214 23.1226 40.6533 23.0924 40.6533 22.8801C40.6607 18.5162 40.6595 14.1537 40.6546 9.78991C40.6546 9.60357 40.6991 9.55562 40.8737 9.55699C41.967 9.56658 43.0602 9.56658 44.1522 9.55699C44.3392 9.55425 44.3862 9.60494 44.385 9.80498C44.3788 11.9876 44.3813 14.1688 44.3813 16.3501Z" fill="white"/>
<path fill-rule="evenodd" clip-rule="evenodd" d="M42.5121 3.67798C43.4518 3.741 44.1266 4.23288 44.3606 4.97959C44.7209 6.13186 44.0028 7.33209 42.86 7.48691C42.2484 7.56912 41.6789 7.47184 41.2059 7.01422C40.6376 6.46617 40.4432 5.78111 40.6847 5.01522C40.9261 4.24658 41.461 3.79992 42.2311 3.70127C42.3462 3.68757 42.4626 3.68209 42.5121 3.67798Z" fill="white"/>
</g>
<defs>
<clipPath id="clip0_175_18341">
<rect width="96" height="29" fill="white"/>
</clipPath>
</defs>
</svg>
