<svg width="77" height="33" viewBox="0 0 77 33" fill="none" xmlns="http://www.w3.org/2000/svg">
<g clip-path="url(#clip0_175_18360)">
<path fill-rule="evenodd" clip-rule="evenodd" d="M27.3822 17.9763C27.3822 18.1011 27.272 18.2242 27.1617 18.2242H23.0031C23.1133 19.3795 23.8861 20.4522 24.9896 20.4522C25.7262 20.4522 26.2773 20.1217 26.7195 19.4622C26.7572 19.3795 26.8297 19.3374 26.9037 19.3374C27.0139 19.3374 27.1241 19.4216 27.1241 19.5853C27.1241 19.6274 27.1241 19.668 27.0878 19.7101C26.6832 20.5348 25.8364 20.9464 25.0273 20.9464C23.6281 20.9464 22.6348 19.5448 22.6348 18.0184C22.6348 16.4921 23.6281 15.0889 25.0273 15.0889C26.4252 15.0889 27.3822 16.45 27.3822 17.9763ZM26.9413 17.73C26.8674 16.5747 26.0569 15.502 24.9534 15.502C23.8485 15.502 23.077 16.5747 22.9654 17.73H26.9413Z" fill="white"/>
<path fill-rule="evenodd" clip-rule="evenodd" d="M32.4603 15.1714C32.5719 15.1714 32.6821 15.2961 32.6821 15.4193C32.6821 15.5424 32.6082 15.6672 32.4603 15.6672H31.3568V20.5752C31.3568 20.7 31.2829 20.8231 31.1364 20.8231C31.0262 20.8231 30.9146 20.7 30.9146 20.5752V15.6251H29.8488C29.7372 15.6251 29.627 15.5424 29.627 15.3772C29.627 15.254 29.7009 15.1308 29.8488 15.1308H30.9146V13.316C30.9146 13.1913 30.9885 13.0681 31.1364 13.0681C31.2466 13.0681 31.3568 13.1508 31.3568 13.316V15.1308H32.4603V15.1714Z" fill="white"/>
<path fill-rule="evenodd" clip-rule="evenodd" d="M39.3061 17.5647V20.5348C39.3061 20.658 39.1959 20.7812 39.0857 20.7812C38.9755 20.7812 38.8653 20.7001 38.8653 20.5348V17.5647C38.8653 16.5747 38.3505 15.5426 37.3558 15.5426C36.0682 15.5426 35.5158 16.7805 35.5897 18.1011C35.5897 18.1416 35.5897 18.2648 35.5897 18.3069V20.5348C35.5897 20.658 35.5158 20.7812 35.3679 20.7812C35.2591 20.7812 35.1475 20.7001 35.1475 20.5348V10.7171C35.1475 10.5924 35.2214 10.4692 35.3679 10.4692C35.4795 10.4692 35.5897 10.5924 35.5897 10.7171V16.2442C35.958 15.5426 36.583 15.0483 37.3558 15.0483C38.6072 15.0483 39.3061 16.2847 39.3061 17.5647Z" fill="white"/>
<path fill-rule="evenodd" clip-rule="evenodd" d="M46.7777 17.9764C46.7777 18.1012 46.6675 18.2243 46.5559 18.2243H42.3986C42.5074 19.3796 43.2803 20.4523 44.3851 20.4523C45.1217 20.4523 45.6728 20.1218 46.115 19.4623C46.1513 19.3796 46.2252 19.3375 46.2992 19.3375C46.4094 19.3375 46.5196 19.4217 46.5196 19.5854C46.5196 19.6275 46.5196 19.6681 46.4833 19.7102C46.0787 20.5349 45.2319 20.9465 44.4214 20.9465C43.0236 20.9465 42.0303 19.5449 42.0303 18.0185C42.0303 16.4922 43.0236 15.089 44.4214 15.089C45.783 15.0484 46.7777 16.4501 46.7777 17.9764ZM46.3354 17.7301C46.2615 16.5748 45.4524 15.5021 44.3489 15.5021C43.244 15.5021 42.4711 16.5748 42.3609 17.7301H46.3354Z" fill="white"/>
<path fill-rule="evenodd" clip-rule="evenodd" d="M51.9296 15.3772C51.9296 15.5425 51.8557 15.6251 51.7455 15.6251C50.5318 15.8325 49.9793 16.9457 49.9793 18.2662V20.4926C49.9793 20.6174 49.9054 20.7405 49.7589 20.7405C49.6473 20.7405 49.5371 20.6579 49.5371 20.4926V15.4193C49.5371 15.2961 49.611 15.1714 49.7589 15.1714C49.8677 15.1714 49.9793 15.254 49.9793 15.4193V16.4499C50.31 15.7904 51.0089 15.1714 51.7455 15.1714C51.7818 15.1714 51.9296 15.254 51.9296 15.3772Z" fill="white"/>
<path fill-rule="evenodd" clip-rule="evenodd" d="M58.7757 17.9764C58.7757 18.1012 58.6655 18.2243 58.5539 18.2243H54.3966C54.5054 19.3796 55.2783 20.4523 56.3832 20.4523C57.1198 20.4523 57.6708 20.1218 58.1131 19.4623C58.1493 19.3796 58.2233 19.3375 58.2972 19.3375C58.4074 19.3375 58.5176 19.4217 58.5176 19.5854C58.5176 19.6275 58.5176 19.6681 58.4814 19.7102C58.0768 20.5349 57.23 20.9465 56.4195 20.9465C55.0216 20.9465 54.0283 19.5449 54.0283 18.0185C54.0283 16.4922 55.0216 15.089 56.4195 15.089C57.7448 15.0484 58.7757 16.4501 58.7757 17.9764ZM58.3335 17.7301C58.2609 16.5748 57.4504 15.5021 56.3469 15.5021C55.242 15.5021 54.4692 16.5748 54.3589 17.7301H58.3335Z" fill="white"/>
<path fill-rule="evenodd" clip-rule="evenodd" d="M65.5096 15.4195V17.0285V20.5349C65.5096 20.6581 65.3993 20.7813 65.2891 20.7813C65.1789 20.7813 65.0687 20.7002 65.0687 20.5349V19.5449C64.7367 20.3291 64.1117 20.8639 63.3388 20.8639C62.0875 20.8639 61.4248 19.6681 61.4248 18.3896V15.3774C61.4248 15.2543 61.4987 15.1311 61.6452 15.1311C61.7568 15.1311 61.867 15.2543 61.867 15.3774V18.4301C61.867 19.4202 62.3818 20.4523 63.3751 20.4523C64.7744 20.4523 65.105 18.9665 65.105 17.3575V15.4601C65.105 15.3369 65.1789 15.2122 65.3254 15.2122C65.3993 15.2122 65.5096 15.2963 65.5096 15.4195Z" fill="white"/>
<path fill-rule="evenodd" clip-rule="evenodd" d="M76.0718 17.5227V20.5348C76.0718 20.658 75.963 20.7812 75.8528 20.7812C75.7412 20.7812 75.631 20.7001 75.631 20.5348V17.5227C75.631 16.5326 75.1162 15.5426 74.1229 15.5426C72.8716 15.5426 72.3931 17.069 72.3931 18.2243V20.5348C72.3931 20.658 72.2828 20.7812 72.1726 20.7812C72.061 20.7812 71.9508 20.7001 71.9508 20.5348V17.5227C71.9508 16.5326 71.436 15.5426 70.4428 15.5426C69.1537 15.5426 68.6389 16.6574 68.6752 18.1416C68.6752 18.1837 68.6752 18.2242 68.6752 18.2648V20.5348C68.6752 20.658 68.6013 20.7812 68.4548 20.7812C68.3446 20.7812 68.2344 20.7001 68.2344 20.5348V15.4194C68.2344 15.2963 68.3083 15.1715 68.4548 15.1715C68.565 15.1715 68.6752 15.2542 68.6752 15.4194V16.2847C69.0435 15.5847 69.6699 15.0889 70.4428 15.0889C71.2882 15.0889 71.9508 15.7079 72.2089 16.5747C72.5395 15.7079 73.2385 15.0889 74.0853 15.0889C75.3729 15.0484 76.0718 16.2442 76.0718 17.5227Z" fill="white"/>
<path fill-rule="evenodd" clip-rule="evenodd" d="M0.774414 19.0083L9.79071 33.2819V24.989L0.774414 19.0083Z" fill="#DDDDDD"/>
<path fill-rule="evenodd" clip-rule="evenodd" d="M0.774414 17.0691L9.79071 23.0919V12.49L0.774414 17.0691Z" fill="#393939"/>
<path fill-rule="evenodd" clip-rule="evenodd" d="M0.774414 17.069L9.79071 12.4899V0.280518L0.774414 17.069Z" fill="#DDDDDD"/>
<path fill-rule="evenodd" clip-rule="evenodd" d="M18.8436 19.0083L9.79102 33.2819V24.989L18.8436 19.0083Z" fill="#747474"/>
<path fill-rule="evenodd" clip-rule="evenodd" d="M18.8436 17.0691L9.79102 23.0919V12.49L18.8436 17.0691Z" fill="#151515"/>
<path fill-rule="evenodd" clip-rule="evenodd" d="M18.8436 17.069L9.79102 12.4899V0.280518L18.8436 17.069Z" fill="#747474"/>
</g>
<defs>
<clipPath id="clip0_175_18360">
<rect width="77" height="33" fill="white"/>
</clipPath>
</defs>
</svg>
