<svg width="31" height="33" viewBox="0 0 31 33" fill="none" xmlns="http://www.w3.org/2000/svg">
<g clip-path="url(#clip0_175_18385)">
<path fill-rule="evenodd" clip-rule="evenodd" d="M15.3286 0.273193C23.4401 0.273193 30.0167 7.57964 30.0167 16.5932C30.0167 25.6068 23.4401 32.9132 15.3286 32.9132C7.2172 32.9132 0.640625 25.6083 0.640625 16.5932C0.640625 7.5781 7.2172 0.273193 15.3286 0.273193Z" fill="#53AE94"/>
<path fill-rule="evenodd" clip-rule="evenodd" d="M17.141 14.419V11.9902H22.1383V8.29224H8.53276V11.9902H13.5301V14.4174C9.4681 14.6241 6.41504 15.5185 6.41504 16.5887C6.41504 17.6589 9.46949 18.5533 13.5301 18.7615V26.5383H17.1424V18.76C21.196 18.5533 24.2435 17.6605 24.2435 16.5903C24.2435 15.52 21.196 14.6272 17.1424 14.419H17.141ZM17.1424 18.1C17.0411 18.1077 16.5165 18.1416 15.3508 18.1416C14.4182 18.1416 13.7618 18.1123 13.5315 18.1V18.103C9.94272 17.9257 7.26573 17.2318 7.26573 16.4006C7.26573 15.5709 9.9441 14.877 13.5315 14.6996V17.4106C13.766 17.4292 14.4377 17.4723 15.3661 17.4723C16.4804 17.4723 17.0397 17.4214 17.1424 17.4106V14.6996C20.7242 14.877 23.3956 15.5725 23.3956 16.4006C23.3956 17.2271 20.7228 17.9226 17.1424 18.1Z" fill="white"/>
</g>
<defs>
<clipPath id="clip0_175_18385">
<rect width="31" height="33" fill="white"/>
</clipPath>
</defs>
</svg>
