<svg width="98" height="29" viewBox="0 0 98 29" fill="none" xmlns="http://www.w3.org/2000/svg">
<path d="M34.8113 6.1307C34.4625 6.1307 34.1472 6.05237 33.8653 5.89566C33.5882 5.7342 33.366 5.51812 33.1987 5.24743C33.0363 4.97199 32.9551 4.66568 32.9551 4.32851C32.9551 3.99133 33.0363 3.68978 33.1987 3.42383C33.3612 3.15315 33.5834 2.93944 33.8653 2.78273C34.1472 2.62126 34.4601 2.54053 34.8041 2.54053C35.1577 2.54053 35.4731 2.62126 35.7502 2.78273C36.0321 2.93944 36.2543 3.15315 36.4167 3.42383C36.5792 3.68978 36.6604 3.99133 36.6604 4.32851C36.6604 4.66568 36.5792 4.97199 36.4167 5.24743C36.2543 5.51812 36.0321 5.7342 35.7502 5.89566C35.4731 6.05237 35.1601 6.1307 34.8113 6.1307ZM34.8041 5.26167C34.9809 5.26167 35.1362 5.22368 35.27 5.1477C35.4086 5.06697 35.5137 4.95774 35.5853 4.82002C35.6618 4.67755 35.7 4.51609 35.7 4.33563C35.7 4.15517 35.6618 3.99608 35.5853 3.85836C35.5089 3.72064 35.4038 3.61379 35.27 3.53781C35.1362 3.45707 34.9809 3.41671 34.8041 3.41671C34.6322 3.41671 34.4792 3.45707 34.3454 3.53781C34.2117 3.61379 34.1066 3.72064 34.0301 3.85836C33.9537 3.99608 33.9154 4.15517 33.9154 4.33563C33.9154 4.51609 33.9537 4.67755 34.0301 4.82002C34.1066 4.95774 34.2117 5.06697 34.3454 5.1477C34.4792 5.22368 34.6322 5.26167 34.8041 5.26167Z" fill="white"/>
<path fill-rule="evenodd" clip-rule="evenodd" d="M40.6466 6.06001H39.7149V5.74744C39.6242 5.83661 39.5191 5.9123 39.3996 5.97452C39.1989 6.079 38.9743 6.13121 38.7259 6.13121C38.4058 6.13121 38.1191 6.05288 37.8659 5.89617C37.6126 5.73945 37.4119 5.52575 37.2638 5.25506C37.1205 4.98437 37.0488 4.68043 37.0488 4.34326C37.0488 4.00134 37.1205 3.69503 37.2638 3.42434C37.4119 3.15365 37.6102 2.93995 37.8587 2.78323C38.1119 2.62652 38.401 2.54816 38.7259 2.54816C38.9743 2.54816 39.1965 2.59802 39.3924 2.69775C39.5119 2.75714 39.617 2.83085 39.7078 2.91888V2.1944C39.7078 1.67902 40.1281 1.26123 40.6466 1.26123C40.6466 2.97797 40.6466 4.34327 40.6466 6.06001ZM39.3423 5.15533C39.2132 5.23131 39.0603 5.26931 38.8836 5.26931C38.7163 5.26931 38.5658 5.23131 38.432 5.15533C38.2982 5.07459 38.1931 4.96537 38.1167 4.82765C38.045 4.68518 38.0092 4.52135 38.0092 4.33613C38.0092 4.15568 38.045 3.99659 38.1167 3.85887C38.1931 3.72115 38.2959 3.61193 38.4249 3.53119C38.5586 3.45046 38.7139 3.41009 38.8907 3.41009C39.0628 3.41009 39.2132 3.45046 39.3423 3.53119C39.476 3.60718 39.5788 3.7164 39.6504 3.85887C39.7269 3.99659 39.7651 4.15568 39.7651 4.33613C39.7651 4.52135 39.7269 4.68518 39.6504 4.82765C39.5788 4.96537 39.476 5.07459 39.3423 5.15533Z" fill="white"/>
<path fill-rule="evenodd" clip-rule="evenodd" d="M42.0735 5.89634C42.3268 6.05306 42.6111 6.13144 42.9264 6.13144C43.1749 6.13144 43.397 6.08155 43.5929 5.98183C43.7232 5.91238 43.8355 5.82719 43.9298 5.72626V6.06018H44.8615V2.61957H43.9298V2.95032C43.8355 2.84836 43.7232 2.76423 43.5929 2.69793C43.397 2.59821 43.1749 2.54834 42.9264 2.54834C42.6111 2.54834 42.3268 2.6267 42.0735 2.78342C41.8203 2.94013 41.622 3.15383 41.4787 3.42452C41.3353 3.69521 41.2637 4.00152 41.2637 4.34344C41.2637 4.68062 41.3353 4.98455 41.4787 5.25524C41.622 5.52593 41.8203 5.73963 42.0735 5.89634ZM43.7363 5.01305C43.5738 5.18401 43.3612 5.26949 43.0985 5.26949C42.9264 5.26949 42.7735 5.2315 42.6398 5.15551C42.5107 5.07478 42.408 4.96555 42.3316 4.82784C42.2599 4.68537 42.2241 4.52153 42.2241 4.33632C42.2241 4.15586 42.2599 3.99677 42.3316 3.85905C42.408 3.71658 42.5107 3.60736 42.6398 3.53137C42.7735 3.45064 42.9264 3.41027 43.0985 3.41027C43.2752 3.41027 43.4281 3.45064 43.5571 3.53137C43.6909 3.60736 43.7936 3.71658 43.8653 3.85905C43.9418 3.99677 43.9799 4.15586 43.9799 4.33632C43.9799 4.61176 43.8988 4.83733 43.7363 5.01305Z" fill="white"/>
<path d="M31.4895 5.12702C31.4895 5.64239 31.9098 6.06018 32.4284 6.06018V3.88042C32.4284 3.64772 32.371 3.43164 32.2563 3.23219C32.1417 3.02799 31.984 2.86415 31.7833 2.74067C31.5827 2.61245 31.3557 2.54834 31.1025 2.54834C30.8397 2.54834 30.6032 2.60533 30.3929 2.7193C30.2826 2.78053 30.1846 2.85479 30.099 2.94206V2.61958H29.1602V5.12702C29.1602 5.6424 29.5805 6.06019 30.099 6.06019V4.08697C30.099 3.94925 30.1277 3.82818 30.1851 3.72371C30.2472 3.61923 30.3308 3.5385 30.4359 3.48151C30.5411 3.42452 30.6605 3.39603 30.7943 3.39603C30.9997 3.39603 31.167 3.46014 31.2959 3.58836C31.425 3.71658 31.4895 3.88279 31.4895 4.087V5.12702Z" fill="white"/>
<path fill-rule="evenodd" clip-rule="evenodd" d="M9.04429 2.53478H7.06548C7.03709 2.53478 7.00785 2.53476 6.97795 2.53473C6.57873 2.53435 6.05294 2.53384 5.5934 2.59744C5.02356 2.6763 4.18122 2.89482 3.46184 3.63527C2.74247 4.37572 2.53017 5.24275 2.45356 5.82928C2.39177 6.30233 2.39227 6.8429 2.39264 7.25383C2.39267 7.28463 2.39269 7.31526 2.39269 7.34455V9.40608H5.0205V7.34455C5.0205 6.35228 5.0205 5.85612 5.31999 5.54786C5.61947 5.23961 6.10149 5.23961 7.06548 5.23961H9.04429V2.53478ZM23.1698 9.40608V7.34455C23.1698 6.35228 23.1698 5.85612 22.8703 5.54786C22.5709 5.23961 22.0888 5.23961 21.1248 5.23961H19.1187V2.53478H21.1248C21.1532 2.53478 21.1824 2.53476 21.2123 2.53473C21.6116 2.53435 22.1373 2.53384 22.5969 2.59744C23.1668 2.6763 24.0091 2.89482 24.7284 3.63527C25.4478 4.37572 25.6601 5.24275 25.7367 5.82928C25.7985 6.30233 25.798 6.8429 25.7976 7.25383V7.30171V7.30887V7.34455V9.40608H23.1698ZM19.1187 23.6576H21.1248C22.0888 23.6576 22.5709 23.6576 22.8703 23.3494C23.1698 23.0411 23.1698 22.545 23.1698 21.5528V19.4805H25.7976V21.5528V21.5969V21.6434C25.798 22.0543 25.7985 22.5949 25.7367 23.0679C25.6601 23.6545 25.4478 24.5215 24.7284 25.262C24.0091 26.0024 23.1668 26.221 22.5969 26.2998C22.1384 26.3633 21.6144 26.3629 21.2154 26.3625H21.2129C21.1828 26.3625 21.1534 26.3625 21.1248 26.3625H19.1187V23.6576ZM5.0205 19.4805V21.5528C5.0205 22.545 5.0205 23.0411 5.31999 23.3494C5.61947 23.6576 6.10149 23.6576 7.06548 23.6576H9.04429V26.3625H7.06548H7.02941C7.01233 26.3625 6.99497 26.3625 6.97733 26.3625H6.97481C6.57593 26.3629 6.05199 26.3633 5.5934 26.2998C5.02356 26.221 4.18122 26.0024 3.46184 25.262C2.74247 24.5215 2.53017 23.6545 2.45356 23.0679C2.39177 22.5949 2.39227 22.0543 2.39264 21.6434C2.39267 21.6126 2.39269 21.582 2.39269 21.5528V19.4805H5.0205Z" fill="white"/>
<path d="M20.7539 10.5695C20.7539 12.1991 19.4562 13.5202 17.8554 13.5202C16.2547 13.5202 14.957 12.1991 14.957 10.5695C14.957 8.93975 16.2547 7.61865 17.8554 7.61865C19.4562 7.61865 20.7539 8.93975 20.7539 10.5695Z" fill="white"/>
<path d="M17.8554 15.5854C16.2547 15.5854 14.957 16.9066 14.957 18.5362V21.1919H20.7539V18.5362C20.7539 16.9066 19.4562 15.5854 17.8554 15.5854Z" fill="white"/>
<path opacity="0.4" d="M7.4375 18.4746C7.4375 16.9265 8.67028 15.6714 10.191 15.6714H12.9445V21.2778H10.191C8.67028 21.2778 7.4375 20.0228 7.4375 18.4746Z" fill="white"/>
<path opacity="0.4" d="M7.4375 7.70459H10.6258C11.9064 7.70459 12.9445 8.76142 12.9445 10.0652V13.311H7.4375V7.70459Z" fill="white"/>
<path d="M92.8071 20.4341C93.4858 20.4341 93.9949 20.6222 94.3342 20.9986C94.6741 21.375 94.8438 21.9174 94.8438 22.6259V26.4116H92.6408V22.8915C92.6408 22.6406 92.5741 22.4413 92.4414 22.2938C92.316 22.1388 92.1351 22.0613 91.8993 22.0613C91.6261 22.0613 91.4049 22.1499 91.2352 22.327C91.0649 22.5041 90.9804 22.7218 90.9804 22.9801V26.4116H88.7773V20.5669H90.5817L90.7256 21.4525C90.9546 21.1425 91.2537 20.8953 91.6221 20.7108C91.999 20.5263 92.3938 20.4341 92.8071 20.4341Z" fill="white"/>
<path d="M84.6368 20.4341C85.6627 20.4341 86.4674 20.6961 87.0504 21.22C87.6406 21.7366 87.9358 22.493 87.9358 23.4893C87.9358 24.4856 87.6406 25.2457 87.0504 25.7697C86.4674 26.2862 85.6627 26.5445 84.6368 26.5445C83.6114 26.5445 82.8067 26.2862 82.2238 25.7697C81.6408 25.2531 81.3496 24.4929 81.3496 23.4893C81.3496 22.4856 81.6408 21.7255 82.2238 21.209C82.8067 20.6924 83.6114 20.4341 84.6368 20.4341ZM84.6368 21.9284C83.9138 21.9284 83.5521 22.3454 83.5521 23.1793V23.8103C83.5521 24.6368 83.9138 25.0501 84.6368 25.0501C85.3676 25.0501 85.7327 24.6368 85.7327 23.8103V23.1793C85.7327 22.3454 85.3676 21.9284 84.6368 21.9284Z" fill="white"/>
<path d="M78.2285 19.8806V18.3862H80.4316V19.8806H78.2285ZM78.2285 26.4117V20.567H80.4316V26.4117H78.2285Z" fill="white"/>
<path d="M77.3495 20.5666V22.0609H76.1096V24.286C76.1096 24.5517 76.1539 24.7472 76.2424 24.8726C76.3308 24.9907 76.4933 25.0498 76.7296 25.0498H77.3495V26.3449C77.1725 26.404 76.9435 26.4519 76.6629 26.4888C76.3829 26.5257 76.1393 26.5442 75.9327 26.5442C75.2831 26.5442 74.7813 26.4261 74.4269 26.1899C74.0802 25.9538 73.9066 25.5516 73.9066 24.9834V22.0609H73.0879V20.5666H73.9951L74.4711 18.7954H76.1096V20.5666H77.3495Z" fill="white"/>
<path d="M69.3637 20.4341C70.2569 20.4341 70.9838 20.5853 71.5443 20.8879C72.1055 21.1831 72.3855 21.6665 72.3855 22.338V24.6184C72.3855 24.7438 72.4151 24.8472 72.4745 24.9283C72.5333 25.0095 72.6218 25.0501 72.7399 25.0501H73.1387V26.3231C73.1163 26.3379 73.0575 26.3637 72.9611 26.4006C72.8727 26.4301 72.7439 26.4596 72.5742 26.4891C72.4039 26.526 72.2085 26.5445 71.9873 26.5445C71.5595 26.5445 71.205 26.4817 70.9244 26.3563C70.6517 26.2235 70.4635 26.0427 70.3599 25.8139C70.0794 26.0353 69.7658 26.2124 69.4191 26.3452C69.0725 26.4781 68.6665 26.5445 68.2011 26.5445C66.8286 26.5445 66.1426 25.9984 66.1426 24.9062C66.1426 24.338 66.2938 23.9062 66.5962 23.6111C66.9064 23.3085 67.3488 23.1019 67.9245 22.9912C68.5002 22.8804 69.2528 22.8251 70.183 22.8251V22.5373C70.183 22.3085 70.1018 22.1351 69.9394 22.017C69.7843 21.8989 69.5815 21.8399 69.3307 21.8399C69.1016 21.8399 68.9023 21.8805 68.7326 21.9616C68.5702 22.0428 68.489 22.172 68.489 22.3491V22.3934H66.3195C66.3123 22.3565 66.3083 22.3048 66.3083 22.2384C66.3083 21.685 66.5704 21.2459 67.0946 20.9211C67.626 20.5964 68.382 20.4341 69.3637 20.4341ZM70.183 23.8656C69.5558 23.8656 69.0904 23.9358 68.788 24.076C68.4929 24.2088 68.3451 24.3896 68.3451 24.6184C68.3451 24.9874 68.5965 25.1719 69.0983 25.1719C69.3861 25.1719 69.637 25.0944 69.8509 24.9394C70.0721 24.7844 70.183 24.5925 70.183 24.3638V23.8656Z" fill="white"/>
<path d="M62.3346 20.4341C63.2939 20.4341 64.069 20.6407 64.6592 21.0539C65.2573 21.4598 65.5558 22.0835 65.5558 22.9247H63.4194C63.4194 22.2606 63.0582 21.9284 62.3346 21.9284C61.6117 21.9284 61.2499 22.3454 61.2499 23.1793V23.8103C61.2499 24.6368 61.6262 25.0501 62.3789 25.0501C63.1315 25.0501 63.5078 24.7106 63.5078 24.0317H65.5558C65.5558 24.8804 65.2573 25.5113 64.6592 25.9246C64.069 26.3379 63.2939 26.5445 62.3346 26.5445C61.3087 26.5445 60.5046 26.2862 59.9216 25.7697C59.3386 25.2531 59.0469 24.4929 59.0469 23.4893C59.0469 22.4856 59.3386 21.7255 59.9216 21.209C60.5046 20.6924 61.3087 20.4341 62.3346 20.4341Z" fill="white"/>
<path d="M54.4653 18.2534C54.6129 18.2534 54.7938 18.2756 55.0077 18.3198C55.2218 18.3567 55.3952 18.401 55.528 18.4527V19.7478H55.1295C54.8934 19.7478 54.7347 19.7921 54.6535 19.8807C54.5723 19.9693 54.5317 20.1205 54.5317 20.3345V20.567H55.528V22.0614H54.5317V26.4117H52.3289V22.0614H51.5762V20.567H52.3289V20.3235C52.3289 19.5707 52.5134 19.0394 52.8824 18.7294C53.2514 18.4121 53.779 18.2534 54.4653 18.2534ZM55.9929 19.8807V18.3862H58.1956V19.8807H55.9929ZM55.9929 26.4117V20.567H58.1956V26.4117H55.9929Z" fill="white"/>
<path d="M48.7637 19.8806V18.3862H50.9665V19.8806H48.7637ZM48.7637 26.4117V20.567H50.9665V26.4117H48.7637Z" fill="white"/>
<path d="M47.5436 20.4233C47.7133 20.4233 47.8646 20.4455 47.9974 20.4898C48.1303 20.5267 48.1967 20.5488 48.1967 20.5562V22.4048H47.4882C47.0307 22.4048 46.6986 22.5229 46.492 22.759C46.2927 22.9952 46.1931 23.3457 46.1931 23.8107V26.412H43.9902V20.5673H45.7946L45.9385 21.4528C46.0713 21.1134 46.2816 20.8587 46.5695 20.689C46.8573 20.5119 47.182 20.4233 47.5436 20.4233Z" fill="white"/>
<path d="M39.8501 20.4341C40.9202 20.4341 41.7357 20.685 42.2966 21.1868C42.8648 21.6887 43.1489 22.4561 43.1489 23.4893V23.8656H38.7653C38.7653 24.2863 38.8576 24.6036 39.0421 24.8177C39.234 25.0316 39.5329 25.1386 39.9387 25.1386C40.3077 25.1386 40.5771 25.0612 40.7468 24.9062C40.9239 24.7512 41.0125 24.5446 41.0125 24.2863H43.1489C43.1489 24.9947 42.8795 25.5482 42.3408 25.9467C41.8021 26.3452 41.0162 26.5445 39.983 26.5445C38.8982 26.5445 38.0569 26.2936 37.4591 25.7918C36.8614 25.2826 36.5625 24.5151 36.5625 23.4893C36.5625 22.4856 36.854 21.7255 37.437 21.209C38.02 20.6924 38.8244 20.4341 39.8501 20.4341ZM39.9387 21.8399C39.245 21.8399 38.8576 22.1683 38.7764 22.8251H40.9239C40.9239 22.5225 40.8354 22.2827 40.6582 22.1056C40.4885 21.9284 40.2486 21.8399 39.9387 21.8399Z" fill="white"/>
<path d="M31.2205 26.4113L28.5195 18.7954H31.1319L32.6596 23.8874H32.7038L34.2425 18.7954H36.7442L34.0543 26.4113H31.2205Z" fill="white"/>
<path d="M71.4405 15.9982C71.1376 16.8174 70.7652 17.4372 70.3222 17.8579C69.8871 18.2859 69.2745 18.5 68.4849 18.5C68.0049 18.5 67.581 18.4335 67.212 18.3007V16.9834H68.0973C68.6506 16.9834 68.9793 16.7141 69.0824 16.1753L66.7578 10.3306H69.1266L70.2449 14.216H70.3222L71.3521 10.3306H73.5215L71.4405 15.9982Z" fill="white"/>
<path d="M66.621 10.3302V11.8246H65.3811V14.0496C65.3811 14.3153 65.4259 14.5108 65.5144 14.6363C65.6029 14.7544 65.7653 14.8134 66.0011 14.8134H66.621V16.1086C66.444 16.1676 66.2155 16.2156 65.935 16.2524C65.6544 16.2893 65.4108 16.3078 65.2042 16.3078C64.5551 16.3078 64.0528 16.1897 63.6989 15.9535C63.3523 15.7174 63.1787 15.3152 63.1787 14.747V11.8246H62.3594V10.3302H63.2671L63.7431 8.55908H65.3811V10.3302H66.621Z" fill="white"/>
<path d="M59.3359 9.64426V8.1499H61.539V9.64426H59.3359ZM59.3359 16.1754V10.3306H61.539V16.1754H59.3359Z" fill="white"/>
<path d="M58.459 10.3302V11.8246H57.2191V14.0496C57.2191 14.3153 57.2634 14.5108 57.3519 14.6363C57.4409 14.7544 57.6033 14.8134 57.8391 14.8134H58.459V16.1086C58.282 16.1676 58.053 16.2156 57.773 16.2524C57.4924 16.2893 57.2488 16.3078 57.0422 16.3078C56.3926 16.3078 55.8909 16.1897 55.5367 15.9535C55.1899 15.7174 55.0164 15.3152 55.0164 14.747V11.8246H54.1973V10.3302H55.105L55.581 8.55908H57.2191V10.3302H58.459Z" fill="white"/>
<path d="M51.4297 10.1978C52.1086 10.1978 52.6179 10.3859 52.9573 10.7623C53.2968 11.1387 53.4665 11.6811 53.4665 12.3895V16.1754H51.2637V12.6552C51.2637 12.4043 51.1972 12.2051 51.0644 12.0575C50.939 11.9024 50.7582 11.825 50.522 11.825C50.2489 11.825 50.0276 11.9135 49.8578 12.0907C49.6881 12.2678 49.6032 12.4855 49.6032 12.7438V16.1754H47.4004V10.3306H49.2047L49.3486 11.2162C49.5774 10.9062 49.8763 10.659 50.2452 10.4745C50.6216 10.29 51.0164 10.1978 51.4297 10.1978Z" fill="white"/>
<path d="M43.2604 10.1978C44.3304 10.1978 45.1459 10.4487 45.7067 10.9505C46.275 11.4523 46.5591 12.2198 46.5591 13.2529V13.6293H42.1755C42.1755 14.05 42.2678 14.3673 42.4523 14.5813C42.6441 14.7954 42.943 14.9024 43.3489 14.9024C43.7179 14.9024 43.9872 14.8249 44.157 14.6699C44.3341 14.5149 44.4226 14.3083 44.4226 14.05H46.5591C46.5591 14.7584 46.2897 15.3119 45.751 15.7105C45.2123 16.1089 44.4263 16.3082 43.3932 16.3082C42.3084 16.3082 41.4671 16.0573 40.8693 15.5554C40.2716 15.0462 39.9727 14.2788 39.9727 13.2529C39.9727 12.2493 40.2642 11.4892 40.8472 10.9726C41.4302 10.456 42.2345 10.1978 43.2604 10.1978ZM43.3489 11.6036C42.6552 11.6036 42.2678 11.932 42.1866 12.5888H44.3341C44.3341 12.2862 44.2456 12.0464 44.0684 11.8692C43.8987 11.6922 43.6589 11.6036 43.3489 11.6036Z" fill="white"/>
<path d="M37.3269 16.1754L37.1388 15.3451C36.7108 15.9872 36.0909 16.3082 35.2791 16.3082C34.4895 16.3082 33.8807 16.0499 33.4526 15.5333C33.0246 15.0167 32.8105 14.253 32.8105 13.2419C32.8105 12.2383 33.0246 11.4818 33.4526 10.9726C33.8807 10.456 34.4895 10.1978 35.2791 10.1978C35.9506 10.1978 36.4967 10.4228 36.9174 10.873V8.1499H39.1202V16.1754H37.3269ZM35.9654 11.825C35.3308 11.825 35.0134 12.2051 35.0134 12.9652V13.5519C35.0134 14.3046 35.3308 14.681 35.9654 14.681C36.2901 14.681 36.5337 14.5666 36.696 14.3378C36.8583 14.109 36.9395 13.8102 36.9395 13.4412V13.0759C36.9395 12.7069 36.8583 12.408 36.696 12.1792C36.5337 11.9431 36.2901 11.825 35.9654 11.825Z" fill="white"/>
<path d="M29.2598 16.175V8.55908H31.7061V16.175H29.2598Z" fill="white"/>
</svg>
