<svg width="97" height="23" viewBox="0 0 97 23" fill="none" xmlns="http://www.w3.org/2000/svg">
<g clip-path="url(#clip0_175_18350)">
<path fill-rule="evenodd" clip-rule="evenodd" d="M20.5071 14.221C19.1679 20.1134 13.7258 23.7004 8.35197 22.2307C2.98004 20.761 -0.289751 14.7927 1.05039 8.90034C2.38958 3.00693 7.83165 -0.58005 13.2036 0.889664C18.5774 2.35938 21.8472 8.32763 20.5071 14.221Z" fill="#F7931A"/>
<path fill-rule="evenodd" clip-rule="evenodd" d="M15.2004 9.99257C15.4004 8.53014 14.3844 7.74227 12.995 7.21737L13.4461 5.23523L12.3448 4.93484L11.906 6.86397C11.6169 6.78498 11.3203 6.71118 11.0246 6.63738L11.4672 4.6937L10.3668 4.39331L9.9157 6.37545C9.67592 6.31517 9.44182 6.25696 9.21341 6.1946L9.21436 6.18836L7.69699 5.77156L7.40413 7.06146C7.40413 7.06146 8.22015 7.26622 8.20309 7.27973C8.64854 7.40134 8.73005 7.7246 8.71583 7.98133L8.20309 10.24C8.23342 10.2483 8.27323 10.2607 8.31682 10.2805C8.27986 10.2701 8.241 10.2587 8.2012 10.2483L7.4809 13.4133C7.42687 13.5609 7.2885 13.7843 6.97669 13.6991C6.98711 13.7168 6.17677 13.4798 6.17677 13.4798L5.63086 14.8622L7.06293 15.253C7.32925 15.3268 7.58989 15.4037 7.84768 15.4754L7.39181 17.4805L8.49121 17.7819L8.94235 15.7977C9.24279 15.887 9.53375 15.9692 9.81903 16.0471L9.36979 18.022L10.4701 18.3234L10.9251 16.3215C12.8016 16.7103 14.2129 16.5533 14.8071 14.6917C15.2857 13.1929 14.7834 12.3292 13.7959 11.7648C14.5152 11.5829 15.0564 11.0653 15.2004 9.99257ZM12.686 13.8592C12.3458 15.358 10.0455 14.5483 9.29966 14.3456L9.90338 11.6889C10.6502 11.8926 13.0424 12.297 12.686 13.8592ZM13.0272 9.97179C12.7163 11.3355 10.8019 10.6422 10.1801 10.4717L10.7279 8.0624C11.3497 8.23183 13.3504 8.54988 13.0272 9.97179Z" fill="white"/>
<path fill-rule="evenodd" clip-rule="evenodd" d="M30.142 7.21541C30.9552 7.21541 31.6584 7.37548 32.2489 7.68938C32.8422 8.0064 33.3322 8.43359 33.7245 8.96992C34.1122 9.51041 34.4003 10.1403 34.5861 10.8637C34.7718 11.5882 34.8638 12.3677 34.8638 13.2024C34.8638 14.484 34.6496 15.6938 34.2174 16.8361C33.7861 17.9784 33.1995 18.969 32.4536 19.8161C31.7077 20.6601 30.8282 21.3253 29.8131 21.818C28.8 22.3096 27.6977 22.556 26.5149 22.556C26.3614 22.556 26.0931 22.5518 25.7131 22.5424C25.333 22.5341 24.8961 22.4905 24.408 22.4188C23.9152 22.3439 23.3949 22.2317 22.8461 22.083C22.2964 21.9365 21.7751 21.7307 21.2842 21.4698L25.6761 1.23261L29.6093 0.563232L28.037 7.74551C28.3735 7.5792 28.7128 7.45032 29.0511 7.35677C29.3895 7.26426 29.7534 7.21541 30.142 7.21541ZM26.8428 19.1332C27.4352 19.1332 27.9934 18.9742 28.5175 18.6603C29.0435 18.3453 29.4975 17.9213 29.8776 17.3932C30.2576 16.8631 30.5581 16.2645 30.7779 15.5972C30.9978 14.9288 31.1087 14.2324 31.1087 13.5069C31.1087 12.6172 30.9732 11.9218 30.7021 11.4198C30.432 10.9198 29.9316 10.6683 29.2046 10.6683C28.9658 10.6683 28.6597 10.7182 28.2787 10.8065C27.8967 10.9022 27.5555 11.0976 27.2494 11.3928L25.5747 19.0199C25.6761 19.0397 25.7652 19.0573 25.841 19.076C25.9159 19.0947 25.9984 19.1083 26.0799 19.1176C26.1671 19.128 26.2666 19.1332 26.386 19.1332C26.5073 19.1332 26.6571 19.1332 26.8428 19.1332Z" fill="white"/>
<path fill-rule="evenodd" clip-rule="evenodd" d="M38.9434 22.1682H35.1855L38.3587 7.52607H42.1412L38.9434 22.1682ZM40.7707 5.74246C40.2466 5.74246 39.7718 5.57096 39.3491 5.22795C38.9245 4.88703 38.7141 4.36213 38.7141 3.6543C38.7141 3.26556 38.7861 2.90073 38.9283 2.55565C39.0733 2.21161 39.2628 1.91642 39.5007 1.66488C39.7386 1.41542 40.0125 1.21586 40.3253 1.06514C40.639 0.917548 40.9735 0.84375 41.329 0.84375C41.8531 0.84375 42.326 1.01525 42.7497 1.35825C43.1714 1.70334 43.3837 2.2272 43.3837 2.93191C43.3837 3.32169 43.3126 3.68756 43.1676 4.0316C43.0245 4.37564 42.835 4.67187 42.598 4.92341C42.362 5.1739 42.0853 5.37139 41.7735 5.52002C41.4588 5.67074 41.1261 5.74246 40.7707 5.74246Z" fill="white"/>
<path fill-rule="evenodd" clip-rule="evenodd" d="M45.4339 3.87781L49.369 3.20947L48.4033 7.52507H52.617L51.8569 10.9208H47.6678L46.5523 16.043C46.449 16.4692 46.3912 16.8683 46.3741 17.2394C46.3561 17.6115 46.3987 17.9306 46.5002 18.1998C46.6016 18.47 46.7826 18.6779 47.0461 18.8244C47.3086 18.9752 47.683 19.05 48.1758 19.05C48.5805 19.05 48.9757 19.0074 49.3577 18.9232C49.7368 18.8411 50.1216 18.7267 50.5111 18.576L50.7907 21.7514C50.2836 21.9551 49.733 22.1308 49.1406 22.2784C48.5473 22.4281 47.845 22.5008 47.0337 22.5008C45.8661 22.5008 44.9619 22.3106 44.3165 21.9323C43.673 21.5508 43.2171 21.0301 42.9451 20.37C42.6769 19.7142 42.5565 18.9564 42.5906 18.1031C42.6247 17.2487 42.7423 16.3496 42.9451 15.4027L45.4339 3.87781Z" fill="white"/>
<path fill-rule="evenodd" clip-rule="evenodd" d="M52.4521 16.3217C52.4521 15.0609 52.6389 13.8708 53.0104 12.7576C53.3819 11.6433 53.9164 10.6684 54.6112 9.83269C55.3021 9.00013 56.1457 8.34115 57.138 7.85679C58.1246 7.37554 59.2306 7.13232 60.4484 7.13232C61.2114 7.13232 61.8928 7.21236 62.4918 7.37035C63.0936 7.53042 63.6377 7.73622 64.1297 7.99607L62.834 11.2276C62.4956 11.0769 62.144 10.9438 61.781 10.8232C61.418 10.7016 60.9735 10.6413 60.4484 10.6413C59.1945 10.6413 58.2033 11.1164 57.4659 12.0612C56.7305 13.006 56.3607 14.2793 56.3607 15.8758C56.3607 16.8227 56.5465 17.5877 56.9209 18.1729C57.2924 18.758 57.9796 19.0491 58.9757 19.0491C59.4676 19.0491 59.9424 18.993 60.3974 18.8828C60.8561 18.7716 61.2607 18.6312 61.6171 18.466L61.8976 21.7786C61.4227 21.9802 60.8986 22.1631 60.3233 22.3222C59.7471 22.477 59.062 22.5571 58.2668 22.5571C57.2167 22.5571 56.3286 22.3887 55.6017 22.0571C54.8738 21.7203 54.2728 21.2734 53.7999 20.7059C53.3241 20.1384 52.9819 19.4752 52.7706 18.7144C52.5602 17.9546 52.4521 17.1553 52.4521 16.3217Z" fill="white"/>
<path fill-rule="evenodd" clip-rule="evenodd" d="M69.1424 22.5571C68.2458 22.5571 67.4667 22.4074 66.8061 22.1112C66.1465 21.8139 65.6015 21.3981 65.1703 20.8576C64.7372 20.3203 64.414 19.6852 64.1931 18.9514C63.9704 18.2186 63.8643 17.4068 63.8643 16.5181C63.8643 15.4018 64.0273 14.2876 64.358 13.1754C64.686 12.0612 65.1741 11.0602 65.8185 10.1695C66.4583 9.27869 67.2487 8.55007 68.1775 7.98152C69.1063 7.41712 70.1745 7.13232 71.3753 7.13232C72.2548 7.13232 73.0301 7.28304 73.7002 7.58031C74.3664 7.87654 74.9152 8.29542 75.3493 8.83279C75.7796 9.37224 76.1056 10.0063 76.3245 10.7401C76.5463 11.4708 76.6553 12.2846 76.6553 13.1754C76.6553 14.2876 76.4942 15.4018 76.1738 16.5171C75.8544 17.6272 75.3796 18.6312 74.7522 19.523C74.1267 20.4128 73.3438 21.1414 72.4046 21.7068C71.4663 22.2733 70.3782 22.5571 69.1424 22.5571ZM71.0199 10.6424C70.4635 10.6424 69.9707 10.8191 69.549 11.1704C69.1263 11.5248 68.7708 11.9697 68.4837 12.5071C68.1946 13.0465 67.9804 13.6359 67.8344 14.2751C67.6904 14.9154 67.6203 15.5224 67.6203 16.0982C67.6203 17.0274 67.7577 17.7498 68.0259 18.2716C68.2979 18.7892 68.787 19.0501 69.4987 19.0501C70.0579 19.0501 70.547 18.8745 70.9716 18.52C71.3914 18.1687 71.7478 17.7228 72.0359 17.1844C72.324 16.647 72.5401 16.0566 72.6861 15.4164C72.8282 14.7771 72.9003 14.168 72.9003 13.5933C72.9003 12.6661 72.7647 11.9416 72.4937 11.4209C72.2217 10.9033 71.7307 10.6424 71.0199 10.6424Z" fill="white"/>
<path fill-rule="evenodd" clip-rule="evenodd" d="M80.749 22.1682H76.9883L80.1614 7.52607H83.9458L80.749 22.1682ZM82.5744 5.74246C82.0503 5.74246 81.5755 5.57096 81.1537 5.22795C80.731 4.88703 80.5187 4.36213 80.5187 3.6543C80.5187 3.26556 80.5907 2.90073 80.7348 2.55565C80.8779 2.21161 81.0684 1.91642 81.3063 1.66488C81.5423 1.41542 81.82 1.21586 82.1309 1.06514C82.4436 0.917548 82.7772 0.84375 83.1326 0.84375C83.6577 0.84375 84.1316 1.01525 84.5543 1.35825C84.977 1.70334 85.1912 2.2272 85.1912 2.93191C85.1912 3.32169 85.1154 3.68756 84.9732 4.0316C84.831 4.37564 84.6405 4.67187 84.4036 4.92341C84.1648 5.1739 83.8918 5.37139 83.579 5.52002C83.2644 5.67074 82.9317 5.74246 82.5744 5.74246Z" fill="white"/>
<path fill-rule="evenodd" clip-rule="evenodd" d="M86.6547 8.19254C86.939 8.10003 87.2574 7.9909 87.6043 7.87032C87.9521 7.75183 88.3407 7.63958 88.7739 7.53979C89.2032 7.43585 89.6875 7.3527 90.2201 7.28722C90.7528 7.2207 91.3584 7.18848 92.0332 7.18848C94.015 7.18848 95.3807 7.82147 96.1352 9.08331C96.8877 10.3462 97.0185 12.0726 96.5294 14.2616L94.8016 22.1673H91.0201L92.6948 14.4269C92.7971 13.9446 92.8767 13.4769 92.9364 13.0206C92.9962 12.5684 92.9924 12.1693 92.9222 11.8242C92.8559 11.4833 92.6986 11.2047 92.455 10.9885C92.2067 10.7755 91.8323 10.6684 91.3243 10.6684C90.8343 10.6684 90.3358 10.7256 89.8268 10.8378L87.3645 22.1673H83.5811L86.6547 8.19254Z" fill="white"/>
</g>
<defs>
<clipPath id="clip0_175_18350">
<rect width="97" height="22" fill="white" transform="translate(0 0.5)"/>
</clipPath>
</defs>
</svg>
