<svg width="98" height="19" viewBox="0 0 98 19" fill="none" xmlns="http://www.w3.org/2000/svg">
<g clip-path="url(#clip0_175_18327)">
<path fill-rule="evenodd" clip-rule="evenodd" d="M17.9637 6.0708H14.9598C14.7186 6.0708 14.459 6.13203 14.1993 6.25449C13.9397 6.3761 13.7355 6.51897 13.5684 6.70181C13.2348 7.13042 13.0861 7.74102 13.0684 8.55573V18.981H15.1824V15.4577H18.0199C18.5577 15.4577 19.0022 15.2341 19.392 14.8063C19.7811 14.3989 19.966 13.91 19.9853 13.3402V8.47324C19.966 6.8855 19.2988 6.09121 17.9637 6.0708ZM17.741 12.8716C17.6301 13.0145 17.4999 13.0748 17.3519 13.0748H15.8496C15.4043 13.0748 15.2001 12.8316 15.1824 12.3826V9.14592C15.1824 8.71816 15.3858 8.47324 15.7756 8.45368H17.4074C17.7225 8.47324 17.8712 8.65693 17.8897 9.02346L17.9082 12.4846C17.9082 12.6479 17.8519 12.7704 17.741 12.8716Z" fill="#008ACA"/>
<path fill-rule="evenodd" clip-rule="evenodd" d="M26.4943 6.0708H21.71V8.45368H25.9566C26.3456 8.43327 26.5498 8.61611 26.5313 8.96223H26.5498V9.18674H23.7493C22.3964 9.22671 21.7285 9.95977 21.71 11.4259V13.3402C21.7285 14.7451 22.4334 15.4373 23.8425 15.4577H26.717C27.2732 15.4577 27.737 15.2545 28.0891 14.8267C28.4227 14.3989 28.5899 13.8895 28.6084 13.2585V8.2904C28.5899 6.82427 27.8849 6.09121 26.4943 6.0708ZM26.5498 12.6071C26.5313 12.9133 26.3456 13.0748 25.975 13.0748H24.3618C24.1946 13.0748 24.0652 13.0349 23.9727 12.9328C23.861 12.8512 23.8055 12.75 23.8055 12.6071L23.824 11.9965C23.824 11.7516 23.861 11.5687 23.935 11.4871C24.0282 11.4259 24.1761 11.3851 24.3803 11.3851H25.975C26.3649 11.3851 26.5498 11.5687 26.5498 11.9353V12.6071Z" fill="#008ACA"/>
<path fill-rule="evenodd" clip-rule="evenodd" d="M35.1543 12.4846C35.1543 12.6275 35.0981 12.7704 34.9687 12.8716C34.8392 13.0145 34.6905 13.0748 34.5049 13.0748H33.0218C32.6505 13.0748 32.4655 12.8316 32.4655 12.3222V6.0708H30.3515V13.0553C30.3515 13.4414 30.407 13.7679 30.4994 14.012C30.5734 14.2977 30.7406 14.5622 30.9447 14.8063C31.1674 15.0308 31.39 15.2136 31.6119 15.2953C31.8161 15.3973 32.0942 15.4373 32.4463 15.4373H35.1359V16.0071C35.1359 16.15 35.0804 16.2928 34.9687 16.3949C34.857 16.5165 34.709 16.5777 34.5426 16.5981H30.333V18.981H35.2653C35.8778 18.9606 36.3601 18.7361 36.7121 18.2675C37.0642 17.7998 37.2306 17.1892 37.2499 16.4153V6.0708H35.1543V12.4846Z" fill="#008ACA"/>
<path fill-rule="evenodd" clip-rule="evenodd" d="M38.9003 8.18835V9.95977C38.9003 10.4896 39.1045 10.9573 39.512 11.3247C39.9196 11.732 40.3842 11.9353 40.9396 11.9557H42.7948C42.9243 11.9557 43.0167 12.0373 43.1099 12.2202C43.1469 12.3018 43.1654 12.363 43.1654 12.4234V12.6275C43.1469 12.9133 42.9797 13.0553 42.6277 13.0748H38.8818V15.4577H43.2764C43.6292 15.4577 43.9066 15.4169 44.1107 15.3361C44.3149 15.2545 44.519 15.0912 44.7047 14.8471C45.0938 14.3581 45.298 13.87 45.3164 13.381V11.6495C45.298 11.0806 45.1123 10.5916 44.7602 10.1834C44.4073 9.77693 43.9998 9.57283 43.499 9.55327H41.6446C41.1993 9.55327 40.9774 9.4104 40.9774 9.1051V8.88059C40.9774 8.5957 41.1993 8.45368 41.6261 8.45368H45.3164V6.0708H40.9581C39.6053 6.11162 38.9188 6.80386 38.9003 8.18835Z" fill="#008ACA"/>
<path fill-rule="evenodd" clip-rule="evenodd" d="M51.6204 6.0708H46.8368V8.45368H51.0827C51.4725 8.43327 51.6582 8.61611 51.6582 8.96223V9.18674H48.8577C47.504 9.22671 46.8184 9.95977 46.8184 11.4259V13.3402C46.8368 14.7451 47.541 15.4373 48.9509 15.4577H51.8439C52.4001 15.4577 52.8631 15.2545 53.216 14.8267C53.5496 14.3989 53.7168 13.8895 53.7345 13.2585V8.2904C53.7168 6.82427 53.0118 6.09121 51.6204 6.0708ZM51.6397 12.6071C51.6204 12.9133 51.4355 13.0748 51.065 13.0748H49.4517C49.303 13.0748 49.1728 13.0349 49.0803 12.9328C48.9686 12.8512 48.9132 12.75 48.9132 12.6071H48.9324V11.9965C48.9324 11.7516 48.9686 11.5687 49.0434 11.4871C49.1173 11.4259 49.2652 11.3851 49.4694 11.3851H51.065C51.4355 11.3851 51.6397 11.5687 51.6397 11.9353V12.6071Z" fill="#008ACA"/>
<path fill-rule="evenodd" clip-rule="evenodd" d="M56.09 3.17945C55.664 3.56639 55.4597 4.0962 55.4412 4.72636L55.4229 15.4578H57.5368V8.45375H59.0208V6.07088H57.5368V5.56233C57.5554 5.11415 57.778 4.88964 58.2225 4.86923H59.0385V2.56885H57.7033C57.0361 2.58926 56.4984 2.79251 56.09 3.17945Z" fill="#008ACA"/>
<path fill-rule="evenodd" clip-rule="evenodd" d="M67.1798 10.2251V8.35078C67.1613 6.84468 66.494 6.09121 65.1773 6.0708H62.3399C60.9863 6.11162 60.2998 6.82427 60.2812 8.26999L60.2998 13.0145C60.2998 13.483 60.3368 13.8496 60.43 14.1141C60.504 14.3785 60.6711 14.643 60.8937 14.8879C61.0971 15.0912 61.3198 15.2545 61.5794 15.3361C61.8206 15.4169 62.1357 15.4577 62.5625 15.4577H67.1613V13.0748H62.8406C62.7112 13.0748 62.6364 13.0145 62.5625 12.8716C62.4693 12.7704 62.4324 12.6071 62.4324 12.4234V12.2814L67.1798 10.2251ZM62.3769 10.0218V9.06428C62.3769 8.88059 62.4508 8.73857 62.5995 8.63652C62.7289 8.51491 62.8777 8.45368 63.0634 8.45368H64.5279C64.6766 8.45368 64.806 8.47324 64.8984 8.55573C64.9916 8.63652 65.0287 8.73857 65.0287 8.86018V8.92226L62.3769 10.0218Z" fill="#008ACA"/>
<path fill-rule="evenodd" clip-rule="evenodd" d="M70.9255 14.8267C70.7029 14.7654 70.4617 14.643 70.2398 14.4601C70.0357 14.256 69.887 13.9916 69.7945 13.7067C69.7013 13.4014 69.6643 13.0961 69.6643 12.7908V8.35073C69.6643 7.70016 69.8315 7.21117 70.1651 6.94668C70.4802 6.68135 70.9255 6.55889 71.4818 6.55889H74.6344V6.00952H71.4078C71.0557 6.00952 70.7591 6.03078 70.4987 6.11157C70.2214 6.19321 69.961 6.37605 69.7013 6.66094C69.4794 6.92627 69.3307 7.19076 69.2568 7.47565C69.1828 7.76054 69.1458 8.06669 69.1636 8.43322V12.8716C69.1636 13.2993 69.219 13.6659 69.3307 14.012C69.4425 14.3581 69.6274 14.6642 69.924 14.9491C70.2021 15.1932 70.4802 15.3361 70.7591 15.3761C71.0188 15.4169 71.3154 15.4577 71.6305 15.4577H74.6714V14.9083H71.6675C71.4078 14.9083 71.1667 14.8879 70.9255 14.8267Z" fill="#008ACA"/>
<path fill-rule="evenodd" clip-rule="evenodd" d="M83.387 12.8921V8.59579C83.387 7.88314 83.2021 7.25213 82.8123 6.70191C82.6829 6.51907 82.5527 6.3762 82.404 6.275C82.256 6.17295 82.1073 6.11172 81.9409 6.0709C81.6258 6.00967 81.2545 5.98926 80.8654 5.98926H76.5264V6.53948H81.1066C81.3847 6.53948 81.6443 6.5803 81.8855 6.64153C82.1266 6.72232 82.33 6.90601 82.4972 7.15008C82.7753 7.55743 82.9047 8.0056 82.9047 8.515V9.14602H78.7136C77.286 9.18684 76.5449 10.0219 76.5264 11.6301V13.0554C76.5264 13.7884 76.7305 14.3786 77.1566 14.8064C77.5649 15.2137 78.1019 15.4374 78.7514 15.4374H81.273C81.9409 15.4374 82.4787 15.1933 82.924 14.6839C83.1459 14.4195 83.2761 14.1346 83.35 13.8293C83.4063 13.5639 83.424 13.2586 83.424 12.8921H83.387ZM82.9047 13.035C82.9047 14.2562 82.367 14.8676 81.2922 14.888H78.7329C78.3061 14.888 77.8985 14.7248 77.5272 14.399C77.323 14.2162 77.1936 14.0121 77.1373 13.768C77.0818 13.5435 77.0641 13.2799 77.0641 13.0146V11.6097C77.0641 11.0186 77.212 10.5713 77.5087 10.2252C77.7868 9.89949 78.1951 9.73621 78.6959 9.7158H82.924L82.9047 13.035Z" fill="#008ACA"/>
<path fill-rule="evenodd" clip-rule="evenodd" d="M85.9281 8.67729V15.4577H86.4281V8.67729C86.4096 7.29196 86.9851 6.58015 88.153 6.55889H88.8017V6.00952H88.2455C86.6692 6.00952 85.9096 6.90586 85.9281 8.67729Z" fill="#008ACA"/>
<path fill-rule="evenodd" clip-rule="evenodd" d="M97.1651 2.95581H96.6643V6.00967H92.7143C91.0641 5.98926 90.2297 6.90601 90.2104 8.71826V12.7501C90.1927 13.137 90.2297 13.4831 90.3037 13.7884C90.3591 14.0937 90.5071 14.399 90.7305 14.7043C91.0271 15.0505 91.3422 15.2741 91.6573 15.3566C91.9724 15.417 92.3245 15.4578 92.7143 15.4578H94.5872C96.2752 15.4986 97.1466 14.6227 97.1836 12.8317L97.1651 2.95581ZM96.6828 12.7705C96.6643 13.524 96.4601 14.0742 96.0526 14.3786C95.645 14.7043 95.1065 14.8676 94.4578 14.8676H92.7143C92.4362 14.8676 92.1766 14.8268 91.9354 14.7656C91.6943 14.7043 91.4901 14.6227 91.3052 14.5011C90.9154 14.2366 90.7305 13.7476 90.7305 13.035V8.71826C90.7112 8.3917 90.7482 8.1068 90.8229 7.86273C90.8784 7.61866 91.0086 7.39415 91.2128 7.15008C91.4346 6.8856 91.6758 6.72232 91.9169 6.66109C92.1581 6.59986 92.4177 6.55904 92.6958 6.55904H96.6828V12.7705Z" fill="#008ACA"/>
<path fill-rule="evenodd" clip-rule="evenodd" d="M1.8884 5.54188C2.18501 3.95329 3.48241 2.75165 5.0225 2.75165C6.56104 2.75165 7.84072 3.95329 8.15582 5.54188C8.63811 5.64393 9.02718 5.84718 9.32379 6.17289C9.34305 5.86759 9.32379 5.56229 9.28681 5.29781C9.08265 2.87411 7.24749 0.980225 5.00324 0.980225C2.68502 0.980225 0.812113 2.99657 0.719662 5.50106C0.701172 5.72557 0.701172 5.94923 0.701172 6.17289C0.905335 5.99005 1.12799 5.84718 1.38762 5.72557C1.55403 5.64393 1.72122 5.5827 1.8884 5.54188Z" fill="#E2001A"/>
<path fill-rule="evenodd" clip-rule="evenodd" d="M7.50517 6.06982H2.36796C2.12682 6.06982 1.86718 6.13105 1.60755 6.25266C1.34869 6.37513 1.14452 6.518 0.97734 6.70084C0.662235 7.1286 0.495053 7.74005 0.476562 8.5539V12.9727C0.495053 13.7874 0.643745 14.398 0.97734 14.8266C1.14452 15.0094 1.34869 15.1523 1.60755 15.2739C1.86718 15.3972 2.12682 15.4576 2.36796 15.4576H7.50517C8.84032 15.4372 9.50751 14.6429 9.526 13.0543V8.47311C9.50751 6.88453 8.84032 6.09023 7.50517 6.06982Z" fill="#E2001A"/>
</g>
<defs>
<clipPath id="clip0_175_18327">
<rect width="98" height="19" fill="white"/>
</clipPath>
</defs>
</svg>
