<svg width="85" height="33" viewBox="0 0 85 33" fill="none" xmlns="http://www.w3.org/2000/svg">
<g clip-path="url(#clip0_175_18233)">
<path d="M77.2998 32.2864H84.2705V2.47339L77.2998 3.85918V32.2864Z" fill="#A5247B"/>
<path d="M57.2666 4.55823C57.2666 5.31499 57.4678 6.05476 57.8447 6.68399C58.2217 7.31322 58.7574 7.80364 59.3842 8.09324C60.011 8.38285 60.7008 8.45862 61.3662 8.31098C62.0316 8.16334 62.6429 7.79893 63.1226 7.26381C63.6023 6.7287 63.9291 6.04692 64.0614 5.3047C64.1938 4.56247 64.1258 3.79313 63.8662 3.09397C63.6066 2.39481 63.1669 1.79723 62.6028 1.37679C62.0387 0.95636 61.3754 0.731953 60.697 0.731953C60.2461 0.730334 59.7994 0.828197 59.3825 1.01991C58.9657 1.21162 58.5869 1.4934 58.2681 1.84903C57.9493 2.20466 57.6967 2.6271 57.5248 3.09206C57.3529 3.55702 57.2652 4.0553 57.2666 4.55823Z" fill="#A5247B"/>
<path d="M64.1716 10.4817H57.2119V32.2865H64.1716V10.4817Z" fill="#A5247B"/>
<path d="M43.5781 32.2986H50.6038V22.2915C50.6038 18.4529 51.0545 16.8096 55.1336 16.6502V10.273C54.5223 10.172 53.9039 10.135 53.2865 10.1627C46.8546 10.3957 43.5781 13.621 43.5781 19.9736V32.2986Z" fill="#A5247B"/>
<path d="M23.2275 32.2987H30.4181V23.5669C31.8647 26.2786 32.9255 29.2242 33.5626 32.2987H42.1385C41.2919 28.3498 37.5647 21.0651 37.5647 21.0651C39.7789 17.8774 41.4859 14.2892 42.6113 10.457H34.3872C33.445 13.2124 32.1042 15.7768 30.4181 18.0483V2.47339L23.2275 4.0554V32.2987Z" fill="#A5247B"/>
<path d="M21.4681 23.0027C21.4681 17.5699 17.62 14.0502 11.1551 13.5596C10.2865 13.4983 8.27444 13.3512 8.27444 11.3031C8.27444 8.85041 11.21 8.85041 12.3095 8.85041C14.4267 8.95283 16.5227 9.36515 18.5435 10.0767C18.5435 10.0767 19.544 10.4692 20.3906 10.8616H20.4676V4.12888H20.3577C17.4329 2.95929 14.3378 2.41025 11.232 2.51007C3.35979 2.47328 0.578125 7.57498 0.578125 11.9531C0.578125 14.4672 1.54566 20.3537 10.5394 21.0896C11.298 21.0896 13.332 21.2612 13.332 23.3829C13.332 25.1243 11.6718 26.1667 8.93413 26.1667C6.24267 26.147 3.5776 25.5733 1.07289 24.4743V31.3911C4.10626 32.2412 7.22495 32.6534 10.3525 32.6174C18.0378 32.6174 21.4681 27.7855 21.4681 23.0027Z" fill="#A5247B"/>
<path d="M74.1006 2.47339L67.1299 3.85918V32.2864H74.1006V2.47339Z" fill="#A5247B"/>
</g>
<defs>
<clipPath id="clip0_175_18233">
<rect width="84" height="33" fill="white" transform="translate(0.5 0.00012207)"/>
</clipPath>
</defs>
</svg>
