<svg width="95" height="27" viewBox="0 0 95 27" fill="none" xmlns="http://www.w3.org/2000/svg">
<g clip-path="url(#clip0_175_18299)">
<path d="M16.675 1.41968C7.75828 1.41968 0.541992 6.18952 0.541992 12.109C0.541992 14.6188 1.85252 16.9287 4.05727 18.7787C2.97698 17.2587 2.35719 15.5689 2.35719 13.759C2.35719 7.62943 9.42322 2.64983 18.1271 2.64983C23.741 2.64983 28.6729 4.70955 31.462 7.83955C28.956 4.04968 23.2715 1.41968 16.675 1.41968Z" fill="#79CB3E"/>
<path d="M9.49386 10.8089C9.96306 10.3788 10.5387 10.1589 11.2204 10.1589C11.8934 10.1589 12.469 10.3788 12.9382 10.8289C13.4074 11.2688 13.6731 11.8387 13.7173 12.5288H8.60835C8.73218 11.8187 9.03337 11.2488 9.49386 10.8089ZM15.2581 15.1388C15.9133 15.1388 16.4357 14.979 16.843 14.6687C17.3035 14.3187 17.5338 13.8187 17.5338 13.1687C17.5338 11.9487 17.1797 10.8289 16.4799 9.78887C15.7714 8.75902 14.8685 7.97897 13.7705 7.44912C13.0001 7.08895 12.1414 6.90906 11.2026 6.90906C9.29876 6.90906 7.73154 7.60898 6.5097 8.999C5.28785 10.3988 4.67676 12.0787 4.67676 14.0485C4.67676 16.0383 5.31429 17.7084 6.58934 19.0681C7.8731 20.4181 9.47579 21.098 11.3884 21.098C12.4155 21.098 13.3984 20.9381 14.3458 20.6082C15.4615 20.2284 16.2761 19.6781 16.7898 18.9582C17.082 18.5583 17.2235 18.1683 17.2235 17.7681C17.2235 16.7382 16.7098 16.2182 15.6827 16.2182C15.4615 16.2182 14.8859 16.4381 13.9562 16.8682C13.0265 17.3081 12.2384 17.5281 11.5832 17.5281C10.795 17.5281 10.1398 17.318 9.59092 16.9083C9.05077 16.4982 8.73218 15.9083 8.65219 15.1384L15.2581 15.1388Z" fill="#FEFEFE"/>
<path d="M19.6946 19.0286C20.881 20.3883 22.4485 21.0686 24.3963 21.0686C25.5652 21.0686 26.5391 20.8785 27.3272 20.4787C28.4162 19.9288 28.9564 19.2387 28.9564 18.4386C28.9564 17.9586 28.8148 17.5588 28.5313 17.2187C28.2569 16.8785 27.8938 16.7088 27.4424 16.7088C27.1412 16.7088 26.7607 16.809 26.2911 17.0089C25.8306 17.2088 25.326 17.309 24.7771 17.309C23.8561 17.309 23.1303 16.9791 22.6256 16.3192C22.1741 15.7292 21.9526 14.9394 21.9526 13.9492C21.9526 13.0191 22.1651 12.2394 22.5988 11.6094C23.077 10.9295 23.7587 10.5796 24.6352 10.5796C25.1841 10.5796 25.6978 10.6797 26.1847 10.8895C26.6716 11.0894 27.0702 11.1994 27.3711 11.1994C27.8316 11.1994 28.2211 11.0293 28.5223 10.6994C28.8235 10.3695 28.9828 9.96963 28.9828 9.49949C28.9828 8.57961 28.4514 7.88951 27.3978 7.42957C26.6097 7.09964 25.6891 6.92957 24.6352 6.92957C22.6252 6.92957 21.0048 7.59964 19.7917 8.91937C18.5698 10.2395 17.9678 11.939 17.9678 14.0289C17.9678 16.049 18.5437 17.7187 19.6946 19.0286Z" fill="#FEFEFE"/>
<path d="M33.6843 11.7092C34.1448 11.0093 34.8001 10.6491 35.6501 10.6491C36.4824 10.6491 37.129 11.0093 37.5892 11.739C38.0055 12.3588 38.218 13.1189 38.218 13.9991C38.218 14.9189 38.0142 15.6888 37.6159 16.2988C37.1554 17.0187 36.5002 17.3789 35.6501 17.3789C34.8178 17.3789 34.1713 17.0187 33.7111 16.2988C33.2861 15.6687 33.0823 14.9087 33.0823 13.9991C33.0823 13.0992 33.2861 12.3392 33.6843 11.7092ZM30.8775 19.0486C32.1262 20.4484 33.7111 21.1483 35.6501 21.1483C37.5982 21.1483 39.1919 20.4582 40.4227 19.0784C41.6091 17.7285 42.2025 16.0486 42.2025 14.0289C42.2025 11.9888 41.6004 10.2893 40.405 8.92916C39.2009 7.56937 37.6159 6.87927 35.6501 6.87927C33.7111 6.87927 32.1349 7.56937 30.913 8.93898C29.6912 10.309 29.0801 12.0089 29.0801 14.0285C29.0801 16.0285 29.6734 17.7088 30.8775 19.0486Z" fill="#FEFEFE"/>
<path d="M47.6485 18.0587V14.9888H50.3315C52.2264 14.9888 53.7139 14.459 54.7942 13.3891C55.8832 12.3191 56.4324 10.8191 56.4324 8.87925C56.4324 6.92952 55.8303 5.40948 54.6259 4.31954C53.4924 3.28968 51.9606 2.76965 50.0216 2.76965H46.4267C45.3819 2.76965 44.6647 2.97978 44.2661 3.40948C43.8675 3.83957 43.6641 4.57955 43.6641 5.64947V18.0485C43.6641 19.9782 44.328 20.9484 45.6563 20.9484C46.9846 20.9484 47.6485 19.9885 47.6485 18.0587ZM47.6485 6.53949H49.375C51.1989 6.53949 52.1112 7.31954 52.1112 8.87925C52.1112 10.4692 51.1993 11.2693 49.375 11.2693H47.6485V6.53949Z" fill="#79CB3E"/>
<path d="M67.6416 20.9484C68.9166 20.9484 69.5629 19.9786 69.5629 18.0387V10.0191C69.5629 8.08936 68.9166 7.12942 67.6416 7.12942C66.8534 7.12942 66.2427 7.5493 65.7909 8.38943C65.0028 7.43932 63.967 6.95935 62.6742 6.95935C60.8945 6.95935 59.4333 7.69933 58.2825 9.1793C57.1935 10.5591 56.6533 12.1691 56.6533 14.0289C56.6533 15.8686 57.167 17.4688 58.2118 18.8286C59.3453 20.3085 60.7884 21.0485 62.533 21.0485C63.9054 21.0485 64.9944 20.5485 65.7916 19.5485C66.1724 20.4786 66.7916 20.9484 67.6416 20.9484ZM61.275 11.7889C61.7355 11.109 62.364 10.7791 63.1611 10.7791C63.9757 10.7791 64.6045 11.109 65.0473 11.7889C65.4281 12.3788 65.6229 13.109 65.6229 13.9786C65.6229 14.8486 65.4281 15.5886 65.0473 16.1986C64.6045 16.8887 63.976 17.2284 63.1611 17.2284C62.3553 17.2284 61.7177 16.8883 61.2573 16.1986C60.8587 15.5886 60.6552 14.8486 60.6552 13.9786C60.6552 13.1286 60.8677 12.3887 61.275 11.7889Z" fill="#79CB3E"/>
<path d="M78.5595 8.70914L76.1864 15.0587L73.9726 9.04927C73.7337 8.3792 73.5212 7.92947 73.3264 7.69931C73.0075 7.31949 72.565 7.12939 72.0072 7.12939C71.4583 7.12939 71.0065 7.31949 70.6525 7.69931C70.2893 8.07913 70.1123 8.53945 70.1123 9.09916C70.1123 9.48918 70.1833 9.85917 70.3248 10.2091L74.2387 19.5886L72.636 23.1585C72.4235 23.6683 72.3171 24.1184 72.3171 24.5084C72.3171 25.0984 72.4941 25.5583 72.8485 25.9083C73.2026 26.2484 73.6631 26.4181 74.2387 26.4181C74.9294 26.4181 75.496 25.8883 75.9388 24.8183L81.8713 10.4094C82.0751 9.89961 82.1812 9.43967 82.1812 9.02962C82.1812 7.75978 81.5437 7.12977 80.2599 7.12977C79.525 7.12977 78.9581 7.65926 78.5595 8.70914Z" fill="#79CB3E"/>
<path d="M91.7178 17.0587H87.8839L93.0374 10.259C93.5598 9.56891 93.8165 8.98917 93.8165 8.5092C93.8165 7.98917 93.6217 7.64941 93.2231 7.5092C92.8245 7.36937 92.2048 7.29907 91.3724 7.29907H85.1565C83.5096 7.29907 82.686 7.89922 82.686 9.09915C82.686 10.3191 83.5006 10.9291 85.13 10.9291H88.4683L83.1468 17.9986C82.7573 18.4986 82.5625 19.0084 82.5625 19.5186C82.5625 20.3387 83.2442 20.7484 84.608 20.7484H91.6827C93.3208 20.7484 94.1354 20.1483 94.1354 18.9287C94.1354 17.6789 93.3291 17.0587 91.7178 17.0587Z" fill="#79CB3E"/>
</g>
<defs>
<clipPath id="clip0_175_18299">
<rect width="94" height="26" fill="white" transform="translate(0.5 0.500122)"/>
</clipPath>
</defs>
</svg>
