<svg width="75" height="29" viewBox="0 0 75 29" fill="none" xmlns="http://www.w3.org/2000/svg">
<g clip-path="url(#clip0_175_18308)">
<path fill-rule="evenodd" clip-rule="evenodd" d="M28.4551 6.36593L15.5224 0.619629L2.59082 6.36593V9.70736H28.4551V6.36593Z" fill="#2A7CCE"/>
<path fill-rule="evenodd" clip-rule="evenodd" d="M9.2384 11.9125C9.62286 11.9125 9.93374 11.599 9.93374 11.2114C9.93374 10.8225 9.62286 10.509 9.2384 10.509H5.13752C4.75425 10.509 4.44336 10.8225 4.44336 11.2114C4.44336 11.599 4.75425 11.9125 5.13752 11.9125H5.36891V21.9368H5.13752C4.75425 21.9368 4.44336 22.2503 4.44336 22.6379C4.44336 23.0255 4.75425 23.3403 5.13752 23.3403H9.2384C9.62286 23.3403 9.93374 23.0255 9.93374 22.6379C9.93374 22.2503 9.62286 21.9368 9.2384 21.9368H9.00701V11.9125H9.2384Z" fill="#2A7CCE"/>
<path fill-rule="evenodd" clip-rule="evenodd" d="M17.5724 11.9125C17.9568 11.9125 18.2677 11.599 18.2677 11.2114C18.2677 10.8225 17.9568 10.509 17.5724 10.509H13.4715C13.0882 10.509 12.7773 10.8225 12.7773 11.2114C12.7773 11.599 13.0882 11.9125 13.4715 11.9125H13.7029V21.9368H13.4715C13.0882 21.9368 12.7773 22.2503 12.7773 22.6379C12.7773 23.0255 13.0882 23.3403 13.4715 23.3403H17.5724C17.9568 23.3403 18.2677 23.0255 18.2677 22.6379C18.2677 22.2503 17.9568 21.9368 17.5724 21.9368H17.3422V11.9125H17.5724Z" fill="#2A7CCE"/>
<path fill-rule="evenodd" clip-rule="evenodd" d="M26.0416 11.9125C26.4248 11.9125 26.7357 11.599 26.7357 11.2114C26.7357 10.8225 26.4248 10.509 26.0416 10.509H21.9395C21.5562 10.509 21.2441 10.8225 21.2441 11.2114C21.2441 11.599 21.5562 11.9125 21.9395 11.9125H22.1709V21.9368H21.9395C21.5562 21.9368 21.2441 22.2503 21.2441 22.6379C21.2441 23.0255 21.5562 23.3403 21.9395 23.3403H26.0416C26.4248 23.3403 26.7357 23.0255 26.7357 22.6379C26.7357 22.2503 26.4248 21.9368 26.0416 21.9368H25.809V11.9125H26.0416Z" fill="#2A7CCE"/>
<path fill-rule="evenodd" clip-rule="evenodd" d="M3.25175 25.8785H27.7941C28.1584 25.8785 28.4551 25.5782 28.4551 25.2104V24.8096C28.4551 24.4419 28.1584 24.1416 27.7941 24.1416H3.25175C2.88866 24.1416 2.59082 24.4419 2.59082 24.8096V25.2104C2.59082 25.5782 2.88866 25.8785 3.25175 25.8785Z" fill="#2A7CCE"/>
<path fill-rule="evenodd" clip-rule="evenodd" d="M29.5134 26.6804H1.53224C1.16795 26.6804 0.870117 26.982 0.870117 27.3497V27.9503C0.870117 28.318 1.16795 28.6196 1.53224 28.6196H29.5134C29.8777 28.6196 30.1755 28.318 30.1755 27.9503V27.3497C30.1755 26.982 29.8777 26.6804 29.5134 26.6804Z" fill="#2A7CCE"/>
<path fill-rule="evenodd" clip-rule="evenodd" d="M41.0898 10.6493C40.8453 10.3225 40.4953 10.095 40.0444 9.96142C40.3956 9.7868 40.6602 9.5606 40.8323 9.27355C41.0044 8.98518 41.0898 8.67829 41.0898 8.35684C41.0898 8.01027 40.9972 7.68221 40.7991 7.36076C40.6009 7.04064 40.3292 6.80783 39.9851 6.65306C39.641 6.49961 39.1782 6.42554 38.6098 6.42554H35.8047V13.9841H38.6561C39.1319 13.9841 39.5294 13.9444 39.8605 13.8571C40.1903 13.7711 40.4621 13.6507 40.6804 13.4827C40.8976 13.3227 41.0839 13.0885 41.2286 12.7816C41.3817 12.4734 41.4541 12.1467 41.4541 11.7922C41.4541 11.3517 41.3354 10.9707 41.0898 10.6493ZM36.7907 7.32108H38.2918C38.8281 7.32108 39.2114 7.35547 39.4297 7.42823C39.6481 7.50231 39.8201 7.6293 39.9388 7.82375C40.0574 8.01027 40.118 8.22985 40.118 8.48383C40.118 8.75104 40.0515 8.97195 39.9257 9.14524C39.8 9.31985 39.6077 9.44684 39.3562 9.5196C39.1651 9.58045 38.8471 9.6069 38.4105 9.6069H36.7907V7.32108ZM40.2758 12.4337C40.1773 12.6203 40.0515 12.7618 39.8996 12.8544C39.7466 12.9549 39.5555 13.0224 39.3301 13.0621C39.1984 13.0819 38.9729 13.0951 38.6561 13.0951H36.7907V10.4958H38.5232C39.0002 10.4958 39.3633 10.5355 39.6148 10.6228C39.8664 10.7101 40.0646 10.8569 40.2105 11.0633C40.3494 11.271 40.4217 11.5183 40.4217 11.7988C40.4217 12.0395 40.3755 12.2459 40.2758 12.4337Z" fill="#2A7CCE"/>
<path fill-rule="evenodd" clip-rule="evenodd" d="M47.1369 13.3161C47.0966 13.0886 47.0776 12.5409 47.0776 11.6785V10.4429C47.0776 10.0276 47.0634 9.74716 47.0302 9.5871C46.9779 9.32651 46.8854 9.11883 46.7466 8.95215C46.6137 8.78548 46.4024 8.64394 46.1117 8.53811C45.8269 8.42435 45.4496 8.37012 44.9868 8.37012C44.5169 8.37012 44.1064 8.43758 43.7563 8.56457C43.3992 8.69817 43.1274 8.8794 42.9423 9.11883C42.7572 9.35958 42.6184 9.67441 42.5389 10.062L43.4383 10.189C43.538 9.79479 43.6899 9.52758 43.8952 9.37281C44.1004 9.21936 44.4244 9.14528 44.8539 9.14528C45.3179 9.14528 45.6679 9.25375 45.8993 9.46011C46.0714 9.62017 46.158 9.88077 46.158 10.2617C46.158 10.2948 46.158 10.3755 46.1509 10.5025C45.7997 10.6295 45.2514 10.7366 44.5098 10.8226C44.1467 10.8702 43.875 10.9165 43.697 10.9641C43.4514 11.0369 43.233 11.1374 43.0349 11.271C42.8367 11.4046 42.6777 11.5845 42.5591 11.8054C42.4404 12.0264 42.3799 12.2737 42.3799 12.5409C42.3799 13.0013 42.546 13.3769 42.8628 13.6706C43.1868 13.9643 43.6436 14.1111 44.2393 14.1111C44.5964 14.1111 44.9334 14.0516 45.2514 13.9312C45.5683 13.8108 45.8993 13.6031 46.2375 13.3095C46.2636 13.5701 46.3229 13.7976 46.4084 13.9709H47.3683C47.2556 13.7632 47.1761 13.5436 47.1369 13.3161ZM46.158 11.5792C46.158 11.9853 46.1117 12.3002 46.0121 12.5079C45.8792 12.7817 45.681 12.9947 45.4033 13.1494C45.1257 13.3029 44.8077 13.3822 44.4576 13.3822C44.1004 13.3822 43.8287 13.3029 43.6436 13.1362C43.4585 12.9682 43.3659 12.7618 43.3659 12.5145C43.3659 12.3531 43.4063 12.2063 43.4917 12.074C43.5772 11.939 43.697 11.8385 43.8548 11.7724C44.0138 11.6996 44.2784 11.6388 44.6558 11.5845C45.3238 11.4919 45.8269 11.3782 46.158 11.2366V11.5792Z" fill="#2A7CCE"/>
<path fill-rule="evenodd" clip-rule="evenodd" d="M51.8923 9.80787C51.9647 9.99438 51.9979 10.2748 51.9979 10.6558V13.984H52.9176V10.6227C52.9176 10.1954 52.8974 9.89385 52.8642 9.72056C52.812 9.45335 52.7194 9.22583 52.5806 9.0327C52.4417 8.83824 52.2365 8.6848 51.9647 8.56442C51.6942 8.44405 51.3892 8.38452 51.0653 8.38452C50.3118 8.38452 49.7363 8.6848 49.3388 9.28668V8.51151H48.5117V13.984H49.4385V10.9971C49.4385 10.2946 49.5773 9.82109 49.8621 9.56711C50.1457 9.31975 50.4827 9.19276 50.873 9.19276C51.1187 9.19276 51.3299 9.24567 51.515 9.35943C51.6942 9.47319 51.8188 9.62003 51.8923 9.80787Z" fill="#2A7CCE"/>
<path fill-rule="evenodd" clip-rule="evenodd" d="M58.8185 13.9841L56.5425 10.5421L58.6131 8.51161H57.423L55.2468 10.7366V6.42554H54.3271V13.9841H55.2468V11.812L55.8946 11.185L57.6876 13.9841H58.8185Z" fill="#2A7CCE"/>
<path fill-rule="evenodd" clip-rule="evenodd" d="M35.2822 19.3573H37.7492V26.0256H38.7352V19.3573H41.2093V18.4684H35.2822V19.3573Z" fill="#2A7CCE"/>
<path fill-rule="evenodd" clip-rule="evenodd" d="M43.1216 20.6124C42.9424 20.7407 42.7514 20.9934 42.539 21.381V20.5529H41.7119V26.0254H42.6256V23.1588C42.6256 22.7646 42.6778 22.4035 42.7775 22.0768C42.8499 21.8625 42.9626 21.6892 43.1216 21.5688C43.2806 21.4484 43.4657 21.3876 43.6639 21.3876C43.8881 21.3876 44.1136 21.455 44.3379 21.5886L44.6559 20.7262C44.3319 20.5264 44.021 20.4259 43.7101 20.4259C43.4977 20.4259 43.2996 20.4867 43.1216 20.6124Z" fill="#2A7CCE"/>
<path fill-rule="evenodd" clip-rule="evenodd" d="M49.6367 25.3574C49.5976 25.1312 49.5774 24.5822 49.5774 23.7211V22.4842C49.5774 22.0702 49.5632 21.7884 49.5311 21.6284C49.4777 21.3678 49.3852 21.1614 49.2463 20.9934C49.1134 20.8267 48.9022 20.6865 48.6115 20.5794C48.3267 20.4656 47.9494 20.4127 47.4866 20.4127C47.0167 20.4127 46.6074 20.4788 46.2561 20.6058C45.899 20.7408 45.6272 20.9207 45.4421 21.1614C45.257 21.4022 45.1182 21.7157 45.0387 22.1033L45.9381 22.2302C46.0378 21.836 46.1897 21.5688 46.395 21.4141C46.6002 21.2619 46.9242 21.1879 47.3537 21.1879C47.8177 21.1879 48.1677 21.295 48.3991 21.5027C48.5712 21.6614 48.6578 21.9234 48.6578 22.303C48.6578 22.3374 48.6578 22.4168 48.6507 22.5438C48.3006 22.6707 47.7512 22.7779 47.0096 22.8652C46.6465 22.9115 46.376 22.9591 46.1968 23.0054C45.9524 23.0795 45.7328 23.18 45.5359 23.3123C45.3365 23.4459 45.1775 23.6271 45.0588 23.848C44.9402 24.0676 44.8809 24.315 44.8809 24.5822C44.8809 25.0439 45.0458 25.4182 45.3626 25.7119C45.6877 26.0056 46.1434 26.1524 46.7391 26.1524C47.0962 26.1524 47.4332 26.0929 47.7512 25.9725C48.0681 25.8521 48.3991 25.6458 48.7373 25.3508C48.7705 25.6047 48.8287 25.8323 48.9082 26.0122H49.8681C49.7554 25.8058 49.6759 25.5849 49.6367 25.3574ZM48.6637 23.6139C48.6637 24.0213 48.6175 24.3348 48.519 24.5425C48.3861 24.8163 48.1879 25.0306 47.9102 25.1841C47.6326 25.3375 47.3146 25.4182 46.9633 25.4182C46.6074 25.4182 46.3356 25.3375 46.1505 25.1709C45.9654 25.0042 45.8729 24.7965 45.8729 24.5491C45.8729 24.3891 45.912 24.2422 45.9986 24.1073C46.0841 23.9737 46.2027 23.8745 46.3617 23.807C46.5207 23.733 46.7853 23.6734 47.1627 23.6205C47.8307 23.5266 48.3327 23.4128 48.6637 23.2726V23.6139Z" fill="#2A7CCE"/>
<path fill-rule="evenodd" clip-rule="evenodd" d="M55.0884 21.0741C54.9484 20.8809 54.7443 20.7262 54.4725 20.6058C54.2008 20.4867 53.897 20.4259 53.5731 20.4259C52.8184 20.4259 52.2429 20.7262 51.8466 21.328V20.5529H51.0195V26.032H51.9451V23.0451C51.9451 22.344 52.0839 21.8691 52.3687 21.6151C52.6535 21.3677 52.9905 21.2407 53.3809 21.2407C53.6253 21.2407 53.8377 21.295 54.0228 21.4087C54.2008 21.5225 54.3278 21.6693 54.4001 21.8558C54.4725 22.0437 54.5058 22.3241 54.5058 22.7051V26.032H55.4254V22.6641C55.4254 22.2368 55.4052 21.9365 55.372 21.7619C55.3198 21.4947 55.226 21.2672 55.0884 21.0741Z" fill="#2A7CCE"/>
<path fill-rule="evenodd" clip-rule="evenodd" d="M60.1352 23.1327C59.8765 23.0256 59.4209 22.8787 58.773 22.7055C58.3233 22.5851 58.0515 22.5044 57.959 22.4713C57.8 22.4039 57.6813 22.3245 57.6089 22.224C57.5354 22.1234 57.4962 22.0163 57.4962 21.8972C57.4962 21.7094 57.5888 21.5427 57.7667 21.4025C57.9519 21.2623 58.2497 21.1882 58.6733 21.1882C59.0305 21.1882 59.3022 21.2623 59.5004 21.4223C59.6985 21.5824 59.8184 21.802 59.8575 22.0837L60.757 21.9567C60.6976 21.6022 60.592 21.3218 60.4402 21.1075C60.2812 20.9011 60.0498 20.7345 59.7246 20.6062C59.4078 20.4792 59.0305 20.4196 58.6069 20.4196C58.3233 20.4196 58.0587 20.4593 57.8142 20.5334C57.5686 20.6128 57.3764 20.7001 57.2316 20.8072C57.0394 20.9474 56.8946 21.1207 56.7819 21.3284C56.6691 21.5361 56.6157 21.7557 56.6157 22.003C56.6157 22.2702 56.6822 22.5176 56.8151 22.7385C56.9468 22.9594 57.145 23.1327 57.4036 23.2597C57.6683 23.3867 58.131 23.5335 58.805 23.7068C59.3081 23.8338 59.619 23.941 59.7448 24.0217C59.924 24.142 60.0165 24.3087 60.0165 24.5164C60.0165 24.7492 59.9169 24.9503 59.7116 25.1236C59.5063 25.2982 59.1954 25.3842 58.773 25.3842C58.3494 25.3842 58.0254 25.2849 57.794 25.0905C57.5615 24.8894 57.4238 24.6103 57.3704 24.2426L56.4639 24.3894C56.5635 24.9701 56.8009 25.4106 57.1651 25.7122C57.5294 26.0059 58.0717 26.1527 58.773 26.1527C59.1954 26.1527 59.5799 26.0733 59.9169 25.9252C60.255 25.7784 60.5125 25.5654 60.6905 25.2916C60.8626 25.0164 60.9551 24.7227 60.9551 24.4159C60.9551 24.0944 60.8828 23.8338 60.7368 23.6208C60.592 23.4065 60.3939 23.2465 60.1352 23.1327Z" fill="#2A7CCE"/>
<path fill-rule="evenodd" clip-rule="evenodd" d="M63.3765 19.3572C63.4892 19.2369 63.6862 19.176 63.965 19.176C64.1371 19.176 64.3151 19.1958 64.5073 19.2302L64.6461 18.4207C64.3293 18.3612 64.0445 18.3268 63.7858 18.3268C63.3824 18.3268 63.0715 18.4075 62.8472 18.5543C62.6218 18.7077 62.4628 18.9022 62.3773 19.1429C62.3109 19.3228 62.2777 19.598 62.2777 19.9644V20.5464H61.4648V21.2674H62.2717V26.0202H63.2044V21.2674H64.2617V20.5398H63.2044V20.0319C63.2044 19.7051 63.2637 19.4776 63.3765 19.3572Z" fill="#2A7CCE"/>
<path fill-rule="evenodd" clip-rule="evenodd" d="M69.6349 23.2729C69.6349 22.3708 69.4024 21.6697 68.9467 21.1683C68.4899 20.667 67.9013 20.4196 67.1739 20.4196C66.4264 20.4196 65.8177 20.6736 65.3478 21.1816C64.8791 21.6895 64.6465 22.4039 64.6465 23.3272C64.6465 24.2214 64.8791 24.9106 65.3406 25.4053C65.8046 25.9001 66.4323 26.1461 67.2262 26.1461C67.8622 26.1461 68.3771 25.9926 68.7818 25.6844C69.1852 25.3789 69.4629 24.9437 69.6148 24.3828L68.6691 24.2624C68.5302 24.65 68.338 24.937 68.0805 25.1169C67.842 25.2982 67.5572 25.3842 67.2202 25.3842C66.7705 25.3842 66.3932 25.2241 66.0894 24.904C65.7916 24.5825 65.6195 24.1209 65.5863 23.5203H69.6278C69.6349 23.4132 69.6349 23.3272 69.6349 23.2729ZM65.6515 22.7584C65.6859 22.2835 65.8438 21.9025 66.1285 21.6155C66.4205 21.3284 66.7705 21.1882 67.1941 21.1882C67.6569 21.1882 68.0402 21.3681 68.3309 21.7226C68.516 21.9501 68.6358 22.2967 68.675 22.7584H65.6515Z" fill="#2A7CCE"/>
<path fill-rule="evenodd" clip-rule="evenodd" d="M72.1675 20.6124C71.9883 20.7407 71.7961 20.9934 71.5849 21.381V20.5529H70.7578V26.0254H71.6715V23.1588C71.6715 22.7646 71.7237 22.4035 71.8234 22.0768C71.8958 21.8625 72.0085 21.6892 72.1675 21.5688C72.3265 21.4484 72.5116 21.3876 72.7098 21.3876C72.934 21.3876 73.1595 21.455 73.3849 21.5886L73.7018 20.7262C73.3778 20.5264 73.0669 20.4259 72.756 20.4259C72.5436 20.4259 72.3455 20.4867 72.1675 20.6124Z" fill="#2A7CCE"/>
</g>
<defs>
<clipPath id="clip0_175_18308">
<rect width="74" height="29" fill="white" transform="translate(0.5 0.00012207)"/>
</clipPath>
</defs>
</svg>
