<svg width="98" height="21" viewBox="0 0 98 21" fill="none" xmlns="http://www.w3.org/2000/svg">
<g clip-path="url(#clip0_175_18243)">
<path fill-rule="evenodd" clip-rule="evenodd" d="M64.3365 15.4565C63.0386 15.4565 62.0817 14.7403 61.8077 13.4694C61.5513 14.7403 60.5852 15.4565 59.2965 15.4565C57.1649 15.4565 56.1133 13.8747 56.1133 11.7279V5.31763H58.1879V11.8668C58.1879 12.9024 58.5105 13.5969 59.4767 13.5969C60.3958 13.5969 60.7654 12.9024 60.7838 11.8668V5.31763H62.8492V11.8668C62.8492 12.9024 63.2288 13.5969 64.1572 13.5969C65.1233 13.5969 65.4451 12.9024 65.4451 11.8668V5.31763H67.5198V11.7279C67.5198 13.8747 66.4682 15.4565 64.3365 15.4565Z" fill="white"/>
<path fill-rule="evenodd" clip-rule="evenodd" d="M37.7904 7.84905C38.2546 7.11202 38.501 6.22569 38.501 5.31763H31.8128V7.10163H35.9428L32.3717 12.7635C31.9075 13.5015 31.6611 14.3878 31.6611 15.2959H38.3493V13.5119H34.2193L37.7904 7.84905Z" fill="white"/>
<path fill-rule="evenodd" clip-rule="evenodd" d="M95.4015 8.83271V11.3962C95.4015 11.5994 95.4015 11.8025 95.4015 12.0057C95.4015 12.4111 95.4585 12.7635 95.5909 13.0309L95.6001 13.063C95.6478 13.149 95.6948 13.2341 95.7618 13.2983C95.7995 13.3408 95.8372 13.3834 95.8841 13.4155C95.9034 13.4372 95.9319 13.4476 95.9604 13.4694L95.9696 13.4797L95.9981 13.5015C96.2537 13.6725 96.557 13.7254 96.8511 13.7254C97.0027 13.7254 97.1544 13.7037 97.3052 13.6725V15.4348C97.1544 15.4565 97.0027 15.4565 96.8511 15.4565C95.2121 15.4565 93.9427 14.5371 93.5254 13.0734L93.5162 13.0526C93.45 12.7748 93.4115 12.4866 93.393 12.1767C93.393 12.1229 93.3838 12.0586 93.3838 12.0057V11.9943C93.3838 11.931 93.3838 11.8668 93.3838 11.8025C93.3838 11.1184 93.3838 8.83271 93.3838 8.83271H92.1328V7.10163H93.3838V5.31763H95.4015V7.09123H97.3052V8.83271H95.4015Z" fill="white"/>
<path fill-rule="evenodd" clip-rule="evenodd" d="M41.438 10.5202C41.438 9.16339 42.1863 8.83267 42.8784 8.83267C43.589 8.83267 44.3372 9.16339 44.3372 10.5202H41.438ZM45.4935 8.17028C45.455 8.12682 45.4173 8.0843 45.3704 8.04178C45.1801 7.84901 44.9623 7.68932 44.726 7.55042C44.612 7.48617 44.4981 7.43231 44.3749 7.37939C44.3372 7.36805 44.2995 7.34727 44.2618 7.33687C43.8445 7.17624 43.3803 7.09119 42.8784 7.09119C42.746 7.09119 42.6128 7.10159 42.4896 7.11198C42.4142 7.12238 42.348 7.13372 42.2718 7.13372C41.9877 7.17624 41.7229 7.24049 41.4766 7.34727C41.3811 7.37939 41.2964 7.42191 41.2017 7.46444C41.1163 7.50696 41.0308 7.56082 40.9453 7.60334C40.699 7.75358 40.4719 7.935 40.2826 8.14855C39.7329 8.74668 39.4111 9.58009 39.4111 10.5741V11.2686V11.9622C39.4111 11.9943 39.4203 12.016 39.4203 12.0482C39.4296 12.3364 39.4581 12.6142 39.515 12.8712V12.892C39.8846 14.4624 41.1917 15.4461 42.8977 15.4461C44.2995 15.4461 45.4365 14.7724 45.9954 13.6507V13.6403C46.0809 13.4693 46.1471 13.2983 46.2041 13.1169H44.0909C43.9208 13.3947 43.6744 13.5648 43.4088 13.6403C43.2479 13.6933 43.0678 13.7037 42.8977 13.7037C42.6036 13.7037 42.291 13.6507 42.0447 13.4797L42.0162 13.458C41.8076 13.3304 41.6659 13.1169 41.5713 12.8599C41.552 12.7956 41.5235 12.7209 41.5143 12.6567C41.5042 12.6142 41.495 12.5613 41.4858 12.5074C41.4573 12.3685 41.4481 12.1975 41.4481 12.0264V11.9839H46.3742V11.9622V11.2686V10.5741C46.3649 9.60182 46.0424 8.77881 45.4935 8.17028Z" fill="white"/>
<path fill-rule="evenodd" clip-rule="evenodd" d="M73.4505 12.7106C73.4413 12.8173 73.4128 12.9137 73.3659 12.9988C73.1757 13.3512 72.6838 13.7358 71.9163 13.7358C71.3859 13.7358 70.9217 13.3937 70.9217 12.7635C70.9217 12.1332 71.3473 11.7382 72.0964 11.7382H73.4505V12.2513C73.4606 12.4006 73.4698 12.5499 73.4505 12.7106ZM75.4405 10.456C75.4405 10.3275 75.4313 10.2104 75.4213 10.0818C75.412 9.9968 75.4028 9.91175 75.3928 9.82577C75.3836 9.78325 75.3743 9.74073 75.3743 9.69726C75.3743 9.65474 75.3551 9.61222 75.3551 9.58009V9.55836C74.9948 8.02004 73.7161 7.04773 72.0395 7.04773C71.1488 7.04773 70.372 7.31514 69.7846 7.80649C69.5953 7.96713 69.4243 8.14855 69.2727 8.35171L70.7985 9.45158C70.9686 9.09913 71.2342 8.90731 71.5375 8.82133C71.5752 8.81093 71.6222 8.80054 71.6607 8.7892C71.7839 8.76841 71.9071 8.75707 72.0395 8.75707C72.1811 8.75707 72.3327 8.76841 72.4752 8.81093C72.5129 8.82133 72.5414 8.83267 72.5791 8.84306C72.6838 8.87519 72.7785 8.9281 72.8732 8.99236L72.9017 9.01409L72.9109 9.02448C72.9302 9.03488 72.9486 9.05661 72.9679 9.067C73.1002 9.16338 73.1949 9.29189 73.2611 9.44119C73.2804 9.47332 73.2896 9.49505 73.2988 9.52623C73.3089 9.55836 73.3181 9.58009 73.3273 9.61222C73.3466 9.67647 73.3751 9.74073 73.3843 9.81537C73.3944 9.85789 73.4036 9.91175 73.4128 9.95428C73.422 9.9864 73.422 10.0289 73.4321 10.061V10.0714C73.4413 10.1461 73.4505 10.2104 73.4505 10.2963C73.4505 10.3389 73.4505 10.3814 73.4505 10.4239V10.4664H71.5845C70.1441 10.4664 68.9316 11.1722 68.9316 12.9137C68.9316 14.5588 70.2011 15.4565 71.499 15.4565C72.2096 15.4565 72.9679 15.2212 73.4505 14.6335V15.3072L75.4405 15.3062V10.5949C75.4498 10.542 75.4498 10.4985 75.4405 10.456Z" fill="white"/>
<path fill-rule="evenodd" clip-rule="evenodd" d="M25.8539 10.5202C25.8539 9.16339 26.6022 8.83267 27.2943 8.83267C28.0048 8.83267 28.7531 9.16339 28.7531 10.5202H25.8539ZM29.9086 8.17028C29.8709 8.12682 29.8332 8.0843 29.7854 8.04178C29.596 7.84901 29.3782 7.68932 29.141 7.55042C29.0279 7.48617 28.914 7.43231 28.7908 7.37939C28.7531 7.36805 28.7145 7.34727 28.6768 7.33687C28.2604 7.17624 27.7962 7.09119 27.2943 7.09119C27.1611 7.09119 27.0287 7.10159 26.9055 7.11198C26.8292 7.12238 26.763 7.13372 26.6876 7.13372C26.4036 7.17624 26.138 7.24049 25.8916 7.34727C25.7969 7.37939 25.7115 7.42191 25.6168 7.46444C25.5313 7.50696 25.4467 7.56082 25.3612 7.60334C25.1149 7.75358 24.8878 7.935 24.6984 8.14855C24.1488 8.74668 23.8262 9.58009 23.8262 10.5741V11.2686V11.9622C23.8262 11.9943 23.8362 12.016 23.8362 12.0482C23.8454 12.3364 23.8739 12.6142 23.9309 12.8712V12.892C24.3004 14.4624 25.6076 15.4461 27.3127 15.4461C28.7154 15.4461 29.8516 14.7724 30.4105 13.6507V13.6403C30.4297 13.5969 30.4582 13.544 30.4775 13.5014C30.5336 13.3729 30.5814 13.2444 30.6191 13.1169H28.5067C28.3358 13.3947 28.0895 13.5648 27.8247 13.6403C27.663 13.6933 27.4836 13.7037 27.3127 13.7037C27.0194 13.7037 26.7069 13.6507 26.4606 13.4797L26.4321 13.458C26.2234 13.3304 26.081 13.1169 25.9863 12.8599C25.9679 12.7956 25.9394 12.7209 25.9201 12.6567C25.9109 12.6142 25.9008 12.5613 25.8916 12.5074C25.8631 12.3685 25.8539 12.1975 25.8539 12.0264V11.9839H30.78V11.9622V11.2686V10.5741C30.78 9.60182 30.4582 8.77881 29.9086 8.17028Z" fill="white"/>
<path fill-rule="evenodd" clip-rule="evenodd" d="M49.6617 10.5202C49.6617 9.16339 50.4108 8.83267 51.102 8.83267C51.8126 8.83267 52.5608 9.16339 52.5608 10.5202H49.6617ZM53.7172 8.17028C53.6794 8.12682 53.6409 8.0843 53.594 8.04178C53.4046 7.84901 53.1868 7.68932 52.9496 7.55042C52.8357 7.48617 52.7226 7.43231 52.5994 7.37939C52.5608 7.36805 52.5231 7.34727 52.4854 7.33687C52.0681 7.17624 51.6039 7.09119 51.102 7.09119C50.9696 7.09119 50.8373 7.10159 50.7141 7.11198C50.6378 7.12238 50.5716 7.13372 50.4954 7.13372C50.2113 7.17624 49.9466 7.24049 49.7002 7.34727C49.6055 7.37939 49.5201 7.42191 49.4254 7.46444C49.3399 7.50696 49.2544 7.56082 49.1698 7.60334C48.9235 7.75358 48.7048 7.935 48.5062 8.14855C47.9565 8.74668 47.6348 9.58009 47.6348 10.5741V11.2686V11.9622C47.6348 11.9943 47.644 12.016 47.644 12.0482C47.6532 12.3364 47.6817 12.6142 47.7387 12.8712V12.892C48.1082 14.4624 49.4162 15.4461 51.1213 15.4461C52.5231 15.4461 53.6602 14.7724 54.2191 13.6507V13.6403C54.3045 13.4693 54.3707 13.2983 54.4277 13.1169H52.3053C52.1352 13.3947 51.8888 13.5648 51.6232 13.6403C51.4623 13.6933 51.2822 13.7037 51.1113 13.7037C50.818 13.7037 50.5054 13.6507 50.2591 13.4797L50.2306 13.458C50.022 13.3304 49.8804 13.1169 49.7848 12.8599C49.7664 12.7956 49.7379 12.7209 49.7186 12.6567C49.7094 12.6142 49.7002 12.5613 49.6902 12.5074C49.6617 12.3685 49.6525 12.1975 49.6525 12.0264V11.9839H54.5794V11.9622V11.2686V10.5741C54.5886 9.60182 54.266 8.77881 53.7172 8.17028Z" fill="white"/>
<path fill-rule="evenodd" clip-rule="evenodd" d="M86.2787 10.5202C86.2787 9.16339 87.027 8.83267 87.7182 8.83267C88.4288 8.83267 89.1771 9.16339 89.1771 10.5202H86.2787ZM90.3334 8.17028C90.2957 8.12682 90.2571 8.0843 90.2102 8.04178C90.0208 7.84901 89.803 7.68932 89.5658 7.55042C89.4519 7.48617 89.3388 7.43231 89.2156 7.37939C89.177 7.36805 89.1393 7.34727 89.1016 7.33687C88.6852 7.17624 88.2202 7.09119 87.7182 7.09119C87.5859 7.09119 87.4535 7.10159 87.3303 7.11198C87.254 7.12238 87.1879 7.13372 87.1124 7.13372C86.8275 7.17624 86.5628 7.24049 86.3164 7.34727C86.2217 7.37939 86.1363 7.42191 86.0416 7.46444C85.9561 7.50696 85.8707 7.56082 85.786 7.60334C85.5397 7.75358 85.3118 7.935 85.1224 8.14855C84.5727 8.74668 84.251 9.58009 84.251 10.5741V11.2686V11.9622C84.251 11.9943 84.2602 12.016 84.2602 12.0482C84.2702 12.3364 84.2987 12.6142 84.3549 12.8712V12.892C84.7244 14.4624 86.0324 15.4461 87.7375 15.4461C89.1393 15.4461 90.2764 14.7724 90.8353 13.6507V13.6403C90.9207 13.4693 90.9869 13.2983 91.0439 13.1169H88.9307C88.7606 13.3947 88.5143 13.5648 88.2487 13.6403C88.0878 13.6933 87.9076 13.7037 87.7375 13.7037C87.4434 13.7037 87.1309 13.6507 86.8845 13.4797L86.856 13.458C86.6482 13.3304 86.5058 13.1169 86.4111 12.8599C86.3918 12.7956 86.3633 12.7209 86.3541 12.6567C86.3449 12.6142 86.3349 12.5613 86.3256 12.5074C86.2972 12.3685 86.2879 12.1975 86.2879 12.0264V11.9839H91.214V11.9622V11.2686V10.5741C91.2048 9.60182 90.883 8.77881 90.3334 8.17028Z" fill="white"/>
<path fill-rule="evenodd" clip-rule="evenodd" d="M77.9599 15.2959H79.1162V5.31763H77.0977V14.3349C77.0977 14.8688 77.4772 15.2959 77.9599 15.2959Z" fill="white"/>
<path fill-rule="evenodd" clip-rule="evenodd" d="M81.4657 15.2959H82.6212V5.31763H80.6035V14.3349C80.6035 14.8688 80.9915 15.2959 81.4657 15.2959Z" fill="white"/>
<path fill-rule="evenodd" clip-rule="evenodd" d="M6.93457 12.9241C6.93457 13.629 7.43648 14.1959 8.06156 14.1959H17.0616V11.6636H8.06156C7.43648 11.6532 6.93457 12.2192 6.93457 12.9241Z" fill="#03C5D3"/>
<path fill-rule="evenodd" clip-rule="evenodd" d="M17.0526 6.57812H8.05263C7.42755 6.57812 6.9248 7.14413 6.9248 7.84903C6.9248 8.55488 7.42755 9.12088 8.05263 9.12088H17.0526V6.57812Z" fill="#03C5D3"/>
<path fill-rule="evenodd" clip-rule="evenodd" d="M4.06381 5.70217C3.90209 6.03289 3.82668 6.40707 3.82668 6.78126C3.81746 7.74223 4.34786 8.46887 5.04919 8.96022C5.56953 9.3448 6.07228 9.79364 6.07228 10.5203C6.07228 11.2469 5.56953 11.6957 5.04919 12.0803C4.35707 12.5717 3.82668 13.2983 3.82668 14.2593C3.82668 14.6335 3.90293 15.0076 4.06381 15.3384C4.56571 16.4071 5.61729 16.717 6.61189 16.717H18.17V20.5203H6.43174C6.27086 20.5203 6.10998 20.5203 5.93905 20.5203C4.5565 20.5306 3.10691 20.1782 1.99836 19.1955C1.36322 18.6399 0.870529 17.9028 0.595694 17.0373C-0.0478211 15.0823 0.340131 13.1698 1.67576 11.7486C1.80899 11.5993 1.9506 11.4604 2.07377 11.2998C2.207 11.1297 2.32933 10.937 2.38631 10.713C2.40558 10.6488 2.4148 10.6053 2.4148 10.5203C2.4148 10.4352 2.40558 10.3918 2.38631 10.3285C2.33017 10.1036 2.207 9.91175 2.07377 9.74072C1.9506 9.58009 1.80899 9.44118 1.67576 9.29189C0.340131 7.87074 -0.0478211 5.94785 0.595694 4.00322C0.880583 3.14807 1.36322 2.40065 2.00757 1.84504C3.11613 0.872728 4.56571 0.508937 5.9491 0.520276C6.10998 0.520276 6.27086 0.520276 6.4418 0.520276H18.1792V4.32354H6.62111C5.61729 4.32354 4.56571 4.63347 4.06381 5.70217Z" fill="#03C5D3"/>
</g>
<defs>
<clipPath id="clip0_175_18243">
<rect width="97" height="20" fill="white" transform="translate(0.5 0.500122)"/>
</clipPath>
</defs>
</svg>
