<svg width="28" height="29" viewBox="0 0 28 29" fill="none" xmlns="http://www.w3.org/2000/svg">
<g clip-path="url(#clip0_175_18294)">
<path fill-rule="evenodd" clip-rule="evenodd" d="M24.361 6.11844C23.8506 6.11844 23.42 5.68161 23.3799 5.11061L23.2997 4.16965C23.2498 3.59865 22.8291 3.16182 22.3089 3.16182H5.9924C5.47181 3.16182 5.05148 3.59865 5.00154 4.16965L4.93155 5.11061C4.87139 5.71547 4.39091 6.17473 3.85027 6.10743C3.30963 6.05156 2.90935 5.51399 2.95929 4.90913L3.03949 3.95717C3.17948 2.24373 4.45106 0.955688 5.9924 0.955688H22.3089C23.8506 0.955688 25.1218 2.24373 25.2618 3.95717L25.342 4.90913C25.3919 5.51399 24.9916 6.05156 24.451 6.10743C24.4211 6.11844 24.3908 6.11844 24.361 6.11844Z" fill="#1565C0"/>
<path fill-rule="evenodd" clip-rule="evenodd" d="M24.2306 28.9538H4.07021C3.25944 28.9538 2.46872 28.5728 1.90803 27.9121C1.34733 27.2513 1.05715 26.3443 1.10709 25.4372L1.14719 24.8323C1.17708 24.2274 1.64773 23.7572 2.18837 23.802C2.73885 23.8355 3.14934 24.362 3.11945 24.9779L3.07935 25.5713C3.06951 25.885 3.15956 26.1762 3.34948 26.4001C3.53978 26.624 3.78986 26.7472 4.07021 26.7472H24.2306C24.5109 26.7472 24.761 26.624 24.9513 26.4001C25.1416 26.1762 25.2316 25.8736 25.2214 25.5713L25.1813 24.9779C25.1514 24.362 25.5615 23.8355 26.1124 23.802C26.653 23.7572 27.1233 24.2274 27.1536 24.8323L27.1937 25.4372C27.2436 26.3443 26.9534 27.2403 26.3927 27.9121C25.832 28.5728 25.0515 28.9538 24.2306 28.9538Z" fill="#1565C0"/>
<path fill-rule="evenodd" clip-rule="evenodd" d="M14.4805 21.5847C13.98 21.5847 13.5596 21.1703 13.4995 20.6103L12.5987 11.7294L9.46568 20.1739C9.31548 20.5883 8.95531 20.846 8.55465 20.846C8.15437 20.846 7.79382 20.5883 7.64362 20.1739L4.51063 11.7294L3.60981 20.6103C3.54966 21.2151 3.05933 21.652 2.51869 21.5847C1.96822 21.5174 1.57777 20.9688 1.64777 20.3639L2.69878 9.95971C2.78882 9.10849 3.3393 8.45918 4.0903 8.34701C4.82086 8.22384 5.5117 8.67167 5.80189 9.45558L8.55465 16.8583L11.3074 9.45558C11.5878 8.67167 12.2782 8.22384 13.019 8.34701C13.7598 8.45918 14.3205 9.10849 14.4003 9.95971L15.4615 20.3639C15.5217 20.9688 15.1313 21.5174 14.5906 21.5847C14.5505 21.5847 14.5206 21.5847 14.4805 21.5847Z" fill="#FEFEFE"/>
<path fill-rule="evenodd" clip-rule="evenodd" d="M24.9809 14.0701C25.3214 13.5101 25.5114 12.827 25.5114 12.0989C25.5114 10.1167 24.0699 8.50403 22.2982 8.50403H18.4342C17.8837 8.50403 17.4434 9.00815 17.4434 9.6126V20.2966C17.4434 20.9125 17.8837 21.4052 18.4342 21.4052H23.1191C25.071 21.4052 26.6626 19.6244 26.6626 17.4407C26.6626 16.0185 25.9918 14.7757 24.9809 14.0701ZM23.1191 19.188H19.4152V10.7211H22.2982C22.9788 10.7211 23.5395 11.337 23.5395 12.0985C23.5395 12.86 22.9788 13.4873 22.2982 13.4873H21.7276C21.1772 13.4873 20.7368 13.98 20.7368 14.5849C20.7368 15.2007 21.1772 15.6934 21.7276 15.6934H23.1191C23.9901 15.6934 24.6908 16.4773 24.6908 17.4407C24.6908 18.4037 23.9901 19.188 23.1191 19.188Z" fill="#FEFEFE"/>
</g>
<defs>
<clipPath id="clip0_175_18294">
<rect width="27" height="29" fill="white" transform="translate(0.5 0.00012207)"/>
</clipPath>
</defs>
</svg>
