<svg width="16" height="15" viewBox="0 0 16 15" fill="none" xmlns="http://www.w3.org/2000/svg">
<path d="M14.9104 2.83503C14.8689 2.4163 14.7071 2.01851 14.4446 1.68965C14.1821 1.36078 13.8301 1.11488 13.431 0.981589L11.3441 0.286901C11.2833 0.266531 11.2173 0.2674 11.157 0.289368C11.0968 0.311335 11.0457 0.353101 11.0122 0.407839L8.00005 5.43096L4.98786 0.407839C4.95456 0.352928 4.90352 0.311018 4.84318 0.28903C4.78284 0.267041 4.71681 0.266291 4.65598 0.286901L2.56911 0.981589C2.17 1.11488 1.81797 1.36078 1.55547 1.68965C1.29298 2.01851 1.13123 2.4163 1.08973 2.83503L0.125045 12.4594C0.121753 12.4985 0.126556 12.5379 0.139155 12.575C0.151754 12.6122 0.171878 12.6463 0.19827 12.6754C0.224663 12.7044 0.256757 12.7277 0.292549 12.7437C0.328341 12.7598 0.367063 12.7683 0.406295 12.7688H2.57473C2.64321 12.7687 2.70935 12.7439 2.76101 12.6989C2.81267 12.654 2.84639 12.5919 2.85598 12.5241L3.64348 6.68253L3.89098 8.78346L3.38192 14.5407C3.3775 14.5792 3.38149 14.6183 3.39363 14.6552C3.40577 14.6921 3.42576 14.726 3.45223 14.7544C3.47854 14.7835 3.51064 14.8068 3.54648 14.8228C3.58233 14.8388 3.62111 14.8471 3.66036 14.8472H6.55442C6.62815 14.8466 6.69876 14.8174 6.7513 14.7656L8.00005 13.5169L9.24879 14.7657C9.30133 14.8174 9.37194 14.8466 9.44567 14.8472H12.3397C12.379 14.8471 12.4178 14.8388 12.4536 14.8228C12.4894 14.8068 12.5216 14.7835 12.5479 14.7544C12.5743 14.726 12.5943 14.6922 12.6065 14.6553C12.6186 14.6184 12.6226 14.5793 12.6182 14.5407L12.1091 8.78346L12.3566 6.68253L13.1441 12.5241C13.1537 12.5919 13.1874 12.654 13.2391 12.6989C13.2907 12.7439 13.3569 12.7687 13.4254 12.7688H15.5938C15.633 12.7681 15.6716 12.7594 15.7072 12.7433C15.7429 12.7271 15.7749 12.7038 15.8012 12.6748C15.8276 12.6459 15.8477 12.6118 15.8604 12.5747C15.8731 12.5377 15.8781 12.4984 15.875 12.4594L14.9104 2.83503ZM11.375 5.54628H9.5413V5.17503H11.375V5.54628Z" fill="white"/>
</svg>
