<svg width="18" height="18" viewBox="0 0 18 18" fill="none" xmlns="http://www.w3.org/2000/svg">
<g clip-path="url(#clip0_850_35897)">
<path d="M17.0939 10.9052C16.5377 10.266 15.7608 9.91403 14.9062 9.91403C14.484 9.91403 14.0834 9.99911 13.7124 10.1668C13.5973 8.96921 13.1867 7.80083 12.5077 6.75222C11.9906 5.95361 11.3246 5.23576 10.5437 4.6284C11.1268 4.48985 11.7628 4.22895 12.2497 3.74204C13.4251 2.56673 13.2481 0.572773 13.2399 0.488434C13.2158 0.237137 13.0168 0.0381876 12.7656 0.0140352C12.6813 0.00587899 10.6873 -0.171168 9.51195 1.00425C8.82397 1.69218 8.58424 2.67579 8.50458 3.38654L7.13728 2.66281C6.87994 2.52658 6.56075 2.62481 6.42452 2.88219C6.28829 3.1396 6.38648 3.45871 6.6439 3.59498L7.93631 4.27905C6.93032 4.96414 6.08498 5.8228 5.46233 6.79887C4.80139 7.835 4.40118 8.98725 4.28762 10.1668C3.91669 9.99915 3.51612 9.91403 3.09375 9.91403C2.23924 9.91403 1.46232 10.266 0.906082 10.9052C0.336305 11.5598 0.0351562 12.4632 0.0351562 13.5175C0.0351562 14.6298 0.513598 15.7511 1.34782 16.5941C2.24494 17.5007 3.4643 18 4.78125 18C6.0982 18 7.31756 17.5007 8.21468 16.5941C9.0489 15.7511 9.52734 14.6298 9.52734 13.5175C9.52734 12.4632 9.2262 11.5598 8.65642 10.9052C8.10018 10.266 7.32326 9.91403 6.46875 9.91403C6.07504 9.91403 5.70023 9.988 5.35071 10.1338C5.59709 7.99988 6.91773 6.07673 8.99996 4.85252C11.0525 6.064 12.3941 8.01753 12.6475 10.1331C12.2985 9.98776 11.9243 9.91403 11.5312 9.91403C10.8529 9.91403 10.2235 10.1361 9.71455 10.5473C10.2834 11.3527 10.582 12.3702 10.582 13.5175C10.582 14.5484 10.2564 15.5814 9.66769 16.4704C9.70615 16.5122 9.74517 16.5536 9.78532 16.5941C10.6824 17.5007 11.9018 18 13.2188 18C14.5357 18 15.7551 17.5007 16.6522 16.5941C17.4864 15.7511 17.9648 14.6298 17.9648 13.5175C17.9648 12.4632 17.6637 11.5598 17.0939 10.9052Z" fill="white"/>
</g>
<defs>
<clipPath id="clip0_850_35897">
<rect width="18" height="18" fill="white"/>
</clipPath>
</defs>
</svg>
