<svg width="18" height="18" viewBox="0 0 18 18" fill="none" xmlns="http://www.w3.org/2000/svg">
<path fill-rule="evenodd" clip-rule="evenodd" d="M16.0538 12.0037C16.0538 9.72375 14.7337 6.9225 13.845 5.295L13.0538 3.95625C13.1279 4.47062 13.0985 4.99461 12.9675 5.4975C12.7955 5.93876 12.5322 6.33873 12.195 6.67125C12.1566 5.51056 11.8139 4.38033 11.2013 3.39375C11.085 3.22125 10.7887 2.75137 10.4587 2.3325C9.80777 1.50294 9.00311 0.806504 8.08875 0.28125C8.40878 0.943056 8.6009 1.65937 8.655 2.3925C8.62875 3.255 8.355 3.7725 7.06125 5.46C5.7675 7.1475 6.08625 9.66375 6.08625 9.66375C5.9829 9.31219 5.8421 8.97274 5.66625 8.65125C5.32875 7.995 3.9525 7.2225 3.86625 7.1775C3.90375 7.27125 4.5225 8.8125 3.67875 9.85875C2.60625 11.1975 1.7475 12.195 1.98375 14.1975C2.28375 16.7437 5.1825 17.4563 6.51375 17.6475H6.5175C6.91875 17.7075 7.17375 17.7188 7.17375 17.7188C6.29737 17.4188 5.79788 16.3162 5.72888 15.7099C5.67527 15.3645 5.69712 15.0115 5.79293 14.6754C5.88874 14.3392 6.05622 14.0278 6.28387 13.7625C6.46238 13.518 7.122 12.8625 7.344 12.6375C7.9261 12.1405 8.33159 11.4683 8.49975 10.7216C8.59033 10.1995 8.60662 9.66727 8.54812 9.14062C9.16529 9.53216 9.68817 10.0554 10.0793 10.6729C10.3842 11.1567 10.5535 11.7137 10.5694 12.2854C10.7354 12.1209 10.8651 11.9234 10.95 11.7056C11.0145 11.4563 11.0284 11.1965 10.9909 10.9417C10.9909 10.9417 12.5119 13.0418 12.4691 14.9078C12.4155 17.2463 10.9691 17.7176 10.9669 17.7203C10.9823 17.7165 16.0538 17.0842 16.0538 12.0037Z" fill="white"/>
</svg>
