<svg width="18" height="18" viewBox="0 0 18 18" fill="none" xmlns="http://www.w3.org/2000/svg">
<g clip-path="url(#clip0_819_4869)">
<path d="M17.9529 6.90409C17.8344 6.53961 17.5111 6.28156 17.1302 6.24709L11.9341 5.77536L9.88058 0.967661C9.72896 0.614445 9.38399 0.386475 9.00001 0.386475C8.61603 0.386475 8.27092 0.614445 8.12026 0.967661L6.06675 5.77536L0.869853 6.24709C0.488895 6.28225 0.166304 6.54029 0.0471003 6.90409C-0.0714167 7.26856 0.0380364 7.66833 0.326158 7.92102L4.25397 11.3652L3.09586 16.4659C3.01112 16.841 3.1567 17.2288 3.46789 17.4537C3.63516 17.5753 3.83168 17.636 4.02889 17.636C4.19835 17.636 4.36796 17.5909 4.51943 17.5003L9.00001 14.8212L13.4798 17.5003C13.8084 17.6967 14.2216 17.6787 14.5321 17.4537C14.8433 17.2288 14.9889 16.841 14.9042 16.4659L13.746 11.3652L17.6739 7.92102C17.9618 7.66833 18.0714 7.26939 17.9529 6.90409Z" fill="white"/>
</g>
<defs>
<clipPath id="clip0_819_4869">
<rect width="18" height="18" fill="white"/>
</clipPath>
</defs>
</svg>
