<svg width="18" height="18" viewBox="0 0 18 18" fill="none" xmlns="http://www.w3.org/2000/svg">
<g clip-path="url(#clip0_819_4882)">
<path d="M17.5579 8.40062C17.4597 8.28051 17.3061 8.25926 17.1895 8.35151C17.0413 8.46874 16.8266 8.60343 16.6223 8.60343C16.0798 8.60343 15.7017 8.10071 14.8962 8.10071C14.1236 8.10071 13.5318 8.46267 13.5318 8.46267C13.5318 8.26279 13.3994 8.10071 13.2359 8.10071H13.0183C12.863 8.10071 12.7342 8.24744 12.7231 8.43687L12.601 10.5281C12.5888 10.7376 12.7244 10.9158 12.8961 10.9158H13.3065C13.428 10.9158 13.5376 10.8251 13.5815 10.6866C13.6642 10.4255 13.8283 10.2107 14.0433 10.0991C14.2746 9.97891 14.5922 9.91294 14.9948 10.0512C15.3211 10.1632 15.4515 10.2331 15.8876 10.2322C15.8876 10.2322 13.7758 11.455 13.6375 15.1199C13.6297 15.3268 13.7637 15.5005 13.9331 15.5005H15.5273C15.6856 15.5005 15.8161 15.3479 15.8227 15.1544C15.9262 12.119 17.3662 10.0338 17.9156 9.34473C18.0289 9.2026 18.0282 8.97584 17.9134 8.83547L17.5579 8.40062Z" fill="white"/>
<path d="M16.4917 11.8759C15.7492 12.9611 14.7678 13.3776 13.8291 13.5878C13.7278 14.0442 13.6587 14.5546 13.6374 15.1242C13.6297 15.3296 13.7651 15.5009 13.9332 15.5009H15.5273C15.6855 15.5009 15.8161 15.3485 15.8227 15.1551C15.866 13.8847 16.1434 12.7807 16.4917 11.8759Z" fill="white"/>
<path d="M4.95766 8.40062C4.85947 8.28051 4.7059 8.25926 4.58929 8.35151C4.44107 8.46874 4.22634 8.60343 4.02208 8.60343C3.47962 8.60343 3.10151 8.10071 2.29601 8.10071C1.52338 8.10071 0.931599 8.46267 0.931599 8.46267C0.931599 8.26279 0.79913 8.10071 0.635689 8.10071H0.418037C0.262787 8.10071 0.133939 8.24744 0.1229 8.43687L0.00076712 10.5281C-0.0114673 10.7376 0.124201 10.9158 0.295904 10.9158H0.706248C0.827748 10.9158 0.937365 10.8251 0.981275 10.6866C1.064 10.4255 1.22811 10.2107 1.44305 10.0991C1.67438 9.97891 1.99202 9.91294 2.39463 10.0512C2.72091 10.1632 2.85127 10.2331 3.28735 10.2322C3.28735 10.2322 1.17562 11.455 1.03731 15.1199C1.02951 15.3268 1.16352 15.5005 1.33291 15.5005H2.92707C3.08541 15.5005 3.21584 15.3479 3.22245 15.1544C3.32602 12.119 4.76599 10.0338 5.31534 9.34473C5.42865 9.2026 5.42798 8.97584 5.31323 8.83547L4.95766 8.40062Z" fill="white"/>
<path d="M3.89148 11.8759C3.14898 12.9611 2.16759 13.3776 1.22889 13.5878C1.1276 14.0442 1.05852 14.5546 1.03718 15.1242C1.02948 15.3296 1.16487 15.5009 1.33295 15.5009H2.92707C3.08531 15.5009 3.21585 15.3485 3.22246 15.1551C3.26573 13.8847 3.54319 12.7807 3.89148 11.8759Z" fill="white"/>
<path d="M13.0702 1.87818C12.9674 1.75243 12.8055 1.73669 12.6877 1.84081C12.4203 2.07703 11.923 2.45108 11.4548 2.45108C10.4285 2.45108 9.71315 1.5 8.18923 1.5C6.72751 1.5 5.60789 2.1848 5.60789 2.1848V1.86197C5.60789 1.66208 5.47542 1.5 5.31198 1.5H4.39057C4.23532 1.5 4.10647 1.64673 4.09543 1.83616L3.82669 6.43832C3.81446 6.64784 3.95013 6.82605 4.12183 6.82605H5.37044C5.50287 6.82605 5.61819 6.71802 5.65496 6.56239C5.78964 5.99246 6.12307 5.5158 6.57556 5.28074C7.01326 5.05338 7.61415 4.92863 8.37584 5.19018C8.99315 5.40214 9.23981 5.53429 10.0648 5.53257C10.0648 5.53257 5.93498 7.92403 5.79798 15.131C5.79411 15.3335 5.92834 15.4999 6.09396 15.4999H9.63851C9.79974 15.4999 9.93056 15.3419 9.93418 15.1447C10.0502 8.86212 13.2135 4.66832 14.0819 3.63313C14.1999 3.49246 14.2007 3.26097 14.0842 3.1185L13.0702 1.87818Z" fill="white"/>
<path d="M11.2078 8.64087C9.80302 10.6942 7.94631 11.4821 6.17036 11.8798C5.95876 12.8332 5.82144 13.9115 5.79806 15.1273C5.79415 15.331 5.92743 15.4991 6.09397 15.4991H9.63853C9.79975 15.4991 9.93053 15.3411 9.93419 15.1439C9.98088 12.6142 10.5217 10.4234 11.2078 8.64087Z" fill="white"/>
</g>
<defs>
<clipPath id="clip0_819_4882">
<rect width="18" height="18" fill="white"/>
</clipPath>
</defs>
</svg>
