<svg width="25" height="24" viewBox="0 0 25 24" fill="none" xmlns="http://www.w3.org/2000/svg">
<g clip-path="url(#clip0_1_137)">
<path fill-rule="evenodd" clip-rule="evenodd" d="M8.78036 14.3207C8.91795 16.0152 9.20215 19.1522 9.47101 19.8588C9.62087 20.2527 10.0083 20.7561 10.3632 21.2175C10.6038 21.5301 10.8295 21.8234 10.9562 22.0501C11.1119 22.3286 11.4046 22.4968 11.721 22.4968H14.2789C14.5954 22.4968 14.8881 22.3286 15.0437 22.0501C15.1705 21.8234 15.3961 21.5301 15.6367 21.2175C15.9917 20.7561 16.3791 20.2527 16.5289 19.8588C16.7978 19.1522 17.082 16.0152 17.2196 14.3207C17.8306 14.5144 20.7801 15.4765 22.2246 16.4398C23.729 17.4431 24.5329 19.5114 24.9084 21.8278C24.9577 22.132 24.7807 22.4265 24.4906 22.5304C21.2828 23.6783 18.6423 23.998 13 23.9489C7.35768 23.998 4.71711 23.6783 1.50935 22.5304C1.21922 22.4265 1.04221 22.132 1.09153 21.8278C1.4671 19.5114 2.27093 17.4431 3.77535 16.4398C5.21981 15.4765 8.16934 14.5144 8.78036 14.3207Z" fill="white"/>
<path d="M12.0067 16.2721C12.0067 15.9064 12.3032 15.6099 12.6689 15.6099H13.4635C13.8292 15.6099 14.1257 15.9064 14.1257 16.2721V17.0668C14.1257 17.4325 13.8292 17.729 13.4635 17.729H12.6689C12.3032 17.729 12.0067 17.4325 12.0067 17.0668V16.2721Z" fill="white"/>
<path d="M16.1684 15.6407C15.9548 15.5386 14.9061 15.7161 14.4598 15.7982C14.3651 15.8156 14.3208 15.9268 14.3582 16.0155C14.3789 16.0645 14.3945 16.1167 14.3945 16.1628V17.1761C14.3945 17.2221 14.3789 17.2744 14.3582 17.3234C14.3208 17.4121 14.3651 17.5233 14.4598 17.5407C14.9061 17.6228 15.9548 17.8003 16.1684 17.6981C16.3227 17.6243 16.4116 17.4879 16.4597 17.3833C16.5015 17.2922 16.5095 17.1909 16.5095 17.0907V16.2482C16.5095 16.148 16.5015 16.0466 16.4597 15.9556C16.4116 15.851 16.3227 15.7145 16.1684 15.6407Z" fill="white"/>
<path d="M9.96403 15.6407C10.1775 15.5386 11.2263 15.7161 11.6726 15.7982C11.7673 15.8156 11.8116 15.9268 11.7742 16.0155C11.7535 16.0645 11.7378 16.1167 11.7378 16.1628V17.1761C11.7378 17.2221 11.7535 17.2744 11.7742 17.3234C11.8116 17.4121 11.7673 17.5233 11.6726 17.5407C11.2263 17.6228 10.1775 17.8003 9.96403 17.6981C9.80968 17.6243 9.7208 17.4879 9.67271 17.3833C9.63087 17.2922 9.62291 17.1909 9.62291 17.0907V16.2482C9.62291 16.148 9.63087 16.0466 9.67271 15.9556C9.7208 15.851 9.80968 15.7145 9.96403 15.6407Z" fill="white"/>
<path d="M12.9338 14.9477C10.3723 14.9477 8.59897 12.3149 8.33626 9.81382C8.33626 9.81382 7.81083 9.40245 7.67947 9.28727C7.15404 8.82654 7.02268 7.18106 7.15404 7.04942C7.2854 6.91778 7.67947 7.04942 7.67947 7.04942C7.38108 5.91056 7.33975 5.2606 7.41675 4.08756C7.47958 3.13056 8.48766 1.08642 10.3513 0.379212C11.7116 -0.136982 14.7878 0.114331 15.5824 1.17386C16.7743 1.10764 18.1649 2.63071 18.3636 3.75645C18.5622 4.8822 18.532 5.85545 18.2311 7.00126C18.2311 7.00126 18.6284 6.86882 18.7609 7.00126C18.8933 7.1337 18.7609 8.78921 18.2311 9.25275C18.0987 9.36864 17.5689 9.78252 17.5689 9.78252C17.3041 12.2989 15.5162 14.9477 12.9338 14.9477Z" fill="white"/>
</g>
<defs>
<clipPath id="clip0_1_137">
<rect width="24" height="24" fill="white" transform="translate(0.962891)"/>
</clipPath>
</defs>
</svg>
