<svg width="20" height="20" viewBox="0 0 20 20" fill="none" xmlns="http://www.w3.org/2000/svg">
<g clip-path="url(#clip0_1483_3576)">
<path d="M17.7161 7.19569C14.6091 4.75821 11.7586 1.61977 10.5766 0.262419C10.2719 -0.0874731 9.7287 -0.0874731 9.424 0.262419C8.24192 1.61973 5.3915 4.75817 2.28449 7.19569C0.874794 8.30162 0.0498047 9.96457 0.0498047 11.7265C0.0498047 14.8537 2.65522 17.3888 5.86914 17.3888C6.9561 17.3888 7.94484 16.9801 8.68243 16.3123V17.4165C8.68243 18.7606 7.7191 18.9273 6.97162 19.555C6.79185 19.7059 6.90224 20 7.13697 20H12.8438C13.0778 20 13.1883 19.708 13.0104 19.556C12.2706 18.9237 11.3181 18.7826 11.3181 17.4265V16.3123C12.0557 16.9801 13.0444 17.3888 14.1314 17.3888C17.3453 17.3888 19.9507 14.8537 19.9507 11.7265C19.9508 9.96457 19.1258 8.30162 17.7161 7.19569Z" fill="white"/>
</g>
<defs>
<clipPath id="clip0_1483_3576">
<rect width="20" height="20" fill="white"/>
</clipPath>
</defs>
</svg>
