<svg width="20" height="20" viewBox="0 0 20 20" fill="none" xmlns="http://www.w3.org/2000/svg">
<g clip-path="url(#clip0_1390_3540)">
<path d="M12.3453 10.5864C12.3453 12.2029 11.0302 13.5179 9.41379 13.5179C7.79734 13.5179 6.48227 12.2029 6.48227 10.5864C6.48227 8.96993 7.79734 7.65481 9.41379 7.65481C10.0105 7.65481 10.5659 7.8345 11.0296 8.14196L12.7296 6.44188C12.6913 6.41383 12.6527 6.3859 12.6135 6.35848C11.4606 5.55282 10.3057 5.14563 9.17594 5.14563C9.07246 5.14563 8.96926 5.14903 8.86621 5.15586C7.50309 5.24864 6.23316 5.85547 5.29125 6.8645C4.34699 7.87442 3.82715 9.19606 3.82715 10.5864C3.82715 12.0781 4.4084 13.4809 5.46379 14.5363C6.51926 15.5918 7.92203 16.173 9.41375 16.173C10.9055 16.173 12.3083 15.5918 13.3637 14.5363C14.4191 13.4809 15.0003 12.0781 15.0003 10.5864C15.0003 9.35852 14.5045 8.17969 13.6092 7.2195L11.8581 8.97059C12.1657 9.43422 12.3453 9.98965 12.3453 10.5864Z" fill="white"/>
<path d="M8.99961 10.1721L10.1727 8.99893C9.94285 8.88857 9.68551 8.82666 9.41395 8.82666C8.44367 8.82666 7.6543 9.61607 7.6543 10.5864C7.6543 11.5567 8.44367 12.346 9.41395 12.346C10.3842 12.346 11.1736 11.5567 11.1736 10.5864C11.1736 10.3148 11.1117 10.0574 11.0014 9.82756L9.82828 11.0006L8.99961 10.1721Z" fill="white"/>
<path d="M15.1673 5.66129L14.4383 6.39035C15.5532 7.57086 16.1721 9.04211 16.1721 10.5864C16.1721 12.3912 15.4689 14.0882 14.1922 15.365C12.9154 16.6418 11.2183 17.345 9.41359 17.345C7.60887 17.345 5.9118 16.6418 4.635 15.365C3.3582 14.0882 2.65508 12.3912 2.65508 10.5864C2.65508 8.89785 3.28715 7.29195 4.43477 6.06453C5.5798 4.83781 7.12578 4.09973 8.78746 3.98664C10.2895 3.88738 11.802 4.36188 13.2846 5.39797C13.3808 5.46523 13.4744 5.53453 13.5663 5.60508L14.3387 4.83266L14.4625 2.6377C12.9674 1.68395 11.2298 1.17285 9.41363 1.17285C6.89918 1.17285 4.5352 2.15203 2.75723 3.93C0.97918 5.70797 0 8.07195 0 10.5864C0 13.1009 0.97918 15.4648 2.75719 17.2428C4.5352 19.0208 6.89914 20 9.41359 20C11.928 20 14.292 19.0208 16.07 17.2428C17.848 15.4648 18.8271 13.1009 18.8271 10.5864C18.8271 8.7702 18.316 7.03266 17.3623 5.53758L15.1673 5.66129Z" fill="white"/>
<path d="M15.5332 4.46695L17.9277 4.33199L20.0002 2.25945L17.7407 0L15.6682 2.0725L15.5332 4.46695Z" fill="white"/>
</g>
<defs>
<clipPath id="clip0_1390_3540">
<rect width="20" height="20" fill="white"/>
</clipPath>
</defs>
</svg>
