<svg width="20" height="20" viewBox="0 0 20 20" fill="none" xmlns="http://www.w3.org/2000/svg">
<g clip-path="url(#clip0_1483_3598)">
<path d="M9.6203 2.56671V0C7.24094 0.0887628 4.97202 1.02605 3.22363 2.64232L5.03855 4.45723C6.30365 3.31999 7.92139 2.65251 9.6203 2.56671Z" fill="white"/>
<path d="M0 9.62067H2.56652C2.65325 7.8999 3.33667 6.26306 4.49911 4.99129L2.68531 3.17749C1.0431 4.93144 0.0895041 7.21944 0 9.62067Z" fill="white"/>
<path d="M4.4778 14.9851C3.32796 13.7167 2.65269 12.0895 2.56652 10.3796H0C0.0891334 12.7697 1.03458 15.0483 2.66381 16.7995L4.4778 14.9851Z" fill="white"/>
<path d="M16.7989 2.664C15.0478 1.03458 12.7692 0.0891334 10.3789 0V2.56652C12.0889 2.65269 13.7163 3.32833 14.9848 4.47817L16.7989 2.664Z" fill="white"/>
<path d="M17.3358 3.20068L15.5215 5.01486C16.6713 6.28329 17.3468 7.91067 17.4329 9.6207H19.9995C19.9103 7.23041 18.9651 4.95185 17.3358 3.20068Z" fill="white"/>
<path d="M16.6844 10.0002C16.6844 6.31458 13.6857 3.31592 10.0001 3.31592C6.31451 3.31592 3.31641 6.31458 3.31641 10.0002C3.31641 13.6858 6.3147 16.6839 10.0001 16.6839C13.6855 16.6839 16.6844 13.6856 16.6844 10.0002ZM8.01546 13.6624C7.8876 13.7297 7.73268 13.7184 7.61594 13.6335C7.49901 13.5487 7.44045 13.4047 7.46491 13.2624L7.84387 11.0522L6.23817 9.4867C6.13477 9.38589 6.09752 9.23505 6.14218 9.09773C6.18684 8.96023 6.30562 8.86017 6.44849 8.83941L8.66756 8.51679L9.66008 6.50601C9.72401 6.37648 9.85595 6.29438 10.0003 6.29438C10.1448 6.29438 10.2768 6.37648 10.3407 6.50601L11.333 8.51679L13.5523 8.83941C13.6952 8.86017 13.814 8.96023 13.8586 9.09773C13.9033 9.23505 13.866 9.38589 13.7626 9.4867L12.1567 11.0522L12.5359 13.2624C12.5602 13.4047 12.5018 13.5487 12.3849 13.6335C12.2679 13.7184 12.113 13.7297 11.9851 13.6624L10.0001 12.6188L8.01546 13.6624Z" fill="white"/>
<path d="M19.9998 10.3796H17.4333C17.3477 12.0785 16.6802 13.6963 15.543 14.9616L17.3575 16.7763C18.9738 15.0279 19.9112 12.759 19.9998 10.3796Z" fill="white"/>
<path d="M15.0083 15.5007C13.7365 16.6634 12.0997 17.3466 10.3789 17.4333V19.9998C12.7801 19.9103 15.0681 18.9567 16.8221 17.3145L15.0083 15.5007Z" fill="white"/>
<path d="M9.62003 17.4332C7.91018 17.3471 6.28299 16.6718 5.01455 15.522L3.2002 17.3363C4.95136 18.9656 7.22992 19.9108 9.62003 20V17.4332Z" fill="white"/>
<path d="M11.4839 10.6476L12.6819 9.48001L11.0264 9.2393C10.9026 9.22132 10.7959 9.14386 10.7405 9.03175L10.0001 7.53149L9.25984 9.03175C9.20462 9.14386 9.09769 9.22132 8.97409 9.2393L7.31836 9.48001L8.51638 10.6476C8.60588 10.7349 8.64665 10.8606 8.62553 10.9836L8.34275 12.6325L9.82355 11.854C9.93399 11.7958 10.0661 11.7958 10.1767 11.854L11.6575 12.6325L11.3748 10.9836C11.3536 10.8604 11.3944 10.7349 11.4839 10.6476Z" fill="white"/>
</g>
<defs>
<clipPath id="clip0_1483_3598">
<rect width="20" height="20" fill="white"/>
</clipPath>
</defs>
</svg>
