<svg width="20" height="20" viewBox="0 0 20 20" fill="none" xmlns="http://www.w3.org/2000/svg">
<g clip-path="url(#clip0_1483_3514)">
<path d="M19.2387 5.0648C18.7524 2.93711 17.0634 1.24766 14.9357 0.761413C11.7065 0.0232961 8.29343 0.0241085 5.06427 0.761413C2.93658 1.24766 1.24754 2.93711 0.761292 5.0648C0.0235797 8.29356 0.0235797 11.7066 0.761292 14.9354C1.24754 17.0635 2.93699 18.7525 5.06468 19.2384C8.29885 19.9769 11.7011 19.9768 14.9353 19.2384C17.063 18.7525 18.7524 17.0635 19.2387 14.9354C19.9764 11.7066 19.9764 8.29356 19.2387 5.0648ZM15.2921 13.5462L14.2948 14.5436C13.5819 15.2565 12.6371 15.6263 11.6813 15.6263C11.0237 15.6263 10.3613 15.4518 9.76479 15.0933C7.77993 13.8998 6.10024 12.2202 4.90721 10.2353C4.02708 8.77126 4.25291 6.90846 5.45653 5.70526L6.45384 4.70795C6.88312 4.27785 7.63223 4.27867 8.06069 4.70795L9.14549 5.79275C9.58861 6.23586 9.58861 6.95648 9.14549 7.3996L8.71865 7.82644C8.39639 8.14871 8.35448 8.65204 8.62059 8.9979C9.30744 9.89146 10.1086 10.6926 11.0018 11.3791C11.3476 11.646 11.851 11.6037 12.1737 11.2814L12.6005 10.8546C13.0436 10.4107 13.765 10.4115 14.2073 10.8546C14.2073 10.8546 15.292 11.9393 15.2921 11.9394C15.7225 12.3698 15.7351 13.1041 15.2921 13.5462Z" fill="white"/>
<path d="M13.0574 12.1652C12.2928 12.9301 11.0811 13.018 10.2396 12.3698C9.261 11.6175 8.3825 10.739 7.62973 9.75997C6.98195 8.91891 7.06984 7.70756 7.83481 6.94259L8.18108 6.59591L7.25701 5.67224L6.34026 6.58899C5.54355 7.3857 5.39462 8.62024 5.97853 9.59151C7.06658 11.4018 8.59816 12.9334 10.4085 14.0218C11.3793 14.6045 12.6135 14.4568 13.411 13.6597L14.3277 12.743L13.4041 11.8189L13.0574 12.1652Z" fill="white"/>
</g>
<defs>
<clipPath id="clip0_1483_3514">
<rect width="20" height="20" fill="white"/>
</clipPath>
</defs>
</svg>
