<svg width="20" height="20" viewBox="0 0 20 20" fill="none" xmlns="http://www.w3.org/2000/svg">
<g clip-path="url(#clip0_1483_3581)">
<path d="M18.6477 13.6643H19.1224V3.40914C19.1224 2.14248 18.091 1.11108 16.8244 1.11108H3.33223C2.06557 1.11108 1.03418 2.14248 1.03418 3.40914V13.6643H1.50891H18.6477ZM1.98365 3.40914C1.98365 3.30411 1.99625 3.19908 2.01936 3.10035H18.1414C18.1646 3.19908 18.1772 3.30201 18.1772 3.40914V11.8115H1.98365V3.40914Z" fill="white" stroke="white"/>
<path d="M19.1229 16.3639H12.2182V16.4815V16.4836C12.2182 16.7546 11.9997 16.9731 11.7288 16.9731H8.43082C8.15984 16.9731 7.94138 16.7546 7.94138 16.4836V16.4815V16.3639H1.03461H-1.03027V17.2188C-1.03027 17.8826 -0.492521 18.4204 0.171268 18.4204H19.9904C20.6542 18.4204 21.1919 17.8826 21.1919 17.2188V16.3639H19.1229Z" fill="white" stroke="white"/>
</g>
<defs>
<clipPath id="clip0_1483_3581">
<rect width="20" height="20" fill="white"/>
</clipPath>
</defs>
</svg>
