<svg width="20" height="20" viewBox="0 0 20 20" fill="none" xmlns="http://www.w3.org/2000/svg">
<g clip-path="url(#clip0_1483_3588)">
<path d="M18.7108 1.35376L11.1691 0.0239542C10.3209 -0.125616 9.51195 0.44079 9.36238 1.28903L9.29102 1.69384C10.3817 1.82821 11.3031 2.61391 11.5932 3.69653L12.0541 5.41665C12.2982 5.31083 12.5748 5.2727 12.8564 5.32235C13.3906 5.41657 13.8005 5.80106 13.9532 6.28493C14.2622 5.88247 14.7789 5.66134 15.3131 5.75556C16.0778 5.8904 16.5884 6.61958 16.4535 7.38423C16.1605 9.04571 14.3776 10.3811 13.5315 10.9304L14.8233 15.7516C14.8926 16.01 14.9214 16.2698 14.9151 16.5247L16.002 16.7163C16.8502 16.8659 17.6591 16.2995 17.8087 15.4512L19.9759 3.16056C20.1255 2.31224 19.5591 1.50333 18.7108 1.35376Z" fill="white"/>
<path d="M10.4636 3.99935C10.2768 3.30255 9.64673 2.84298 8.9581 2.84302C8.8245 2.84302 8.68864 2.86032 8.55345 2.89653L1.15634 4.87856C0.324348 5.10149 -0.169402 5.95669 0.0535276 6.78868L3.28364 18.8437C3.47036 19.5405 4.10048 20 4.78911 20C4.92271 20 5.05857 19.9827 5.19372 19.9465L12.5908 17.9645C13.4228 17.7415 13.9166 16.8863 13.6936 16.0543L10.4636 3.99935ZM4.70743 12.2396C4.582 12.1293 4.53517 11.9544 4.58861 11.7961L5.7197 8.447C5.81431 8.16685 6.16361 8.07325 6.38564 8.26856L9.03978 10.6035C9.16521 10.7138 9.21204 10.8887 9.15861 11.047L8.02751 14.3961C7.9329 14.6763 7.58361 14.7699 7.36157 14.5745L4.70743 12.2396Z" fill="white"/>
</g>
<defs>
<clipPath id="clip0_1483_3588">
<rect width="20" height="20" fill="white"/>
</clipPath>
</defs>
</svg>
