<svg width="20" height="20" viewBox="0 0 20 20" fill="none" xmlns="http://www.w3.org/2000/svg">
<g clip-path="url(#clip0_1390_3507)">
<path d="M8.16384 3.03691C8.16384 1.95996 9.04001 1.08379 10.117 1.08379H10.7929L10.589 0.516992C10.4743 0.198242 10.174 0 9.8538 0C9.76509 0 9.67486 0.0152344 9.58665 0.0473437L2.75646 2.53332C2.3504 2.68113 2.14142 3.13047 2.29009 3.53621L2.65099 4.52129H8.16384V3.03691Z" fill="white"/>
<path d="M10.1172 2.25562C9.6857 2.25562 9.33594 2.60538 9.33594 3.03687V4.52124H16.1719V3.03687C16.1719 2.60538 15.8221 2.25562 15.3906 2.25562H10.1172Z" fill="white"/>
<path d="M18.2422 15.7908H15.5078C13.8924 15.7908 12.5781 14.4765 12.5781 12.8611C12.5781 11.2457 13.8924 9.9314 15.5078 9.9314H18.2422V7.25562C18.2422 6.39269 17.5426 5.69312 16.6797 5.69312H1.5625C0.69957 5.69312 0 6.39269 0 7.25562V18.4375C0 19.3004 0.69957 20 1.5625 20H16.6797C17.5426 20 18.2422 19.3004 18.2422 18.4375V15.7908Z" fill="white"/>
<path d="M19.4141 11.1033H15.5078C14.5386 11.1033 13.75 11.8918 13.75 12.8611C13.75 13.8303 14.5386 14.6189 15.5078 14.6189H19.4141C19.7371 14.6189 20 14.356 20 14.033V11.6892C20 11.3661 19.7371 11.1033 19.4141 11.1033ZM15.5078 13.447C15.1842 13.447 14.9219 13.1847 14.9219 12.8611C14.9219 12.5375 15.1842 12.2751 15.5078 12.2751C15.8314 12.2751 16.0938 12.5375 16.0938 12.8611C16.0938 13.1847 15.8314 13.447 15.5078 13.447Z" fill="white"/>
</g>
<defs>
<clipPath id="clip0_1390_3507">
<rect width="20" height="20" fill="white"/>
</clipPath>
</defs>
</svg>
