<svg width="25" height="24" viewBox="0 0 25 24" fill="none" xmlns="http://www.w3.org/2000/svg">
<g clip-path="url(#clip0_1_139)">
<path fill-rule="evenodd" clip-rule="evenodd" d="M15.8698 0.477397C14.9394 0.244193 13.9657 0.120361 12.963 0.120361C12.0307 0.120361 11.1233 0.227429 10.2527 0.42994C11.0519 1.00685 12.0336 1.3468 13.0947 1.3468C14.1263 1.3468 15.0829 1.02544 15.8698 0.477397ZM18.0087 1.23819C16.7659 2.52309 15.0235 3.32194 13.0947 3.32194C11.1241 3.32194 9.34822 2.48819 8.10071 1.15421C5.48839 2.32314 3.37383 4.40503 2.16284 6.99408C3.5263 8.24358 4.3812 10.039 4.3812 12.0341C4.3812 14.0301 3.52549 15.8263 2.16091 17.0758C3.37038 19.6642 5.48283 21.7462 8.09298 22.9164C9.33235 21.6615 11.0539 20.8838 12.9571 20.8838C14.8621 20.8838 16.5851 21.663 17.8248 22.9201C20.4971 21.7244 22.6486 19.5734 23.8449 16.9014C22.5875 15.6619 21.8081 13.939 21.8081 12.0341C21.8081 10.13 22.5868 8.40787 23.843 7.16853C22.674 4.56002 20.5944 2.44844 18.0087 1.23819ZM24.5795 9.3677C24.0761 10.1332 23.7833 11.0495 23.7833 12.0341C23.7833 13.0193 24.0765 13.9361 24.5805 14.702C24.7763 13.8451 24.8797 12.9532 24.8797 12.037C24.8797 11.1193 24.7759 10.2259 24.5795 9.3677ZM15.6244 23.6554C14.8587 23.1519 13.9421 22.8589 12.9571 22.8589C11.9733 22.8589 11.0579 23.1511 10.2928 23.6534C11.1512 23.8499 12.045 23.9537 12.963 23.9537C13.8779 23.9537 14.7687 23.8506 15.6244 23.6554ZM1.41226 14.979C2.03577 14.1619 2.40606 13.1412 2.40606 12.0341C2.40606 10.9276 2.03622 9.9075 1.41338 9.09058C1.17371 10.0329 1.04633 11.0201 1.04633 12.037C1.04633 13.0524 1.17331 14.038 1.41226 14.979ZM12.963 6.83583C10.0904 6.83583 7.76179 9.16448 7.76179 12.037C7.76179 14.9096 10.0904 17.2382 12.963 17.2382C15.8355 17.2382 18.1642 14.9096 18.1642 12.037C18.1642 9.16448 15.8355 6.83583 12.963 6.83583ZM5.91833 12.037C5.91833 8.14637 9.07233 4.99237 12.963 4.99237C16.8536 4.99237 20.0076 8.14637 20.0076 12.037C20.0076 15.9277 16.8536 19.0817 12.963 19.0817C9.07233 19.0817 5.91833 15.9277 5.91833 12.037ZM11.5593 15.3877C11.9602 15.568 12.4198 15.6581 12.9381 15.6581C13.4696 15.6581 13.9403 15.5702 14.35 15.3945C14.762 15.2165 15.0831 14.9732 15.3135 14.6645C15.546 14.3536 15.6623 13.9976 15.6623 13.5966C15.6645 13.1708 15.5305 12.8159 15.2603 12.5321C14.9923 12.2482 14.5948 12.0747 14.0676 12.0116V11.9575C14.4619 11.899 14.7841 11.7435 15.0344 11.4912C15.2869 11.2388 15.412 10.9178 15.4098 10.528C15.4098 10.1518 15.3068 9.81493 15.1009 9.51753C14.8949 9.21788 14.6069 8.98132 14.2371 8.80784C13.8672 8.63436 13.4386 8.54762 12.9513 8.54762C12.4619 8.54762 12.0255 8.63661 11.6424 8.8146C11.2614 8.99258 10.9602 9.23929 10.7387 9.55471C10.5172 9.86788 10.4043 10.2306 10.3998 10.6429H11.9713C11.9757 10.4852 12.0211 10.3466 12.1075 10.2272C12.1939 10.1078 12.3102 10.0155 12.4563 9.95011C12.6047 9.88478 12.7697 9.85211 12.9513 9.85211C13.1241 9.85211 13.2758 9.88478 13.4065 9.95011C13.5394 10.0155 13.6424 10.1078 13.7155 10.2272C13.7908 10.3444 13.8273 10.4807 13.8251 10.6362C13.8273 10.7961 13.7852 10.9381 13.6989 11.062C13.6125 11.1836 13.4918 11.2783 13.3367 11.3459C13.1839 11.4134 13.0067 11.4472 12.8052 11.4472H12.144V12.6368H12.8052C13.0355 12.6368 13.2348 12.6717 13.4032 12.7416C13.5737 12.8114 13.7055 12.9094 13.7985 13.0356C13.8915 13.1618 13.937 13.306 13.9347 13.4682C13.937 13.6304 13.896 13.7746 13.8118 13.9008C13.7277 14.0247 13.6103 14.1227 13.4597 14.1948C13.3113 14.2646 13.1396 14.2995 12.9447 14.2995C12.7498 14.2995 12.5759 14.2669 12.4231 14.2015C12.2703 14.1362 12.1496 14.0461 12.061 13.9312C11.9724 13.814 11.9248 13.68 11.9181 13.529H10.2636C10.2681 13.9458 10.3855 14.3142 10.6158 14.6341C10.8461 14.954 11.1606 15.2053 11.5593 15.3877Z" fill="white"/>
</g>
<defs>
<clipPath id="clip0_1_139">
<rect width="24" height="24" fill="white" transform="translate(0.925903)"/>
</clipPath>
</defs>
</svg>
