<!DOCTYPE svg PUBLIC "-//W3C//DTD SVG 1.1//EN" "http://www.w3.org/Graphics/SVG/1.1/DTD/svg11.dtd">
<!-- Uploaded to: SVG Repo, www.svgrepo.com, Transformed by: SVG Repo Mixer Tools -->
<svg fill="#ffffff" height="64px" width="64px" version="1.1" id="Layer_1" xmlns="http://www.w3.org/2000/svg" xmlns:xlink="http://www.w3.org/1999/xlink" viewBox="0 0 512.00 512.00" xml:space="preserve" stroke="#ffffff" stroke-width="0.0051199900000000005" transform="matrix(1, 0, 0, -1, 0, 0)rotate(0)">
<g id="SVGRepo_bgCarrier" stroke-width="0"/>
<g id="SVGRepo_tracerCarrier" stroke-linecap="round" stroke-linejoin="round" stroke="#ffffffCCCCCC" stroke-width="6.143988"/>
<g id="SVGRepo_iconCarrier"> <g> <g> <path d="M211.576,78.438c-0.003-0.004-0.004-0.007-0.004-0.007c-55.354-55.354-43.668-43.667-58.917-58.923 C126.639-6.497,84.29-6.497,58.295,19.477c-26.153,26.007-26.128,68.232-0.032,94.316c48.334,48.334,21.149,21.158,97.394,97.397 l85.29-103.332C240.945,107.856,211.58,78.438,211.576,78.438z M128.975,137.348l-23.55-23.55l47.213-47.136l23.551,23.546 L128.975,137.348z"/> </g> </g> <g> <g> <path d="M492.482,359.342c-74.725-74.726-50.088-50.104-88.342-88.292l-103.333,85.289c84.586,84.594,69.319,69.309,97.392,97.396 c25.731,25.731,67.978,26.436,94.3-0.011C518.505,427.696,518.499,385.363,492.482,359.342z M398.199,406.571l-23.55-23.55 l47.14-47.214l23.546,23.551L398.199,406.571z"/> </g> </g> <g> <g> <path d="M504.299,182.532l-54.215-54.219c8.811-18.574,5.732-41.43-9.618-56.787c-15.353-15.345-38.208-18.426-56.783-9.614 L329.465,7.698c-6.513-6.513-17.076-6.513-23.579,0c-6.513,6.513-6.513,17.07,0,23.579l52.048,52.044L345.98,95.275 c-25.043-3.487-51.375,4.24-70.588,23.37c-0.391,0.386-0.76,0.793-1.107,1.211L123.653,302.355 c-31.288-15.004-69.947-9.133-95.19,16.11L4.885,342.049c-6.513,6.513-6.513,17.07,0,23.579 c5.219,5.219,141.481,141.481,141.484,141.485c6.513,6.513,17.065,6.514,23.579,0l23.585-23.579 c25.244-25.24,31.124-63.903,16.112-95.192l182.496-150.629c0.429-0.358,0.841-0.733,1.237-1.129 c17.724-17.884,27.199-43.083,23.382-70.605l11.915-11.916l52.044,52.048c6.513,6.513,17.065,6.514,23.579,0 C510.812,199.603,510.812,189.045,504.299,182.532z M62.663,376.248l-22.41-22.41l11.789-11.795 c13.1-13.104,32.212-17.5,49.279-12.633L62.663,376.248z M169.953,459.955l-11.795,11.789l-22.41-22.41l46.838-38.66 C187.45,427.738,183.053,446.851,169.953,459.955z M322.556,213.021l-70.743,70.743c-6.513,6.513-17.065,6.514-23.579,0 c-6.514-6.509-6.514-17.071,0-23.579l70.743-70.743c6.513-6.513,17.066-6.513,23.579,0 C329.069,195.949,329.069,206.512,322.556,213.021z M416.888,118.694l-12.967,12.967c-3.066-4.636-6.605-9.001-10.623-13.016 c-4.036-4.019-8.388-7.534-12.976-10.554l12.982-12.982c6.503-6.508,17.087-6.498,23.579,0 C423.386,101.613,423.386,112.191,416.888,118.694z"/> </g> </g> </g>
</svg>