<!DOCTYPE svg PUBLIC "-//W3C//DTD SVG 1.1//EN" "http://www.w3.org/Graphics/SVG/1.1/DTD/svg11.dtd">
<!-- Uploaded to: SVG Repo, www.svgrepo.com, Transformed by: SVG Repo Mixer Tools -->
<svg width="64px" height="64px" viewBox="0 0 24 24" xmlns="http://www.w3.org/2000/svg" id="headset-alt" class="icon glyph" fill="#ffffff" stroke="#ffffff">
<g id="SVGRepo_bgCarrier" stroke-width="0"/>
<g id="SVGRepo_tracerCarrier" stroke-linecap="round" stroke-linejoin="round"/>
<g id="SVGRepo_iconCarrier">
<path d="M8,9H7a4,4,0,0,0-4,4v1a4,4,0,0,0,4,4H8a2,2,0,0,0,2-2V11A2,2,0,0,0,8,9Z" style="fill:#ffffff"/>
<path d="M17,9H16a2,2,0,0,0-2,2v5a2,2,0,0,0,2,2h1a4,4,0,0,0,4-4V13A4,4,0,0,0,17,9Z" style="fill:#ffffff"/>
<path d="M20,15h-.09A1,1,0,0,1,19,13.91l.19-2a7.22,7.22,0,1,0-14.38,0l.19,2a1,1,0,0,1-2,.18l-.18-2a9.22,9.22,0,1,1,18.36,0l-.18,2A1,1,0,0,1,20,15Z" style="fill:#ffffff"/>
<path d="M15.25,21H12a1,1,0,0,1,0-2h3.25c.41,0,.75-.46.75-1V17a1,1,0,0,1,2,0v1A2.89,2.89,0,0,1,15.25,21Z" style="fill:#ffffff"/>
</g>
</svg>