<svg width="24" height="24" viewBox="0 0 24 24" fill="none" xmlns="http://www.w3.org/2000/svg">
<g clip-path="url(#clip0_1_135)">
<path fill-rule="evenodd" clip-rule="evenodd" d="M10.1944 14.1012C10.1819 14.1029 10.1795 14.1032 10.1862 14.0996C9.99013 14.2066 9.46563 14.6277 8.69084 15.3527C7.96073 16.0359 7.10885 16.8918 6.29655 17.7534C5.48298 18.6164 4.72338 19.4698 4.17348 20.148C3.91921 20.4615 3.72258 20.7219 3.58872 20.9196C3.66981 20.9985 3.78499 21.0897 3.9353 21.1792C4.36106 21.4326 4.89989 21.575 5.38575 21.5144L5.38543 21.5145C5.38543 21.5145 5.39892 21.5126 5.42852 21.5057C5.45974 21.4985 5.5017 21.4874 5.55542 21.4712C5.66389 21.4385 5.80171 21.3906 5.96925 21.3257C6.30469 21.1958 6.72026 21.0131 7.19437 20.7883C8.14082 20.3394 9.26925 19.747 10.3631 19.1369C11.4571 18.5268 12.4988 17.9087 13.2723 17.4114C13.6616 17.1612 13.966 16.9523 14.1708 16.7968C14.2091 16.7677 14.2412 16.7425 14.2678 16.7211C14.3046 16.5524 14.2632 16.4031 14.1315 16.2065C13.9223 15.8943 13.5331 15.5592 12.9924 15.1818C12.3499 14.7335 11.6509 14.3942 11.0576 14.2196C10.5067 14.0575 10.2502 14.0934 10.1944 14.1012ZM11.7681 12.017C12.655 12.2779 13.5917 12.7455 14.4162 13.321C14.9954 13.7251 15.6989 14.2696 16.1643 14.9645C16.6682 15.7167 16.9034 16.6708 16.4613 17.7201C16.3929 17.8898 16.2999 18.0123 16.2511 18.0729C16.1863 18.1533 16.1183 18.2225 16.0608 18.2772C15.9454 18.3869 15.8094 18.497 15.6728 18.6008C15.3956 18.8112 15.0313 19.0589 14.6199 19.3234C13.792 19.8557 12.7043 20.5002 11.5802 21.1272C10.456 21.7542 9.27762 22.3736 8.26773 22.8525C7.76367 23.0916 7.28868 23.3018 6.87608 23.4616C6.49266 23.6101 6.06692 23.7539 5.69787 23.7999C4.55123 23.9427 3.45756 23.6106 2.65894 23.1352C2.25522 22.895 1.88597 22.5944 1.60493 22.2493C1.33767 21.9211 1.07017 21.4517 1.07017 20.8947C1.07017 20.579 1.19209 20.3142 1.24703 20.2001C1.32091 20.0467 1.41479 19.8911 1.51099 19.7449C1.70514 19.4497 1.96794 19.1037 2.2655 18.7367C2.86455 17.998 3.66648 17.0986 4.50316 16.2112C5.3411 15.3224 6.22819 14.4304 7.00193 13.7064C7.731 13.0241 8.47523 12.3788 8.98892 12.0984C9.87088 11.6171 10.9628 11.78 11.7681 12.017Z" fill="white"/>
<path d="M0.450941 8.30478C2.39258 11.1758 4.24697 12.62 7.07262 15.2217C7.07262 15.2217 8.79971 13.0679 10.167 13.0006C11.5343 12.9333 16.1399 15.0871 15.78 16.7025C15.4202 18.3179 12.1819 19.1929 12.1819 19.1929C12.1819 19.1929 17.5791 23.0968 20.7454 23.1641C21.7529 23.1641 22.8323 22.9622 23.3361 22.3564C23.8398 21.7506 23.9118 21.4814 23.7678 20.2026C22.3286 14.3467 15.9659 9.16594 7.21654 4.98019C7.13342 4.02467 6.85187 2.12176 6.71575 1.22661C6.6703 0.927737 6.45871 0.680656 6.16957 0.586797L4.48415 0.0396987C4.17717 -0.0599483 3.83884 0.0314485 3.62865 0.275077C2.10721 2.03857 1.57309 3.01604 0.315677 5.50315C-0.137296 6.39912 -0.11188 7.47257 0.450941 8.30478Z" fill="white"/>
<path d="M15.9009 2.1643C14.8233 2.15642 12.9282 5.44627 13.2834 5.92082C13.4605 6.15737 14.9505 6.83703 16.2855 7.76316C17.6287 8.69498 18.8174 9.87217 19.1428 9.73929C19.7916 9.47434 19.3267 4.88622 18.903 4.00663C18.4792 3.12705 16.9785 2.17217 15.9009 2.1643Z" fill="white"/>
</g>
<defs>
<clipPath id="clip0_1_135">
<rect width="24" height="24" fill="white"/>
</clipPath>
</defs>
</svg>
