<svg width="38" height="32" viewBox="0 0 38 32" fill="none" xmlns="http://www.w3.org/2000/svg">
<g clip-path="url(#clip0_175_18569)">
<mask id="mask0_175_18569" style="mask-type:luminance" maskUnits="userSpaceOnUse" x="0" y="1" width="38" height="30">
<path d="M37.6799 1.28027H0.879883V30.7203H37.6799V1.28027Z" fill="white"/>
</mask>
<g mask="url(#mask0_175_18569)">
<path d="M22.2334 29.1256C18.6047 30.9649 14.5691 31.1617 10.9817 29.994C7.39039 28.8271 4.24888 26.2917 2.40423 22.6668C0.56133 19.0454 0.364132 15.0177 1.53417 11.4372C2.70726 7.85242 5.24707 4.71619 8.87583 2.87694C12.5079 1.03596 16.5432 0.83828 20.1311 2.00679C20.7655 2.21402 21.386 2.46394 21.9878 2.75481V4.54651C21.2381 4.12768 20.4504 3.78344 19.6369 3.51805C16.4369 2.47855 12.8374 2.65449 9.59813 4.29642C6.3591 5.93816 4.09201 8.73479 3.04661 11.9272C2.00374 15.1204 2.18134 18.7132 3.82643 21.946C5.47153 25.1788 8.2741 27.4399 11.4728 28.4833C14.672 29.5253 18.2719 29.348 21.5111 27.7062C24.7503 26.0643 27.0161 23.2675 28.0602 20.0746C28.4251 18.9588 28.6406 17.7944 28.6969 16.6137H30.2942C30.2369 17.9628 29.9937 19.2937 29.5769 20.5686C28.4058 24.1493 25.8655 27.2847 22.2334 29.1256Z" fill="white"/>
<path d="M12.5239 10.0179V21.9828H8.48192V13.0604H6.42676V10.0179H12.5239ZM23.0739 15.6756C23.5878 15.9947 23.9845 16.3849 24.2643 16.8464C24.544 17.3079 24.6838 17.8349 24.6838 18.4275C24.6838 19.191 24.4584 19.8633 24.0074 20.4444C23.5563 21.0256 22.9226 21.4729 22.1063 21.7862C21.2899 22.0996 20.3565 22.2563 19.3061 22.2563C18.2556 22.2563 17.3222 22.0996 16.5059 21.7862C15.6895 21.4729 15.0558 21.0256 14.6049 20.4444C14.1539 19.8633 13.9283 19.191 13.9283 18.4275C13.9283 17.8349 14.0682 17.3079 14.3479 16.8464C14.6276 16.3849 15.0244 15.9947 15.5382 15.6756C14.7504 15.0489 14.3564 14.2626 14.3564 13.3168C14.3564 12.5988 14.5649 11.9722 14.9816 11.4366C15.3983 10.9011 15.9806 10.4851 16.7285 10.1889C17.4764 9.89248 18.3356 9.74438 19.3061 9.74438C20.2766 9.74438 21.1357 9.89248 21.8836 10.1889C22.6315 10.4851 23.2138 10.9011 23.6305 11.4366C24.0473 11.9722 24.2557 12.5988 24.2557 13.3168C24.2557 14.2626 23.8618 15.0489 23.0739 15.6756ZM19.3061 12.4621C19.0207 12.4621 18.7894 12.5533 18.6124 12.7356C18.4355 12.918 18.347 13.1686 18.347 13.4877C18.347 13.8067 18.4355 14.0575 18.6124 14.2398C18.7894 14.4221 19.0207 14.5133 19.3061 14.5133C19.5916 14.5133 19.8228 14.4221 19.9997 14.2398C20.1767 14.0575 20.2652 13.8067 20.2652 13.4877C20.2652 13.1686 20.1767 12.918 19.9997 12.7356C19.8228 12.5533 19.5916 12.4621 19.3061 12.4621ZM19.3061 19.5385C19.6943 19.5385 20.0111 19.4246 20.2566 19.1967C20.5021 18.9688 20.6248 18.6668 20.6248 18.2908C20.6248 17.9148 20.5021 17.6128 20.2566 17.3848C20.0111 17.1569 19.6943 17.043 19.3061 17.043C18.9179 17.043 18.601 17.1569 18.3555 17.3848C18.1101 17.6128 17.9874 17.9148 17.9874 18.2908C17.9874 18.6668 18.1101 18.9688 18.3555 19.1967C18.601 19.4246 18.9179 19.5385 19.3061 19.5385Z" fill="white"/>
<path d="M32.8977 9.19364H30.0718V11.9284H26.9889V9.19364H24.1631V6.28786H26.9889V3.55298H30.0718V6.28786H32.8977V9.19364Z" fill="white"/>
</g>
</g>
<defs>
<clipPath id="clip0_175_18569">
<rect width="37.12" height="32" fill="white" transform="translate(0.879883 0.000244141)"/>
</clipPath>
</defs>
</svg>
