<svg width="27" height="23" viewBox="0 0 27 23" fill="none" xmlns="http://www.w3.org/2000/svg">
<g clip-path="url(#clip0_175_18226)">
<path d="M1.883 19.0191C0.955 19.0191 0 19.7451 0 21.0161C0 22.1781 0.84 22.9981 1.883 22.9981C2.744 22.9981 3.128 22.4341 3.128 22.4341V22.6801C3.128 22.7961 3.241 22.9261 3.38 22.9261H4.003V19.1061H3.128V19.5911C3.128 19.5911 2.741 19.0191 1.883 19.0191ZM2.039 19.8001C2.803 19.8001 3.204 20.4561 3.204 21.0151C3.204 21.6391 2.728 22.2301 2.04 22.2311C1.466 22.2311 0.89 21.7761 0.89 21.0071C0.89 20.3131 1.385 19.8001 2.039 19.8001ZM5.218 22.9271C5.083 22.9271 4.966 22.8331 4.966 22.6811V19.1071H5.841V19.5801C6.039 19.2891 6.426 19.0191 7.021 19.0191C7.992 19.0191 8.509 19.7751 8.509 20.4821V22.9271H7.902C7.83223 22.9276 7.76506 22.9006 7.71508 22.8519C7.66509 22.8032 7.63631 22.7368 7.635 22.6671V20.6701C7.635 20.2781 7.389 19.8021 6.82 19.8021C6.206 19.8021 5.84 20.3681 5.84 20.9021V22.9271H5.218ZM11.062 19.0221C10.134 19.0221 9.179 19.7481 9.179 21.0181C9.179 22.1801 10.019 23.0011 11.062 23.0011C11.923 23.0011 12.307 22.4361 12.307 22.4361V22.6821C12.307 22.7991 12.42 22.9281 12.559 22.9281H13.182V17.1981H12.307V19.5931C12.307 19.5931 11.92 19.0221 11.062 19.0221ZM11.218 19.8021C11.982 19.8021 12.383 20.4591 12.383 21.0181C12.383 21.6411 11.907 22.2331 11.219 22.2331C10.645 22.2331 10.069 21.7791 10.069 21.0101C10.069 20.3161 10.564 19.8021 11.218 19.8021ZM14.396 22.9241C14.261 22.9241 14.144 22.8301 14.144 22.6781V19.1041H15.018V19.7411C15.168 19.3841 15.494 19.0611 16.071 19.0611C16.231 19.0611 16.382 19.0901 16.382 19.0901V19.9721C16.382 19.9721 16.194 19.9001 15.967 19.9001C15.353 19.9001 15.018 20.4661 15.018 20.9991V22.9241H14.396ZM21.69 22.9281C21.555 22.9281 21.437 22.8341 21.437 22.6821V19.1081H22.312V22.9281H21.69ZM24.88 19.0221C23.951 19.0221 22.997 19.7481 22.997 21.0181C22.997 22.1801 23.837 23.0011 24.88 23.0011C25.741 23.0011 26.125 22.4361 26.125 22.4361V22.6821C26.125 22.7991 26.238 22.9281 26.377 22.9281H27V17.1981H26.125V19.5931C26.125 19.5931 25.738 19.0221 24.88 19.0221ZM25.036 19.8021C25.8 19.8021 26.201 20.4591 26.201 21.0181C26.201 21.6411 25.725 22.2331 25.037 22.2331C24.462 22.2331 23.887 21.7791 23.887 21.0101C23.887 20.3161 24.382 19.8021 25.036 19.8021ZM21.87 18.2821C22.189 18.2821 22.448 18.0301 22.448 17.7181C22.4471 17.6429 22.4314 17.5687 22.4018 17.4997C22.3722 17.4306 22.3293 17.3681 22.2755 17.3156C22.2218 17.2632 22.1582 17.2218 22.0884 17.1939C22.0187 17.166 21.9441 17.1521 21.869 17.1531C21.7175 17.1515 21.5715 17.2101 21.4631 17.316C21.3547 17.4219 21.2928 17.5665 21.291 17.7181C21.291 18.0301 21.55 18.2821 21.869 18.2821H21.87ZM18.69 19.0191C17.719 19.0191 16.65 19.7271 16.65 21.0101C16.65 22.1801 17.56 23.0001 18.689 23.0001C20.079 23.0001 20.759 21.9091 20.759 21.0181C20.759 19.9251 19.883 19.0191 18.69 19.0191ZM18.694 19.8161C19.366 19.8161 19.868 20.3461 19.868 21.0131C19.868 21.6921 19.336 22.2161 18.696 22.2161C18.102 22.2161 17.526 21.7451 17.526 21.0241C17.526 20.2921 18.074 19.8161 18.694 19.8161ZM20.086 4.44905L22.325 0.665053C22.3546 0.61468 22.3739 0.558889 22.3816 0.500965C22.3893 0.443041 22.3854 0.384155 22.37 0.327777C22.3546 0.271398 22.3281 0.218666 22.2921 0.172687C22.256 0.126708 22.2111 0.0884117 22.16 0.060053C22.0567 0.000589397 21.9342 -0.0159617 21.8188 0.0139586C21.7034 0.0438789 21.6044 0.117881 21.543 0.220053L19.276 4.05305C17.546 3.28305 15.598 2.85305 13.504 2.85305C11.41 2.85305 9.462 3.28305 7.732 4.05305L5.465 0.221053C5.40304 0.118672 5.30348 0.0446066 5.18761 0.0147043C5.07173 -0.0151981 4.94876 0.00143806 4.845 0.061053C4.79392 0.0892979 4.74903 0.127511 4.713 0.173428C4.67696 0.219344 4.65051 0.272029 4.63522 0.328357C4.61992 0.384686 4.6161 0.443512 4.62396 0.501349C4.63182 0.559185 4.65122 0.614853 4.681 0.665053L6.919 4.45005C5.00076 5.45932 3.3646 6.93118 2.15872 8.73232C0.952841 10.5335 0.215334 12.607 0.013 14.7651H26.995C26.7927 12.6066 26.0549 10.5327 24.8484 8.7315C23.642 6.93028 22.005 5.45766 20.086 4.44905ZM7.31 11.0681C6.685 11.0681 6.18 10.5721 6.18 9.96405C6.18 9.35405 6.688 8.86005 7.31 8.86005C7.936 8.86005 8.441 9.35605 8.441 9.96405C8.444 10.5721 7.935 11.0681 7.31 11.0681ZM19.697 11.0681C19.071 11.0681 18.566 10.5721 18.566 9.96405C18.566 9.35405 19.074 8.86005 19.696 8.86005C20.322 8.86005 20.828 9.35605 20.828 9.96405C20.83 10.5721 20.322 11.0681 19.697 11.0681Z" fill="#AAC148"/>
</g>
<defs>
<clipPath id="clip0_175_18226">
<rect width="27" height="23" fill="white"/>
</clipPath>
</defs>
</svg>
