<svg width="99" height="32" viewBox="0 0 99 32" fill="none" xmlns="http://www.w3.org/2000/svg">
<g clip-path="url(#clip0_175_18430)">
<path d="M38.2956 0.921172C38.456 0.993508 38.456 0.993508 38.6197 1.06731C39.5292 1.51895 40.2239 2.16763 40.9347 2.87801C41.0754 3.01311 41.0754 3.01311 41.2189 3.15094C43.3502 5.32948 43.5073 8.39905 43.4949 11.2809C43.4947 11.3846 43.4944 11.4882 43.4942 11.5951C43.4879 13.2384 43.4207 14.8423 43.1148 16.4607C43.0951 16.5695 43.0753 16.6783 43.055 16.7904C42.1811 21.4408 40.6003 27.7111 36.518 30.5934C34.1397 32.1626 31.2467 32.2904 28.5165 31.7732C25.2267 31.0889 22.3849 29.4934 19.7715 27.4133C18.3435 26.2773 16.8304 25.2817 15.2323 24.4032C15.1614 24.3639 15.0906 24.3247 15.0175 24.2843C12.0177 22.6597 8.49116 21.8928 5.18018 21.2364C1.74513 20.5484 1.74513 20.5484 0.968301 19.5848C0.618987 18.9327 0.680557 18.2547 0.842353 17.5453C1.41827 15.8946 2.89331 14.4446 4.21696 13.3528C4.2789 13.3008 4.34084 13.2487 4.40465 13.1951C5.56152 12.2233 6.75756 11.3284 8.00348 10.4751C8.07241 10.4276 8.14133 10.3801 8.21235 10.3311C10.3681 8.84859 12.6074 7.49496 14.8881 6.21614C15.0656 6.11589 15.2431 6.01562 15.4205 5.91533C15.9297 5.62851 16.4412 5.34616 16.9534 5.06506C17.0376 5.01852 17.1217 4.97198 17.2084 4.92404C21.2585 2.69222 25.6947 0.988667 30.2636 0.230524C30.3445 0.21704 30.4253 0.203556 30.5086 0.189663C33.1224 -0.226237 35.8581 -0.19731 38.2956 0.921172Z" fill="#69205C"/>
<path d="M18.7521 11.3766C18.8488 11.3762 18.9455 11.3758 19.0452 11.3754C19.2501 11.3749 19.4551 11.3746 19.66 11.3746C19.9672 11.3744 20.2743 11.3723 20.5815 11.3701C21.5135 11.3667 22.4419 11.3803 23.3696 11.4764C23.5106 11.4909 23.6516 11.5054 23.7969 11.5203C24.3571 11.6742 24.7249 11.964 25.0343 12.4683C25.0679 12.5537 25.1015 12.639 25.136 12.7269C25.1886 12.8553 25.1886 12.8553 25.2423 12.9863C25.4639 13.6237 25.4533 14.1749 25.4444 14.8492C24.99 14.8492 24.5357 14.8492 24.0675 14.8492C24.0488 14.5344 24.0301 14.2197 24.0115 13.9049C23.9463 13.5476 23.8584 13.3822 23.6085 13.1226C23.2718 13.01 23.0499 12.9916 22.699 12.9889C22.584 12.9878 22.4691 12.9867 22.3507 12.9856C22.2267 12.9851 22.1026 12.9846 21.9748 12.9841C21.847 12.9834 21.7192 12.9828 21.5876 12.9821C21.3171 12.981 21.0465 12.9802 20.776 12.9798C20.3627 12.9787 19.9495 12.9751 19.5363 12.9715C19.2734 12.9707 19.0105 12.9701 18.7476 12.9697C18.6243 12.9683 18.5009 12.9668 18.3738 12.9654C17.4957 12.9641 17.4957 12.9641 16.7239 13.3528C16.3099 13.9293 16.3311 14.4958 16.338 15.1783C16.338 15.287 16.3379 15.3957 16.3379 15.5077C16.3381 15.7372 16.3392 15.9667 16.3411 16.1962C16.3438 16.5443 16.3435 16.8923 16.3427 17.2404C16.3434 17.4643 16.3442 17.6882 16.3452 17.9121C16.345 18.0661 16.345 18.0661 16.3449 18.2233C16.349 19.2634 16.349 19.2634 16.6092 20.2592C17.225 20.698 17.9031 20.6551 18.6383 20.6504C18.7547 20.6508 18.871 20.6511 18.991 20.6514C19.2362 20.6517 19.4814 20.651 19.7267 20.6496C20.1001 20.6477 20.4734 20.6496 20.8469 20.6518C21.086 20.6516 21.3251 20.6511 21.5642 20.6504C21.7303 20.6515 21.7303 20.6515 21.8997 20.6526C22.5845 20.6455 23.1012 20.5538 23.7233 20.2592C23.8999 20.0179 23.8999 20.0179 23.9456 19.7269C23.9679 19.6352 23.9903 19.5435 24.0133 19.449C24.0859 18.9924 24.1313 18.5318 24.1822 18.0722C22.7812 18.0722 21.3802 18.0722 19.9368 18.0722C19.9368 17.6164 19.9368 17.1605 19.9368 16.6909C21.7921 16.6909 23.6475 16.6909 25.5592 16.6909C25.5592 20.4287 25.5592 20.4287 24.756 21.5254C24.4961 21.7191 24.2479 21.8431 23.9528 21.9859C23.8605 22.0333 23.7682 22.0808 23.6731 22.1298C23.6139 22.1582 23.5547 22.1867 23.4938 22.2161C23.5766 22.2493 23.6594 22.2826 23.7448 22.3168C24.3232 22.7553 24.5787 23.4325 24.7344 24.1298C24.7415 24.22 24.7486 24.3102 24.756 24.4031C24.8696 24.4411 24.9831 24.4791 25.1002 24.5182C25.1002 24.7082 25.1002 24.8981 25.1002 25.0938C25.1696 25.1174 25.2389 25.141 25.3104 25.1653C25.6609 25.3889 25.7224 25.6364 25.8675 26.0218C26.0052 26.4527 26.0052 26.4527 26.2476 26.8204C26.5008 27.7799 26.5052 28.734 26.4914 29.7197C26.4904 29.8622 26.4894 30.0047 26.4883 30.1516C26.4856 30.4992 26.4819 30.8469 26.4771 31.1945C23.8288 30.3462 21.635 28.8383 19.4508 27.1539C15.1839 23.8743 10.4154 22.2727 5.17659 21.235C1.74665 20.5503 1.74665 20.5503 0.968301 19.5848C0.618987 18.9326 0.680557 18.2547 0.842353 17.5452C1.41899 15.8924 2.89415 14.4479 4.21696 13.3528C4.36415 13.2268 4.51131 13.1007 4.65845 12.9746C4.82195 12.8368 4.98555 12.699 5.14925 12.5614C5.26652 12.4605 5.26652 12.4605 5.38616 12.3576C5.82361 11.9946 6.14885 11.7364 6.74131 11.7413C7.04834 11.8438 7.04834 11.8438 7.35088 12.0003C7.90452 12.2734 8.44743 12.4782 9.03617 12.6621C9.03617 12.7381 9.03617 12.8141 9.03617 12.8923C9.13556 12.9045 9.23496 12.9167 9.33737 12.9292C9.74538 13.0116 10.0453 13.1453 10.4131 13.3384C10.5267 13.3974 10.6403 13.4565 10.7573 13.5173C10.8709 13.577 10.9845 13.6366 11.1015 13.6981C11.2675 13.7809 11.2675 13.7809 11.4368 13.8654C11.8357 14.0664 12.2288 14.2773 12.6219 14.4895C13.7103 15.1898 13.7103 15.1898 14.8881 15.5398C14.8993 15.4119 14.9105 15.284 14.9221 15.1522C15.1505 12.7831 15.1505 12.7831 15.8921 12.0938C16.8007 11.5153 17.686 11.3781 18.7521 11.3766Z" fill="#B91E62"/>
<path d="M38.2955 0.921016C38.4024 0.969239 38.5094 1.01746 38.6195 1.06715C39.5291 1.5188 40.2237 2.16747 40.9346 2.87785C41.0752 3.01295 41.0752 3.01295 41.2187 3.15078C43.3501 5.32932 43.5072 8.39889 43.4948 11.2807C43.4944 11.4363 43.4944 11.4363 43.494 11.5949C43.4878 13.2374 43.4242 14.8435 43.1147 16.4606C43.0925 16.5773 43.0703 16.6941 43.0475 16.8143C42.659 18.785 42.0606 20.6699 41.3936 22.5613C41.1641 22.4462 41.1641 22.4462 41.0785 22.1904C41.0523 22.0825 41.0261 21.9746 40.9991 21.8635C40.8784 21.3911 40.7385 20.9439 40.5608 20.4907C40.4664 20.2341 40.3921 19.9755 40.3178 19.7124C40.1499 19.1305 39.9174 18.5859 39.6711 18.0334C39.5577 17.7268 39.5577 17.7268 39.5577 17.2663C39.4819 17.2663 39.4062 17.2663 39.3282 17.2663C39.0396 16.6973 38.7758 16.1268 38.525 15.5397C38.4444 15.3811 38.3631 15.2228 38.2811 15.0649C38.1092 14.7264 37.9987 14.4242 37.9513 14.0433C37.8755 14.0433 37.7998 14.0433 37.7218 14.0433C37.6447 13.8949 37.5684 13.7462 37.4923 13.5973C37.4497 13.5145 37.4071 13.4317 37.3632 13.3464C37.2628 13.1225 37.2628 13.1225 37.2628 12.8922C37.1871 12.8922 37.1113 12.8922 37.0333 12.8922C37.0582 12.9968 37.0582 12.9968 37.0835 13.1036C37.241 13.8165 37.2836 14.4646 37.2628 15.1944C36.8084 15.1944 36.354 15.1944 35.8859 15.1944C35.8829 15.0834 35.88 14.9724 35.8769 14.8581C35.8704 14.7127 35.8639 14.5672 35.8572 14.4174C35.8519 14.2732 35.8466 14.129 35.8411 13.9804C35.7617 13.5291 35.6767 13.3896 35.3122 13.1225C34.9906 13.0206 34.6971 12.9919 34.3609 12.9888C34.2648 12.9877 34.1686 12.9866 34.0695 12.9854C33.9665 12.985 33.8635 12.9845 33.7573 12.984C33.5969 12.983 33.5969 12.983 33.4332 12.982C33.207 12.9809 32.9809 12.9801 32.7547 12.9797C32.4102 12.9786 32.0658 12.975 31.7213 12.9714C31.5012 12.9706 31.281 12.97 31.0609 12.9696C30.9073 12.9674 30.9073 12.9674 30.7507 12.9653C30.1189 12.9675 29.6726 13.044 29.1161 13.3527C28.6435 14.0623 28.6774 14.8289 28.6571 15.6548C28.654 15.7761 28.6508 15.8973 28.6476 16.0222C28.6384 16.4417 28.6329 16.8611 28.6284 17.2807C28.6259 17.4164 28.6235 17.5522 28.6209 17.692C28.6177 18.5648 28.655 19.4458 29.0013 20.2591C29.342 20.5762 29.5697 20.6479 30.0299 20.6492C30.1429 20.6502 30.2559 20.6513 30.3723 20.6525C30.4936 20.6518 30.6149 20.6511 30.7399 20.6503C30.8653 20.6507 30.9906 20.651 31.1197 20.6513C31.3847 20.6516 31.6496 20.6509 31.9146 20.6495C32.3198 20.6476 32.7248 20.6495 33.13 20.6517C33.3875 20.6515 33.645 20.651 33.9025 20.6503C34.0236 20.651 34.1447 20.6517 34.2695 20.6525C35.0827 20.657 35.0827 20.657 35.7711 20.2591C35.898 19.8775 35.9227 19.545 35.9504 19.144C35.96 19.0083 35.9697 18.8725 35.9796 18.7326C35.9865 18.6286 35.9935 18.5246 36.0006 18.4174C36.455 18.4174 36.9094 18.4174 37.3775 18.4174C37.4623 20.6021 37.4623 20.6021 36.7823 21.5181C36.0087 22.0873 35.2377 22.1581 34.3082 22.18C34.1358 22.1857 34.1358 22.1857 33.96 22.1914C29.2071 22.3336 29.2071 22.3336 27.9973 21.3958C27.3293 20.5395 27.2123 19.638 27.2273 18.5788C27.2274 18.3933 27.2274 18.3933 27.2276 18.2041C27.2283 17.9444 27.2301 17.6846 27.2329 17.4249C27.2371 17.0296 27.2376 16.6345 27.2376 16.2391C27.2387 15.9855 27.24 15.7318 27.2416 15.4781C27.2419 15.3612 27.2421 15.2443 27.2424 15.1238C27.2589 13.8665 27.4452 12.8418 28.3559 11.9282C29.5177 11.2067 31.1365 11.3716 32.4579 11.3682C32.7224 11.3671 32.9869 11.3635 33.2515 11.3599C34.3082 11.3524 35.3768 11.3707 36.3449 11.8563C36.2762 11.7732 36.2076 11.6901 36.1369 11.6045C35.8859 11.2807 35.8859 11.2807 35.742 11.0262C35.1143 10.0203 34.2566 9.01697 33.2307 8.41787C32.9219 8.22979 32.6943 7.9709 32.4436 7.71238C32.2528 7.59653 32.0615 7.48149 31.8699 7.36706C31.7463 7.26349 31.6246 7.15774 31.5041 7.05051C30.7694 6.40658 30.0196 5.8976 29.1161 5.52533C28.5712 5.22276 28.0453 4.89825 27.5455 4.52533C27.1753 4.25267 26.7911 4.08112 26.3622 3.91382C26.251 3.86871 26.1398 3.82361 26.0252 3.77713C25.9471 3.74627 25.869 3.7154 25.7885 3.68361C25.7885 3.60763 25.7885 3.53166 25.7885 3.45339C25.5234 3.37742 25.2584 3.30145 24.9853 3.22317C24.9853 3.1472 24.9853 3.07123 24.9853 2.99296C24.5688 2.91699 24.1523 2.84102 23.7231 2.76274C23.7231 2.68677 23.7231 2.6108 23.7231 2.53253C23.5338 2.53253 23.3445 2.53253 23.1494 2.53253C23.1494 2.41857 23.1494 2.30461 23.1494 2.1872C27.8056 0.559537 33.5201 -1.27024 38.2955 0.921016Z" fill="#3790CB"/>
<path d="M23.7227 2.53266C23.7227 2.60864 23.7227 2.68461 23.7227 2.76288C23.867 2.7795 24.0114 2.79612 24.1601 2.81324C24.4601 2.84777 24.6951 2.89619 24.9848 2.9931C24.9848 3.06907 24.9848 3.14504 24.9848 3.22331C25.1197 3.24824 25.1197 3.24824 25.2574 3.27367C25.5586 3.33842 25.5586 3.33842 25.788 3.45353C25.788 3.5295 25.788 3.60547 25.788 3.68374C25.8713 3.69754 25.9546 3.71134 26.0404 3.72556C26.8576 3.91193 27.5471 4.38277 28.1977 4.89462C28.7078 5.27347 29.2662 5.56287 29.8543 5.79885C30.679 6.17626 31.3549 6.71844 31.9842 7.3672C32.0978 7.44317 32.2114 7.51914 32.3284 7.59741C32.6726 7.82763 32.6726 7.82763 32.9523 8.1154C33.2343 8.41991 33.2343 8.41991 33.6121 8.59022C34.2697 8.94313 34.7183 9.57115 35.197 10.1298C35.2677 10.2095 35.3384 10.2891 35.4112 10.3712C35.8159 10.8307 36.1487 11.2675 36.3444 11.8564C36.2517 11.8319 36.1589 11.8074 36.0633 11.7821C35.0242 11.5305 34.06 11.4604 32.9955 11.4724C32.7378 11.4751 32.4802 11.4747 32.2224 11.474C30.085 11.415 30.085 11.415 28.1977 12.2017C27.7043 12.79 27.5105 13.4079 27.3945 14.1586C27.3187 14.1206 27.243 14.0826 27.165 14.0435C27.165 13.9675 27.165 13.8915 27.165 13.8132C27.0963 13.799 27.0277 13.7848 26.957 13.7701C26.706 13.6981 26.706 13.6981 26.3618 13.4679C26.3618 13.354 26.3618 13.24 26.3618 13.1226C26.2955 13.0894 26.2292 13.0561 26.161 13.0219C25.9219 12.902 25.6829 12.7821 25.4438 12.6622C25.4438 12.5862 25.4438 12.5102 25.4438 12.4319C25.3551 12.3892 25.3551 12.3892 25.2645 12.3456C24.9848 12.2017 24.9848 12.2017 24.6172 11.9714C23.43 11.2919 21.6468 11.4714 20.3157 11.4747C20.0133 11.4751 19.7111 11.4724 19.4088 11.4695C17.4757 11.447 17.4757 11.447 15.8054 12.3168C15.1545 13.2908 15.074 14.402 15.0022 15.5399C14.658 15.655 14.658 15.655 14.4268 15.5664C14.3394 15.5186 14.2519 15.4708 14.1618 15.4216C14.0635 15.3688 13.9653 15.316 13.8641 15.2616C13.7068 15.175 13.7068 15.175 13.5464 15.0866C13.3281 14.969 13.1096 14.8515 12.8911 14.7341C12.7826 14.6755 12.6741 14.6169 12.5622 14.5565C12.1244 14.3225 11.6818 14.0989 11.2372 13.878C11.1668 13.8429 11.0963 13.8078 11.0238 13.7717C10.8201 13.6703 10.6163 13.5691 10.4125 13.4679C10.3336 13.4271 10.2547 13.3863 10.1734 13.3442C10.0933 13.303 10.0132 13.2617 9.93066 13.2193C9.82201 13.1627 9.82201 13.1627 9.71117 13.105C9.48824 13.0046 9.27389 12.9446 9.03557 12.8924C9.03557 12.8164 9.03557 12.7404 9.03557 12.6622C8.89831 12.6384 8.76105 12.6147 8.61963 12.5902C7.83883 12.4198 7.12114 12.0701 6.39648 11.7413C6.92205 11.152 7.55499 10.7488 8.21086 10.3168C8.33227 10.2364 8.45367 10.1559 8.57876 10.073C10.6397 8.71352 12.7344 7.4234 14.8875 6.21612C15.065 6.11587 15.2425 6.0156 15.4199 5.91531C15.9291 5.62849 16.4406 5.34614 16.9528 5.06504C17.037 5.0185 17.1211 4.97197 17.2078 4.92402C18.7624 4.06736 20.3653 3.33371 22.0015 2.64777C22.1363 2.59025 22.1363 2.59025 22.2739 2.53157C22.872 2.28821 23.1364 2.29984 23.7227 2.53266Z" fill="#E91F28"/>
<path d="M30.3984 12.8739C30.5426 12.8722 30.5426 12.8722 30.6898 12.8705C30.7934 12.87 30.8971 12.8695 31.0038 12.869C31.1109 12.8684 31.2181 12.8677 31.3284 12.867C31.5553 12.866 31.7821 12.8652 32.009 12.8648C32.3545 12.8637 32.6999 12.8601 33.0454 12.8564C33.2661 12.8557 33.4868 12.8551 33.7075 12.8546C33.8615 12.8525 33.8615 12.8525 34.0187 12.8503C34.6516 12.8526 35.0993 12.9274 35.6563 13.2377C35.9421 13.6679 35.9095 13.899 35.9001 14.4104C35.898 14.5569 35.896 14.7033 35.8938 14.8542C35.8912 14.9665 35.8885 15.0788 35.8858 15.1946C36.3402 15.1946 36.7945 15.1946 37.2627 15.1946C37.187 14.4349 37.1112 13.6752 37.0332 12.8924C37.1089 12.8924 37.1847 12.8924 37.2627 12.8924C37.3397 13.0408 37.4161 13.1896 37.4922 13.3385C37.5348 13.4213 37.5774 13.5041 37.6213 13.5894C37.7217 13.8133 37.7217 13.8133 37.7217 14.0435C37.7974 14.0435 37.8731 14.0435 37.9511 14.0435C37.9985 14.1575 38.0458 14.2714 38.0946 14.3888C38.3402 14.9634 38.6234 15.5179 38.9112 16.0723C38.9898 16.2254 38.9898 16.2254 39.0699 16.3816C39.119 16.4761 39.1681 16.5707 39.2187 16.668C39.3281 16.9212 39.3281 16.9212 39.3281 17.2665C39.4038 17.2665 39.4795 17.2665 39.5576 17.2665C39.5757 17.3336 39.5939 17.4007 39.6127 17.4698C39.772 18.0312 39.9575 18.565 40.1886 19.1011C40.4251 19.6537 40.5939 20.1993 40.7413 20.7814C40.8108 21.0327 40.893 21.2592 40.999 21.4967C41.3632 22.3227 41.4468 22.6995 41.1339 23.5544C41.0917 23.6612 41.0496 23.768 41.0062 23.878C40.9426 24.0453 40.9426 24.0453 40.8778 24.2158C40.2529 25.8262 39.4991 27.7301 38.1806 28.8924C38.1033 28.7466 38.027 28.6002 37.9511 28.4536C37.9086 28.3721 37.866 28.2906 37.8221 28.2067C37.7217 27.9716 37.7217 27.9716 37.7217 27.6262C37.6459 27.6262 37.5702 27.6262 37.4922 27.6262C37.4567 27.4873 37.4567 27.4873 37.4205 27.3457C37.2866 26.9977 37.1635 26.7745 36.9543 26.4752C36.6076 25.9737 36.344 25.4489 36.0795 24.9001C35.8033 24.3351 35.4844 23.8109 35.1377 23.2872C34.9678 23.0219 34.9678 23.0219 34.8446 22.7638C34.7524 22.5406 34.7524 22.5406 34.5089 22.4464C34.5089 22.3324 34.5089 22.2185 34.5089 22.1011C34.6003 22.0884 34.6917 22.0758 34.7859 22.0628C35.4431 21.9642 35.9939 21.8688 36.5742 21.5255C36.6878 21.4875 36.8014 21.4495 36.9185 21.4104C37.3021 20.4714 37.3346 19.4187 37.3774 18.4176C36.9231 18.4176 36.4687 18.4176 36.0005 18.4176C36.0065 18.5696 36.0065 18.5696 36.0126 18.7247C36.0157 18.8584 36.0188 18.9921 36.022 19.1298C36.028 19.3281 36.028 19.3281 36.0341 19.5305C35.997 19.9546 35.9179 20.1575 35.6563 20.4895C35.3066 20.7079 35.0362 20.7496 34.6277 20.7532C34.5147 20.7547 34.4017 20.7561 34.2853 20.7576C34.164 20.7579 34.0427 20.7582 33.9177 20.7584C33.7923 20.7592 33.667 20.76 33.5379 20.7607C33.2729 20.7619 33.008 20.7625 32.743 20.7624C32.3378 20.7629 31.9327 20.7671 31.5276 20.7715C31.2701 20.7721 31.0126 20.7726 30.7551 20.7728C30.5734 20.7753 30.5734 20.7753 30.3881 20.7778C29.8848 20.7747 29.552 20.7702 29.1053 20.5249C28.3957 19.6636 28.4943 18.3372 28.5135 17.2809C28.515 17.1394 28.5166 16.9979 28.5181 16.8521C28.5235 16.453 28.5319 16.0541 28.5422 15.655C28.5446 15.5581 28.547 15.4612 28.5495 15.3614C28.5726 14.5971 28.6103 14.0241 29.0012 13.3528C29.4495 13.0268 29.8472 12.879 30.3984 12.8739Z" fill="#E91F27"/>
<path d="M15.8054 5.98588C15.8054 6.09984 15.8054 6.21379 15.8054 6.3312C15.8721 6.34708 15.9388 6.36296 16.0076 6.37932C16.7253 6.56656 17.3527 6.86849 17.9855 7.25207C17.9855 7.32804 17.9855 7.40401 17.9855 7.48228C18.0471 7.49178 18.1086 7.50128 18.172 7.51106C18.5447 7.62914 18.8217 7.82365 19.133 8.05782C19.133 8.13379 19.133 8.20976 19.133 8.28804C19.2844 8.28804 19.4359 8.28804 19.5919 8.28804C19.5919 8.36401 19.5919 8.43998 19.5919 8.51825C19.7434 8.51825 19.8949 8.51825 20.0509 8.51825C20.0509 8.59423 20.0509 8.6702 20.0509 8.74847C20.1314 8.77459 20.2118 8.8007 20.2947 8.82761C20.6246 8.97869 20.6246 8.97869 20.9402 9.25926C21.297 9.57647 21.659 9.67955 22.1104 9.81277C22.4215 9.92749 22.5948 10.1073 22.8047 10.36C22.8805 10.398 22.9562 10.436 23.0342 10.4751C23.0342 10.5511 23.0342 10.627 23.0342 10.7053C23.1123 10.7314 23.1904 10.7575 23.2709 10.7844C23.6881 10.9715 24.0702 11.2035 24.4111 11.5111C24.4111 11.587 24.4111 11.663 24.4111 11.7413C24.4869 11.7413 24.5626 11.7413 24.6406 11.7413C24.6028 11.8172 24.5649 11.8932 24.5259 11.9715C24.4217 11.9169 24.3176 11.8623 24.2103 11.806C23.0569 11.3191 21.5837 11.4861 20.3503 11.4834C20.0439 11.4823 19.7376 11.4787 19.4312 11.4751C17.4866 11.4446 17.4866 11.4446 15.8054 12.3168C15.1545 13.2908 15.074 14.402 15.0022 15.5398C14.658 15.6549 14.658 15.6549 14.4268 15.5664C14.3394 15.5186 14.2519 15.4708 14.1618 15.4216C14.0635 15.3688 13.9653 15.316 13.8641 15.2615C13.7068 15.1749 13.7068 15.1749 13.5464 15.0866C13.3281 14.969 13.1096 14.8514 12.8911 14.7341C12.7826 14.6755 12.6741 14.6169 12.5622 14.5565C12.1244 14.3225 11.6818 14.0989 11.2372 13.878C11.1668 13.8429 11.0963 13.8078 11.0238 13.7717C10.8201 13.6703 10.6163 13.5691 10.4125 13.4679C10.3336 13.4271 10.2547 13.3862 10.1734 13.3442C10.0933 13.303 10.0132 13.2617 9.93066 13.2192C9.85823 13.1815 9.7858 13.1438 9.71117 13.105C9.48824 13.0046 9.27389 12.9446 9.03557 12.8924C9.03557 12.8164 9.03557 12.7404 9.03557 12.6621C8.89831 12.6384 8.76105 12.6147 8.61963 12.5902C7.83883 12.4198 7.12114 12.0701 6.39648 11.7413C6.92205 11.1519 7.55499 10.7488 8.21086 10.3168C8.33227 10.2364 8.45367 10.1559 8.57876 10.073C10.5696 8.75975 12.5899 7.50617 14.6709 6.34163C15.3292 5.96006 15.3292 5.96006 15.8054 5.98588Z" fill="#6A205B"/>
<path d="M18.7522 11.3766C18.8489 11.3762 18.9456 11.3758 19.0452 11.3754C19.2502 11.3749 19.4551 11.3746 19.6601 11.3746C19.9672 11.3744 20.2744 11.3723 20.5816 11.3701C21.5135 11.3667 22.442 11.3803 23.3697 11.4764C23.5107 11.4909 23.6516 11.5054 23.7969 11.5203C24.3572 11.6742 24.7249 11.964 25.0343 12.4683C25.0847 12.5963 25.0847 12.5963 25.1361 12.7269C25.1887 12.8553 25.1887 12.8553 25.2423 12.9863C25.4639 13.6237 25.4533 14.1749 25.4445 14.8492C24.9901 14.8492 24.5357 14.8492 24.0675 14.8492C24.0489 14.5344 24.0302 14.2197 24.0115 13.9049C23.9463 13.5476 23.8585 13.3822 23.6086 13.1226C23.2719 13.01 23.05 12.9916 22.699 12.9889C22.5841 12.9878 22.4692 12.9867 22.3508 12.9856C22.2267 12.9851 22.1027 12.9846 21.9748 12.9841C21.8471 12.9834 21.7193 12.9828 21.5876 12.9821C21.3171 12.981 21.0465 12.9802 20.776 12.9798C20.3627 12.9787 19.9496 12.9751 19.5363 12.9715C19.2734 12.9707 19.0106 12.9701 18.7477 12.9697C18.6243 12.9683 18.5009 12.9668 18.3738 12.9654C17.4957 12.9641 17.4957 12.9641 16.724 13.3528C16.31 13.9293 16.3311 14.4958 16.3381 15.1783C16.338 15.287 16.338 15.3957 16.3379 15.5077C16.3382 15.7372 16.3393 15.9667 16.3412 16.1962C16.3439 16.5443 16.3435 16.8923 16.3428 17.2404C16.3434 17.4643 16.3442 17.6882 16.3452 17.9121C16.3451 18.0148 16.345 18.1175 16.3449 18.2233C16.3491 19.2634 16.3491 19.2634 16.6092 20.2592C17.2251 20.698 17.9032 20.6551 18.6383 20.6504C18.7547 20.6508 18.8711 20.6511 18.991 20.6514C19.2362 20.6517 19.4815 20.651 19.7267 20.6496C20.1002 20.6477 20.4735 20.6496 20.8469 20.6518C21.086 20.6516 21.3251 20.6511 21.5643 20.6504C21.7303 20.6515 21.7303 20.6515 21.8997 20.6526C22.5845 20.6455 23.1012 20.5538 23.7233 20.2592C23.8999 20.0179 23.8999 20.0179 23.9456 19.7269C23.968 19.6352 23.9903 19.5435 24.0133 19.449C24.086 18.9924 24.1314 18.5318 24.1823 18.0722C22.7813 18.0722 21.3803 18.0722 19.9368 18.0722C19.9368 17.6164 19.9368 17.1605 19.9368 16.6909C21.7922 16.6909 23.6476 16.6909 25.5592 16.6909C25.5592 20.4287 25.5592 20.4287 24.756 21.5254C24.4957 21.7169 24.2463 21.8441 23.9528 21.9859C23.8392 22.0428 23.8392 22.0428 23.7233 22.101C23.5308 22.1126 23.3378 22.1169 23.1449 22.1177C23.0242 22.1184 22.9035 22.1192 22.7791 22.1199C22.648 22.12 22.5169 22.1202 22.3818 22.1203C22.1797 22.1209 22.1797 22.1209 21.9735 22.1215C21.6875 22.1221 21.4015 22.1223 21.1155 22.1223C20.6801 22.1226 20.2447 22.1246 19.8093 22.1268C19.5313 22.1272 19.2533 22.1274 18.9754 22.1275C18.8459 22.1283 18.7164 22.1292 18.583 22.13C17.5468 22.127 16.5981 22.0783 15.7742 21.3964C14.4925 19.9939 14.8271 17.2762 14.8881 15.5398C15.0262 12.8987 15.0262 12.8987 15.8921 12.0938C16.8007 11.5153 17.6861 11.3781 18.7522 11.3766Z" fill="#FBF5FA"/>
<path d="M32.4574 11.3682C32.722 11.3671 32.9865 11.3635 33.251 11.3599C34.3635 11.352 35.4566 11.3835 36.4591 11.9282C37.26 12.8823 37.2786 14.0029 37.2623 15.1944C36.8079 15.1944 36.3536 15.1944 35.8854 15.1944C35.8824 15.0834 35.8795 14.9724 35.8764 14.8581C35.8699 14.7127 35.8634 14.5673 35.8567 14.4174C35.8514 14.2732 35.8461 14.129 35.8406 13.9804C35.7612 13.5291 35.6762 13.3896 35.3117 13.1225C34.9901 13.0206 34.6966 12.9919 34.3604 12.9888C34.2643 12.9877 34.1681 12.9866 34.0691 12.9855C33.966 12.985 33.863 12.9845 33.7568 12.984C33.6499 12.9833 33.5429 12.9827 33.4327 12.982C33.2065 12.9809 32.9804 12.9802 32.7542 12.9797C32.4097 12.9786 32.0653 12.975 31.7208 12.9714C31.5007 12.9706 31.2805 12.97 31.0604 12.9696C30.9069 12.9675 30.9069 12.9675 30.7503 12.9653C30.1184 12.9675 29.6721 13.044 29.1156 13.3527C28.643 14.0623 28.6769 14.8289 28.6566 15.6548C28.6535 15.7761 28.6503 15.8973 28.6471 16.0222C28.6379 16.4417 28.6324 16.8611 28.6279 17.2807C28.6254 17.4165 28.623 17.5522 28.6204 17.692C28.6172 18.5648 28.6545 19.4458 29.0008 20.2592C29.3415 20.5762 29.5692 20.6479 30.0295 20.6492C30.1424 20.6503 30.2554 20.6513 30.3718 20.6525C30.4931 20.6518 30.6145 20.6511 30.7395 20.6503C30.8648 20.6507 30.9901 20.651 31.1192 20.6513C31.3842 20.6516 31.6491 20.6509 31.9141 20.6495C32.3193 20.6477 32.7244 20.6495 33.1296 20.6517C33.3871 20.6515 33.6446 20.651 33.9021 20.6503C34.0231 20.651 34.1442 20.6517 34.269 20.6525C35.0823 20.657 35.0823 20.657 35.7707 20.2592C35.8975 19.8775 35.9222 19.545 35.9499 19.1441C35.9644 18.9404 35.9644 18.9404 35.9791 18.7326C35.986 18.6286 35.993 18.5246 36.0001 18.4174C36.4545 18.4174 36.9089 18.4174 37.3771 18.4174C37.4618 20.6022 37.4618 20.6022 36.7818 21.5182C36.0082 22.0873 35.2372 22.1581 34.3077 22.18C34.1928 22.1838 34.0779 22.1876 33.9595 22.1914C29.2066 22.3336 29.2066 22.3336 27.9968 21.3958C27.3288 20.5396 27.2118 19.638 27.2268 18.5789C27.2269 18.4552 27.227 18.3315 27.2271 18.2041C27.2278 17.9444 27.2296 17.6847 27.2325 17.4249C27.2366 17.0296 27.2372 16.6345 27.2371 16.2391C27.2382 15.9855 27.2396 15.7318 27.2411 15.4781C27.2414 15.3612 27.2416 15.2443 27.2419 15.1238C27.2584 13.8665 27.4447 12.8418 28.3554 11.9282C29.5172 11.2067 31.136 11.3716 32.4574 11.3682Z" fill="#FCF5F6"/>
<path d="M38.2952 0.921106C38.4556 0.993442 38.4556 0.993442 38.6193 1.06724C39.5288 1.51889 40.2234 2.16757 40.9343 2.87794C41.0281 2.96801 41.1218 3.05808 41.2185 3.15087C42.2619 4.21736 42.9602 5.67001 43.2292 7.13693C43.2524 7.2549 43.2756 7.37286 43.2995 7.4944C43.5713 9.19486 43.4789 10.9451 43.4586 12.6621C43.3829 12.6241 43.3072 12.5861 43.2292 12.547C43.1574 12.252 43.1574 12.252 43.1144 11.9715C43.0387 11.9715 42.963 11.9715 42.8849 11.9715C42.7295 11.6597 42.7627 11.3949 42.7702 11.0506C42.6945 11.0506 42.6187 11.0506 42.5407 11.0506C42.5198 10.9742 42.499 10.8978 42.4775 10.819C42.3208 10.267 42.1541 9.81422 41.8522 9.32398C41.8522 9.17204 41.8522 9.0201 41.8522 8.86355C41.7765 8.86355 41.7008 8.86355 41.6228 8.86355C41.5963 8.79945 41.5698 8.73535 41.5425 8.66931C41.3062 8.11456 41.0436 7.60804 40.7106 7.10546C40.5901 6.90672 40.5901 6.90672 40.4753 6.56139C40.3594 6.46643 40.2434 6.37147 40.1239 6.27362C40.0127 6.17866 39.9015 6.0837 39.7869 5.98585C39.7869 5.8719 39.7869 5.75794 39.7869 5.64053C39.5597 5.58355 39.5597 5.58355 39.3279 5.52542C39.3279 5.44945 39.3279 5.37348 39.3279 5.29521C39.2522 5.29521 39.1764 5.29521 39.0984 5.29521C39.0984 5.21924 39.0984 5.14326 39.0984 5.06499C38.9091 5.02701 38.7198 4.98902 38.5247 4.94988C38.4868 4.83593 38.449 4.72197 38.41 4.60456C38.1978 4.47816 38.1978 4.47816 37.951 4.37434C37.8051 4.28746 37.6603 4.19866 37.5167 4.10816C37.4369 4.058 37.3571 4.00785 37.2748 3.95618C37.1927 3.90424 37.1105 3.85231 37.0259 3.7988C36.9433 3.74687 36.8606 3.69494 36.7755 3.64143C36.4379 3.42886 36.1025 3.21487 35.7709 2.99305C35.7709 2.91708 35.7709 2.84111 35.7709 2.76283C35.5815 2.76283 35.3922 2.76283 35.1971 2.76283C35.1971 2.68686 35.1971 2.61089 35.1971 2.53262C35.0232 2.49344 35.0232 2.49344 34.8457 2.45348C34.5151 2.35994 34.285 2.23949 34.0139 2.02902C33.5336 1.6617 33.007 1.47221 32.4433 1.26643C32.2664 1.19934 32.0895 1.1322 31.9126 1.06499C31.7848 1.01751 31.657 0.970027 31.5254 0.921106C31.5254 0.845135 31.5254 0.769164 31.5254 0.69089C31.1846 0.633912 31.1846 0.633912 30.8369 0.575782C30.8369 0.461826 30.8369 0.347869 30.8369 0.230459C32.8033 -0.755841 36.4184 0.0599139 38.2952 0.921106Z" fill="#F9B31F"/>
<path d="M62.5059 10.1296C63.6533 10.1296 63.6533 10.1296 63.9769 10.4102C64.0691 10.5442 64.157 10.6812 64.2413 10.8203C64.3154 10.9313 64.3154 10.9313 64.391 11.0445C64.5034 11.2138 64.614 11.3844 64.7231 11.556C64.9452 11.9026 65.174 12.2443 65.4036 12.586C65.8565 13.2612 66.3051 13.9392 66.7514 14.6188C67.13 14.2559 67.4382 13.9031 67.7195 13.4606C68.1634 12.7776 68.6234 12.1072 69.0892 11.439C69.1603 11.3366 69.2314 11.2342 69.3046 11.1287C69.3717 11.0326 69.4388 10.9364 69.5079 10.8374C69.5681 10.7509 69.6284 10.6645 69.6905 10.5754C69.8494 10.3599 69.8494 10.3599 70.0789 10.1296C70.4576 10.1296 70.8362 10.1296 71.2263 10.1296C71.2263 11.9909 71.2263 13.8522 71.2263 15.7699C70.9613 15.7699 70.6962 15.7699 70.4231 15.7699C70.3853 14.2885 70.3474 12.807 70.3084 11.2807C69.5814 12.3017 68.8666 13.3208 68.1785 14.367C68.0183 14.6101 67.858 14.853 67.6975 15.0959C67.6285 15.2008 67.5595 15.3057 67.4884 15.4137C67.3251 15.6548 67.3251 15.6548 67.2103 15.7699C66.8925 15.8203 66.8925 15.8203 66.5219 15.7699C66.302 15.5389 66.1518 15.3447 65.984 15.0793C65.936 15.0076 65.8879 14.9359 65.8384 14.862C65.7356 14.7084 65.6337 14.5541 65.5327 14.3993C65.3195 14.0748 65.0984 13.7562 64.8774 13.437C64.3843 12.7239 63.9038 12.0029 63.4238 11.2807C63.3859 12.7622 63.3481 14.2436 63.3091 15.7699C63.044 15.7699 62.7789 15.7699 62.5059 15.7699C62.5059 13.9086 62.5059 12.0473 62.5059 10.1296Z" fill="black"/>
<path d="M49.4797 10.0797C49.6325 10.0788 49.6325 10.0788 49.7885 10.0779C50.0028 10.0772 50.2171 10.0773 50.4313 10.0783C50.7587 10.0793 51.0859 10.0759 51.4133 10.0723C51.6221 10.0721 51.831 10.0722 52.0399 10.0725C52.1373 10.0712 52.2347 10.0699 52.3351 10.0686C52.7998 10.0741 53.0381 10.0926 53.4403 10.3463C53.8028 10.7302 53.8945 11.0212 53.9143 11.5469C53.9096 11.649 53.9048 11.7511 53.9 11.8562C53.6349 11.8562 53.3698 11.8562 53.0968 11.8562C53.0613 11.7257 53.0258 11.5951 52.9892 11.4606C52.9098 11.0749 52.9098 11.0749 52.7525 10.9354C52.4436 10.9223 52.1378 10.9165 51.8288 10.916C51.6893 10.9155 51.6893 10.9155 51.547 10.9149C51.3497 10.9143 51.1525 10.914 50.9552 10.9141C50.6538 10.9138 50.3524 10.9117 50.0509 10.9095C49.8594 10.9092 49.668 10.909 49.4765 10.9089C49.3864 10.908 49.2962 10.9072 49.2034 10.9063C48.587 10.9025 48.587 10.9025 48.0481 11.1656C47.8813 11.7391 47.9123 12.3558 47.9118 12.9498C47.9104 13.0452 47.909 13.1406 47.9075 13.2389C47.9063 13.7769 47.9275 14.2382 48.1628 14.7339C48.5802 14.8735 48.9681 14.8721 49.403 14.8765C49.4906 14.8774 49.5781 14.8783 49.6684 14.8793C49.8534 14.8809 50.0385 14.8821 50.2236 14.883C50.5065 14.885 50.7891 14.8901 51.0719 14.8951C51.2519 14.8963 51.4319 14.8973 51.6118 14.8981C51.6962 14.9001 51.7806 14.9021 51.8676 14.9042C52.2402 14.9026 52.4841 14.8736 52.8023 14.6733C53.0575 14.3137 53.0575 14.3137 53.0968 13.4678C52.188 13.4678 51.2792 13.4678 50.3429 13.4678C50.3429 13.2778 50.3429 13.0879 50.3429 12.8922C51.5546 12.8922 52.7663 12.8922 54.0147 12.8922C54.0147 14.686 54.0147 14.686 53.6705 15.3095C53.0921 15.7856 52.4728 15.789 51.7508 15.7933C51.6647 15.794 51.5787 15.7946 51.49 15.7953C51.308 15.7964 51.1261 15.7971 50.9441 15.7976C50.6686 15.7987 50.3932 15.8022 50.1177 15.8059C48.3978 15.8182 48.3978 15.8182 47.5891 15.4246C46.8714 14.4862 46.9347 13.1847 47.0548 12.0635C47.2203 10.9387 47.2203 10.9387 47.5891 10.475C48.2298 10.1309 48.7604 10.0772 49.4797 10.0797Z" fill="black"/>
<path d="M85.7542 10.0768C85.8562 10.0769 85.9582 10.077 86.0633 10.0771C86.2774 10.0778 86.4915 10.0796 86.7055 10.0824C87.0331 10.0867 87.3606 10.0872 87.6882 10.0871C87.8969 10.0882 88.1056 10.0896 88.3144 10.0911C88.412 10.0914 88.5097 10.0917 88.6103 10.0919C88.7015 10.0934 88.7927 10.0949 88.8866 10.0964C89.0063 10.0977 89.0063 10.0977 89.1284 10.099C89.4028 10.1361 89.5817 10.2105 89.815 10.36C90.0915 10.8753 90.2018 11.2727 90.1592 11.8564C89.8942 11.8564 89.6291 11.8564 89.356 11.8564C89.3205 11.7259 89.285 11.5953 89.2484 11.4608C89.1691 11.0751 89.1691 11.0751 89.0118 10.9356C88.7015 10.9239 88.3943 10.9195 88.084 10.9203C87.9907 10.9202 87.8975 10.9201 87.8014 10.92C87.6036 10.9199 87.4059 10.9201 87.2082 10.9206C86.9055 10.9212 86.6028 10.9206 86.3001 10.9198C86.1082 10.9199 85.9164 10.9201 85.7246 10.9203C85.5885 10.9199 85.5885 10.9199 85.4496 10.9196C85.0773 10.9212 84.7778 10.9317 84.4221 11.0507C83.9851 11.9273 84.0859 13.4185 84.2858 14.3528C84.3308 14.4787 84.3757 14.6045 84.4221 14.7341C84.8395 14.8737 85.2273 14.8723 85.6623 14.8767C85.7498 14.8776 85.8374 14.8785 85.9276 14.8795C86.1127 14.8811 86.2978 14.8823 86.4829 14.8832C86.7657 14.8852 87.0484 14.8903 87.3312 14.8953C87.5112 14.8965 87.6911 14.8975 87.8711 14.8983C87.9555 14.9003 88.0399 14.9023 88.1268 14.9044C88.4994 14.9028 88.7433 14.8738 89.0616 14.6735C89.3168 14.3139 89.3168 14.3139 89.356 13.4679C88.4472 13.4679 87.5385 13.4679 86.6022 13.4679C86.6022 13.278 86.6022 13.0881 86.6022 12.8924C87.8139 12.8924 89.0255 12.8924 90.274 12.8924C90.274 14.7161 90.274 14.7161 89.9297 15.3097C89.3428 15.7349 88.7626 15.8383 88.0548 15.8272C87.9229 15.8275 87.9229 15.8275 87.7884 15.8277C87.6037 15.8275 87.419 15.8262 87.2344 15.8238C86.9546 15.8205 86.6751 15.8214 86.3953 15.8229C84.4181 15.8214 84.4181 15.8214 83.8483 15.4248C83.2414 14.7641 83.3244 13.849 83.3392 13.0075C83.3384 12.8766 83.3375 12.7458 83.3367 12.6109C83.3423 11.8664 83.36 11.2434 83.7336 10.5902C84.3601 10.1224 84.9968 10.0638 85.7542 10.0768Z" fill="black"/>
<path d="M95.0001 17.2447C95.2176 17.2426 95.2176 17.2426 95.4395 17.2405C97.5095 17.2373 97.5095 17.2373 98.3133 17.698C98.9275 18.4135 98.8032 19.3722 98.8009 20.2591C98.8028 20.404 98.8046 20.5488 98.8065 20.698C98.8066 20.8381 98.8067 20.9781 98.8068 21.1224C98.8071 21.2495 98.8074 21.3765 98.8078 21.5073C98.7585 21.9267 98.6387 22.2017 98.4208 22.5613C97.0987 23.4558 94.473 23.1662 92.9679 22.8774C92.5041 22.7372 92.302 22.5985 91.9952 22.216C91.7746 21.5182 91.7304 20.8799 91.7371 20.1512C91.7362 20.0543 91.7353 19.9573 91.7344 19.8574C91.7392 18.2932 91.7392 18.2932 92.138 17.7695C92.906 17.0679 94.032 17.2452 95.0001 17.2447ZM92.7984 18.3023C92.5425 18.9319 92.5339 19.5355 92.5403 20.2088C92.5394 20.3037 92.5385 20.3986 92.5376 20.4963C92.5396 21.1381 92.5512 21.7378 93.0279 22.216C93.7416 22.3758 94.4591 22.3523 95.1865 22.3527C95.3171 22.3541 95.4476 22.3555 95.5821 22.3569C96.3337 22.3582 97.0117 22.3245 97.7324 22.1009C98.1258 21.5088 98.0975 20.9108 98.0981 20.216C98.1002 20.09 98.1002 20.09 98.1024 19.9615C98.1039 19.4122 98.0592 18.9323 97.8471 18.4174C96.9853 17.6957 93.6864 17.5873 92.7984 18.3023Z" fill="#898989"/>
<path d="M75.1279 10.1296C76.4057 10.1296 76.4057 10.1296 76.8172 10.5315C76.8993 10.6201 76.8993 10.6201 76.9831 10.7106C77.0446 10.7721 77.1061 10.8336 77.1694 10.8969C77.3018 11.0298 77.4329 11.1639 77.5628 11.2992C77.7713 11.5154 77.9837 11.727 78.1976 11.9379C78.6429 12.3776 79.0836 12.8216 79.524 13.2663C80.3014 14.0498 80.3014 14.0498 81.0946 14.8491C81.1324 13.2917 81.1703 11.7342 81.2093 10.1296C81.4744 10.1296 81.7394 10.1296 82.0125 10.1296C82.0125 11.9909 82.0125 13.8522 82.0125 15.7699C80.7503 15.7699 80.7503 15.7699 80.4353 15.6054C80.3617 15.5284 80.2881 15.4514 80.2123 15.3721C80.1262 15.2852 80.0401 15.1984 79.9514 15.1089C79.8636 15.014 79.7758 14.919 79.6854 14.8212C79.5912 14.7246 79.497 14.6281 79.4 14.5286C79.1012 14.221 78.807 13.9094 78.5128 13.5973C78.2145 13.287 77.9152 12.9777 77.6159 12.6684C77.4303 12.4759 77.2455 12.2828 77.0615 12.0888C76.9783 12.0013 76.8951 11.9137 76.8094 11.8235C76.7001 11.7077 76.7001 11.7077 76.5885 11.5896C76.3791 11.3733 76.3791 11.3733 76.0459 11.1656C76.008 12.685 75.9701 14.2045 75.9311 15.7699C75.6661 15.7699 75.401 15.7699 75.1279 15.7699C75.1279 13.9086 75.1279 12.0473 75.1279 10.1296Z" fill="black"/>
<path d="M62.7354 17.3816C63.5921 17.3745 64.4488 17.3674 65.3314 17.36C65.6007 17.3569 65.87 17.3537 66.1474 17.3505C66.3622 17.3495 66.5769 17.3486 66.7917 17.3479C66.9021 17.3461 67.0126 17.3444 67.1264 17.3425C67.7405 17.3423 68.1717 17.3794 68.702 17.7269C69.0904 18.1166 69.0716 18.5591 69.0892 19.0938C69.0881 19.5697 69.0701 19.8624 68.7594 20.2305C68.6647 20.316 68.57 20.4015 68.4725 20.4895C68.5861 20.5655 68.6997 20.6415 68.8167 20.7197C68.9607 21.1529 68.9437 21.5568 68.9386 22.0075C68.9381 22.0938 68.9376 22.1801 68.9371 22.269C68.9357 22.4816 68.9337 22.6942 68.9315 22.9068C68.6664 22.9068 68.4014 22.9068 68.1283 22.9068C68.0904 22.261 68.0525 21.6153 68.0135 20.95C67.5007 20.8471 67.0243 20.8102 66.5053 20.7984C66.417 20.796 66.3286 20.7936 66.2376 20.7912C65.9571 20.7837 65.6765 20.7769 65.396 20.7701C65.2051 20.7651 65.0142 20.7601 64.8234 20.755C64.3569 20.7427 63.8903 20.7312 63.4238 20.7197C63.4238 21.4415 63.4238 22.1632 63.4238 22.9068C63.1966 22.9068 62.9694 22.9068 62.7354 22.9068C62.7354 21.0835 62.7354 19.2602 62.7354 17.3816ZM63.5386 18.0723C63.5386 18.718 63.5386 19.3638 63.5386 20.0291C64.1349 20.0397 64.7309 20.0488 65.3272 20.0544C65.53 20.0567 65.7328 20.0598 65.9355 20.0638C66.2272 20.0694 66.5188 20.072 66.8105 20.0741C66.901 20.0764 66.9915 20.0788 67.0848 20.0813C67.4997 20.0814 67.7345 20.0666 68.0706 19.812C68.2682 19.5331 68.305 19.3901 68.3004 19.0507C68.3016 18.964 68.3028 18.8774 68.304 18.7881C68.2161 18.4199 68.0857 18.3008 67.784 18.0723C67.4445 18.0321 67.149 18.0184 66.8105 18.0273C66.6701 18.0283 66.6701 18.0283 66.5269 18.0293C66.2288 18.0318 65.9307 18.0376 65.6326 18.0435C65.4302 18.0458 65.2277 18.0479 65.0253 18.0498C64.5296 18.0545 64.0343 18.0635 63.5386 18.0723Z" fill="#898989"/>
<path d="M28.657 15.4248C29.3661 15.8536 29.9401 16.3355 30.5103 16.9378C30.7077 17.1594 30.7077 17.1594 30.9518 17.2665C30.9897 17.3805 31.0276 17.4944 31.0666 17.6119C31.1954 17.7411 31.3246 17.8699 31.4556 17.9967C31.6955 18.2443 31.9154 18.5044 32.1351 18.7701C32.2151 18.8664 32.2952 18.9627 32.3776 19.0619C32.5582 19.3385 32.5582 19.3385 32.5582 19.7989C32.6718 19.8369 32.7854 19.8749 32.9025 19.914C33.0387 20.3241 33.0387 20.3241 33.132 20.7198C32.6196 20.7312 32.1072 20.7395 31.5947 20.7451C31.4205 20.7474 31.2464 20.7505 31.0722 20.7545C30.8213 20.7601 30.5704 20.7627 30.3194 20.7647C30.0932 20.7684 30.0932 20.7684 29.8624 20.772C29.389 20.7105 29.2093 20.6081 28.8865 20.2593C28.4552 19.3065 28.4964 18.2187 28.5136 17.1946C28.5141 17.049 28.5147 16.9035 28.5153 16.7535C28.5244 15.6908 28.5244 15.6908 28.657 15.4248Z" fill="#6B235D"/>
<path d="M79.1605 17.3581C79.2523 17.3574 79.3442 17.3567 79.4388 17.3561C79.6332 17.355 79.8277 17.3542 80.0221 17.3538C80.3178 17.3527 80.6133 17.3491 80.909 17.3455C81.0983 17.3447 81.2876 17.3441 81.4769 17.3437C81.5645 17.3422 81.6521 17.3408 81.7424 17.3394C82.3356 17.3418 82.7516 17.4397 83.2751 17.7268C83.5989 18.2717 83.6576 18.7104 83.6193 19.3383C83.3543 19.3383 83.0892 19.3383 82.8161 19.3383C82.7593 18.8255 82.7593 18.8255 82.7014 18.3023C81.9735 18.166 81.2668 18.166 80.5284 18.1656C80.396 18.1642 80.2635 18.1628 80.1271 18.1613C79.1456 18.1372 79.1456 18.1372 78.2264 18.4174C77.94 19.0284 77.962 19.6649 77.9682 20.3311C77.9673 20.4269 77.9665 20.5228 77.9655 20.6215C77.9671 21.1198 77.9725 21.5425 78.2264 21.9857C78.6403 22.2626 78.9424 22.2493 79.4205 22.2465C79.5446 22.2469 79.5446 22.2469 79.6712 22.2472C79.8459 22.2474 80.0207 22.2469 80.1955 22.246C80.4629 22.2447 80.7303 22.246 80.9977 22.2474C81.1676 22.2473 81.3375 22.247 81.5073 22.2465C81.6273 22.2472 81.6273 22.2472 81.7497 22.248C82.1692 22.2439 82.3423 22.2259 82.7014 21.9857C82.792 21.7608 82.792 21.7608 82.8376 21.5109C82.8684 21.3637 82.8992 21.2165 82.9309 21.0649C83.1959 21.0649 83.461 21.0649 83.7341 21.0649C83.6948 22.2069 83.6948 22.2069 83.44 22.626C82.5884 23.1299 81.6052 23.0574 80.6485 23.0517C80.3995 23.0505 80.1506 23.0517 79.9016 23.0532C79.7411 23.053 79.5805 23.0527 79.42 23.0523C79.2762 23.052 79.1324 23.0518 78.9843 23.0515C78.3565 23.0063 77.9072 22.9195 77.4376 22.4893C76.9944 21.7833 77.0555 20.9097 77.0503 20.0937C77.0479 20.0022 77.0456 19.9107 77.0431 19.8165C77.0381 19.0364 77.1568 18.291 77.6527 17.6692C78.1176 17.3194 78.6051 17.3611 79.1605 17.3581Z" fill="#898989"/>
<path d="M49.0857 17.3581C49.2237 17.3571 49.2237 17.3571 49.3645 17.3561C49.5596 17.355 49.7548 17.3542 49.9499 17.3538C50.2466 17.3527 50.5431 17.3491 50.8398 17.3455C51.0296 17.3447 51.2194 17.3441 51.4093 17.3437C51.5413 17.3415 51.5413 17.3415 51.6759 17.3394C52.2702 17.3418 52.687 17.439 53.2115 17.7268C53.5354 18.2717 53.5941 18.7104 53.5558 19.3383C53.2907 19.3383 53.0256 19.3383 52.7526 19.3383C52.6958 18.8824 52.6958 18.8824 52.6378 18.4174C52.1615 18.2383 51.7657 18.1577 51.2578 18.1566C51.129 18.1563 51.0002 18.156 50.8676 18.1557C50.7347 18.1566 50.6018 18.1575 50.4649 18.1584C50.3324 18.1575 50.2 18.1566 50.0635 18.1557C49.3864 18.1573 48.8007 18.1827 48.1628 18.4174C47.9577 19.0348 47.9082 19.6177 47.9047 20.2663C47.9036 20.3437 47.9026 20.4211 47.9015 20.5008C47.9046 21.0308 47.9774 21.4892 48.1628 21.9857C48.5744 22.261 48.877 22.2531 49.3528 22.2546C49.4765 22.2558 49.4765 22.2558 49.6028 22.257C49.777 22.2581 49.9513 22.2587 50.1256 22.2586C50.3918 22.2591 50.6579 22.2633 50.9241 22.2677C51.0936 22.2683 51.2631 22.2688 51.4326 22.269C51.5516 22.2715 51.5516 22.2715 51.6731 22.274C52.0575 22.2704 52.2609 22.2406 52.5715 22.0058C52.7962 21.6952 52.833 21.4431 52.8673 21.0649C53.1324 21.0649 53.3974 21.0649 53.6705 21.0649C53.7102 21.7154 53.634 22.1142 53.3263 22.6764C52.617 23.2162 51.4566 23.0471 50.6086 23.0494C50.3588 23.0505 50.1091 23.0541 49.8593 23.0577C48.0442 23.0718 48.0442 23.0718 47.4014 22.5133C46.7582 21.7644 46.9574 20.0239 47.0154 19.1081C47.114 18.5151 47.2251 18.092 47.6537 17.662C48.1457 17.3709 48.5233 17.3611 49.0857 17.3581Z" fill="#898989"/>
<path d="M58.0962 10.0291C58.3501 10.0334 58.3501 10.0334 58.6054 10.1298C58.8158 10.3999 58.8158 10.3999 59.0249 10.7651C59.0635 10.8313 59.1022 10.8975 59.142 10.9657C59.2259 11.1096 59.3092 11.2539 59.392 11.3984C59.5712 11.7092 59.7567 12.016 59.942 12.3232C60.1352 12.6438 60.3265 12.9657 60.5177 13.2875C60.6161 13.4529 60.7148 13.6182 60.8137 13.7834C60.9589 14.0257 61.1033 14.2686 61.2476 14.5115C61.2918 14.585 61.336 14.6585 61.3816 14.7342C61.5816 15.073 61.7554 15.378 61.8182 15.7701C61.2239 15.8728 61.2239 15.8728 60.9002 15.7701C60.7767 15.5158 60.7767 15.5158 60.66 15.1981C60.4835 14.8821 60.3567 14.6655 60.0023 14.5518C59.3547 14.4498 58.6993 14.4753 58.046 14.4895C57.8446 14.4897 57.6432 14.4894 57.4418 14.4886C56.9497 14.4877 56.4582 14.4939 55.9663 14.5039C55.9322 14.591 55.8982 14.6781 55.8632 14.7678C55.7236 15.1118 55.5611 15.4395 55.3926 15.7701C55.0896 15.7701 54.7867 15.7701 54.4746 15.7701C54.6255 15.2658 54.822 14.8439 55.0918 14.3928C55.1687 14.2635 55.2456 14.1341 55.3248 14.0009C55.4072 13.864 55.4895 13.7271 55.5718 13.5902C55.6553 13.4503 55.7388 13.3104 55.8222 13.1705C55.9861 12.8957 56.1504 12.6211 56.3151 12.3467C56.5065 12.0274 56.697 11.7076 56.8869 11.3874C56.9792 11.232 57.0715 11.0766 57.1639 10.9211C57.205 10.8519 57.2462 10.7826 57.2885 10.7112C57.6273 10.1446 57.6273 10.1446 58.0962 10.0291ZM58.0316 10.9355C57.8025 11.3267 57.5738 11.718 57.3453 12.1095C57.2291 12.3084 57.1127 12.5072 56.9963 12.706C56.8876 12.8924 56.8876 12.8924 56.7766 13.0826C56.6757 13.2553 56.6757 13.2553 56.5727 13.4315C56.416 13.6641 56.416 13.6641 56.4252 13.8132C57.5233 13.8132 58.6214 13.8132 59.7528 13.8132C59.5931 13.3328 59.4834 13.0173 59.2329 12.6059C59.1777 12.5152 59.1225 12.4245 59.0657 12.331C59.0084 12.2385 58.9512 12.146 58.8922 12.0506C58.835 11.9559 58.7777 11.8612 58.7188 11.7635C58.4505 11.272 58.4505 11.272 58.0316 10.9355Z" fill="black"/>
<path d="M16.2647 14.0435C16.3026 14.0435 16.3405 14.0435 16.3795 14.0435C16.3795 14.9171 16.3795 15.7908 16.3795 16.6909C16.531 16.7669 16.6824 16.8429 16.8385 16.9212C17.744 17.4442 18.6254 17.9843 19.3884 18.7044C19.6834 18.9555 20.0126 19.1163 20.3552 19.2935C20.6672 19.4786 20.9241 19.6984 21.1987 19.9355C21.7274 20.377 22.127 20.5168 22.8051 20.6046C22.8051 20.6426 22.8051 20.6806 22.8051 20.7197C22.0518 20.7285 21.2985 20.7345 20.5451 20.7387C20.289 20.7404 20.0329 20.7428 19.7769 20.7458C19.408 20.75 19.0392 20.7519 18.6703 20.7534C18.4996 20.7561 18.4996 20.7561 18.3254 20.7588C17.663 20.759 17.1933 20.6959 16.609 20.3744C16.1213 19.7518 16.2494 18.6715 16.2535 17.9216C16.2538 17.7547 16.2538 17.7547 16.254 17.5844C16.2547 17.2314 16.2561 16.8784 16.2576 16.5255C16.2582 16.2851 16.2587 16.0448 16.2591 15.8045C16.2604 15.2175 16.2624 14.6305 16.2647 14.0435Z" fill="#B71F64"/>
<path d="M87.6683 17.238C88.0612 17.2718 88.18 17.3478 88.4397 17.6505C88.6413 17.9779 88.8259 18.3075 89.0039 18.6482C89.2173 19.047 89.4553 19.4308 89.6893 19.8176C89.7854 19.9789 89.8812 20.1404 89.9769 20.3019C90.1731 20.6331 90.3697 20.964 90.5667 21.2947C90.6615 21.4546 90.7563 21.6145 90.8511 21.7745C90.8953 21.8486 90.9395 21.9226 90.9851 21.999C91.1626 22.2997 91.3111 22.5739 91.4217 22.9067C90.8268 22.9993 90.8268 22.9993 90.5037 22.9067C90.3802 22.676 90.3802 22.676 90.2635 22.3887C90.0809 22.0943 89.9485 21.9064 89.6058 21.8145C88.9557 21.7369 88.3018 21.7768 87.6495 21.8059C87.4481 21.8111 87.2467 21.8159 87.0453 21.8201C86.5532 21.8315 86.0616 21.8493 85.5698 21.8707C85.2858 22.3835 85.2858 22.3835 84.9961 22.9067C84.6931 22.9067 84.3902 22.9067 84.0781 22.9067C84.2238 22.4237 84.4043 22.0181 84.6662 21.5879C84.7372 21.4701 84.8083 21.3524 84.8815 21.231C84.9572 21.1074 85.0328 20.9837 85.1108 20.8563C85.7601 19.7991 85.7601 19.7991 86.3613 18.7142C86.4101 18.6229 86.459 18.5316 86.5092 18.4376C86.5976 18.2705 86.683 18.1017 86.7647 17.9312C86.9922 17.5091 87.2027 17.3134 87.6683 17.238ZM87.6352 18.0721C87.349 18.5178 87.0901 18.9806 86.8248 19.439C86.7487 19.5689 86.6726 19.6987 86.5942 19.8325C86.5222 19.9564 86.4503 20.0803 86.3761 20.2079C86.2763 20.3797 86.2763 20.3797 86.1744 20.555C86.011 20.8161 86.011 20.8161 86.0288 21.0649C87.1268 21.0649 88.2249 21.0649 89.3563 21.0649C89.1913 20.5682 89.0661 20.2342 88.8072 19.8032C88.7159 19.6508 88.7159 19.6508 88.6228 19.4952C88.528 19.3392 88.528 19.3392 88.4312 19.18C88.3675 19.0733 88.3038 18.9667 88.2382 18.8567C88.001 18.46 88.001 18.46 87.7499 18.0721C87.712 18.0721 87.6742 18.0721 87.6352 18.0721Z" fill="#898989"/>
<path d="M72.9952 17.2673C73.317 17.2958 73.47 17.3331 73.7066 17.5564C73.8956 17.8343 74.0519 18.1206 74.2098 18.4175C74.3257 18.6138 74.4415 18.81 74.5583 19.0057C74.7728 19.3666 74.9822 19.7304 75.1923 20.0938C75.362 20.3866 75.5319 20.6793 75.7019 20.9719C75.7622 21.0759 75.7622 21.0759 75.8237 21.182C76.0444 21.5615 76.2715 21.9356 76.5078 22.3056C76.7342 22.6765 76.7342 22.6765 76.7342 22.9067C76.141 22.9874 76.141 22.9874 75.8162 22.9067C75.5143 22.5916 75.2425 22.2035 75.2425 21.7556C74.6319 21.7465 74.0218 21.7441 73.4111 21.7479C73.2036 21.7483 72.996 21.7468 72.7885 21.7434C71.6241 21.6659 71.6241 21.6659 70.6158 22.1096C70.4678 22.3768 70.3724 22.6086 70.3086 22.9067C70.0056 22.9067 69.7027 22.9067 69.3906 22.9067C69.5515 22.4752 69.7483 22.0873 69.9787 21.6891C70.0853 21.5041 70.0853 21.5041 70.194 21.3154C70.3486 21.0496 70.5034 20.7838 70.6585 20.5183C70.737 20.3837 70.8155 20.2491 70.8939 20.1145C70.9521 20.0149 70.9521 20.0149 71.0114 19.9133C71.2422 19.5158 71.4621 19.1143 71.6738 18.7062C71.7226 18.6148 71.7715 18.5235 71.8217 18.4293C71.9101 18.263 71.9955 18.0951 72.0772 17.9255C72.3127 17.492 72.5158 17.3206 72.9952 17.2673ZM72.9477 18.0722C72.7186 18.4797 72.4898 18.8875 72.2613 19.2954C72.1835 19.4342 72.1056 19.573 72.0276 19.7117C71.9157 19.9107 71.8042 20.1099 71.6927 20.3092C71.6254 20.4291 71.5581 20.5491 71.4887 20.6727C71.3323 20.9144 71.3323 20.9144 71.3413 21.065C72.4772 21.065 73.6132 21.065 74.7835 21.065C74.1782 19.9514 74.1782 19.9514 73.5429 18.8564C73.4977 18.7797 73.4525 18.7031 73.406 18.6241C73.2948 18.4381 73.1791 18.2548 73.0624 18.0722C73.0245 18.0722 72.9867 18.0722 72.9477 18.0722Z" fill="#898989"/>
<path d="M54.8181 17.3816C55.0832 17.3816 55.3482 17.3816 55.6213 17.3816C55.623 17.5123 55.6246 17.643 55.6264 17.7776C55.633 18.2623 55.6419 18.7469 55.6514 19.2314C55.6552 19.4412 55.6584 19.651 55.661 19.8608C55.6649 20.1623 55.6709 20.4637 55.6773 20.7651C55.6781 20.859 55.6788 20.9529 55.6795 21.0497C55.6801 21.5314 55.6801 21.5314 55.8831 21.952C56.2307 22.2148 56.664 22.1739 57.0843 22.1873C57.2293 22.1934 57.2293 22.1934 57.3772 22.1997C58.8723 22.2618 58.8723 22.2618 60.3258 21.9859C60.4711 21.5486 60.4672 21.1313 60.4768 20.6752C60.4792 20.5812 60.4816 20.4871 60.484 20.3902C60.4915 20.09 60.4983 19.7898 60.505 19.4895C60.51 19.2859 60.515 19.0823 60.5201 18.8787C60.5323 18.3797 60.544 17.8806 60.5552 17.3816C60.8203 17.3816 61.0854 17.3816 61.3584 17.3816C61.3642 17.9179 61.3683 18.4541 61.3711 18.9905C61.3722 19.1724 61.3738 19.3544 61.3758 19.5363C61.4029 22.0641 61.4029 22.0641 60.9902 22.64C60.1882 23.232 58.6682 23.0606 57.7154 23.0579C57.583 23.0597 57.4506 23.0616 57.3142 23.0635C55.6848 23.0644 55.6848 23.0644 55.1623 22.6766C54.8081 22.0487 54.771 21.5209 54.7845 20.8101C54.785 20.7116 54.7855 20.6131 54.786 20.5116C54.7879 20.1996 54.7922 19.8878 54.7966 19.5758C54.7983 19.3632 54.7999 19.1506 54.8013 18.938C54.8051 18.4192 54.811 17.9004 54.8181 17.3816Z" fill="#898989"/>
<path d="M72.7188 10.1296C72.9838 10.1296 73.2489 10.1296 73.522 10.1296C73.522 11.9909 73.522 13.8522 73.522 15.7699C73.2569 15.7699 72.9918 15.7699 72.7188 15.7699C72.7188 13.9086 72.7188 12.0473 72.7188 10.1296Z" fill="black"/>
<path d="M32.4575 11.3682C32.7221 11.3671 32.9866 11.3635 33.2512 11.3599C34.2369 11.3528 35.18 11.3823 36.115 11.7412C36.1908 11.8171 36.2665 11.8931 36.3445 11.9714C36.016 11.9908 35.7905 11.9792 35.4818 11.857C34.9388 11.6995 34.431 11.7105 33.8686 11.7146C33.6951 11.7147 33.6951 11.7147 33.5182 11.7148C33.2748 11.7151 33.0314 11.716 32.7879 11.7175C32.4143 11.7196 32.0406 11.7198 31.667 11.7198C31.4303 11.7204 31.1936 11.721 30.957 11.7218C30.8449 11.722 30.7328 11.7221 30.6173 11.7222C30.4621 11.7233 30.4621 11.7233 30.3038 11.7244C30.2126 11.7249 30.1215 11.7253 30.0275 11.7258C29.7949 11.7274 29.7949 11.7274 29.5747 11.8563C29.3823 11.8241 29.1908 11.7863 29.001 11.7412C29.9855 11.1852 31.3545 11.371 32.4575 11.3682Z" fill="#FBBAB8"/>
<path d="M18.4452 4.60462C18.1581 4.9678 17.9098 5.10463 17.4771 5.23052C16.9654 5.38298 16.7202 5.57836 16.3799 5.98591C16.4177 6.09987 16.4556 6.21383 16.4946 6.33124C16.6464 6.37407 16.7995 6.41254 16.9536 6.44634C16.9914 6.52232 17.0293 6.59829 17.0683 6.67656C16.5398 6.71355 16.2267 6.66624 15.8061 6.33124C15.8061 6.21728 15.8061 6.10332 15.8061 5.98591C15.6925 5.94793 15.579 5.90994 15.4619 5.8708C15.8718 5.6359 16.2834 5.40415 16.6954 5.17296C16.812 5.10612 16.9285 5.03927 17.0486 4.9704C17.161 4.90771 17.2734 4.84502 17.3892 4.78043C17.4926 4.72196 17.5959 4.66348 17.7024 4.60324C18.0148 4.47807 18.1374 4.48329 18.4452 4.60462Z" fill="#DC1E34"/>
<path d="M35.7714 18.4175C35.8471 18.4175 35.9229 18.4175 36.0009 18.4175C36.0102 18.6548 36.0169 18.8923 36.0224 19.1297C36.0284 19.328 36.0284 19.328 36.0345 19.5303C35.9973 19.9545 35.9183 20.1574 35.6567 20.4894C35.3272 20.6917 35.0848 20.7476 34.7011 20.7421C34.6094 20.7414 34.5177 20.7406 34.4232 20.7399C34.3285 20.7379 34.2338 20.736 34.1363 20.734C34.0399 20.733 33.9434 20.732 33.8441 20.7309C33.6068 20.7282 33.3696 20.724 33.1323 20.7196C33.0802 20.5891 33.0282 20.4585 32.9745 20.324C32.8373 19.9084 32.8373 19.9084 32.5586 19.7988C32.5586 19.6468 32.5586 19.4949 32.5586 19.3383C32.7719 19.3631 32.7719 19.3631 33.0176 19.4535C33.1628 19.6913 33.1628 19.6913 33.2757 19.9786C33.3142 20.0737 33.3527 20.1689 33.3923 20.2669C33.4201 20.3403 33.4479 20.4137 33.4765 20.4894C33.7132 20.4957 33.9498 20.5001 34.1865 20.5038C34.3183 20.5065 34.4501 20.5092 34.5859 20.5119C35.0117 20.5072 35.0117 20.5072 35.5419 20.2592C35.6176 19.6514 35.6934 19.0437 35.7714 18.4175Z" fill="#D33237"/>
<path d="M43.3442 8.97876C43.3821 8.97876 43.4199 8.97876 43.4589 8.97876C43.4589 10.1943 43.4589 11.4098 43.4589 12.6622C43.3832 12.6242 43.3075 12.5862 43.2295 12.5471C43.1577 12.2521 43.1577 12.2521 43.1147 11.9716C43.039 11.9716 42.9633 11.9716 42.8852 11.9716C42.7298 11.6598 42.763 11.395 42.7705 11.0507C42.6948 11.0507 42.619 11.0507 42.541 11.0507C42.4859 10.8685 42.4309 10.6862 42.3761 10.5039C42.3454 10.4024 42.3148 10.301 42.2833 10.1964C42.21 9.94501 42.1431 9.69377 42.082 9.43919C42.1956 9.47718 42.3092 9.51516 42.4263 9.5543C42.4263 9.74423 42.4263 9.93416 42.4263 10.1298C42.502 10.1298 42.5777 10.1298 42.6557 10.1298C42.6936 10.2058 42.7315 10.2818 42.7705 10.3601C42.8462 10.3601 42.9219 10.3601 43 10.3601C43.0056 10.4501 43.0112 10.5402 43.017 10.633C43.0256 10.7495 43.0342 10.8659 43.043 10.986C43.051 11.1021 43.059 11.2183 43.0672 11.338C43.0829 11.4331 43.0986 11.5282 43.1147 11.6262C43.1904 11.6642 43.2662 11.7022 43.3442 11.7413C43.3442 10.8297 43.3442 9.91804 43.3442 8.97876Z" fill="#C2A453"/>
<path d="M16.2644 14.0435C16.3023 14.0435 16.3401 14.0435 16.3792 14.0435C16.3792 14.9171 16.3792 15.7908 16.3792 16.6909C16.5306 16.7669 16.6821 16.8429 16.8381 16.9212C16.7245 16.9591 16.6109 16.9971 16.4939 17.0363C16.5223 17.1965 16.5223 17.1965 16.5513 17.36C16.6049 17.7299 16.6128 18.0871 16.6086 18.4607C16.6023 19.0322 16.6493 19.5777 16.7234 20.1442C16.6477 20.1442 16.5719 20.1442 16.4939 20.1442C16.2978 19.3787 16.2331 18.6876 16.242 17.8991C16.2423 17.7882 16.2426 17.6772 16.243 17.5629C16.2443 17.2123 16.2471 16.8617 16.2501 16.5111C16.2512 16.2718 16.2523 16.0325 16.2532 15.7932C16.2557 15.21 16.2597 14.6267 16.2644 14.0435Z" fill="#A34370"/>
<path d="M34.6234 9.66919C35.3801 10.2273 36.0438 10.951 36.3446 11.8562C36.2498 11.8322 36.1549 11.8082 36.0572 11.7835C35.0012 11.534 34.0024 11.4505 32.9166 11.4318C32.7581 11.4279 32.5996 11.424 32.4411 11.4199C32.0594 11.4105 31.6777 11.4025 31.2959 11.3958C31.2959 11.3578 31.2959 11.3198 31.2959 11.2807C31.8041 11.2778 32.3123 11.2758 32.8205 11.2744C32.9931 11.2738 33.1657 11.273 33.3383 11.272C33.5876 11.2706 33.8368 11.27 34.086 11.2695C34.2357 11.2689 34.3853 11.2683 34.5394 11.2676C34.9622 11.2805 35.3543 11.3275 35.7709 11.3958C35.7141 11.2249 35.7141 11.2249 35.6561 11.0505C35.5047 11.0505 35.3532 11.0505 35.1972 11.0505C35.235 10.8985 35.2729 10.7466 35.3119 10.5901C35.1983 10.5521 35.0847 10.5141 34.9677 10.4749C34.6234 9.97614 34.6234 9.97614 34.6234 9.66919Z" fill="#C43647"/>
<path d="M16.8389 21.9858C18.8457 22.0238 20.8526 22.0618 22.9202 22.1009C22.9202 22.1389 22.9202 22.1769 22.9202 22.2161C22.8097 22.2189 22.6992 22.2218 22.5854 22.2248C22.1725 22.2357 21.7595 22.2472 21.3466 22.2589C21.1684 22.2639 20.9903 22.2687 20.8121 22.2733C20.5549 22.28 20.2977 22.2873 20.0405 22.2947C19.9224 22.2976 19.9224 22.2976 19.802 22.3006C18.8748 22.2808 18.8748 22.2808 18.101 22.6765C17.7998 22.6333 17.7998 22.6333 17.5273 22.5614C17.5273 22.4854 17.5273 22.4094 17.5273 22.3312C17.4516 22.3312 17.3759 22.3312 17.2978 22.3312C17.2978 22.2552 17.2978 22.1792 17.2978 22.1009C17.1464 22.063 16.9949 22.025 16.8389 21.9858Z" fill="#B55982"/>
<path d="M38.0654 11.7412C38.3684 11.7412 38.6713 11.7412 38.9834 11.7412C38.8698 11.7792 38.7562 11.8172 38.6391 11.8563C38.677 11.9323 38.7149 12.0083 38.7539 12.0865C38.8296 12.0865 38.9053 12.0865 38.9834 12.0865C39.0212 11.9726 39.0591 11.8586 39.0981 11.7412C39.2117 11.7412 39.3253 11.7412 39.4423 11.7412C39.4755 11.8148 39.5086 11.8884 39.5427 11.9642C39.6521 12.2191 39.6521 12.2191 39.9013 12.3168C39.977 12.1268 40.0528 11.9369 40.1308 11.7412C40.2444 11.7412 40.358 11.7412 40.475 11.7412C40.475 12.0071 40.475 12.273 40.475 12.547C40.3993 12.395 40.3236 12.2431 40.2455 12.0865C40.132 12.2385 40.0184 12.3904 39.9013 12.547C39.7499 12.509 39.5984 12.471 39.4423 12.4319C39.3288 12.6218 39.2152 12.8117 39.0981 13.0074C39.0603 12.8934 39.0224 12.7795 38.9834 12.6621C38.8698 12.7001 38.7562 12.738 38.6391 12.7772C38.5634 12.7392 38.4877 12.7012 38.4097 12.6621C38.4097 12.3962 38.4097 12.1303 38.4097 11.8563C38.2961 11.8183 38.1825 11.7803 38.0654 11.7412Z" fill="#7DC6EA"/>
<path d="M38.6396 15.5398C38.9236 15.5968 38.9236 15.5968 39.2134 15.6549C39.2134 15.9588 39.2134 16.2627 39.2134 16.5758C39.2891 16.5758 39.3648 16.5758 39.4428 16.5758C39.4428 16.7657 39.4428 16.9556 39.4428 17.1513C39.5186 17.1513 39.5943 17.1513 39.6723 17.1513C39.6723 17.3032 39.6723 17.4552 39.6723 17.6117C39.7481 17.6117 39.8238 17.6117 39.9018 17.6117C39.9018 17.8017 39.9018 17.9916 39.9018 18.1873C39.9776 18.1873 40.0533 18.1873 40.1313 18.1873C40.1313 18.3772 40.1313 18.5671 40.1313 18.7628C40.207 18.7628 40.2828 18.7628 40.3608 18.7628C40.3608 18.9907 40.3608 19.2186 40.3608 19.4535C40.4365 19.4535 40.5123 19.4535 40.5903 19.4535C40.5903 19.7194 40.5903 19.9853 40.5903 20.2592C40.3415 19.7728 40.144 19.2712 39.9448 18.7628C39.8889 18.6235 39.8889 18.6235 39.8319 18.4813C39.7967 18.3914 39.7615 18.3015 39.7252 18.2089C39.693 18.1274 39.6608 18.0459 39.6277 17.962C39.5576 17.7268 39.5576 17.7268 39.5576 17.2664C39.4819 17.2664 39.4061 17.2664 39.3281 17.2664C39.0259 16.6998 38.7952 16.1638 38.6396 15.5398Z" fill="#5D79A2"/>
<path d="M29.2308 13.1226C29.3065 13.1605 29.3823 13.1985 29.4603 13.2377C29.4035 13.2804 29.3467 13.3231 29.2882 13.3672C29.0479 13.6684 29.0998 13.898 29.1161 14.2736C29.0782 14.3116 29.0403 14.3496 29.0013 14.3887C28.924 14.6996 28.924 14.6996 29.0013 15.0794C29.2361 15.4191 29.5146 15.7076 29.8045 16.0003C29.8643 16.0618 29.924 16.1234 29.9856 16.1869C30.1147 16.3183 30.2462 16.4473 30.3782 16.5758C30.3404 16.6518 30.3025 16.7277 30.2635 16.806C30.2122 16.7519 30.1608 16.6977 30.108 16.6419C29.724 16.2452 29.3749 15.9209 28.8866 15.6549C28.5812 15.3485 28.6228 15.1896 28.6212 14.7628C28.6319 14.0787 28.7378 13.6171 29.2308 13.1226Z" fill="#C1233C"/>
<path d="M26.2471 3.68359C26.5121 3.72158 26.7772 3.75956 27.0503 3.7987C27.0503 3.87467 27.0503 3.95064 27.0503 4.02892C27.171 4.03604 27.2917 4.04316 27.416 4.0505C27.9373 4.16195 28.0713 4.33512 28.4272 4.71957C28.5408 4.77654 28.6544 4.83352 28.7714 4.89223C29.1582 5.08622 29.3985 5.32287 29.6894 5.64043C28.8582 5.64043 28.0853 4.90803 27.4371 4.44034C27.194 4.27845 26.9685 4.15947 26.6989 4.0505C26.3618 3.91381 26.3618 3.91381 26.2471 3.68359Z" fill="#66749F"/>
<path d="M37.3779 18.4175C37.4536 18.4175 37.5294 18.4175 37.6074 18.4175C37.6293 19.2305 37.6368 19.9406 37.3779 20.7196C37.3558 20.8847 37.3368 21.0503 37.3205 21.216C37.2632 21.6405 37.2632 21.6405 37.0337 21.8707C36.7672 21.9168 36.4993 21.9559 36.2305 21.9858C36.2305 21.9099 36.2305 21.8339 36.2305 21.7556C36.6277 21.4103 36.6277 21.4103 36.9189 21.4103C37.2086 20.4124 37.3335 19.4549 37.3779 18.4175Z" fill="#D8303B"/>
<path d="M25.6738 12.6621C26.0137 12.7326 26.1765 12.8064 26.477 13.0074C26.7394 13.0352 26.7394 13.0352 27.0149 13.0218C27.1076 13.0197 27.2004 13.0177 27.2959 13.0155C27.3665 13.0129 27.437 13.0102 27.5097 13.0074C27.5097 12.8935 27.5097 12.7795 27.5097 12.6621C27.5854 12.6621 27.6612 12.6621 27.7392 12.6621C27.6256 13.1559 27.512 13.6497 27.395 14.1585C27.3192 14.1205 27.2435 14.0825 27.1655 14.0434C27.1655 13.9674 27.1655 13.8915 27.1655 13.8132C27.0969 13.7989 27.0282 13.7847 26.9575 13.77C26.7065 13.6981 26.7065 13.6981 26.3623 13.4679C26.3623 13.3539 26.3623 13.24 26.3623 13.1225C26.2913 13.0893 26.2203 13.0561 26.1471 13.0218C25.9033 12.8923 25.9033 12.8923 25.6738 12.6621Z" fill="#DD2531"/>
<path d="M24.2969 23.137C24.6901 23.5003 24.9346 23.7773 25.1001 24.288C25.1427 24.3949 25.1853 24.5017 25.2292 24.6118C25.2789 24.7364 25.2789 24.7364 25.3296 24.8636C25.4053 24.8636 25.481 24.8636 25.559 24.8636C25.9033 25.6118 25.9033 25.6118 25.9033 26.1298C25.979 26.1298 26.0547 26.1298 26.1328 26.1298C26.1706 26.3577 26.2085 26.5856 26.2475 26.8204C25.8477 26.4752 25.7376 26.0739 25.5662 25.5862C25.4551 25.2881 25.4551 25.2881 25.1001 25.0938C25.0786 24.7916 25.0786 24.7916 25.1001 24.5183C24.9486 24.4803 24.7972 24.4423 24.6411 24.4031C24.3952 23.5481 24.3952 23.5481 24.2969 23.137Z" fill="#941E5D"/>
<path d="M21.543 9.66919C22.1057 9.79947 22.4247 9.92162 22.8051 10.3598C22.8809 10.3978 22.9566 10.4358 23.0346 10.4749C23.0346 10.5509 23.0346 10.6269 23.0346 10.7052C23.1518 10.7443 23.1518 10.7443 23.2713 10.7843C23.6885 10.9713 24.0706 11.2034 24.4115 11.5109C24.4115 11.5869 24.4115 11.6629 24.4115 11.7411C24.4873 11.7411 24.563 11.7411 24.641 11.7411C24.6032 11.8171 24.5653 11.8931 24.5263 11.9713C24.1319 11.8203 24.1319 11.8203 23.7231 11.626C23.6852 11.5121 23.6474 11.3981 23.6083 11.2807C23.3497 11.1057 23.3497 11.1057 23.0346 10.9354C22.8005 10.7891 22.5699 10.6368 22.3462 10.4749C22.3462 10.399 22.3462 10.323 22.3462 10.2447C22.2562 10.2139 22.1663 10.183 22.0737 10.1512C21.7725 10.0145 21.7725 10.0145 21.543 9.66919Z" fill="#9E2449"/>
<path d="M30.8373 0.230451C30.8373 0.344408 30.8373 0.458365 30.8373 0.575775C31.1781 0.632753 31.1781 0.632753 31.5258 0.690883C31.5258 0.766854 31.5258 0.842825 31.5258 0.921099C31.6772 0.959084 31.8287 0.99707 31.9848 1.03621C31.5158 1.06388 31.1613 0.969742 30.7226 0.805991C30.7226 0.73002 30.7226 0.654048 30.7226 0.575775C30.6103 0.592394 30.4981 0.609012 30.3824 0.626135C29.5738 0.742233 28.7876 0.834812 27.9688 0.805991C27.9688 0.768005 27.9688 0.73002 27.9688 0.690883C28.3391 0.613223 28.7097 0.536833 29.0803 0.460667C29.185 0.438707 29.2896 0.416746 29.3974 0.39412C29.4991 0.373347 29.6008 0.352574 29.7056 0.331171C29.7987 0.311881 29.8919 0.292591 29.9878 0.272717C30.2752 0.228682 30.5471 0.223201 30.8373 0.230451Z" fill="#4D83AE"/>
<path d="M30.4114 12.8792C30.5102 12.8792 30.6089 12.8792 30.7107 12.8792C30.8168 12.8798 30.923 12.8804 31.0323 12.881C31.1414 12.8812 31.2504 12.8813 31.3627 12.8815C31.7111 12.8821 32.0595 12.8836 32.4079 12.8851C32.644 12.8856 32.8802 12.8862 33.1163 12.8866C33.6953 12.8879 34.2744 12.8899 34.8534 12.8922C34.4208 13.1815 34.2124 13.1409 33.6974 13.1198C33.619 13.1169 33.5405 13.114 33.4597 13.111C33.2094 13.1016 32.9593 13.0905 32.7091 13.0793C32.5393 13.0726 32.3695 13.066 32.1997 13.0595C31.7838 13.0434 31.3679 13.0258 30.9521 13.0074C30.9521 13.0833 30.9521 13.1593 30.9521 13.2376C30.4977 13.2376 30.0433 13.2376 29.5752 13.2376C29.5752 13.1616 29.5752 13.0856 29.5752 13.0074C29.8943 12.9007 30.0824 12.8782 30.4114 12.8792Z" fill="#CE2B40"/>
<path d="M40.4756 20.2593C40.735 20.5195 40.7735 20.665 40.87 21.0147C40.9547 21.3212 41.0393 21.6161 41.16 21.9104C41.4159 22.5361 41.3903 22.8944 41.1367 23.5223C41.1079 23.5851 41.079 23.6478 41.0493 23.7125C41.0114 23.7125 40.9736 23.7125 40.9346 23.7125C40.8967 22.9908 40.8588 22.2691 40.8198 21.5255C40.7441 21.5255 40.6684 21.5255 40.5903 21.5255C40.5525 21.1076 40.5146 20.6898 40.4756 20.2593Z" fill="#BA3B50"/>
<path d="M29.3457 15.8853C29.5364 16.0492 29.7269 16.2132 29.9172 16.3776C30.0692 16.5077 30.2225 16.6364 30.377 16.7634C30.4485 16.8226 30.5199 16.8818 30.5935 16.9428C30.6925 17.0236 30.6925 17.0236 30.7934 17.106C30.9521 17.2665 30.9521 17.2665 31.0668 17.6119C31.2557 17.8061 31.4469 17.998 31.6406 18.1874C31.6784 18.2634 31.7163 18.3394 31.7553 18.4176C31.4135 18.3795 31.3072 18.3148 31.0749 18.0516C31.0013 17.9492 30.9276 17.8469 30.8517 17.7414C30.4967 17.2729 30.2277 17.0501 29.6899 16.8061C29.5393 16.5183 29.5393 16.5183 29.4604 16.2306C29.4226 16.1166 29.3847 16.0027 29.3457 15.8853Z" fill="#971E47"/>
<path d="M25.6738 1.49655C25.5866 1.53543 25.4995 1.57431 25.4098 1.61436C25.2387 1.69137 25.2387 1.69137 25.0642 1.76993C24.951 1.82068 24.8379 1.87143 24.7213 1.92371C24.397 2.07007 24.397 2.07007 24.0674 2.30231C24.0295 2.41627 23.9916 2.53022 23.9526 2.64763C24.0283 2.68562 24.1041 2.7236 24.1821 2.76274C24.0306 2.76274 23.8792 2.76274 23.7231 2.76274C23.7231 2.68677 23.7231 2.6108 23.7231 2.53252C23.5338 2.53252 23.3445 2.53252 23.1494 2.53252C23.1494 2.41857 23.1494 2.30461 23.1494 2.1872C23.5266 2.0491 23.9045 1.91294 24.2825 1.77713C24.39 1.73773 24.4976 1.69834 24.6084 1.65775C24.7112 1.62103 24.8139 1.5843 24.9199 1.54646C25.0148 1.5121 25.1097 1.47774 25.2076 1.44234C25.4443 1.38145 25.4443 1.38145 25.6738 1.49655Z" fill="#4D74B1"/>
<path d="M24.0668 22.5613C24.2174 22.8707 24.2174 22.8707 24.2962 23.1368C24.2348 23.0638 24.2348 23.0638 24.1721 22.9893C23.3471 22.1937 22.2673 22.3434 21.1982 22.3455C20.9978 22.3434 20.7975 22.341 20.5971 22.3383C20.109 22.3323 19.621 22.3306 19.1328 22.3311C19.1328 22.2931 19.1328 22.2551 19.1328 22.216C19.6615 22.1966 20.1903 22.1781 20.7191 22.1605C20.8988 22.1543 21.0785 22.148 21.2583 22.1414C21.5172 22.1319 21.7761 22.1233 22.035 22.1148C22.1548 22.1101 22.1548 22.1101 22.277 22.1054C22.9706 22.0842 23.5029 22.1332 24.0668 22.5613Z" fill="#962B5E"/>
<path d="M43 11.9714C43.2816 12.2539 43.4398 12.4932 43.4854 12.895C43.4725 13.5349 43.4214 14.1635 43.3442 14.7988C43.3333 14.8929 43.3223 14.9871 43.3111 15.0841C43.2844 15.3128 43.257 15.5414 43.2295 15.77C43.1916 15.77 43.1538 15.77 43.1147 15.77C43.1153 15.704 43.1159 15.638 43.1166 15.57C43.1323 13.7676 43.1323 13.7676 43 11.9714Z" fill="#5C88A8"/>
<path d="M27.1656 14.8491C27.2034 14.8491 27.2413 14.8491 27.2803 14.8491C27.2803 16.5205 27.2803 18.1919 27.2803 19.9139C27.1667 19.9708 27.1667 19.9708 27.0508 20.029C26.9518 19.7419 26.9362 19.5682 26.9881 19.2654C27.0603 18.8193 27.0769 18.3799 27.0871 17.9292C27.0895 17.8407 27.0919 17.7523 27.0944 17.6611C27.1018 17.3809 27.1086 17.1006 27.1154 16.8203C27.1203 16.6294 27.1253 16.4384 27.1304 16.2475C27.1426 15.7814 27.1543 15.3153 27.1656 14.8491Z" fill="#875B7D"/>
<path d="M16.4946 20.2593C16.6261 20.315 16.7576 20.3708 16.8931 20.4283C17.3975 20.6173 17.8461 20.6588 18.3807 20.6635C18.4686 20.6656 18.5564 20.6676 18.6469 20.6698C18.9239 20.6759 19.2009 20.6799 19.4779 20.6837C19.6672 20.6876 19.8565 20.6915 20.0458 20.6957C20.5067 20.7054 20.9676 20.7131 21.4286 20.7197C21.4286 20.7577 21.4286 20.7957 21.4286 20.8348C20.8571 20.8377 20.2856 20.8398 19.7142 20.8411C19.5201 20.8417 19.326 20.8425 19.1319 20.8435C18.8516 20.8449 18.5714 20.8456 18.2911 20.8461C18.2055 20.8467 18.1198 20.8472 18.0316 20.8479C17.4714 20.8479 16.9346 20.7992 16.3799 20.7197C16.4177 20.5678 16.4556 20.4158 16.4946 20.2593Z" fill="#FEE4F5"/>
<path d="M35.1973 23.137C35.465 23.4055 35.7327 23.6741 36.0005 23.9427C36.0005 24.0947 36.0005 24.2466 36.0005 24.4031C36.0762 24.4031 36.1519 24.4031 36.23 24.4031C36.23 24.5171 36.23 24.6311 36.23 24.7485C36.3057 24.7485 36.3814 24.7485 36.4594 24.7485C36.6055 25.1684 36.7266 25.5765 36.8037 26.0147C36.4493 25.8369 36.3573 25.4898 36.1941 25.1442C35.961 24.661 35.7251 24.1927 35.4339 23.7413C35.1973 23.3672 35.1973 23.3672 35.1973 23.137Z" fill="#C42438"/>
<path d="M36.001 2.99316C36.3796 2.99316 36.7583 2.99316 37.1484 2.99316C37.1484 3.14511 37.1484 3.29705 37.1484 3.4536C37.2241 3.49158 37.2999 3.52957 37.3779 3.5687C37.3779 3.64467 37.3779 3.72065 37.3779 3.79892C37.4513 3.81079 37.5246 3.82266 37.6002 3.83489C37.6783 3.86101 37.7564 3.88712 37.8369 3.91403C37.8747 4.02798 37.9126 4.14194 37.9516 4.25935C36.4369 3.50647 36.4369 3.50647 36.001 2.99316Z" fill="#E5B33F"/>
<path d="M33.6051 -0.006929C33.7861 -0.00615 33.7861 -0.00615 33.9708 -0.00535526C34.2649 -0.00401448 34.5589 -0.00213194 34.8529 0.000265241C34.8529 0.0382509 34.8529 0.0762365 34.8529 0.115373C34.7491 0.123831 34.7491 0.123831 34.6432 0.132459C34.5515 0.141066 34.4598 0.149672 34.3653 0.158539C34.2295 0.170557 34.2295 0.170557 34.091 0.182819C33.8202 0.214979 33.8202 0.214979 33.608 0.35031C33.31 0.483649 33.1367 0.470123 32.8144 0.432819C32.7124 0.421691 32.6103 0.410562 32.5052 0.399096C32.3996 0.386187 32.294 0.373278 32.1852 0.359977C32.0241 0.341949 32.0241 0.341949 31.8597 0.323557C31.5951 0.293761 31.3307 0.262696 31.0664 0.230481C31.0664 0.192495 31.0664 0.15451 31.0664 0.115373C31.9154 0.0106502 32.7503 -0.0140205 33.6051 -0.006929Z" fill="#E59316"/>
<path d="M16.8389 17.0361C17.3046 17.2036 17.69 17.4301 18.101 17.7052C18.217 17.7819 18.333 17.8586 18.4524 17.9377C18.7904 18.1878 19.0744 18.4576 19.3632 18.7628C19.0262 18.6692 19.0262 18.6692 18.6748 18.5325C18.6369 18.4186 18.599 18.3046 18.56 18.1872C18.295 18.1492 18.0299 18.1112 17.7568 18.0721C17.7189 17.9202 17.6811 17.7682 17.6421 17.6117C17.5521 17.6022 17.4622 17.5927 17.3696 17.5829C17.0684 17.4966 17.0684 17.4966 16.9178 17.2592C16.8917 17.1856 16.8657 17.112 16.8389 17.0361Z" fill="#A62466"/>
<path d="M38.5244 15.5398C38.7985 15.7863 38.934 15.9905 39.0551 16.3384C39.0826 16.4154 39.1101 16.4924 39.1385 16.5717C39.2115 16.8016 39.2721 17.0317 39.3276 17.2664C39.4033 17.2664 39.4791 17.2664 39.5571 17.2664C39.8358 17.9899 39.8358 17.9899 39.6718 18.4175C39.6718 18.3415 39.6718 18.2656 39.6718 18.1873C39.5961 18.1873 39.5204 18.1873 39.4424 18.1873C39.3872 18.0051 39.3323 17.8228 39.2774 17.6405C39.2315 17.4883 39.2315 17.4883 39.1846 17.333C39.1114 17.0816 39.0445 16.8303 38.9834 16.5758C38.9077 16.5758 38.8319 16.5758 38.7539 16.5758C38.7539 16.3858 38.7539 16.1959 38.7539 16.0002C38.6782 16.0002 38.6024 16.0002 38.5244 16.0002C38.5244 15.8483 38.5244 15.6963 38.5244 15.5398Z" fill="#BD3653"/>
<path d="M42.77 16.1152C42.8836 16.1152 42.9972 16.1152 43.1142 16.1152C42.9806 17.0929 42.7971 18.0402 42.5405 18.9929C42.5026 18.9929 42.4647 18.9929 42.4257 18.9929C42.4195 18.8083 42.4151 18.6237 42.4114 18.439C42.4087 18.3361 42.4061 18.2333 42.4033 18.1274C42.4257 17.8419 42.4257 17.8419 42.6552 17.4965C42.7079 17.1548 42.7079 17.1548 42.7269 16.7843C42.7398 16.5967 42.7398 16.5967 42.7529 16.4053C42.7585 16.3095 42.7642 16.2138 42.77 16.1152Z" fill="#5083A4"/>
<path d="M37.6064 13.8132C37.6443 13.8892 37.6822 13.9652 37.7212 14.0434C37.7969 14.0434 37.8726 14.0434 37.9507 14.0434C38.1586 14.506 38.3333 14.9195 38.4096 15.4247C38.2961 15.4627 38.1825 15.5007 38.0654 15.5399C37.8933 15.4104 37.8933 15.4104 37.7212 15.1945C37.6922 14.8383 37.6754 14.5958 37.8359 14.2737C37.7602 14.2737 37.6845 14.2737 37.6064 14.2737C37.6064 14.1217 37.6064 13.9698 37.6064 13.8132Z" fill="#DC2940"/>
<path d="M36.1152 11.396C36.2288 11.434 36.3424 11.472 36.4595 11.5111C36.4595 11.5871 36.4595 11.663 36.4595 11.7413C36.5352 11.7413 36.6109 11.7413 36.6889 11.7413C36.8025 11.9123 36.8025 11.9123 36.9184 12.0866C37.0699 12.0866 37.2214 12.0866 37.3774 12.0866C37.3395 12.3525 37.3017 12.6184 37.2627 12.8924C37.1491 12.8924 37.0355 12.8924 36.9184 12.8924C36.6339 12.4003 36.364 11.9076 36.1152 11.396Z" fill="#5983AF"/>
<path d="M22.9194 2.30249C22.9951 2.37846 23.0708 2.45443 23.1489 2.53271C22.4263 3.00719 21.833 3.20344 20.9688 3.22335C21.3491 2.90126 21.7373 2.74126 22.2022 2.56868C22.3365 2.51838 22.4708 2.46807 22.6092 2.41625C22.7116 2.37871 22.8139 2.34117 22.9194 2.30249Z" fill="#CA2E41"/>
<path d="M40.0166 6.21606C40.5499 6.45386 40.7273 6.75306 40.9691 7.25923C41.0493 7.48225 41.0493 7.48225 41.0493 7.82758C40.86 7.82758 40.6706 7.82758 40.4756 7.82758C40.485 7.74923 40.4945 7.67088 40.5043 7.59017C40.4643 7.11916 40.2595 6.84994 40.0166 6.44628C40.0166 6.37031 40.0166 6.29434 40.0166 6.21606Z" fill="#5696A1"/>
<path d="M16.8389 6.67651C17.2213 6.86836 17.6038 7.06021 17.9863 7.25205C17.9863 7.32802 17.9863 7.404 17.9863 7.48227C18.0478 7.49177 18.1094 7.50126 18.1728 7.51105C18.5411 7.62774 18.8197 7.83584 19.1337 8.05781C19.0959 8.13378 19.058 8.20975 19.019 8.28802C18.9054 8.25004 18.7918 8.21205 18.6748 8.17292C18.6748 8.09695 18.6748 8.02097 18.6748 7.9427C18.5777 7.91421 18.4807 7.88572 18.3807 7.85637C17.6999 7.608 17.1637 7.36649 16.8389 6.67651Z" fill="#912049"/>
<path d="M31.4111 6.7915C31.5626 6.7915 31.7141 6.7915 31.8701 6.7915C31.9848 6.98335 32.0996 7.1752 32.2143 7.36704C32.3658 7.36704 32.5173 7.36704 32.6733 7.36704C32.749 7.36704 32.8248 7.36704 32.9028 7.36704C32.917 7.49168 32.917 7.49168 32.9315 7.61884C33.0345 8.00625 33.2139 8.2207 33.4765 8.51812C33.036 8.33808 32.7766 8.04625 32.4438 7.71237C32.2555 7.59255 32.0644 7.47697 31.8701 7.36704C31.6048 7.18719 31.6048 7.18719 31.4111 7.02172C31.4111 6.94575 31.4111 6.86978 31.4111 6.7915Z" fill="#6576A1"/>
<path d="M32.5586 19.3384C32.7728 19.364 32.7728 19.364 33.0176 19.4535C33.1547 19.6833 33.1547 19.6833 33.2614 19.9643C33.4222 20.38 33.4222 20.38 33.706 20.7197C33.5167 20.7197 33.3274 20.7197 33.1323 20.7197C33.0802 20.5891 33.0282 20.4585 32.9745 20.324C32.8373 19.9085 32.8373 19.9085 32.5586 19.7988C32.5586 19.6469 32.5586 19.4949 32.5586 19.3384Z" fill="#912542"/>
<path d="M30.3779 6.21606C30.7352 6.38863 31.0804 6.57077 31.4106 6.7916C31.4106 6.86758 31.4106 6.94355 31.4106 7.02182C31.3301 7.03606 31.2497 7.05031 31.1668 7.06499C30.8166 7.14135 30.4865 7.24883 30.1484 7.36714C30.1863 7.25319 30.2242 7.13923 30.2632 7.02182C30.3389 6.98383 30.4146 6.94585 30.4927 6.90671C30.4548 6.6788 30.4169 6.45088 30.3779 6.21606Z" fill="#C83346"/>
<path d="M32.7881 8.05786C34.1313 8.87673 34.1313 8.87673 34.624 9.43916C34.5861 9.51513 34.5482 9.5911 34.5092 9.66937C34.4134 9.56254 34.4134 9.56254 34.3156 9.45354C34.0426 9.20191 33.825 9.09523 33.4765 8.97872C33.4765 8.90275 33.4765 8.82678 33.4765 8.74851C33.2872 8.71052 33.0979 8.67254 32.9028 8.6334C32.865 8.44347 32.8271 8.25354 32.7881 8.05786Z" fill="#AB4460"/>
<path d="M37.0332 26.5901C37.4851 26.9726 37.4851 26.9726 37.5209 27.3671C37.5114 27.4525 37.5019 27.538 37.4922 27.6261C37.5679 27.6261 37.6436 27.6261 37.7217 27.6261C37.8019 27.8101 37.8805 27.9949 37.9583 28.18C38.0022 28.2828 38.0462 28.3857 38.0914 28.4916C38.1806 28.7771 38.1806 28.7771 38.0659 29.1225C37.8475 28.7939 37.7834 28.6138 37.7073 28.2376C37.6881 28.1445 37.6689 28.0515 37.6491 27.9556C37.6351 27.8849 37.6212 27.8141 37.6069 27.7412C37.5312 27.7412 37.4555 27.7412 37.3774 27.7412C37.144 27.3119 37.0332 27.0886 37.0332 26.5901Z" fill="#951B49"/>
<path d="M31.9844 0.921143C32.6453 0.99094 33.2144 1.23845 33.8203 1.49668C33.8203 1.57265 33.8203 1.64862 33.8203 1.7269C33.9717 1.76488 34.1232 1.80287 34.2792 1.84201C34.2792 1.91798 34.2792 1.99395 34.2792 2.07222C33.7781 1.87893 33.2946 1.65403 32.8091 1.42474C32.6898 1.36865 32.6898 1.36865 32.5682 1.31143C32.3735 1.21985 32.1789 1.12807 31.9844 1.03625C31.9844 0.998265 31.9844 0.960279 31.9844 0.921143Z" fill="#CDB54B"/>
<path d="M16.7236 19.9138C16.797 19.9637 16.8704 20.0135 16.9459 20.0649C17.39 20.3103 17.8468 20.4556 18.33 20.6045C18.33 20.6425 18.33 20.6804 18.33 20.7196C17.6462 20.7557 17.2162 20.6976 16.6089 20.3742C16.571 20.2983 16.5332 20.2223 16.4941 20.144C16.5699 20.144 16.6456 20.144 16.7236 20.144C16.7236 20.0681 16.7236 19.9921 16.7236 19.9138Z" fill="#B73E71"/>
<path d="M25.6738 12.6621C26.0574 12.7308 26.3008 12.8619 26.5918 13.1225C26.5918 13.1985 26.5918 13.2745 26.5918 13.3528C26.7267 13.4062 26.7267 13.4062 26.8643 13.4607C27.1655 13.583 27.1655 13.583 27.395 13.6981C27.3571 13.85 27.3192 14.002 27.2802 14.1585C27.2424 14.0446 27.2045 13.9306 27.1655 13.8132C26.9473 13.7441 26.9473 13.7441 26.7065 13.6981C26.5929 13.6221 26.4793 13.5461 26.3623 13.4679C26.3623 13.3539 26.3623 13.24 26.3623 13.1225C26.2913 13.0893 26.2203 13.0561 26.1471 13.0218C25.9033 12.8923 25.9033 12.8923 25.6738 12.6621Z" fill="#AC2345"/>
<path d="M34.3945 22.2161C34.4324 22.292 34.4703 22.368 34.5093 22.4463C34.6122 22.4855 34.6122 22.4855 34.7172 22.5254C35.11 22.7618 35.2296 23.0711 35.4272 23.4823C35.3894 23.5582 35.3515 23.6342 35.3125 23.7125C35.1989 23.6365 35.0853 23.5605 34.9682 23.4823C34.9682 23.5582 34.9682 23.6342 34.9682 23.7125C34.8925 23.7125 34.8168 23.7125 34.7388 23.7125C34.7601 23.627 34.7814 23.5415 34.8033 23.4535C34.8526 23.1427 34.8364 22.9704 34.7388 22.6765C34.6252 22.6765 34.5116 22.6765 34.3945 22.6765C34.3945 22.5246 34.3945 22.3726 34.3945 22.2161Z" fill="#851D51"/>
<path d="M38.9834 1.38159C39.5104 1.55264 39.8366 1.82477 40.2456 2.18735C39.9598 2.33071 39.8542 2.27676 39.5571 2.18735C39.5192 2.26332 39.4814 2.33929 39.4424 2.41756C39.2909 2.07569 39.1394 1.73382 38.9834 1.38159Z" fill="#EC9F2C"/>
<path d="M30.8369 0.230469C31.102 0.268454 31.367 0.30644 31.6401 0.345577C31.6401 0.421548 31.6401 0.497519 31.6401 0.575792C31.7537 0.575792 31.8673 0.575792 31.9843 0.575792C31.9843 0.689749 31.9843 0.803706 31.9843 0.921116C31.8329 0.921116 31.6814 0.921116 31.5254 0.921116C31.5254 0.845145 31.5254 0.769174 31.5254 0.6909C31.1846 0.633922 31.1846 0.633922 30.8369 0.575792C30.8369 0.461836 30.8369 0.347879 30.8369 0.230469Z" fill="#DEB542"/>
<path d="M42.9995 15.4248C43.0374 15.4248 43.0753 15.4248 43.1143 15.4248C43.1143 15.6527 43.1143 15.8806 43.1143 16.1155C43.0007 16.1155 42.8871 16.1155 42.77 16.1155C42.77 16.5713 42.77 17.0271 42.77 17.4967C42.4258 17.1514 42.4258 17.1514 42.4043 16.8421C42.4114 16.7542 42.4185 16.6664 42.4258 16.5759C42.5015 16.5759 42.5773 16.5759 42.6553 16.5759C42.6174 16.386 42.5796 16.196 42.5406 16.0003C42.6541 15.9624 42.7677 15.9244 42.8848 15.8852C42.9689 15.6533 42.9689 15.6533 42.9995 15.4248Z" fill="#3D93BC"/>
<path d="M28.6572 11.7412C28.7329 11.7792 28.8087 11.8172 28.8867 11.8563C28.8867 11.9323 28.8867 12.0083 28.8867 12.0865C28.811 12.0865 28.7352 12.0865 28.6572 12.0865C28.6572 12.1625 28.6572 12.2385 28.6572 12.3168C28.3533 12.5887 28.1276 12.7624 27.7393 12.8923C27.9035 12.3155 28.1964 12.0929 28.6572 11.7412Z" fill="#FDDFDC"/>
<path d="M33.3613 11.5111C35.3566 11.4674 35.3566 11.4674 36.1152 11.7414C36.1909 11.8173 36.2666 11.8933 36.3446 11.9716C36.0115 11.9912 35.7789 11.9745 35.4626 11.8601C35.0332 11.726 34.6246 11.6902 34.1789 11.6694C34.0999 11.665 34.0209 11.6605 33.9395 11.6559C33.7468 11.6452 33.5541 11.6356 33.3613 11.6263C33.3613 11.5883 33.3613 11.5503 33.3613 11.5111Z" fill="#FDE0E6"/>
<path d="M34.8535 9.43921C35.1375 9.49619 35.1375 9.49619 35.4272 9.55432C35.4225 9.65878 35.4178 9.76324 35.4129 9.87086C35.4267 10.2309 35.4721 10.4045 35.6567 10.7054C35.389 10.4368 35.1212 10.1682 34.8535 9.89964C34.8535 9.7477 34.8535 9.59576 34.8535 9.43921Z" fill="#4684C2"/>
<path d="M25.6733 16.9211C25.7491 16.9211 25.8248 16.9211 25.9028 16.9211C25.9121 17.1849 25.9188 17.4487 25.9243 17.7125C25.9283 17.8594 25.9323 18.0063 25.9364 18.1577C25.9253 18.2814 25.9143 18.4052 25.9028 18.5327C25.7324 18.6466 25.7324 18.6466 25.5586 18.7629C25.5965 18.1551 25.6343 17.5473 25.6733 16.9211Z" fill="#582650"/>
<path d="M28.1982 4.83472C28.8011 4.88215 29.1432 4.97693 29.5752 5.41026C29.613 5.52421 29.6509 5.63817 29.6899 5.75558C29.1479 5.56867 28.6639 5.28249 28.1982 4.94982C28.1982 4.91184 28.1982 4.87385 28.1982 4.83472Z" fill="#7D6186"/>
<path d="M41.9673 19.7988C42.043 19.7988 42.1187 19.7988 42.1968 19.7988C42.1278 20.4492 41.9586 21.0261 41.7378 21.6406C41.6999 21.6406 41.6621 21.6406 41.623 21.6406C41.623 21.3367 41.623 21.0328 41.623 20.7197C41.6988 20.7197 41.7745 20.7197 41.8525 20.7197C41.8904 20.4158 41.9283 20.1119 41.9673 19.7988Z" fill="#507EB7"/>
<path d="M4.33102 13.2375C4.40675 13.2755 4.48248 13.3135 4.5605 13.3527C4.06826 13.8465 3.57601 14.3403 3.06884 14.8491C3.03098 14.7351 2.99311 14.6211 2.9541 14.5037C3.40848 14.0859 3.86287 13.6681 4.33102 13.2375Z" fill="#9A1B50"/>
<path d="M42.082 9.43921C42.1956 9.47719 42.3092 9.51518 42.4263 9.55432C42.4263 9.74424 42.4263 9.93417 42.4263 10.1299C42.502 10.1299 42.5777 10.1299 42.6557 10.1299C42.6936 10.2058 42.7315 10.2818 42.7705 10.3601C42.8462 10.3601 42.922 10.3601 43 10.3601C42.9621 10.55 42.9242 10.7399 42.8852 10.9356C42.3329 10.469 42.2099 10.1273 42.082 9.43921Z" fill="#D6B249"/>
<path d="M16.1504 5.52539C16.1788 5.65122 16.2072 5.77705 16.2364 5.90669C16.3822 6.33795 16.4553 6.45845 16.8388 6.67647C16.4552 6.61232 16.1466 6.52087 15.8061 6.33115C15.8061 6.21719 15.8061 6.10323 15.8061 5.98582C15.6925 5.94784 15.579 5.90985 15.4619 5.87071C16.0213 5.52539 16.0213 5.52539 16.1504 5.52539Z" fill="#B61C40"/>
<path d="M26.9355 13.8132C27.0113 13.8132 27.087 13.8132 27.165 13.8132C27.2941 14.4751 27.2941 14.4751 27.165 14.7341C27.1388 14.9686 27.118 15.2038 27.1005 15.4391C27.0909 15.5653 27.0813 15.6914 27.0714 15.8213C27.0644 15.9184 27.0575 16.0154 27.0503 16.1154C27.0124 16.1154 26.9746 16.1154 26.9355 16.1154C26.9355 15.3557 26.9355 14.596 26.9355 13.8132Z" fill="#661D4F"/>
<path d="M29.2305 13.1226C29.3062 13.1605 29.3819 13.1985 29.4599 13.2377C29.4031 13.2804 29.3463 13.3231 29.2878 13.3672C29.0799 13.5819 29.0799 13.5819 29.1157 13.9283C29.1157 14.2736 29.1157 14.2736 28.9436 14.4895C28.8868 14.5322 28.83 14.5749 28.7715 14.619C28.6439 14.2233 28.6462 14.069 28.8073 13.6765C29.001 13.3528 29.001 13.3528 29.2305 13.1226Z" fill="#D44348"/>
<path d="M25.4443 24.8635C25.6778 25.0264 25.7776 25.157 25.837 25.4368C25.8646 25.6672 25.8844 25.8985 25.9033 26.1297C25.979 26.1297 26.0548 26.1297 26.1328 26.1297C26.1707 26.3576 26.2085 26.5855 26.2475 26.8204C25.9379 26.5489 25.8018 26.2888 25.6523 25.9067C25.6128 25.8083 25.5733 25.7099 25.5326 25.6086C25.4443 25.324 25.4443 25.324 25.4443 24.8635Z" fill="#831D59"/>
<path d="M38.8691 5.06494C38.9449 5.06494 39.0206 5.06494 39.0986 5.06494C39.0986 5.14091 39.0986 5.21688 39.0986 5.29516C39.1744 5.29516 39.2501 5.29516 39.3281 5.29516C39.3281 5.37113 39.3281 5.4471 39.3281 5.52537C39.4796 5.56336 39.631 5.60134 39.7871 5.64048C39.7871 5.75444 39.7871 5.86839 39.7871 5.9858C39.3528 5.92356 39.1455 5.74687 38.8691 5.41027C38.8691 5.29631 38.8691 5.18235 38.8691 5.06494Z" fill="#789D89"/>
<path d="M38.6396 15.5398C38.9236 15.5968 38.9236 15.5968 39.2134 15.6549C39.2134 15.9588 39.2134 16.2627 39.2134 16.5758C38.7703 16.2795 38.7609 16.0451 38.6396 15.5398Z" fill="#597FA5"/>
<path d="M41.5078 8.6333C41.5457 8.70927 41.5835 8.78524 41.6226 8.86352C41.6983 8.86352 41.774 8.86352 41.852 8.86352C42.0839 9.36913 42.2432 9.80204 42.311 10.3599C41.7373 9.60125 41.7373 9.60125 41.7373 9.09373C41.6616 9.09373 41.5858 9.09373 41.5078 9.09373C41.5078 8.94179 41.5078 8.78985 41.5078 8.6333Z" fill="#4D90A2"/>
<path d="M30.3779 0.230469C30.5294 0.230469 30.6809 0.230469 30.8369 0.230469C30.8369 0.344426 30.8369 0.458382 30.8369 0.575792C31.1777 0.632771 31.1777 0.632771 31.5254 0.6909C31.5254 0.766872 31.5254 0.842843 31.5254 0.921116C31.6768 0.959102 31.8283 0.997087 31.9843 1.03622C31.4317 1.06884 30.9477 0.986997 30.507 0.633346C30.3779 0.460685 30.3779 0.460685 30.3779 0.230469Z" fill="#77948E"/>
<path d="M35.6562 24.1729C35.9889 24.3397 36.0732 24.583 36.2515 24.9067C36.3146 25.0191 36.3778 25.1316 36.4429 25.2475C36.5742 25.5541 36.5742 25.5541 36.4595 25.8995C36.3837 25.8235 36.308 25.7475 36.23 25.6693C36.23 25.5553 36.23 25.4413 36.23 25.3239C36.1542 25.3239 36.0785 25.3239 36.0005 25.3239C35.8869 24.9441 35.7733 24.5642 35.6562 24.1729Z" fill="#811F49"/>
<path d="M39.7871 18.4175C40.1199 18.5844 40.1413 18.7988 40.2676 19.1441C40.3095 19.2552 40.3513 19.3664 40.3944 19.4809C40.4766 19.8028 40.4747 19.9529 40.3608 20.2592C40.1583 19.9037 40.1313 19.7719 40.1313 19.3383C40.0556 19.3383 39.9799 19.3383 39.9019 19.3383C39.864 19.0345 39.8261 18.7306 39.7871 18.4175Z" fill="#AF405C"/>
<path d="M19.1328 18.4175C19.2843 18.4175 19.4357 18.4175 19.5918 18.4175C19.5918 18.5314 19.5918 18.6454 19.5918 18.7628C19.8961 18.8866 20.1981 19.0039 20.5097 19.1081C20.5476 19.2221 20.5855 19.336 20.6245 19.4535C20.0113 19.2364 19.4983 18.9675 19.1328 18.4175Z" fill="#831958"/>
<path d="M29.3457 15.8853C29.4783 15.9894 29.6095 16.0953 29.7401 16.2018C29.8133 16.2606 29.8866 16.3193 29.962 16.3799C30.1705 16.5985 30.2182 16.7412 30.2636 17.0363C29.9911 16.9572 29.9911 16.9572 29.6899 16.8061C29.5465 16.5255 29.5465 16.5255 29.4604 16.2306C29.4226 16.1166 29.3847 16.0027 29.3457 15.8853Z" fill="#8A184F"/>
<path d="M37.0332 12.8923C37.1089 12.8923 37.1847 12.8923 37.2627 12.8923C37.6069 13.5542 37.6069 13.5542 37.6069 13.8132C37.4933 13.8132 37.3797 13.8132 37.2627 13.8132C37.2248 13.8892 37.187 13.9651 37.1479 14.0434C37.1101 13.6636 37.0722 13.2837 37.0332 12.8923Z" fill="#AF3F56"/>
<path d="M30.5147 12.8851C30.618 12.8862 30.7214 12.8872 30.828 12.8883C30.9068 12.8896 30.9856 12.8909 31.0669 12.8923C31.029 13.0063 30.9911 13.1202 30.9521 13.2376C30.4977 13.2376 30.0433 13.2376 29.5752 13.2376C29.5752 13.1617 29.5752 13.0857 29.5752 13.0074C29.9211 12.8918 30.1537 12.8804 30.5147 12.8851Z" fill="#E14657"/>
<path d="M6.74121 11.7412C6.92555 11.7707 7.10956 11.8023 7.29341 11.8347C7.44716 11.8608 7.44716 11.8608 7.60402 11.8873C7.90966 11.9776 8.03286 12.0734 8.23287 12.3168C8.11927 12.3737 8.11927 12.3737 8.00338 12.4319C7.70487 12.3172 7.70487 12.3172 7.35795 12.1513C7.18534 12.0696 7.18534 12.0696 7.00924 11.9863C6.92079 11.9434 6.83234 11.9005 6.74121 11.8563C6.74121 11.8183 6.74121 11.7803 6.74121 11.7412Z" fill="#8B1D5F"/>
<path d="M39.7871 25.7844C39.9007 25.8224 40.0143 25.8604 40.1313 25.8995C39.942 26.2794 39.7527 26.6592 39.5576 27.0506C39.4819 27.0506 39.4062 27.0506 39.3281 27.0506C39.3281 26.9367 39.3281 26.8227 39.3281 26.7053C39.4039 26.7053 39.4796 26.7053 39.5576 26.7053C39.5576 26.5533 39.5576 26.4014 39.5576 26.2449C39.6333 26.2449 39.7091 26.2449 39.7871 26.2449C39.7871 26.0929 39.7871 25.941 39.7871 25.7844Z" fill="#DA2033"/>
<path d="M34.624 9.66919C35.1599 10.0324 35.3266 10.3442 35.542 10.9354C35.4284 10.9734 35.3148 11.0113 35.1977 11.0505C35.2356 10.8985 35.2735 10.7466 35.3125 10.5901C35.1989 10.5521 35.0853 10.5141 34.9683 10.4749C34.624 9.97614 34.624 9.97614 34.624 9.66919Z" fill="#BC3C4A"/>
<path d="M34.7383 2.41748C34.8897 2.45547 35.0412 2.49345 35.1973 2.53259C35.1973 2.60856 35.1973 2.68453 35.1973 2.7628C35.3866 2.7628 35.5759 2.7628 35.771 2.7628C35.771 2.83878 35.771 2.91475 35.771 2.99302C36.055 3.10698 36.055 3.10698 36.3447 3.22324C36.1932 3.26122 36.0418 3.29921 35.8857 3.33834C35.81 3.1864 35.7343 3.03446 35.6562 2.87791C35.4669 2.87791 35.2776 2.87791 35.0825 2.87791C35.0825 2.80194 35.0825 2.72597 35.0825 2.6477C34.9689 2.6477 34.8553 2.6477 34.7383 2.6477C34.7383 2.57173 34.7383 2.49575 34.7383 2.41748Z" fill="#60949B"/>
<path d="M41.0488 21.6406C41.2003 21.6406 41.3517 21.6406 41.5078 21.6406C41.6464 22.0577 41.5701 22.1749 41.3931 22.5615C41.3173 22.5235 41.2416 22.4855 41.1636 22.4464C41.1168 22.1791 41.0782 21.9103 41.0488 21.6406Z" fill="#537EA8"/>
<path d="M42.6552 17.4966C42.6931 17.4966 42.7309 17.4966 42.77 17.4966C42.7568 17.6597 42.7421 17.8228 42.7269 17.9858C42.7189 18.0766 42.711 18.1674 42.7027 18.261C42.6535 18.5424 42.565 18.7453 42.4257 18.993C42.4195 18.8084 42.4151 18.6237 42.4114 18.439C42.4087 18.3362 42.4061 18.2334 42.4033 18.1274C42.4257 17.8419 42.4257 17.8419 42.6552 17.4966Z" fill="#4E82BA"/>
<path d="M37.6064 13.8132C37.6443 13.8892 37.6822 13.9652 37.7212 14.0434C37.7969 14.0434 37.8726 14.0434 37.9507 14.0434C38.0798 14.806 38.0798 14.806 37.9507 15.1945C37.8749 15.1945 37.7992 15.1945 37.7212 15.1945C37.7068 14.5327 37.7068 14.5327 37.8359 14.2737C37.7602 14.2737 37.6845 14.2737 37.6064 14.2737C37.6064 14.1217 37.6064 13.9698 37.6064 13.8132Z" fill="#D52A36"/>
<path d="M42.7703 5.87085C43.0647 6.31393 43.063 6.61156 43.1145 7.13704C43.0388 7.13704 42.9631 7.13704 42.885 7.13704C42.6513 6.66812 42.6526 6.37855 42.7703 5.87085Z" fill="#E79E36"/>
<path d="M36.001 2.99316C36.2282 2.99316 36.4554 2.99316 36.6894 2.99316C36.803 3.22108 36.9166 3.44899 37.0337 3.68381C36.582 3.53276 36.3191 3.3478 36.001 2.99316Z" fill="#CDB051"/>
<path d="M35.3125 30.7341C35.4261 30.8481 35.5397 30.962 35.6567 31.0795C35.1455 31.2504 35.1455 31.2504 34.624 31.4248C34.624 31.3488 34.624 31.2728 34.624 31.1946C34.7376 31.1946 34.8512 31.1946 34.9683 31.1946C34.9683 31.1186 34.9683 31.0426 34.9683 30.9643C35.0818 30.8884 35.1954 30.8124 35.3125 30.7341Z" fill="#741F52"/>
<path d="M26.0177 26.7053C26.1313 26.7623 26.1313 26.7623 26.2472 26.8204C26.3028 27.0502 26.3028 27.0502 26.3333 27.3312C26.3445 27.4237 26.3557 27.5161 26.3673 27.6113C26.3619 27.8564 26.3619 27.8564 26.1325 28.0866C26.0222 27.7549 26.0056 27.5458 26.0105 27.2017C26.0116 27.1087 26.0126 27.0157 26.0137 26.9198C26.015 26.849 26.0163 26.7782 26.0177 26.7053Z" fill="#A6216B"/>
<path d="M23.7227 13.2375C23.9481 13.4257 24.0581 13.5212 24.1005 13.818C24.0893 14.0466 24.0781 14.2752 24.0669 14.5037C23.9912 14.4658 23.9154 14.4278 23.8374 14.3886C23.7899 14.1256 23.7899 14.1256 23.7657 13.8059C23.7571 13.7001 23.7485 13.5943 23.7397 13.4853C23.7341 13.4035 23.7284 13.3218 23.7227 13.2375Z" fill="#6C315C"/>
<path d="M25.2148 12.4319C25.2906 12.4319 25.3663 12.4319 25.4443 12.4319C25.4443 12.5079 25.4443 12.5838 25.4443 12.6621C25.5757 12.7084 25.5757 12.7084 25.7097 12.7556C26.0036 12.8859 26.1554 12.9973 26.3623 13.2376C25.971 13.1471 25.5948 13.0223 25.2148 12.8923C25.2148 12.7404 25.2148 12.5884 25.2148 12.4319Z" fill="#7B1D44"/>
<path d="M40.4756 20.2593C40.7644 20.549 40.8324 20.786 40.9346 21.1801C40.8915 21.4535 40.8915 21.4535 40.8198 21.6406C40.7441 21.6026 40.6684 21.5646 40.5903 21.5255C40.5428 21.2372 40.5428 21.2372 40.5186 20.8852C40.51 20.7687 40.5015 20.6522 40.4926 20.5322C40.487 20.4421 40.4814 20.3521 40.4756 20.2593Z" fill="#B14455"/>
<path d="M36.001 14.5039C36.0933 14.5894 36.0933 14.5894 36.1874 14.6766C36.5281 14.8924 36.7529 14.8763 37.1484 14.8492C37.1484 14.9252 37.1484 15.0012 37.1484 15.0794C36.7698 15.0794 36.3911 15.0794 36.001 15.0794C36.001 14.8895 36.001 14.6996 36.001 14.5039Z" fill="#FFEFE9"/>
<path d="M43 11.9714C43.2304 12.2025 43.3435 12.3592 43.459 12.6621C43.4186 13.0062 43.3641 13.1026 43.1147 13.3527C43.0769 12.8969 43.039 12.4411 43 11.9714Z" fill="#6D919B"/>
<path d="M35.1978 9.20898C35.3492 9.28496 35.5007 9.36093 35.6567 9.4392C35.6567 9.7051 35.6567 9.971 35.6567 10.245C35.5431 10.245 35.4295 10.245 35.3125 10.245C35.3172 10.1357 35.322 10.0265 35.3268 9.91402C35.3526 9.54252 35.3526 9.54252 35.083 9.32409C35.1209 9.28611 35.1587 9.24812 35.1978 9.20898Z" fill="#2C94C9"/>
<path d="M38.4102 4.71973C38.7131 4.75771 39.016 4.7957 39.3281 4.83483C39.3281 4.98678 39.3281 5.13872 39.3281 5.29527C39.2524 5.29527 39.1766 5.29527 39.0986 5.29527C39.0986 5.21929 39.0986 5.14332 39.0986 5.06505C39.0063 5.05081 38.914 5.03656 38.8189 5.02188C38.7219 4.99814 38.6249 4.9744 38.5249 4.94994C38.487 4.87397 38.4492 4.798 38.4102 4.71973Z" fill="#D7AF40"/>
<path d="M25.0996 25.0938C25.3219 25.1801 25.3219 25.1801 25.5586 25.324C25.6446 25.5686 25.6446 25.5686 25.6733 25.7844C25.5219 25.7844 25.3704 25.7844 25.2144 25.7844C25.1765 25.5565 25.1386 25.3286 25.0996 25.0938Z" fill="#A52463"/>
<path d="M40.5898 20.2593C40.7034 20.3163 40.7034 20.3163 40.8193 20.3744C40.8193 20.4883 40.8193 20.6023 40.8193 20.7197C40.8951 20.7197 40.9708 20.7197 41.0488 20.7197C41.0488 21.0236 41.0488 21.3275 41.0488 21.6406C40.8204 21.2151 40.5898 20.7493 40.5898 20.2593Z" fill="#597EA5"/>
<path d="M32.5586 19.3384C32.7737 19.3528 32.7737 19.3528 33.0176 19.4535C33.161 19.806 33.161 19.806 33.2471 20.1441C33.0199 20.0302 32.7927 19.9162 32.5586 19.7988C32.5586 19.6469 32.5586 19.4949 32.5586 19.3384Z" fill="#C41F3F"/>
<path d="M25.4443 13.698C25.4822 13.698 25.5201 13.698 25.5591 13.698C25.5591 14.1158 25.5591 14.5337 25.5591 14.9642C25.3697 15.0402 25.1804 15.1161 24.9854 15.1944C25.0232 15.0804 25.0611 14.9665 25.1001 14.8491C25.2137 14.8491 25.3273 14.8491 25.4443 14.8491C25.4443 14.4692 25.4443 14.0894 25.4443 13.698Z" fill="#5B2453"/>
<path d="M39.0986 11.6262C39.3258 11.6262 39.553 11.6262 39.7871 11.6262C39.825 11.8541 39.8628 12.082 39.9018 12.3169C39.7504 12.2409 39.5989 12.1649 39.4429 12.0867C39.4429 11.9727 39.4429 11.8587 39.4429 11.7413C39.3293 11.7033 39.2157 11.6654 39.0986 11.6262Z" fill="#4D94C2"/>
<path d="M20.7392 8.28809C20.7014 8.516 20.6635 8.74391 20.6245 8.97873C20.3405 8.86478 20.3405 8.86478 20.0508 8.74852C20.0508 8.67255 20.0508 8.59658 20.0508 8.5183C20.395 8.28809 20.395 8.28809 20.7392 8.28809Z" fill="#D8212A"/>
<path d="M28.542 14.3887C28.5799 14.3887 28.6177 14.3887 28.6567 14.3887C28.6567 14.8065 28.6567 15.2244 28.6567 15.6549C28.5431 15.5409 28.4295 15.4269 28.3125 15.3095C28.3455 14.9788 28.4371 14.7043 28.542 14.3887Z" fill="#F8D1E3"/>
<path d="M26.3623 12.6621C26.636 12.7284 26.8978 12.8028 27.1655 12.8923C27.1655 12.9683 27.1655 13.0443 27.1655 13.1225C26.9383 13.1225 26.7111 13.1225 26.477 13.1225C26.4392 12.9706 26.4013 12.8187 26.3623 12.6621Z" fill="#E3221B"/>
<path d="M24.6406 11.9714C25.0853 12.1873 25.0853 12.1873 25.2143 12.3168C25.219 12.5085 25.2192 12.7005 25.2143 12.8923C25.2901 12.9303 25.3658 12.9683 25.4438 13.0074C25.3681 13.0834 25.2924 13.1593 25.2143 13.2376C25.1825 13.1655 25.1507 13.0934 25.118 13.0191C25.0764 12.925 25.0348 12.8309 24.992 12.734C24.9508 12.6405 24.9095 12.5471 24.867 12.4508C24.7947 12.2895 24.7194 12.1296 24.6406 11.9714Z" fill="#7B435F"/>
<path d="M30.6074 6.21606C30.9244 6.27623 31.2186 6.34368 31.5254 6.44628C31.4875 6.56024 31.4496 6.67419 31.4106 6.7916C30.7365 6.47506 30.7365 6.47506 30.6074 6.21606Z" fill="#4F7FC4"/>
<path d="M19.1338 3.91382C19.2095 3.9518 19.2852 3.98979 19.3633 4.02893C19.1338 4.37425 19.1338 4.37425 18.9106 4.43315C18.828 4.43983 18.7455 4.44651 18.6604 4.45339C18.4404 4.47119 18.4404 4.47119 18.2158 4.48936C18.508 4.25907 18.7873 4.05285 19.1338 3.91382Z" fill="#C61F27"/>
<path d="M40.2461 2.30249C40.5112 2.5304 40.7762 2.75832 41.0493 2.99314C40.9357 3.03112 40.8221 3.06911 40.7051 3.10825C40.3608 2.87803 40.3608 2.87803 40.282 2.57587C40.2701 2.48566 40.2583 2.39544 40.2461 2.30249Z" fill="#E9A028"/>
<path d="M34.5088 22.1011C34.8496 22.1011 35.1904 22.1011 35.5415 22.1011C35.5415 22.1391 35.5415 22.177 35.5415 22.2162C35.3143 22.2162 35.0871 22.2162 34.853 22.2162C34.8909 22.3681 34.9287 22.5201 34.9678 22.6766C34.8163 22.6006 34.6648 22.5247 34.5088 22.4464C34.5088 22.3324 34.5088 22.2185 34.5088 22.1011Z" fill="#C62635"/>
<path d="M24.0674 21.9858C24.0674 22.1758 24.0674 22.3657 24.0674 22.5614C23.8402 22.4474 23.613 22.3335 23.3789 22.2161C23.7231 21.9858 23.7231 21.9858 24.0674 21.9858Z" fill="#742257"/>
<path d="M35.771 20.2593C35.8088 20.3352 35.8467 20.4112 35.8857 20.4895C35.7721 20.6604 35.7721 20.6604 35.6562 20.8348C35.433 20.8685 35.433 20.8685 35.1829 20.8564C35.0362 20.8493 34.8895 20.8422 34.7383 20.8348C34.8022 20.804 34.8661 20.7731 34.9319 20.7413C35.2199 20.5929 35.4948 20.4286 35.771 20.2593Z" fill="#FDDFDE"/>
<path d="M20.8545 19.7988C21.2939 19.966 21.442 20.1935 21.6577 20.6046C21.3852 20.5254 21.3852 20.5254 21.084 20.3744C20.9334 20.0722 20.9334 20.0722 20.8545 19.7988Z" fill="#9D1F65"/>
<path d="M39.2129 17.3816C39.3265 17.4386 39.3265 17.4386 39.4424 17.4967C39.4424 17.5727 39.4424 17.6486 39.4424 17.7269C39.5181 17.7269 39.5938 17.7269 39.6719 17.7269C39.7097 17.9548 39.7476 18.1827 39.7866 18.4176C39.7487 18.3416 39.7109 18.2656 39.6719 18.1873C39.5961 18.1873 39.5204 18.1873 39.4424 18.1873C39.3666 17.9214 39.2909 17.6555 39.2129 17.3816Z" fill="#C63045"/>
<path d="M17.0684 17.0363C17.3265 16.9931 17.3265 16.9931 17.6421 17.0363C17.9074 17.3816 17.9074 17.3816 18.101 17.7269C17.6493 17.5759 17.3865 17.3909 17.0684 17.0363Z" fill="#821B58"/>
<path d="M16.8382 13.1226C16.914 13.1226 16.9897 13.1226 17.0677 13.1226C16.9875 13.4848 16.8657 13.8162 16.7235 14.1585C16.5793 13.8693 16.5848 13.6731 16.6087 13.3528C16.6845 13.2768 16.7602 13.2008 16.8382 13.1226Z" fill="#612B56"/>
<path d="M21.543 9.66919C21.9374 9.76271 21.9374 9.76271 22.3462 9.89941C22.384 10.0134 22.4219 10.1273 22.4609 10.2447C22.0254 10.1823 21.833 9.99134 21.543 9.66919Z" fill="#C22138"/>
<path d="M42.1963 4.60449C42.4434 4.9063 42.5865 5.13906 42.6553 5.52536C42.5038 5.48737 42.3523 5.44938 42.1963 5.41025C42.1963 5.14435 42.1963 4.87845 42.1963 4.60449Z" fill="#E7A230"/>
<path d="M26.3623 3.91382C27.2311 4.12759 27.2311 4.12759 27.5097 4.48936C27.3204 4.48936 27.1311 4.48936 26.936 4.48936C26.936 4.41339 26.936 4.33742 26.936 4.25914C26.7846 4.25914 26.6331 4.25914 26.477 4.25914C26.4392 4.14519 26.4013 4.03123 26.3623 3.91382Z" fill="#BD374A"/>
<path d="M20.395 3.33838C20.4329 3.41435 20.4707 3.49032 20.5097 3.56859C20.1272 3.82079 19.8165 3.96394 19.3623 4.02903C19.6543 3.68731 19.9922 3.52693 20.395 3.33838Z" fill="#DF1C35"/>
<path d="M13.5107 14.9644C14.2592 15.021 14.2592 15.021 14.5363 15.3169C14.5765 15.3905 14.6167 15.4641 14.6582 15.5399C14.2093 15.4068 13.8694 15.2688 13.5107 14.9644Z" fill="#861C59"/>
<path d="M17.9863 7.25195C18.3768 7.37382 18.6763 7.48321 19.019 7.71238C18.9811 7.78836 18.9433 7.86433 18.9043 7.9426C18.6014 7.79066 18.2984 7.63872 17.9863 7.48217C17.9863 7.4062 17.9863 7.33023 17.9863 7.25195Z" fill="#CC2231"/>
<path d="M40.0166 6.21606C40.2963 6.35276 40.2963 6.35276 40.5903 6.56139C40.6835 6.87074 40.6835 6.87074 40.7051 7.13693C40.1457 6.60455 40.1457 6.60455 40.0166 6.21606Z" fill="#9D9F6C"/>
<path d="M27.3945 4.14404C27.8535 4.14404 27.8535 4.14404 28.0238 4.29512C28.1583 4.47498 28.2928 4.65483 28.4272 4.83469C28.2379 4.7967 28.0486 4.75872 27.8535 4.71958C27.8417 4.64599 27.8298 4.57239 27.8176 4.49656C27.7916 4.41822 27.7656 4.33987 27.7388 4.25915C27.6252 4.22117 27.5116 4.18318 27.3945 4.14404Z" fill="#517AAA"/>
</g>
<defs>
<clipPath id="clip0_175_18430">
<rect width="98.1053" height="32" fill="white" transform="translate(0.774414 0.000244141)"/>
</clipPath>
</defs>
</svg>
