<svg width="19" height="23" viewBox="0 0 19 23" fill="none" xmlns="http://www.w3.org/2000/svg">
<g clip-path="url(#clip0_175_18219)">
<path d="M15.86 11.93C15.85 10.08 16.687 8.684 18.38 7.655C17.433 6.3 16.001 5.554 14.111 5.408C12.322 5.267 10.367 6.451 9.651 6.451C8.895 6.451 7.161 5.458 5.801 5.458C2.989 5.503 0 7.701 0 12.171C0 13.491 0.242 14.857 0.726 16.263C1.371 18.113 3.699 22.649 6.128 22.573C7.398 22.543 8.295 21.671 9.948 21.671C11.551 21.671 12.383 22.573 13.798 22.573C16.248 22.538 18.355 18.415 18.97 16.561C15.684 15.014 15.86 12.025 15.86 11.929V11.93ZM13.008 3.654C14.384 2.02 14.258 0.534 14.218 0C13.003 0.07 11.597 0.827 10.795 1.759C9.913 2.757 9.395 3.992 9.505 5.382C10.82 5.483 12.02 4.808 13.008 3.654Z" fill="white"/>
</g>
<defs>
<clipPath id="clip0_175_18219">
<rect width="19" height="23" fill="white"/>
</clipPath>
</defs>
</svg>
