<svg width="36" height="32" viewBox="0 0 36 32" fill="none" xmlns="http://www.w3.org/2000/svg">
<g clip-path="url(#clip0_175_18421)">
<path d="M22.964 7.6145H12.6963V24.3847H22.964V7.6145Z" fill="#FF5F00"/>
<path fill-rule="evenodd" clip-rule="evenodd" d="M13.7541 16.0009C13.7541 15.9979 13.7541 15.9953 13.7541 15.9927C13.7541 12.7249 15.2581 9.63521 17.8277 7.61797C15.9493 6.14238 13.6271 5.33765 11.2378 5.33765C5.3487 5.33765 0.573242 10.1135 0.573242 16.0025C0.573242 21.891 5.3487 26.6669 11.2378 26.6669C13.6271 26.6669 15.9493 25.8622 17.8266 24.3871C15.2581 22.3698 13.7541 19.2801 13.7541 16.0123C13.7541 16.0097 13.7541 16.003 13.7541 16.0004V16.0009Z" fill="#EB001B"/>
<path fill-rule="evenodd" clip-rule="evenodd" d="M35.0827 16.0009C35.0827 21.8894 30.3072 26.6652 24.4182 26.6652C22.0278 26.6652 19.7056 25.8605 17.8272 24.384C20.3979 22.3636 21.9019 19.2713 21.9019 15.9994C21.9019 12.7274 20.3979 9.63517 17.8262 7.61485C19.7056 6.13823 22.0278 5.3335 24.4182 5.3335C30.3072 5.3335 35.0827 10.1094 35.0827 15.9984V16.0009Z" fill="#F79E1B"/>
</g>
<defs>
<clipPath id="clip0_175_18421">
<rect width="34.6667" height="32" fill="white" transform="translate(0.507812 0.000244141)"/>
</clipPath>
</defs>
</svg>
