<svg width="50" height="32" viewBox="0 0 50 32" fill="none" xmlns="http://www.w3.org/2000/svg">
<g clip-path="url(#clip0_175_18425)">
<path fill-rule="evenodd" clip-rule="evenodd" d="M43.6296 12.4687L44.868 18.2445L41.5584 18.2457L43.6296 12.4687ZM35.3584 23.7476H39.576C39.5912 23.5624 40.3832 21.3952 40.4312 21.3952H45.4456C45.5608 21.3952 45.8776 23.5143 45.9896 23.7476H49.7016C49.7016 23.4115 49.3904 22.2239 49.3064 21.8103C48.9096 19.8643 48.4736 17.9209 48.0872 15.9726C47.832 14.6871 47.5616 13.3573 47.2744 12.0809C47.1896 11.703 46.512 8.23364 46.4168 8.23364H43.288C42.2448 8.23364 41.78 8.5865 41.4096 9.27097C41.0848 9.8712 40.808 10.6794 40.5296 11.3259C39.3376 14.0915 38.2616 16.821 37.0752 19.5937C36.8632 20.09 35.3768 23.528 35.3584 23.7476Z" fill="white"/>
<path fill-rule="evenodd" clip-rule="evenodd" d="M0.238281 8.75829C1.17204 8.77915 3.941 9.83811 4.495 10.2744C5.01516 10.6846 5.14188 11.5614 5.34108 12.3055C5.54788 13.0779 5.72428 13.8364 5.9394 14.6036C6.16972 15.4258 8.25996 23.7476 8.36236 23.7476H12.5018C12.6103 23.7476 16.7995 13.5636 17.4122 12.1343C17.6129 11.6665 19.0148 8.44109 19.0323 8.23355H15.5144C14.8261 8.23355 14.8777 8.0962 14.6816 8.58603C14.2289 9.71593 13.7896 10.8481 13.3407 11.9689L11.3359 17.0402C11.2266 17.3228 10.7701 18.5666 10.6556 18.7316C10.434 17.7804 10.2576 16.7097 10.08 15.7301C9.89676 14.7174 9.69108 13.7324 9.50748 12.7258C9.32756 11.7409 9.14964 10.7066 8.93532 9.72087C8.72437 8.74994 8.00796 8.23355 6.82684 8.23355H0.374121C0.290281 8.23355 0.240601 8.66381 0.238281 8.75829Z" fill="white"/>
<path fill-rule="evenodd" clip-rule="evenodd" d="M25.7954 13.152C25.7954 15.5142 27.8144 16.5007 29.384 17.3586C30.0064 17.6985 31.408 18.3594 31.3688 19.253C31.3256 20.2466 30.0536 20.7536 28.9632 20.7536C27.3104 20.7536 26.0345 20.3526 24.8818 19.7428L24.1465 23.1454C24.4064 23.2062 24.8025 23.3878 25.1129 23.4778C26.3961 23.8489 27.4448 24.0002 28.8664 24.0002C32.3384 24.0002 35.5712 22.1593 35.5712 18.751V18.6539C35.5712 16.383 33.6784 15.1788 32.1384 14.409C31.5024 14.0914 30.1336 13.4354 29.996 12.7209C29.7952 11.6775 31.292 11.2276 32.3064 11.2276C33.2384 11.2276 34.068 11.4093 34.884 11.6817C35.1128 11.758 35.4152 11.9208 35.6104 11.9663L36.3128 8.6813C35.7992 8.56178 35.2904 8.33982 34.66 8.21234C33.676 8.01314 33.1648 8.00024 32.1704 8.00024C28.9184 8.00024 25.7954 9.92009 25.7954 13.152Z" fill="white"/>
<path fill-rule="evenodd" clip-rule="evenodd" d="M17.4189 23.7476H21.4423C21.4848 23.238 21.744 22.3521 21.8521 21.805C21.9796 21.1604 22.1329 20.5176 22.2653 19.8662C22.5309 18.5614 22.8025 17.252 23.0905 15.9673C23.52 14.0528 23.9009 12.0779 24.3255 10.1459C24.3733 9.92926 24.774 8.23364 24.6685 8.23364H20.762C20.6789 8.23364 19.2174 15.273 19.0694 15.9692C18.7959 17.2558 18.5337 18.5541 18.2423 19.8472C18.0958 20.4979 17.9649 21.1433 17.8306 21.7876C17.7479 22.1852 17.4189 23.4346 17.4189 23.7476Z" fill="white"/>
</g>
<defs>
<clipPath id="clip0_175_18425">
<rect width="49.6" height="32" fill="white" transform="translate(0.174805 0.000244141)"/>
</clipPath>
</defs>
</svg>
