<svg width="24" height="24" viewBox="0 0 24 24" fill="none" xmlns="http://www.w3.org/2000/svg">
<path d="M6.37291 6.04919C6.99909 6.04919 7.50669 5.54158 7.50669 4.91542C7.50669 4.28924 6.99909 3.78163 6.37291 3.78163C5.74675 3.78163 5.23914 4.28924 5.23914 4.91542C5.23914 5.54158 5.74675 6.04919 6.37291 6.04919Z" fill="white"/>
<path d="M18.1968 6.04919C18.823 6.04919 19.3307 5.54158 19.3307 4.91542C19.3307 4.28924 18.823 3.78163 18.1968 3.78163C17.5707 3.78163 17.0631 4.28924 17.0631 4.91542C17.0631 5.54158 17.5707 6.04919 18.1968 6.04919Z" fill="white"/>
<path d="M12.2849 4.26755C12.9111 4.26755 13.4187 3.75994 13.4187 3.13378C13.4187 2.50761 12.9111 2 12.2849 2C11.6587 2 11.1511 2.50761 11.1511 3.13378C11.1511 3.75994 11.6587 4.26755 12.2849 4.26755Z" fill="white"/>
<path d="M20.7074 13.4997H16.4693V22.5699H20.7074C21.2014 22.5699 21.6752 22.3738 22.0245 22.0244C22.3738 21.6751 22.57 21.2014 22.57 20.7073V15.3624C22.57 14.8684 22.3738 14.3946 22.0245 14.0453C21.6752 13.696 21.2014 13.4997 20.7074 13.4997ZM20.999 16.3446L19.0553 20.2318C19.0221 20.2984 18.976 20.3578 18.9197 20.4066C18.8635 20.4553 18.7982 20.4926 18.7275 20.5161C18.657 20.5397 18.5824 20.5491 18.5081 20.5438C18.4338 20.5386 18.3614 20.5188 18.2947 20.4854C18.2281 20.4522 18.1687 20.4061 18.1199 20.3498C18.0712 20.2936 18.0339 20.2283 18.0103 20.1576C17.9868 20.0871 17.9774 20.0124 17.9827 19.9382C17.988 19.8639 18.0078 19.7914 18.0411 19.7248L19.5736 16.6581H18.5474C18.3971 16.6581 18.2529 16.5983 18.1466 16.492C18.0403 16.3857 17.9806 16.2415 17.9805 16.0913C17.9805 15.9409 18.0402 15.7967 18.1465 15.6903C18.2529 15.5841 18.3971 15.5243 18.5474 15.5243H20.491C20.5877 15.5243 20.6828 15.5488 20.7673 15.5958C20.8517 15.6427 20.9229 15.7106 20.9737 15.7928C21.0247 15.875 21.0537 15.9688 21.0581 16.0654C21.0625 16.1619 21.0421 16.2581 20.999 16.3446Z" fill="white"/>
<path d="M9.23444 22.5699H15.3354V13.4997H9.23444V22.5699ZM10.7459 16.0913C10.7459 16.0168 10.7605 15.943 10.789 15.8741C10.8175 15.8054 10.8593 15.7428 10.9119 15.6901C10.9646 15.6375 11.0272 15.5958 11.096 15.5673C11.1649 15.5388 11.2386 15.5243 11.3131 15.5243H13.2567C13.3534 15.5243 13.4484 15.5489 13.5328 15.596C13.6172 15.643 13.6882 15.7108 13.739 15.793C13.7898 15.8752 13.8188 15.9691 13.8231 16.0655C13.8273 16.1621 13.807 16.2581 13.7636 16.3446L11.8201 20.2318C11.7876 20.2997 11.7419 20.3605 11.6857 20.4106C11.6295 20.4607 11.5639 20.499 11.4927 20.5235C11.4214 20.548 11.3461 20.558 11.271 20.5529C11.1958 20.548 11.1224 20.528 11.0551 20.4944C10.9877 20.4607 10.9277 20.4139 10.8787 20.3569C10.8297 20.2997 10.7924 20.2334 10.7692 20.1618C10.746 20.0901 10.7374 20.0146 10.7438 19.9396C10.75 19.8646 10.7713 19.7916 10.8061 19.7248L12.339 16.6581H11.3131C11.1628 16.6581 11.0186 16.5984 10.9122 16.4921C10.8059 16.3858 10.7459 16.2415 10.7459 16.0913Z" fill="white"/>
<path d="M2 15.3624V20.7073C2.00001 21.2014 2.19625 21.6751 2.54557 22.0244C2.89488 22.3738 3.36864 22.5699 3.86264 22.5699H8.1007V13.4997H3.86264C3.36864 13.4997 2.89488 13.696 2.54557 14.0453C2.19625 14.3946 2.00001 14.8684 2 15.3624ZM6.02201 15.5243C6.11864 15.5243 6.21368 15.5489 6.29809 15.596C6.3825 15.643 6.45347 15.7108 6.50428 15.793C6.55508 15.8752 6.58403 15.9691 6.58834 16.0655C6.59266 16.1621 6.57221 16.2581 6.52896 16.3446L4.58535 20.2318C4.55206 20.2984 4.50598 20.3578 4.44975 20.4066C4.3935 20.4553 4.3282 20.4926 4.25758 20.5161C4.18694 20.5397 4.11237 20.5491 4.03811 20.5438C3.96384 20.5386 3.89133 20.5188 3.82475 20.4854C3.75815 20.4522 3.69875 20.4061 3.64997 20.3498C3.60119 20.2936 3.56395 20.2283 3.5404 20.1576C3.51684 20.0871 3.50743 20.0124 3.51269 19.9382C3.51797 19.8639 3.5378 19.7914 3.57111 19.7248L5.10462 16.6581H4.07839C3.92804 16.6581 3.78384 16.5984 3.67753 16.4921C3.57122 16.3858 3.51149 16.2415 3.51149 16.0913C3.51145 16.0168 3.52609 15.9431 3.55456 15.8742C3.58303 15.8055 3.6248 15.7429 3.67744 15.6902C3.7301 15.6377 3.7926 15.5959 3.8614 15.5674C3.9302 15.5389 4.00392 15.5243 4.07839 15.5243H6.02201Z" fill="white"/>
<path d="M7.37396 11.834C7.47166 11.8205 7.57013 11.8134 7.66875 11.8127H16.9009C16.9995 11.8134 17.0979 11.8205 17.1957 11.834L17.8435 7.15551C17.5348 7.10627 17.2396 6.99373 16.9763 6.82492C16.7132 6.65612 16.4877 6.43472 16.3142 6.17463L14.5523 7.10205L13.2682 5.17593C12.9617 5.32431 12.6254 5.40138 12.2848 5.40138C11.9441 5.40138 11.608 5.32431 11.3013 5.17593L10.0173 7.10205L8.25507 6.17463C8.08156 6.43472 7.85614 6.65612 7.59295 6.82492C7.32977 6.99373 7.03453 7.10627 6.72577 7.15551L7.37396 11.834Z" fill="white"/>
</svg>
