<svg width="24" height="24" viewBox="0 0 24 24" fill="none" xmlns="http://www.w3.org/2000/svg">
<path d="M4.90917 15.2232C5.19618 15.5555 5.09239 15.7844 5.09239 16.2767C9.65754 16.2767 14.2227 16.2767 18.9261 16.2767C18.9261 16.0349 18.9261 15.793 18.9261 15.5438C19.0231 15.2903 19.1415 15.1612 19.3842 15.04C19.6278 14.9724 19.8388 14.9801 20.0713 15.0857C20.2326 15.235 20.3678 15.3796 20.4378 15.5897C20.441 15.7074 20.4421 15.824 20.4407 15.9418C20.4404 15.9739 20.4402 16.0061 20.44 16.0392C20.4395 16.1183 20.4387 16.1976 20.4378 16.2767C20.4639 16.276 20.49 16.2753 20.5168 16.2745C20.6365 16.2717 20.7562 16.2699 20.8759 16.2681C20.9168 16.267 20.9579 16.2658 21.0001 16.2646C21.3283 16.261 21.5461 16.3057 21.8034 16.5229C22.0226 16.786 22.0087 17.0362 22.0078 17.3648C22.0082 17.4392 22.0082 17.4392 22.0086 17.5152C22.0092 17.6793 22.0092 17.8432 22.0091 18.0072C22.0093 18.1212 22.0094 18.2353 22.0096 18.3493C22.0099 18.5884 22.0099 18.8273 22.0097 19.0663C22.0094 19.3117 22.0097 19.5572 22.0106 19.8026C22.0117 20.0989 22.0121 20.3952 22.0119 20.6916C22.0119 20.8046 22.0121 20.9176 22.0126 21.0304C22.0132 21.1884 22.0129 21.3462 22.0123 21.5041C22.0127 21.5507 22.013 21.5973 22.0134 21.6454C22.011 21.9649 21.9609 22.1615 21.7433 22.4063C21.5598 22.5668 21.4149 22.5581 21.1789 22.5583C21.1469 22.5584 21.1147 22.5585 21.0817 22.5586C20.9732 22.5589 20.8648 22.5588 20.7565 22.5587C20.6783 22.5589 20.6001 22.559 20.5219 22.5592C20.3064 22.5595 20.091 22.5596 19.8755 22.5597C19.6434 22.5597 19.4112 22.5601 19.1791 22.5604C18.6713 22.5611 18.1634 22.5612 17.6555 22.5614C17.3386 22.5616 17.0217 22.5618 16.7048 22.562C15.8279 22.5625 14.951 22.563 14.0741 22.5632C13.9899 22.5632 13.9899 22.5632 13.904 22.5632C13.8477 22.5632 13.7914 22.5632 13.7334 22.5633C13.6193 22.5633 13.5053 22.5633 13.3912 22.5633C13.3347 22.5633 13.2781 22.5633 13.2197 22.5633C12.3025 22.5635 11.3853 22.5644 10.4682 22.5654C9.52714 22.5665 8.58614 22.567 7.64514 22.5671C7.11652 22.5671 6.58791 22.5674 6.0593 22.5683C5.60927 22.569 5.15924 22.5692 4.7092 22.5688C4.47946 22.5686 4.24974 22.5687 4.02 22.5693C3.80984 22.5698 3.59968 22.5698 3.38952 22.5693C3.31334 22.5692 3.23718 22.5694 3.16101 22.5697C3.05771 22.5702 2.95445 22.5699 2.85116 22.5694C2.79371 22.5694 2.73627 22.5694 2.67708 22.5695C2.45567 22.5441 2.31013 22.4495 2.17219 22.2775C2.0456 22.1087 2.01765 21.9987 2.01657 21.7938C2.01608 21.7295 2.01608 21.7295 2.01558 21.6641C2.01545 21.6172 2.01533 21.5702 2.01521 21.5219C2.0149 21.4724 2.0146 21.423 2.01429 21.372C2.01339 21.2079 2.01285 21.0438 2.01239 20.8798C2.01221 20.8238 2.01202 20.7678 2.01183 20.7101C2.01088 20.4135 2.01022 20.117 2.00979 19.8204C2.00942 19.5751 2.00845 19.3297 2.00697 19.0843C2.00521 18.788 2.00435 18.4917 2.00414 18.1954C2.00392 18.0826 2.00339 17.9698 2.00254 17.8569C2.00142 17.6988 2.00147 17.5407 2.00178 17.3826C2.0009 17.3129 2.0009 17.3129 2 17.2418C2.00206 16.9608 2.0392 16.7378 2.20654 16.5058C2.42836 16.3255 2.60261 16.2705 2.88291 16.2722C2.92366 16.2724 2.9644 16.2725 3.00638 16.2727C3.04854 16.2731 3.0907 16.2734 3.13413 16.2739C3.177 16.2741 3.21987 16.2743 3.26404 16.2745C3.36961 16.275 3.47518 16.2758 3.58075 16.2767C3.57916 16.2303 3.57757 16.1839 3.57592 16.1361C3.57463 16.0742 3.57338 16.0123 3.57216 15.9504C3.57102 15.9199 3.56987 15.8894 3.56867 15.858C3.56488 15.6002 3.62256 15.4228 3.79369 15.2295C4.14695 14.9329 4.54668 14.9101 4.90917 15.2232Z" fill="white"/>
<path d="M13.7958 2.53439C14.514 3.08825 14.9737 3.8045 15.1044 4.70397C15.2035 5.53556 14.9899 6.34172 14.4781 7.00542C14.4495 7.04162 14.4208 7.07781 14.3913 7.11511C14.3563 7.16329 14.3214 7.21148 14.2854 7.26112C13.8764 7.68906 13.3515 7.96187 12.7881 8.12287C12.7729 9.24148 12.7578 10.3601 12.7422 11.5126C13.7207 11.5054 13.7207 11.5054 14.6991 11.4961C14.8223 11.4956 14.9453 11.4951 15.0684 11.4947C15.1 11.4942 15.1316 11.4937 15.164 11.4933C15.5271 11.4881 15.8222 11.4865 16.132 11.6958C16.3555 11.971 16.361 12.1195 16.361 12.4746C13.4889 12.4746 10.6168 12.4746 7.65765 12.4746C7.65765 12.1355 7.68662 11.9616 7.90386 11.7044C8.1137 11.5295 8.28693 11.5012 8.55667 11.5022C8.58667 11.5021 8.61666 11.5021 8.64757 11.5021C8.744 11.5022 8.84042 11.5029 8.93685 11.5036C8.99605 11.5037 9.05526 11.5038 9.11625 11.5039C9.3372 11.5044 9.55815 11.5057 9.77909 11.5068C10.2732 11.5088 10.7673 11.5107 11.2764 11.5126C11.2613 10.394 11.2462 9.27538 11.2306 8.12287C10.9132 8.00949 10.9132 8.00949 10.5893 7.89383C9.80719 7.44452 9.24819 6.81808 8.99465 5.93558C8.77379 5.02745 8.9253 4.19942 9.39832 3.40473C9.48144 3.27273 9.56917 3.15438 9.67317 3.03827C9.6998 3.00797 9.72643 2.97769 9.75387 2.94648C10.7916 1.8372 12.5541 1.70714 13.7958 2.53439Z" fill="white"/>
<path d="M6.65572 13.8884C6.71372 13.8881 6.71372 13.8881 6.77288 13.8878C6.8366 13.8878 6.8366 13.8878 6.90161 13.8878C6.94673 13.8877 6.99186 13.8876 7.03836 13.8874C7.19027 13.8869 7.34219 13.8867 7.4941 13.8865C7.60273 13.8862 7.71137 13.8859 7.82002 13.8856C8.14654 13.8847 8.47307 13.8842 8.79959 13.8838C8.9534 13.8836 9.1072 13.8833 9.26101 13.8832C9.77236 13.8824 10.2837 13.8817 10.7951 13.8814C10.9277 13.8813 11.0604 13.8812 11.1931 13.8811C11.2426 13.8811 11.2426 13.8811 11.2931 13.881C11.8271 13.8806 12.3613 13.8795 12.8954 13.878C13.4438 13.8765 13.9924 13.8756 14.5409 13.8755C14.8488 13.8754 15.1566 13.875 15.4645 13.8739C15.7543 13.8728 16.0439 13.8726 16.3336 13.8731C16.4399 13.8731 16.5462 13.8728 16.6524 13.8722C16.7977 13.8713 16.9429 13.8717 17.0881 13.8723C17.13 13.8718 17.172 13.8712 17.2152 13.8707C17.484 13.8735 17.6962 13.9203 17.9185 14.0778C18.1379 14.3536 18.1475 14.4909 18.1475 14.8566C14.0963 14.8566 10.0452 14.8566 5.87122 14.8566C5.87122 14.3764 5.87122 14.3764 6.05444 14.1236C6.24849 13.9692 6.40814 13.8891 6.65572 13.8884Z" fill="white"/>
</svg>
