<svg width="24" height="24" viewBox="0 0 24 24" fill="none" xmlns="http://www.w3.org/2000/svg">
<path d="M12.2848 15.6964C15.0809 15.6964 17.6834 14.0614 18.954 11.5192V8.0855C18.954 7.92181 19.0175 7.76486 19.1305 7.64917L21.7175 5H2.85205L5.43914 7.64917C5.55215 7.76486 5.61563 7.92181 5.61563 8.0855V11.5192C6.88623 14.0614 9.48875 15.6964 12.2848 15.6964ZM12.2848 14.4622C11.952 14.4622 11.6821 14.1859 11.6821 13.8451C11.6821 13.5043 11.952 13.228 12.2848 13.228C12.6176 13.228 12.8874 13.5043 12.8874 13.8451C12.8874 14.1859 12.6176 14.4622 12.2848 14.4622ZM14.6954 13.8008C14.3626 13.8008 14.0927 13.5245 14.0927 13.1837C14.0927 12.8429 14.3626 12.5666 14.6954 12.5666C15.0282 12.5666 15.298 12.8429 15.298 13.1837C15.298 13.5245 15.0282 13.8008 14.6954 13.8008ZM17.1059 8.2912C17.4387 8.2912 17.7085 8.5675 17.7085 8.9083C17.7085 9.2491 17.4387 9.5254 17.1059 9.5254C16.7731 9.5254 16.5033 9.2491 16.5033 8.9083C16.5033 8.5675 16.7731 8.2912 17.1059 8.2912ZM16.46 10.7596C16.7928 10.7596 17.0626 11.0359 17.0626 11.3767C17.0626 11.7175 16.7928 11.9938 16.46 11.9938C16.1272 11.9938 15.8573 11.7175 15.8573 11.3767C15.8573 11.0359 16.1272 10.7596 16.46 10.7596ZM9.87427 7.4684H14.6954C15.0282 7.4684 15.298 7.7447 15.298 8.0855C15.298 8.4263 15.0282 8.7026 14.6954 8.7026H9.87427C9.54146 8.7026 9.27163 8.4263 9.27163 8.0855C9.27163 7.7447 9.54146 7.4684 9.87427 7.4684ZM9.87427 12.5666C10.2071 12.5666 10.4769 12.8429 10.4769 13.1837C10.4769 13.5245 10.2071 13.8008 9.87427 13.8008C9.54146 13.8008 9.27163 13.5245 9.27163 13.1837C9.27163 12.8429 9.54146 12.5666 9.87427 12.5666ZM8.71226 11.3767C8.71226 11.7175 8.44244 11.9938 8.10963 11.9938C7.77681 11.9938 7.50699 11.7175 7.50699 11.3767C7.50699 11.0359 7.77681 10.7596 8.10963 10.7596C8.44244 10.7596 8.71226 11.0359 8.71226 11.3767ZM7.46372 8.2912C7.79654 8.2912 8.06636 8.5675 8.06636 8.9083C8.06636 9.2491 7.79654 9.5254 7.46372 9.5254C7.1309 9.5254 6.86108 9.2491 6.86108 8.9083C6.86108 8.5675 7.1309 8.2912 7.46372 8.2912Z" fill="white"/>
<path d="M20.1595 8.34112V11.6648C20.1595 11.7587 20.1385 11.8513 20.0983 11.9357C19.3841 13.4328 18.2769 14.6915 16.8963 15.5757C15.5123 16.462 13.9177 16.9306 12.285 16.9306C10.6523 16.9306 9.05773 16.462 7.67371 15.5756C6.29311 14.6915 5.18582 13.4327 4.4717 11.9357C4.43144 11.8513 4.41056 11.7587 4.41056 11.6648V8.34107L2 5.87267V12.1995C2 12.2846 2.0172 12.3689 2.05054 12.4468L2.1092 12.5841C3.8779 16.724 7.87214 19.399 12.285 19.399C16.6978 19.399 20.692 16.724 22.4608 12.5841L22.5194 12.4468C22.5528 12.3689 22.57 12.2847 22.57 12.1995V5.87272L20.1595 8.34112Z" fill="white"/>
</svg>
