<svg width="24" height="24" viewBox="0 0 24 24" fill="none" xmlns="http://www.w3.org/2000/svg">
<path d="M9.49575 12.0006V22.2863H4.22746C3.39733 22.2863 2.72223 21.5943 2.72223 20.7434V11.9486C2.8843 11.9826 3.05213 12.0006 3.22398 12.0006H9.49575ZM10.4992 12.0006V22.2863H13.5097V12.0006H10.4992ZM20.785 12.0006H14.5132V22.2863H19.7815C20.6116 22.2863 21.2867 21.5943 21.2867 20.7434V11.9486C21.1246 11.9826 20.9568 12.0006 20.785 12.0006ZM22.2902 7.37199V9.42913C22.2902 10.28 21.6151 10.972 20.785 10.972H3.22398C2.39384 10.972 1.71875 10.28 1.71875 9.42913V7.37199C1.71875 6.5211 2.39384 5.82913 3.22398 5.82913H7.99529C7.67895 5.39867 7.48878 4.86536 7.48878 4.28627C7.48878 2.86839 8.61419 1.71484 9.99749 1.71484C10.8186 1.71484 11.5466 2.12319 12.0045 2.7501C12.4626 2.12319 13.1903 1.71484 14.0114 1.71484C15.3947 1.71484 16.5201 2.86839 16.5201 4.28627C16.5201 4.86536 16.33 5.39867 16.0136 5.82913H20.785C21.6151 5.82913 22.2902 6.5211 22.2902 7.37199ZM12.5062 4.28627V5.82913H14.0114C14.8416 5.82913 15.5167 5.13716 15.5167 4.28627C15.5167 3.43539 14.8416 2.74342 14.0114 2.74342C13.1813 2.74342 12.5062 3.43539 12.5062 4.28627ZM9.99749 5.82913H11.5027V4.28627C11.5027 3.43539 10.8276 2.74342 9.99749 2.74342C9.16736 2.74342 8.49227 3.43539 8.49227 4.28627C8.49227 5.13716 9.16736 5.82913 9.99749 5.82913Z" fill="white"/>
</svg>
