<svg width="24" height="24" viewBox="0 0 24 24" fill="none" xmlns="http://www.w3.org/2000/svg">
<path fill-rule="evenodd" clip-rule="evenodd" d="M4 3.17102C4 2.52695 4.56084 2 5.24627 2H6.47486V19.421H5.44993C5.05523 19.421 4.72972 19.7269 4.72972 20.0978V21.2075C4.72972 21.5785 5.05523 21.8843 5.44993 21.8843H19.0003V19.421H8.86534V2H19.2972C19.5352 2 19.73 2.18293 19.73 2.40657V22.0981C19.73 22.3576 19.504 22.57 19.2278 22.57H5.44993C4.6525 22.57 4 21.9569 4 21.2075V3.17102ZM11.2369 8.18843H17.1151C17.4919 8.18843 17.8002 8.47812 17.8002 8.83221V11.7293C17.8002 12.0834 17.4919 12.3731 17.1151 12.3731H11.2369C10.8601 12.3731 10.5518 12.0834 10.5518 11.7293V8.83221C10.5518 8.47812 10.8601 8.18843 11.2369 8.18843ZM6.96132 2H8.37888V19.421H6.96132V2Z" fill="white"/>
<path d="M11.6915 9.50977C11.4917 9.50977 11.3296 9.662 11.3296 9.84976C11.3296 10.0375 11.4917 10.1898 11.6915 10.1898H15.6951C15.895 10.1898 16.057 10.0375 16.057 9.84976C16.057 9.662 15.895 9.50977 15.6951 9.50977H11.6915Z" fill="white"/>
<path d="M11.6915 10.9615C11.4917 10.9615 11.3296 11.1138 11.3296 11.3015C11.3296 11.4893 11.4917 11.6415 11.6915 11.6415H15.6951C15.895 11.6415 16.057 11.4893 16.057 11.3015C16.057 11.1138 15.895 10.9615 15.6951 10.9615H11.6915Z" fill="white"/>
<path d="M18.5986 21.2019H7.28142C6.80268 21.2019 6.80268 20.5219 7.28142 20.5219H18.5986V21.2019Z" fill="white"/>
</svg>
