<svg width="24" height="24" viewBox="0 0 24 24" fill="none" xmlns="http://www.w3.org/2000/svg">
<path d="M4 4.69177C8.33537 4.69177 12.6707 4.69177 17.1375 4.69177C17.1375 10.5916 17.1375 16.4914 17.1375 22.57C12.8021 22.57 8.46675 22.57 4 22.57C4 16.6702 4 10.7704 4 4.69177ZM5.44633 6.25863C5.44633 6.64311 5.44633 7.0276 5.44633 7.42373C5.88384 7.42373 6.32136 7.42373 6.77213 7.42373C6.77213 7.03925 6.77213 6.65477 6.77213 6.25863C6.33462 6.25863 5.8971 6.25863 5.44633 6.25863ZM10.5085 7.82549C10.4948 7.84419 10.4812 7.86289 10.467 7.88217C10.1898 8.26108 9.91001 8.63783 9.62461 9.01067C9.4185 9.27993 9.21488 9.55073 9.01444 9.82423C8.77664 10.1486 8.53374 10.4687 8.28863 10.7875C7.93015 11.2541 7.57413 11.7222 7.22648 12.197C7.01727 12.482 6.80318 12.7632 6.58797 13.0437C6.44492 13.2304 6.30491 13.4185 6.1695 13.6108C6.22377 13.726 6.28545 13.8264 6.36096 13.9287C6.38318 13.959 6.4054 13.9891 6.42829 14.0202C6.45226 14.0525 6.47624 14.0848 6.50094 14.118C6.52596 14.1518 6.55097 14.1857 6.57674 14.2205C6.76863 14.4788 6.96538 14.733 7.1639 14.9862C7.35434 15.2298 7.53811 15.4778 7.72066 15.7274C7.89715 15.9682 8.07714 16.2062 8.25864 16.4432C8.46219 16.7091 8.66337 16.9765 8.86127 17.2467C9.08465 17.5516 9.31226 17.853 9.54204 18.153C9.68014 18.3335 9.81737 18.5145 9.95292 18.6969C9.98001 18.7333 10.0071 18.7698 10.035 18.8073C10.0864 18.8765 10.1376 18.9457 10.1887 19.0152C10.3127 19.1819 10.4368 19.3345 10.5888 19.4764C10.603 19.4572 10.617 19.4378 10.6316 19.4179C10.8938 19.0586 11.1579 18.7015 11.4325 18.3515C11.6469 18.0783 11.8546 17.8008 12.0596 17.5206C12.2361 17.2797 12.4161 17.0418 12.5976 16.8047C12.8012 16.5389 13.0024 16.2715 13.2003 16.0012C13.4265 15.6924 13.6573 15.3873 13.8898 15.0831C14.113 14.791 14.3347 14.4978 14.554 14.2028C14.605 14.135 14.6568 14.0679 14.7089 14.001C14.7539 13.9421 14.7539 13.9421 14.7997 13.882C14.8257 13.8487 14.8517 13.8153 14.8783 13.781C14.9359 13.697 14.9359 13.697 14.9186 13.616C14.8813 13.5131 14.8303 13.4433 14.7629 13.357C14.7369 13.3234 14.7109 13.2898 14.6842 13.2552C14.656 13.2192 14.6279 13.1833 14.5988 13.1463C14.5396 13.0697 14.4805 12.993 14.4213 12.9163C14.3767 12.8585 14.3767 12.8585 14.3311 12.7994C14.2062 12.6363 14.0848 12.4709 13.9636 12.3051C13.6612 11.8924 13.3506 11.486 13.0396 11.0798C12.7049 10.6427 12.3721 10.2046 12.0468 9.76049C11.8454 9.48617 11.6393 9.21557 11.4321 8.94558C11.2959 8.76768 11.1615 8.58882 11.0299 8.40741C10.9915 8.35439 10.9915 8.35439 10.9522 8.3003C10.9035 8.23296 10.855 8.16543 10.8069 8.09769C10.7744 8.05276 10.7744 8.05276 10.7412 8.0069C10.7129 7.9673 10.7129 7.9673 10.6841 7.92691C10.6279 7.85426 10.6279 7.85426 10.5085 7.82549ZM14.3654 19.8782C14.3654 20.2627 14.3654 20.6472 14.3654 21.0434C14.7896 21.0434 15.2139 21.0434 15.651 21.0434C15.651 20.6589 15.651 20.2744 15.651 19.8782C15.2267 19.8782 14.8025 19.8782 14.3654 19.8782Z" fill="white"/>
<path d="M6.69177 2C11.0271 2 15.3625 2 19.8293 2C19.8293 7.89981 19.8293 13.7996 19.8293 19.8782C19.3255 19.8782 18.8217 19.8782 18.3025 19.8782C18.3025 14.4822 18.3025 9.0862 18.3025 3.52668C14.471 3.52668 10.6395 3.52668 6.69177 3.52668C6.69177 3.02288 6.69177 2.51907 6.69177 2Z" fill="white"/>
<path d="M8.05774 14.2134C9.70173 14.2134 11.3458 14.2134 13.0395 14.2134C12.9783 14.3664 12.9447 14.4448 12.8481 14.5653C12.8259 14.5933 12.8037 14.6214 12.7808 14.6503C12.7448 14.695 12.7448 14.695 12.7081 14.7407C12.5056 14.9967 12.3078 15.2554 12.1155 15.5191C11.9099 15.8005 11.6989 16.0767 11.4836 16.3507C11.2815 16.6091 11.0869 16.8727 10.8949 17.1386C10.7877 17.2859 10.6838 17.4247 10.5486 17.548C10.3004 17.2558 10.0719 16.9522 9.84585 16.6427C9.68211 16.4191 9.51448 16.1991 9.34336 15.9812C9.07735 15.6419 8.82097 15.296 8.56674 14.9479C8.50016 14.8569 8.4332 14.7663 8.36612 14.6756C8.34538 14.6476 8.32465 14.6195 8.30329 14.5906C8.26434 14.5378 8.22532 14.4852 8.18624 14.4326C8.05774 14.2582 8.05774 14.2582 8.05774 14.2134Z" fill="white"/>
<path d="M10.5085 9.75392C10.6475 9.81166 10.716 9.88 10.8057 9.99984C10.8313 10.0337 10.8569 10.0676 10.8832 10.1025C10.9104 10.1391 10.9375 10.1757 10.9655 10.2134C10.9939 10.2513 11.0224 10.2892 11.0518 10.3283C11.2569 10.6019 11.4597 10.8773 11.6618 11.1532C11.8377 11.393 12.0175 11.6296 12.1984 11.8656C12.4086 12.1402 12.6158 12.4166 12.8186 12.6968C12.841 12.7277 12.8634 12.7586 12.8865 12.7904C12.9068 12.8185 12.927 12.8467 12.9479 12.8757C12.9746 12.9128 12.9746 12.9128 13.0018 12.9506C13.0395 13.0082 13.0395 13.0082 13.0395 13.0483C11.3956 13.0483 9.75155 13.0483 8.05774 13.0483C8.21897 12.8065 8.38009 12.5768 8.55994 12.3503C8.75684 12.0998 8.94939 11.8467 9.13747 11.5895C9.33941 11.3133 9.54473 11.04 9.75266 10.7684C10.009 10.4334 10.2609 10.0954 10.5085 9.75392Z" fill="white"/>
</svg>
