<svg width="24" height="24" viewBox="0 0 24 24" fill="none" xmlns="http://www.w3.org/2000/svg">
<mask id="mask0_753_16494" style="mask-type:luminance" maskUnits="userSpaceOnUse" x="2" y="2" width="21" height="21">
<path d="M22.57 2H2V22.57H22.57V2Z" fill="white"/>
</mask>
<g mask="url(#mask0_753_16494)">
<path d="M6.25862 5.57569C6.49271 5.74941 6.69651 5.96794 6.90143 6.17441C6.9304 6.20344 6.95938 6.23247 6.98923 6.26238C7.08059 6.35396 7.1718 6.44567 7.26301 6.5374C7.32541 6.6 7.38782 6.66259 7.45024 6.72518C7.60221 6.87758 7.75407 7.03011 7.90582 7.18272C7.95028 7.14505 7.99467 7.10731 8.03904 7.06954C8.06376 7.04852 8.08849 7.02751 8.11396 7.00586C8.25992 6.87768 8.39163 6.73543 8.52651 6.59578C8.66894 6.46229 8.7703 6.40775 8.96546 6.40432C8.99477 6.40318 9.02408 6.40204 9.05429 6.40087C9.32465 6.45249 9.51703 6.69757 9.69882 6.88722C9.75752 6.94732 9.81624 7.0074 9.87499 7.06745C9.96685 7.16182 10.0585 7.25636 10.1498 7.3513C10.2383 7.44323 10.3276 7.53438 10.417 7.62544C10.4442 7.65414 10.4714 7.68285 10.4994 7.71243C10.5252 7.73846 10.5509 7.76448 10.5774 7.7913C10.611 7.82603 10.611 7.82603 10.6453 7.86147C10.7185 7.91606 10.7185 7.91606 10.8199 7.89653C10.9464 7.85722 11.0557 7.7999 11.1726 7.73766C12.5836 7.01556 14.3121 6.81726 15.8607 7.14255C15.9149 7.15388 15.9149 7.15388 15.9703 7.16544C17.0917 7.40936 18.1526 7.89041 19.0345 8.62905C19.0583 8.64882 19.0821 8.66857 19.1066 8.68893C19.5287 9.04091 19.9 9.40021 20.2397 9.83433C20.2572 9.8565 20.2746 9.87867 20.2925 9.90152C20.967 10.767 21.403 11.7395 21.646 12.8073C21.6532 12.8386 21.6604 12.8699 21.6677 12.902C22.0635 14.7147 21.6394 16.7777 20.6536 18.3312C20.6229 18.3783 20.5922 18.4252 20.5612 18.4721C20.5458 18.4954 20.5305 18.5187 20.5146 18.5427C19.4819 20.0856 17.898 21.2322 16.0736 21.6294C15.4624 21.7505 14.8704 21.7899 14.2486 21.7873C14.1561 21.7876 14.0637 21.7878 13.9712 21.7882C13.7236 21.7889 13.476 21.7886 13.2283 21.7881C12.968 21.7877 12.7078 21.7881 12.4475 21.7883C11.9837 21.7887 11.52 21.7882 11.0561 21.7873C10.6359 21.7866 10.2157 21.7867 9.79547 21.7875C9.30551 21.7883 8.81555 21.7887 8.32559 21.7882C8.06689 21.7879 7.8082 21.7879 7.54951 21.7884C7.30702 21.7889 7.06454 21.7886 6.82206 21.7877C6.73306 21.7874 6.64406 21.7875 6.55507 21.7878C6.43378 21.7883 6.31254 21.7877 6.19126 21.787C6.13825 21.7875 6.13825 21.7875 6.08418 21.788C5.91978 21.7859 5.83774 21.78 5.69613 21.6893C5.56409 21.5521 5.53904 21.4822 5.52039 21.2894C5.52458 21.1166 5.58498 21.0161 5.69616 20.8827C5.8263 20.7959 5.8624 20.7921 6.01268 20.7911C6.07327 20.7904 6.07327 20.7904 6.13509 20.7898C6.17935 20.7897 6.22362 20.7896 6.26924 20.7895C6.31589 20.7891 6.36254 20.7887 6.4106 20.7883C6.56516 20.787 6.71972 20.7863 6.87428 20.7856C6.9813 20.785 7.08832 20.7842 7.19533 20.7833C7.44845 20.7814 7.70158 20.78 7.9547 20.7786C8.24288 20.7771 8.53105 20.7751 8.81922 20.7731C9.41202 20.7689 10.0048 20.7653 10.5976 20.7622C10.5594 20.7379 10.5213 20.7136 10.482 20.6887C10.4312 20.6563 10.3804 20.6238 10.3296 20.5914C10.3045 20.5755 10.2794 20.5596 10.2536 20.5433C9.88191 20.3055 9.55379 20.018 9.23163 19.7175C9.19988 19.6885 9.16813 19.6593 9.13543 19.6293C8.65231 19.1689 8.26484 18.6144 7.946 18.0302C7.92528 17.9924 7.92528 17.9924 7.90416 17.9538C7.58709 17.3675 7.36799 16.759 7.21028 16.1118C7.20053 16.0719 7.1908 16.0321 7.18075 15.9909C7.0539 15.4444 7.00653 14.9056 7.00941 14.3465C7.00947 14.3168 7.00955 14.287 7.00963 14.2563C7.0116 13.7781 7.03829 13.3153 7.14248 12.8475C7.14916 12.8165 7.15585 12.7855 7.16273 12.7535C7.30364 12.1169 7.52138 11.478 7.86831 10.9228C7.91513 10.8178 7.90435 10.7847 7.86565 10.6781C7.80962 10.6049 7.80962 10.6049 7.73697 10.5363C7.69634 10.4959 7.69634 10.4959 7.65489 10.4546C7.61076 10.4116 7.61076 10.4116 7.56575 10.3678C7.53567 10.3379 7.5056 10.3081 7.47461 10.2774C7.37841 10.1822 7.28181 10.0873 7.18517 9.99252C7.08874 9.8975 6.9924 9.80239 6.89616 9.70718C6.83623 9.64793 6.77619 9.58882 6.71601 9.52984C6.6888 9.50302 6.66158 9.4762 6.63355 9.44857C6.60958 9.42505 6.58561 9.40154 6.56092 9.37731C6.44282 9.25147 6.40685 9.16712 6.40425 8.99817C6.40311 8.96476 6.40197 8.93136 6.4008 8.89695C6.44929 8.61626 6.69654 8.42237 6.89138 8.23232C6.9194 8.20467 6.94742 8.17701 6.97629 8.14852C7.0449 8.08084 7.11373 8.01341 7.18266 7.94607C7.00856 7.73734 6.82504 7.54445 6.63087 7.35441C6.57159 7.29584 6.51232 7.23725 6.45306 7.17864C6.36052 7.08736 6.2679 6.99617 6.17507 6.90518C6.08484 6.81665 5.995 6.72775 5.9052 6.63878C5.86345 6.59817 5.86345 6.59817 5.82086 6.55672C5.66793 6.40461 5.54596 6.28038 5.52933 6.05529C5.54654 5.90007 5.56687 5.82795 5.66602 5.70125C5.86926 5.54419 6.00593 5.50289 6.25862 5.57569ZM11.0396 10.9995C10.9423 11.1209 10.9211 11.1835 10.9014 11.3384C10.9224 11.509 10.97 11.5915 11.0798 11.7226C11.1763 11.7959 11.248 11.8043 11.3685 11.8255C11.6254 11.7876 11.7827 11.61 11.973 11.4427C12.7687 10.7685 13.8102 10.5351 14.8332 10.6074C15.6627 10.7012 16.3779 11.0561 16.999 11.6046C17.1938 11.772 17.1938 11.772 17.4375 11.8281C17.5922 11.8023 17.6721 11.786 17.7891 11.6824C17.8833 11.5243 17.9148 11.439 17.8895 11.2556C17.8201 11.0995 17.757 11.0317 17.6284 10.9191C17.5902 10.8808 17.5902 10.8808 17.5513 10.8418C16.7219 10.0367 15.5457 9.64921 14.4068 9.62089C13.1715 9.64282 11.9166 10.1085 11.0396 10.9995Z" fill="white"/>
<path d="M4.29009 3.60708C4.57751 3.78565 4.94294 4.07913 5.05343 4.4106C5.07151 4.65462 5.02999 4.77943 4.87264 4.96301C4.7347 5.07796 4.5811 5.06761 4.41062 5.05341C4.18578 4.9452 4.03718 4.81244 3.87327 4.62654C3.85188 4.60303 3.83049 4.57951 3.80846 4.55529C3.63791 4.36609 3.59283 4.27161 3.59564 4.02186C3.61326 3.87824 3.67373 3.79458 3.7678 3.68743C3.94042 3.58522 4.0945 3.55855 4.29009 3.60708Z" fill="white"/>
<path d="M4.84737 7.06704C4.99711 7.19915 5.04634 7.32788 5.07086 7.52403C5.03723 7.79303 4.83909 7.97291 4.65403 8.1568C4.63345 8.17803 4.61286 8.19927 4.59165 8.22114C4.47289 8.34006 4.37304 8.4242 4.20958 8.46816C3.94724 8.464 3.83184 8.41183 3.64712 8.22711C3.6015 8.13586 3.59768 8.07754 3.59439 7.97601C3.5929 7.94598 3.5914 7.91594 3.58984 7.88499C3.63061 7.64715 3.82257 7.47645 3.98862 7.31311C4.00763 7.2938 4.02663 7.27448 4.04621 7.25458C4.28353 7.01857 4.52652 6.94148 4.84737 7.06704Z" fill="white"/>
<path d="M8.14684 3.60712C8.30176 3.68933 8.40293 3.80661 8.46825 3.96871C8.48586 4.13306 8.46351 4.27619 8.37237 4.41534C8.30056 4.49828 8.22533 4.57508 8.14684 4.65169C8.12287 4.67753 8.09889 4.70338 8.07419 4.73C7.93844 4.87421 7.81665 4.99073 7.62456 5.05345C7.43226 5.05345 7.31641 5.03765 7.16505 4.91786C7.02153 4.77084 7.01643 4.66058 7.00482 4.46007C7.04898 4.22875 7.24136 4.05797 7.4036 3.89839C7.4226 3.87908 7.44161 3.85977 7.46119 3.83986C7.67276 3.62946 7.84977 3.55615 8.14684 3.60712Z" fill="white"/>
<path d="M3.59691 5.52022C3.64435 5.51872 3.69179 5.51722 3.74066 5.51567C4.13299 5.5117 4.13299 5.5117 4.28053 5.63164C4.42096 5.79516 4.42613 5.90512 4.42491 6.11579C4.40165 6.28089 4.33016 6.34738 4.20959 6.45933C4.03614 6.54606 3.80751 6.51231 3.617 6.51457C3.54584 6.51682 3.54584 6.51682 3.47324 6.51912C3.08092 6.5231 3.08092 6.5231 2.93338 6.40315C2.79295 6.23963 2.78778 6.12967 2.789 5.919C2.81226 5.75389 2.88376 5.68741 3.00432 5.57546C3.17777 5.48873 3.4064 5.52248 3.59691 5.52022Z" fill="white"/>
<path d="M6.2185 2.80347C6.34408 2.87065 6.43517 2.95556 6.49974 3.08471C6.51279 3.25519 6.51278 3.42602 6.51481 3.59694C6.51631 3.64438 6.51781 3.69182 6.51936 3.7407C6.52333 4.13302 6.52333 4.13302 6.40338 4.28056C6.23987 4.42099 6.1299 4.42616 5.91923 4.42494C5.75413 4.40168 5.68764 4.33018 5.57569 4.20963C5.48897 4.03617 5.52271 3.80754 5.52045 3.61703C5.51895 3.56959 5.51744 3.52215 5.5159 3.47328C5.51192 3.08095 5.51192 3.08095 5.63187 2.93341C5.81489 2.77623 5.98304 2.7703 6.2185 2.80347Z" fill="white"/>
</g>
</svg>
