<svg width="24" height="24" viewBox="0 0 24 24" fill="none" xmlns="http://www.w3.org/2000/svg">
<path fill-rule="evenodd" clip-rule="evenodd" d="M14.2565 13.0097C14.2565 12.2949 13.9722 11.6085 13.4663 11.1036C12.9613 10.5976 12.2749 10.3133 11.5601 10.3133C9.61279 10.3133 6.64377 10.3133 4.69645 10.3133C3.98066 10.3133 3.29529 10.5976 2.78934 11.1036C2.28437 11.6085 2 12.2949 2 13.0097V19.8733C2 20.5892 2.28437 21.2746 2.78934 21.7805C3.29529 22.2854 3.98066 22.5698 4.69645 22.5698H11.5601C12.2749 22.5698 12.9613 22.2854 13.4663 21.7805C13.9722 21.2746 14.2565 20.5892 14.2565 19.8733V13.0097ZM11.5601 18.8928C11.5601 18.3516 11.1209 17.9124 10.5796 17.9124C10.0384 17.9124 9.59908 18.3516 9.59908 18.8928C9.59908 19.434 10.0384 19.8733 10.5796 19.8733C11.1209 19.8733 11.5601 19.434 11.5601 18.8928ZM5.67697 17.9124C5.13572 17.9124 4.69645 18.3516 4.69645 18.8928C4.69645 19.434 5.13572 19.8733 5.67697 19.8733C6.21824 19.8733 6.65751 19.434 6.65751 18.8928C6.65751 18.3516 6.21824 17.9124 5.67697 17.9124ZM8.12829 15.461C7.58704 15.461 7.14776 15.9002 7.14776 16.4415C7.14776 16.9828 7.58704 17.422 8.12829 17.422C8.66955 17.422 9.10881 16.9828 9.10881 16.4415C9.10881 15.9002 8.66955 15.461 8.12829 15.461ZM10.5796 13.0097C10.0384 13.0097 9.59908 13.449 9.59908 13.9902C9.59908 14.5315 10.0384 14.9708 10.5796 14.9708C11.1209 14.9708 11.5601 14.5315 11.5601 13.9902C11.5601 13.449 11.1209 13.0097 10.5796 13.0097ZM6.65751 13.9902C6.65751 13.449 6.21824 13.0097 5.67697 13.0097C5.13572 13.0097 4.69645 13.449 4.69645 13.9902C4.69645 14.5315 5.13572 14.9708 5.67697 14.9708C6.21824 14.9708 6.65751 14.5315 6.65751 13.9902Z" fill="white"/>
<path fill-rule="evenodd" clip-rule="evenodd" d="M8.88049 9.33271H11.5603C12.5349 9.33271 13.4704 9.72002 14.1597 10.4103C14.85 11.0996 15.2373 12.035 15.2373 13.0097V15.5512C16.0452 15.8248 16.6012 16.0033 16.6365 16.0159C17.3091 16.2582 18.0504 16.2229 18.6975 15.9189C19.3447 15.614 19.8438 15.0649 20.086 14.3922C20.7458 12.5596 21.7509 9.76611 22.4108 7.9335C22.653 7.26086 22.6177 6.51958 22.3127 5.87244C22.0088 5.2253 21.4597 4.7262 20.7861 4.48402C18.9544 3.82412 16.1609 2.81909 14.3283 2.1592C13.6557 1.91701 12.9134 1.9523 12.2673 2.25725C11.6202 2.56121 11.12 3.1103 10.8778 3.78392L8.88049 9.33271ZM17.8808 12.5567C18.0641 12.0468 17.7994 11.485 17.2905 11.3016C16.7816 11.1182 16.2187 11.383 16.0364 11.8919C15.8531 12.4017 16.1178 12.9636 16.6267 13.1469C17.1355 13.3303 17.6983 13.0656 17.8808 12.5567ZM15.8138 8.16491C15.3049 7.98154 14.7431 8.24629 14.5597 8.75616C14.3763 9.26505 14.6411 9.82689 15.15 10.0103C15.6589 10.1936 16.2217 9.92886 16.4051 9.41998C16.5884 8.91109 16.3237 8.34827 15.8138 8.16491ZM14.9284 6.28328C15.1118 5.77439 14.847 5.21156 14.3381 5.02821C13.8283 4.84583 13.2664 5.10959 13.0831 5.61946C12.8997 6.12836 13.1644 6.6902 13.6733 6.87356C14.1832 7.05691 14.7451 6.79217 14.9284 6.28328Z" fill="white"/>
</svg>
