<svg width="25" height="24" viewBox="0 0 25 24" fill="none" xmlns="http://www.w3.org/2000/svg">
<path d="M15.9929 12.285C15.9929 11.615 15.9689 10.9676 15.924 10.3456C15.1884 10.2045 14.5927 9.66443 14.3726 8.95975H8.78505C8.65183 9.98624 8.5769 11.1003 8.5769 12.285C8.5769 13.0117 8.60526 13.7118 8.65774 14.3815C9.38792 14.5262 9.97824 15.0643 10.1971 15.7652H15.7643C15.9104 14.6964 15.9929 13.5295 15.9929 12.285Z" fill="white"/>
<path d="M16.52 6.34342C17.3323 6.42907 18.0032 6.9968 18.2398 7.75455H21.5165C20.1965 5.07555 17.7444 3.05085 14.7883 2.30876C15.1965 2.85588 15.5685 3.54409 15.8933 4.36448C16.1339 4.97194 16.3433 5.63572 16.52 6.34342Z" fill="white"/>
<path d="M7.45962 14.5096C7.40155 13.7845 7.37171 13.0403 7.37171 12.285C7.37171 11.1419 7.44005 10.0239 7.57138 8.95975H2.5519C2.19441 10.0033 2 11.1218 2 12.285C2 13.506 2.21434 14.6778 2.60662 15.7652H6.33015C6.50628 15.2012 6.92306 14.7427 7.45962 14.5096Z" fill="white"/>
<path d="M8.09061 18.3851C7.26013 18.3144 6.57092 17.7408 6.33031 16.9705H3.13086C4.46816 19.5727 6.88284 21.5336 9.78173 22.2613C9.37358 21.7141 9.00159 21.0259 8.67678 20.2056C8.45436 19.6437 8.25862 19.0335 8.09061 18.3851Z" fill="white"/>
<path d="M8.97546 7.75446H14.373C14.5307 7.24961 14.8811 6.82909 15.3377 6.57928C14.6163 3.73608 13.4096 2 12.2852 2C11.0133 2 9.63631 4.22189 8.97546 7.75446Z" fill="white"/>
<path d="M6.60108 4.11929C6.60108 5.23593 5.69261 6.14443 4.57593 6.14443C4.40671 6.14443 4.24239 6.12325 4.08514 6.08397C3.69053 6.60449 3.34437 7.16357 3.05322 7.75451H7.75094C7.97047 6.50894 8.2819 5.36112 8.67648 4.36448C9.00129 3.54409 9.37329 2.85588 9.78143 2.30876C8.6187 2.60064 7.53383 3.09075 6.56519 3.74131C6.58842 3.86385 6.60108 3.99008 6.60108 4.11929Z" fill="white"/>
<path d="M17.9688 20.4507C17.9688 19.3341 18.8772 18.4256 19.9939 18.4256C20.1631 18.4256 20.3274 18.4468 20.4847 18.4861C20.8447 18.0112 21.1648 17.5045 21.4392 16.9705H16.7907C16.573 18.1563 16.2715 19.2505 15.8933 20.2056C15.5685 21.0259 15.1965 21.7141 14.7883 22.2613C15.9511 21.9694 17.036 21.4793 18.0047 20.8287C17.9813 20.7062 17.9688 20.5799 17.9688 20.4507Z" fill="white"/>
<path d="M15.5651 16.9705H10.197C10.0435 17.4623 9.70674 17.8736 9.26746 18.1255C9.99239 20.8885 11.1784 22.57 12.2848 22.57C13.538 22.57 14.8933 20.413 15.5651 16.9705Z" fill="white"/>
<path d="M21.9632 15.7652C22.3555 14.6778 22.5699 13.506 22.5699 12.285C22.5699 11.1218 22.3755 10.0033 22.018 8.95975H18.2398C18.0649 9.51972 17.6527 9.97559 17.1217 10.2102C17.172 10.8879 17.1981 11.5816 17.1981 12.285C17.1981 13.4837 17.1232 14.6549 16.979 15.7652H21.9632Z" fill="white"/>
<path d="M16.3062 9.17694C16.7582 9.17694 17.126 8.80917 17.126 8.35707C17.126 7.90497 16.7582 7.5372 16.3062 7.5372C15.8541 7.5372 15.4863 7.90497 15.4863 8.35707C15.4863 8.80917 15.8541 9.17694 16.3062 9.17694Z" fill="white"/>
<path d="M8.26359 17.1878C8.71639 17.1878 9.08346 16.8208 9.08346 16.368C9.08346 15.9151 8.71639 15.5481 8.26359 15.5481C7.81079 15.5481 7.44373 15.9151 7.44373 16.368C7.44373 16.8208 7.81079 17.1878 8.26359 17.1878Z" fill="white"/>
<path d="M4.57622 4.93917C5.02901 4.93917 5.39608 4.5721 5.39608 4.11931C5.39608 3.66651 5.02901 3.29944 4.57622 3.29944C4.12342 3.29944 3.75635 3.66651 3.75635 4.11931C3.75635 4.5721 4.12342 4.93917 4.57622 4.93917Z" fill="white"/>
<path d="M19.994 19.6309C19.542 19.6309 19.1742 19.9987 19.1742 20.4507C19.1742 20.9029 19.542 21.2706 19.994 21.2706C20.4461 21.2706 20.8139 20.9029 20.8139 20.4507C20.8139 19.9987 20.4461 19.6309 19.994 19.6309Z" fill="white"/>
</svg>
