<svg width="24" height="24" viewBox="0 0 24 24" fill="none" xmlns="http://www.w3.org/2000/svg">
<mask id="mask0_753_16522" style="mask-type:luminance" maskUnits="userSpaceOnUse" x="2" y="2" width="21" height="21">
<path d="M22.57 2H2V22.57H22.57V2Z" fill="white"/>
</mask>
<g mask="url(#mask0_753_16522)">
<path d="M14.7303 4.23277C14.8465 4.54423 15.1047 5.33662 15.0187 6.00534L15.7804 6.13358C15.7116 5.58395 15.35 4.91982 15.1779 4.65416C15.1478 4.60835 15.1305 4.5534 15.1305 4.49385V3.96712C15.01 3.74268 14.9283 3.49535 14.8852 3.23885C14.8939 3.35336 14.9154 3.46329 14.9412 3.57322C14.9627 3.64192 14.9584 3.7152 14.9283 3.77933L14.7303 4.23277Z" fill="white"/>
<path d="M3.16629 14.4926C3.11465 14.488 3.0587 14.488 3.00275 14.4834C2.78757 14.4697 2.43897 14.4468 2.29265 14.4926C2.16354 14.6804 2.0043 14.9736 2 15.1247C2.04304 15.2208 2.25392 15.4086 2.44328 15.5644L3.06731 15.0881L3.16629 14.4926Z" fill="white"/>
<path d="M6.39407 17.4927C6.59204 17.4469 6.79862 17.4011 6.8976 17.3507C7.74542 16.9247 9.35929 16.311 9.90585 16.114C12.2901 15.2437 14.2741 12.2071 14.8164 9.77039C14.9627 9.11084 15.1305 8.49708 15.7158 6.68329L14.8508 6.53673C14.8422 6.55047 14.8379 6.56421 14.8292 6.57795C14.0546 7.79172 13.7663 8.41922 13.5296 8.92305C13.4607 9.07419 13.3918 9.22076 13.3187 9.36275C12.0921 11.772 8.79121 13.888 6.76849 14.1033C6.65229 14.117 6.51888 14.1308 6.37685 14.1445C5.54625 14.2315 4.3025 14.3552 3.69568 14.4743L3.601 15.0469C3.85922 15.1155 4.3111 15.23 4.79742 15.3125C4.93514 15.34 5.02981 15.4774 5.0083 15.6239C4.98678 15.7751 4.85336 15.8758 4.71565 15.853C4.11744 15.7476 3.58809 15.6102 3.36 15.5461L2.87799 15.9125C2.8866 15.9217 2.8995 15.9308 2.90811 15.9354C3.97972 16.8469 5.2536 17.3736 6.11434 17.566C6.20471 17.5385 6.29939 17.5156 6.39407 17.4927Z" fill="white"/>
<path d="M15.6513 3.89844V4.41601C15.7933 4.65419 15.9224 4.89694 16.0343 5.15344C16.2108 5.56566 16.3011 5.9275 16.3097 6.24812L16.6927 6.38094L17.0543 6.09697C16.994 6.01452 16.9338 5.93208 16.8779 5.84048C16.5637 5.33665 16.4044 4.76869 16.3916 4.10455C16.3916 4.00837 16.3959 3.91676 16.4044 3.82058C16.4259 3.53202 16.4432 3.2801 16.1677 2.94575C15.888 2.8175 15.5738 2.73047 15.449 2.73505C15.2683 3.17476 15.6083 3.74271 15.6126 3.74729C15.6341 3.78852 15.6513 3.84348 15.6513 3.89844Z" fill="white"/>
<path d="M18.2936 5.76724L18.4742 5.37335C17.9793 5.13975 17.4758 4.74126 17.0756 3.96262C17.0368 3.88018 16.9982 3.79773 16.968 3.71071C16.955 3.67406 16.9422 3.642 16.925 3.60535C16.925 3.69696 16.9163 3.78399 16.912 3.86643C16.9077 3.94888 16.8992 4.02674 16.9035 4.09544C16.925 4.9199 17.2004 5.45579 17.5318 5.85885L18.2936 5.76724Z" fill="white"/>
<path d="M6.88482 17.937C6.77292 17.969 6.64381 18.0011 6.50179 18.0331C6.41141 18.0515 6.30813 18.079 6.20914 18.1019C6.19193 18.1065 6.17471 18.111 6.1575 18.1156C6.00257 18.1568 5.85625 18.2072 5.77878 18.2576C5.69701 18.4821 5.61093 18.8301 5.64536 18.9813C5.74435 19.1187 6.31673 19.3477 6.54053 19.4393L7.12582 18.427L6.88482 17.937Z" fill="white"/>
<path d="M14.3 20.6164C14.1321 20.763 13.861 20.992 13.7836 21.1294C13.8051 21.3584 13.8739 21.6928 13.9643 21.8073C14.059 21.853 14.3559 21.8348 14.5969 21.8119L14.924 20.9049L14.5453 20.4011C14.4722 20.4699 14.3904 20.5432 14.3 20.6164Z" fill="white"/>
<path d="M22.5672 10.92C22.5414 9.4406 21.4998 6.73824 19.929 5.86341C19.7956 5.79012 19.6019 5.73974 19.3781 5.6802C19.2491 5.64356 19.107 5.60691 18.9607 5.5611L18.922 5.64356C20.0495 5.95043 20.6391 6.93977 21.1039 7.98407V7.98865C21.1641 8.12606 21.1082 8.29095 20.9791 8.35508C20.85 8.41919 20.695 8.35965 20.6348 8.22224C19.9721 6.74282 19.3653 6.28937 18.681 6.15196C18.6422 6.23441 18.5648 6.28937 18.4787 6.29853L18.0053 6.35349C18.0268 6.37182 18.044 6.39013 18.0655 6.40846C18.2635 6.59167 18.4485 6.76114 18.5733 6.94893C19.7655 8.73981 19.4254 12.001 18.9306 13.6315C18.3495 15.5415 17.4587 17.0713 16.2322 18.2392C15.9955 18.5782 15.72 18.9263 15.4489 19.2653C15.2466 19.5172 15.0573 19.7599 14.8851 19.9889L15.4102 20.6897C15.4661 20.7676 15.4834 20.8683 15.4489 20.96L15.1606 21.7569C17.4157 21.5966 18.7283 20.305 19.163 19.879C20.7682 18.3034 22.6532 15.4727 22.5672 10.92Z" fill="white"/>
<path d="M18.4486 13.462C18.9479 11.8177 19.1889 8.80845 18.1603 7.2649C18.0699 7.13207 17.915 6.9855 17.7342 6.82062C17.6309 6.72444 17.5147 6.61908 17.4029 6.5L16.8907 6.90765C16.8219 6.9626 16.7358 6.97635 16.6583 6.94886L16.2279 6.79772C15.634 8.63899 15.4662 9.24358 15.3199 9.89398C15.0229 11.2315 14.3301 12.6972 13.4176 13.9201C12.4279 15.2437 11.24 16.2056 10.0737 16.6362C9.5831 16.8148 8.22745 17.3278 7.36671 17.7308L7.5819 18.1568C7.94771 18.1385 8.31352 18.0881 8.67503 18.0102C8.81274 17.9782 8.95046 18.079 8.98058 18.2255C9.01071 18.3721 8.91603 18.5186 8.77831 18.5507C8.38238 18.6377 7.97784 18.6881 7.57329 18.7064L7.03534 19.6317C9.04944 20.3783 11.2013 20.2409 12.1222 19.9568C13.6027 19.508 14.8034 18.8438 15.789 17.9324C16.9897 16.8239 17.8848 15.3216 18.4486 13.462Z" fill="white"/>
</g>
</svg>
