<svg width="24" height="24" viewBox="0 0 24 24" fill="none" xmlns="http://www.w3.org/2000/svg">
<mask id="mask0_753_16536" style="mask-type:luminance" maskUnits="userSpaceOnUse" x="2" y="2" width="21" height="21">
<path d="M22.57 2H2V22.57H22.57V2Z" fill="white"/>
</mask>
<g mask="url(#mask0_753_16536)">
<path d="M22.0428 5.09859C22.3047 5.32292 22.5408 5.62613 22.5788 5.97817C22.598 6.33296 22.6129 6.67641 22.4094 6.98183C22.3927 7.00917 22.3762 7.03652 22.3591 7.06469C22.2083 7.29089 22.0069 7.45808 21.7665 7.58446C21.6864 7.59927 21.6061 7.61284 21.5254 7.62464C21.5256 7.675 21.5258 7.72536 21.526 7.77724C21.5294 8.97349 21.532 10.1697 21.5337 11.3659C21.5338 11.5133 21.5341 11.6606 21.5343 11.8079C21.5344 11.8373 21.5344 11.8667 21.5344 11.8968C21.5351 12.3714 21.5364 12.8459 21.5379 13.3204C21.5394 13.8075 21.5403 14.2947 21.5406 14.7818C21.5408 15.0823 21.5415 15.3827 21.5428 15.6831C21.5438 15.9137 21.5439 16.1444 21.5436 16.3749C21.5437 16.4694 21.544 16.5638 21.5446 16.6582C21.5454 16.7874 21.5452 16.9165 21.5448 17.0458C21.5452 17.0829 21.5458 17.12 21.5462 17.1582C21.5434 17.4614 21.4677 17.7271 21.2886 17.9747C20.8238 18.415 20.4277 18.3516 19.7577 18.3516C19.7577 19.0542 19.7577 19.757 19.7577 20.4809C18.8326 20.5083 18.8326 20.5083 18.4344 20.5142C18.1639 20.5183 17.8936 20.5231 17.6232 20.5325C17.4049 20.5399 17.1868 20.5439 16.9683 20.5457C16.8855 20.5469 16.8028 20.5494 16.7201 20.5531C16.0525 20.5819 16.0525 20.5819 15.8651 20.412C15.7934 20.3232 15.7249 20.2322 15.6563 20.1409C15.4372 19.8708 15.2305 19.768 14.8917 19.7325C14.456 19.6966 14.0176 19.7017 13.5806 19.7061C13.3583 19.7079 13.136 19.7063 12.9136 19.7052C12.5403 19.704 12.1671 19.7056 11.7939 19.7089C11.364 19.7126 10.9342 19.7114 10.5042 19.7076C10.1334 19.7045 9.7626 19.7041 9.39174 19.7059C9.17099 19.7069 8.95033 19.7071 8.72958 19.7049C8.52186 19.7028 8.31441 19.7043 8.10671 19.7082C8.03107 19.7091 7.95541 19.7088 7.87978 19.7073C7.46237 19.6949 7.46237 19.6949 7.09636 19.868C7.0098 19.9563 6.92796 20.0472 6.84708 20.1408C6.64522 20.3726 6.49792 20.5187 6.18434 20.5538C5.98815 20.5619 5.79421 20.5565 5.59813 20.5476C5.51355 20.5463 5.42895 20.5453 5.34435 20.5446C5.12394 20.5421 4.90385 20.5354 4.68356 20.5278C4.45789 20.5207 4.23216 20.5176 4.00641 20.5142C3.56515 20.507 3.12412 20.4953 2.68304 20.4809C2.68028 19.157 2.67815 17.8332 2.67688 16.5092C2.67673 16.3529 2.67658 16.1965 2.67642 16.0401C2.67639 16.0089 2.67635 15.9778 2.67632 15.9457C2.6758 15.442 2.67485 14.9383 2.67374 14.4346C2.67261 13.9174 2.67194 13.4003 2.6717 12.8832C2.67153 12.5643 2.67101 12.2454 2.67003 11.9264C2.66932 11.6816 2.66924 11.4368 2.6694 11.192C2.66937 11.0919 2.66913 10.9916 2.66867 10.8913C2.66807 10.7542 2.66822 10.6171 2.66854 10.4801C2.66819 10.4406 2.66784 10.4011 2.66748 10.3604C2.66996 9.97674 2.74175 9.66033 3.01151 9.37982C3.26891 9.14171 3.53105 9.06101 3.87847 9.06075C3.9044 9.06062 3.93033 9.06049 3.95703 9.06035C4.04354 9.06003 4.13003 9.06026 4.21653 9.0605C4.27932 9.06038 4.34211 9.06021 4.4049 9.06003C4.57717 9.05961 4.74945 9.05971 4.92172 9.05988C5.10763 9.05997 5.29353 9.05961 5.47943 9.05931C5.84353 9.0588 6.20763 9.05873 6.57173 9.05883C6.86767 9.05889 7.16362 9.05883 7.45956 9.05865C7.50168 9.05863 7.5438 9.0586 7.58719 9.05858C7.67275 9.05853 7.75831 9.05848 7.84387 9.05843C8.64631 9.05799 9.44873 9.05808 10.2512 9.05833C10.9852 9.05853 11.7193 9.05808 12.4533 9.05732C13.2071 9.05655 13.9609 9.05621 14.7146 9.05636C15.1379 9.05643 15.561 9.05634 15.9841 9.05577C16.3444 9.05529 16.7046 9.05523 17.0649 9.05572C17.2487 9.05595 17.4324 9.056 17.6162 9.05552C17.7845 9.05508 17.9529 9.05521 18.1212 9.05577C18.182 9.05588 18.2428 9.05578 18.3036 9.05546C18.7354 9.05334 19.0978 9.08275 19.4446 9.35973C19.6532 9.57057 19.7629 9.83535 19.7626 10.1297C19.7627 10.1818 19.7627 10.1818 19.7628 10.2349C19.7626 10.2726 19.7624 10.3104 19.7623 10.3493C19.7623 10.3893 19.7623 10.4292 19.7623 10.4705C19.7623 10.6026 19.762 10.7348 19.7617 10.867C19.7616 10.9586 19.7616 11.0503 19.7615 11.1419C19.7613 11.3831 19.761 11.6243 19.7605 11.8655C19.7601 12.1116 19.7599 12.3578 19.7597 12.6039C19.7593 13.0869 19.7586 13.5699 19.7577 14.0527C20.0892 14.0527 20.4207 14.0527 20.7621 14.0527C20.7621 11.9315 20.7621 9.8102 20.7621 7.62464C20.6959 7.61138 20.6295 7.59812 20.5612 7.58446C20.1797 7.39656 19.9099 7.08083 19.7427 6.69306C19.6629 6.20656 19.7059 5.7753 19.9862 5.36224C20.4914 4.73976 21.3965 4.63208 22.0428 5.09859ZM3.44638 9.83431C3.44638 12.8571 3.44638 15.8799 3.44638 18.9944C6.11626 19.0002 6.11626 19.0002 8.78615 19.0042C9.14596 19.0046 9.50576 19.005 9.86558 19.0054C9.91068 19.0055 9.95577 19.0056 10.0022 19.0056C10.7305 19.0064 11.4587 19.008 12.187 19.0098C12.9343 19.0117 13.6816 19.0128 14.4288 19.0133C14.89 19.0135 15.3512 19.0145 15.8124 19.0161C16.1286 19.0171 16.4447 19.0175 16.7608 19.0172C16.9433 19.017 17.1258 19.0172 17.3083 19.0183C17.4754 19.0193 17.6424 19.0194 17.8095 19.0187C17.8699 19.0186 17.9303 19.0188 17.9908 19.0194C18.4061 19.0284 18.4061 19.0284 18.773 18.8547C18.9485 18.6776 19.0123 18.5109 19.0161 18.263C19.0157 18.2321 19.0154 18.2013 19.0151 18.1695C19.0155 18.1193 19.0155 18.1193 19.0159 18.068C19.0167 17.9564 19.0163 17.8447 19.0158 17.7331C19.0161 17.6528 19.0165 17.5726 19.0169 17.4923C19.0178 17.2747 19.0177 17.057 19.0173 16.8394C19.0171 16.6576 19.0174 16.4757 19.0177 16.2939C19.0184 15.865 19.0182 15.4361 19.0175 15.0071C19.0169 14.5648 19.0175 14.1225 19.0188 13.6802C19.0199 13.3001 19.0202 12.9202 19.0199 12.5402C19.0197 12.3134 19.0198 12.0865 19.0205 11.8596C19.0213 11.6463 19.0211 11.433 19.02 11.2196C19.0199 11.1415 19.02 11.0633 19.0205 10.9851C19.0211 10.8782 19.0205 10.7713 19.0197 10.6643C19.0201 10.6336 19.0206 10.6028 19.0211 10.5711C19.017 10.3362 18.947 10.1734 18.7935 9.99501C18.5371 9.77434 18.2275 9.81231 17.9065 9.81499C17.8441 9.81491 17.7817 9.81477 17.7193 9.81457C17.5482 9.81421 17.3771 9.81485 17.2059 9.81566C17.0213 9.81635 16.8366 9.81612 16.652 9.81599C16.3321 9.81591 16.0123 9.81641 15.6924 9.81732C15.23 9.81862 14.7675 9.81904 14.3051 9.81925C13.5548 9.8196 12.8045 9.82066 12.0542 9.82219C11.3254 9.82366 10.5966 9.82479 9.86779 9.82548C9.7997 9.82555 9.7997 9.82555 9.73025 9.82562C9.3753 9.82595 9.02035 9.82626 8.66539 9.82657C6.92572 9.82808 5.18605 9.83132 3.44638 9.83431Z" fill="#FFBC0F"/>
<path d="M11.1601 2C11.2529 2.01555 11.3077 2.02727 11.3756 2.09418C11.3919 2.11707 11.4082 2.13995 11.425 2.16353C11.4438 2.1893 11.4625 2.21508 11.4818 2.24163C11.5016 2.26962 11.5213 2.2976 11.5417 2.32643C11.5847 2.38545 11.6277 2.4444 11.6707 2.5033C11.7036 2.54834 11.7036 2.54834 11.7371 2.5943C11.8375 2.72968 11.9429 2.86085 12.049 2.99184C12.2286 3.21456 12.4046 3.43955 12.5785 3.66682C12.7312 3.86629 12.886 4.0642 13.0404 4.26237C13.2198 4.49286 13.3978 4.7244 13.575 4.95669C13.6482 5.05376 13.6482 5.05376 13.7313 5.13371C14.3992 4.73878 15.0657 4.34208 15.7283 3.93827C16.2251 3.63588 16.7256 3.33988 17.2266 3.04457C17.272 3.18071 17.2609 3.22378 17.2267 3.35992C17.2167 3.40006 17.2069 3.44022 17.1967 3.48158C17.1855 3.5256 17.1742 3.56962 17.1627 3.61497C17.1511 3.66136 17.1395 3.70776 17.1276 3.75556C17.0958 3.88297 17.0637 4.01031 17.0314 4.13761C16.9978 4.27109 16.9643 4.40466 16.9309 4.53823C16.8747 4.76284 16.8182 4.9874 16.7615 5.21191C16.689 5.49909 16.617 5.78635 16.545 6.07367C16.4829 6.32148 16.4206 6.56927 16.3584 6.81703C16.3385 6.8962 16.3186 6.97538 16.2987 7.05455C16.2614 7.20304 16.224 7.35149 16.1864 7.49993C16.1756 7.54338 16.1647 7.58683 16.1535 7.63159C16.1431 7.67254 16.1327 7.71348 16.1221 7.75567C16.1133 7.79069 16.1044 7.82572 16.0953 7.8618C16.0474 8.03819 15.9935 8.21289 15.941 8.38795C12.8254 8.38795 9.70974 8.38795 6.49969 8.38795C6.26105 7.44663 6.0224 6.50531 5.77653 5.53547C5.48455 4.39284 5.48455 4.39284 5.1919 3.25038C5.17389 3.1651 5.17389 3.1651 5.17389 3.04457C5.33875 3.10484 5.4861 3.18571 5.63607 3.27573C5.66126 3.29071 5.68646 3.30568 5.71241 3.32111C5.79497 3.37023 5.87741 3.41957 5.95983 3.46893C6.01765 3.50342 6.07548 3.5379 6.13332 3.57238C6.64116 3.87547 7.14693 4.18196 7.65186 4.48988C7.78811 4.57295 7.92442 4.65592 8.06074 4.73886C8.27699 4.87041 8.49319 5.00204 8.70936 5.13371C8.83368 5.01153 8.94052 4.88612 9.04583 4.74702C9.08128 4.70045 9.11675 4.65389 9.15224 4.60734C9.17133 4.58226 9.19043 4.55719 9.21011 4.53135C9.32349 4.38322 9.43837 4.23626 9.55305 4.08914C9.74641 3.84086 9.93884 3.59193 10.1304 3.34228C10.235 3.20631 10.3405 3.07106 10.446 2.9358C10.6874 2.62627 10.9264 2.31534 11.1601 2ZM10.3967 5.9774C10.2065 6.2699 10.1596 6.51574 10.1959 6.86127C10.2851 7.15663 10.4599 7.37736 10.7182 7.54426C11.012 7.68587 11.2707 7.70038 11.5819 7.60201C11.8887 7.48207 12.0821 7.28292 12.2159 6.98305C12.3082 6.72231 12.3007 6.47787 12.2046 6.21846C12.054 5.92446 11.8674 5.74431 11.5719 5.60326C11.1129 5.50618 10.7015 5.60089 10.3967 5.9774ZM7.42373 7.10232C7.33017 7.21787 7.33017 7.21787 7.34589 7.36095C7.37317 7.50654 7.37317 7.50654 7.46894 7.60452C7.5839 7.67507 7.5839 7.67507 7.72757 7.6698C7.87303 7.63479 7.87303 7.63479 7.96611 7.51412C8.03374 7.39156 8.03374 7.39156 8.02637 7.27809C7.97677 7.1603 7.92642 7.10047 7.8255 7.02198C7.65212 6.95529 7.56879 6.99255 7.42373 7.10232ZM14.4947 7.10232C14.4326 7.22654 14.4427 7.32708 14.4545 7.46391C14.5368 7.58421 14.5955 7.6179 14.7332 7.66479C14.8595 7.67443 14.8595 7.67443 14.9692 7.60452C15.0836 7.4738 15.1004 7.39573 15.0973 7.22285C15.0206 7.08185 14.9707 7.03358 14.8186 6.9818C14.6726 6.9818 14.6092 7.01395 14.4947 7.10232Z" fill="#FFBC0F"/>
<path d="M9.00103 20.3543C9.21012 20.3559 9.41919 20.3544 9.62827 20.3534C9.97925 20.3522 10.3301 20.3538 10.6811 20.3568C11.0853 20.3604 11.4895 20.3592 11.8937 20.3556C12.2424 20.3527 12.5911 20.3524 12.9398 20.354C13.1474 20.355 13.3548 20.3552 13.5624 20.3531C14.9414 20.3407 14.9414 20.3407 15.228 20.587C15.3072 20.672 15.3764 20.7595 15.4455 20.8528C15.5783 21.0254 15.667 21.1031 15.8857 21.1416C16.1606 21.1678 16.4344 21.1601 16.71 21.1522C16.8105 21.1517 16.9109 21.1515 17.0115 21.1515C17.2741 21.151 17.5364 21.1467 17.799 21.1415C18.1192 21.1355 18.4394 21.1346 18.7595 21.1328C19.0083 21.1313 19.2569 21.1292 19.5058 21.1249C19.5741 21.1239 19.5741 21.1239 19.6437 21.1229C19.7287 21.1217 19.8137 21.1202 19.8986 21.1182C19.9362 21.1178 19.9736 21.1172 20.0123 21.1167C20.0611 21.1159 20.0611 21.1159 20.1108 21.1149C20.219 21.1256 20.2727 21.138 20.3604 21.204C20.4809 21.4852 20.4809 21.4852 20.4809 22.57C14.3822 22.57 8.28349 22.57 2 22.57C2 22.1589 2 21.748 2 21.3245C2.27115 21.0986 2.27115 21.0986 2.43807 21.1022C2.47567 21.1026 2.51327 21.1029 2.55201 21.1032C2.61287 21.1052 2.61287 21.1052 2.67497 21.1073C2.71825 21.108 2.76153 21.1086 2.80612 21.1092C2.89997 21.1106 2.99382 21.1124 3.08766 21.1146C3.23671 21.1178 3.38571 21.1195 3.5348 21.1206C3.95861 21.1239 4.38231 21.1286 4.80603 21.1381C5.06552 21.1437 5.32489 21.1462 5.58444 21.1467C5.68284 21.1476 5.78122 21.1495 5.87955 21.1527C6.39679 21.1929 6.39679 21.1929 6.86072 21.0186C6.93151 20.936 6.99672 20.8508 7.06146 20.7634C7.5035 20.2011 8.35595 20.3477 9.00103 20.3543ZM8.38795 21.1638C8.38795 21.3892 8.38795 21.6146 8.38795 21.8468C8.61333 21.8468 8.83872 21.8468 9.07094 21.8468C9.07094 21.6214 9.07094 21.3961 9.07094 21.1638C8.84555 21.1638 8.62016 21.1638 8.38795 21.1638ZM10.8789 21.1638C10.8789 21.3892 10.8789 21.6146 10.8789 21.8468C11.1042 21.8468 11.3296 21.8468 11.5618 21.8468C11.5618 21.6214 11.5618 21.3961 11.5618 21.1638C11.3365 21.1638 11.1111 21.1638 10.8789 21.1638ZM13.3697 21.1638C13.3697 21.3892 13.3697 21.6146 13.3697 21.8468C13.5951 21.8468 13.8206 21.8468 14.0527 21.8468C14.0527 21.6214 14.0527 21.3961 14.0527 21.1638C13.8273 21.1638 13.602 21.1638 13.3697 21.1638Z" fill="#FFBC0F"/>
<path d="M9.07092 10.4771C10.4895 10.4771 11.9081 10.4771 13.3697 10.4771C13.3697 12.5983 13.3697 14.7196 13.3697 16.9052C11.9512 16.9052 10.5325 16.9052 9.07092 16.9052C9.07092 14.7839 9.07092 12.6626 9.07092 10.4771ZM9.83426 11.9636C9.83426 12.1757 9.83426 12.3878 9.83426 12.6064C10.5104 12.6064 11.1865 12.6064 11.8832 12.6064C11.5178 13.3372 11.5178 13.3372 11.3208 13.6786C11.1241 14.0231 10.9299 14.3689 10.7382 14.7162C10.7101 14.7671 10.6819 14.818 10.6537 14.8689C10.5092 15.1301 10.3667 15.3914 10.236 15.6598C10.5144 15.8188 10.5144 15.8188 10.7985 15.9812C10.8963 15.8508 10.9725 15.73 11.0502 15.588C11.0885 15.5183 11.0885 15.5183 11.1276 15.4472C11.1551 15.3966 11.1827 15.3462 11.2103 15.2957C11.2536 15.2166 11.2969 15.1377 11.3403 15.0588C11.37 15.0047 11.3997 14.9505 11.4294 14.8964C11.5521 14.6727 11.6758 14.4495 11.8 14.2265C11.8504 14.136 11.9005 14.0453 11.9504 13.9544C12.0625 13.7505 12.1762 13.5493 12.3003 13.3525C12.3212 13.3182 12.342 13.284 12.3635 13.2488C12.4009 13.1877 12.4395 13.1273 12.48 13.0682C12.6978 12.7048 12.6064 12.4323 12.6064 11.9636C11.6916 11.9636 10.7768 11.9636 9.83426 11.9636Z" fill="#FFBC0F"/>
<path d="M14.0527 11.9234C15.4714 11.9234 16.8899 11.9234 18.3515 11.9234C18.3515 14.0447 18.3515 16.166 18.3515 18.3515C16.933 18.3515 15.5143 18.3515 14.0527 18.3515C14.0527 16.2302 14.0527 14.109 14.0527 11.9234ZM14.7759 13.3697C14.7759 13.5951 14.7759 13.8206 14.7759 14.0527C15.4653 14.0527 16.1547 14.0527 16.8651 14.0527C16.778 14.2093 16.691 14.3659 16.6014 14.5273C16.572 14.5802 16.5426 14.633 16.5124 14.6874C16.3763 14.9326 16.24 15.1777 16.1037 15.4228C15.979 15.647 15.8546 15.8712 15.7301 16.0955C15.6615 16.2192 15.5926 16.3426 15.5237 16.4661C15.4829 16.5397 15.442 16.6132 15.4011 16.6867C15.3824 16.7202 15.3636 16.7538 15.3443 16.7882C15.3191 16.8338 15.3191 16.8338 15.2933 16.8803C15.2786 16.9066 15.264 16.933 15.2488 16.9601C15.2121 17.0258 15.2121 17.0258 15.2179 17.1061C15.4962 17.2453 15.4962 17.2453 15.7803 17.3873C16.0323 16.9688 16.2706 16.5444 16.5018 16.1141C16.6566 15.8269 16.8148 15.5419 16.9756 15.2581C16.9971 15.2194 17.0187 15.1808 17.0409 15.1411C17.1499 14.947 17.2611 14.7574 17.3877 14.5742C17.6691 14.106 17.5882 14.0204 17.5882 13.3697C16.6602 13.3697 15.7321 13.3697 14.7759 13.3697Z" fill="#FFBC0F"/>
<path d="M4.12933 11.9234C5.53468 11.9234 6.94003 11.9234 8.38796 11.9234C8.38796 14.0447 8.38796 16.166 8.38796 18.3515C6.98262 18.3515 5.57726 18.3515 4.12933 18.3515C4.12933 16.2302 4.12933 14.109 4.12933 11.9234ZM4.85249 13.3697C4.85249 13.5951 4.85249 13.8206 4.85249 14.0527C5.52865 14.066 6.20481 14.0792 6.90146 14.0929C6.35732 15.1097 6.35732 15.1097 6.07534 15.6071C6.05438 15.644 6.0334 15.681 6.01181 15.7192C5.89777 15.9199 5.78302 16.1202 5.66794 16.3203C5.64368 16.3627 5.61942 16.4051 5.59442 16.4488C5.54769 16.5305 5.50074 16.6121 5.45355 16.6935C5.42225 16.7483 5.42225 16.7483 5.39032 16.8041C5.37176 16.8364 5.35321 16.8685 5.33408 16.9018C5.28584 16.9882 5.28584 16.9882 5.29443 17.1061C5.57284 17.2453 5.57284 17.2453 5.85689 17.3873C6.10881 16.9688 6.34719 16.5444 6.57847 16.1141C6.73316 15.8269 6.89137 15.5419 7.05212 15.2581C7.07369 15.2194 7.09526 15.1808 7.11748 15.1411C7.22645 14.947 7.33773 14.7574 7.46432 14.5742C7.74567 14.106 7.6648 14.0204 7.6648 13.3697C6.73674 13.3697 5.80868 13.3697 4.85249 13.3697Z" fill="#FFBC0F"/>
<path d="M9.07092 17.5882C10.4895 17.5882 11.9081 17.5882 13.3697 17.5882C13.3697 17.8401 13.3697 18.092 13.3697 18.3515C11.9512 18.3515 10.5325 18.3515 9.07092 18.3515C9.07092 18.0996 9.07092 17.8477 9.07092 17.5882Z" fill="#FFBC0F"/>
<path d="M14.0527 10.4771C15.4714 10.4771 16.8899 10.4771 18.3515 10.4771C18.3515 10.729 18.3515 10.9809 18.3515 11.2404C16.933 11.2404 15.5143 11.2404 14.0527 11.2404C14.0527 10.9885 14.0527 10.7366 14.0527 10.4771Z" fill="#FFBC0F"/>
<path d="M4.12933 10.4771C5.53468 10.4771 6.94003 10.4771 8.38796 10.4771C8.38796 10.729 8.38796 10.9809 8.38796 11.2404C6.98262 11.2404 5.57726 11.2404 4.12933 11.2404C4.12933 10.9885 4.12933 10.7366 4.12933 10.4771Z" fill="#FFBC0F"/>
<path d="M11.2154 6.24357C11.351 6.24619 11.3897 6.25006 11.5016 6.33397C11.6028 6.47726 11.6193 6.56443 11.602 6.74075C11.5298 6.84922 11.4782 6.92322 11.361 6.9818C11.2009 6.9969 11.1069 6.99652 10.9642 6.91903C10.8521 6.7904 10.8387 6.70937 10.8387 6.53987C10.9272 6.35016 11.0014 6.24713 11.2154 6.24357Z" fill="#FFBC0F"/>
</g>
</svg>
