<svg width="24" height="25" viewBox="0 0 24 25" fill="none" xmlns="http://www.w3.org/2000/svg">
<path d="M15.814 11.4153C15.7848 11.3945 10.8026 8.41624 10.7705 8.39592C10.3691 8.12659 9.89129 8.12742 9.49096 8.39592C9.09064 8.66525 8.85138 9.14637 8.85138 9.68419V15.7211C8.85138 16.259 9.09064 16.7401 9.49096 17.0095C9.69508 17.1462 9.91927 17.2129 10.1392 17.2129C10.3508 17.2129 10.5582 17.1512 10.7397 17.0286L15.814 13.9901C16.2144 13.7208 16.4533 13.2397 16.4533 12.7027C16.4533 12.1657 16.2144 11.6846 15.814 11.4153Z" fill="white"/>
<path d="M19.5619 4.25015C19.2749 3.91662 18.81 3.91662 18.523 4.25015C18.2361 4.58368 18.2361 5.124 18.523 5.45753C20.1853 7.38952 21.1007 9.96272 21.1007 12.7027C21.1007 15.4427 20.1853 18.0158 18.523 19.9479C18.2361 20.2814 18.2361 20.8217 18.523 21.1553C18.6665 21.322 18.8545 21.4054 19.0424 21.4054C19.2304 21.4054 19.4183 21.322 19.5619 21.1553C21.5018 18.9014 22.57 15.8996 22.57 12.7027C22.57 9.50578 21.5018 6.50399 19.5619 4.25015Z" fill="white"/>
<path d="M17.4517 6.70326C17.1647 6.36973 16.6999 6.36973 16.4129 6.70326C16.1259 7.03679 16.1259 7.57711 16.4129 7.91064C18.6864 10.5531 18.6864 14.8523 16.4129 17.4947C16.1259 17.8283 16.1259 18.3686 16.4129 18.7021C16.5564 18.8689 16.7444 18.9522 16.9323 18.9522C17.1202 18.9522 17.3082 18.8689 17.4517 18.7021C18.8285 17.102 19.5868 14.9716 19.5868 12.7027C19.5868 10.4338 18.8285 8.30338 17.4517 6.70326Z" fill="white"/>
<path d="M6.04664 5.45753C6.3336 5.124 6.3336 4.58368 6.04664 4.25015C5.75966 3.91662 5.29478 3.91662 5.0078 4.25015C3.06825 6.50399 2 9.50662 2 12.7027C2 15.8987 3.06825 18.9014 5.0078 21.1553C5.15129 21.322 5.33926 21.4054 5.52722 21.4054C5.71518 21.4054 5.90315 21.322 6.04664 21.1553C6.3336 20.8217 6.3336 20.2814 6.04664 19.9479C2.60945 15.953 2.60945 9.45242 6.04664 5.45753Z" fill="white"/>
<path d="M8.15734 6.70326C7.87036 6.36973 7.40548 6.36973 7.1185 6.70326C5.7414 8.30338 4.98309 10.4338 4.98309 12.7027C4.98309 14.9716 5.7414 17.102 7.1185 18.7021C7.26199 18.8689 7.44996 18.9522 7.63792 18.9522C7.82588 18.9522 8.01385 18.8689 8.15734 18.7021C8.44431 18.3686 8.44431 17.8283 8.15734 17.4947C7.05788 16.2173 6.45237 14.5154 6.45237 12.7027C6.45237 10.8899 7.05788 9.18807 8.15734 7.91064C8.44431 7.57711 8.44431 7.03679 8.15734 6.70326Z" fill="white"/>
</svg>
