<svg width="24" height="24" viewBox="0 0 24 24" fill="none" xmlns="http://www.w3.org/2000/svg">
<path d="M15.569 3.14362C15.7098 3.26277 15.8454 3.38621 15.9793 3.51298C16.0131 3.54414 16.047 3.5753 16.0818 3.6074C16.7748 4.26801 17.2225 5.13608 17.4568 6.05745C17.464 6.085 17.4713 6.11253 17.4787 6.14092C17.8119 7.46271 17.5342 8.92467 16.8472 10.0856C16.7248 10.2828 16.5954 10.4894 16.4308 10.6539C16.4884 10.653 16.4884 10.653 16.5472 10.6519C18.0181 10.6305 18.0181 10.6305 18.5649 10.777C18.5937 10.7846 18.6226 10.792 18.6524 10.7997C19.4043 11.0029 20.1099 11.3768 20.699 11.8851C20.7384 11.9185 20.7779 11.9518 20.8186 11.9861C21.7691 12.8163 22.4014 14.0383 22.5457 15.2914C22.5586 15.5035 22.5618 15.7151 22.5611 15.9275C22.5611 15.9563 22.561 15.9851 22.561 16.0148C22.5558 17.2868 22.1284 18.42 21.3146 19.3954C21.2825 19.4342 21.2506 19.4729 21.2176 19.513C20.9036 19.8763 20.5344 20.1636 20.1357 20.428C20.1028 20.4499 20.0698 20.4719 20.0359 20.4944C20.0109 20.511 19.986 20.5275 19.9602 20.5445C19.9896 20.5447 20.019 20.5448 20.0492 20.545C20.3264 20.5465 20.6036 20.5489 20.8807 20.5521C21.0231 20.5537 21.1656 20.555 21.3081 20.5556C21.472 20.5564 21.6359 20.5584 21.7998 20.5606C21.8508 20.5606 21.9019 20.5607 21.9544 20.5607C22.002 20.5615 22.0497 20.5624 22.0988 20.5631C22.1615 20.5638 22.1615 20.5638 22.2255 20.5643C22.3705 20.5911 22.4406 20.6484 22.5457 20.7497C22.5715 20.8318 22.5715 20.8318 22.5688 20.9139C22.5689 20.9545 22.5689 20.9545 22.569 20.996C22.5342 21.119 22.483 21.1641 22.3816 21.2422C22.2646 21.2583 22.1635 21.2643 22.0465 21.2629C22.0123 21.2631 21.978 21.2634 21.9427 21.2636C21.8273 21.2642 21.7119 21.2636 21.5964 21.263C21.513 21.2632 21.4298 21.2635 21.3464 21.2638C21.117 21.2645 20.8874 21.2642 20.6578 21.2636C20.4106 21.2633 20.1633 21.2639 19.9159 21.2643C19.4593 21.265 19.0027 21.265 18.546 21.2645C18.1241 21.2641 17.7023 21.264 17.2804 21.2642C17.2525 21.2642 17.2245 21.2642 17.1957 21.2642C17.0822 21.2643 16.9688 21.2643 16.8553 21.2643C15.7902 21.2649 14.7252 21.2644 13.6602 21.2636C12.7135 21.2628 11.7668 21.2629 10.8201 21.2636C9.75706 21.2645 8.69401 21.2649 7.63095 21.2643C7.51767 21.2643 7.40439 21.2643 7.29112 21.2642C7.26322 21.2642 7.23533 21.2642 7.20659 21.2642C6.78496 21.2639 6.36334 21.2642 5.94172 21.2646C5.46241 21.265 4.98311 21.265 4.50381 21.2641C4.25909 21.2636 4.01439 21.2635 3.76966 21.264C3.54588 21.2644 3.32212 21.2642 3.09833 21.2633C3.01715 21.2631 2.93595 21.2632 2.85476 21.2636C2.74484 21.2642 2.63497 21.2636 2.52505 21.2629C2.49313 21.2632 2.46122 21.2636 2.42833 21.264C2.28338 21.262 2.20487 21.2537 2.0884 21.1639C2.02097 21.0714 2.0025 21.0272 2.00273 20.9139C2.00183 20.8868 2.00093 20.8597 2 20.8318C2.04038 20.7034 2.12137 20.6595 2.23101 20.5856C2.34605 20.5643 2.34605 20.5643 2.47281 20.5631C2.52045 20.5624 2.56809 20.5616 2.61717 20.5607C2.69369 20.5606 2.69369 20.5606 2.77174 20.5606C2.82429 20.5599 2.87683 20.5592 2.93096 20.5585C3.07015 20.5567 3.20932 20.5559 3.34852 20.5553C3.49076 20.5545 3.63299 20.5527 3.77521 20.5511C4.05392 20.5481 4.33261 20.546 4.61132 20.5445C4.5762 20.5206 4.54108 20.4967 4.5049 20.472C4.00765 20.1317 4.00765 20.1317 3.7854 19.9392C3.76171 19.9187 3.73803 19.8982 3.71362 19.8771C2.75806 19.0289 2.09405 17.7345 2.01681 16.4557C2.01187 16.2933 2.00992 16.1311 2.01042 15.9686C2.01046 15.9398 2.01049 15.911 2.01053 15.8813C2.01575 14.6094 2.44317 13.4761 3.257 12.5007C3.28901 12.4619 3.32102 12.4232 3.35399 12.3832C4.19542 11.4096 5.46817 10.7763 6.7454 10.6539C6.8579 10.649 6.9701 10.649 7.08269 10.6499C7.1132 10.65 7.14371 10.65 7.17514 10.6501C7.27129 10.6503 7.36744 10.6508 7.46359 10.6513C7.52932 10.6516 7.59505 10.6518 7.66078 10.6519C7.82077 10.6524 7.98076 10.6531 8.14075 10.6539C8.12195 10.6304 8.10314 10.6069 8.08377 10.5828C7.65716 10.0434 7.36529 9.44204 7.16606 8.78403C7.15382 8.74418 7.15382 8.74418 7.14133 8.70351C6.76366 7.39112 6.98139 5.92226 7.63154 4.73455C7.98499 4.11359 8.56667 3.33026 9.20779 2.97946C9.33457 2.95089 9.40267 2.95759 9.53611 2.97946C9.65886 3.08379 9.69378 3.15008 9.72336 3.30778C9.66917 3.59676 9.16387 3.9397 9.00259 4.08754C11.1695 4.08754 13.3364 4.08754 15.569 4.08754C14.6824 3.20096 13.5415 2.72591 12.2858 2.71783C11.7888 2.72032 11.3394 2.77623 10.8647 2.92816C10.7087 2.97772 10.5978 2.99653 10.439 2.93842C10.3258 2.84032 10.3166 2.78031 10.2979 2.63062C10.3193 2.45984 10.3498 2.42963 10.48 2.32282C10.6516 2.24732 10.832 2.20433 11.0136 2.15866C11.0876 2.14001 11.0876 2.14001 11.1633 2.12099C12.6738 1.78269 14.3692 2.16337 15.569 3.14362ZM10.3159 5.68809C9.87729 6.25059 9.68351 6.90957 9.7413 7.61697C9.84511 8.32925 10.1868 8.94302 10.7563 9.38697C11.3563 9.78793 12.0226 9.97568 12.7399 9.84738C13.4276 9.70337 14.024 9.33686 14.4173 8.74813C14.7914 8.10751 14.9399 7.44202 14.7661 6.71153C14.5905 6.04577 14.1893 5.4819 13.5918 5.13245C12.4431 4.53821 11.2077 4.72031 10.3159 5.68809ZM8.96155 10.5308C9.66979 11.3571 10.6817 11.8202 11.7523 11.9672C13.0619 12.064 14.266 11.7391 15.2767 10.882C15.4675 10.726 15.4675 10.726 15.61 10.5308C13.416 10.5308 11.222 10.5308 8.96155 10.5308ZM11.4239 12.5828C11.6132 12.8806 11.6132 12.8806 11.8039 13.1777C11.9842 13.4616 12.1267 13.7452 12.2447 14.0602C12.2718 14.0602 12.2989 14.0602 12.3269 14.0602C12.3442 14.018 12.3616 13.9759 12.3796 13.9325C12.5262 13.5835 12.6863 13.2651 12.9014 12.9522C12.9826 12.8302 13.0639 12.7083 13.1477 12.5828C12.5788 12.5828 12.01 12.5828 11.4239 12.5828ZM5.67836 13.2394C5.61937 13.3574 5.62165 13.4372 5.63732 13.5678C5.7198 13.6741 5.7198 13.6741 5.84252 13.7319C6.02034 13.7162 6.1632 13.6644 6.32474 13.5909C6.91167 13.342 7.57625 13.3195 8.18179 13.5267C8.49716 13.6578 8.77994 13.8061 9.02503 14.0485C9.08165 14.1103 9.08165 14.1103 9.16675 14.1013C9.17791 14.1253 9.18907 14.1493 9.20058 14.1741C9.24799 14.2639 9.30064 14.3353 9.36425 14.4142C9.75878 14.9338 9.90629 15.5489 9.86443 16.1943C9.79069 16.7145 9.60956 17.2804 9.22093 17.6563C9.15727 17.7096 9.15727 17.7096 9.16675 17.7948C9.13056 17.8117 9.13056 17.8117 9.09365 17.8288C9.00527 17.8756 8.9362 17.9268 8.85895 17.9898C8.31011 18.4047 7.67292 18.5609 6.99164 18.4925C6.29387 18.3933 5.70287 18.0656 5.25626 17.5151C4.80352 16.8796 4.69572 16.1534 4.7944 15.3916C4.85391 15.128 4.96249 14.9018 5.0953 14.6671C5.15192 14.5363 5.15863 14.4476 5.14484 14.3064C5.0867 14.2004 5.0867 14.2004 4.98068 14.1423C4.8361 14.1224 4.8361 14.1224 4.6934 14.1833C4.6 14.2804 4.54584 14.3907 4.4882 14.5116C4.47043 14.5488 4.45265 14.586 4.43434 14.6242C4.09843 15.378 4.03018 16.235 4.32404 17.0151C4.47809 17.3896 4.66561 17.7405 4.93964 18.0411C4.96948 18.0747 4.99932 18.1083 5.03006 18.1429C5.57098 18.7196 6.33097 19.0763 7.12197 19.1199C8.02496 19.1485 8.79948 18.8441 9.48224 18.2591C10.1159 17.6619 10.4636 16.8364 10.4903 15.9711C10.4847 15.4718 10.3749 14.9991 10.1517 14.5527C10.1315 14.5123 10.1113 14.4719 10.0905 14.4302C9.65393 13.624 8.93272 13.1251 8.06589 12.8617C7.25125 12.6573 6.38968 12.7992 5.67836 13.2394ZM14.8149 13.9252C14.4637 14.3677 14.2385 14.8591 14.1326 15.4146C14.1232 15.4619 14.114 15.5093 14.1043 15.5582C14.0485 16.1846 14.1378 16.7793 14.4199 17.3434C14.4401 17.3839 14.4602 17.4242 14.4811 17.4659C14.9176 18.2722 15.6389 18.771 16.5057 19.0344C17.295 19.2324 18.0718 19.0929 18.7841 18.7258C18.9021 18.6614 18.9021 18.6614 18.9753 18.5336C18.9961 18.3982 18.9881 18.3465 18.9086 18.2335C18.7827 18.1441 18.7172 18.1522 18.5649 18.1642C18.4592 18.2032 18.4592 18.2032 18.3572 18.2591C17.7433 18.5503 17.0338 18.5898 16.3898 18.3694C16.0744 18.2383 15.7916 18.0901 15.5465 17.8476C15.4899 17.7858 15.4899 17.7858 15.4048 17.7948C15.3936 17.7709 15.3825 17.7468 15.3709 17.7221C15.3236 17.6323 15.271 17.5608 15.2073 17.4819C14.8128 16.9623 14.6653 16.3473 14.7071 15.7018C14.7808 15.1816 14.962 14.6157 15.3506 14.2398C15.4143 14.1865 15.4143 14.1865 15.4048 14.1013C15.4286 14.0904 15.4525 14.0797 15.477 14.0686C15.5734 14.0168 15.6452 13.9573 15.728 13.8858C16.2595 13.4664 16.9196 13.3438 17.58 13.4036C18.2773 13.5006 18.8697 13.8318 19.3153 14.381C19.7681 15.0166 19.8758 15.7427 19.7772 16.5045C19.7273 16.7254 19.6455 16.9102 19.5395 17.11C19.4369 17.3001 19.4369 17.3001 19.419 17.5101C19.4597 17.6349 19.4597 17.6349 19.5575 17.7153C19.7132 17.7672 19.7725 17.7433 19.9192 17.6717C19.989 17.5721 20.0384 17.4881 20.0885 17.3793C20.1024 17.35 20.1162 17.3206 20.1306 17.2903C20.4634 16.5583 20.5396 15.7303 20.278 14.9618C20.1257 14.5578 19.9237 14.1752 19.6319 13.855C19.6021 13.8214 19.5722 13.7879 19.5415 13.7532C19.0006 13.1766 18.2406 12.8198 17.4496 12.7763C16.4205 12.7436 15.4944 13.1496 14.8149 13.9252ZM16.4475 14.6322C16.2686 14.8946 16.2188 15.1435 16.2667 15.4555C16.3124 15.5689 16.3647 15.671 16.427 15.7761C16.4718 15.866 16.4718 15.866 16.4718 16.0301C16.427 16.1201 16.427 16.1201 16.3692 16.2174C16.2513 16.4469 16.2219 16.6373 16.2667 16.892C16.3702 17.2082 16.5445 17.4332 16.8375 17.5908C17.0723 17.6921 17.3095 17.7186 17.5551 17.6405C17.8536 17.5152 18.0448 17.3662 18.1949 17.0763C18.3082 16.7983 18.2967 16.5527 18.1919 16.2749C18.1532 16.1863 18.1532 16.1863 18.0801 16.0815C18.0314 15.9891 18.0314 15.9891 18.057 15.8891C18.0959 15.8165 18.1362 15.7447 18.1776 15.6736C18.2991 15.3935 18.3072 15.1287 18.196 14.8442C18.0569 14.5553 17.8844 14.3871 17.5876 14.2551C17.1377 14.1493 16.7361 14.2619 16.4475 14.6322ZM6.44369 14.7454C6.32862 14.9234 6.28229 15.1221 6.29395 15.3324C6.33531 15.4354 6.36015 15.4851 6.45042 15.5505C6.56628 15.5869 6.6307 15.5759 6.7454 15.5377C6.83219 15.483 6.8623 15.4381 6.8884 15.3392C6.89453 15.3107 6.90067 15.2823 6.90699 15.253C6.94225 15.0982 6.97856 15.0141 7.11475 14.9221C7.31509 14.8701 7.46148 14.8697 7.64828 14.9631C7.68418 15.0298 7.68418 15.0298 7.68931 15.1272C7.6927 15.1805 7.69609 15.234 7.69957 15.2888C7.70585 15.4467 7.6637 15.5364 7.5662 15.6608C7.45925 15.7361 7.34534 15.7966 7.23018 15.8583C6.78995 16.1074 6.49313 16.3529 6.335 16.8509C6.2692 17.138 6.2692 17.138 6.35328 17.4098C6.50629 17.5525 6.63405 17.5365 6.83645 17.5334C6.87318 17.5335 6.90991 17.5336 6.94775 17.5337C7.02529 17.5337 7.10285 17.5331 7.18038 17.5321C7.29903 17.5307 7.41756 17.5312 7.53622 17.532C7.61162 17.5317 7.68702 17.5313 7.76242 17.5308C7.79786 17.531 7.8333 17.5312 7.86982 17.5314C8.07134 17.5278 8.07134 17.5278 8.24504 17.4318C8.32783 17.3096 8.33199 17.2416 8.30491 17.0971C8.19489 16.985 8.1277 16.9371 7.97093 16.9144C7.92386 16.9152 7.87679 16.9161 7.82831 16.917C7.77712 16.9175 7.72593 16.918 7.6732 16.9186C7.62011 16.9199 7.56703 16.9213 7.51232 16.9227C7.43151 16.9239 7.43151 16.9239 7.34905 16.925C7.2162 16.9269 7.08342 16.9297 6.95059 16.933C7.11389 16.6225 7.11389 16.6225 7.28661 16.5175C7.31872 16.4976 7.35084 16.4776 7.38392 16.4571C7.48144 16.401 7.57994 16.3474 7.67905 16.2943C7.98157 16.1284 8.19562 15.8655 8.30491 15.5377C8.34185 15.191 8.30236 14.9226 8.09971 14.6347C7.89209 14.3911 7.63297 14.2892 7.31996 14.25C6.94497 14.2969 6.68015 14.4488 6.44369 14.7454ZM12.2447 17.8359C12.2273 17.878 12.2099 17.9202 12.192 17.9636C11.751 19.0137 11.016 19.9079 10.0308 20.4932C10.003 20.5102 9.97517 20.5271 9.94651 20.5445C9.94651 20.5581 9.94651 20.5716 9.94651 20.5856C11.504 20.5856 13.0614 20.5856 14.6661 20.5856C14.5744 20.5168 14.4819 20.4491 14.3865 20.3855C13.4698 19.7744 12.6805 18.8969 12.3269 17.8359C12.2997 17.8359 12.2727 17.8359 12.2447 17.8359Z" fill="white"/>
<path d="M13.004 5.67275C13.0357 5.67243 13.0675 5.67211 13.1002 5.67178C13.2148 5.69296 13.2433 5.71678 13.3118 5.81125C13.3275 5.94052 13.3275 5.94052 13.3277 6.10207C13.328 6.1315 13.3282 6.16094 13.3284 6.19128C13.329 6.28862 13.3286 6.38593 13.3282 6.48328C13.3283 6.5509 13.3283 6.61852 13.3285 6.68614C13.3287 6.82786 13.3284 6.96958 13.3278 7.11131C13.3271 7.29307 13.3276 7.47481 13.3283 7.65656C13.3288 7.7962 13.3286 7.93582 13.3283 8.07546C13.3282 8.14248 13.3283 8.2095 13.3286 8.27652C13.3289 8.37016 13.3284 8.46376 13.3277 8.5574C13.3276 8.6107 13.3276 8.66401 13.3275 8.71893C13.3118 8.8482 13.3118 8.8482 13.2548 8.92692C13.1674 8.98559 13.1086 8.98776 13.004 8.98672C12.9564 8.98719 12.9564 8.98719 12.9078 8.98767C12.7932 8.9665 12.7647 8.94268 12.6962 8.8482C12.6805 8.71893 12.6805 8.71893 12.6803 8.5574C12.68 8.52796 12.6798 8.49851 12.6796 8.46819C12.6791 8.37084 12.6794 8.27352 12.6798 8.17618C12.6798 8.10856 12.6797 8.04094 12.6795 7.97333C12.6793 7.8316 12.6796 7.68988 12.6802 7.54816C12.6809 7.36639 12.6805 7.18466 12.6797 7.00289C12.6792 6.86327 12.6794 6.72364 12.6798 6.584C12.6798 6.51698 12.6797 6.44996 12.6794 6.38294C12.6791 6.2893 12.6796 6.1957 12.6803 6.10207C12.6804 6.04876 12.6805 5.99544 12.6805 5.94052C12.6962 5.81125 12.6962 5.81125 12.7532 5.73254C12.8406 5.67388 12.8994 5.6717 13.004 5.67275Z" fill="white"/>
<path d="M11.5676 5.67275C11.5994 5.67243 11.6311 5.67211 11.6638 5.67178C11.7784 5.69296 11.807 5.71678 11.8754 5.81125C11.891 5.94052 11.891 5.94052 11.8914 6.10207C11.8915 6.1315 11.8918 6.16094 11.892 6.19128C11.8925 6.28862 11.8921 6.38593 11.8918 6.48328C11.8919 6.5509 11.892 6.61852 11.8921 6.68614C11.8923 6.82786 11.8921 6.96958 11.8914 7.11131C11.8907 7.29307 11.8912 7.47481 11.8919 7.65656C11.8923 7.7962 11.8922 7.93582 11.8919 8.07546C11.8918 8.14248 11.8919 8.2095 11.8922 8.27652C11.8925 8.37016 11.8921 8.46376 11.8914 8.5574C11.8913 8.6107 11.8912 8.66401 11.891 8.71893C11.8754 8.8482 11.8754 8.8482 11.8184 8.92692C11.731 8.98559 11.6722 8.98776 11.5676 8.98672C11.52 8.98719 11.52 8.98719 11.4715 8.98767C11.3568 8.9665 11.3282 8.94268 11.2598 8.8482C11.2442 8.71893 11.2442 8.71893 11.2439 8.5574C11.2436 8.52796 11.2435 8.49851 11.2432 8.46819C11.2427 8.37084 11.243 8.27352 11.2435 8.17618C11.2434 8.10856 11.2433 8.04094 11.2431 7.97333C11.2429 7.8316 11.2432 7.68988 11.2437 7.54816C11.2444 7.36639 11.2441 7.18466 11.2433 7.00289C11.2429 6.86327 11.243 6.72364 11.2433 6.584C11.2434 6.51698 11.2433 6.44996 11.243 6.38294C11.2427 6.2893 11.2432 6.1957 11.2439 6.10207C11.244 6.04876 11.2441 5.99544 11.2442 5.94052C11.2598 5.81125 11.2598 5.81125 11.3168 5.73254C11.4041 5.67388 11.463 5.6717 11.5676 5.67275Z" fill="white"/>
<path d="M17.4157 16.2355C17.5472 16.3134 17.6372 16.3723 17.6906 16.5202C17.7159 16.6637 17.7114 16.7489 17.6542 16.8844C17.533 17.0306 17.4703 17.0902 17.2772 17.1153C17.1032 17.0942 17.0171 17.0424 16.8821 16.9332C16.8109 16.7906 16.8164 16.6371 16.8411 16.4816C17.0141 16.2632 17.139 16.2078 17.4157 16.2355Z" fill="white"/>
<path d="M17.4157 14.7991C17.5472 14.877 17.6372 14.9359 17.6906 15.0838C17.7159 15.2272 17.7114 15.3124 17.6542 15.448C17.533 15.5942 17.4703 15.6538 17.2772 15.6788C17.1032 15.6579 17.0171 15.606 16.8821 15.4967C16.8109 15.3542 16.8164 15.2008 16.8411 15.0453C17.0141 14.8267 17.139 14.7714 17.4157 14.7991Z" fill="white"/>
</svg>
