<svg width="24" height="24" viewBox="0 0 24 24" fill="none" xmlns="http://www.w3.org/2000/svg">
<path d="M9.27177 3.7669C9.49002 3.88131 9.69521 4.00844 9.90014 4.14449C10.8067 4.74364 11.9372 4.97704 13.0096 4.77899C13.6863 4.63908 14.2562 4.36415 14.8409 4.00167C15.2929 3.72395 15.7306 3.53028 16.257 3.44286C16.3174 3.4318 16.3174 3.4318 16.3791 3.4205C17.1114 3.34913 17.9707 4.167 18.5084 4.60097C18.7396 4.7949 18.9711 4.99081 19.1875 5.20115C19.1875 5.21603 19.1875 5.23091 19.1875 5.24624C19.1101 5.24679 19.1101 5.24679 19.0311 5.24734C18.5424 5.25085 18.0536 5.25481 17.5649 5.2592C17.3136 5.26144 17.0624 5.26353 16.8113 5.26526C16.5683 5.26693 16.3254 5.26902 16.0825 5.2714C15.9903 5.27223 15.8981 5.27291 15.806 5.27343C14.7954 5.27944 13.9086 5.33241 13.1012 6.01267C13.0577 6.04859 13.0577 6.04859 13.0132 6.08523C12.5663 6.49103 12.2365 7.13787 12.1914 7.74304C12.1786 8.26336 12.1691 8.72884 12.3798 9.21366C12.3966 9.25363 12.4134 9.29362 12.4308 9.33482C12.7462 10.0199 13.316 10.5227 14.0112 10.8029C14.5506 10.981 15.1218 10.9856 15.6844 10.9863C15.7551 10.9867 15.8258 10.9872 15.8966 10.9877C16.0863 10.9889 16.276 10.9896 16.4657 10.9902C16.6648 10.9909 16.8638 10.9921 17.0629 10.9933C17.4389 10.9953 17.815 10.997 18.191 10.9985C18.6195 11.0003 19.048 11.0024 19.4765 11.0047C20.357 11.0093 21.2374 11.0134 22.118 11.017C22.289 11.3592 22.2132 11.86 22.211 12.2371C22.2108 12.3026 22.2106 12.3681 22.2103 12.4336C22.2098 12.5926 22.2091 12.7516 22.2082 12.9106C22.0268 12.8403 21.8658 12.7559 21.6981 12.657C20.5164 11.9743 19.334 11.5794 17.962 11.9174C17.4025 12.0709 16.8919 12.34 16.4036 12.6486C15.7823 13.0392 15.1484 13.2072 14.417 13.2008C14.3614 13.2004 14.3058 13.2 14.2485 13.1996C13.4149 13.1838 12.7451 12.8897 12.0614 12.4316C11.1615 11.8311 10.0176 11.6588 8.96048 11.8527C8.31739 11.9915 7.75968 12.2687 7.20917 12.6232C6.33427 13.1851 5.35326 13.3254 4.32572 13.1513C3.75284 13.0127 3.25767 12.7102 2.76715 12.3955C2.52505 12.2415 2.27681 12.1161 2.01039 12.0089C1.89646 10.2071 2.73461 8.13382 3.76867 6.68893C3.7996 6.64564 3.83051 6.60234 3.86236 6.55774C4.42787 5.78576 5.07806 5.05923 5.84255 4.47981C5.87136 4.45779 5.90016 4.43578 5.92983 4.4131C6.1667 4.23317 6.40799 4.06081 6.65407 3.89371C6.688 3.87053 6.72194 3.84736 6.75689 3.82348C7.58937 3.26874 8.3793 3.34003 9.27177 3.7669ZM5.30154 6.68893C4.77227 7.23246 4.5606 7.85563 4.5638 8.59814C4.57526 9.15299 4.74899 9.57992 5.07612 10.0252C5.09867 10.0571 5.12121 10.089 5.14445 10.1219C5.48843 10.5623 6.06134 10.8842 6.60898 10.9719C7.36136 11.0418 7.97327 10.9276 8.5927 10.476C8.62129 10.4562 8.64988 10.4365 8.67934 10.4161C9.13989 10.0654 9.41611 9.49579 9.53946 8.94315C9.60327 8.19198 9.49674 7.5763 9.04353 6.95944C9.02099 6.92753 8.99843 6.89563 8.9752 6.86275C8.56964 6.3435 7.92759 6.06778 7.29089 5.97322C6.52286 5.92334 5.86991 6.18497 5.30154 6.68893Z" fill="white"/>
<path d="M9.80452 12.4403C9.88756 12.4408 9.88756 12.4408 9.97228 12.4414C10.7711 12.4562 11.4023 12.7221 12.0643 13.1616C12.9709 13.7608 14.1015 13.9942 15.1738 13.7961C15.849 13.6565 16.4219 13.3843 17.0036 13.0188C17.6349 12.6265 18.2779 12.4335 19.0214 12.4403C19.1017 12.4409 19.1017 12.4409 19.1836 12.4415C20.0855 12.4592 20.7798 12.8376 21.535 13.294C21.74 13.4176 21.948 13.5275 22.1633 13.6322C22.1238 14.0488 22.0578 14.4509 21.9604 14.8579C21.9507 14.8983 21.9411 14.9387 21.9312 14.9803C21.885 15.1682 21.8368 15.3484 21.7575 15.5257C21.578 15.4958 21.4374 15.4037 21.2841 15.3116C20.2686 14.7208 19.1112 14.5189 17.9611 14.8029C17.4021 14.9575 16.8919 15.2258 16.4037 15.5341C15.7824 15.9248 15.1485 16.0929 14.4172 16.0864C14.3616 16.086 14.3059 16.0856 14.2486 16.0852C13.4151 16.0693 12.7454 15.7753 12.0616 15.3172C11.1618 14.7167 10.0178 14.5445 8.96067 14.7382C8.31757 14.8771 7.75986 15.1543 7.20935 15.5088C6.33445 16.0707 5.35344 16.211 4.3259 16.0369C3.70996 15.8879 3.17088 15.5466 2.64175 15.2101C2.61113 15.1966 2.58052 15.1831 2.54897 15.1693C2.38775 15.091 2.30067 15.0331 2.23199 14.8634C2.19626 14.7126 2.17076 14.5633 2.14864 14.4099C2.1399 14.3584 2.13115 14.3069 2.12214 14.2538C2.05496 13.8494 2.00407 13.4534 2.00776 13.0433C2.00816 12.9841 2.00857 12.9251 2.00899 12.8641C2.00952 12.82 2.01003 12.776 2.01058 12.7305C2.19713 12.7991 2.36616 12.8901 2.5375 12.9897C2.57933 13.0138 2.57933 13.0138 2.62201 13.0382C2.78213 13.1305 2.93914 13.2264 3.09541 13.3251C4.03513 13.8892 5.24229 13.9823 6.29464 13.7253C6.86277 13.5714 7.37506 13.2869 7.8659 12.9672C8.46991 12.5742 9.08785 12.434 9.80452 12.4403Z" fill="white"/>
<path d="M15.0799 5.94272C15.1574 5.94128 15.1574 5.94128 15.2365 5.93981C15.406 5.93694 15.5756 5.93512 15.7452 5.93357C15.8034 5.93296 15.8616 5.93236 15.9216 5.93173C16.1662 5.92928 16.4109 5.92709 16.6556 5.92591C17.0044 5.92422 17.353 5.92052 17.7018 5.91396C17.9779 5.90894 18.2541 5.90716 18.5302 5.90651C18.6471 5.90577 18.7641 5.90403 18.881 5.90128C19.8424 5.87996 19.8424 5.87996 20.0781 6.09544C20.1983 6.23471 20.2797 6.38778 20.3593 6.55348C20.4025 6.61716 20.4467 6.68027 20.4928 6.74191C21.1341 7.70794 21.9823 9.093 21.9823 10.2955C21.0217 10.2997 20.0611 10.3029 19.1006 10.3048C18.6545 10.3058 18.2085 10.307 17.7625 10.3091C17.3735 10.3109 16.9846 10.312 16.5956 10.3125C16.3898 10.3127 16.184 10.3132 15.9782 10.3145C15.7842 10.3157 15.5902 10.3162 15.3961 10.3158C15.3252 10.316 15.2543 10.3163 15.1835 10.317C14.4521 10.3238 13.9225 10.1513 13.3825 9.6502C12.932 9.17418 12.807 8.65358 12.8113 8.01735C12.8298 7.38066 13.0934 6.88131 13.5543 6.44499C14.0145 6.06645 14.4942 5.94805 15.0799 5.94272Z" fill="white"/>
<path d="M8.36173 17.8497C8.44478 17.8502 8.44478 17.8502 8.5295 17.8508C9.34852 17.866 9.98444 18.1554 10.6638 18.5935C11.5957 19.1918 12.7332 19.4118 13.823 19.1865C14.4621 19.0425 15.0248 18.7847 15.5676 18.4182C15.8855 18.2041 16.2061 18.0702 16.5727 17.9596C16.6255 17.9429 16.6782 17.9264 16.7326 17.9094C17.7675 17.6593 18.8116 17.9199 19.6979 18.4558C19.8144 18.5295 19.9298 18.6041 20.0442 18.681C19.7408 19.3527 18.9944 19.9575 18.4211 20.3941C18.3955 20.4137 18.3699 20.4332 18.3435 20.4535C18.0032 20.7121 17.6581 20.9561 17.2893 21.1729C17.1618 21.2461 17.1618 21.2461 17.0607 21.3229C16.6875 21.5824 16.1915 21.5161 15.764 21.4478C15.2012 21.3148 14.7026 21.0463 14.2255 20.7266C13.2849 20.0989 12.1246 19.9642 11.0274 20.1687C10.422 20.3117 9.89556 20.5805 9.37612 20.9182C8.91657 21.2138 8.44843 21.3705 7.91652 21.4761C7.8766 21.4845 7.83667 21.4929 7.79554 21.5014C7.10817 21.5757 6.21774 20.7267 5.71585 20.3237C5.44958 20.1004 5.19406 19.8657 4.94096 19.6276C4.90655 19.5958 4.87215 19.5638 4.8367 19.5309C4.80787 19.5033 4.77906 19.4757 4.74935 19.4473C4.72494 19.4241 4.70053 19.4009 4.67539 19.3769C4.62537 19.3121 4.62537 19.3121 4.62537 19.1769C4.66256 19.168 4.69976 19.1592 4.73808 19.15C5.31864 18.9998 5.82024 18.7359 6.33012 18.4245C6.98142 18.027 7.59261 17.8429 8.36173 17.8497Z" fill="white"/>
<path d="M9.804 15.3248C9.88705 15.3254 9.88705 15.3254 9.97177 15.3259C10.7907 15.3411 11.4267 15.6306 12.1061 16.0686C13.038 16.6669 14.1755 16.8869 15.2652 16.6616C15.9044 16.5175 16.4671 16.2598 17.0099 15.8933C17.3277 15.6792 17.6484 15.5452 18.015 15.4347C18.0678 15.4181 18.1205 15.4016 18.1749 15.3845C19.2097 15.1344 20.2539 15.395 21.1402 15.9309C21.2566 16.0045 21.3721 16.0792 21.4865 16.156C21.4617 16.4211 21.3557 16.6354 21.2413 16.8717C21.2214 16.9132 21.2014 16.9546 21.1808 16.9973C21.0478 17.2685 20.9059 17.5326 20.7482 17.7903C20.73 17.8207 20.7118 17.851 20.693 17.8823C20.6249 17.9897 20.5646 18.0788 20.456 18.1476C20.2961 18.1345 20.1775 18.0424 20.0466 17.9565C18.999 17.3015 17.8283 17.0376 16.6117 17.3041C16.0165 17.4507 15.4761 17.7323 14.9605 18.058C14.3393 18.4487 13.7053 18.6167 12.974 18.6103C12.9184 18.6099 12.8627 18.6095 12.8054 18.6091C11.9719 18.5932 11.3021 18.2992 10.6184 17.841C9.6777 17.2133 8.51743 17.0788 7.42016 17.2831C6.81484 17.4262 6.28838 17.6949 5.76895 18.0326C5.29643 18.337 4.61639 18.6728 4.03884 18.5906C3.94616 18.4998 3.88943 18.4301 3.82187 18.3229C3.80299 18.2946 3.78411 18.2663 3.76465 18.2372C3.70429 18.1454 3.64597 18.0527 3.58801 17.9594C3.56897 17.9293 3.54993 17.8991 3.53032 17.8681C2.64124 16.4502 2.64124 16.4502 2.64124 15.9756C2.7972 16.0337 2.93018 16.1023 3.06953 16.1927C4.01816 16.768 5.2277 16.8704 6.29411 16.6099C6.86224 16.4559 7.37454 16.1715 7.86537 15.8517C8.46938 15.4588 9.08733 15.3185 9.804 15.3248Z" fill="white"/>
<path d="M8.07055 6.93722C8.46742 7.22307 8.76569 7.60115 8.86323 8.08652C8.92354 8.64634 8.87563 9.14098 8.53918 9.60811C8.23204 9.97263 7.85762 10.2534 7.37225 10.3057C6.79015 10.3461 6.30467 10.2754 5.84557 9.88866C5.46154 9.52205 5.25637 9.13211 5.23526 8.59888C5.22826 8.03469 5.35529 7.60083 5.75241 7.18483C6.37368 6.59175 7.33509 6.47859 8.07055 6.93722Z" fill="white"/>
<path d="M11.583 2.35168C11.6219 2.35136 11.6608 2.35104 11.7009 2.35071C13.306 2.34056 13.306 2.34056 14.0027 2.49609C14.0494 2.50624 14.096 2.5164 14.144 2.52686C15.0613 2.72955 15.0613 2.72955 15.4906 2.90185C15.4906 2.9316 15.4906 2.96136 15.4906 2.99201C15.4588 3.00411 15.4271 3.01619 15.3944 3.02865C14.9706 3.19685 14.5839 3.41069 14.1988 3.65348C13.361 4.18033 12.3765 4.29566 11.4058 4.13638C10.841 3.99972 10.3296 3.70419 9.84903 3.3858C9.6386 3.25851 9.41562 3.15958 9.1916 3.05876C9.0806 3.00874 8.97141 2.95747 8.86316 2.90185C9.01255 2.80226 9.15791 2.75467 9.3281 2.70461C9.36122 2.69486 9.39435 2.68511 9.42847 2.67506C10.126 2.47813 10.8578 2.35564 11.583 2.35168Z" fill="white"/>
<path d="M11.9684 20.7356C12.0515 20.7361 12.0515 20.7361 12.1362 20.7367C12.9912 20.7525 13.631 21.0704 14.3463 21.522C14.567 21.652 14.7967 21.7574 15.0301 21.8623C15.1401 21.9117 15.2482 21.9625 15.3554 22.0176C15.2061 22.1172 15.0606 22.1648 14.8904 22.2149C14.8573 22.2246 14.8242 22.2343 14.7901 22.2444C14.0926 22.4413 13.3608 22.5638 12.6356 22.5677C12.5966 22.5681 12.5577 22.5685 12.5176 22.5688C12.3929 22.5695 12.268 22.5698 12.1432 22.5699C12.0792 22.5699 12.0792 22.5699 12.014 22.57C11.4047 22.5693 10.8131 22.5553 10.2158 22.4233C10.176 22.4149 10.1361 22.4065 10.0951 22.3977C9.63065 22.2979 9.17395 22.1829 8.72803 22.0176C8.72803 21.9879 8.72803 21.9581 8.72803 21.9274C8.77069 21.9105 8.81335 21.8934 8.85729 21.8758C9.21323 21.7293 9.54312 21.5633 9.86922 21.3583C10.5459 20.9345 11.1609 20.7285 11.9684 20.7356Z" fill="white"/>
<path d="M20.7652 20.3943C21.0033 20.3943 21.2412 20.3943 21.4865 20.3943C21.4865 20.6324 21.4865 20.8705 21.4865 21.1157C21.7246 21.1157 21.9627 21.1157 22.2079 21.1157C22.2079 21.3538 22.2079 21.5918 22.2079 21.837C21.9699 21.837 21.7318 21.837 21.4865 21.837C21.4865 22.0751 21.4865 22.3132 21.4865 22.5584C21.2485 22.5584 21.0105 22.5584 20.7652 22.5584C20.7652 22.3204 20.7652 22.0823 20.7652 21.837C20.5272 21.837 20.2891 21.837 20.0438 21.837C20.0438 21.599 20.0438 21.361 20.0438 21.1157C20.2819 21.1157 20.5199 21.1157 20.7652 21.1157C20.7652 20.8777 20.7652 20.6396 20.7652 20.3943Z" fill="white"/>
<path d="M2.73185 20.3943C2.9699 20.3943 3.20794 20.3943 3.4532 20.3943C3.4532 20.6324 3.4532 20.8705 3.4532 21.1157C3.69124 21.1157 3.92929 21.1157 4.17455 21.1157C4.17455 21.3538 4.17455 21.5918 4.17455 21.837C3.93651 21.837 3.69845 21.837 3.4532 21.837C3.4532 22.0751 3.4532 22.3132 3.4532 22.5584C3.21516 22.5584 2.97711 22.5584 2.73185 22.5584C2.73185 22.3204 2.73185 22.0823 2.73185 21.837C2.4938 21.837 2.25576 21.837 2.0105 21.837C2.0105 21.599 2.0105 21.361 2.0105 21.1157C2.24855 21.1157 2.48659 21.1157 2.73185 21.1157C2.73185 20.8777 2.73185 20.6396 2.73185 20.3943Z" fill="white"/>
<path d="M2.73185 2.36057C2.9699 2.36057 3.20794 2.36057 3.4532 2.36057C3.4532 2.59861 3.4532 2.83665 3.4532 3.08191C3.69124 3.08191 3.92929 3.08191 4.17455 3.08191C4.17455 3.31995 4.17455 3.558 4.17455 3.80326C3.93651 3.80326 3.69845 3.80326 3.4532 3.80326C3.4532 4.0413 3.4532 4.27934 3.4532 4.5246C3.21516 4.5246 2.97711 4.5246 2.73185 4.5246C2.73185 4.28656 2.73185 4.04852 2.73185 3.80326C2.4938 3.80326 2.25576 3.80326 2.0105 3.80326C2.0105 3.56522 2.0105 3.32716 2.0105 3.08191C2.24855 3.08191 2.48659 3.08191 2.73185 3.08191C2.73185 2.84387 2.73185 2.60582 2.73185 2.36057Z" fill="white"/>
<path d="M21.1263 2C21.3643 2 21.6023 2 21.8476 2C21.8476 2.23804 21.8476 2.47609 21.8476 2.72135C22.0857 2.72135 22.3237 2.72135 22.5689 2.72135C22.5689 2.95939 22.5689 3.19744 22.5689 3.44269C22.3309 3.44269 22.0929 3.44269 21.8476 3.44269C21.8476 3.68075 21.8476 3.91879 21.8476 4.16405C21.6095 4.16405 21.3715 4.16405 21.1263 4.16405C21.1263 3.926 21.1263 3.68796 21.1263 3.44269C20.8882 3.44269 20.6502 3.44269 20.4049 3.44269C20.4049 3.20465 20.4049 2.96661 20.4049 2.72135C20.643 2.72135 20.881 2.72135 21.1263 2.72135C21.1263 2.4833 21.1263 2.24526 21.1263 2Z" fill="white"/>
</svg>
