<svg width="24" height="24" viewBox="0 0 24 24" fill="none" xmlns="http://www.w3.org/2000/svg">
<path d="M22.3218 5.76632C22.3218 4.53942 21.3552 3.54251 20.1655 3.54251C18.9653 3.54251 17.9987 4.53942 17.9987 5.76632C17.9987 6.82749 18.7231 7.71355 19.695 7.93435C19.6928 7.95351 19.6841 7.97028 19.6841 7.99004V13.6178H18.8115V17.1017H21.0279C21.2936 17.1017 21.509 16.8795 21.509 16.6056V14.1138C21.509 13.8398 21.2936 13.6178 21.0279 13.6178H20.6364V7.99004C20.6364 7.97101 20.6279 7.95485 20.6259 7.93639C21.5943 7.71817 22.3218 6.82992 22.3218 5.76632Z" fill="white"/>
<path d="M5.54004 19.1024H8.24157V11.6121H5.54004V19.1024ZM6.41606 14.3116C6.41606 14.0404 6.62902 13.8206 6.8922 13.8206C7.15538 13.8206 7.36834 14.0404 7.36834 14.3116V16.4043C7.36834 16.6756 7.15538 16.8953 6.8922 16.8953C6.62902 16.8953 6.41606 16.6756 6.41606 16.4043V14.3116Z" fill="white"/>
<path d="M9.19397 19.1024H11.8959V11.6121H9.19397V19.1024ZM10.0709 14.3116C10.0709 14.0404 10.2839 13.8206 10.5471 13.8206C10.8102 13.8206 11.0231 14.0404 11.0231 14.3116V16.4043C11.0231 16.6756 10.8102 16.8953 10.5471 16.8953C10.2839 16.8953 10.0709 16.6756 10.0709 16.4043V14.3116Z" fill="white"/>
<path d="M19.0934 10.5737C19.0934 9.31169 18.1553 8.27559 16.9603 8.16265C16.7269 4.7204 13.9368 2 10.5466 2C7.15656 2 4.36639 4.7204 4.13309 8.16265C2.93797 8.27559 2 9.31169 2 10.5737V20.1443C2 21.4784 3.05845 22.57 4.35212 22.57H16.7412C18.0349 22.57 19.0934 21.4784 19.0934 20.1443V17.9001H19.9499C20.1947 17.9001 20.3933 17.6954 20.3933 17.4428V13.28C20.3933 13.0274 20.1947 12.8227 19.9499 12.8227H19.0934V10.5737ZM10.5466 3.98382C13.0322 3.98382 15.051 6.07079 15.051 8.63896C15.051 8.90903 14.8415 9.13 14.5748 9.13C14.3129 9.13 14.0987 8.90903 14.0987 8.63896C14.0987 6.61092 12.5036 4.96592 10.5466 4.96592C8.58496 4.96592 6.98991 6.61092 6.98991 8.63896C6.98991 8.90903 6.77565 9.13 6.51377 9.13C6.25191 9.13 6.03765 8.90903 6.03765 8.63896C6.03765 6.07079 8.06123 3.98382 10.5466 3.98382ZM16.5066 19.5935C16.5066 19.8647 16.2936 20.0846 16.0304 20.0846H5.06391C4.80074 20.0846 4.58778 19.8647 4.58778 19.5935V11.121C4.58778 10.8499 4.80074 10.63 5.06391 10.63H16.0304C16.2936 10.63 16.5066 10.8499 16.5066 11.121V19.5935Z" fill="white"/>
<path d="M12.8483 19.1024H15.5544V11.6121H12.8483V19.1024ZM13.7252 14.3116C13.7252 14.0404 13.9382 13.8206 14.2014 13.8206C14.4646 13.8206 14.6775 14.0404 14.6775 14.3116V16.4043C14.6775 16.6756 14.4646 16.8953 14.2014 16.8953C13.9382 16.8953 13.7252 16.6756 13.7252 16.4043V14.3116Z" fill="white"/>
</svg>
