<svg width="24" height="24" viewBox="0 0 24 24" fill="none" xmlns="http://www.w3.org/2000/svg">
<path d="M10.2733 3.92293C10.2739 3.97158 10.2746 4.02023 10.2752 4.07035C10.292 4.69404 10.435 5.19732 10.884 5.65258C11.2489 5.98597 11.7042 6.15115 12.1961 6.15879C12.6827 6.1292 13.1539 5.94639 13.5142 5.61153C13.8144 5.26445 13.9928 4.84834 14.0379 4.39525C14.0434 4.34618 14.0434 4.34618 14.049 4.29613C14.0579 4.21649 14.0662 4.13678 14.0742 4.05708C14.7871 4.16225 15.4574 4.47768 16.0865 4.81727C16.1139 4.83186 16.1412 4.84644 16.1695 4.86146C16.5549 5.06814 16.908 5.30361 17.2492 5.57746C17.2837 5.60502 17.2837 5.60502 17.3188 5.63314C17.8382 6.05141 18.3213 6.51029 18.736 7.03357C18.7665 7.0719 18.7665 7.0719 18.7976 7.111C18.9039 7.24943 18.9823 7.37932 19.0379 7.54502C18.9982 7.5841 18.9982 7.5841 18.9577 7.62398C18.5481 8.04898 18.3475 8.51475 18.3547 9.10559C18.403 9.64486 18.6507 10.1012 19.0386 10.471C19.4624 10.8056 19.9463 10.8689 20.4688 10.8988C20.4831 10.9779 20.497 11.0572 20.5108 11.1364C20.5185 11.1804 20.5263 11.2246 20.5343 11.27C20.8373 13.3641 20.3283 15.553 19.1273 17.2934C19.0103 17.2403 18.9539 17.2114 18.8758 17.1061C18.4442 16.595 17.7621 16.3706 17.115 16.3096C16.3889 16.2891 15.7056 16.5595 15.1782 17.0558C14.9194 17.3288 14.7041 17.6469 14.6025 18.0117C14.5214 18.143 14.5214 18.143 14.41 18.1837C14.3161 18.2055 14.222 18.2259 14.1275 18.245C13.6701 18.348 13.281 18.6406 13.0075 19.0176C12.7649 19.4111 12.6345 19.7623 12.6349 20.228C12.6349 20.275 12.6349 20.275 12.6349 20.3229C12.6375 20.5867 12.6717 20.8375 12.7327 21.0943C10.9797 21.2307 9.20651 20.9221 7.67968 20.0211C7.68446 19.9886 7.68925 19.9561 7.69418 19.9226C7.75112 19.445 7.68858 19.0278 7.39932 18.6335C7.12152 18.3174 6.7631 18.1391 6.34428 18.098C6.05331 18.099 5.76486 18.1931 5.48854 18.2772C4.25631 17.0107 3.5161 15.2786 3.29739 13.5371C3.29102 13.4871 3.29102 13.4871 3.28452 13.4361C3.24805 13.1168 3.24411 12.799 3.24429 12.4779C3.24426 12.4228 3.24423 12.3678 3.2442 12.311C3.24645 11.9227 3.2694 11.5488 3.34211 11.1671C3.3918 11.1692 3.44149 11.1713 3.49268 11.1734C3.99757 11.1884 4.35888 11.1542 4.76467 10.8261C5.02728 10.578 5.19519 10.2578 5.23088 9.8967C5.2433 9.45303 5.14061 9.1183 4.85132 8.77755C4.67616 8.59483 4.51526 8.48829 4.28117 8.39465C4.35942 8.13753 4.35942 8.13753 4.46004 8.03692C4.57775 8.02616 4.57775 8.02616 4.7288 8.02677C4.81339 8.02677 4.81339 8.02677 4.8997 8.02678C4.96147 8.02724 5.02325 8.02771 5.08504 8.02818C5.14806 8.02835 5.2111 8.02847 5.27414 8.02856C5.44013 8.02891 5.60613 8.02978 5.77212 8.03077C5.94147 8.03169 6.11082 8.03209 6.28017 8.03255C6.61253 8.03351 6.94488 8.03504 7.27723 8.03692C7.29813 8.11106 7.29812 8.11106 7.31944 8.1867C7.44168 8.60929 7.60801 8.9765 7.98991 9.21354C8.3725 9.42422 8.71766 9.48761 9.15116 9.39555C9.50575 9.283 9.78904 9.08807 9.98852 8.77021C10.1818 8.39581 10.2581 8.02005 10.1532 7.60197C10.0118 7.22275 9.83825 6.96701 9.47675 6.77924C9.34715 6.70273 9.34715 6.70273 9.24478 6.60596C9.20492 6.44609 9.20286 6.30376 9.20303 6.13922C9.19537 5.72745 9.0107 5.43164 8.73141 5.14077C8.53481 4.96642 8.31594 4.84474 8.08213 4.72784C8.08213 4.69833 8.08213 4.66881 8.08213 4.6384C8.51021 4.44953 8.93778 4.27006 9.38453 4.12975C9.41833 4.1191 9.45212 4.10846 9.48695 4.09749C10.0585 3.92293 10.0585 3.92293 10.2733 3.92293ZM13.3868 7.51987C13.2168 7.73675 13.1539 7.93995 13.1352 8.21578C13.1792 8.57608 13.3582 8.82838 13.6368 9.05389C13.8613 9.21236 14.1209 9.24018 14.3873 9.19956C14.7185 9.09216 14.9317 8.92025 15.1028 8.61824C15.2122 8.3795 15.2334 8.14344 15.1646 7.89089C15.0474 7.58606 14.8427 7.36813 14.5487 7.2245C14.109 7.08427 13.6934 7.18217 13.3868 7.51987ZM9.47396 11.3795C9.07341 11.7612 8.8845 12.2295 8.87028 12.777C8.88452 13.3253 9.08113 13.7692 9.4516 14.1744C9.84359 14.5454 10.3655 14.7256 10.8995 14.7138C11.4628 14.655 11.9084 14.3963 12.295 13.9935C12.6616 13.5413 12.745 12.9849 12.688 12.4193C12.5754 11.9003 12.2648 11.4756 11.8384 11.1671C11.0495 10.694 10.1733 10.8008 9.47396 11.3795ZM15.5063 11.7832C15.2488 12.066 15.1032 12.3912 15.086 12.777C15.1068 13.2093 15.2887 13.5955 15.5979 13.8954C15.9396 14.1798 16.2668 14.2823 16.7105 14.2677C17.1618 14.2179 17.4908 14.0131 17.7858 13.6713C18.0159 13.31 18.0928 12.979 18.0541 12.5534C17.9531 12.1102 17.7284 11.7523 17.3442 11.5053C16.7093 11.1569 16.0175 11.2744 15.5063 11.7832ZM5.47176 14.2722C5.29695 14.4931 5.24093 14.7142 5.24801 14.9933C5.28868 15.2549 5.41931 15.5038 5.6171 15.6808C5.89788 15.8661 6.13807 15.9559 6.47232 15.9072C6.79188 15.8219 7.00452 15.6432 7.18779 15.3706C7.31898 15.102 7.32786 14.7925 7.24806 14.5054C7.13155 14.2458 6.93579 14.0578 6.68123 13.9335C6.19016 13.7748 5.80761 13.9098 5.47176 14.2722ZM11.8384 16.5332C11.628 16.7485 11.4883 16.9659 11.4763 17.2705C11.4964 17.5936 11.5979 17.7889 11.8021 18.0396C12.0321 18.2287 12.2933 18.3568 12.5967 18.3392C12.9656 18.2694 13.2013 18.0792 13.4147 17.7769C13.5386 17.5423 13.568 17.3013 13.5127 17.0422C13.403 16.7213 13.2043 16.5141 12.9109 16.3481C12.5297 16.183 12.1515 16.2828 11.8384 16.5332Z" fill="white"/>
<path d="M18.3941 17.1113C18.7584 17.419 18.9888 17.7547 19.1276 18.2098C19.1738 18.3473 19.1738 18.3473 19.2618 18.4557C19.4284 18.5181 19.5904 18.5435 19.7658 18.5653C19.9941 18.5989 20.1496 18.6807 20.335 18.8135C20.3656 18.8339 20.3962 18.8543 20.4278 18.8754C20.7391 19.1109 20.9372 19.4923 21.0358 19.8666C21.1039 20.3743 21.0491 20.86 20.7487 21.2868C20.4724 21.6207 20.1408 21.8971 19.709 21.9884C19.6351 21.9926 19.561 21.9946 19.4871 21.995C19.42 21.9954 19.42 21.9954 19.3517 21.9959C19.2786 21.9961 19.2786 21.9961 19.2039 21.9963C19.1265 21.9967 19.1265 21.9967 19.0476 21.9972C18.8767 21.9981 18.7058 21.9985 18.535 21.999C18.4766 21.9992 18.4181 21.9994 18.3579 21.9996C18.0805 22.0004 17.803 22.0011 17.5256 22.0015C17.2063 22.0018 16.887 22.003 16.5678 22.0049C16.3203 22.0062 16.073 22.0069 15.8256 22.007C15.6781 22.0071 15.5307 22.0076 15.3832 22.0086C15.2183 22.0097 15.0534 22.0097 14.8885 22.0094C14.8404 22.0099 14.7923 22.0105 14.7427 22.0111C14.2321 22.0077 13.8193 21.8506 13.4486 21.4965C13.0842 21.1052 12.941 20.6408 12.9567 20.1102C13.0303 19.5799 13.2547 19.1511 13.6722 18.8135C14.0225 18.5713 14.423 18.5186 14.8348 18.4557C14.844 18.4077 14.8532 18.3598 14.8627 18.3104C15.0088 17.747 15.3348 17.2724 15.8397 16.9723C16.6562 16.5252 17.6355 16.5455 18.3941 17.1113Z" fill="white"/>
<path d="M5.6815 3.04906C5.81298 3.14446 5.92274 3.23677 6.02788 3.36103C6.11458 3.44732 6.11458 3.44732 6.25706 3.41972C6.31332 3.40866 6.36958 3.39759 6.42754 3.38618C6.7593 3.34549 6.99841 3.42762 7.27717 3.60978C7.48358 3.80561 7.58058 4.06139 7.60138 4.34202C7.58733 4.54568 7.56833 4.74844 7.54547 4.95129C7.586 4.96057 7.62652 4.96986 7.66828 4.97942C8.10631 5.0902 8.44559 5.2347 8.70533 5.62206C8.88659 5.9477 8.94415 6.27647 8.85783 6.63885C8.72871 7.03946 8.50104 7.34218 8.1268 7.54489C7.86491 7.63824 7.62676 7.64759 7.35022 7.64732C7.30466 7.64762 7.2591 7.64792 7.21216 7.64824C7.06212 7.64908 6.91209 7.64925 6.76205 7.64935C6.6573 7.64964 6.55254 7.64994 6.44779 7.65025C6.22838 7.65079 6.00897 7.65095 5.78957 7.65091C5.50915 7.6509 5.22874 7.65211 4.94832 7.65365C4.73199 7.65465 4.51567 7.65483 4.29934 7.65478C4.19599 7.65488 4.09264 7.65528 3.9893 7.65597C3.8444 7.65686 3.69955 7.65659 3.55466 7.65605C3.51244 7.65655 3.47022 7.65706 3.42672 7.65757C3.00851 7.65366 2.65339 7.52382 2.34744 7.23397C2.11622 6.96472 1.99078 6.64804 2.00053 6.29281C2.02941 5.91798 2.16483 5.56553 2.45434 5.3155C2.64933 5.18073 2.85283 5.08062 3.07375 4.99601C3.07271 4.95601 3.07167 4.916 3.0706 4.87479C3.06163 4.27402 3.14146 3.82996 3.48739 3.33029C4.07472 2.74296 4.96253 2.59561 5.6815 3.04906Z" fill="white"/>
<path d="M15.5496 4.10161C17.5388 4.50187 19.3474 5.93442 20.4684 7.58956C21.7008 9.5114 22.2563 11.9058 21.7653 14.163C21.752 14.2245 21.752 14.2245 21.7384 14.2872C21.4831 15.4225 21.0403 16.5706 20.3069 17.4858C20.2297 17.6044 20.2297 17.6044 20.2733 17.7399C20.2935 17.7843 20.3136 17.8288 20.3343 17.8745C20.3501 17.9176 20.3659 17.9608 20.3822 18.0052C20.4138 18.09 20.4455 18.1747 20.4771 18.2595C20.5132 18.3665 20.5132 18.3665 20.5132 18.4559C20.5844 18.4673 20.5844 18.4673 20.6571 18.4789C21.2363 18.576 21.6283 18.7186 22.0336 19.1714C22.3188 19.5915 22.4325 20.0626 22.3661 20.566C22.2706 21.025 22.0406 21.4342 21.6552 21.7094C21.2921 21.9352 20.9808 22.0047 20.5579 22.0332C20.6063 21.8878 20.6256 21.8731 20.7423 21.7873C21.1137 21.4794 21.3041 21.0407 21.3936 20.5771C21.4534 19.9184 21.279 19.3882 20.9045 18.8472C20.5153 18.458 20.0302 18.2196 19.4847 18.1428C19.3776 17.9819 19.3206 17.8447 19.3058 17.651C19.3872 17.4223 19.5497 17.2262 19.6887 17.0296C20.8843 15.2775 21.1799 12.8633 20.8142 10.8162C20.4719 9.06281 19.6622 7.47023 18.4278 6.17793C18.369 6.11626 18.311 6.05386 18.2531 5.99144C17.4916 5.19541 16.5295 4.63144 15.5496 4.14633C15.5496 4.13157 15.5496 4.11681 15.5496 4.10161Z" fill="white"/>
<path d="M11.6971 11.5183C12.0614 11.8206 12.2771 12.1911 12.3357 12.6626C12.3497 13.1138 12.216 13.5143 11.9209 13.8564C11.5934 14.1873 11.2535 14.3032 10.7902 14.3172C10.3698 14.3079 10.0038 14.1834 9.69181 13.8951C9.33377 13.5025 9.25606 13.1231 9.27415 12.6043C9.29858 12.22 9.45536 11.9391 9.71783 11.6613C10.2877 11.179 11.0651 11.1076 11.6971 11.5183Z" fill="white"/>
<path d="M11.4533 3.77936C11.4881 3.77906 11.523 3.77876 11.5589 3.77844C11.6707 3.77769 11.7825 3.77741 11.8942 3.77726C11.9321 3.77716 11.97 3.77706 12.009 3.77695C12.5734 3.77636 13.1183 3.80309 13.6717 3.9226C13.6956 4.45755 13.6838 4.86117 13.3364 5.29765C13.0554 5.59489 12.6774 5.77428 12.271 5.8098C11.8171 5.81881 11.4592 5.70808 11.1229 5.39827C10.7893 5.06872 10.6337 4.75284 10.6226 4.28033C10.6238 4.11227 10.6398 3.98415 10.7204 3.83317C10.9663 3.79869 11.2052 3.78086 11.4533 3.77936Z" fill="white"/>
<path d="M17.2451 11.8936C17.4442 12.0488 17.5857 12.2173 17.6515 12.4636C17.6869 12.7751 17.7022 13.0932 17.5354 13.3693C17.3601 13.5876 17.1616 13.7661 16.8914 13.8499C16.5407 13.8859 16.1933 13.8999 15.9076 13.671C15.6225 13.4045 15.5055 13.179 15.4856 12.7878C15.4924 12.4651 15.5816 12.2068 15.8138 11.977C16.2428 11.6361 16.7816 11.5894 17.2451 11.8936Z" fill="white"/>
<path d="M9.11054 7.00851C9.3493 7.02297 9.49092 7.15309 9.64715 7.32153C9.87573 7.60956 9.86554 7.95326 9.82603 8.30531C9.7495 8.60327 9.53766 8.80502 9.28941 8.97607C9.002 9.12074 8.63662 9.11727 8.32886 9.03633C8.05078 8.911 7.85791 8.68479 7.7299 8.41152C7.68408 8.27406 7.6666 8.17994 7.67959 8.03701C7.72484 8.02507 7.77009 8.01314 7.81671 8.00085C8.40256 7.83247 8.80504 7.53459 9.11054 7.00851Z" fill="white"/>
<path d="M19.2167 7.85788C19.442 7.93292 19.5009 8.15517 19.6052 8.35815C19.629 8.40408 19.6528 8.45001 19.6773 8.49732C20.3795 9.88651 20.3795 9.88651 20.3795 10.5409C19.9875 10.5774 19.5828 10.4503 19.2643 10.2223C18.9552 9.9581 18.7486 9.58184 18.7098 9.17634C18.7043 8.64505 18.7882 8.30989 19.1546 7.92041C19.1751 7.89978 19.1957 7.87914 19.2167 7.85788Z" fill="white"/>
<path d="M4.10234 8.70772C4.44443 8.83517 4.62639 9.01928 4.81781 9.33376C4.91104 9.61345 4.91695 9.97245 4.79546 10.2449C4.61959 10.5368 4.35725 10.7441 4.03019 10.8383C3.84233 10.8662 3.6623 10.8417 3.4763 10.8094C3.40693 10.59 3.4593 10.4176 3.51822 10.203C3.52807 10.1663 3.53791 10.1296 3.54806 10.0918C3.67815 9.62778 3.83339 9.11113 4.10234 8.70772Z" fill="white"/>
<path d="M18.8141 2C18.8965 2.00245 18.8965 2.00245 18.9929 2.04472C19.0698 2.16524 19.0698 2.16524 19.1495 2.31861C19.3067 2.60222 19.4811 2.73341 19.7781 2.87356C19.8873 2.93906 19.8873 2.93906 19.9252 3.0367C19.9274 3.06351 19.9298 3.09031 19.932 3.11793C19.8697 3.15992 19.8073 3.20183 19.7447 3.2437C19.71 3.26704 19.6752 3.29039 19.6394 3.31444C19.5295 3.38623 19.5295 3.38623 19.4143 3.4451C19.2369 3.56845 19.1687 3.75179 19.0711 3.93996C18.9929 4.05699 18.9929 4.05699 18.8939 4.09577C18.8676 4.09773 18.8412 4.09969 18.8141 4.10171C18.7721 4.03934 18.7302 3.97691 18.6883 3.91446C18.665 3.8797 18.6416 3.84494 18.6176 3.80913C18.5458 3.69926 18.5458 3.69926 18.4869 3.58397C18.3636 3.40653 18.1803 3.33843 17.992 3.24073C17.8751 3.16265 17.8751 3.16265 17.8362 3.06361C17.8343 3.03727 17.8324 3.01092 17.8303 2.98378C17.8749 2.95784 17.8749 2.95784 17.9203 2.93138C18.0402 2.86067 18.1589 2.78837 18.2775 2.71548C18.3181 2.69058 18.3587 2.66567 18.4005 2.64001C18.541 2.49559 18.6225 2.32881 18.7141 2.1504C18.7694 2.04472 18.7694 2.04472 18.8141 2Z" fill="white"/>
<path d="M3.4315 18.5456C3.54596 18.5621 3.59714 18.5743 3.67203 18.6651C3.69823 18.7111 3.69823 18.7111 3.72495 18.7579C3.74253 18.7882 3.76011 18.8184 3.77824 18.8495C3.81742 18.9188 3.85421 18.9896 3.88915 19.0611C3.99382 19.2077 4.10725 19.2614 4.26715 19.3421C4.30783 19.363 4.30783 19.363 4.34934 19.3842C4.41576 19.4183 4.48256 19.4515 4.54943 19.4846C4.54943 19.5584 4.54943 19.6322 4.54943 19.7083C4.51161 19.7236 4.4738 19.7389 4.43484 19.7547C3.98921 19.9603 3.81272 20.2065 3.61037 20.6473C3.50784 20.6401 3.50784 20.6401 3.38678 20.6026C3.30625 20.4938 3.30625 20.4938 3.23865 20.3594C3.20433 20.2931 3.20433 20.2931 3.1693 20.2255C3.11848 20.1107 3.11848 20.1107 3.11848 20.0212C3.08989 20.0111 3.06129 20.0009 3.03184 19.9905C2.84421 19.9101 2.66956 19.8093 2.49243 19.7083C2.49243 19.6344 2.49243 19.5606 2.49243 19.4846C2.53025 19.4693 2.56806 19.4539 2.60702 19.4382C3.05265 19.2326 3.22915 18.9864 3.4315 18.5456Z" fill="white"/>
<path d="M21.3185 4.05706C21.3775 4.05706 21.4366 4.05706 21.4973 4.05706C21.566 4.16501 21.566 4.16501 21.6343 4.3086C21.7982 4.61147 21.9891 4.73286 22.3022 4.86197C22.2944 4.94285 22.2944 4.94285 22.2576 5.04084C22.155 5.10949 22.155 5.10949 22.0256 5.17779C21.7428 5.34645 21.6249 5.54816 21.4973 5.84575C21.3929 5.8379 21.3929 5.83789 21.2738 5.80104C21.2106 5.6985 21.2106 5.6985 21.1564 5.56907C21.01 5.27322 20.8106 5.1661 20.5136 5.04084C20.5215 4.93638 20.5215 4.93638 20.5583 4.81726C20.6609 4.75403 20.6609 4.75403 20.7903 4.69987C21.0861 4.55349 21.1932 4.3541 21.3185 4.05706Z" fill="white"/>
<path d="M6.42754 20.7813C6.53147 20.7913 6.53147 20.7913 6.65112 20.826C6.72186 20.9153 6.72186 20.9153 6.77688 21.0244C6.79562 21.0604 6.81435 21.0963 6.83366 21.1333C6.8747 21.2285 6.8747 21.2285 6.8747 21.3179C6.91344 21.329 6.95218 21.34 6.99209 21.3515C7.15425 21.4116 7.27687 21.4774 7.41132 21.5862C7.41132 21.6453 7.41132 21.7043 7.41132 21.7651C7.30179 21.8369 7.30179 21.8369 7.15698 21.9077C6.91671 22.0381 6.80267 22.143 6.69864 22.3948C6.63984 22.501 6.58326 22.5263 6.47225 22.57C6.45547 22.5436 6.4387 22.5171 6.42142 22.4898C6.19945 22.1471 5.97467 21.9256 5.62262 21.7203C5.63048 21.6381 5.63048 21.6381 5.66734 21.5415C5.76988 21.4826 5.76988 21.4826 5.89931 21.4269C6.19389 21.2785 6.30231 21.0783 6.42754 20.7813Z" fill="white"/>
<path d="M6.56992 14.3056C6.73798 14.4139 6.8465 14.5063 6.90006 14.7048C6.93656 14.9358 6.91953 15.0818 6.78512 15.2811C6.66079 15.4248 6.5736 15.4929 6.38039 15.5153C6.13391 15.5234 5.9936 15.4951 5.80134 15.3257C5.64997 15.1542 5.6441 14.9843 5.65165 14.764C5.67516 14.5992 5.73374 14.5079 5.84606 14.3867C6.08705 14.226 6.29859 14.2046 6.56992 14.3056Z" fill="white"/>
<path d="M14.4321 7.59C14.6051 7.69668 14.725 7.79788 14.7898 7.99245C14.8142 8.20223 14.8099 8.3548 14.7144 8.54582C14.5796 8.69869 14.4897 8.78348 14.2831 8.81151C14.0891 8.82052 13.964 8.80863 13.7865 8.72469C13.6119 8.56283 13.5463 8.43032 13.521 8.19368C13.5458 7.96165 13.6122 7.82402 13.7837 7.66545C13.9984 7.52051 14.1883 7.52339 14.4321 7.59Z" fill="white"/>
<path d="M12.7774 16.712C12.9409 16.804 13.0827 16.9309 13.1351 17.1144C13.1634 17.4015 13.126 17.5512 12.9563 17.7852C12.7878 17.9388 12.6138 17.9424 12.3945 17.9349C12.2296 17.9114 12.1384 17.8528 12.0173 17.7405C11.881 17.5406 11.8401 17.3508 11.8831 17.1144C12.0877 16.727 12.3589 16.607 12.7774 16.712Z" fill="white"/>
<path d="M6.81352 18.5723C7.07597 18.7268 7.25363 18.9683 7.3475 19.2562C7.38076 19.4215 7.37685 19.5848 7.36637 19.7524C6.93658 19.7524 6.42907 19.177 6.11428 18.9029C6.05004 18.8497 5.98577 18.7966 5.92144 18.7435C5.88178 18.7076 5.84213 18.6716 5.80127 18.6346C5.80127 18.6051 5.80127 18.5756 5.80127 18.5451C6.15379 18.4004 6.4676 18.4196 6.81352 18.5723Z" fill="white"/>
</svg>
