<svg width="24" height="24" viewBox="0 0 24 24" fill="none" xmlns="http://www.w3.org/2000/svg">
<path d="M11.6521 10.6489L13.7796 11.3814C14.0353 11.4693 14.3083 11.4927 14.5748 11.4496C14.8415 11.4063 15.0938 11.2979 15.3098 11.1334L16.3387 10.3572C16.4202 10.2957 16.4757 10.205 16.4938 10.1036C16.512 10.0021 16.4915 9.89745 16.4364 9.81076C15.167 7.83839 13.6233 6.13 11.8729 4.76714C11.6311 4.5783 11.3249 4.8475 11.4036 5.18058C11.5524 5.81674 11.6779 6.46334 11.78 7.12041C11.8338 7.47718 11.4721 7.69978 11.2548 7.44786C9.08425 4.92023 6.39647 3.0266 3.39844 2.01491C3.09057 1.91205 2.8654 2.36567 3.09255 2.63406C4.6909 4.54013 5.99758 6.79455 6.92793 9.29286C7.03755 9.59098 6.79774 9.90357 6.53933 9.7967C5.87008 9.51476 5.18253 9.27983 4.48156 9.09358C4.15547 9.00518 3.96117 9.51344 4.22948 9.75451C5.80091 11.1821 7.17566 12.9073 8.29438 14.8535C8.71589 15.5854 9.09627 16.3409 9.43368 17.1165C9.45029 17.1566 9.50886 17.1896 9.53617 17.1474L10.0229 16.5045C10.184 16.2848 10.2902 16.0286 10.3323 15.7581C10.3743 15.4875 10.3512 15.2107 10.2647 14.9513L9.54132 12.792C9.09692 11.4653 10.3454 10.1965 11.6521 10.6489Z" fill="white"/>
<path d="M13.8088 19.6384L15.7151 22.3737C15.7646 22.4446 15.8327 22.5 15.9116 22.5337C15.9906 22.5673 16.0772 22.5779 16.1618 22.5641C16.2463 22.5504 16.3254 22.5129 16.39 22.4558C16.4546 22.3989 16.5023 22.3246 16.5275 22.2416L17.5073 19.0421C17.5298 18.9702 17.569 18.905 17.6216 18.8517C17.6741 18.7984 17.7385 18.7587 17.8092 18.736L20.9623 17.7407C21.0441 17.7149 21.117 17.6663 21.173 17.6006C21.2289 17.5348 21.2656 17.4545 21.279 17.3687C21.2923 17.2829 21.2818 17.195 21.2484 17.115C21.2152 17.0349 21.1605 16.966 21.0906 16.9158L18.3965 14.9816C18.3356 14.9381 18.286 14.8802 18.2521 14.8129C18.2183 14.7455 18.2011 14.6707 18.2022 14.5951L18.2418 11.245C18.243 11.158 18.2202 11.0724 18.176 10.9978C18.1317 10.9232 18.0678 10.8628 17.9914 10.8232C17.915 10.7836 17.8293 10.7666 17.7439 10.774C17.6585 10.7813 17.5768 10.8129 17.5081 10.865L17.1519 11.1338V11.1358L14.863 12.8703C14.8031 12.9147 14.7337 12.9441 14.6604 12.9558C14.587 12.9674 14.512 12.9611 14.4416 12.9374L11.3153 11.8597C11.2342 11.832 11.147 11.8278 11.0636 11.8478C10.9802 11.8677 10.904 11.911 10.8437 11.9726C10.7832 12.0342 10.7409 12.1117 10.7217 12.1965C10.7023 12.2812 10.7068 12.3697 10.7344 12.452L11.793 15.6261C11.8172 15.6976 11.8239 15.774 11.8124 15.8486C11.8008 15.9233 11.7715 15.994 11.7269 16.0544L9.75228 18.7391C9.70102 18.8089 9.67002 18.8919 9.66278 18.9786C9.65553 19.0654 9.67233 19.1524 9.71128 19.2299C9.75023 19.3075 9.80977 19.3724 9.88317 19.4174C9.95658 19.4624 10.0409 19.4856 10.1266 19.4845L13.4262 19.4443C13.5007 19.4425 13.5745 19.4593 13.6412 19.4931C13.708 19.527 13.7655 19.5768 13.8088 19.6384Z" fill="white"/>
</svg>
