<svg width="24" height="24" viewBox="0 0 24 24" fill="none" xmlns="http://www.w3.org/2000/svg">
<path d="M15.657 2.00315C15.714 2.00294 15.771 2.00272 15.8279 2.00247C15.9788 2.00198 16.1295 2.0021 16.2803 2.00246C16.374 2.00268 16.4676 2.00278 16.5614 2.00286C17.5217 2.0042 18.4755 2.02587 19.4304 2.13559C19.4572 2.1386 19.4842 2.14161 19.5119 2.1447C19.689 2.16463 19.8656 2.18685 20.0422 2.21082C20.0839 2.21631 20.1254 2.22181 20.1682 2.22747C20.8487 2.33216 21.4631 2.69014 21.8754 3.2429C22.428 4.07065 22.4434 5.06436 22.5199 6.02759C22.5238 6.07702 22.5279 6.12645 22.532 6.17736C22.5749 6.77624 22.5675 7.37777 22.5674 7.97783C22.5674 8.13781 22.568 8.29777 22.5687 8.45774C22.5691 8.5827 22.5692 8.70766 22.5692 8.83263C22.5692 8.89157 22.5694 8.95053 22.5697 9.00949C22.5733 9.75449 22.4685 10.363 21.9334 10.9153C21.3927 11.4109 20.8018 11.5306 20.0899 11.5697C20.0455 11.5722 20.0455 11.5722 20 11.5747C18.6001 11.6504 17.1765 11.6433 15.7766 11.5722C15.7471 11.5708 15.7176 11.5694 15.6873 11.568C14.8896 11.5282 14.2317 11.3897 13.6526 10.8023C13.6179 10.7683 13.6179 10.7683 13.5827 10.7337C13.092 10.2125 13.0354 9.48086 13.0031 8.80113C13.0015 8.77028 12.9999 8.73941 12.9983 8.70762C12.929 7.30329 12.9252 5.87413 13.0031 4.47029C13.0059 4.41742 13.0087 4.36455 13.0116 4.31008C13.0616 3.56352 13.2897 2.97307 13.8519 2.46551C14.3837 2.03723 14.9991 2.00277 15.657 2.00315Z" fill="white"/>
<path d="M7.98958 2.00266C8.14187 2.0029 8.29415 2.0022 8.44645 2.00128C8.5668 2.00068 8.68716 2.00065 8.80751 2.00078C8.86365 2.00076 8.91978 2.00056 8.97592 2.00014C9.72549 1.9953 10.3529 2.11026 10.9125 2.64053C11.4089 3.16499 11.5313 3.76399 11.571 4.46287C11.5727 4.49152 11.5744 4.52018 11.5761 4.54969C11.6547 5.95821 11.6454 7.39255 11.5736 8.80124C11.5722 8.83065 11.5707 8.86005 11.5694 8.89034C11.5295 9.68706 11.3903 10.3445 10.8037 10.9228C10.7697 10.9574 10.7697 10.9574 10.735 10.9927C10.2027 11.4938 9.44588 11.5394 8.75236 11.5723C8.72139 11.5739 8.69043 11.5754 8.65851 11.5771C7.29308 11.6443 5.90705 11.6454 4.54188 11.5723C4.51383 11.5709 4.48578 11.5695 4.45688 11.5681C3.70171 11.5285 3.0723 11.3623 2.5382 10.8024C2.44884 10.7002 2.37056 10.5958 2.29746 10.4814C2.2823 10.4583 2.26715 10.4351 2.25154 10.4112C2.00265 9.97868 1.99823 9.42573 2.0006 8.94184C2.00047 8.88407 2.00031 8.82631 2.0001 8.76854C1.99977 8.61604 2.00029 8.46354 2.00109 8.31103C2.00155 8.21632 2.0018 8.12161 2.00199 8.02689C2.00433 7.06203 2.03209 6.10481 2.13696 5.14498C2.14189 5.09664 2.14682 5.0483 2.15189 4.99849C2.24107 4.13532 2.24107 4.13532 2.41783 3.74064C2.43376 3.70444 2.44969 3.66823 2.4661 3.63093C2.76571 3.02139 3.30733 2.56529 3.94253 2.33632C5.2119 1.95601 6.67224 2.00045 7.98958 2.00266Z" fill="white"/>
<path d="M17.9356 12.9617C17.9632 12.9617 17.9907 12.9617 18.019 12.9617C18.7037 12.9619 19.3883 12.9641 20.0722 12.9993C20.0998 13.0004 20.1273 13.0017 20.1557 13.003C20.8745 13.0367 21.5335 13.2155 22.0396 13.7564C22.3972 14.1892 22.5629 14.6848 22.5663 15.2433C22.5667 15.2952 22.5671 15.347 22.5675 15.4005C22.5676 15.4568 22.5678 15.5131 22.568 15.5695C22.5683 15.6286 22.5686 15.6878 22.5689 15.7468C22.5696 15.9369 22.5698 16.1269 22.5699 16.3169C22.5699 16.3491 22.57 16.3814 22.57 16.4146C22.5707 17.4242 22.5497 18.4246 22.4395 19.4291C22.4346 19.4774 22.4296 19.5256 22.4245 19.5754C22.3354 20.4388 22.3354 20.4388 22.1587 20.8334C22.1427 20.8695 22.1267 20.9058 22.1104 20.9431C21.8107 21.5527 21.2692 22.0087 20.6339 22.2377C19.3585 22.6199 17.8909 22.5735 16.5675 22.5714C16.4124 22.5712 16.2573 22.5719 16.1023 22.5727C15.9799 22.5733 15.8575 22.5733 15.7351 22.5732C15.6779 22.5732 15.6207 22.5734 15.5636 22.5739C14.8247 22.5785 14.2142 22.4571 13.6638 21.9328C12.7301 20.9511 12.9619 19.2253 12.9628 17.9796C12.9628 17.9248 12.9628 17.87 12.9628 17.8154C12.963 17.1474 12.9694 16.4801 13.0054 15.813C13.0078 15.7678 13.0078 15.7678 13.0102 15.7218C13.0559 14.8799 13.2082 14.1752 13.8367 13.5739C14.8404 12.7102 16.7057 12.9606 17.9356 12.9617Z" fill="white"/>
<path d="M8.79998 13.0016C8.82947 13.0031 8.85894 13.0045 8.88932 13.0059C9.68695 13.0456 10.3449 13.1841 10.924 13.7715C10.9471 13.7941 10.9702 13.8169 10.994 13.8402C11.492 14.3691 11.542 15.1114 11.5736 15.8003C11.5751 15.8322 11.5767 15.8643 11.5783 15.8973C11.6439 17.2698 11.6469 18.6612 11.5736 20.0333C11.5721 20.0613 11.5707 20.0895 11.5693 20.1183C11.5297 20.8747 11.3561 21.5346 10.7866 22.0631C10.2498 22.523 9.58841 22.5777 8.90782 22.5746C8.85102 22.5747 8.79422 22.5749 8.73742 22.5751C8.58762 22.5755 8.43784 22.5749 8.28805 22.5741C8.19489 22.5736 8.10174 22.5734 8.0086 22.5731C7.05085 22.5706 6.09853 22.5477 5.14622 22.4383C5.11933 22.4352 5.09244 22.4322 5.06474 22.4291C4.88763 22.4092 4.71094 22.387 4.53433 22.363C4.49277 22.3575 4.4512 22.3521 4.40838 22.3464C3.72793 22.2417 3.11348 21.8836 2.70118 21.3309C1.94281 20.1949 2.01195 18.489 2.00843 17.1642C2.00831 17.1345 2.0082 17.1049 2.00808 17.0745C2.00749 16.9181 2.00711 16.7619 2.00694 16.6056C2.00671 16.4464 2.00574 16.2872 2.00461 16.1281C2.00385 16.0035 2.00366 15.8788 2.00359 15.7542C2.00347 15.6956 2.00316 15.6369 2.00262 15.5783C1.9963 14.8336 2.11412 14.2196 2.64179 13.6627C3.17366 13.1592 3.77866 13.043 4.48669 13.0042C4.51636 13.0025 4.54602 13.0008 4.57659 12.9991C5.97655 12.9235 7.40006 12.9305 8.79998 13.0016Z" fill="white"/>
</svg>
