<svg width="24" height="24" viewBox="0 0 24 24" fill="none" xmlns="http://www.w3.org/2000/svg">
<path d="M21.081 6.64549L17.7527 5.17849V16.0003L20.2028 10.7808H20.2137L21.558 7.87859C21.7655 7.40869 21.5541 6.8622 21.081 6.64549Z" fill="white"/>
<path d="M15.5194 2H3.25759C2.56375 2.01151 2.00575 2.56333 2 3.24376V21.3156C2.00565 21.9978 2.56203 22.5528 3.25765 22.57H15.5086C16.2211 22.5758 16.8036 22.0143 16.8096 21.3156V3.24376C16.7977 2.55342 16.2235 1.9999 15.5194 2ZM4.99228 5.80568V5.90136H4.84049V6.37973H4.21168V5.90136H4.00571V5.80568C3.52364 5.75401 3.15133 5.36643 3.12755 4.89145C3.13218 4.68998 3.20458 4.49565 3.33352 4.33868H3.39858L4.03824 3.55201C4.17372 3.41866 4.34788 3.32957 4.53693 3.29688C4.71287 3.28926 4.88195 3.3643 4.99228 3.49885L5.70782 4.31741C5.74091 4.34257 5.76703 4.37546 5.78369 4.41308C5.85449 4.56351 5.89499 4.72596 5.90297 4.89145C5.89204 5.38372 5.49387 5.78346 4.99228 5.80568ZM10.6407 14.4058L10.6298 14.3951C10.3718 14.382 10.1166 14.3355 9.87097 14.2569V15.32H10.4131V16.2661H8.40736V15.32H8.87352V14.2569C8.62924 14.3393 8.37296 14.3823 8.11464 14.3845C6.96281 14.4264 5.99332 13.5471 5.94631 12.4178C5.97788 12.024 6.12469 11.6475 6.36913 11.3335L6.45588 11.2591L8.76513 8.54839C9.09977 8.19614 9.66236 8.17661 10.0216 8.50474C10.037 8.5188 10.0518 8.53335 10.0661 8.54839L12.3646 11.2167C12.6522 11.5475 12.82 11.9624 12.8416 12.3967C12.7776 13.5374 11.8057 14.4245 10.6407 14.4058ZM14.7605 20.6351V20.7414H14.6087V21.2199H13.9799V20.7414H13.7739V20.6245C13.2868 20.5915 12.9058 20.1996 12.8958 19.7209C12.8964 19.5251 12.9697 19.3363 13.1018 19.1894L13.7414 18.424C13.8655 18.3082 14.0261 18.237 14.1967 18.2221C14.3737 18.2088 14.5454 18.285 14.652 18.424L15.3785 19.2212C15.4797 19.3812 15.5359 19.5646 15.5411 19.7528C15.5314 20.1929 15.2033 20.5636 14.7605 20.6351Z" fill="white"/>
<path d="M22.4471 13.6935L20.7992 11.8439L17.7527 18.2859V18.5198L22.3821 14.5227C22.6055 14.2981 22.6329 13.9489 22.4471 13.6935Z" fill="white"/>
</svg>
