<svg width="24" height="24" viewBox="0 0 24 24" fill="none" xmlns="http://www.w3.org/2000/svg">
<path d="M5.98948 3.01543C6.05195 3.01557 6.11441 3.01569 6.17687 3.01577C6.34035 3.01607 6.50381 3.01686 6.66727 3.01775C6.83446 3.01857 7.00164 3.01894 7.16882 3.01934C7.49616 3.0202 7.8235 3.02157 8.15083 3.02325C8.15399 3.09643 8.15399 3.09643 8.15723 3.17108C8.16035 3.23614 8.16349 3.3012 8.16665 3.36625C8.168 3.39828 8.16934 3.43031 8.17073 3.46331C8.19624 3.97075 8.34978 4.36752 8.72469 4.71726C8.98759 4.93167 9.29054 5.0325 9.62623 5.03389C9.67372 5.03418 9.72121 5.03447 9.77014 5.03476C9.82211 5.03487 9.87407 5.03498 9.92761 5.03509C9.98306 5.03534 10.0384 5.0356 10.0938 5.03589C10.2756 5.03673 10.4575 5.03715 10.6393 5.03754C10.7021 5.03771 10.7648 5.03788 10.8276 5.03804C11.1225 5.03881 11.4175 5.03938 11.7124 5.03971C12.0521 5.0401 12.3918 5.04116 12.7315 5.04277C12.9945 5.04399 13.2575 5.04458 13.5205 5.04471C13.6773 5.04481 13.8343 5.04516 13.9911 5.04617C14.1389 5.04711 14.2867 5.04728 14.4345 5.04687C14.514 5.04684 14.5934 5.0476 14.6728 5.0484C15.1764 5.04549 15.5508 4.90868 15.9165 4.56331C16.231 4.23001 16.2915 3.81091 16.3126 3.37158C16.3143 3.33806 16.3161 3.30454 16.3179 3.27001C16.3221 3.18776 16.3262 3.10551 16.3302 3.02325C16.687 3.01952 17.044 3.01668 17.4009 3.01495C17.5668 3.01411 17.7326 3.01299 17.8983 3.01115C18.0588 3.0094 18.2191 3.00845 18.3796 3.00804C18.4403 3.00775 18.5011 3.00718 18.5619 3.0063C19.1693 2.99792 19.643 3.09935 20.0887 3.53212C20.3603 3.82326 20.4648 4.16041 20.4653 4.55144C20.4654 4.58034 20.4655 4.60923 20.4656 4.63899C20.4659 4.73631 20.4659 4.83363 20.4658 4.93095C20.466 5.00122 20.4661 5.0715 20.4663 5.14178C20.4667 5.33531 20.4668 5.52884 20.4669 5.72237C20.467 5.93094 20.4674 6.13951 20.4678 6.34808C20.4686 6.85199 20.469 7.3559 20.4694 7.85982C20.4695 8.09708 20.4698 8.33433 20.47 8.57159C20.4707 9.36024 20.4713 10.1489 20.4715 10.9375C20.4715 11.1422 20.4716 11.3468 20.4717 11.5516C20.4717 11.6024 20.4717 11.6533 20.4718 11.7057C20.4721 12.5299 20.4731 13.3541 20.4745 14.1783C20.4758 15.0243 20.4765 15.8704 20.4766 16.7164C20.4767 17.1915 20.477 17.6666 20.4781 18.1416C20.479 18.5462 20.4793 18.9507 20.4789 19.3554C20.4787 19.5618 20.4788 19.7681 20.4796 19.9745C20.4803 20.1636 20.4803 20.3527 20.4796 20.5418C20.4795 20.61 20.4797 20.6783 20.4802 20.7466C20.4836 21.2682 20.422 21.6872 20.0728 22.0965C19.6562 22.5047 19.251 22.5615 18.6935 22.5601C18.6357 22.5603 18.5779 22.5605 18.5201 22.5607C18.3615 22.5612 18.2031 22.5612 18.0446 22.5611C17.8734 22.5611 17.7023 22.5615 17.5313 22.5619C17.1962 22.5625 16.8611 22.5627 16.526 22.5627C16.2536 22.5628 15.9811 22.563 15.7087 22.5632C14.936 22.5639 14.1634 22.5643 13.3907 22.5643C13.3491 22.5643 13.3074 22.5642 13.2645 22.5642C13.202 22.5642 13.202 22.5642 13.1382 22.5642C12.4625 22.5642 11.787 22.565 11.1114 22.5661C10.4174 22.5672 9.72337 22.5678 9.02938 22.5677C8.63987 22.5677 8.25037 22.5679 7.86085 22.5688C7.5292 22.5695 7.19755 22.5697 6.86589 22.5692C6.69677 22.5689 6.52766 22.5689 6.35854 22.5696C6.20351 22.5702 6.0485 22.5701 5.89347 22.5694C5.83759 22.5693 5.7817 22.5694 5.72583 22.5699C5.2308 22.5736 4.85139 22.4824 4.4712 22.1566C4.12321 21.8122 4.00938 21.4273 4.00502 20.9478C4.00479 20.8511 4.00516 20.7544 4.00553 20.6577C4.00537 20.5872 4.00514 20.5168 4.00488 20.4464C4.0043 20.2533 4.00447 20.0601 4.00476 19.8671C4.00496 19.6586 4.00445 19.4503 4.00405 19.2418C4.00335 18.8337 4.00332 18.4255 4.00353 18.0174C4.00369 17.6857 4.00363 17.3539 4.00342 17.0221C4.00339 16.9749 4.00336 16.9277 4.00333 16.879C4.00326 16.783 4.0032 16.6871 4.00314 16.5911C4.0026 15.6915 4.00281 14.7919 4.00327 13.8923C4.00366 13.0694 4.00315 12.2464 4.00219 11.4236C4.00122 10.5785 4.00082 9.73333 4.0011 8.8882C4.00123 8.4138 4.00115 7.93941 4.00044 7.46501C3.99985 7.06116 3.99982 6.65732 4.00053 6.25347C4.00086 6.04749 4.00095 5.8415 4.00034 5.63552C3.99978 5.4468 3.99997 5.2581 4.00074 5.0694C4.0009 5.00127 4.00078 4.93315 4.00036 4.86502C3.99714 4.30029 4.0794 3.85185 4.48859 3.43689C4.92916 3.03446 5.41881 3.01139 5.98948 3.01543ZM7.21612 8.40096C7.12177 8.56173 7.11129 8.69503 7.14847 8.87709C7.21666 9.00902 7.30572 9.09585 7.43963 9.16342C7.66127 9.23292 7.898 9.21094 8.12828 9.21037C8.20708 9.21134 8.20708 9.21134 8.28748 9.21233C8.36365 9.21237 8.36365 9.21237 8.44137 9.21241C8.51063 9.21259 8.51063 9.21259 8.58129 9.21277C8.7762 9.19054 8.90742 9.12287 9.04545 8.98485C9.12421 8.85941 9.15024 8.78478 9.1532 8.63652C9.10665 8.46778 9.06222 8.38002 8.92673 8.2683C8.70711 8.15025 8.4537 8.17314 8.21105 8.17677C8.12569 8.17794 8.04043 8.1776 7.95506 8.17708C7.64673 8.17848 7.4515 8.18467 7.21612 8.40096ZM10.316 8.35585C10.2314 8.49867 10.1957 8.59344 10.1957 8.75931C10.2572 8.94009 10.3546 9.076 10.527 9.16399C10.6557 9.20371 10.7634 9.20806 10.8981 9.2083C10.9775 9.20873 10.9775 9.20873 11.0585 9.20916C11.1168 9.20907 11.1751 9.20896 11.2335 9.20885C11.2951 9.20903 11.3568 9.20924 11.4185 9.20948C11.5858 9.21002 11.753 9.21004 11.9203 9.20994C12.0599 9.20989 12.1996 9.21009 12.3393 9.21028C12.6689 9.21072 12.9985 9.21074 13.328 9.2105C13.6679 9.21026 14.0078 9.21075 14.3477 9.21161C14.6396 9.21231 14.9316 9.21256 15.2235 9.21243C15.3979 9.21235 15.5721 9.21246 15.7465 9.21302C15.9104 9.21352 16.0743 9.21344 16.2382 9.21292C16.2984 9.21282 16.3584 9.21293 16.4186 9.21326C16.5007 9.21368 16.5828 9.21336 16.665 9.21285C16.7109 9.21286 16.7569 9.21286 16.8042 9.21287C16.9943 9.19045 17.1259 9.119 17.2674 8.99236C17.3587 8.83073 17.3743 8.6975 17.3326 8.51624C17.2393 8.35901 17.1463 8.2537 16.9717 8.19547C16.8869 8.19146 16.8019 8.18989 16.7171 8.18958C16.6912 8.18943 16.6652 8.18928 16.6385 8.18913C16.5514 8.18868 16.4643 8.18853 16.3772 8.18838C16.3149 8.18813 16.2525 8.18786 16.1901 8.18758C15.9852 8.18674 15.7802 8.18632 15.5753 8.18592C15.5047 8.18576 15.4341 8.1856 15.3635 8.18543C15.0319 8.18467 14.7004 8.18409 14.3688 8.18376C13.9861 8.18337 13.6034 8.18231 13.2208 8.18069C12.9249 8.17949 12.6291 8.17889 12.3332 8.17875C12.1565 8.17866 11.9799 8.1783 11.8032 8.17729C11.637 8.17636 11.4708 8.1762 11.3044 8.17661C11.2435 8.17663 11.1827 8.17637 11.1218 8.17582C10.6899 8.16498 10.6899 8.16498 10.316 8.35585ZM7.22865 11.4431C7.11946 11.6033 7.11732 11.7772 7.14847 11.9643C7.2181 12.1115 7.31296 12.1908 7.46531 12.2509C7.68308 12.3073 7.90744 12.2967 8.13079 12.2951C8.17497 12.2955 8.21917 12.2958 8.2647 12.2961C8.68203 12.3008 8.68203 12.3008 9.02791 12.0947C9.11767 11.9574 9.1532 11.887 9.1532 11.7238C9.10424 11.5568 9.06183 11.4669 8.92681 11.3559C8.76825 11.2697 8.66752 11.2621 8.48787 11.2614C8.45942 11.2613 8.43096 11.2611 8.40165 11.261C8.3418 11.2609 8.28196 11.2611 8.22212 11.2618C8.13101 11.2627 8.04004 11.2618 7.94895 11.2608C7.89053 11.2609 7.83211 11.2611 7.77369 11.2614C7.72105 11.2616 7.66841 11.2618 7.61417 11.262C7.44667 11.286 7.35971 11.3381 7.22865 11.4431ZM10.316 11.4431C10.2216 11.5801 10.1957 11.6575 10.1957 11.8241C10.245 11.9968 10.3051 12.0824 10.4362 12.2049C10.6219 12.2704 10.7855 12.2952 10.9817 12.2953C11.0332 12.2955 11.0848 12.2958 11.138 12.296C11.1944 12.2958 11.251 12.2957 11.3075 12.2955C11.3674 12.2956 11.4275 12.2958 11.4875 12.2959C11.6499 12.2963 11.8124 12.2962 11.9748 12.2959C12.1452 12.2957 12.3154 12.2959 12.4857 12.296C12.7717 12.2962 13.0576 12.296 13.3436 12.2956C13.6738 12.2951 14.004 12.2953 14.3342 12.2957C14.6182 12.2961 14.902 12.2961 15.186 12.2959C15.3554 12.2958 15.5248 12.2958 15.6942 12.2961C15.8535 12.2963 16.0127 12.2961 16.1721 12.2957C16.2304 12.2955 16.2888 12.2956 16.347 12.2958C16.4269 12.296 16.5068 12.2957 16.5866 12.2953C16.6535 12.2952 16.6535 12.2952 16.7218 12.2952C16.9341 12.2787 17.0883 12.2432 17.2498 12.1022C17.3483 11.9696 17.3568 11.8501 17.3468 11.6882C17.3191 11.524 17.2569 11.4358 17.1242 11.3385C16.9883 11.2711 16.8956 11.2675 16.7442 11.2672C16.7179 11.267 16.6915 11.2668 16.6643 11.2665C16.5763 11.266 16.4883 11.2663 16.4002 11.2665C16.3371 11.2663 16.2738 11.266 16.2105 11.2657C16.039 11.2651 15.8675 11.2651 15.6959 11.2653C15.5526 11.2655 15.4092 11.2652 15.266 11.265C14.928 11.2644 14.59 11.2645 14.2518 11.2649C13.9032 11.2654 13.5546 11.2648 13.206 11.2637C12.9066 11.2628 12.6071 11.2625 12.3077 11.2628C12.1289 11.2629 11.9501 11.2628 11.7713 11.2621C11.6032 11.2615 11.435 11.2616 11.2669 11.2624C11.2053 11.2626 11.1436 11.2624 11.082 11.262C10.9977 11.2615 10.9134 11.2619 10.8292 11.2627C10.7821 11.2627 10.7349 11.2627 10.6864 11.2627C10.5275 11.2873 10.441 11.3437 10.316 11.4431ZM7.22865 14.5304C7.11523 14.7006 7.1223 14.8519 7.14847 15.0517C7.23341 15.1973 7.31345 15.2722 7.46922 15.3324C7.56962 15.341 7.66545 15.3455 7.76586 15.3458C7.79443 15.3461 7.823 15.3464 7.85244 15.3467C7.91276 15.347 7.97308 15.3472 8.0334 15.3472C8.1252 15.3473 8.21693 15.3488 8.30871 15.3504C8.36749 15.3506 8.42627 15.3508 8.48506 15.3509C8.51226 15.3514 8.53946 15.3519 8.56747 15.3525C8.76707 15.3507 8.87933 15.2968 9.03291 15.172C9.12859 15.0331 9.15366 14.9577 9.15069 14.7885C9.10352 14.6155 9.03621 14.5059 8.88559 14.4055C8.75648 14.3564 8.63199 14.357 8.49571 14.3566C8.46714 14.3564 8.43857 14.3561 8.40913 14.3558C8.34881 14.3554 8.28849 14.3552 8.22816 14.3552C8.13637 14.3551 8.04465 14.3536 7.95287 14.352C7.89408 14.3518 7.83529 14.3517 7.77651 14.3516C7.74931 14.351 7.72212 14.3505 7.69409 14.3499C7.49449 14.3517 7.38205 14.4053 7.22865 14.5304ZM10.316 14.5304C10.2203 14.6693 10.1952 14.7447 10.1982 14.9139C10.2455 15.0874 10.3129 15.1982 10.4654 15.2971C10.5868 15.3441 10.689 15.3427 10.8193 15.343C10.8588 15.3433 10.8588 15.3433 10.899 15.3436C10.9872 15.3441 11.0753 15.344 11.1635 15.344C11.2267 15.3442 11.2899 15.3445 11.3532 15.3448C11.5249 15.3455 11.6966 15.3457 11.8684 15.3458C12.0118 15.3459 12.1552 15.3462 12.2985 15.3464C12.6368 15.347 12.9751 15.3472 13.3134 15.3472C13.6623 15.3471 14.0112 15.348 14.3602 15.3493C14.6597 15.3503 14.9594 15.3508 15.259 15.3507C15.4379 15.3507 15.6168 15.3509 15.7958 15.3517C15.9641 15.3525 16.1323 15.3525 16.3006 15.3519C16.3623 15.3518 16.424 15.352 16.4858 15.3525C16.5702 15.3531 16.6544 15.3528 16.7389 15.3521C16.7861 15.3522 16.8332 15.3522 16.8818 15.3523C17.041 15.3278 17.1273 15.2718 17.2523 15.172C17.3658 15.0019 17.3587 14.8505 17.3326 14.6507C17.2475 14.5049 17.1672 14.4312 17.0118 14.3701C16.8882 14.3577 16.8882 14.3577 16.749 14.3594C16.7096 14.3591 16.7096 14.3591 16.6692 14.3588C16.5811 14.3583 16.493 14.3583 16.4048 14.3584C16.3416 14.3582 16.2784 14.3579 16.2151 14.3576C16.0434 14.3569 15.8717 14.3567 15.7 14.3566C15.5566 14.3565 15.4132 14.3563 15.2698 14.356C14.9315 14.3554 14.5932 14.3552 14.2549 14.3552C13.906 14.3553 13.5571 14.3544 13.2082 14.3531C12.9085 14.3521 12.6089 14.3517 12.3093 14.3517C12.1304 14.3517 11.9514 14.3516 11.7726 14.3507C11.6043 14.3499 11.436 14.3499 11.2676 14.3505C11.2059 14.3506 11.1442 14.3504 11.0825 14.3499C10.9981 14.3492 10.9138 14.3496 10.8295 14.3503C10.7823 14.3502 10.735 14.3502 10.6865 14.3501C10.5275 14.3746 10.441 14.4309 10.316 14.5304ZM7.23116 17.6002C7.1327 17.7328 7.12415 17.8523 7.13422 18.0141C7.16167 18.1774 7.22386 18.2657 7.35475 18.3637C7.56622 18.467 7.80531 18.4388 8.03643 18.4376C8.12788 18.4372 8.21923 18.4383 8.31067 18.4396C8.36926 18.4397 8.42787 18.4396 8.48647 18.4395C8.53937 18.4396 8.59226 18.4397 8.64676 18.4397C8.81628 18.4163 8.9017 18.3674 9.03291 18.2593C9.11462 18.117 9.1532 18.0201 9.1532 17.8558C9.0999 17.6992 9.03215 17.6118 8.91264 17.4975C8.65738 17.3956 8.40253 17.4053 8.13079 17.4073C8.08659 17.4069 8.04241 17.4066 7.99688 17.4063C7.58243 17.4039 7.58243 17.4039 7.23116 17.6002ZM10.321 17.6053C10.2252 17.7544 10.1957 17.8418 10.1957 18.0187C10.2657 18.229 10.3661 18.3126 10.5565 18.4196C10.687 18.4434 10.687 18.4434 10.8271 18.44C10.8533 18.4403 10.8795 18.4405 10.9066 18.4408C10.9937 18.4414 11.081 18.4409 11.1683 18.4404C11.2311 18.4406 11.2939 18.4409 11.3566 18.4413C11.5268 18.442 11.6969 18.4417 11.8671 18.4412C12.0454 18.4408 12.2236 18.4412 12.4019 18.4414C12.7013 18.4417 13.0007 18.4413 13.3001 18.4406C13.6459 18.4397 13.9918 18.4399 14.3375 18.4408C14.6347 18.4416 14.9319 18.4417 15.2291 18.4413C15.4065 18.441 15.5839 18.441 15.7613 18.4415C15.9281 18.442 16.0949 18.4417 16.2617 18.4407C16.3229 18.4405 16.384 18.4406 16.4451 18.4409C16.8768 18.449 16.8768 18.449 17.2523 18.2593C17.3641 18.1027 17.3633 17.9232 17.3326 17.738C17.279 17.625 17.2307 17.5835 17.132 17.4975C16.9462 17.4325 16.7828 17.4072 16.5866 17.4071C16.535 17.4069 16.4834 17.4066 16.4303 17.4064C16.3738 17.4066 16.3174 17.4067 16.2609 17.4069C16.2008 17.4068 16.1408 17.4066 16.0808 17.4065C15.9183 17.4061 15.7559 17.4062 15.5934 17.4065C15.4232 17.4067 15.2528 17.4065 15.0826 17.4064C14.7966 17.4062 14.5106 17.4064 14.2247 17.4068C13.8945 17.4073 13.5642 17.4071 13.234 17.4067C12.9501 17.4063 12.6662 17.4062 12.3823 17.4065C12.2129 17.4066 12.0435 17.4066 11.874 17.4063C11.7148 17.4061 11.5555 17.4063 11.3962 17.4067C11.3379 17.4068 11.2796 17.4068 11.2213 17.4066C11.1413 17.4064 11.0615 17.4067 10.9817 17.4071C10.9147 17.4071 10.9147 17.4071 10.8464 17.4072C10.632 17.4238 10.4797 17.4569 10.321 17.6053Z" fill="white"/>
<path d="M9.70162 2.01012C9.74805 2.00979 9.79448 2.00944 9.84232 2.00909C9.89309 2.00912 9.94393 2.00916 9.99623 2.0092C10.0504 2.00895 10.1045 2.00869 10.1586 2.00838C10.3056 2.00767 10.4526 2.00748 10.5995 2.00743C10.6914 2.00738 10.7832 2.00721 10.8751 2.00699C11.1957 2.00625 11.5162 2.00593 11.8368 2.00598C12.1354 2.00603 12.434 2.00519 12.7326 2.00392C12.9892 2.00287 13.2457 2.00244 13.5023 2.0025C13.6555 2.00252 13.8086 2.00228 13.9618 2.00144C14.1058 2.00066 14.2499 2.00066 14.3939 2.00123C14.4719 2.00136 14.5498 2.0007 14.6276 2C14.8847 2.00185 15.0544 2.00311 15.2476 2.18122C15.3552 2.32123 15.3406 2.48605 15.3412 2.65578C15.3416 2.70131 15.3416 2.70131 15.342 2.74775C15.3424 2.81185 15.3426 2.87595 15.3426 2.94005C15.3428 3.03765 15.3443 3.13518 15.3457 3.23278C15.346 3.29521 15.3461 3.35765 15.3462 3.42009C15.3468 3.44904 15.3474 3.47799 15.348 3.50782C15.3461 3.71321 15.3046 3.83269 15.1674 3.98548C14.9106 4.13349 14.6643 4.12281 14.3735 4.12133C14.3222 4.12155 14.271 4.12176 14.2183 4.12197C14.0784 4.12252 13.9386 4.12231 13.7988 4.12193C13.652 4.12162 13.5054 4.1219 13.3587 4.1221C13.1123 4.12231 12.8661 4.12203 12.6197 4.12145C12.3354 4.1208 12.0511 4.12101 11.7668 4.12168C11.5222 4.12222 11.2777 4.12229 11.0331 4.12198C10.8872 4.12179 10.7413 4.12177 10.5954 4.12217C10.4327 4.12258 10.2701 4.122 10.1074 4.12133C10.0594 4.12158 10.0113 4.12182 9.96185 4.12207C9.71536 4.1202 9.52907 4.10979 9.31352 3.98548C9.15497 3.80839 9.12923 3.65315 9.13184 3.42291C9.13168 3.39267 9.13154 3.36244 9.13138 3.33128C9.13127 3.26766 9.13155 3.20404 9.13223 3.14043C9.13309 3.04352 9.13224 2.94673 9.13121 2.84984C9.13132 2.78777 9.13153 2.72568 9.13184 2.66361C9.13152 2.63491 9.13119 2.60621 9.13086 2.57665C9.13462 2.37347 9.18282 2.25568 9.31352 2.10104C9.44359 2.01737 9.54863 2.01063 9.70162 2.01012Z" fill="white"/>
</svg>
