<svg width="24" height="24" viewBox="0 0 24 24" fill="none" xmlns="http://www.w3.org/2000/svg">
<path d="M5.03765 12.891H2C2.13387 15.2142 3.03585 17.3918 4.58387 19.1291L6.73431 16.9786C5.78331 15.8557 5.16622 14.4417 5.03765 12.891Z" fill="white"/>
<path d="M6.73431 7.59143L4.58387 5.44098C3.03585 7.17833 2.13387 9.35586 2 11.679H5.03765C5.16622 10.1283 5.78331 8.71431 6.73431 7.59143Z" fill="white"/>
<path d="M19.5321 11.679H22.5698C22.4359 9.35593 21.534 7.17833 19.9859 5.44098L17.8354 7.59147C18.7864 8.71431 19.4036 10.1283 19.5321 11.679Z" fill="white"/>
<path d="M12.285 11.6789C11.9508 11.6789 11.679 11.9508 11.679 12.285C11.7094 13.0879 12.8608 13.0877 12.8911 12.285C12.8911 11.9508 12.6193 11.6789 12.285 11.6789Z" fill="white"/>
<path d="M18.3458 12.2849C18.3458 8.9431 15.627 6.22427 12.2852 6.22427C4.25589 6.52897 4.25807 18.0421 12.2853 18.3456C15.627 18.3456 18.3458 15.6268 18.3458 12.2849ZM15.9216 12.8909H13.9992C13.8162 13.4067 13.407 13.8159 12.8912 13.9989V15.9213H11.6791V13.9989C11.1633 13.8159 10.7541 13.4067 10.5712 12.8909H8.64874V11.6788H10.5712C10.7541 11.1632 11.1633 10.7539 11.6791 10.5709V8.64854H12.8912V10.5709C13.407 10.7539 13.8162 11.1632 13.9992 11.6788H15.9216V12.8909Z" fill="white"/>
<path d="M11.6789 5.03761V2C9.35588 2.13386 7.17833 3.03581 5.44098 4.58382L7.59142 6.73431C8.7143 5.78327 10.1282 5.16617 11.6789 5.03761Z" fill="white"/>
<path d="M19.1291 4.58387C17.3918 3.03585 15.2142 2.13386 12.8911 2V5.03765C14.4418 5.16622 15.8558 5.78331 16.9786 6.73431L19.1291 4.58387Z" fill="white"/>
<path d="M12.8911 19.5324V22.57C15.2142 22.4361 17.3918 21.5342 19.1291 19.9862L16.9786 17.8357C15.8558 18.7867 14.4418 19.4038 12.8911 19.5324Z" fill="white"/>
<path d="M5.44098 19.9861C7.17833 21.5342 9.35588 22.4361 11.6789 22.57V19.5323C10.1282 19.4037 8.7143 18.7866 7.59142 17.8357L5.44098 19.9861Z" fill="white"/>
<path d="M17.8354 16.9786L19.9859 19.1291C21.534 17.3918 22.4359 15.2141 22.5698 12.891H19.5321C19.4036 14.4417 18.7864 15.8557 17.8354 16.9786Z" fill="white"/>
</svg>
