<svg width="24" height="24" viewBox="0 0 24 24" fill="none" xmlns="http://www.w3.org/2000/svg">
<path d="M12.0732 7.56981C13.384 7.53473 14.6094 7.98426 15.5736 8.88038C16.3761 9.65728 16.952 10.7855 16.9938 11.9133C16.996 11.966 16.9981 12.0188 17.0003 12.0732C17.0354 13.384 16.5859 14.6094 15.6897 15.5736C14.8299 16.4618 13.6388 16.9707 12.4058 17.0028C11.1027 17.0213 9.87458 16.5397 8.93565 15.6308C8.16832 14.857 7.61711 13.7572 7.57629 12.6568C7.57417 12.604 7.57203 12.5513 7.56984 12.4969C7.53476 11.1861 7.98429 9.96075 8.8804 8.99652C9.71719 8.13211 10.8728 7.61827 12.0732 7.56981ZM9.04779 9.37045C8.86982 9.58472 8.83819 9.79156 8.84368 10.0634C8.8748 10.3374 9.0173 10.5427 9.2285 10.7155C9.45527 10.8671 9.65939 10.9185 9.9307 10.8807C9.98419 10.8595 10.0375 10.838 10.0908 10.8162C10.1713 10.7926 10.1713 10.7926 10.2611 10.798C10.5131 10.9523 10.7154 11.1674 10.922 11.3764C10.9016 11.4257 10.8811 11.4752 10.8601 11.526C10.7358 11.9035 10.7503 12.2917 10.9232 12.6492C10.9699 12.7541 11.0005 12.8303 11.0046 12.9459C10.9284 13.0449 10.9284 13.0449 10.8187 13.1447C10.6559 13.2975 10.5062 13.4522 10.3633 13.6236C10.3024 13.6894 10.3024 13.6894 10.1785 13.7721C10.0959 13.7445 10.0133 13.7169 9.9307 13.6894C9.65879 13.6531 9.45588 13.7025 9.2285 13.8546C9.01738 14.0273 8.87998 14.2306 8.84077 14.5023C8.83038 14.761 8.86509 14.9668 9.02198 15.1764C9.19446 15.36 9.36836 15.485 9.62266 15.5222C9.91719 15.5295 10.1472 15.4812 10.385 15.3003C10.5604 15.0968 10.6802 14.8969 10.6794 14.6239C10.6794 14.593 10.6795 14.5619 10.6796 14.53C10.6783 14.4305 10.6783 14.4305 10.6403 14.3315C10.6328 14.2264 10.6328 14.2264 10.718 14.1184C10.7581 14.0817 10.7982 14.0449 10.8394 14.0069C10.8816 13.9673 10.9237 13.9274 10.9658 13.8875C10.9865 13.8681 11.0072 13.8487 11.0286 13.8286C11.1335 13.7274 11.2268 13.6168 11.321 13.5059C11.3648 13.455 11.4114 13.4065 11.459 13.359C11.5988 13.3756 11.7263 13.4193 11.8591 13.4648C12.2748 13.5889 12.5883 13.5101 12.9873 13.359C13.0281 13.3454 13.0691 13.3317 13.1112 13.3177C13.1372 13.3441 13.1631 13.3706 13.1899 13.3979C13.3819 13.5919 13.5747 13.7804 13.7848 13.955C13.8621 14.0267 13.9228 14.0954 13.9786 14.185C13.9534 14.2684 13.9254 14.351 13.896 14.4329C13.8553 14.6911 13.9084 14.8943 14.0321 15.1225C14.1676 15.3058 14.3564 15.4066 14.5569 15.5068C14.8627 15.5355 15.1321 15.533 15.3829 15.3416C15.5668 15.1685 15.6943 14.9942 15.7273 14.738C15.7321 14.4059 15.6647 14.2035 15.4552 13.9476C15.2247 13.7589 15.0298 13.6691 14.7294 13.6796C14.6361 13.6864 14.6361 13.6864 14.5388 13.7238C14.433 13.7307 14.433 13.7307 14.325 13.6455C14.2698 13.5855 14.2698 13.5855 14.2135 13.5242C14.1738 13.4819 14.134 13.4397 14.0941 13.3975C14.0747 13.3767 14.0552 13.356 14.0351 13.3346C13.9349 13.2314 13.824 13.1412 13.7125 13.0506C13.638 12.9773 13.598 12.9217 13.5655 12.822C13.5921 12.7394 13.5921 12.7394 13.6404 12.6568C13.8202 12.3426 13.8192 11.9685 13.7443 11.6184C13.7153 11.5224 13.6843 11.4285 13.6482 11.335C13.7281 11.261 13.8081 11.1869 13.8883 11.1131C13.9108 11.092 13.9334 11.071 13.9567 11.0495C14.057 10.957 14.1539 10.8739 14.2677 10.798C14.348 10.808 14.348 10.808 14.4381 10.8342C14.7425 10.9092 14.9893 10.9234 15.2681 10.7646C15.4875 10.6179 15.634 10.4293 15.7134 10.1785C15.7504 9.92176 15.7347 9.69414 15.6034 9.46742C15.4326 9.23918 15.2236 9.08843 14.9384 9.04647C14.6145 9.03609 14.3911 9.09589 14.1438 9.31108C14.028 9.45271 13.9537 9.59237 13.896 9.76543C13.9014 9.80244 13.9067 9.83948 13.9123 9.87759C13.9569 10.222 13.9569 10.222 13.8407 10.3753C13.6652 10.5527 13.4588 10.7275 13.2351 10.8394C13.1707 10.8025 13.1707 10.8025 13.0931 10.7464C12.8138 10.5645 12.454 10.4557 12.1198 10.5089C11.818 10.5823 11.5592 10.68 11.2937 10.8394C11.2371 10.7909 11.2371 10.7909 11.1792 10.7414C11.1296 10.6992 11.08 10.657 11.0304 10.6148C11.0055 10.5934 10.9806 10.5722 10.9549 10.5501C10.8227 10.4351 10.8227 10.4351 10.6742 10.3437C10.6778 10.2883 10.6778 10.2883 10.6814 10.2317C10.6939 9.89532 10.6841 9.6229 10.4677 9.35238C10.1996 9.12641 9.99359 9.0478 9.64607 9.05195C9.38686 9.07475 9.22054 9.18026 9.04779 9.37045Z" fill="white"/>
<path d="M19.7199 5.26307C19.8897 5.34023 19.9914 5.45258 20.1097 5.59351C20.1419 5.63176 20.1419 5.63176 20.1749 5.67079C20.6573 6.25112 21.0598 6.86864 21.4134 7.53485C21.4316 7.56883 21.4497 7.60281 21.4684 7.63783C22.1843 8.99932 22.4803 10.4719 22.57 11.9958C21.7385 11.9958 20.907 11.9958 20.0504 11.9958C19.9958 11.6005 19.9412 11.2052 19.8851 10.7979C19.5582 9.36398 18.9506 8.14782 17.985 7.03918C18.1735 6.81312 18.3736 6.60385 18.5824 6.39654C18.6151 6.36394 18.6477 6.33134 18.6814 6.29777C18.7847 6.19457 18.8884 6.09153 18.9919 5.98849C19.0624 5.91817 19.1329 5.84785 19.2034 5.77752C19.3755 5.60593 19.5477 5.43446 19.7199 5.26307Z" fill="white"/>
<path d="M4.76744 5.26307C4.90622 5.32332 4.99676 5.39973 5.10308 5.50673C5.13615 5.5398 5.16921 5.57287 5.20328 5.60694C5.23856 5.64265 5.27386 5.67837 5.31021 5.71517C5.34664 5.75172 5.38308 5.78828 5.42063 5.82594C5.5172 5.9229 5.61359 6.02002 5.7099 6.11725C5.80832 6.21652 5.90698 6.31555 6.00562 6.41461C6.19891 6.60881 6.39198 6.80326 6.58486 6.99788C6.54571 7.05024 6.50655 7.10259 6.46737 7.15492C6.44557 7.18408 6.42376 7.21323 6.40129 7.24326C6.34638 7.31595 6.2907 7.38781 6.23409 7.45917C5.99636 7.76042 5.78402 8.06839 5.59353 8.40225C5.57869 8.428 5.56384 8.45374 5.54854 8.48026C4.91642 9.58709 4.66742 10.7395 4.51961 11.9958C3.68813 11.9958 2.85667 11.9958 2 11.9958C2.17385 9.73564 2.78686 7.60494 4.27178 5.84134C4.29259 5.81639 4.31342 5.79143 4.33486 5.76573C4.68894 5.34157 4.68894 5.34157 4.76744 5.26307Z" fill="white"/>
<path d="M20.0504 12.5741C20.8818 12.5741 21.7133 12.5741 22.57 12.5741C22.3687 15.1897 21.5359 17.3399 19.8025 19.3068C19.6637 19.2465 19.5731 19.1701 19.4669 19.0631C19.4338 19.03 19.4007 18.997 19.3667 18.9629C19.3314 18.9272 19.2961 18.8915 19.2597 18.8547C19.2233 18.8181 19.1868 18.7816 19.1493 18.7439C19.0527 18.6469 18.9563 18.5499 18.8601 18.4526C18.7616 18.3534 18.663 18.2543 18.5643 18.1552C18.371 17.9611 18.178 17.7666 17.985 17.572C18.0243 17.5194 18.0636 17.4668 18.1029 17.4143C18.1248 17.385 18.1467 17.3557 18.1692 17.3257C18.2216 17.2564 18.2757 17.1884 18.33 17.1208C19.4168 15.769 19.8287 14.2735 20.0504 12.5741Z" fill="white"/>
<path d="M12.5742 2C13.8326 2.09681 13.8326 2.09681 14.2056 2.17039C14.2511 2.17912 14.2964 2.18787 14.3433 2.19688C15.9573 2.52389 17.4476 3.24401 18.7286 4.27178C18.7659 4.30132 18.7659 4.30132 18.804 4.33145C18.88 4.39187 18.9554 4.45302 19.0307 4.51445C19.0542 4.53312 19.0777 4.55181 19.102 4.57106C19.1669 4.62513 19.1669 4.62513 19.2655 4.72613C19.2655 4.89135 19.2655 4.89135 19.2013 4.97552C19.1711 5.00523 19.1411 5.03495 19.1101 5.06557C19.0762 5.09946 19.0423 5.13335 19.0073 5.16827C18.9703 5.20447 18.9333 5.24065 18.8951 5.27794C18.8575 5.3153 18.8199 5.35265 18.7812 5.39113C18.6813 5.49038 18.581 5.58911 18.4805 5.68774C18.378 5.78851 18.276 5.88974 18.1741 5.99093C17.9739 6.18937 17.7731 6.38728 17.5721 6.58486C17.5197 6.54571 17.4673 6.50655 17.415 6.46737C17.3859 6.44557 17.3567 6.42376 17.3267 6.40129C17.254 6.34638 17.1821 6.2907 17.1107 6.23409C16.8095 5.9964 16.502 5.78302 16.1676 5.59353C16.1388 5.57714 16.1099 5.56073 16.0802 5.54382C14.9499 4.90849 13.8774 4.69938 12.5742 4.51961C12.5742 3.68813 12.5742 2.85667 12.5742 2Z" fill="white"/>
<path d="M2 12.5741C2.83147 12.5741 3.66294 12.5741 4.51961 12.5741C4.57413 12.9693 4.62865 13.3647 4.68482 13.772C5.01174 15.2059 5.61933 16.422 6.58486 17.5307C6.39644 17.7567 6.19628 17.966 5.98754 18.1733C5.93857 18.2222 5.93857 18.2222 5.88859 18.2721C5.78518 18.3753 5.68161 18.4784 5.57805 18.5814C5.50753 18.6517 5.43702 18.722 5.36652 18.7923C5.19448 18.9639 5.02231 19.1354 4.85005 19.3068C4.68021 19.2296 4.57856 19.1173 4.46023 18.9763C4.43872 18.9509 4.41721 18.9253 4.39504 18.8991C2.88436 17.0817 2.13776 14.916 2 12.5741Z" fill="white"/>
<path d="M17.5307 17.9851C17.7568 18.1735 17.966 18.3736 18.1734 18.5824C18.2223 18.6314 18.2223 18.6314 18.2721 18.6814C18.3754 18.7847 18.4784 18.8884 18.5815 18.9919C18.6518 19.0624 18.722 19.133 18.7923 19.2034C18.964 19.3755 19.1355 19.5477 19.3069 19.7199C19.2297 19.8897 19.1173 19.9914 18.9764 20.1097C18.9509 20.1312 18.9254 20.1527 18.8991 20.1749C17.0838 21.6839 14.9144 22.4323 12.5742 22.57C12.5742 21.7385 12.5742 20.907 12.5742 20.0504C12.9694 19.9958 13.3647 19.9413 13.772 19.8851C15.2059 19.5582 16.4221 18.9506 17.5307 17.9851Z" fill="white"/>
<path d="M11.9958 2C11.9958 2.83147 11.9958 3.66294 11.9958 4.51961C11.6005 4.57413 11.2052 4.62865 10.7979 4.68482C9.36397 5.01174 8.14781 5.61933 7.03917 6.58486C6.81311 6.39644 6.60384 6.19628 6.39653 5.98754C6.36393 5.9549 6.33134 5.92224 6.29776 5.88859C6.19456 5.78518 6.09152 5.68161 5.98848 5.57805C5.91816 5.50753 5.84784 5.43702 5.77752 5.36652C5.60592 5.19448 5.43445 5.02231 5.26306 4.85005C5.34022 4.68021 5.45257 4.57856 5.5935 4.46023C5.63175 4.42796 5.63175 4.42796 5.67078 4.39504C7.41525 2.94495 9.70787 2 11.9958 2Z" fill="white"/>
<path d="M6.99787 17.9851C7.05045 18.0243 7.103 18.0636 7.15555 18.1029C7.19945 18.1357 7.19945 18.1357 7.24425 18.1692C7.31342 18.2216 7.38139 18.2757 7.449 18.3301C8.78803 19.4064 10.3115 19.8522 11.9958 20.0504C11.9958 20.8818 11.9958 21.7133 11.9958 22.57C10.7456 22.4738 10.7456 22.4738 10.3797 22.397C10.336 22.3881 10.2922 22.3792 10.2471 22.3701C8.92636 22.0922 7.59951 21.5939 6.50221 20.7938C6.46498 20.767 6.46498 20.767 6.427 20.7396C6.02206 20.4461 5.63815 20.1331 5.26306 19.8026C5.32331 19.6638 5.39972 19.5732 5.50672 19.4669C5.55632 19.4173 5.55632 19.4173 5.60693 19.3667C5.64265 19.3314 5.67836 19.2962 5.71516 19.2597C5.75171 19.2233 5.78827 19.1868 5.82593 19.1493C5.92289 19.0527 6.02001 18.9564 6.11724 18.8601C6.21651 18.7616 6.31555 18.663 6.4146 18.5644C6.6088 18.371 6.80325 18.178 6.99787 17.9851Z" fill="white"/>
<path d="M8.77493 16.2594C8.89977 16.3086 8.9943 16.3953 9.0966 16.48C9.38097 16.7083 9.68726 16.8737 10.013 17.035C9.98493 17.2075 9.92998 17.3592 9.86514 17.5212C9.85456 17.5476 9.84398 17.5741 9.83313 17.6013C9.81082 17.657 9.78843 17.7128 9.76595 17.7684C9.73199 17.8526 9.69837 17.937 9.66479 18.0213C9.55714 18.2902 9.44645 18.5548 9.31087 18.8112C8.7324 18.5355 8.20257 18.2331 7.71256 17.8176C7.62784 17.7461 7.54155 17.6788 7.45215 17.6133C7.47619 17.4821 7.51227 17.4135 7.60548 17.3187C7.62892 17.2946 7.65237 17.2705 7.67653 17.2457C7.70199 17.2202 7.72747 17.1947 7.75371 17.1684C7.77985 17.142 7.80598 17.1155 7.83292 17.0883C7.8882 17.0326 7.94366 16.977 7.99927 16.9216C8.08447 16.8364 8.16875 16.7504 8.253 16.6644C8.30681 16.6103 8.36067 16.5563 8.41459 16.5025C8.45241 16.4636 8.45241 16.4636 8.49101 16.4239C8.66993 16.2479 8.66993 16.2479 8.77493 16.2594Z" fill="white"/>
<path d="M6.95663 7.45216C7.07398 7.50536 7.15733 7.56053 7.24674 7.65304C7.26932 7.67607 7.29189 7.6991 7.31515 7.72282C7.33826 7.74681 7.36137 7.7708 7.38517 7.79551C7.5186 7.93315 7.64999 8.06721 7.79984 8.1871C7.83509 8.21719 7.87034 8.24727 7.90665 8.27827C7.90665 8.30553 7.90665 8.33279 7.90665 8.36087C7.92881 8.36939 7.95095 8.37792 7.97378 8.38669C8.10795 8.46437 8.23378 8.56071 8.3197 8.69131C8.3154 8.85955 8.1922 8.97314 8.08995 9.09662C7.86171 9.38098 7.69623 9.68728 7.53491 10.0131C7.33622 9.98347 7.16029 9.91011 6.97535 9.83511C6.94182 9.82161 6.90829 9.80811 6.87375 9.7942C6.80316 9.76573 6.73262 9.73715 6.66212 9.70848C6.55385 9.66453 6.44538 9.62109 6.3369 9.57768C6.26832 9.54993 6.19974 9.52215 6.13118 9.49434C6.09861 9.48134 6.06604 9.46835 6.03249 9.45496C5.80483 9.36166 5.80483 9.36166 5.75879 9.26958C5.78546 9.19734 5.78546 9.19734 5.83059 9.11017C5.84723 9.07799 5.86387 9.0458 5.88102 9.01263C5.89947 8.97816 5.91791 8.94369 5.93691 8.90817C5.95571 8.87284 5.9745 8.83751 5.99386 8.80112C6.26083 8.30954 6.5964 7.87854 6.95663 7.45216Z" fill="white"/>
<path d="M14.1024 17.2828C14.2026 17.5165 14.3026 17.7503 14.4024 17.9841C14.4364 18.0637 14.4705 18.1433 14.5046 18.2228C14.5536 18.337 14.6023 18.4512 14.651 18.5654C14.6663 18.6012 14.6817 18.6369 14.6976 18.6737C14.7116 18.7068 14.7257 18.7398 14.7402 18.7739C14.7526 18.8031 14.765 18.8323 14.778 18.8623C14.8046 18.9349 14.8046 18.9349 14.8046 19.0176C14.3838 19.1648 13.9663 19.286 13.5267 19.3635C13.4886 19.3704 13.4506 19.3773 13.4115 19.3844C13.1226 19.4323 12.8751 19.4306 12.5742 19.4306C12.5742 18.8173 12.5742 18.2039 12.5742 17.5719C12.8331 17.531 13.0921 17.4901 13.3589 17.448C13.6094 17.3838 13.6094 17.3838 13.8584 17.3145C13.9785 17.2828 13.9785 17.2828 14.1024 17.2828Z" fill="white"/>
<path d="M5.13928 12.5741C5.75266 12.5741 6.36604 12.5741 6.998 12.5741C7.0389 12.8331 7.07979 13.0921 7.12192 13.3589C7.1861 13.6094 7.1861 13.6094 7.25535 13.8584C7.28714 13.9784 7.28714 13.9784 7.28714 14.1024C7.05343 14.2026 6.81965 14.3026 6.58578 14.4024C6.50619 14.4364 6.42662 14.4705 6.34707 14.5045C6.23291 14.5535 6.11868 14.6022 6.00443 14.651C5.96871 14.6663 5.933 14.6816 5.8962 14.6975C5.86313 14.7115 5.83006 14.7256 5.79599 14.7401C5.75223 14.7588 5.75223 14.7588 5.7076 14.7779C5.63494 14.8046 5.63494 14.8046 5.55233 14.8046C5.39773 14.3397 5.26088 13.8844 5.18058 13.4001C5.17244 13.3535 5.17244 13.3535 5.16413 13.3059C5.12678 13.0597 5.13928 12.8282 5.13928 12.5741Z" fill="white"/>
<path d="M19.0176 9.76537C19.1648 10.1861 19.286 10.6038 19.3635 11.0432C19.3704 11.0813 19.3773 11.1193 19.3844 11.1585C19.4323 11.4474 19.4307 11.6949 19.4307 11.9958C18.8173 11.9958 18.2039 11.9958 17.5719 11.9958C17.5106 11.6073 17.5106 11.6073 17.448 11.211C17.3839 10.9605 17.3839 10.9605 17.3145 10.7116C17.2828 10.5915 17.2828 10.5915 17.2828 10.4676C17.3299 10.4478 17.377 10.428 17.4256 10.4075C17.5999 10.3342 17.7744 10.2609 17.9488 10.1875C18.0244 10.1557 18.1 10.1239 18.1755 10.0921C18.284 10.0466 18.3925 10.0009 18.5009 9.95527C18.5349 9.94106 18.5688 9.92676 18.6037 9.91207C18.6508 9.89228 18.6508 9.89228 18.6989 9.87201C18.7266 9.86035 18.7543 9.84869 18.7828 9.83674C18.9479 9.76537 18.9479 9.76537 19.0176 9.76537Z" fill="white"/>
<path d="M11.9958 5.1392C11.9958 5.75259 11.9958 6.36596 11.9958 6.99793C11.7368 7.03882 11.4778 7.07972 11.211 7.12185C10.9606 7.18603 10.9606 7.18603 10.7116 7.25528C10.5915 7.28706 10.5915 7.28706 10.4676 7.28706C10.374 7.06662 10.2807 6.84611 10.1875 6.62554C10.1558 6.55052 10.124 6.47552 10.0921 6.40054C10.0465 6.29272 10.0008 6.18485 9.95528 6.07695C9.94108 6.04347 9.92678 6.00999 9.91208 5.97551C9.89886 5.94409 9.88564 5.91268 9.87202 5.88032C9.86037 5.8528 9.84871 5.82528 9.83676 5.79693C9.80622 5.71623 9.78461 5.63631 9.76538 5.55226C10.1862 5.40498 10.6038 5.28387 11.0432 5.20633C11.0813 5.19941 11.1193 5.19251 11.1585 5.18539C11.4474 5.13746 11.6949 5.1392 11.9958 5.1392Z" fill="white"/>
<path d="M17.0349 14.5568C17.2336 14.5864 17.4096 14.6597 17.5945 14.7347C17.628 14.7482 17.6615 14.7618 17.6961 14.7757C17.7666 14.8042 17.8372 14.8327 17.9077 14.8614C18.016 14.9054 18.1244 14.9488 18.233 14.9921C18.3015 15.02 18.3701 15.0477 18.4387 15.0755C18.4712 15.0885 18.5038 15.1016 18.5373 15.1149C18.765 15.2082 18.765 15.2082 18.8111 15.3003C18.7843 15.3725 18.7843 15.3725 18.7393 15.4597C18.7226 15.4919 18.706 15.524 18.6888 15.5572C18.6703 15.5917 18.6519 15.6262 18.6329 15.6616C18.6141 15.697 18.5953 15.7324 18.576 15.7687C18.309 16.2603 17.9734 16.6913 17.6132 17.1177C17.4952 17.0641 17.4104 17.0077 17.3193 16.9157C17.2953 16.8917 17.2713 16.8678 17.2466 16.8431C17.2212 16.8173 17.1959 16.7915 17.1698 16.765C17.1434 16.7385 17.1171 16.7121 17.09 16.6848C17.006 16.6004 16.9224 16.5157 16.8387 16.431C16.7818 16.3737 16.7248 16.3164 16.6679 16.259C16.5284 16.1186 16.3892 15.978 16.2501 15.8373C16.3253 15.68 16.4228 15.5457 16.5263 15.4061C16.724 15.1355 16.8847 14.8562 17.0349 14.5568Z" fill="white"/>
<path d="M15.2589 5.75881C15.859 6.0448 16.3992 6.36376 16.9112 6.79144C16.9798 6.84664 17.0487 6.90175 17.1177 6.95665C17.0641 7.07469 17.0077 7.15947 16.9157 7.2506C16.8917 7.27457 16.8678 7.29853 16.8431 7.32323C16.8172 7.34858 16.7915 7.37393 16.7649 7.40004C16.7385 7.42639 16.712 7.45275 16.6847 7.4799C16.6004 7.56384 16.5156 7.64749 16.4309 7.73113C16.3736 7.78806 16.3163 7.84502 16.2589 7.902C16.1185 8.04145 15.978 8.18066 15.8372 8.31972C15.6799 8.24455 15.5456 8.14699 15.406 8.0435C15.1354 7.84583 14.8561 7.68515 14.5567 7.53493C14.5862 7.33586 14.6603 7.1603 14.7361 6.97537C14.7498 6.94184 14.7634 6.90831 14.7774 6.87377C14.806 6.80318 14.8348 6.73265 14.8636 6.66214C14.9079 6.55382 14.9518 6.44538 14.9957 6.33692C15.0236 6.26833 15.0516 6.19977 15.0795 6.1312C15.0927 6.09863 15.1059 6.06606 15.1195 6.03251C15.2129 5.80489 15.2129 5.80489 15.2589 5.75881Z" fill="white"/>
<path d="M17.5737 7.45965C17.7082 7.51596 17.781 7.63303 17.8663 7.74651C17.8959 7.78516 17.8959 7.78516 17.9261 7.82459C18.2623 8.26946 18.5554 8.71132 18.7698 9.22832C18.4085 9.4017 18.041 9.56098 17.6726 9.71883C17.6249 9.7395 17.5773 9.76017 17.5282 9.78148C17.4829 9.80073 17.4378 9.81999 17.3911 9.83988C17.33 9.86603 17.33 9.86603 17.2677 9.89277C17.1589 9.93048 17.1589 9.93048 16.9937 9.93048C16.9796 9.90296 16.9656 9.87543 16.9511 9.84712C16.7749 9.51205 16.5735 9.19814 16.3202 8.91563C16.2502 8.81528 16.2502 8.81528 16.2595 8.73448C16.2951 8.64075 16.3335 8.5919 16.4036 8.52069C16.427 8.49658 16.4504 8.47248 16.4746 8.44765C16.5001 8.42217 16.5255 8.39669 16.5518 8.37044C16.5779 8.34398 16.6041 8.31754 16.631 8.29029C16.6863 8.23454 16.7417 8.17897 16.7974 8.12354C16.8826 8.03839 16.9668 7.95239 17.051 7.86631C17.1049 7.81228 17.1587 7.75831 17.2127 7.7044C17.2505 7.66555 17.2505 7.66555 17.2891 7.62593C17.4676 7.45029 17.4676 7.45029 17.5737 7.45965Z" fill="white"/>
<path d="M15.7545 16.2501C15.9639 16.3118 16.0854 16.4378 16.2357 16.588C16.2611 16.6132 16.2866 16.6383 16.3129 16.6643C16.3664 16.7174 16.4198 16.7707 16.473 16.824C16.5549 16.9058 16.6375 16.9867 16.7202 17.0677C16.7721 17.1195 16.8241 17.1712 16.8759 17.2231C16.9132 17.2593 16.9132 17.2593 16.9513 17.2964C17.0194 17.3657 17.0194 17.3657 17.1176 17.4893C17.1047 17.6294 17.0751 17.6556 16.9676 17.7555C16.9199 17.7929 16.8718 17.8298 16.8233 17.8662C16.7847 17.8957 16.7847 17.8957 16.7452 17.9259C16.2992 18.2632 15.8577 18.551 15.3415 18.7698C14.6393 17.1905 14.6393 17.1905 14.6393 16.9936C14.6669 16.9796 14.6944 16.9655 14.7227 16.951C15.0967 16.7544 15.4263 16.5149 15.7545 16.2501Z" fill="white"/>
<path d="M12.5742 5.13919C12.9132 5.13919 13.2069 5.14881 13.5345 5.2089C13.5751 5.21612 13.6159 5.22335 13.6577 5.2308C14.0087 5.29618 14.3445 5.39189 14.6807 5.51094C14.6552 5.72841 14.5849 5.90891 14.4998 6.10825C14.4861 6.14091 14.4725 6.17355 14.4584 6.2072C14.4148 6.31082 14.3709 6.41429 14.327 6.51775C14.2973 6.58825 14.2676 6.65876 14.2381 6.72928C14.1656 6.90155 14.0928 7.07369 14.0198 7.24576C13.9423 7.2364 13.9424 7.2364 13.8633 7.22686C13.8197 7.2216 13.8197 7.2216 13.7753 7.21624C13.6075 7.19322 13.4434 7.152 13.2784 7.11426C13.0451 7.06725 12.8093 7.0341 12.5742 6.99792C12.5742 6.38454 12.5742 5.77116 12.5742 5.13919Z" fill="white"/>
<path d="M5.51097 9.88924C5.72844 9.91461 5.90894 9.98504 6.10828 10.0702C6.14094 10.0838 6.17358 10.0975 6.20723 10.1116C6.31085 10.1551 6.41432 10.1991 6.51778 10.2429C6.58828 10.2726 6.65879 10.3023 6.7293 10.3319C6.90158 10.4044 7.07372 10.4772 7.24579 10.5501C7.21538 10.802 7.1709 11.044 7.11428 11.2915C7.06728 11.5247 7.03413 11.7606 6.99795 11.9958C6.38457 11.9958 5.77119 11.9958 5.13922 11.9958C5.13922 11.4192 5.13922 11.4192 5.19085 11.1362C5.19904 11.0893 5.19904 11.0893 5.20739 11.0414C5.27863 10.6492 5.38233 10.2666 5.51097 9.88924Z" fill="white"/>
<path d="M17.5719 12.5741C18.1853 12.5741 18.7988 12.5741 19.4306 12.5741C19.4306 12.9131 19.4211 13.2069 19.361 13.5344C19.3538 13.5751 19.3465 13.6158 19.3391 13.6576C19.2737 14.0086 19.178 14.3445 19.0589 14.6807C18.8695 14.656 18.7109 14.6051 18.5351 14.5312C18.5095 14.5206 18.4839 14.5099 18.4576 14.499C18.3766 14.4651 18.2957 14.4309 18.2148 14.3967C18.1606 14.374 18.1065 14.3513 18.0524 14.3287C17.8092 14.2269 17.5664 14.1238 17.3241 14.0198C17.3494 13.7677 17.3991 13.5253 17.4556 13.2784C17.5027 13.0451 17.5358 12.8093 17.5719 12.5741Z" fill="white"/>
<path d="M10.5501 17.3241C10.8022 17.3494 11.0446 17.3991 11.2915 17.4556C11.5247 17.5027 11.7606 17.5358 11.9958 17.5719C11.9958 18.1853 11.9958 18.7988 11.9958 19.4306C11.6568 19.4306 11.3629 19.421 11.0355 19.361C10.9947 19.3538 10.9541 19.3465 10.9121 19.3391C10.5612 19.2737 10.2254 19.178 9.88922 19.0589C9.91391 18.8695 9.96474 18.7109 10.0386 18.5351C10.0493 18.5095 10.06 18.4839 10.0709 18.4576C10.1047 18.3766 10.139 18.2957 10.1732 18.2148C10.1958 18.1606 10.2185 18.1065 10.2412 18.0524C10.3429 17.8091 10.4461 17.5664 10.5501 17.3241Z" fill="white"/>
<path d="M9.18696 5.80018C9.3252 5.86931 9.35517 6.02486 9.41172 6.16209C9.43202 6.21062 9.43202 6.21062 9.45274 6.26014C9.48138 6.3288 9.50987 6.39752 9.53825 6.46629C9.58153 6.57107 9.62539 6.67561 9.66931 6.78012C9.69707 6.84689 9.7248 6.91365 9.75248 6.98044C9.76557 7.01155 9.77864 7.04267 9.79212 7.07473C9.86063 7.2419 9.90902 7.39533 9.93047 7.5763C9.90294 7.59035 9.87542 7.60441 9.84701 7.61889C9.47312 7.81552 9.14348 8.05506 8.81522 8.31979C8.69718 8.26621 8.61241 8.20976 8.52128 8.11784C8.49731 8.09386 8.47335 8.06988 8.44864 8.04519C8.4233 8.01941 8.39795 7.99364 8.37183 7.96708C8.34548 7.94061 8.31912 7.91414 8.29197 7.88687C8.20803 7.80247 8.12439 7.71779 8.04075 7.63309C7.98381 7.57574 7.92685 7.51841 7.86988 7.46109C7.73042 7.32072 7.59122 7.1801 7.45215 7.03933C7.5069 6.87507 7.61369 6.80799 7.74644 6.70631C7.77219 6.68641 7.79792 6.66652 7.82444 6.64602C8.24197 6.32715 8.69145 5.98674 9.18696 5.80018Z" fill="white"/>
<path d="M7.57628 14.6393C7.59034 14.6668 7.6044 14.6944 7.61888 14.7227C7.81551 15.0967 8.05504 15.4263 8.31978 15.7545C8.2662 15.8725 8.20975 15.9574 8.11783 16.0485C8.09385 16.0725 8.06987 16.0964 8.04518 16.1211C8.0194 16.1464 7.99363 16.1718 7.96707 16.1979C7.9406 16.2243 7.91413 16.2506 7.88686 16.2778C7.80246 16.3617 7.71778 16.4454 7.63308 16.529C7.57573 16.5859 7.51839 16.6429 7.46108 16.6998C7.32071 16.8393 7.18009 16.9785 7.03932 17.1176C6.87507 17.0629 6.80796 16.9561 6.70629 16.8233C6.6864 16.7975 6.66651 16.7717 6.64601 16.7452C6.30646 16.3002 6.01912 15.8581 5.80017 15.3414C6.10157 15.2085 6.40312 15.0758 6.70479 14.9435C6.81144 14.8965 6.91792 14.8492 7.02432 14.8017C7.07492 14.7794 7.12553 14.7572 7.17614 14.7348C7.21858 14.7159 7.26102 14.697 7.30474 14.6775C7.41107 14.6393 7.41107 14.6393 7.57628 14.6393Z" fill="white"/>
<path d="M12.7909 11.2387C13.0157 11.4094 13.1432 11.5901 13.1936 11.8719C13.2211 12.1746 13.1426 12.412 12.956 12.6489C12.757 12.8616 12.5711 12.9112 12.2874 12.9225C12.018 12.9145 11.8332 12.8559 11.6343 12.6726C11.437 12.4587 11.3564 12.2534 11.366 11.9575C11.4 11.6712 11.5345 11.4434 11.7479 11.2522C12.0568 11.0607 12.4755 11.0521 12.7909 11.2387Z" fill="white"/>
<path d="M9.93048 14.309C10.0336 14.3722 10.0491 14.4174 10.088 14.5311C10.0974 14.6623 10.078 14.7318 10.0131 14.846C9.90481 14.9343 9.84232 14.9286 9.70076 14.926C9.55878 14.8873 9.55878 14.8873 9.47616 14.797C9.4254 14.6542 9.43225 14.5772 9.47616 14.4329C9.57299 14.2621 9.75574 14.2824 9.93048 14.309Z" fill="white"/>
<path d="M14.7968 14.2935C14.9352 14.2957 14.9623 14.303 15.0755 14.3942C15.1538 14.5541 15.1468 14.6359 15.0937 14.8047C14.9765 14.9118 14.9167 14.9298 14.7581 14.9234C14.6355 14.8861 14.5866 14.8681 14.5154 14.7633C14.4792 14.6653 14.4792 14.6653 14.4741 14.5568C14.5959 14.3132 14.5959 14.3132 14.7968 14.2935Z" fill="white"/>
<path d="M15.0111 9.68269C15.1183 9.79988 15.1362 9.85966 15.1298 10.0183C15.0745 10.2001 15.0745 10.2001 14.9698 10.261C14.8217 10.2832 14.6894 10.2916 14.5594 10.2119C14.4787 10.0742 14.4629 9.97456 14.5026 9.81951C14.5567 9.724 14.5567 9.724 14.6265 9.66721C14.7692 9.62862 14.8692 9.64399 15.0111 9.68269Z" fill="white"/>
<path d="M9.9308 9.68266C10.0266 9.74875 10.0505 9.79532 10.0909 9.90462C10.0975 10.045 10.053 10.1075 9.97204 10.2196C9.9308 10.2609 9.9308 10.2609 9.77329 10.2764C9.63488 10.2742 9.60777 10.2669 9.49448 10.1758C9.41624 10.0158 9.42328 9.93401 9.47641 9.76526C9.62723 9.62737 9.73903 9.6243 9.9308 9.68266Z" fill="white"/>
</svg>
