<svg width="24" height="24" viewBox="0 0 24 24" fill="none" xmlns="http://www.w3.org/2000/svg">
<path d="M21.9535 17.5889H21.228V15.7482C21.6926 15.3625 21.989 14.7799 21.989 14.1291V8.83161C21.989 8.18079 21.6926 7.59872 21.228 7.21249V5.20367C21.228 3.98859 20.2421 3 19.0303 3H5.53972C4.32792 3 3.34201 3.98859 3.34201 5.20367V7.21249C2.87741 7.59823 2.58099 8.18079 2.58099 8.83161V14.1291C2.58099 14.7799 2.87741 15.362 3.34201 15.7482V17.5889H2.61651C2.27619 17.5889 2 17.8658 2 18.2071V18.9998C2 20.1585 2.94053 21.1017 4.09611 21.1017H20.4739C21.6295 21.1017 22.57 20.1585 22.57 18.9998V18.2071C22.57 17.8658 22.2938 17.5889 21.9535 17.5889ZM15.5542 10.4789C15.2134 10.4789 14.9377 10.202 14.9377 9.86075C14.9377 9.51951 15.2134 9.24257 15.5542 9.24257H17.7149C17.9186 9.24257 18.1095 9.34346 18.2244 9.51259C18.3393 9.68172 18.3635 9.89685 18.2885 10.0872L16.8267 13.8091C16.731 14.0525 16.4987 14.2008 16.2531 14.2008C16.1776 14.2008 16.1012 14.187 16.0272 14.1578C15.7106 14.0327 15.5547 13.6736 15.6795 13.3561L16.8094 10.4789H15.5542ZM11.2042 10.4789C10.8639 10.4789 10.5876 10.202 10.5876 9.86075C10.5876 9.51951 10.8639 9.24257 11.2042 9.24257H13.3654C13.5691 9.24257 13.7599 9.34346 13.8748 9.51259C13.9897 9.68172 14.0134 9.89685 13.9389 10.0872L12.4772 13.8091C12.3814 14.0525 12.1491 14.2008 11.9035 14.2008C11.828 14.2008 11.7516 14.187 11.6776 14.1578C11.3605 14.0327 11.2051 13.6736 11.3299 13.3561L12.4599 10.4789H11.2042ZM6.8546 10.4789C6.51428 10.4789 6.23809 10.202 6.23809 9.86075C6.23809 9.51951 6.51428 9.24257 6.8546 9.24257H9.01532C9.2195 9.24257 9.41038 9.34346 9.52529 9.51259C9.63971 9.68172 9.66388 9.89685 9.58891 10.0872L8.12756 13.8091C8.03187 14.0525 7.79958 14.2008 7.55347 14.2008C7.4785 14.2008 7.40205 14.187 7.32808 14.1578C7.01094 14.0327 6.85559 13.6736 6.98036 13.3561L8.11029 10.4789H6.8546ZM4.57452 5.20367C4.57452 4.67006 5.00755 4.23635 5.53923 4.23635H9.66585V4.48412C9.66585 5.11663 10.1788 5.63095 10.8096 5.63095H13.7599C14.3908 5.63095 14.9037 5.11663 14.9037 4.48412V4.23635H19.0303C19.5624 4.23635 19.995 4.67055 19.995 5.20367V6.73229C19.961 6.7308 19.9269 6.72981 19.8929 6.72981H4.6771C4.64307 6.72981 4.60855 6.7308 4.57501 6.73229L4.57452 5.20367ZM4.57452 16.2285C4.60855 16.2299 4.64258 16.2309 4.67661 16.2309H19.8925C19.9264 16.2309 19.961 16.2299 19.9945 16.2285V17.5889H4.57452V16.2285Z" fill="white"/>
</svg>
