<svg width="24" height="24" viewBox="0 0 24 24" fill="none" xmlns="http://www.w3.org/2000/svg">
<path d="M17.9977 5.59157V6.3531L14.3438 4.24345C12.9606 3.45103 11.0304 3.45103 9.6576 4.24345L6.00366 6.36339V5.59157C6.00366 3.27608 7.27325 2 9.59567 2H14.4057C16.7281 2 17.9977 3.27608 17.9977 5.59157Z" fill="white"/>
<path d="M18.0275 8.14193L17.8829 8.0699L16.4792 7.26719L13.5683 5.58975C12.6807 5.0752 11.3182 5.0752 10.4305 5.58975L7.51976 7.25691L6.11599 8.08018L5.93019 8.1728C4.12387 9.38715 4 9.61354 4 11.5586V16.2102C4 18.1552 4.12387 18.3815 5.97148 19.6268L10.4305 22.1893C10.8743 22.4568 11.4317 22.57 11.9995 22.57C12.5569 22.57 13.1246 22.4465 13.5683 22.1893L18.0687 19.5959C19.8853 18.3815 19.9989 18.1654 19.9989 16.2102V11.5586C19.9989 9.61354 19.875 9.38715 18.0275 8.14193ZM14.8793 13.8329L14.2496 14.6047C14.1464 14.718 14.0741 14.9341 14.0845 15.0884L14.1464 16.0764C14.1877 16.6836 13.7541 16.9923 13.1865 16.7761L12.2678 16.4057C12.1233 16.3542 11.8859 16.3542 11.7414 16.4057L10.8227 16.7658C10.255 16.9923 9.82153 16.6733 9.86282 16.0661L9.92475 15.0781C9.93508 14.9238 9.86282 14.7077 9.7596 14.5945L9.11965 13.8329C8.72742 13.3699 8.90289 12.8552 9.49124 12.7009L10.4512 12.4539C10.606 12.4128 10.7815 12.2687 10.864 12.1452L11.4008 11.3219C11.7311 10.8074 12.2575 10.8074 12.5981 11.3219L13.1348 12.1452C13.2174 12.279 13.4032 12.4128 13.5478 12.4539L14.5077 12.7009C15.096 12.8552 15.2715 13.3699 14.8793 13.8329Z" fill="white"/>
</svg>
