<svg width="24" height="24" viewBox="0 0 24 24" fill="none" xmlns="http://www.w3.org/2000/svg">
<mask id="mask0_753_16663" style="mask-type:luminance" maskUnits="userSpaceOnUse" x="2" y="2" width="21" height="21">
<path d="M22.57 2H2V22.57H22.57V2Z" fill="white"/>
</mask>
<g mask="url(#mask0_753_16663)">
<path d="M13.2894 4.97301C13.4454 4.99576 13.5208 5.06695 13.6334 5.17388C13.8462 5.37104 14.0669 5.55568 14.2939 5.73635C14.3155 5.75925 14.3373 5.78216 14.3597 5.80576C14.6526 6.0855 14.9795 6.05735 15.3586 6.05383C15.4266 6.05421 15.4945 6.05471 15.5624 6.05533C15.7402 6.05662 15.9179 6.05624 16.0956 6.05551C16.2774 6.05507 16.4593 6.05621 16.6411 6.0572C16.9969 6.05893 17.3529 6.05891 17.7087 6.05776C17.7992 6.42287 17.864 6.78691 17.918 7.15898C17.9392 7.29681 17.9611 7.43454 17.9829 7.57228C18.0053 7.71438 18.0269 7.85653 18.0466 7.99904C18.1248 8.76946 18.1248 8.76946 18.5512 9.37539C18.6205 9.42337 18.6904 9.46734 18.7633 9.50945C18.8875 9.58635 18.9933 9.685 19.1024 9.78155C19.1456 9.81827 19.1889 9.85491 19.2323 9.89141C19.2531 9.90888 19.2739 9.92636 19.2953 9.94437C19.3877 10.0215 19.481 10.0974 19.5744 10.1733C19.773 10.3349 19.9678 10.5008 20.1617 10.668C20.3071 10.7933 20.4536 10.917 20.6014 11.0396C20.5474 11.1819 20.4844 11.3131 20.4099 11.4458C20.3877 11.4856 20.3654 11.5254 20.3426 11.5663C20.3186 11.6088 20.2946 11.6512 20.27 11.6949C20.2452 11.739 20.2203 11.7832 20.1948 11.8287C19.9759 12.2168 19.7524 12.602 19.5269 12.9864C19.4953 13.041 19.4953 13.041 19.4632 13.0967C19.4162 13.1754 19.3669 13.2526 19.3158 13.3287C19.2896 13.3689 19.2635 13.4092 19.2366 13.4505C19.2123 13.4861 19.1882 13.5217 19.1632 13.5584C19.045 13.8833 19.1774 14.2875 19.2381 14.6188C19.2461 14.6632 19.2541 14.7077 19.2623 14.7536C19.2875 14.8941 19.3129 15.0346 19.3384 15.1752C19.364 15.3167 19.3896 15.4582 19.4149 15.5998C19.4307 15.6875 19.4466 15.7751 19.4626 15.8628C19.4697 15.9024 19.4768 15.9419 19.4841 15.9827C19.4904 16.0174 19.4967 16.0521 19.5032 16.0879C19.5167 16.1821 19.5167 16.1821 19.5167 16.3428C19.482 16.3429 19.482 16.3429 19.4466 16.3431C18.88 16.3465 18.3135 16.3501 17.747 16.3543C17.473 16.3563 17.1989 16.3582 16.925 16.3597C16.66 16.3612 16.3951 16.3631 16.1302 16.3651C16.0296 16.3659 15.9291 16.3665 15.8286 16.367C14.625 16.3729 13.5121 16.4388 12.5662 17.2668C12.5392 17.2881 12.5122 17.3094 12.4843 17.3313C11.9251 17.7824 11.5274 18.5019 11.361 19.1952C11.3603 19.2452 11.3596 19.2952 11.359 19.3466C11.3548 19.5253 11.3392 19.6851 11.2404 19.838C10.9896 20.0339 10.6585 20.1099 10.3591 20.2021C10.2758 20.2303 10.1925 20.2586 10.1093 20.2872C9.95709 20.3384 9.8048 20.3892 9.65133 20.4366C9.62065 20.4461 9.58997 20.4557 9.55835 20.4656C9.46111 20.4829 9.40386 20.4761 9.31202 20.4407C9.24852 20.3548 9.24852 20.3548 9.18741 20.241C9.16462 20.1994 9.14183 20.1577 9.11836 20.1148C9.09443 20.0699 9.0705 20.025 9.04585 19.9787C8.99522 19.8859 8.94453 19.7931 8.89378 19.7004C8.86907 19.655 8.84436 19.6095 8.81891 19.5627C8.7162 19.3755 8.60888 19.1913 8.49866 19.0085C8.40251 18.8485 8.31173 18.6868 8.22398 18.5222C8.20205 18.4822 8.18012 18.4423 8.15753 18.4011C8.11492 18.3236 8.07338 18.2454 8.03313 18.1666C7.92042 17.9647 7.82837 17.8538 7.60989 17.7698C7.56698 17.7531 7.52409 17.7364 7.47988 17.7193C7.43485 17.7025 7.38981 17.6857 7.34341 17.6685C7.27786 17.644 7.27786 17.644 7.21098 17.6189C7.07076 17.5669 6.93016 17.5163 6.78942 17.4658C6.73805 17.4473 6.68669 17.4287 6.63533 17.4102C6.50186 17.362 6.36833 17.314 6.2348 17.266C6.01972 17.1887 5.8047 17.1112 5.5897 17.0336C5.51489 17.0067 5.44006 16.9798 5.36522 16.9529C5.32014 16.9366 5.27505 16.9205 5.22859 16.9037C5.16894 16.8822 5.16894 16.8822 5.1081 16.8604C5.01321 16.8249 5.01321 16.8249 4.93287 16.7847C4.98374 16.4131 5.04238 16.044 5.10894 15.6749C5.127 15.5734 5.14505 15.472 5.16309 15.3705C5.19122 15.213 5.21941 15.0554 5.24773 14.8979C5.2753 14.7442 5.30263 14.5906 5.32991 14.4369C5.33845 14.3898 5.34698 14.3428 5.35578 14.2943C5.36356 14.2502 5.37135 14.2062 5.37936 14.1609C5.38626 14.1224 5.39315 14.0839 5.40026 14.0443C5.42404 13.8631 5.44037 13.7049 5.34686 13.5433C5.33164 13.5165 5.31643 13.4896 5.30075 13.4619C5.28376 13.4332 5.26676 13.4044 5.24925 13.3748C5.23145 13.3437 5.21365 13.3126 5.1953 13.2807C5.13518 13.1761 5.07425 13.0721 5.01321 12.968C4.96867 12.8916 4.92416 12.8151 4.87966 12.7387C4.80936 12.6181 4.73898 12.4975 4.66839 12.3771C4.41677 11.9474 4.17214 11.5139 3.92847 11.0798C4.22041 10.7847 4.53065 10.5151 4.85314 10.2541C4.98861 10.1429 5.12155 10.0291 5.25427 9.91463C5.45802 9.73903 5.66386 9.56677 5.87307 9.39768C5.90751 9.3694 5.94194 9.34113 5.97743 9.31199C6.00024 9.29573 6.02306 9.27947 6.04656 9.26271C6.21739 9.13334 6.29092 9.03903 6.32207 8.82626C6.32704 8.78106 6.32704 8.78106 6.33211 8.73494C6.34196 8.66962 6.35185 8.60431 6.36177 8.539C6.37579 8.43726 6.3892 8.33549 6.40185 8.23358C6.48462 7.59057 6.48462 7.59057 6.76024 7.35923C6.88217 7.27431 6.9927 7.19977 7.14253 7.18268C7.21754 7.23777 7.21754 7.23777 7.29821 7.32078C8.00731 7.9857 8.96671 8.18231 9.90853 8.16086C10.8527 8.12037 11.7252 7.65299 12.3704 6.97426C12.884 6.38989 13.1354 5.72132 13.2894 4.97301ZM8.75913 9.7125C8.71421 9.72881 8.66928 9.74512 8.623 9.76193C8.55265 9.7878 8.55265 9.7878 8.48088 9.81419C8.43352 9.83144 8.38617 9.84868 8.33736 9.86645C8.22025 9.90912 8.10321 9.95198 7.98622 9.99498C8.45117 11.3987 8.91921 12.8018 9.41246 14.1959C9.42169 14.222 9.43092 14.2482 9.44044 14.2752C9.46571 14.3468 9.49118 14.4183 9.51667 14.4898C9.53062 14.529 9.54458 14.5682 9.55896 14.6086C9.58571 14.6933 9.58571 14.6933 9.63343 14.7357C9.7079 14.7393 9.78251 14.74 9.85707 14.7397C9.89774 14.7395 9.93843 14.7394 9.98035 14.7393C10.0585 14.7388 10.0585 14.7388 10.1381 14.7382C10.2273 14.7378 10.3164 14.7373 10.4055 14.7369C10.4494 14.7367 10.4932 14.7364 10.5384 14.7363C10.5876 14.736 10.5876 14.736 10.6378 14.7357C10.6495 14.7009 10.661 14.6661 10.673 14.6302C11.1836 13.0985 11.6942 11.5669 12.2046 10.0352C12.1089 9.93936 12.0366 9.91905 11.9083 9.87665C11.8655 9.86241 11.8226 9.84817 11.7784 9.83349C11.7335 9.81884 11.6885 9.80418 11.6422 9.78908C11.5973 9.77412 11.5523 9.75915 11.506 9.74372C11.2972 9.6656 11.2972 9.6656 11.0798 9.6334C10.7616 10.588 10.4434 11.5426 10.1155 12.526C9.77618 11.5633 9.44056 10.5995 9.11115 9.6334C8.9747 9.6334 8.88715 9.66571 8.75913 9.7125ZM13.2944 10.3089C13.0112 10.6569 12.9294 11.0412 12.968 11.4815C13.0658 11.8715 13.2832 12.1649 13.6172 12.3818C13.8481 12.5111 14.0972 12.6002 14.344 12.6943C14.4256 12.7256 14.507 12.7572 14.5884 12.7889C14.6618 12.8174 14.7353 12.8455 14.8089 12.8737C15.115 13.0034 15.115 13.0034 15.1777 13.1287C15.1928 13.2442 15.1928 13.2442 15.1777 13.3697C15.015 13.5324 14.8756 13.5768 14.6504 13.5807C14.3089 13.5766 14.027 13.4785 13.7716 13.2492C13.6866 13.1589 13.6072 13.0655 13.5305 12.968C13.4357 13.0473 13.3423 13.1277 13.2492 13.209C13.2279 13.2275 13.2067 13.2461 13.1847 13.2652C13.1128 13.328 13.0417 13.3915 12.9705 13.4551C12.9468 13.4758 12.923 13.4965 12.8984 13.5177C12.8226 13.5846 12.8226 13.5846 12.7269 13.6911C12.7269 13.8939 12.7729 13.9217 12.9128 14.0628C13.3878 14.5276 13.9716 14.774 14.6403 14.796C15.171 14.7794 15.6619 14.5924 16.0339 14.2084C16.3178 13.863 16.4175 13.515 16.3993 13.0702C16.3487 12.6289 16.1121 12.3344 15.7765 12.054C15.5449 11.888 15.2851 11.784 15.0221 11.6772C14.8893 11.6228 14.7571 11.5667 14.6249 11.5108C14.4744 11.4472 14.3239 11.384 14.1733 11.3208C14.1608 11.2279 14.1608 11.2279 14.1733 11.1199C14.349 10.9734 14.5146 10.9792 14.7339 10.9854C14.9245 11.0072 15.0468 11.0698 15.2179 11.1601C15.377 11.2396 15.536 11.3192 15.7 11.4012C15.8856 11.0829 16.0712 10.7647 16.2624 10.4369C15.8297 10.0042 15.1903 9.78198 14.5851 9.77652C14.0852 9.78441 13.6425 9.93636 13.2944 10.3089Z" fill="white"/>
<path d="M4.30007 1.99426C4.35063 1.99397 4.40119 1.99368 4.4533 1.99339C4.50903 1.99327 4.56478 1.99316 4.62052 1.99306C4.67947 1.99281 4.73842 1.99254 4.79737 1.99226C4.99072 1.99142 5.18407 1.991 5.37742 1.9906C5.44419 1.99044 5.51095 1.99027 5.5777 1.9901C5.89156 1.98934 6.20541 1.98877 6.51927 1.98843C6.88052 1.98804 7.24177 1.98698 7.60301 1.98536C7.88286 1.98414 8.16273 1.98355 8.44258 1.98342C8.60942 1.98332 8.77624 1.98297 8.94308 1.98195C9.10031 1.98101 9.25753 1.98085 9.41476 1.98126C9.47208 1.98128 9.52939 1.98103 9.5867 1.98047C10.2902 1.97403 10.8784 2.18486 11.3901 2.67233C11.4355 2.71747 11.4355 2.71747 11.4817 2.76351C11.5201 2.80057 11.5201 2.80057 11.5593 2.83837C12.0182 3.31564 12.1861 3.96055 12.1815 4.60584C12.161 5.26768 11.8814 5.84718 11.4256 6.32158C10.8406 6.86888 10.1933 7.05661 9.40834 7.03596C8.74739 7.0037 8.20007 6.68908 7.74529 6.21862C7.46405 5.89499 7.46405 5.89499 7.46405 5.7767C7.01553 5.74829 7.01553 5.74829 6.60482 5.88122C6.54635 5.9642 6.50283 6.04651 6.45966 6.13827C6.11582 6.6217 5.54175 6.90277 4.97315 7.02214C4.82201 7.03937 4.67322 7.04324 4.52118 7.04223C4.48103 7.04203 4.44089 7.04183 4.39952 7.04162C3.69509 7.02517 3.13362 6.71491 2.64296 6.21862C2.20095 5.74024 1.97577 5.16854 1.98257 4.51869C1.98285 4.47815 1.98312 4.43762 1.98341 4.39586C1.99019 4.08001 2.0328 3.81823 2.16085 3.52685C2.18268 3.47418 2.18268 3.47418 2.20495 3.42044C2.46533 2.84673 2.94478 2.39583 3.52306 2.15177C3.78618 2.05346 4.0179 1.99536 4.30007 1.99426ZM4.04911 3.92861C4.04911 4.31309 4.04911 4.69758 4.04911 5.0937C4.43359 5.0937 4.81808 5.0937 5.21421 5.0937C5.21421 4.70922 5.21421 4.32475 5.21421 3.92861C4.82973 3.92861 4.44525 3.92861 4.04911 3.92861ZM8.7095 3.92861C8.7095 4.31309 8.7095 4.69758 8.7095 5.0937C9.09398 5.0937 9.47847 5.0937 9.8746 5.0937C9.8746 4.70922 9.8746 4.32475 9.8746 3.92861C9.49012 3.92861 9.10564 3.92861 8.7095 3.92861Z" fill="white"/>
<path d="M15.0394 17.5362C15.0983 17.5359 15.1573 17.5357 15.2163 17.5354C15.3757 17.5346 15.5352 17.5345 15.6947 17.5345C15.7945 17.5344 15.8944 17.5342 15.9942 17.534C16.3434 17.5333 16.6926 17.5329 17.0417 17.533C17.366 17.533 17.6903 17.5322 18.0145 17.531C18.294 17.5298 18.5733 17.5294 18.8526 17.5295C19.0191 17.5295 19.1855 17.5292 19.3519 17.5284C19.5086 17.5276 19.6654 17.5276 19.8221 17.5282C19.8792 17.5283 19.9363 17.5281 19.9935 17.5276C20.703 17.522 21.3256 17.7439 21.8466 18.2308C22.3347 18.7434 22.5945 19.3406 22.5898 20.0488C22.5897 20.0889 22.5894 20.1291 22.5892 20.1704C22.5728 20.8749 22.2626 21.4364 21.7663 21.927C21.2902 22.3626 20.7084 22.5942 20.0663 22.5874C20.0258 22.5871 19.9852 22.5869 19.9435 22.5865C19.6275 22.5798 19.366 22.537 19.0744 22.4091C19.0398 22.3951 19.0052 22.3809 18.9694 22.3664C18.5273 22.1685 18.0886 21.8033 17.8692 21.3646C17.6173 21.3513 17.3654 21.338 17.1059 21.3244C17.0793 21.3907 17.0528 21.457 17.0255 21.5253C16.9604 21.6082 16.8962 21.6846 16.8246 21.7613C16.8049 21.7824 16.7852 21.8036 16.7649 21.8255C16.3472 22.2625 15.783 22.5568 15.1719 22.5834C14.7436 22.5902 14.3702 22.5816 13.9721 22.4091C13.9374 22.3951 13.9028 22.3809 13.867 22.3664C13.2458 22.0878 12.7785 21.5464 12.5258 20.9226C12.2891 20.2895 12.3568 19.5661 12.6176 18.9532C12.7581 18.6733 12.9488 18.4519 13.1686 18.2308C13.1958 18.2023 13.223 18.1737 13.2511 18.1442C13.7459 17.6596 14.3707 17.5357 15.0394 17.5362ZM14.5747 19.2755C14.5747 19.6599 14.5747 20.0443 14.5747 20.4405C14.9592 20.4405 15.3437 20.4405 15.7399 20.4405C15.7399 20.056 15.7399 19.6715 15.7399 19.2755C15.3554 19.2755 14.9709 19.2755 14.5747 19.2755ZM19.2351 19.2755C19.2351 19.6599 19.2351 20.0443 19.2351 20.4405C19.6196 20.4405 20.0041 20.4405 20.4002 20.4405C20.4002 20.056 20.4002 19.6715 20.4002 19.2755C20.0158 19.2755 19.6313 19.2755 19.2351 19.2755Z" fill="white"/>
</g>
</svg>
