<svg width="24" height="24" viewBox="0 0 24 24" fill="none" xmlns="http://www.w3.org/2000/svg">
<path d="M5.97613 2.19537C6.00768 2.20353 6.03923 2.21168 6.07174 2.22009C6.66968 2.37585 7.27843 2.5901 7.8241 2.88205C7.95988 2.94448 8.08261 2.89706 8.21771 2.84711C8.31038 2.80943 8.40234 2.7703 8.49436 2.73106C10.2108 2.02499 10.2108 2.02499 10.9425 2.11527C11.4225 2.40814 11.694 3.15435 11.8542 3.65677C12.0703 4.3331 12.3055 4.94416 12.7848 5.47959C12.8143 5.51475 12.8438 5.54991 12.8742 5.58613C13.4937 6.30468 14.2681 6.70608 15.1584 6.98872C15.822 7.20013 16.2984 7.46999 16.79 7.96277C16.8207 7.99293 16.8512 8.02308 16.8828 8.05414C17.2899 8.48109 17.4876 8.99976 17.6561 9.55232C17.766 9.90945 17.8736 10.2419 18.0667 10.565C18.1117 10.6462 18.1117 10.6462 18.1117 10.7264C18.3202 10.5531 18.5137 10.3671 18.7045 10.1748C18.7285 10.1508 18.7525 10.1267 18.7772 10.1019C18.8357 10.0432 18.8943 9.98418 18.9528 9.92532C18.5381 8.54899 18.5381 8.54899 17.7512 7.362C17.7243 7.32938 17.6973 7.29675 17.6696 7.26313C17.0436 6.52228 16.2507 6.14563 15.3426 5.86507C14.8169 5.70018 14.3961 5.48927 13.9864 5.11912C13.9394 5.07707 13.9394 5.07707 13.8914 5.03417C13.4103 4.57964 13.142 4.03949 12.9402 3.41819C12.9173 3.34765 12.9173 3.34765 12.8939 3.27568C12.8637 3.18205 12.8341 3.08823 12.8053 2.99419C12.7144 2.70838 12.5988 2.46365 12.4393 2.20939C12.3843 2.11527 12.3843 2.11527 12.3843 2.03516C13.9197 1.98976 15.4532 2.35966 16.8301 3.03645C16.8573 3.04963 16.8846 3.06281 16.9127 3.07639C17.8471 3.53203 18.6876 4.1584 19.4334 4.87882C19.4583 4.9028 19.4831 4.92679 19.5088 4.95151C19.8252 5.25846 20.1274 5.5685 20.3946 5.92016C20.4113 5.94179 20.428 5.96343 20.4452 5.98573C21.5146 7.37692 22.2058 8.99259 22.4773 10.7264C22.482 10.7559 22.4867 10.7854 22.4915 10.8159C22.5626 11.2802 22.5661 11.7393 22.5574 12.2082C22.3989 12.1484 22.2522 12.0745 22.1023 11.9956C21.8076 11.8449 21.504 11.7424 21.1882 11.645C20.7381 11.5061 20.3154 11.354 19.9466 11.0518C19.9171 11.0279 19.8876 11.0041 19.8573 10.9795C19.8363 10.962 19.8155 10.9446 19.7939 10.9266C19.5222 11.1488 19.279 11.3977 19.0329 11.6475C19.1925 12.0602 19.7938 12.311 20.1735 12.4795C20.4725 12.6047 20.7817 12.703 21.0914 12.7983C21.4742 12.9181 21.824 13.076 22.1344 13.3346C22.1657 13.3604 22.1971 13.3861 22.2294 13.4126C22.2728 13.4508 22.2728 13.4508 22.3172 13.4899C22.3481 13.5105 22.3792 13.5309 22.4112 13.5522C22.5395 13.7421 22.4567 13.9814 22.4184 14.196C22.3975 14.3008 22.3742 14.4047 22.3497 14.5087C22.3409 14.5466 22.3319 14.5844 22.3228 14.6235C22.1863 15.1963 22.0257 15.7489 21.7745 16.2829C21.6919 16.4648 21.6529 16.5762 21.7163 16.7741C21.7675 16.9036 21.8242 17.0303 21.8816 17.1571C22.281 18.0664 22.5634 18.9873 22.5674 19.9857C22.5687 20.0609 22.5687 20.0609 22.57 20.1375C22.5727 20.7937 22.3881 21.4218 21.9225 21.9024C21.2436 22.5209 20.4488 22.5771 19.5726 22.5495C19.2503 22.531 18.9436 22.4636 18.6324 22.3813C18.5915 22.3713 18.5915 22.3713 18.55 22.3611C17.9492 22.214 17.3283 21.9836 16.7825 21.694C16.6672 21.6406 16.5914 21.669 16.4696 21.7004C16.3503 21.7449 16.2337 21.7955 16.1167 21.8456C15.515 22.094 14.8862 22.2625 14.2492 22.3939C14.2209 22.3997 14.1927 22.4056 14.1635 22.4117C13.559 22.5279 12.9532 22.5564 12.3393 22.554C12.2859 22.554 12.2859 22.554 12.2314 22.554C11.5915 22.5528 10.9701 22.5088 10.3417 22.3813C10.339 22.3491 10.3361 22.3169 10.3333 22.2838C10.2265 21.0805 10.0359 19.9517 9.50065 18.8568C9.48558 18.8256 9.4705 18.7945 9.45497 18.7625C8.92418 17.6778 8.14017 16.7064 7.17767 15.9731C7.15518 15.9555 7.13269 15.938 7.10951 15.92C5.66309 14.8023 3.99635 14.385 2.21128 14.2509C2.19193 14.139 2.17277 14.0273 2.15372 13.9154C2.14562 13.8689 2.14562 13.8689 2.13737 13.8214C2.07671 13.4634 2.0449 13.1091 2.04294 12.7459C2.04267 12.7108 2.04238 12.6756 2.04209 12.6394C2.04139 12.5265 2.04114 12.4137 2.04107 12.3009C2.04104 12.2623 2.04101 12.2237 2.04098 12.1839C2.04163 11.6092 2.06154 11.0516 2.17124 10.486C2.17769 10.45 2.18413 10.4141 2.19077 10.377C2.33181 9.59767 2.56586 8.82863 2.89865 8.10948C2.95844 7.91947 2.88554 7.77415 2.80909 7.59809C2.79237 7.55906 2.77565 7.52004 2.75842 7.47982C2.73168 7.41779 2.73168 7.41779 2.70442 7.3545C2.21383 6.19405 1.74364 4.76983 2.16106 3.51753C2.39928 2.94537 2.77076 2.47395 3.34665 2.21524C4.15352 1.89595 5.14948 1.96844 5.97613 2.19537ZM3.58305 3.56713C3.23086 3.9976 3.25344 4.50864 3.29268 5.03903C3.36644 5.57773 3.53813 6.09549 3.73325 6.60103C3.85021 6.45609 3.96361 6.30883 4.07619 6.16046C4.2234 5.96784 4.37511 5.77975 4.53177 5.59474C4.55021 5.57295 4.56864 5.55116 4.58763 5.52871C4.63613 5.47189 4.6853 5.41563 4.73453 5.35944C4.75523 5.33393 4.77594 5.30843 4.79726 5.28214C4.85468 5.23928 4.85468 5.23928 4.92884 5.23818C5.05481 5.29842 5.13686 5.39612 5.23016 5.49711C5.93065 6.22189 6.79703 6.50084 7.73839 6.80129C7.67472 6.96448 7.5995 7.11669 7.51811 7.27189C7.27321 7.75773 7.21194 8.30256 7.34288 8.8364C7.36594 8.90634 7.39104 8.97563 7.41797 9.04417C7.43269 9.08175 7.44741 9.11934 7.46256 9.15807C7.56459 9.38678 7.69393 9.58099 7.85745 9.76979C7.8779 9.79348 7.89834 9.81718 7.91941 9.84157C8.20956 10.1722 8.52193 10.482 8.83324 10.7925C8.94009 10.8993 9.04641 11.0065 9.15271 11.1138C9.84264 11.8063 10.4526 12.3407 11.4679 12.3437C11.7113 12.3386 11.9229 12.2917 12.1522 12.2071C12.3597 12.1349 12.5125 12.1156 12.7227 12.1845C12.7631 12.1976 12.8034 12.2107 12.8451 12.2243C12.9083 12.2461 12.9083 12.2461 12.9726 12.2683C13.0158 12.2831 13.059 12.2978 13.1036 12.3131C13.5919 12.4855 13.9326 12.7313 14.3068 13.0894C14.3319 13.1119 14.357 13.1345 14.3828 13.1577C14.8383 13.5812 15.0312 14.1255 15.2152 14.7008C15.5837 15.8491 16.2851 16.8115 17.3558 17.4042C17.7318 17.5971 18.1142 17.7325 18.5169 17.8588C19.1599 18.0618 19.6362 18.3742 20.1143 18.8568C19.7514 19.6752 18.6966 20.3316 17.9916 20.8193C18.6657 21.2688 19.7377 21.3897 20.5228 21.2824C20.7974 21.2151 21.0147 21.0536 21.1695 20.8169C21.4996 20.191 21.3115 19.317 21.1251 18.6707C21.0098 18.2995 20.8955 17.9561 20.5949 17.6953C20.5556 17.6565 20.5556 17.6565 20.5154 17.6169C19.9855 17.1112 19.3136 16.8438 18.6248 16.634C17.7369 16.3612 17.0439 15.8301 16.5886 15.0091C16.4524 14.7377 16.3738 14.4378 16.284 14.1486C16.0684 13.461 15.7595 12.8969 15.268 12.3684C15.236 12.3331 15.2039 12.2977 15.1708 12.2613C14.697 11.7618 14.0851 11.3704 13.4257 11.1669C13.4431 11.1198 13.4604 11.0727 13.4782 11.0242C13.7038 10.3346 13.7406 9.68476 13.4145 9.0196C13.0883 8.43715 12.5317 7.97727 12.0643 7.50638C11.979 7.42032 11.894 7.33394 11.8093 7.24725C11.7056 7.14106 11.6012 7.03551 11.4965 6.93034C11.4572 6.89079 11.4182 6.85105 11.3794 6.81107C10.8777 6.29467 10.3238 6.00968 9.60141 5.95833C9.39457 5.96109 9.19696 6.00484 8.99642 6.05267C8.79697 6.06483 8.65599 5.9538 8.49174 5.85246C8.19597 5.67398 7.87586 5.57823 7.54814 5.47458C7.05277 5.31706 6.62885 5.15558 6.22395 4.81623C6.18899 4.78727 6.15404 4.75831 6.11803 4.72847C5.82697 4.47138 5.82697 4.47138 5.77586 4.3181C5.81106 4.30141 5.81106 4.30141 5.84696 4.28438C5.9312 4.24053 6.00394 4.19282 6.08032 4.13661C6.10655 4.11736 6.13277 4.0981 6.1598 4.07826C6.18674 4.05828 6.2137 4.0383 6.24147 4.01771C6.26873 3.99773 6.29599 3.97775 6.32407 3.95716C6.47673 3.84464 6.47673 3.84464 6.61695 3.71733C5.72054 3.36703 4.4313 2.87311 3.58305 3.56713ZM3.73325 6.72118C3.53191 6.96068 3.38152 7.23854 3.2326 7.5122C3.21427 7.54487 3.19595 7.57755 3.17707 7.6112C3.16028 7.64275 3.1435 7.67431 3.12622 7.70682C3.111 7.7349 3.0958 7.76297 3.08014 7.7919C3.02984 7.9563 3.07635 8.08647 3.14386 8.23986C3.17632 8.30042 3.17632 8.30042 3.20945 8.36219C3.2459 8.43049 3.2459 8.43049 3.28311 8.50016C3.30963 8.54884 3.33619 8.5975 3.36277 8.64616C3.38289 8.68335 3.38289 8.68335 3.40343 8.7213C3.65573 9.18733 3.92567 9.64068 4.21386 10.0855C4.23112 10.1122 4.24838 10.1389 4.26615 10.1665C4.37973 10.3415 4.49626 10.5143 4.61438 10.6863C4.63527 10.7168 4.65617 10.7472 4.6777 10.7787C5.00352 11.2528 5.34196 11.7147 5.69577 12.1682C5.73411 12.2177 5.77243 12.2673 5.81075 12.3168C6.02466 12.5924 6.24546 12.8608 6.47208 13.126C6.56916 13.2398 6.6633 13.3558 6.75713 13.4724C6.92246 13.6756 7.0977 13.868 7.27577 14.06C7.35726 14.1483 7.43706 14.2375 7.5156 14.3285C7.88292 14.7504 8.27152 15.1499 8.66942 15.543C8.83332 15.7054 8.9959 15.8692 9.1585 16.0328C9.22169 16.0963 9.2849 16.1598 9.34812 16.2233C9.39122 16.2665 9.43428 16.3098 9.47731 16.3532C9.69624 16.5739 9.91503 16.7925 10.1517 16.9944C10.2624 17.0894 10.368 17.1899 10.4744 17.2898C10.6665 17.4685 10.8637 17.638 11.0684 17.8023C11.1737 17.888 11.2763 17.9761 11.3785 18.0652C11.6596 18.3098 11.9503 18.5383 12.2477 18.7626C12.3666 18.8524 12.4843 18.9436 12.6012 19.0361C13.0236 19.3702 13.4573 19.6809 13.9063 19.9783C13.9399 20.0005 13.9735 20.0227 14.0082 20.0457C14.6391 20.4626 15.281 20.8501 15.9444 21.2129C16.0242 21.2572 16.1033 21.3028 16.182 21.3489C16.2274 21.3749 16.2727 21.4008 16.3194 21.4276C16.3584 21.4505 16.3975 21.4733 16.4377 21.4969C16.6011 21.5601 16.7073 21.536 16.8663 21.4671C16.9524 21.4253 17.0365 21.3808 17.1204 21.335C17.1503 21.3189 17.1801 21.3029 17.2109 21.2864C17.4428 21.1599 17.6614 21.0199 17.8714 20.8593C17.7587 20.7466 17.6204 20.7007 17.4759 20.639C15.1312 19.6132 13.0007 18.0038 11.1301 16.272C11.038 16.1874 10.9446 16.1048 10.8499 16.0231C10.726 15.9159 10.6107 15.8024 10.496 15.6855C10.4285 15.6192 10.3591 15.5583 10.2869 15.4973C10.0576 15.2979 9.845 15.0817 9.63064 14.8667C9.55838 14.7942 9.48592 14.7219 9.41343 14.6497C9.20076 14.4372 8.98957 14.2253 8.79577 13.9951C8.73348 13.9233 8.66735 13.8568 8.59949 13.7902C8.45083 13.6436 8.3147 13.4883 8.17896 13.3296C8.14308 13.2879 8.1072 13.2461 8.07132 13.2044C7.98933 13.1089 7.90747 13.0133 7.82569 12.9176C7.7428 12.8207 7.65957 12.7241 7.57599 12.6278C7.3207 12.3332 7.07539 12.0327 6.83692 11.7243C6.77288 11.642 6.7081 11.5603 6.64323 11.4787C6.33204 11.0857 6.04123 10.6828 5.76281 10.2659C5.69262 10.1609 5.62194 10.0563 5.5512 9.95176C5.27988 9.54941 5.01591 9.14483 4.77458 8.72376C4.75913 8.69693 4.74368 8.67009 4.72776 8.64245C4.52071 8.28114 4.32593 7.91422 4.13877 7.54224C4.12065 7.50638 4.10254 7.47052 4.08387 7.43358C3.96788 7.2005 3.86622 6.96437 3.7733 6.72118C3.76007 6.72118 3.74686 6.72118 3.73325 6.72118Z" fill="white"/>
<path d="M2.53137 15.412C4.38562 15.5251 6.14593 16.2893 7.40013 17.6874C7.44655 17.7429 7.49239 17.7988 7.53781 17.8551C7.58264 17.9097 7.58264 17.9097 7.62839 17.9654C8.58856 19.1698 9.06565 20.536 9.17991 22.0605C8.87921 22.0046 8.6121 21.9054 8.33132 21.7852C8.28573 21.7657 8.24014 21.7462 8.19316 21.7261C7.2292 21.306 6.36113 20.7566 5.57529 20.058C5.55099 20.037 5.52669 20.0162 5.50167 19.9946C5.03438 19.5917 4.58343 19.1509 4.21354 18.6562C4.19394 18.6301 4.17434 18.6041 4.15416 18.5772C3.85458 18.177 3.57749 17.7701 3.33241 17.3344C3.31798 17.3093 3.30355 17.2844 3.28869 17.2585C3.07932 16.8928 2.909 16.5163 2.75166 16.1254C2.73429 16.0823 2.71691 16.0393 2.69902 15.9948C2.62211 15.7992 2.561 15.621 2.53137 15.412Z" fill="white"/>
<path d="M9.75339 7.14451C9.81636 7.15201 9.81636 7.15201 9.88061 7.15968C10.2634 7.27508 10.5384 7.58112 10.8129 7.85761C10.8532 7.89782 10.8935 7.93802 10.9338 7.97819C11.0177 8.06196 11.1015 8.14593 11.185 8.23006C11.2915 8.33721 11.3985 8.4438 11.5056 8.55024C11.5888 8.63297 11.6717 8.716 11.7545 8.7991C11.7938 8.8385 11.8332 8.87781 11.8727 8.91703C12.1993 9.24186 12.4948 9.54876 12.5071 10.0296C12.4906 10.3868 12.3741 10.6778 12.1114 10.9243C11.8002 11.1696 11.4951 11.2096 11.1027 11.1672C10.6534 11.0518 10.3275 10.6393 10.0106 10.325C9.99169 10.3063 9.97269 10.2874 9.9532 10.2681C9.85319 10.1689 9.75327 10.0696 9.65346 9.97018C9.5511 9.86821 9.44828 9.76679 9.34536 9.66545C9.26551 9.58665 9.18603 9.50749 9.10663 9.42824C9.05071 9.37261 8.99442 9.31737 8.93811 9.26214C8.64658 8.96962 8.45521 8.70203 8.44922 8.27596C8.45429 7.89436 8.54778 7.68096 8.80968 7.40171C9.07673 7.1662 9.40561 7.09737 9.75339 7.14451Z" fill="white"/>
</svg>
