<svg width="24" height="24" viewBox="0 0 24 24" fill="none" xmlns="http://www.w3.org/2000/svg">
<path d="M15.1211 13.2836C15.1875 13.2833 15.1875 13.2833 15.2552 13.283C15.3033 13.283 15.3514 13.2829 15.4009 13.2829C15.4524 13.2827 15.504 13.2825 15.5555 13.2823C15.6951 13.2818 15.8347 13.2816 15.9744 13.2815C16.0618 13.2813 16.1492 13.2812 16.2366 13.281C16.5106 13.2805 16.7846 13.2802 17.0586 13.28C17.374 13.2799 17.6893 13.2792 18.0046 13.2782C18.249 13.2774 18.4934 13.277 18.7377 13.277C18.8834 13.2769 19.029 13.2767 19.1747 13.2761C19.3119 13.2755 19.4491 13.2754 19.5863 13.2757C19.66 13.2757 19.7337 13.2752 19.8073 13.2747C20.3399 13.2771 20.8325 13.4043 21.2329 13.773C21.5353 14.0994 21.7344 14.4932 21.7361 14.941C21.7365 15.0109 21.7365 15.0109 21.7369 15.0823C21.737 15.1338 21.7371 15.1854 21.7372 15.237C21.7374 15.2914 21.7377 15.3458 21.7379 15.4002C21.7387 15.5788 21.7391 15.7575 21.7394 15.9361C21.7396 15.9977 21.7397 16.0594 21.7399 16.121C21.7406 16.4107 21.7411 16.7004 21.7414 16.9901C21.7417 17.3237 21.7427 17.6574 21.7442 17.9911C21.7453 18.2494 21.7458 18.5077 21.746 18.7661C21.746 18.9201 21.7464 19.0742 21.7473 19.2283C21.7481 19.3735 21.7483 19.5186 21.7479 19.6638C21.7479 19.7168 21.7481 19.7698 21.7486 19.8227C21.7538 20.4021 21.6023 20.8215 21.2076 21.2468C20.7955 21.6369 20.3429 21.7112 19.7941 21.7092C19.7397 21.7095 19.6853 21.7097 19.6308 21.71C19.484 21.7107 19.3371 21.7106 19.1902 21.7104C19.0672 21.7103 18.9441 21.7105 18.8211 21.7107C18.5305 21.7113 18.24 21.7112 17.9495 21.7108C17.6507 21.7104 17.352 21.7109 17.0533 21.7119C16.7959 21.7127 16.5385 21.7129 16.281 21.7127C16.1277 21.7126 15.9744 21.7127 15.8211 21.7133C15.6768 21.7139 15.5325 21.7137 15.3882 21.713C15.3356 21.7129 15.283 21.713 15.2303 21.7134C14.7457 21.7167 14.3715 21.6219 13.9828 21.329C13.9512 21.3079 13.9195 21.2868 13.8869 21.2651C13.552 20.9477 13.3462 20.5055 13.3181 20.0461C13.3153 19.9116 13.3147 19.7772 13.315 19.6427C13.3148 19.5911 13.3146 19.5396 13.3144 19.488C13.3139 19.3489 13.3139 19.2097 13.314 19.0705C13.314 18.9539 13.3138 18.8373 13.3137 18.7207C13.3133 18.4454 13.3132 18.1701 13.3135 17.8947C13.3137 17.6117 13.3132 17.3286 13.3125 17.0455C13.3118 16.8016 13.3116 16.5577 13.3117 16.3138C13.3118 16.1685 13.3117 16.0233 13.3112 15.878C13.3107 15.7412 13.3108 15.6045 13.3113 15.4677C13.3114 15.3943 13.311 15.3209 13.3105 15.2475C13.3138 14.6752 13.4562 14.1962 13.8541 13.7759C14.2155 13.4424 14.6324 13.285 15.1211 13.2836Z" fill="#FFBC0F"/>
<path d="M14.9778 3.01383C15.0244 3.01357 15.071 3.01331 15.1191 3.01304C15.1706 3.01293 15.2222 3.01283 15.2738 3.01274C15.3282 3.01251 15.3826 3.01227 15.437 3.01201C15.6156 3.01124 15.7943 3.01086 15.9729 3.0105C16.0345 3.01035 16.0962 3.0102 16.1578 3.01005C16.4475 3.00935 16.7372 3.00883 17.0269 3.00853C17.3605 3.00817 17.6942 3.00721 18.0279 3.00573C18.2862 3.00463 18.5445 3.00409 18.8029 3.00397C18.9569 3.00388 19.111 3.00356 19.2651 3.00263C19.4103 3.00178 19.5554 3.00163 19.7006 3.002C19.7536 3.00202 19.8066 3.00179 19.8595 3.00129C20.4389 2.99608 20.8583 3.14766 21.2836 3.54228C21.6737 3.95447 21.748 4.40703 21.746 4.9558C21.7463 5.01023 21.7465 5.06466 21.7468 5.1191C21.7475 5.26597 21.7474 5.41283 21.7472 5.5597C21.7471 5.68276 21.7473 5.80581 21.7475 5.92886C21.7481 6.21939 21.748 6.50992 21.7476 6.80046C21.7472 7.09919 21.7477 7.39792 21.7487 7.69666C21.7495 7.95406 21.7497 8.21146 21.7495 8.46887C21.7494 8.6222 21.7495 8.77553 21.7501 8.92886C21.7507 9.07315 21.7505 9.21743 21.7498 9.36173C21.7497 9.41435 21.7498 9.46697 21.7502 9.51959C21.7535 10.0042 21.6587 10.3785 21.3658 10.7671C21.3447 10.7987 21.3236 10.8304 21.3019 10.863C20.9845 11.198 20.5423 11.4038 20.0829 11.4319C19.9484 11.4347 19.814 11.4352 19.6795 11.435C19.6279 11.4351 19.5764 11.4353 19.5249 11.4355C19.3857 11.436 19.2465 11.436 19.1073 11.4359C18.9907 11.4359 18.8741 11.4361 18.7575 11.4363C18.4822 11.4367 18.2069 11.4367 17.9315 11.4365C17.6485 11.4362 17.3654 11.4367 17.0823 11.4375C16.8384 11.4381 16.5945 11.4383 16.3506 11.4382C16.2054 11.4381 16.0601 11.4382 15.9148 11.4387C15.778 11.4392 15.6413 11.4391 15.5045 11.4387C15.4311 11.4385 15.3577 11.4389 15.2843 11.4394C14.712 11.4361 14.233 11.2937 13.8127 10.8959C13.4792 10.5344 13.3218 10.1175 13.3204 9.62882C13.3202 9.58456 13.32 9.54031 13.3198 9.49471C13.3198 9.44663 13.3197 9.39856 13.3197 9.34903C13.3195 9.2975 13.3193 9.24597 13.3191 9.19444C13.3187 9.05481 13.3184 8.91518 13.3183 8.77555C13.3181 8.68814 13.318 8.60073 13.3178 8.51331C13.3173 8.2393 13.317 7.96529 13.3168 7.69129C13.3167 7.37595 13.316 7.06062 13.315 6.74528C13.3142 6.50092 13.3138 6.25655 13.3138 6.01218C13.3137 5.86653 13.3135 5.72088 13.3129 5.57523C13.3123 5.43802 13.3122 5.30082 13.3125 5.1636C13.3125 5.08993 13.312 5.01626 13.3115 4.94259C13.3139 4.41003 13.4411 3.9174 13.8098 3.51701C14.1362 3.21467 14.53 3.01555 14.9778 3.01383Z" fill="#FFBC0F"/>
<path d="M5.07095 13.2787C5.12249 13.2785 5.17404 13.2784 5.22559 13.2781C5.36476 13.2777 5.50392 13.2776 5.64309 13.2777C5.7597 13.2778 5.8763 13.2776 5.9929 13.2774C6.26824 13.277 6.54358 13.277 6.81892 13.2772C7.10198 13.2774 7.38504 13.277 7.6681 13.2762C7.912 13.2756 8.1559 13.2753 8.39981 13.2755C8.54509 13.2755 8.69037 13.2754 8.83565 13.2749C8.97241 13.2745 9.10917 13.2745 9.24593 13.275C9.31934 13.2751 9.39275 13.2747 9.46616 13.2743C10.0385 13.2776 10.5175 13.42 10.9378 13.8178C11.2712 14.1792 11.4286 14.5962 11.43 15.0848C11.4302 15.1291 11.4304 15.1734 11.4306 15.219C11.4307 15.2911 11.4307 15.2911 11.4308 15.3646C11.4309 15.4162 11.4311 15.4677 11.4313 15.5192C11.4318 15.6589 11.432 15.7985 11.4322 15.9381C11.4323 16.0255 11.4324 16.1129 11.4326 16.2004C11.4331 16.4744 11.4335 16.7484 11.4336 17.0224C11.4338 17.3377 11.4344 17.653 11.4355 17.9684C11.4363 18.2127 11.4366 18.4571 11.4367 18.7015C11.4367 18.8471 11.4369 18.9928 11.4376 19.1384C11.4382 19.2756 11.4383 19.4128 11.4379 19.5501C11.4379 19.6237 11.4384 19.6974 11.4389 19.7711C11.4365 20.3036 11.3093 20.7963 10.9406 21.1967C10.6142 21.499 10.2205 21.6981 9.77264 21.6998C9.70272 21.7002 9.70272 21.7002 9.63138 21.7006C9.5798 21.7007 9.52821 21.7008 9.47662 21.7009C9.42222 21.7012 9.36782 21.7014 9.31342 21.7017C9.13479 21.7024 8.95616 21.7028 8.77753 21.7032C8.7159 21.7033 8.65428 21.7035 8.59265 21.7036C8.30295 21.7043 8.01326 21.7048 7.72356 21.7051C7.38989 21.7055 7.05623 21.7065 6.72257 21.7079C6.46424 21.709 6.20591 21.7096 5.94758 21.7097C5.7935 21.7098 5.63944 21.7101 5.48537 21.711C5.34018 21.7119 5.19501 21.712 5.04981 21.7117C4.99684 21.7116 4.94386 21.7119 4.89089 21.7124C4.31155 21.7176 3.89218 21.566 3.46685 21.1714C3.07674 20.7592 3.00248 20.3066 3.00439 19.7579C3.00418 19.7034 3.00393 19.649 3.00363 19.5946C3.00298 19.4477 3.00302 19.3008 3.00323 19.154C3.00334 19.0309 3.00312 18.9079 3.0029 18.7848C3.00238 18.4943 3.00244 18.2037 3.00286 17.9132C3.00327 17.6145 3.00276 17.3157 3.00178 17.017C3.00097 16.7596 3.00073 16.5022 3.00094 16.2448C3.00107 16.0915 3.00098 15.9381 3.00035 15.7848C2.99978 15.6405 2.99993 15.4962 3.00062 15.3519C3.00075 15.2993 3.00064 15.2467 3.00026 15.1941C2.99698 14.7095 3.09175 14.3352 3.38462 13.9466C3.41628 13.8991 3.41628 13.8991 3.44858 13.8506C3.89439 13.3801 4.45067 13.2775 5.07095 13.2787Z" fill="#FFBC0F"/>
<path d="M4.95562 3.00439C5.01005 3.00418 5.06448 3.00393 5.11891 3.00363C5.26578 3.00298 5.41265 3.00302 5.55952 3.00323C5.68257 3.00334 5.80562 3.00312 5.92868 3.0029C6.21921 3.00238 6.50974 3.00244 6.80027 3.00286C7.09901 3.00327 7.39774 3.00276 7.69647 3.00178C7.95388 3.00097 8.21128 3.00073 8.46869 3.00094C8.62202 3.00107 8.77534 3.00098 8.92868 3.00035C9.07297 2.99978 9.21725 2.99993 9.36154 3.00062C9.41416 3.00075 9.46679 3.00064 9.51941 3.00026C10.004 2.99698 10.3783 3.09175 10.7669 3.38462C10.7986 3.40573 10.8302 3.42683 10.8628 3.44858C11.1978 3.76589 11.4036 4.20817 11.4317 4.6675C11.4345 4.80203 11.435 4.93639 11.4348 5.07095C11.4349 5.12249 11.4351 5.17404 11.4353 5.22559C11.4358 5.36476 11.4359 5.50392 11.4358 5.64309C11.4357 5.7597 11.4359 5.8763 11.4361 5.9929C11.4365 6.26824 11.4365 6.54358 11.4363 6.81892C11.4361 7.10198 11.4365 7.38504 11.4373 7.6681C11.4379 7.912 11.4381 8.1559 11.438 8.39981C11.438 8.54509 11.4381 8.69037 11.4386 8.83565C11.439 8.97241 11.4389 9.10917 11.4385 9.24593C11.4383 9.31934 11.4388 9.39275 11.4392 9.46616C11.4359 10.0385 11.2935 10.5175 10.8957 10.9378C10.5342 11.2712 10.1173 11.4286 9.62864 11.43C9.56225 11.4303 9.56225 11.4303 9.49453 11.4306C9.42241 11.4307 9.42241 11.4307 9.34884 11.4308C9.29732 11.4309 9.24579 11.4311 9.19426 11.4313C9.05463 11.4318 8.915 11.432 8.77537 11.4322C8.68796 11.4323 8.60054 11.4324 8.51313 11.4326C8.23912 11.4331 7.96511 11.4335 7.6911 11.4336C7.37577 11.4338 7.06044 11.4344 6.7451 11.4355C6.50073 11.4363 6.25637 11.4366 6.012 11.4367C5.86635 11.4367 5.7207 11.4369 5.57505 11.4376C5.43784 11.4382 5.30063 11.4383 5.16342 11.4379C5.08975 11.4379 5.01608 11.4384 4.94241 11.4389C4.40984 11.4365 3.91721 11.3093 3.51683 10.9406C3.21448 10.6142 3.01537 10.2205 3.01365 9.77264C3.01338 9.72603 3.01312 9.67941 3.01285 9.63138C3.01275 9.5798 3.01265 9.52821 3.01256 9.47662C3.01233 9.42222 3.01208 9.36782 3.01183 9.31342C3.01106 9.13479 3.01068 8.95616 3.01032 8.77753C3.01017 8.7159 3.01002 8.65428 3.00986 8.59265C3.00917 8.30295 3.00865 8.01326 3.00834 7.72356C3.00799 7.38989 3.00703 7.05623 3.00555 6.72257C3.00444 6.46424 3.0039 6.20591 3.00378 5.94758C3.0037 5.7935 3.00337 5.63944 3.00245 5.48537C3.00159 5.34018 3.00145 5.19501 3.00182 5.04981C3.00184 4.99684 3.00161 4.94386 3.00111 4.89089C2.99589 4.31155 3.14748 3.89218 3.5421 3.46685C3.95429 3.07674 4.40685 3.00248 4.95562 3.00439Z" fill="#FFBC0F"/>
</svg>
