<svg width="56" height="56" viewBox="0 0 56 56" fill="none" xmlns="http://www.w3.org/2000/svg">
<rect x="0.470703" width="55.0588" height="55.0588" rx="12" fill="url(#paint0_linear_7_284)"/>
<path d="M28.0001 32.6816C27.808 32.6816 27.6278 32.6518 27.4597 32.5922C27.2916 32.5327 27.1354 32.4304 26.9913 32.2853L21.8031 27.0971C21.5388 26.8329 21.4067 26.4966 21.4067 26.0882C21.4067 25.6799 21.5388 25.3436 21.8031 25.0794C22.0673 24.8152 22.4098 24.6773 22.8306 24.6658C23.2514 24.6542 23.5934 24.7801 23.8567 25.0434L26.5589 27.7456V17.4412C26.5589 17.0329 26.6973 16.6903 26.974 16.4136C27.2507 16.1369 27.5928 15.999 28.0001 16C28.4085 16 28.751 16.1384 29.0277 16.4151C29.3044 16.6918 29.4422 17.0338 29.4413 17.4412V27.7456L32.1435 25.0434C32.4077 24.7792 32.7502 24.6528 33.1711 24.6643C33.5919 24.6759 33.9339 24.8143 34.1972 25.0794C34.4614 25.3436 34.5935 25.6799 34.5935 26.0882C34.5935 26.4966 34.4614 26.8329 34.1972 27.0971L29.009 32.2853C28.8648 32.4294 28.7087 32.5317 28.5406 32.5922C28.3724 32.6528 28.1923 32.6826 28.0001 32.6816ZM19.3531 39.0588C18.5604 39.0588 17.8816 38.7763 17.3167 38.2114C16.7517 37.6465 16.4697 36.9681 16.4707 36.1765V33.2941C16.4707 32.8858 16.6091 32.5433 16.8858 32.2665C17.1625 31.9898 17.5045 31.852 17.9119 31.853C18.3202 31.853 18.6627 31.9913 18.9394 32.268C19.2161 32.5447 19.354 32.8867 19.3531 33.2941V36.1765H36.6472V33.2941C36.6472 32.8858 36.7855 32.5433 37.0622 32.2665C37.339 31.9898 37.681 31.852 38.0884 31.853C38.4967 31.853 38.8392 31.9913 39.1159 32.268C39.3926 32.5447 39.5305 32.8867 39.5295 33.2941V36.1765C39.5295 36.9691 39.2471 37.6479 38.6821 38.2128C38.1172 38.7778 37.4388 39.0598 36.6472 39.0588H19.3531Z" fill="white"/>
<defs>
<linearGradient id="paint0_linear_7_284" x1="28.0001" y1="0" x2="28.0001" y2="55.0588" gradientUnits="userSpaceOnUse">
<stop stop-color="#9400D3"/>
<stop offset="1" stop-color="#4B0082"/>
</linearGradient>
</defs>
</svg>
