<svg width="24" height="24" viewBox="0 0 24 24" fill="none" xmlns="http://www.w3.org/2000/svg">
<path d="M9.35897 13.032C10.0731 13.032 10.652 13.6017 10.652 14.3042V19.2645C10.652 19.9671 10.0731 20.5366 9.35897 20.5366H8.00302C6.93155 20.5366 6.06369 19.6822 6.06369 18.6288V14.9405C6.06369 13.8864 6.93218 13.0326 8.00302 13.0326L9.35897 13.032ZM16.803 13.032C17.8745 13.032 18.7424 13.8864 18.7424 14.9399V18.6282C18.7424 19.6822 17.8739 20.536 16.803 20.536H15.4471C14.733 20.536 14.154 19.9664 14.154 19.2639V14.3035C14.154 13.6011 14.733 13.0314 15.4471 13.0314L16.803 13.032ZM12.3753 4C17.4742 4 21.6224 7.99203 21.747 12.9629L21.75 13.1931V16.9482C21.75 17.4663 21.3217 17.8865 20.7931 17.8865C20.2976 17.8865 19.8904 17.5172 19.8412 17.0443L19.8362 16.9482V13.1931C19.8362 9.15206 16.4955 5.8766 12.3747 5.8766C8.32359 5.8766 5.0271 9.04241 4.91628 12.9885L4.91317 13.1931V16.9598C4.91317 17.478 4.48484 17.8981 3.95628 17.8981C3.4607 17.8981 3.05354 17.5288 3.00499 17.0559L3 16.9598V13.1931C3 8.11638 7.19739 4.00061 12.3747 4.00061L12.3753 4Z" fill="#fff"/>
</svg>
