<svg width="24" height="24" viewBox="0 0 24 24" fill="none" xmlns="http://www.w3.org/2000/svg">
<path d="M12.0001 16.6816C11.808 16.6816 11.6278 16.6518 11.4597 16.5922C11.2916 16.5327 11.1354 16.4304 10.9913 16.2853L5.80306 11.0971C5.53884 10.8329 5.40673 10.4966 5.40673 10.0882C5.40673 9.67989 5.53884 9.34361 5.80306 9.07939C6.06727 8.81518 6.40979 8.67732 6.83062 8.66582C7.25145 8.65424 7.59345 8.7801 7.85674 9.04339L10.5589 11.7456V1.44118C10.5589 1.03285 10.6973 0.690328 10.974 0.413623C11.2507 0.136917 11.5928 -0.00095579 12.0001 4.98667e-06C12.4085 4.98667e-06 12.751 0.138358 13.0277 0.415064C13.3044 0.691768 13.4422 1.03381 13.4413 1.44118V11.7456L16.1435 9.04339C16.4077 8.77918 16.7502 8.65283 17.1711 8.66434C17.5919 8.67591 17.9339 8.81427 18.1972 9.07939C18.4614 9.34361 18.5935 9.67989 18.5935 10.0882C18.5935 10.4966 18.4614 10.8329 18.1972 11.0971L13.009 16.2853C12.8648 16.4294 12.7087 16.5317 12.5406 16.5922C12.3724 16.6528 12.1923 16.6826 12.0001 16.6816ZM3.35306 23.0588C2.56041 23.0588 1.88161 22.7763 1.31668 22.2114C0.751737 21.6465 0.469744 20.9681 0.470706 20.1765V17.2941C0.470706 16.8858 0.609059 16.5433 0.885763 16.2665C1.16247 15.9898 1.50451 15.852 1.91188 15.853C2.32021 15.853 2.66274 15.9913 2.93944 16.268C3.21615 16.5447 3.35402 16.8867 3.35306 17.2941V20.1765H20.6472V17.2941C20.6472 16.8858 20.7855 16.5433 21.0622 16.2665C21.339 15.9898 21.681 15.852 22.0884 15.853C22.4967 15.853 22.8392 15.9913 23.1159 16.268C23.3926 16.5447 23.5305 16.8867 23.5295 17.2941V20.1765C23.5295 20.9691 23.2471 21.6479 22.6821 22.2128C22.1172 22.7778 21.4388 23.0598 20.6472 23.0588H3.35306Z" fill="white"/>
</svg>
