<svg width="24" height="24" viewBox="0 0 24 24" fill="none" xmlns="http://www.w3.org/2000/svg">
<path fill-rule="evenodd" clip-rule="evenodd" d="M12.3712 21.75H12.5014C12.5677 21.75 12.634 21.7488 12.6991 21.7453C14.3975 21.6861 16.0983 21.118 17.4132 20.0042C18.8287 18.8029 19.7496 17.0051 19.7496 14.6687C19.7496 10.0481 12.9879 8.48345 14.6283 3C8.82882 4.67474 5 10.9654 5 14.6687C5 16.9814 5.92318 18.7722 7.33635 19.9747C8.73296 21.1618 10.5675 21.7429 12.3712 21.75ZM10.8196 19.7143C11.7155 20.4765 13.2885 20.4954 14.1915 19.7297C14.5798 19.4006 14.878 18.8893 14.878 18.0821C14.878 16.6559 12.7003 15.4132 12.473 13.2047C11.6895 14.3101 10.1296 16.6074 10.1296 18.081C10.1296 18.8692 10.4255 19.3805 10.8196 19.7143Z" fill="#FFBC0F"/>
</svg>
