<svg width="24" height="24" viewBox="0 0 24 24" fill="none" xmlns="http://www.w3.org/2000/svg">
<path fill-rule="evenodd" clip-rule="evenodd" d="M6.60019 15.1281C5.73169 14.0218 5.19189 12.6934 5.04245 11.2949C4.893 9.89627 5.13995 8.48386 5.75508 7.21897C6.37021 5.95407 7.32871 4.88769 8.52109 4.14165C9.71348 3.39562 11.0917 3 12.4982 3C13.9047 3 15.2829 3.39562 16.4753 4.14165C17.6677 4.88769 18.6262 5.95407 19.2413 7.21897C19.8564 8.48386 20.1034 9.89627 19.9539 11.2949C19.8045 12.6934 19.2647 14.0218 18.3962 15.1281C16.5676 15.842 14.5778 16.2336 12.4975 16.2336C10.4172 16.2336 8.42746 15.842 6.60019 15.1281ZM12.9051 6.68435C13.1914 7.07458 13.4738 7.7365 13.6336 8.14803C13.7201 8.36778 13.9266 8.52094 14.1623 8.53826C14.6205 8.57288 15.3743 8.65146 15.8284 8.80995C16.2413 8.95512 16.2892 9.1802 16.0362 9.53047C15.7538 9.92336 15.2025 10.4135 14.8602 10.7011C14.7722 10.7751 14.7067 10.8721 14.6709 10.9813C14.6351 11.0905 14.6306 11.2075 14.6577 11.3191C14.7643 11.7546 14.9215 12.4738 14.9175 12.9599C14.9135 13.4141 14.7177 13.5539 14.2822 13.4181C13.82 13.2742 13.1981 12.9027 12.8212 12.6643C12.723 12.6017 12.6092 12.5681 12.4928 12.5674C12.3764 12.5667 12.2621 12.5989 12.1632 12.6603C11.809 12.8827 11.2376 13.2196 10.7915 13.3834C10.2787 13.5712 10.0416 13.4167 10.0483 12.864C10.055 12.3832 10.2081 11.732 10.3173 11.3244C10.3476 11.2116 10.3455 11.0925 10.3111 10.9808C10.2767 10.8691 10.2114 10.7694 10.1229 10.6932C9.78726 10.4068 9.25719 9.92602 8.97218 9.53446C8.71114 9.17354 8.73511 8.9165 9.17994 8.762C9.63276 8.60618 10.3626 8.54891 10.8141 8.5276C10.9326 8.52197 11.0471 8.48247 11.1439 8.41378C11.2407 8.34509 11.3157 8.25009 11.3601 8.14004C11.5253 7.72717 11.8103 7.07192 12.0926 6.68569C12.3697 6.30745 12.6254 6.30611 12.9051 6.68435Z" fill="#FFBC0F"/>
<path d="M5.6377 19.1942C5.6377 18.2433 6.41815 16.5093 6.41815 16.5093C8.27871 17.4376 10.3337 17.6626 12.4979 17.6626C14.6595 17.6626 16.7158 17.4362 18.5764 16.5093C18.5764 16.5093 19.3555 18.2433 19.3555 19.1942C19.3555 21.5875 13.6153 21.75 12.4966 21.75C11.3845 21.75 5.6377 21.5942 5.6377 19.1929V19.1942Z" fill="#FFBC0F"/>
</svg>
