<svg width="24" height="24" viewBox="0 0 24 24" fill="none" xmlns="http://www.w3.org/2000/svg">
<path d="M4.56997 11.8541C4.59726 11.854 4.62455 11.8539 4.65267 11.8538C4.74462 11.8536 4.83658 11.8535 4.92854 11.8535C4.99493 11.8534 5.06133 11.8532 5.12772 11.853C5.31058 11.8526 5.49344 11.8524 5.67631 11.8522C5.87338 11.852 6.07045 11.8516 6.26752 11.8512C6.74368 11.8503 7.21985 11.8498 7.69601 11.8493C7.8305 11.8492 7.96499 11.849 8.09947 11.8489C8.93456 11.8479 9.76965 11.8471 10.6047 11.8467C10.7982 11.8466 10.9917 11.8465 11.1851 11.8464C11.2332 11.8463 11.2813 11.8463 11.3308 11.8463C12.1096 11.8458 12.8884 11.8446 13.6672 11.8431C14.4668 11.8415 15.2663 11.8407 16.0659 11.8405C16.5148 11.8403 16.9637 11.8399 17.4126 11.8387C17.795 11.8377 18.1773 11.8373 18.5597 11.8377C18.7547 11.8379 18.9498 11.8378 19.1448 11.8369C19.3235 11.8361 19.5022 11.8361 19.681 11.8368C19.7455 11.8369 19.8099 11.8367 19.8744 11.8361C20.4508 11.8315 20.8847 11.9494 21.3137 12.3553C21.5984 12.657 21.7329 13.0228 21.7332 13.4296C21.7333 13.4592 21.7335 13.4888 21.7336 13.5194C21.7341 13.6188 21.7344 13.7182 21.7346 13.8176C21.7349 13.8888 21.7352 13.9601 21.7355 14.0313C21.7364 14.2654 21.737 14.4996 21.7375 14.7337C21.7377 14.8144 21.7379 14.8951 21.7381 14.9758C21.7389 15.3116 21.7396 15.6474 21.74 15.9832C21.7406 16.4639 21.7418 16.9446 21.7439 17.4252C21.7453 17.7635 21.746 18.1017 21.7462 18.44C21.7463 18.6419 21.7468 18.8437 21.748 19.0456C21.7491 19.2357 21.7493 19.4258 21.7489 19.616C21.7489 19.6855 21.7492 19.755 21.7498 19.8245C21.7551 20.4242 21.657 20.8594 21.2313 21.3093C20.939 21.5853 20.5763 21.7288 20.18 21.7282C20.1527 21.7283 20.1254 21.7283 20.0973 21.7284C20.0054 21.7287 19.9134 21.7288 19.8215 21.7288C19.7551 21.7289 19.6887 21.7291 19.6223 21.7293C19.4394 21.7297 19.2566 21.7299 19.0737 21.7301C18.8766 21.7303 18.6796 21.7307 18.4825 21.7311C18.0063 21.732 17.5302 21.7325 17.054 21.733C16.9195 21.7331 16.785 21.7333 16.6505 21.7334C15.8154 21.7344 14.9803 21.7352 14.1453 21.7356C13.9518 21.7357 13.7583 21.7358 13.5649 21.7359C13.4927 21.736 13.4927 21.736 13.4192 21.736C12.6404 21.7365 11.8616 21.7377 11.0828 21.7392C10.2832 21.7408 9.48369 21.7416 8.68415 21.7418C8.23522 21.7419 7.7863 21.7424 7.33737 21.7436C6.95501 21.7446 6.57265 21.745 6.19028 21.7446C5.99526 21.7444 5.80024 21.7445 5.60522 21.7454C5.42647 21.7462 5.24775 21.7462 5.06901 21.7455C5.00454 21.7454 4.94007 21.7456 4.87561 21.7462C4.29917 21.7508 3.86531 21.6329 3.43632 21.227C3.15159 20.9253 3.01711 20.5595 3.01684 20.1527C3.01668 20.1231 3.01652 20.0935 3.01636 20.0629C3.01587 19.9635 3.01564 19.8641 3.01542 19.7647C3.01513 19.6935 3.01483 19.6222 3.01451 19.551C3.01355 19.3169 3.01299 19.0827 3.01247 18.8486C3.01228 18.7679 3.01208 18.6872 3.01188 18.6065C3.01109 18.2707 3.01041 17.9349 3.01 17.5991C3.00941 17.1184 3.0082 16.6377 3.00611 16.1571C3.0047 15.8188 3.00398 15.4805 3.00379 15.1423C3.00366 14.9404 3.00322 14.7386 3.00203 14.5367C3.00093 14.3466 3.00071 14.1564 3.00113 13.9663C3.00114 13.8968 3.00084 13.8273 3.0002 13.7578C2.99494 13.1581 3.09299 12.7228 3.51866 12.273C3.81102 11.997 4.17371 11.8535 4.56997 11.8541ZM16.3411 14.2429C16.1971 14.4965 16.2005 14.7416 16.2015 15.0266C16.2014 15.0689 16.2013 15.1113 16.2012 15.155C16.2008 15.2947 16.201 15.4344 16.2013 15.5741C16.2012 15.6714 16.2012 15.7688 16.2011 15.8661C16.201 16.0699 16.2011 16.2736 16.2015 16.4774C16.2019 16.7126 16.2017 16.9477 16.2013 17.1829C16.201 17.3853 16.201 17.5877 16.2012 17.79C16.2013 17.9107 16.2013 18.0314 16.201 18.152C16.2009 18.2866 16.2011 18.4212 16.2015 18.5557C16.2014 18.5954 16.2012 18.6351 16.2011 18.676C16.2018 19.0357 16.2018 19.0357 16.3731 19.3416C16.572 19.5114 16.7212 19.5355 16.9769 19.5365C17.0415 19.5368 17.0415 19.5368 17.1073 19.5372C17.1535 19.5372 17.1997 19.5372 17.2473 19.5373C17.2951 19.5374 17.3429 19.5375 17.3922 19.5377C17.4932 19.5379 17.5942 19.5379 17.6953 19.5379C17.8242 19.5379 17.9531 19.5384 18.0821 19.539C18.2057 19.5395 18.3293 19.5395 18.4529 19.5396C18.522 19.54 18.522 19.54 18.5925 19.5404C18.9796 19.5464 18.9796 19.5464 19.3095 19.369C19.4518 19.2023 19.4815 19.1085 19.4759 18.8945C19.4537 18.7391 19.396 18.648 19.2798 18.5447C19.0478 18.4288 18.8137 18.4202 18.5593 18.4244C18.5052 18.4247 18.5052 18.4247 18.4501 18.4249C18.3362 18.4255 18.2223 18.4269 18.1084 18.4283C18.0307 18.4288 17.953 18.4293 17.8753 18.4298C17.6859 18.4309 17.4965 18.4331 17.307 18.4351C17.307 18.0735 17.307 17.7118 17.307 17.3391C17.4227 17.34 17.5384 17.3408 17.6576 17.3417C17.7702 17.3423 17.8828 17.3427 17.9953 17.3432C18.0733 17.3435 18.1513 17.344 18.2293 17.3447C18.3417 17.3456 18.454 17.346 18.5664 17.3463C18.601 17.3467 18.6357 17.347 18.6714 17.3474C18.9146 17.3475 19.1184 17.3427 19.3095 17.177C19.4518 17.0103 19.4815 16.9165 19.4759 16.7025C19.4537 16.5471 19.396 16.456 19.2798 16.3527C19.0478 16.2368 18.8137 16.2282 18.5593 16.2324C18.5052 16.2327 18.5052 16.2327 18.4501 16.2329C18.3362 16.2335 18.2223 16.2349 18.1084 16.2363C18.0307 16.2368 17.953 16.2373 17.8753 16.2378C17.6859 16.2389 17.4965 16.2411 17.307 16.2431C17.307 15.8815 17.307 15.5198 17.307 15.1471C17.4227 15.148 17.5384 15.1488 17.6576 15.1497C17.7702 15.1503 17.8828 15.1507 17.9953 15.1512C18.0733 15.1515 18.1513 15.152 18.2293 15.1527C18.3417 15.1536 18.454 15.154 18.5664 15.1543C18.601 15.1547 18.6357 15.155 18.6714 15.1554C18.9146 15.1555 19.1184 15.1507 19.3095 14.985C19.4534 14.8165 19.4787 14.7237 19.474 14.5081C19.457 14.3729 19.4067 14.2975 19.3163 14.1973C19.1337 14.0615 18.9567 14.0467 18.7343 14.0453C18.6915 14.0449 18.6486 14.0446 18.6045 14.0442C18.5586 14.044 18.5126 14.0439 18.4652 14.0437C18.4176 14.0435 18.37 14.0433 18.3209 14.0431C18.2202 14.0427 18.1195 14.0425 18.0188 14.0424C17.8905 14.0422 17.7622 14.0413 17.6339 14.0403C17.5107 14.0394 17.3874 14.0393 17.2642 14.0392C17.2185 14.0387 17.1728 14.0383 17.1258 14.0378C16.8412 14.0385 16.5597 14.0412 16.3411 14.2429ZM5.39713 14.2338C5.26856 14.4067 5.24652 14.5746 5.24611 14.7858C5.24596 14.8226 5.2458 14.8594 5.24564 14.8972C5.24566 14.9372 5.24567 14.9771 5.24569 15.0183C5.24557 15.0606 5.24545 15.103 5.24532 15.1467C5.24497 15.2868 5.2449 15.4269 5.24486 15.567C5.24477 15.6398 5.24469 15.7126 5.24459 15.7854C5.24429 16.0142 5.2442 16.2431 5.24423 16.4719C5.24425 16.7076 5.24386 16.9433 5.24329 17.179C5.24281 17.3817 5.24261 17.5844 5.24264 17.7871C5.24265 17.908 5.24251 18.0289 5.24216 18.1498C5.2418 18.2847 5.2419 18.4196 5.24212 18.5546C5.24192 18.5944 5.24171 18.6342 5.2415 18.6751C5.24164 19.0353 5.24164 19.0353 5.41311 19.3416C5.61202 19.5114 5.76115 19.5355 6.0169 19.5365C6.08146 19.5368 6.08146 19.5368 6.14734 19.5372C6.19354 19.5372 6.23974 19.5372 6.28735 19.5373C6.33513 19.5374 6.38292 19.5375 6.43216 19.5377C6.53319 19.5379 6.63422 19.5379 6.73525 19.5379C6.86419 19.5379 6.99312 19.5384 7.12205 19.539C7.24569 19.5395 7.36931 19.5395 7.49295 19.5396C7.56203 19.54 7.56203 19.54 7.6325 19.5404C8.0196 19.5464 8.0196 19.5464 8.34948 19.369C8.4918 19.2023 8.5215 19.1085 8.51588 18.8945C8.49371 18.7391 8.43601 18.648 8.3198 18.5447C8.08777 18.4288 7.85374 18.4202 7.59926 18.4244C7.54523 18.4247 7.54523 18.4247 7.4901 18.4249C7.3762 18.4255 7.26233 18.4269 7.14845 18.4283C7.07074 18.4288 6.99304 18.4293 6.91533 18.4298C6.72588 18.431 6.53644 18.4329 6.347 18.4351C6.34716 18.3877 6.34732 18.3402 6.34749 18.2912C6.34897 17.8435 6.35007 17.3957 6.35078 16.9479C6.35116 16.7177 6.35168 16.4876 6.35251 16.2574C6.3533 16.0352 6.35374 15.813 6.35393 15.5908C6.35406 15.5061 6.35433 15.4213 6.35472 15.3366C6.35525 15.2178 6.35533 15.0991 6.35529 14.9803C6.35556 14.9454 6.35582 14.9104 6.35609 14.8744C6.35535 14.633 6.34923 14.4303 6.18488 14.2407C6.01634 14.0968 5.92357 14.0714 5.70795 14.0761C5.57278 14.0932 5.4973 14.1434 5.39713 14.2338ZM9.78113 14.2338C9.65256 14.4067 9.63052 14.5746 9.63011 14.7858C9.62996 14.8226 9.6298 14.8594 9.62964 14.8972C9.62966 14.9372 9.62967 14.9771 9.62969 15.0183C9.62957 15.0606 9.62945 15.103 9.62932 15.1467C9.62897 15.2868 9.6289 15.4269 9.62886 15.567C9.62877 15.6398 9.62869 15.7126 9.62859 15.7854C9.62829 16.0142 9.6282 16.2431 9.62823 16.4719C9.62825 16.7076 9.62786 16.9433 9.62729 17.179C9.62681 17.3817 9.62661 17.5844 9.62664 17.7871C9.62665 17.908 9.62651 18.0289 9.62616 18.1498C9.6258 18.2847 9.6259 18.4196 9.62612 18.5546C9.62592 18.5944 9.62571 18.6342 9.6255 18.6751C9.62564 19.0353 9.62564 19.0353 9.79712 19.3416C9.96566 19.4855 10.0584 19.5109 10.274 19.5062C10.4092 19.4891 10.4847 19.4389 10.5849 19.3485C10.7134 19.1756 10.7355 19.0077 10.7359 18.7965C10.736 18.7597 10.7362 18.7229 10.7364 18.685C10.7363 18.6251 10.7363 18.6251 10.7363 18.564C10.7364 18.5217 10.7366 18.4793 10.7367 18.4356C10.737 18.2955 10.7371 18.1554 10.7371 18.0153C10.7372 17.9425 10.7373 17.8697 10.7374 17.7969C10.7377 17.5681 10.7378 17.3392 10.7378 17.1104C10.7377 16.8747 10.7381 16.639 10.7387 16.4033C10.7392 16.2006 10.7394 15.9979 10.7394 15.7952C10.7393 15.6743 10.7395 15.5534 10.7398 15.4325C10.7402 15.2976 10.7401 15.1626 10.7399 15.0277C10.7401 14.9879 10.7403 14.9481 10.7405 14.9072C10.7404 14.5469 10.7404 14.5469 10.5689 14.2407C10.4003 14.0968 10.3076 14.0714 10.092 14.0761C9.95678 14.0932 9.8813 14.1434 9.78113 14.2338ZM11.987 14.2123C11.8387 14.3899 11.8452 14.5597 11.8635 14.7818C11.8886 14.9305 11.9242 15.0756 11.9612 15.2217C11.9716 15.2641 11.982 15.3065 11.9927 15.3502C12.0211 15.4654 12.0499 15.5806 12.0788 15.6957C12.1031 15.7922 12.127 15.8887 12.151 15.9852C12.2075 16.213 12.2645 16.4407 12.3218 16.6684C12.3807 16.9026 12.4389 17.1369 12.4967 17.3714C12.5465 17.5734 12.5968 17.7753 12.6475 17.9772C12.6776 18.0974 12.7077 18.2177 12.7372 18.338C12.7704 18.4722 12.8042 18.6062 12.8382 18.7401C12.8478 18.7796 12.8574 18.8191 12.8673 18.8598C12.9299 19.1027 13.0011 19.3222 13.2156 19.4732C13.4115 19.5308 13.5968 19.5226 13.7793 19.433C13.9236 19.3027 13.9902 19.1667 14.0373 18.9799C14.0466 18.9433 14.056 18.9067 14.0657 18.8689C14.0755 18.8292 14.0854 18.7894 14.0955 18.7484C14.1062 18.7062 14.1169 18.664 14.128 18.6206C14.1572 18.5051 14.1861 18.3896 14.2149 18.2741C14.239 18.1774 14.2633 18.0807 14.2876 17.984C14.345 17.7558 14.4021 17.5274 14.459 17.2991C14.5175 17.0641 14.5766 16.8294 14.6359 16.5946C14.6869 16.3926 14.7376 16.1904 14.7881 15.9882C14.8181 15.8677 14.8483 15.7472 14.8788 15.6268C14.9128 15.4922 14.9463 15.3575 14.9796 15.2228C14.9897 15.1834 14.9997 15.144 15.0101 15.1035C15.117 14.6792 15.117 14.6792 15.0054 14.2726C14.8955 14.142 14.7724 14.0754 14.6035 14.0511C14.4125 14.0631 14.2592 14.1285 14.1286 14.2703C14.0232 14.5172 13.961 14.7735 13.8964 15.0336C13.8796 15.1005 13.8796 15.1005 13.8625 15.1689C13.839 15.2628 13.8155 15.3567 13.7922 15.4507C13.7623 15.571 13.7322 15.6912 13.7019 15.8114C13.673 15.9265 13.6443 16.0417 13.6156 16.157C13.6047 16.2 13.5939 16.2431 13.5827 16.2875C13.5728 16.3275 13.5629 16.3675 13.5527 16.4087C13.5396 16.4614 13.5396 16.4614 13.5262 16.5152C13.5028 16.6165 13.5028 16.6165 13.5075 16.7546C13.4834 16.7546 13.4593 16.7546 13.4345 16.7546C13.4307 16.7161 13.427 16.6775 13.4231 16.6378C13.3956 16.4192 13.3405 16.2075 13.2876 15.994C13.2767 15.9495 13.2657 15.905 13.2544 15.8592C13.2313 15.7655 13.208 15.6719 13.1847 15.5783C13.1549 15.4588 13.1257 15.3392 13.0966 15.2196C13.0686 15.1047 13.0399 14.9899 13.0113 14.8751C13.001 14.8324 12.9907 14.7897 12.9801 14.7457C12.917 14.4963 12.8653 14.2927 12.6536 14.1311C12.4105 14.0211 12.192 14.0339 11.987 14.2123Z" fill="#FFBC0F"/>
<path d="M8.21051 3.01813C8.38008 3.09846 8.45375 3.18321 8.53931 3.34693C8.58623 3.5206 8.58606 3.69117 8.50468 3.85506C8.44182 3.95938 8.3733 4.05915 8.30394 4.15922C7.59249 5.18839 7.3604 6.4889 7.55577 7.71734C7.69142 8.4345 7.98121 9.12675 8.41372 9.71515C8.54144 9.90048 8.57527 10.0408 8.55857 10.265C8.52373 10.4392 8.45289 10.5379 8.31012 10.6399C8.19617 10.6974 8.12061 10.706 7.99359 10.7061C7.95709 10.7068 7.92059 10.7075 7.88299 10.7083C7.69241 10.6771 7.58566 10.5843 7.46571 10.4368C7.43712 10.3945 7.40913 10.3518 7.38166 10.3088C7.36634 10.2852 7.35102 10.2615 7.33523 10.2371C6.49345 8.90836 6.0974 7.26173 6.41895 5.69848C6.43125 5.64522 6.44393 5.59204 6.45691 5.53893C6.46436 5.50814 6.47181 5.47736 6.47949 5.44564C6.58893 5.00708 6.73235 4.59271 6.93184 4.1872C6.94304 4.16415 6.95424 4.14109 6.96579 4.11734C7.09672 3.85099 7.24345 3.59934 7.41362 3.35607C7.42838 3.3347 7.44313 3.31334 7.45834 3.29133C7.6637 3.00758 7.87635 2.97738 8.21051 3.01813Z" fill="#FFBC0F"/>
<path d="M16.7571 3.00214C16.7936 3.00143 16.8301 3.00073 16.8677 3C17.0583 3.03115 17.165 3.124 17.285 3.27143C17.3136 3.31372 17.3416 3.35642 17.369 3.39944C17.392 3.43493 17.392 3.43493 17.4155 3.47113C18.2571 4.79965 18.6538 6.44707 18.3316 8.01006C18.3193 8.06322 18.3067 8.11631 18.2938 8.16932C18.2829 8.21492 18.2829 8.21492 18.2718 8.26144C18.0881 9.0082 17.72 10.1631 17.0749 10.645C16.9023 10.7258 16.7264 10.7128 16.5402 10.6901C16.3706 10.6098 16.2969 10.525 16.2114 10.3613C16.1645 10.1877 16.1646 10.0171 16.246 9.85319C16.3088 9.74896 16.3772 9.64927 16.4467 9.54936C16.7669 9.08708 16.9876 8.56769 17.1247 8.02319C17.1364 7.97836 17.148 7.93352 17.16 7.88733C17.4357 6.6168 17.1641 5.32456 16.5037 4.22372C16.4492 4.14379 16.3921 4.06646 16.3347 3.98854C16.2077 3.80531 16.1756 3.66522 16.1921 3.44325C16.227 3.26903 16.2978 3.1704 16.4406 3.06836C16.5545 3.0109 16.6301 3.0023 16.7571 3.00214Z" fill="#FFBC0F"/>
<path d="M13.3089 5.45291C13.6551 5.70678 13.9282 6.06096 14.0185 6.48882C14.0658 7.00056 14.0244 7.44951 13.7125 7.87481C13.4476 8.18561 13.0846 8.46625 12.6637 8.5052C12.1323 8.52445 11.6976 8.48513 11.2756 8.12555C10.9786 7.84722 10.7356 7.48002 10.7205 7.06208C10.7052 6.51955 10.7855 6.09426 11.1689 5.68509C11.7175 5.10527 12.648 5.03132 13.3089 5.45291Z" fill="#FFBC0F"/>
<path d="M10.146 4.11412C10.2853 4.17764 10.3443 4.23169 10.4337 4.35387C10.4926 4.53372 10.5075 4.69422 10.4748 4.88132C10.4315 4.96397 10.3816 5.02697 10.3207 5.09752C9.85385 5.64322 9.6334 6.35399 9.68024 7.06604C9.75071 7.68204 9.9781 8.20968 10.3798 8.6835C10.4967 8.82403 10.487 8.94777 10.4851 9.12532C10.4695 9.28242 10.4251 9.35942 10.3287 9.48452C10.1935 9.58329 10.0958 9.60989 9.92912 9.61011C9.89262 9.61081 9.85613 9.61152 9.81852 9.61225C9.53315 9.5656 9.37842 9.33216 9.21786 9.11277C8.61514 8.24726 8.3851 7.1989 8.56187 6.1596C8.681 5.50547 8.95206 4.91635 9.37884 4.40639C9.39735 4.38242 9.41585 4.35845 9.43492 4.33375C9.62975 4.08411 9.84422 4.0818 10.146 4.11412Z" fill="#FFBC0F"/>
<path d="M14.8201 4.09815C14.8566 4.09744 14.8931 4.09674 14.9307 4.09601C15.2161 4.14266 15.3709 4.37613 15.5314 4.59563C15.8201 5.01037 16.0108 5.45345 16.1376 5.9408C16.1461 5.97202 16.1546 6.00325 16.1634 6.03541C16.3917 6.99608 16.1705 8.01734 15.6945 8.86546C15.6103 8.99799 15.5188 9.12286 15.4229 9.24707C15.4061 9.26898 15.3894 9.2909 15.3721 9.31348C15.2482 9.46918 15.1406 9.57934 14.9355 9.60997C14.5507 9.61047 14.5507 9.61047 14.384 9.448C14.2648 9.28517 14.2511 9.1232 14.257 8.92654C14.281 8.78893 14.3386 8.71488 14.4285 8.61073C14.8954 8.06503 15.1158 7.35427 15.069 6.64221C14.9985 6.02621 14.7711 5.49857 14.3694 5.02475C14.2525 4.88422 14.2622 4.76048 14.2641 4.58293C14.2797 4.42584 14.3241 4.34883 14.4205 4.22373C14.5558 4.12497 14.6534 4.09836 14.8201 4.09815Z" fill="#FFBC0F"/>
</svg>
