<svg width="24" height="24" viewBox="0 0 24 24" fill="none" xmlns="http://www.w3.org/2000/svg">
<path d="M12.4075 13.4316C7.82076 13.3506 7.82176 6.63257 12.4075 6.55252C16.9942 6.63257 16.9932 13.3506 12.4075 13.4316ZM18.8864 16.4124C18.8851 15.4787 18.5369 14.5787 17.9093 13.8873C17.2817 13.196 16.4196 12.7625 15.4903 12.6712C14.0235 14.5213 10.7915 14.5213 9.32466 12.6712C8.39558 12.7627 7.53368 13.1963 6.9063 13.8877C6.27892 14.579 5.93084 15.4788 5.92963 16.4124C5.81756 17.5531 6.0427 18.9789 7.3785 19.2261C10.6675 20.1547 14.1485 20.1547 17.4365 19.2261C18.7723 18.9789 18.9984 17.5531 18.8864 16.4124ZM16.1597 5.0056C15.6997 4.98826 15.2422 5.08239 14.8263 5.27995C14.4105 5.47752 14.0485 5.77267 13.7713 6.14028C14.7191 6.47959 15.5091 7.15556 15.9908 8.03952C16.4726 8.92349 16.6125 9.95372 16.3839 10.9341C20.1161 10.694 20.0441 5.02561 16.1597 5.0056ZM21.7291 13.4486C21.7309 12.6743 21.4546 11.925 20.9505 11.3371C20.4464 10.7493 19.748 10.362 18.9824 10.2457C18.6442 10.6674 18.2159 11.008 17.7288 11.2424C17.2417 11.4769 16.7083 11.5993 16.1677 11.6005C16.091 11.7757 16.0021 11.9452 15.9016 12.1078C16.86 12.2752 17.7349 12.7587 18.3865 13.4812C19.0381 14.2037 19.429 15.1236 19.4967 16.0942C19.8329 16.0272 20.1581 15.9581 20.4573 15.8921C21.616 15.677 21.8291 14.4442 21.7291 13.4486ZM11.0567 6.13527C10.7824 5.76157 10.419 5.46238 9.9996 5.26491C9.58019 5.06743 9.11806 4.97795 8.65526 5.0046C4.77194 4.95257 4.6989 10.763 8.43213 10.9381C8.20176 9.9549 8.34215 8.92124 8.82641 8.03506C9.31067 7.14888 10.1048 6.47245 11.0567 6.13527ZM8.64826 11.6005C8.10769 11.5993 7.57426 11.477 7.08717 11.2425C6.60009 11.0081 6.17173 10.6675 5.83357 10.2457C3.30606 10.3728 1.72412 14.9145 4.35869 15.8921C4.65687 15.9581 4.98307 16.0272 5.31827 16.0942C5.38604 15.1236 5.77691 14.2037 6.42853 13.4812C7.08014 12.7587 7.95496 12.2752 8.91341 12.1078C8.81335 11.9447 8.7243 11.7756 8.64826 11.6005Z" fill="#FFBC0F"/>
</svg>
