<svg width="24" height="24" viewBox="0 0 24 24" fill="none" xmlns="http://www.w3.org/2000/svg">
<path fill-rule="evenodd" clip-rule="evenodd" d="M14.6432 3.29731C12.5559 5.35618 10.1444 6.92717 7.24574 7.70386L9.21248 15.0439C12.1111 14.2672 14.9851 14.4219 17.8222 15.1613C18.5649 15.3549 19.2769 14.6847 19.0783 13.9432L16.3401 3.7241C16.1415 2.98271 15.1897 2.75831 14.6432 3.29731ZM18.6814 6.05166C19.3059 5.88432 19.9712 5.97192 20.5312 6.29517C21.0911 6.61843 21.4996 7.15086 21.6669 7.77532C21.8343 8.3998 21.7466 9.06518 21.4234 9.62506C21.1001 10.185 20.5677 10.5935 19.9432 10.7608L18.6814 6.05166ZM3.50094 9.90565C3.99676 9.04686 4.81343 8.4202 5.77129 8.16355L7.70674 15.3868C6.74888 15.6434 5.7283 15.5091 4.86951 15.0133C4.01072 14.5174 3.38407 13.7007 3.12741 12.7429C2.87076 11.785 3.00512 10.7644 3.50094 9.90565ZM9.57116 16.3434L11.7914 21.0632C12.0128 21.5333 12.5387 21.7774 13.0405 21.643C13.6865 21.4699 14.0184 20.7544 13.7339 20.1494L11.7409 15.9134C11.0115 16.0088 10.2868 16.1517 9.57116 16.3434Z" fill="#FFBC0F"/>
</svg>
