<svg width="24" height="24" viewBox="0 0 24 24" fill="none" xmlns="http://www.w3.org/2000/svg">
<path fill-rule="evenodd" clip-rule="evenodd" d="M7.63773 12.9545C8.42684 14.8042 10.261 16.0832 12.3751 16.0834C14.4891 16.0832 16.3233 14.8042 17.1124 12.9545C18.7132 12.8997 19.881 12.1725 20.6382 11.2358C21.4011 10.292 21.75 9.13566 21.75 8.23726V6.8369C21.75 5.72002 20.8446 4.81463 19.7277 4.81463H18.0137C18.0227 4.7076 18.0319 4.6031 18.041 4.50148L18.1095 3.62266C18.1357 3.28689 17.8703 3 17.5335 3H7.21657C6.87983 3 6.6144 3.28689 6.64063 3.62266L6.70904 4.50148C6.71825 4.6031 6.72739 4.7076 6.73645 4.81463H5.02227C3.9054 4.81463 3 5.72002 3 6.8369V8.23726C3 9.13566 3.34883 10.292 4.11182 11.2358C4.86906 12.1726 6.03683 12.8997 7.63773 12.9545ZM7.25604 11.1801C7.11379 10.022 7.00454 8.4765 6.90131 7.01594C6.89021 6.85879 6.87918 6.70259 6.86817 6.54799H5.02227C4.86272 6.54799 4.73338 6.67735 4.73338 6.8369V8.23726C4.73338 8.74356 4.949 9.51421 5.45984 10.1461C5.8584 10.6392 6.43519 11.0486 7.25604 11.1801ZM17.8819 6.54799C17.871 6.70258 17.86 6.85874 17.8488 7.01588C17.7456 8.47646 17.6364 10.022 17.4941 11.1801C18.3149 11.0486 18.8916 10.6392 19.2901 10.1461C19.8009 9.51421 20.0167 8.74356 20.0167 8.23726V6.8369C20.0167 6.67735 19.8873 6.54799 19.7277 6.54799H17.8819ZM12.3745 17.5989C11.6894 17.5989 11.0337 17.4646 10.4334 17.2201C10.1076 17.0874 9.71897 17.2225 9.59048 17.55L8.26825 20.9199C8.11954 21.299 8.39896 21.7087 8.80611 21.7087H15.9436C16.3507 21.7087 16.6302 21.299 16.4815 20.9199L15.1591 17.5498C15.0306 17.2223 14.6419 17.0871 14.3161 17.2199C13.7157 17.4646 13.0598 17.5989 12.3745 17.5989Z" fill="#FFBC0F"/>
</svg>
