<svg width="24" height="24" viewBox="0 0 24 24" fill="none" xmlns="http://www.w3.org/2000/svg">
<path d="M12.3819 5.00473C12.4247 5.00317 12.4675 5.00161 12.5117 5C12.8107 5.04054 12.9736 5.2638 13.1487 5.48722C13.1721 5.51656 13.1955 5.5459 13.2197 5.57612C13.4011 5.80477 13.5765 6.03777 13.7504 6.27217C13.9138 6.492 14.0834 6.70624 14.2553 6.91948C14.403 7.10282 14.5477 7.28807 14.6907 7.47504C14.8382 7.66774 14.9869 7.85945 15.136 8.05093C15.1607 8.08271 15.1855 8.11449 15.211 8.14724C15.2616 8.21225 15.3122 8.27727 15.3628 8.34228C15.4855 8.49984 15.6081 8.65747 15.7306 8.81509C15.7793 8.87768 15.828 8.94028 15.8767 9.00287C16.3148 9.56621 16.753 10.1295 17.1912 10.6929C17.4059 10.6218 17.5823 10.4961 17.769 10.3718C17.8054 10.3477 17.8419 10.3237 17.8794 10.2989C17.9987 10.22 18.1178 10.1409 18.237 10.0617C18.3193 10.0073 18.4016 9.95281 18.4839 9.89837C19.0869 9.49929 19.6888 9.0985 20.2897 8.69624C20.3196 8.67626 20.3495 8.65628 20.3802 8.63569C20.4357 8.59861 20.4911 8.56149 20.5465 8.52432C20.8133 8.34592 21.0011 8.32622 21.3223 8.35607C21.5263 8.4508 21.6462 8.56868 21.7396 8.77336C21.7763 9.15839 21.711 9.51593 21.6215 9.88873C21.6088 9.94369 21.5961 9.99865 21.5835 10.0536C21.5494 10.2012 21.5147 10.3485 21.4798 10.4958C21.4432 10.6506 21.4073 10.8055 21.3714 10.9605C21.311 11.22 21.2503 11.4795 21.1892 11.7389C21.103 12.1048 21.0176 12.4709 20.9324 12.8371C20.8181 13.3276 20.7037 13.818 20.5884 14.3083C20.57 14.3866 20.5516 14.4648 20.5333 14.5431C20.5223 14.5895 20.5114 14.636 20.5001 14.6838C20.4906 14.7242 20.4811 14.7646 20.4713 14.8063C20.446 14.9075 20.446 14.9075 20.4043 15.0327C15.1164 15.0327 9.82852 15.0327 4.38041 15.0327C4.1253 13.9804 3.87283 12.9277 3.62742 11.8731C3.57017 11.6271 3.51267 11.3811 3.45463 11.1353C3.39744 10.893 3.34084 10.6506 3.28464 10.4081C3.26342 10.317 3.24199 10.2259 3.22035 10.1348C2.94779 8.98666 2.94779 8.98666 3.11289 8.6247C3.29594 8.43683 3.42286 8.34591 3.68862 8.33456C4.00754 8.33961 4.22739 8.47073 4.49516 8.63253C4.54443 8.66123 4.59376 8.68983 4.64315 8.71834C4.76872 8.79114 4.89355 8.86513 5.01822 8.93947C5.12805 9.00474 5.23851 9.06891 5.34897 9.13311C5.47245 9.2049 5.59587 9.27678 5.71903 9.34911C6.01485 9.52278 6.31315 9.69152 6.6129 9.85831C7.12488 10.1432 7.63105 10.4375 8.136 10.7346C8.28366 10.5568 8.4125 10.3691 8.54139 10.1776C8.57637 10.1259 8.57637 10.1259 8.61205 10.073C8.68907 9.95893 8.76593 9.84473 8.84278 9.73052C8.86944 9.69096 8.8961 9.6514 8.92357 9.61064C9.32727 9.01149 9.72657 8.40954 10.1233 7.80577C10.5051 7.22521 10.8876 6.6451 11.2746 6.068C11.3238 5.99448 11.3729 5.92089 11.4219 5.84722C11.4895 5.74569 11.5575 5.64445 11.6256 5.54329C11.6453 5.51347 11.665 5.48366 11.6853 5.45294C11.8717 5.17818 12.04 5.01281 12.3819 5.00473Z" fill="#fff"/>
<path d="M4.71484 16.368C9.78239 16.368 14.8499 16.368 20.071 16.368C20.0336 16.6676 19.9782 16.9548 19.9105 17.2481C19.8911 17.333 19.8724 17.418 19.8537 17.503C19.8412 17.5577 19.8286 17.6124 19.8159 17.6671C19.8049 17.7161 19.7938 17.7651 19.7823 17.8156C19.7109 18.0342 19.6038 18.2109 19.4063 18.3365C19.2054 18.4166 18.9783 18.3937 18.7656 18.3922C18.7084 18.3924 18.6512 18.3926 18.594 18.3929C18.4371 18.3936 18.2802 18.3933 18.1233 18.3928C17.954 18.3924 17.7847 18.393 17.6154 18.3934C17.2838 18.3942 16.9522 18.394 16.6206 18.3935C16.3511 18.3932 16.0817 18.3931 15.8122 18.3933C15.7739 18.3933 15.7355 18.3934 15.696 18.3934C15.6181 18.3934 15.5402 18.3935 15.4623 18.3935C14.7318 18.394 14.0013 18.3935 13.2708 18.3926C12.6439 18.3918 12.017 18.392 11.3902 18.3927C10.6623 18.3936 9.93439 18.394 9.20651 18.3935C9.1289 18.3934 9.0513 18.3934 8.97369 18.3933C8.9355 18.3933 8.89732 18.3932 8.85798 18.3932C8.58881 18.3931 8.31965 18.3933 8.05048 18.3937C7.72248 18.3942 7.39449 18.3941 7.06649 18.3932C6.89912 18.3927 6.73177 18.3926 6.5644 18.3931C6.41119 18.3936 6.258 18.3933 6.1048 18.3924C6.0231 18.3922 5.94141 18.3927 5.85972 18.3933C5.41549 18.3893 5.41549 18.3893 5.21559 18.204C5.06982 18.0247 5.00836 17.8471 4.95935 17.6247C4.95217 17.594 4.945 17.5633 4.93761 17.5316C4.92265 17.467 4.90794 17.4024 4.89345 17.3378C4.8713 17.239 4.8484 17.1403 4.82536 17.0417C4.81086 16.9787 4.79641 16.9157 4.782 16.8528C4.77522 16.8234 4.76844 16.794 4.76146 16.7637C4.73094 16.6267 4.71484 16.5094 4.71484 16.368Z" fill="#fff"/>
</svg>
