<svg width="16" height="17" viewBox="0 0 16 17" fill="none" xmlns="http://www.w3.org/2000/svg">
<g id="Text input" clip-path="url(#clip0_379_16722)">
<path id="Vector" d="M15.5314 2.99999C15.5585 3.01804 15.5856 3.03609 15.6135 3.05468C15.7234 3.15886 15.7994 3.27564 15.8752 3.40624C15.8883 3.42868 15.9014 3.45112 15.9148 3.47424C16.049 3.74867 16.0425 4.09373 15.9762 4.38732C15.8124 4.86259 15.384 5.21463 15.0358 5.56232C14.9997 5.59847 14.9636 5.63462 14.9275 5.67078C14.8294 5.76905 14.7313 5.86722 14.6331 5.96538C14.5268 6.07166 14.4206 6.17803 14.3144 6.28439C14.1068 6.49227 13.8991 6.70006 13.6913 6.90782C13.5225 7.07668 13.3536 7.24557 13.1848 7.41448C12.7057 7.89386 12.2266 8.37318 11.7473 8.85241C11.7215 8.87819 11.6957 8.90397 11.6692 8.93053C11.6434 8.95635 11.6175 8.98216 11.5909 9.00876C11.172 9.42769 10.7532 9.84678 10.3345 10.2659C9.90406 10.6968 9.47352 11.1276 9.04285 11.5582C8.80125 11.7998 8.5597 12.0414 8.31828 12.2832C8.1129 12.4889 7.90742 12.6944 7.7018 12.8998C7.59694 13.0046 7.49214 13.1094 7.38747 13.2143C7.29159 13.3104 7.19557 13.4064 7.09944 13.5023C7.06476 13.5369 7.03012 13.5716 6.99555 13.6063C6.64695 13.9566 6.30512 14.2628 5.78582 14.2853C5.19572 14.2611 4.86849 13.9494 4.47488 13.5534C4.42898 13.5076 4.38305 13.4619 4.33711 13.4163C4.21299 13.2927 4.08926 13.1688 3.96562 13.0447C3.83586 12.9146 3.70578 12.7849 3.57576 12.655C3.35751 12.437 3.13952 12.2187 2.92168 12.0003C2.67024 11.7482 2.41835 11.4965 2.16622 11.2451C1.94932 11.0287 1.73266 10.8121 1.5162 10.5954C1.38711 10.4661 1.25795 10.3369 1.12855 10.2079C1.00689 10.0866 0.885543 9.96501 0.764423 9.84317C0.720064 9.79864 0.675598 9.75422 0.631018 9.70992C0.299081 9.37985 -0.00175351 9.07526 -0.0117188 8.57945C-0.010748 8.18309 0.062183 7.88829 0.343925 7.59374C0.638946 7.31682 0.964433 7.20801 1.36321 7.21203C1.82025 7.24106 2.12274 7.51035 2.43024 7.82211C2.46627 7.85818 2.50234 7.89423 2.53843 7.93025C2.63573 8.02752 2.73265 8.12516 2.8295 8.22289C2.93099 8.32517 3.03285 8.42709 3.13466 8.52906C3.32715 8.72193 3.51931 8.91512 3.71136 9.10843C3.93013 9.32859 4.14926 9.54841 4.36841 9.76819C4.81898 10.2201 5.2691 10.6724 5.71893 11.125C5.82899 11.078 5.89962 11.0145 5.98377 10.93C6.01179 10.902 6.0398 10.8741 6.06866 10.8452C6.09962 10.814 6.13058 10.7828 6.16154 10.7516C6.19452 10.7185 6.22751 10.6855 6.26051 10.6525C6.35128 10.5616 6.44184 10.4705 6.53238 10.3795C6.63003 10.2813 6.72785 10.1833 6.82566 10.0853C6.9952 9.91536 7.16463 9.74532 7.33399 9.57522C7.57917 9.32897 7.82459 9.08296 8.07007 8.83702C8.46874 8.4376 8.86732 8.03809 9.26579 7.63847C9.28965 7.61455 9.31351 7.59062 9.33809 7.56597C9.67637 7.22672 10.0146 6.88737 10.3527 6.54799C10.3765 6.52411 10.4003 6.50023 10.4248 6.47563C10.4604 6.43986 10.4604 6.43986 10.4968 6.40336C10.8934 6.00533 11.2902 5.60754 11.6872 5.20995C11.932 4.96478 12.1766 4.71941 12.421 4.47378C12.5886 4.30533 12.7564 4.1371 12.9244 3.96905C13.0212 3.87216 13.118 3.77517 13.2145 3.6779C13.3029 3.5887 13.3917 3.4998 13.4807 3.41112C13.5127 3.37914 13.5446 3.34705 13.5763 3.31484C14.1469 2.73681 14.8274 2.51797 15.5314 2.99999Z" fill="white"/>
</g>
<defs>
<clipPath id="clip0_379_16722">
<rect width="16" height="16" fill="white" transform="translate(0 0.5)"/>
</clipPath>
</defs>
</svg>
