<svg width="35" height="35" viewBox="0 0 35 35" fill="none" xmlns="http://www.w3.org/2000/svg">
<g clip-path="url(#clip0_379_16790)">
<path d="M25.5615 32.2973C25.5615 32.2973 25.9279 30.0967 23.6682 27.4094C25.8677 21.2395 26.1729 15.6209 26.1729 15.6209C26.1729 15.6209 30.6934 16.66 30.6934 21.1181C30.6923 28.7536 25.5615 32.2973 25.5615 32.2973ZM13.1015 29.6166C13.1015 29.6166 10.074 19.9008 10.074 15.8703C10.074 14.0569 10.2785 12.4436 10.5968 10.9791H24.389C24.7095 12.4447 24.9151 14.0591 24.9151 15.8714C24.9151 19.8406 21.8963 29.6166 21.8963 29.6166H13.1015ZM17.4885 13.2005C15.9376 13.2005 14.6798 14.4583 14.6798 16.0103C14.6798 17.5612 15.9376 18.8201 17.4885 18.8201C19.0395 18.8201 20.2984 17.5623 20.2984 16.0103C20.2995 14.4583 19.0405 13.2005 17.4885 13.2005ZM16.8848 0.651865V-3.17407H17.9785V0.554521C19.2287 1.46452 22.6116 4.35858 24.1418 9.93343H10.8418C12.3205 4.51171 15.5405 1.64936 16.8848 0.651865ZM9.43742 32.2973C9.43742 32.2973 4.30664 28.7536 4.30664 21.1181C4.30664 16.66 8.82711 15.6209 8.82711 15.6209C8.82711 15.6209 9.13227 21.2395 11.3307 27.4094C9.06992 30.0978 9.43742 32.2973 9.43742 32.2973ZM19.349 32.8617L18.4324 31.9451L17.4557 35L16.2941 31.9451L15.5001 33.5322L14.3385 30.6611H20.6298L19.349 32.8617Z" fill="#676767"/>
</g>
<defs>
<clipPath id="clip0_379_16790">
<rect width="35" height="35" fill="white"/>
</clipPath>
</defs>
</svg>
