<svg width="20" height="20" viewBox="0 0 20 20" fill="none" xmlns="http://www.w3.org/2000/svg">
<g clip-path="url(#clip0_1390_3528)">
<path d="M18.6957 3.8955H17.2398C17.4319 3.5916 17.5586 3.25047 17.5947 2.88968C17.7102 1.73668 17.1029 0.703083 16.0691 0.244841C15.1189 -0.17637 14.0511 -0.00418229 13.2821 0.69324L11.4438 2.35926C11.0858 1.96769 10.5712 1.7216 10 1.7216C9.42781 1.7216 8.91234 1.96847 8.55426 2.36125L6.71363 0.693044C5.94344 -0.00437757 4.87602 -0.175901 3.92621 0.245076C2.8927 0.703357 2.28535 1.7373 2.40113 2.89027C2.43734 3.25078 2.56398 3.59175 2.75598 3.8955H1.30434C0.583945 3.8955 0 4.47949 0 5.19984V7.15636C0 7.51652 0.291992 7.80855 0.652187 7.80855H19.3479C19.708 7.80855 20 7.51656 20 7.15636V5.19984C20 4.47949 19.4161 3.8955 18.6957 3.8955ZM8.04348 3.67812V3.8955H4.97539C4.16477 3.8955 3.5268 3.1398 3.72926 2.29582C3.81844 1.92414 4.08672 1.6073 4.43371 1.44691C4.9102 1.22668 5.43801 1.29738 5.8382 1.65961L8.04402 3.6589C8.04391 3.66535 8.04348 3.67168 8.04348 3.67812ZM16.3005 2.71652C16.252 3.39437 15.6396 3.89558 14.9601 3.89558H11.9565V3.6782C11.9565 3.67051 11.9561 3.66289 11.956 3.65519C12.4557 3.20222 13.5397 2.21972 14.1276 1.68679C14.4618 1.38394 14.9293 1.24258 15.3615 1.37148C15.9817 1.55648 16.3459 2.0839 16.3005 2.71652Z" fill="white"/>
<path d="M1.30469 9.11292V18.6782C1.30469 19.3985 1.88863 19.9825 2.60902 19.9825H8.69598V9.11292H1.30469Z" fill="white"/>
<path d="M11.3047 9.11292V19.9825H17.3916C18.112 19.9825 18.696 19.3985 18.696 18.6782V9.11292H11.3047Z" fill="white"/>
</g>
<defs>
<clipPath id="clip0_1390_3528">
<rect width="20" height="20" fill="white"/>
</clipPath>
</defs>
</svg>
