<svg width="14" height="15" viewBox="0 0 14 15" fill="none" xmlns="http://www.w3.org/2000/svg">
<g clip-path="url(#clip0_462_1325)">
<path d="M5.63122 0.489772C5.65444 0.489778 5.67767 0.489783 5.7016 0.489789C6.09745 0.490768 6.47622 0.522727 6.86339 0.609401C6.88572 0.614084 6.90805 0.618768 6.93106 0.623593C7.61788 0.769986 8.28912 1.07632 8.85949 1.4844C8.8867 1.50379 8.91391 1.52317 8.94195 1.54315C9.11041 1.66626 9.26673 1.79789 9.41939 1.94006C9.47877 1.99502 9.53931 2.04754 9.60119 2.09964C9.97664 2.42882 10.284 2.85985 10.527 3.29411C10.5544 3.34313 10.5826 3.39172 10.6108 3.44033C11.0143 4.15075 11.2663 5.02596 11.2713 5.84445C11.2715 5.86561 11.2717 5.88677 11.2719 5.90858C11.275 6.3532 11.278 6.78997 11.1837 7.22659C11.1786 7.25168 11.1734 7.27676 11.1681 7.30261C11.0133 8.04176 10.7179 8.74261 10.2814 9.3594C10.2668 9.38006 10.2523 9.40071 10.2374 9.42199C10.2068 9.46515 10.1758 9.50802 10.1446 9.55081C10.1882 9.65859 10.2626 9.73062 10.3441 9.8106C10.359 9.82546 10.3739 9.84032 10.3893 9.85564C10.4393 9.90543 10.4895 9.95501 10.5397 10.0046C10.5756 10.0403 10.6115 10.0759 10.6474 10.1116C10.7247 10.1885 10.8021 10.2652 10.8795 10.342C11.0021 10.4634 11.1244 10.5851 11.2466 10.7068C11.5943 11.0529 11.9423 11.3987 12.2906 11.7442C12.483 11.9349 12.6751 12.1259 12.867 12.3172C12.9883 12.4382 13.11 12.5588 13.2318 12.6792C13.3078 12.7544 13.3835 12.8299 13.4591 12.9055C13.494 12.9403 13.5291 12.975 13.5643 13.0096C13.9882 13.4264 13.9882 13.4264 14.0173 13.7064C14.0129 13.9475 14.0029 14.1096 13.8335 14.2863C13.6294 14.4771 13.4761 14.5163 13.1977 14.5082C12.8101 14.4764 12.5136 14.0565 12.2533 13.7953C12.2187 13.7608 12.1842 13.7263 12.1497 13.6918C12.0568 13.5989 11.9639 13.5059 11.8711 13.4129C11.7738 13.3154 11.6764 13.218 11.579 13.1205C11.395 12.9364 11.211 12.7522 11.027 12.568C10.8175 12.3581 10.6078 12.1483 10.3982 11.9385C9.96722 11.5073 9.53637 11.076 9.10558 10.6446C9.01011 10.6814 8.93465 10.7199 8.85265 10.7813C8.25895 11.2033 7.59328 11.4851 6.88561 11.6494C6.85059 11.6576 6.85059 11.6576 6.81486 11.6659C6.42641 11.7516 6.04623 11.7768 5.65001 11.7759C5.62604 11.7759 5.60207 11.7759 5.57738 11.7759C5.17713 11.7747 4.79359 11.7464 4.40246 11.6563C4.36482 11.6479 4.36482 11.6479 4.32642 11.6394C3.3972 11.4277 2.56935 10.9711 1.85949 10.3438C1.83801 10.3249 1.83801 10.3249 1.8161 10.3056C0.779808 9.38996 0.124424 8.0561 0.000112361 6.67971C-0.00409391 6.60027 -0.00559456 6.52096 -0.00640314 6.44142C-0.00667218 6.41941 -0.00694122 6.39741 -0.00721841 6.37474C-0.0231152 4.73527 0.502212 3.29371 1.64576 2.10839C2.38816 1.35568 3.35381 0.854977 4.37853 0.616237C4.40164 0.610802 4.42476 0.605367 4.44857 0.599768C4.84135 0.512761 5.23041 0.488844 5.63122 0.489772ZM4.73058 2.00393C4.7081 2.00936 4.68561 2.0148 4.66245 2.02039C3.56564 2.2923 2.60665 2.96863 2.01677 3.94016C1.81095 4.28893 1.66378 4.64405 1.55016 5.03225C1.54352 5.05486 1.53689 5.07747 1.53005 5.10076C1.43553 5.44025 1.41163 5.77552 1.41344 6.126C1.4135 6.14656 1.41356 6.16712 1.41362 6.1883C1.415 6.48767 1.42583 6.77191 1.50402 7.06253C1.50945 7.08354 1.51488 7.10455 1.52048 7.1262C1.81517 8.25086 2.50767 9.19969 3.51268 9.79631C4.16025 10.166 4.87976 10.3557 5.62438 10.3523C5.66024 10.3522 5.6961 10.352 5.73305 10.3519C6.74591 10.3393 7.69786 9.95381 8.44933 9.27737C8.48457 9.24821 8.51987 9.21914 8.55529 9.19021C8.65862 9.10074 8.74539 8.99992 8.83214 8.89456C8.85502 8.86724 8.8779 8.83992 8.90146 8.81178C9.32726 8.2938 9.59632 7.70965 9.76183 7.06253C9.76925 7.03372 9.76925 7.03372 9.77681 7.00434C10.0136 6.03043 9.80556 4.94585 9.32433 4.08206C9.31482 4.06466 9.30531 4.04726 9.29551 4.02933C9.15024 3.76586 8.98221 3.53657 8.77746 3.31643C8.76141 3.29905 8.74537 3.28166 8.72884 3.26375C8.46956 2.9857 8.19658 2.7538 7.87511 2.55081C7.84849 2.53385 7.84849 2.53385 7.82133 2.51656C7.16811 2.10755 6.40698 1.90988 5.63976 1.91336C5.58583 1.91359 5.58583 1.91359 5.53082 1.91382C5.25602 1.91724 4.99728 1.93801 4.73058 2.00393Z" fill="white" fill-opacity="0.8"/>
</g>
<defs>
<clipPath id="clip0_462_1325">
<rect width="14" height="14" fill="white" transform="translate(0 0.5)"/>
</clipPath>
</defs>
</svg>
