<svg width="24" height="23" viewBox="0 0 24 23" fill="none" xmlns="http://www.w3.org/2000/svg">
<g clip-path="url(#clip0_175_22654)">
<path d="M12.2734 23C18.6247 23 23.7734 17.8513 23.7734 11.5C23.7734 5.14873 18.6247 0 12.2734 0C5.92216 0 0.773438 5.14873 0.773438 11.5C0.773438 17.8513 5.92216 23 12.2734 23Z" fill="#F0F0F0"/>
<path d="M3.15102 4.49854C2.24769 5.67383 1.56654 7.02844 1.16992 8.50003H7.15253L3.15102 4.49854Z" fill="#0052B4"/>
<path d="M23.377 8.50012C22.9804 7.02857 22.2992 5.67395 21.3959 4.49866L17.3945 8.50012H23.377Z" fill="#0052B4"/>
<path d="M1.16992 14.5001C1.56658 15.9716 2.24773 17.3262 3.15102 18.5015L7.15239 14.5001H1.16992Z" fill="#0052B4"/>
<path d="M19.2749 2.37726C18.0996 1.47393 16.745 0.792778 15.2734 0.396118V6.37868L19.2749 2.37726Z" fill="#0052B4"/>
<path d="M5.27246 20.6227C6.44775 21.526 7.80237 22.2072 9.27393 22.6038V16.6213L5.27246 20.6227Z" fill="#0052B4"/>
<path d="M9.27388 0.396118C7.80233 0.792778 6.44771 1.47393 5.27246 2.37722L9.27388 6.37863V0.396118Z" fill="#0052B4"/>
<path d="M15.2734 22.6038C16.7449 22.2072 18.0995 21.526 19.2748 20.6227L15.2734 16.6213V22.6038Z" fill="#0052B4"/>
<path d="M17.3945 14.5001L21.3959 18.5015C22.2992 17.3263 22.9804 15.9716 23.377 14.5001H17.3945Z" fill="#0052B4"/>
<path d="M23.6761 10H13.7735V0.0973457C13.2824 0.0334219 12.7818 0 12.2734 0C11.765 0 11.2644 0.0334219 10.7735 0.0973457V9.99997H0.870782C0.806858 10.491 0.773438 10.9916 0.773438 11.5C0.773438 12.0085 0.806858 12.509 0.870782 13H10.7734V22.9027C11.2644 22.9666 11.765 23 12.2734 23C12.7818 23 13.2824 22.9666 13.7734 22.9027V13H23.6761C23.74 12.509 23.7734 12.0085 23.7734 11.5C23.7734 10.9916 23.74 10.491 23.6761 10Z" fill="#D80027"/>
<path d="M15.2734 14.5001L20.4051 19.6318C20.6411 19.3958 20.8662 19.1492 21.081 18.8935L16.6876 14.5L15.2734 14.5001Z" fill="#D80027"/>
<path d="M9.27334 14.5001L4.1416 19.6317C4.37753 19.8677 4.6242 20.0929 4.87989 20.3077L9.27334 15.9142V14.5001Z" fill="#D80027"/>
<path d="M9.2735 8.50012L4.1418 3.36829C3.90579 3.60422 3.68064 3.85089 3.46582 4.10658L7.85931 8.50008L9.2735 8.50012Z" fill="#D80027"/>
<path d="M15.2734 8.5001L20.4051 3.36832C20.1692 3.1323 19.9225 2.90715 19.6668 2.69238L15.2734 7.08587V8.5001Z" fill="#D80027"/>
</g>
<defs>
<clipPath id="clip0_175_22654">
<rect width="24" height="23" fill="white"/>
</clipPath>
</defs>
</svg>
