<svg width="25" height="22" viewBox="0 0 25 22" fill="none" xmlns="http://www.w3.org/2000/svg">
<g clip-path="url(#clip0_116_30001)">
<path d="M24.4605 20.3706L12.7239 1.34577C12.6727 1.26252 12.5864 1.2207 12.5 1.2207C12.4136 1.2207 12.3277 1.26252 12.276 1.34577L0.53948 20.3706C0.431615 20.5458 0.557457 20.7716 0.763417 20.7716H17.3043C17.4973 20.7716 17.615 20.5598 17.5134 20.3957L15.3654 16.9319C15.3205 16.8596 15.2415 16.8154 15.1563 16.8154H7.38148L12.5 8.5184L17.6185 16.8154L19.9498 20.575C20.0256 20.6974 20.1592 20.7716 20.303 20.7716H24.237C24.4426 20.7716 24.5684 20.5458 24.4605 20.3706Z" fill="white" fill-opacity="0.9"/>
</g>
<defs>
<clipPath id="clip0_116_30001">
<rect width="24" height="21" fill="white" transform="translate(0.5 0.5)"/>
</clipPath>
</defs>
</svg>
