<svg width="25" height="24" viewBox="0 0 25 24" fill="none" xmlns="http://www.w3.org/2000/svg">
<path d="M13.8953 9.09036V2.70701C13.8953 2.0404 13.3549 1.5 12.6883 1.5C12.3143 1.5 11.9615 1.67335 11.7329 1.96937L4.16727 11.7682C3.86129 12.1646 3.69531 12.6511 3.69531 13.1518C3.69531 14.4021 4.70889 15.4157 5.95919 15.4157H11.4953V20.9143C11.4953 21.79 12.2053 22.5 13.081 22.5C13.5922 22.5 14.0719 22.2536 14.3698 21.8382L21.3367 12.1207C21.5699 11.7954 21.6953 11.4053 21.6953 11.005C21.6953 9.94759 20.8381 9.09036 19.7806 9.09036H13.8953Z" fill="white" fill-opacity="0.9"/>
</svg>
