<svg width="25" height="24" viewBox="0 0 25 24" fill="none" xmlns="http://www.w3.org/2000/svg">
<path fill-rule="evenodd" clip-rule="evenodd" d="M4.19531 3.75H21.1953C22.2999 3.75 23.1953 4.64543 23.1953 5.75V14.3963C23.1953 14.8252 23.0605 15.2468 22.7884 15.5783C17.6799 21.8011 8.1895 21.8072 2.65382 15.5968C2.34921 15.255 2.19531 14.807 2.19531 14.3492V5.75C2.19531 4.64543 3.09074 3.75 4.19531 3.75ZM5.94531 14.25C6.77374 14.25 7.44531 13.5784 7.44531 12.75C7.44531 11.9216 6.77374 11.25 5.94531 11.25C5.11689 11.25 4.44531 11.9216 4.44531 12.75C4.44531 13.5784 5.11689 14.25 5.94531 14.25ZM11.9453 15C11.9453 15.8284 11.2737 16.5 10.4453 16.5C9.61689 16.5 8.94531 15.8284 8.94531 15C8.94531 14.1716 9.61689 13.5 10.4453 13.5C11.2737 13.5 11.9453 14.1716 11.9453 15ZM14.9453 16.5C15.7737 16.5 16.4453 15.8284 16.4453 15C16.4453 14.1716 15.7737 13.5 14.9453 13.5C14.1169 13.5 13.4453 14.1716 13.4453 15C13.4453 15.8284 14.1169 16.5 14.9453 16.5ZM20.9453 12.75C20.9453 13.5784 20.2737 14.25 19.4453 14.25C18.6169 14.25 17.9453 13.5784 17.9453 12.75C17.9453 11.9216 18.6169 11.25 19.4453 11.25C20.2737 11.25 20.9453 11.9216 20.9453 12.75ZM8.67358 7.82608C8.1213 7.82608 7.67358 8.27379 7.67358 8.82608V9.07608C7.67358 9.62836 8.1213 10.0761 8.67358 10.0761H17.1736C17.7259 10.0761 18.1736 9.62836 18.1736 9.07608V8.82608C18.1736 8.27379 17.7259 7.82608 17.1736 7.82608H8.67358Z" fill="white" fill-opacity="0.9"/>
</svg>
