<svg width="25" height="24" viewBox="0 0 25 24" fill="none" xmlns="http://www.w3.org/2000/svg">
<path fill-rule="evenodd" clip-rule="evenodd" d="M7.32031 2.625C5.11117 2.625 3.32031 4.41586 3.32031 6.625V17.375C3.32031 19.5841 5.11117 21.375 7.32031 21.375H18.0703C20.2795 21.375 22.0703 19.5841 22.0703 17.375V6.625C22.0703 4.41586 20.2795 2.625 18.0703 2.625H7.32031ZM14.1953 17.25C13.7811 17.25 13.4453 17.5858 13.4453 18V19.5C13.4453 19.9142 13.7811 20.25 14.1953 20.25H15.6953C16.1095 20.25 16.4453 19.9142 16.4453 19.5V18C16.4453 17.5858 16.1095 17.25 15.6953 17.25H14.1953ZM9.69531 13.5C9.2811 13.5 8.94531 13.8358 8.94531 14.25V15.75C8.94531 16.1642 9.2811 16.5 9.69531 16.5H11.1953C11.6095 16.5 11.9453 16.1642 11.9453 15.75V14.25C11.9453 13.8358 11.6095 13.5 11.1953 13.5H9.69531ZM17.9453 10.5C17.9453 10.0858 18.2811 9.75 18.6953 9.75H20.1953C20.6095 9.75 20.9453 10.0858 20.9453 10.5V12C20.9453 12.4142 20.6095 12.75 20.1953 12.75H18.6953C18.2811 12.75 17.9453 12.4142 17.9453 12V10.5ZM6.54681 6.435V7.227C6.54681 7.254 6.56031 7.2705 6.58731 7.2765C6.65031 7.2885 6.72681 7.2945 6.81681 7.2945C7.02981 7.2945 7.18581 7.2555 7.28481 7.1775C7.38381 7.0965 7.43331 6.9735 7.43331 6.8085C7.43331 6.5325 7.20831 6.3945 6.75831 6.3945H6.58281C6.55882 6.3945 6.54681 6.408 6.54681 6.435ZM6.54681 5.148V5.8095C6.54681 5.8335 6.55882 5.8455 6.58281 5.8455H6.69531C7.13331 5.8455 7.35231 5.715 7.35231 5.454C7.35231 5.205 7.16931 5.0805 6.80331 5.0805C6.71631 5.0805 6.64281 5.0865 6.58281 5.0985C6.55882 5.1045 6.54681 5.121 6.54681 5.148ZM6.04731 7.839C5.97531 7.833 5.91531 7.8015 5.86731 7.7445C5.81931 7.6875 5.79531 7.623 5.79531 7.551V4.824C5.79531 4.749 5.81931 4.6845 5.86731 4.6305C5.91831 4.5735 5.97981 4.542 6.05181 4.536C6.28581 4.512 6.51531 4.5 6.74031 4.5C7.61031 4.5 8.04531 4.7805 8.04531 5.3415C8.04531 5.5305 7.98381 5.691 7.86082 5.823C7.74082 5.955 7.57881 6.039 7.37481 6.075C7.37181 6.075 7.37031 6.078 7.37031 6.084C7.37031 6.087 7.37331 6.0885 7.37931 6.0885C7.61631 6.1215 7.80382 6.2115 7.94182 6.3585C8.08282 6.5055 8.15331 6.681 8.15331 6.885C8.15331 7.218 8.04231 7.467 7.82031 7.632C7.60131 7.794 7.25631 7.875 6.78531 7.875C6.54831 7.875 6.30231 7.863 6.04731 7.839ZM8.95368 7.83C8.88468 7.83 8.82468 7.8045 8.77368 7.7535C8.72568 7.7025 8.70168 7.6425 8.70168 7.5735V4.8015C8.70168 4.7325 8.72568 4.6725 8.77368 4.6215C8.82468 4.5705 8.88468 4.545 8.95368 4.545H9.28668C9.35568 4.545 9.41418 4.5705 9.46218 4.6215C9.51318 4.6725 9.53868 4.7325 9.53868 4.8015V7.5735C9.53868 7.6425 9.51318 7.7025 9.46218 7.7535C9.41418 7.8045 9.35568 7.83 9.28668 7.83H8.95368ZM10.3674 7.7535C10.4184 7.8045 10.4784 7.83 10.5474 7.83H10.7679C10.8369 7.83 10.8969 7.8045 10.9479 7.7535C10.9989 7.7025 11.0244 7.6425 11.0244 7.5735V5.8185C11.0244 5.8155 11.0259 5.814 11.0289 5.814C11.0319 5.814 11.0334 5.8155 11.0334 5.8185L11.9784 7.605C12.0564 7.755 12.1809 7.83 12.3519 7.83H12.5724C12.6414 7.83 12.7014 7.8045 12.7524 7.7535C12.8034 7.7025 12.8289 7.6425 12.8289 7.5735V4.8015C12.8289 4.7325 12.8034 4.6725 12.7524 4.6215C12.7014 4.5705 12.6414 4.545 12.5724 4.545H12.3519C12.2829 4.545 12.2229 4.5705 12.1719 4.6215C12.1209 4.6725 12.0954 4.7325 12.0954 4.8015V6.5565C12.0954 6.5595 12.0939 6.561 12.0909 6.561C12.0879 6.561 12.0864 6.5595 12.0864 6.5565L11.1414 4.77C11.0634 4.62 10.9389 4.545 10.7679 4.545H10.5474C10.4784 4.545 10.4184 4.5705 10.3674 4.6215C10.3164 4.6725 10.2909 4.7325 10.2909 4.8015V7.5735C10.2909 7.6425 10.3164 7.7025 10.3674 7.7535ZM14.9746 7.875C14.4706 7.875 14.0671 7.7265 13.7641 7.4295C13.4611 7.1295 13.3096 6.7155 13.3096 6.1875C13.3096 5.6565 13.4581 5.2425 13.7551 4.9455C14.0521 4.6485 14.4691 4.5 15.0061 4.5C15.2281 4.5 15.4426 4.518 15.6496 4.554C15.7216 4.566 15.7801 4.602 15.8251 4.662C15.8731 4.719 15.8971 4.785 15.8971 4.86V4.9815C15.8971 5.0445 15.8716 5.0955 15.8206 5.1345C15.7696 5.1735 15.7126 5.1855 15.6496 5.1705C15.4636 5.1285 15.2791 5.1075 15.0961 5.1075C14.4241 5.1075 14.0881 5.4675 14.0881 6.1875C14.0881 6.5475 14.1676 6.8175 14.3266 6.9975C14.4886 7.1775 14.7196 7.2675 15.0196 7.2675C15.1126 7.2675 15.2071 7.2555 15.3031 7.2315C15.3301 7.2255 15.3436 7.209 15.3436 7.182V6.4485C15.3436 6.4245 15.3301 6.4125 15.3031 6.4125H14.8846C14.8156 6.4125 14.7556 6.387 14.7046 6.336C14.6536 6.285 14.6281 6.225 14.6281 6.156V6.0885C14.6281 6.0195 14.6536 5.9595 14.7046 5.9085C14.7556 5.8575 14.8156 5.832 14.8846 5.832H15.8161C15.8851 5.832 15.9436 5.8575 15.9916 5.9085C16.0426 5.9595 16.0681 6.0195 16.0681 6.0885V7.434C16.0681 7.512 16.0456 7.5825 16.0006 7.6455C15.9556 7.7055 15.8971 7.746 15.8251 7.767C15.5551 7.839 15.2716 7.875 14.9746 7.875ZM18.0654 5.13C18.5694 5.13 18.8214 5.4825 18.8214 6.1875C18.8214 6.8925 18.5694 7.245 18.0654 7.245C17.5614 7.245 17.3094 6.8925 17.3094 6.1875C17.3094 5.4825 17.5614 5.13 18.0654 5.13ZM18.0654 7.875C18.5394 7.875 18.9144 7.7265 19.1904 7.4295C19.4664 7.1295 19.6044 6.7155 19.6044 6.1875C19.6044 5.6595 19.4664 5.247 19.1904 4.95C18.9144 4.65 18.5394 4.5 18.0654 4.5C17.5914 4.5 17.2164 4.65 16.9404 4.95C16.6644 5.247 16.5264 5.6595 16.5264 6.1875C16.5264 6.7155 16.6644 7.1295 16.9404 7.4295C17.2164 7.7265 17.5914 7.875 18.0654 7.875ZM14.1953 9.75C13.7811 9.75 13.4453 10.0858 13.4453 10.5V12C13.4453 12.4142 13.7811 12.75 14.1953 12.75H15.6953C16.1095 12.75 16.4453 12.4142 16.4453 12V10.5C16.4453 10.0858 16.1095 9.75 15.6953 9.75H14.1953ZM8.94531 10.5C8.94531 10.0858 9.2811 9.75 9.69531 9.75H11.1953C11.6095 9.75 11.9453 10.0858 11.9453 10.5V12C11.9453 12.4142 11.6095 12.75 11.1953 12.75H9.69531C9.2811 12.75 8.94531 12.4142 8.94531 12V10.5ZM17.9453 14.25C17.9453 13.8358 18.2811 13.5 18.6953 13.5H20.1953C20.6095 13.5 20.9453 13.8358 20.9453 14.25V15.75C20.9453 16.1642 20.6095 16.5 20.1953 16.5H18.6953C18.2811 16.5 17.9453 16.1642 17.9453 15.75V14.25ZM8.94531 18C8.94531 17.5858 9.2811 17.25 9.69531 17.25H11.1953C11.6095 17.25 11.9453 17.5858 11.9453 18V19.5C11.9453 19.9142 11.6095 20.25 11.1953 20.25H9.69531C9.2811 20.25 8.94531 19.9142 8.94531 19.5V18ZM5.19531 13.5C4.7811 13.5 4.44531 13.8358 4.44531 14.25V15.75C4.44531 16.1642 4.7811 16.5 5.19531 16.5H6.69531C7.10953 16.5 7.44531 16.1642 7.44531 15.75V14.25C7.44531 13.8358 7.10953 13.5 6.69531 13.5H5.19531Z" fill="white" fill-opacity="0.9"/>
</svg>
