<svg width="25" height="24" viewBox="0 0 25 24" fill="none" xmlns="http://www.w3.org/2000/svg">
<path fill-rule="evenodd" clip-rule="evenodd" d="M7.05479 20.6351H10.8354C10.9964 20.6351 11.0899 20.4465 10.9964 20.3153C10.6457 19.8233 10.017 18.8516 9.8776 18.0325C9.76825 17.3902 9.8776 16.3594 9.8776 16.3594C9.8776 16.3594 11.8348 17.6191 13.1011 17.2889C13.3336 17.2283 13.5553 17.147 13.7645 17.0471V13.1784C13.7645 12.7903 13.8767 12.4068 14.1204 12.1048C14.4731 11.6677 14.8774 11.2635 15.3223 10.9111C13.8651 6.58723 9.72094 3.26195 8.9753 2.69002C8.90531 2.63633 8.81636 2.63915 8.74976 2.69699C7.89822 3.43645 2.37329 8.41072 1.90368 13.385C1.71062 15.4301 3.26695 17.0201 5.12718 17.2889C6.29116 17.457 8.01137 16.3594 8.01137 16.3594C8.01137 16.3594 8.12886 17.3919 8.01137 18.0325C7.85739 18.8719 7.24017 19.8284 6.89349 20.3147C6.7999 20.446 6.89359 20.6351 7.05479 20.6351Z" fill="white" fill-opacity="0.9"/>
<path d="M19.1251 11.6497C15.8533 11.6497 15.1262 13.3238 15.1262 13.3238C15.1262 13.3238 16.2168 14.663 19.1251 14.663C22.0333 14.663 23.124 13.3238 23.124 13.3238C23.124 13.3238 22.3969 11.6497 19.1251 11.6497Z" fill="white" fill-opacity="0.9"/>
<path d="M15.1262 16.672V14.9979C15.1262 14.9979 16.2168 16.0023 19.1251 16.0023C22.0333 16.0023 23.4875 14.9979 23.4875 14.9979V16.672C23.4875 16.672 22.0333 18.0112 19.1251 18.0112C16.2168 18.0112 15.1262 16.672 15.1262 16.672Z" fill="white" fill-opacity="0.9"/>
<path d="M19.1251 19.3505C16.2168 19.3505 15.1262 18.3461 15.1262 18.3461V20.0201C15.1262 20.0201 16.2168 21.3594 19.1251 21.3594C22.7604 21.3594 23.4875 20.0201 23.4875 20.0201V18.3461C23.4875 18.3461 22.0333 19.3505 19.1251 19.3505Z" fill="white" fill-opacity="0.9"/>
</svg>
