<svg width="24" height="24" viewBox="0 0 24 24" fill="none" xmlns="http://www.w3.org/2000/svg">
<mask id="mask0_116_30061" style="mask-type:luminance" maskUnits="userSpaceOnUse" x="2" y="1" width="21" height="22">
<path d="M22.2674 1.5H2.10742V22.5H22.2674V1.5Z" fill="white"/>
</mask>
<g mask="url(#mask0_116_30061)">
<path fill-rule="evenodd" clip-rule="evenodd" d="M5.96899 18.5625V10.0313V5.8216V1.5H13.0733H18.4574C19.5178 1.5 20.3774 2.39543 20.3774 3.5V10.1748V16.5625C20.3774 17.6671 19.5178 18.5625 18.4574 18.5625H13.1324H5.96899ZM13.0513 5.5591C14.499 4.08452 18.0887 6.37142 13.0302 9.68857C8.00561 6.37055 11.6186 4.08452 13.0513 5.5591ZM14.9812 12.6463C14.7064 12.2848 14.7045 11.7744 14.9767 11.4107L15.9833 10.0657C16.3676 9.55207 17.1132 9.55207 17.4975 10.0657L18.504 11.4107C18.7762 11.7744 18.7743 12.2848 18.4995 12.6463L17.493 13.9703C17.1086 14.4758 16.3722 14.4758 15.9878 13.9703L14.9812 12.6463ZM8.91111 11.3444C8.91111 11.3444 8.61456 10.7288 8.70264 10.3369C8.8316 9.76303 9.27079 9.39514 9.84915 9.38237C10.4434 9.36926 10.9316 9.74371 11.0478 10.3369C11.126 10.7359 10.7873 11.3444 10.7873 11.3444C10.7873 11.3444 12.1422 11.1853 12.1422 12.564C12.1422 13.179 11.6508 13.6345 11.0478 13.6776C10.6818 13.7037 10.1618 13.3594 10.1618 13.3594C10.1618 13.3594 10.1511 13.7231 10.214 13.9427C10.2449 14.0506 10.3065 14.1688 10.373 14.2765C10.4628 14.4216 10.3685 14.6321 10.2027 14.6321H9.45258C9.29416 14.6321 9.19944 14.4398 9.27845 14.2967C9.34152 14.1825 9.40192 14.0554 9.43225 13.9427C9.497 13.7022 9.48436 13.3064 9.48436 13.3064C9.48436 13.3064 9.00596 13.6764 8.65053 13.6776C8.03155 13.6796 7.50401 13.1938 7.50401 12.564C7.50401 11.1853 8.91111 11.3444 8.91111 11.3444Z" fill="white" fill-opacity="0.9"/>
<path d="M4.83601 1.64175C4.53676 1.78278 4.26507 2.06081 4.1312 2.35898L4.017 2.60881L4.0052 10.861L3.99731 19.1172L4.15088 18.9923C4.32413 18.8512 4.72969 18.6498 4.93444 18.6055L5.06044 18.5772V10.0591C5.06044 5.37297 5.0565 1.54102 5.05257 1.54102C5.04469 1.54102 4.94626 1.58534 4.83601 1.64175Z" fill="white" fill-opacity="0.9"/>
<path d="M4.93599 19.6863C4.48289 19.8709 4.19454 20.1949 4.05861 20.6707C3.88973 21.2531 4.16159 21.9299 4.7012 22.2744C5.07191 22.5123 4.63117 22.5 12.577 22.5H19.6986C19.762 22.5 19.7952 22.4217 19.7525 22.3729C19.1799 21.692 19.1553 20.5313 19.7154 19.7643C19.7764 19.6849 19.7358 19.6121 19.6381 19.6114C18.908 19.6066 16.0063 19.5879 12.4946 19.5879H5.17077L4.93599 19.6863Z" fill="white" fill-opacity="0.9"/>
</g>
</svg>
