<svg width="25" height="24" viewBox="0 0 25 24" fill="none" xmlns="http://www.w3.org/2000/svg">
<path fill-rule="evenodd" clip-rule="evenodd" d="M8.97034 15.6H18.9528C19.8059 15.6 20.5568 15.037 20.7959 14.2181L23.2482 5.81806C23.607 4.58915 22.6854 3.35999 21.4051 3.35999H4.64725H2.87369C2.329 3.35999 1.88745 3.80154 1.88745 4.34622C1.88745 4.79519 2.19071 5.18751 2.6252 5.30064L5.24547 5.98284L7.09842 14.1069C7.29764 14.9804 8.07445 15.6 8.97034 15.6ZM13.8334 5.85308C13.7621 5.71391 13.5632 5.71391 13.4917 5.85308L12.48 7.82569L10.333 8.20781C10.1827 8.23458 10.1222 8.41768 10.2272 8.52869L11.7491 10.1396L11.4392 12.3563C11.4177 12.5098 11.5777 12.6243 11.716 12.5543L13.6626 11.5697L15.6091 12.5543C15.7474 12.6243 15.9074 12.5098 15.886 12.3563L15.5761 10.1396L17.0981 8.52869C17.2029 8.41768 17.1425 8.23458 16.9921 8.20781L14.8451 7.82569L13.8334 5.85308ZM11.9674 18.84C11.9674 19.8341 11.1615 20.64 10.1674 20.64C9.17334 20.64 8.36745 19.8341 8.36745 18.84C8.36745 17.8459 9.17334 17.04 10.1674 17.04C11.1615 17.04 11.9674 17.8459 11.9674 18.84ZM17.3674 20.64C18.3615 20.64 19.1674 19.8341 19.1674 18.84C19.1674 17.8459 18.3615 17.04 17.3674 17.04C16.3734 17.04 15.5674 17.8459 15.5674 18.84C15.5674 19.8341 16.3734 20.64 17.3674 20.64Z" fill="white" fill-opacity="0.9"/>
</svg>
