<svg width="25" height="24" viewBox="0 0 25 24" fill="none" xmlns="http://www.w3.org/2000/svg">
<mask id="mask0_116_29963" style="mask-type:luminance" maskUnits="userSpaceOnUse" x="0" y="0" width="25" height="24">
<path d="M24.2648 0.235352H0.735352V23.7648H24.2648V0.235352Z" fill="white"/>
</mask>
<g mask="url(#mask0_116_29963)">
<path d="M8.08828 5.3824C8.08828 5.96743 7.85587 6.52851 7.44219 6.94219C7.02851 7.35587 6.46743 7.58828 5.8824 7.58828C5.29737 7.58828 4.73628 7.35587 4.3226 6.94219C3.90893 6.52851 3.67651 5.96743 3.67651 5.3824C3.67651 4.79737 3.90893 4.23628 4.3226 3.8226C4.73628 3.40893 5.29737 3.17651 5.8824 3.17651C6.46743 3.17651 7.02851 3.40893 7.44219 3.8226C7.85587 4.23628 8.08828 4.79737 8.08828 5.3824ZM8.08828 12C8.08828 12.5851 7.85587 13.1462 7.44219 13.5598C7.02851 13.9735 6.46743 14.2059 5.8824 14.2059C5.29737 14.2059 4.73628 13.9735 4.3226 13.5598C3.90893 13.1462 3.67651 12.5851 3.67651 12C3.67651 11.415 3.90893 10.8539 4.3226 10.4402C4.73628 10.0266 5.29737 9.79416 5.8824 9.79416C6.46743 9.79416 7.02851 10.0266 7.44219 10.4402C7.85587 10.8539 8.08828 11.415 8.08828 12ZM5.8824 20.8236C6.46743 20.8236 7.02851 20.5912 7.44219 20.1775C7.85587 19.7639 8.08828 19.2027 8.08828 18.6177C8.08828 18.0327 7.85587 17.4715 7.44219 17.0578C7.02851 16.6442 6.46743 16.4118 5.8824 16.4118C5.29737 16.4118 4.73628 16.6442 4.3226 17.0578C3.90893 17.4715 3.67651 18.0327 3.67651 18.6177C3.67651 19.2027 3.90893 19.7639 4.3226 20.1775C4.73628 20.5912 5.29737 20.8236 5.8824 20.8236ZM14.7059 5.3824C14.7059 5.96743 14.4735 6.52851 14.0598 6.94219C13.6462 7.35587 13.0851 7.58828 12.5 7.58828C11.915 7.58828 11.3539 7.35587 10.9402 6.94219C10.5266 6.52851 10.2942 5.96743 10.2942 5.3824C10.2942 4.79737 10.5266 4.23628 10.9402 3.8226C11.3539 3.40893 11.915 3.17651 12.5 3.17651C13.0851 3.17651 13.6462 3.40893 14.0598 3.8226C14.4735 4.23628 14.7059 4.79737 14.7059 5.3824ZM12.5 14.2059C13.0851 14.2059 13.6462 13.9735 14.0598 13.5598C14.4735 13.1462 14.7059 12.5851 14.7059 12C14.7059 11.415 14.4735 10.8539 14.0598 10.4402C13.6462 10.0266 13.0851 9.79416 12.5 9.79416C11.915 9.79416 11.3539 10.0266 10.9402 10.4402C10.5266 10.8539 10.2942 11.415 10.2942 12C10.2942 12.5851 10.5266 13.1462 10.9402 13.5598C11.3539 13.9735 11.915 14.2059 12.5 14.2059ZM14.7059 18.6177C14.7059 19.2027 14.4735 19.7639 14.0598 20.1775C13.6462 20.5912 13.0851 20.8236 12.5 20.8236C11.915 20.8236 11.3539 20.5912 10.9402 20.1775C10.5266 19.7639 10.2942 19.2027 10.2942 18.6177C10.2942 18.0327 10.5266 17.4715 10.9402 17.0578C11.3539 16.6442 11.915 16.4118 12.5 16.4118C13.0851 16.4118 13.6462 16.6442 14.0598 17.0578C14.4735 17.4715 14.7059 18.0327 14.7059 18.6177ZM19.1177 7.58828C19.7027 7.58828 20.2639 7.35587 20.6775 6.94219C21.0912 6.52851 21.3236 5.96743 21.3236 5.3824C21.3236 4.79737 21.0912 4.23628 20.6775 3.8226C20.2639 3.40893 19.7027 3.17651 19.1177 3.17651C18.5327 3.17651 17.9715 3.40893 17.5578 3.8226C17.1442 4.23628 16.9118 4.79737 16.9118 5.3824C16.9118 5.96743 17.1442 6.52851 17.5578 6.94219C17.9715 7.35587 18.5327 7.58828 19.1177 7.58828ZM21.3236 12C21.3236 12.5851 21.0912 13.1462 20.6775 13.5598C20.2639 13.9735 19.7027 14.2059 19.1177 14.2059C18.5327 14.2059 17.9715 13.9735 17.5578 13.5598C17.1442 13.1462 16.9118 12.5851 16.9118 12C16.9118 11.415 17.1442 10.8539 17.5578 10.4402C17.9715 10.0266 18.5327 9.79416 19.1177 9.79416C19.7027 9.79416 20.2639 10.0266 20.6775 10.4402C21.0912 10.8539 21.3236 11.415 21.3236 12ZM19.1177 20.8236C19.7027 20.8236 20.2639 20.5912 20.6775 20.1775C21.0912 19.7639 21.3236 19.2027 21.3236 18.6177C21.3236 18.0327 21.0912 17.4715 20.6775 17.0578C20.2639 16.6442 19.7027 16.4118 19.1177 16.4118C18.5327 16.4118 17.9715 16.6442 17.5578 17.0578C17.1442 17.4715 16.9118 18.0327 16.9118 18.6177C16.9118 19.2027 17.1442 19.7639 17.5578 20.1775C17.9715 20.5912 18.5327 20.8236 19.1177 20.8236Z" fill="#FFBC0F"/>
</g>
</svg>
