<svg width="25" height="24" viewBox="0 0 25 24" fill="none" xmlns="http://www.w3.org/2000/svg">
<path fill-rule="evenodd" clip-rule="evenodd" d="M19.5915 19.9168C21.4969 18.2553 22.797 15.9171 23.117 13.2767C23.0323 13.3001 22.9431 13.3125 22.8509 13.3125H14.5113L19.5915 19.9168ZM19.5915 4.08318C21.6502 5.8784 23.0022 8.46357 23.175 11.3662C23.0734 11.3314 22.9644 11.3125 22.8509 11.3125H14.0304L19.5915 4.08318ZM17.9652 21.0829C16.416 21.9839 14.6152 22.5 12.6939 22.5C10.4131 22.5 8.30223 21.7728 6.58037 20.5377L12.3282 13.7448C12.3471 13.776 12.368 13.8065 12.3908 13.836L17.9652 21.0829ZM12.6939 1.5C14.6152 1.5 16.416 2.01605 17.9652 2.9171L12.7697 9.67125L7.67019 3.04189C7.62027 2.97699 7.56395 2.91992 7.5028 2.87087C9.03382 1.99842 10.8056 1.5 12.6939 1.5ZM10.0741 13.3125L5.0729 19.223C3.56402 17.6315 2.54835 15.5677 2.27066 13.2765C2.35567 13.3 2.44522 13.3125 2.5377 13.3125H10.0741ZM11.509 11.3125L6.08494 4.26131C6.01523 4.17068 5.96346 4.07191 5.92908 3.96927C3.79567 5.76821 2.38906 8.40178 2.21265 11.3666C2.31456 11.3316 2.42391 11.3125 2.5377 11.3125H11.509ZM13.6274 6.29424C13.2986 7.14862 12.0897 7.14862 11.7609 6.29424L10.9438 4.17147C10.6917 3.51643 11.1752 2.81226 11.8771 2.81226H13.5112C14.2131 2.81226 14.6966 3.51643 14.4445 4.17147L13.6274 6.29424Z" fill="white" fill-opacity="0.9"/>
</svg>
