<svg width="14" height="14" viewBox="0 0 14 14" fill="none" xmlns="http://www.w3.org/2000/svg">
<g clip-path="url(#clip0_97_12844)">
<path d="M13.7085 1.70228C14.1009 1.30911 14.0966 0.675958 13.6988 0.2881C13.301 -0.0997592 12.6604 -0.0954521 12.268 0.29772L7 5.57607L1.73196 0.29772C1.33956 -0.0954521 0.698988 -0.0997592 0.301209 0.2881C-0.0965706 0.675958 -0.100928 1.30911 0.291476 1.70228L5.57885 7L0.291476 12.2977C-0.100928 12.6909 -0.0965706 13.324 0.301209 13.7119C0.698988 14.0998 1.33956 14.0955 1.73196 13.7023L7 8.42393L12.268 13.7023C12.6604 14.0955 13.301 14.0998 13.6988 13.7119C14.0966 13.324 14.1009 12.6909 13.7085 12.2977L8.42115 7L13.7085 1.70228Z" fill="white"/>
</g>
<defs>
<clipPath id="clip0_97_12844">
<rect width="14" height="14" fill="white"/>
</clipPath>
</defs>
</svg>
