<svg width="26" height="24" viewBox="0 0 26 24" fill="none" xmlns="http://www.w3.org/2000/svg">
<mask id="mask0_116_30492" style="mask-type:luminance" maskUnits="userSpaceOnUse" x="3" y="2" width="21" height="21">
<path d="M23.2227 2.625H3.72266V22.125H23.2227V2.625Z" fill="white"/>
</mask>
<g mask="url(#mask0_116_30492)">
<path fill-rule="evenodd" clip-rule="evenodd" d="M18.2857 15.4451C21.0189 12.3946 22.4933 10.1084 21.8456 5.5187C21.734 4.72776 21.1109 4.10428 20.3197 3.99414C15.7407 3.35665 13.513 4.88943 10.4629 7.62227C10.4629 7.62227 7.52831 6.96172 5.87664 8.9146C4.54402 10.4903 3.84174 13.0272 5.20756 13.7568C5.45258 13.8877 5.71226 13.8464 5.98015 13.5263C6.31926 13.1211 6.90414 12.9939 6.90414 12.9939C6.76411 13.6254 6.69262 14.0564 6.66473 14.5487C6.63525 15.0692 6.85913 15.5675 7.2285 15.9354L8.56854 17.2701L9.88534 18.5922C10.2532 18.9616 10.7515 19.1855 11.2721 19.156C11.7643 19.1281 12.1953 19.0566 12.8268 18.9166C12.8268 18.9166 12.6997 19.5015 12.2944 19.8406C11.9774 20.1058 11.933 20.3681 12.0639 20.6132C12.7935 21.979 15.4177 21.3639 16.9933 20.0313C18.9462 18.3796 18.2857 15.4451 18.2857 15.4451ZM14.7787 8.03967C13.9255 8.89284 13.9255 10.2761 14.7787 11.1293C15.6319 11.9824 17.0151 11.9824 17.8683 11.1293C18.7215 10.2761 18.7215 8.89284 17.8683 8.03967C17.0151 7.1865 15.6319 7.1865 14.7787 8.03967ZM5.93658 17.1331C6.10112 16.974 6.252 17.0428 6.40737 17.1994C7.22223 18.0204 7.72635 18.5343 8.68584 19.5125L8.72054 19.5479C8.86417 19.6943 8.94734 19.8426 8.77799 20.0215L7.50907 21.3086C7.25951 21.5401 6.95657 21.3516 6.95657 21.0499V20.4464L5.32944 20.9329C5.11341 20.9809 4.90688 20.8078 4.98337 20.5696L5.49944 19.0361L4.82551 18.956C4.54125 18.9193 4.40257 18.6782 4.58579 18.4848L5.93658 17.1331Z" fill="white" fill-opacity="0.9"/>
</g>
</svg>
