<svg width="26" height="26" viewBox="0 0 26 26" fill="none" xmlns="http://www.w3.org/2000/svg">
<mask id="mask0_116_30547" style="mask-type:luminance" maskUnits="userSpaceOnUse" x="3" y="3" width="21" height="21">
<path d="M23.1953 3.4209H3.19531V23.4209H23.1953V3.4209Z" fill="white"/>
</mask>
<g mask="url(#mask0_116_30547)">
<path fill-rule="evenodd" clip-rule="evenodd" d="M7.93596 3.43436C7.79662 3.46093 7.63413 3.50934 7.5095 3.56141L7.3899 3.61138L7.32861 3.72691C7.25564 3.86449 7.20375 4.01504 7.17769 4.16483C7.15454 4.2979 7.16082 4.60168 7.18936 4.72873C7.2806 5.13493 7.50983 5.51548 7.89477 5.89977C8.07208 6.07679 8.19519 6.17932 8.37 6.29556C8.82162 6.59585 9.30312 6.70054 9.81342 6.6094L9.88501 6.5966L9.93868 6.47475C10.0901 6.1311 10.1621 5.83152 10.1751 5.49185C10.1919 5.05279 10.0843 4.66465 9.84731 4.30931C9.64241 4.00208 9.39165 3.78122 9.06608 3.62125C8.89601 3.53768 8.75991 3.48959 8.5884 3.4525C8.44 3.42039 8.06399 3.40994 7.93596 3.43436ZM18.975 3.43712C18.959 3.43947 18.9066 3.44721 18.8585 3.45431C18.7445 3.47116 18.5795 3.52555 18.4916 3.57524C18.4343 3.60758 17.4682 4.56844 13.1827 8.85534C8.51267 13.5269 7.94014 14.1035 7.90948 14.1658C7.86051 14.2654 7.84308 14.3477 7.84416 14.4745C7.8453 14.6078 7.8777 14.7376 7.93984 14.8577C7.9796 14.9346 8.11257 15.0704 9.85082 16.8093C11.9788 18.9382 11.7651 18.7444 11.9846 18.7441C12.09 18.744 12.117 18.7397 12.1801 18.7134C12.3365 18.6481 12.3725 18.6172 12.9393 18.062C13.244 17.7635 15.6324 15.4213 18.2468 12.8569C22.736 8.45376 23.0027 8.19001 23.0426 8.11298C23.162 7.88271 23.1853 7.51415 23.1035 7.14625C22.9395 6.40762 22.3793 5.55124 21.495 4.68719C20.7415 3.95094 20.0248 3.53385 19.3644 3.44728C19.2425 3.4313 19.049 3.42626 18.975 3.43712ZM7.03865 3.75201C6.88817 3.8528 6.69837 4.03825 6.57193 4.20802C6.48168 4.32924 6.34796 4.59293 6.29905 4.7462C6.22649 4.97357 6.21164 5.08377 6.21189 5.39282C6.21214 5.69988 6.22413 5.78561 6.2993 6.01804C6.34491 6.15905 6.46633 6.40524 6.54724 6.52073C6.93225 7.07038 7.53679 7.39091 8.18847 7.39091C8.57083 7.39091 8.98189 7.26688 9.27894 7.06186C9.37229 6.99743 9.49914 6.88373 9.46624 6.89399C9.40824 6.91206 9.19134 6.92724 9.08101 6.92095C8.68106 6.89813 8.29713 6.73464 7.93635 6.4335C7.82051 6.3368 7.51973 6.02764 7.38295 5.86467C7.1311 5.56457 6.95952 5.22681 6.8858 4.88601C6.8554 4.74542 6.85545 4.39697 6.88591 4.25687C6.91725 4.1127 6.96962 3.96386 7.0345 3.83454C7.06586 3.77205 7.08827 3.72094 7.08827 3.72094C7.08827 3.72094 7.06417 3.73492 7.03865 3.75201ZM7.78703 16.4566C7.78192 16.7192 7.77659 16.7945 7.75695 16.8827C7.72397 17.0307 7.68143 17.1535 7.62122 17.2744C7.49518 17.5275 7.6024 17.4143 5.40739 19.6125C4.29085 20.7307 3.35386 21.6779 3.32517 21.7175C3.13586 21.9787 3.15435 22.3198 3.37528 22.6417C3.43948 22.7352 3.9714 23.2589 4.05951 23.3153C4.15518 23.3765 4.25656 23.4106 4.36738 23.4189C4.48652 23.4277 4.58189 23.4081 4.70289 23.3498L4.80192 23.3022L6.84662 21.2613C8.76189 19.3496 8.89892 19.2154 9.0113 19.1416C9.23791 18.9929 9.48439 18.8939 9.74182 18.848C9.81011 18.8359 9.95539 18.8267 10.1584 18.8219L10.4701 18.8144L9.13168 17.4761L7.79324 16.1377L7.78703 16.4566Z" fill="white" fill-opacity="0.9"/>
</g>
</svg>
