<svg width="24" height="24" viewBox="0 0 24 24" fill="none" xmlns="http://www.w3.org/2000/svg">
<path d="M13.9992 14.5412H4V11.8077H13.9332C14.8226 11.8077 15.5403 11.6658 16.0862 11.3819C16.6322 11.0888 17.0329 10.6813 17.2883 10.1593C17.5436 9.63736 17.6713 9.02839 17.6713 8.33242C17.6713 7.70971 17.5436 7.12821 17.2883 6.58791C17.0329 6.04762 16.6366 5.60806 16.0995 5.26923C15.5623 4.92125 14.8622 4.74725 13.9992 4.74725H10.0101V22H6.69464V2H13.9992C15.4786 2 16.7379 2.27015 17.777 2.81044C18.8161 3.35073 19.6131 4.09707 20.1678 5.04945C20.7226 5.99267 21 7.07784 21 8.30494C21 9.61447 20.7182 10.7363 20.1546 11.6703C19.5998 12.5952 18.7985 13.3049 17.7506 13.7995C16.7115 14.294 15.461 14.5412 13.9992 14.5412ZM14.3162 16.011V18.7445H4V16.011H14.3162Z" fill="white" fill-opacity="0.9"/>
</svg>
