<svg width="25" height="24" viewBox="0 0 25 24" fill="none" xmlns="http://www.w3.org/2000/svg">
<path d="M6.46094 2.625C5.52854 2.625 4.63432 2.9954 3.97502 3.6547C3.31571 4.31401 2.94531 5.20822 2.94531 6.14063V17.8594C2.94531 18.7918 3.31571 19.686 3.97502 20.3453C4.63432 21.0046 5.52854 21.375 6.46094 21.375H18.1797C19.1121 21.375 20.0063 21.0046 20.6656 20.3453C21.3249 19.686 21.6953 18.7918 21.6953 17.8594V6.14063C21.6953 5.20822 21.3249 4.31401 20.6656 3.6547C20.0063 2.9954 19.1121 2.625 18.1797 2.625H6.46094ZM9.39063 7.3125C9.39063 7.7787 9.20543 8.22581 8.87577 8.55546C8.54612 8.88511 8.09901 9.07031 7.63281 9.07031C7.16661 9.07031 6.71951 8.88511 6.38985 8.55546C6.0602 8.22581 5.875 7.7787 5.875 7.3125C5.875 6.8463 6.0602 6.39919 6.38985 6.06954C6.71951 5.73989 7.16661 5.55469 7.63281 5.55469C8.09901 5.55469 8.54612 5.73989 8.87577 6.06954C9.20543 6.39919 9.39063 6.8463 9.39063 7.3125ZM18.7656 16.6875C18.7656 17.1537 18.5804 17.6008 18.2508 17.9305C17.9211 18.2601 17.474 18.4453 17.0078 18.4453C16.5416 18.4453 16.0945 18.2601 15.7649 17.9305C15.4352 17.6008 15.25 17.1537 15.25 16.6875C15.25 16.2213 15.4352 15.7742 15.7649 15.4445C16.0945 15.1149 16.5416 14.9297 17.0078 14.9297C17.474 14.9297 17.9211 15.1149 18.2508 15.4445C18.5804 15.7742 18.7656 16.2213 18.7656 16.6875ZM12.3203 13.7578C11.8541 13.7578 11.407 13.5726 11.0774 13.243C10.7477 12.9133 10.5625 12.4662 10.5625 12C10.5625 11.5338 10.7477 11.0867 11.0774 10.757C11.407 10.4274 11.8541 10.2422 12.3203 10.2422C12.7865 10.2422 13.2336 10.4274 13.5633 10.757C13.8929 11.0867 14.0781 11.5338 14.0781 12C14.0781 12.4662 13.8929 12.9133 13.5633 13.243C13.2336 13.5726 12.7865 13.7578 12.3203 13.7578Z" fill="white" fill-opacity="0.9"/>
</svg>
