<svg width="25" height="24" viewBox="0 0 25 24" fill="none" xmlns="http://www.w3.org/2000/svg">
<path fill-rule="evenodd" clip-rule="evenodd" d="M11.7615 5.43079C11.7449 5.43079 11.6431 5.46788 11.5353 5.51321C11.4275 5.55854 11.3339 5.59563 11.3273 5.59563C11.3032 5.59563 10.3938 6.00871 10.2188 6.0991C9.62198 6.40743 8.90225 6.87936 8.62623 7.14334C8.36532 7.39288 8.26874 7.54887 8.01968 8.12314C7.83555 8.54765 7.79753 8.6176 7.65193 8.79919C7.51912 8.96486 7.28511 9.13093 7.06998 9.2122C6.68709 9.35681 5.40294 9.95012 5.03046 10.1545C4.74837 10.3092 4.47699 10.4742 4.0552 10.7473C3.97292 10.8006 3.77048 10.9038 3.60535 10.9768C3.25965 11.1294 3.19556 11.1949 3.19556 11.3953C3.19556 11.5419 3.25579 11.6543 3.48184 11.9297C3.61465 12.0914 3.97597 12.4239 4.26464 12.65C4.69987 12.9908 5.79361 13.5669 6.25435 13.6979L6.5494 13.7821C6.85967 13.8708 7.47839 13.9075 7.98973 13.8674C8.22835 13.8487 8.4707 13.8229 8.5283 13.8099C8.5859 13.797 8.70708 13.7732 8.79758 13.7569C9.31189 13.6648 9.44345 13.6383 9.77 13.5611C10.4087 13.4103 11.044 13.2303 11.266 13.1373C11.3154 13.1167 11.4231 13.079 11.5054 13.0538C11.5877 13.0285 11.8225 12.9331 12.0273 12.8418L12.3997 12.6758L12.5958 12.8658C12.7916 13.0553 13.0981 13.4569 13.2852 13.7688C13.6708 14.4118 13.8023 14.6607 13.9542 15.0357C14.1833 15.6012 14.2491 16.3817 14.1694 17.5876L13.7219 21.5186L13.7216 21.5214C13.7045 21.6715 13.6954 21.7511 13.7532 21.8917C13.8997 22.2487 14.203 22.5 14.5889 22.5C15.3505 22.5 16.1347 22.2907 16.7854 21.8949L18.7541 20.6975L21.6674 19.2678C22.4732 18.8723 22.8752 17.9525 22.6181 17.0925L21.9182 14.7515C21.2254 12.4343 20.0809 10.2771 18.5508 8.40411L17.7451 7.41789C17.4262 7.02764 17.0569 6.68294 16.6633 6.36836C16.538 6.26822 16.3419 6.11212 16.2275 6.02146C16.0641 5.89195 15.985 5.80066 15.8589 5.59563L14.8087 2.6174C14.5034 1.75176 13.2908 1.72027 12.9411 2.56889L11.7615 5.43079ZM10.7978 7.54826C10.6812 7.66541 10.6044 7.81268 10.6044 7.91906C10.6044 8.15229 10.9347 8.4842 11.1669 8.4842C11.3771 8.4842 11.7294 8.15628 11.7294 7.96054C11.7294 7.741 11.5939 7.50677 11.4212 7.42772C11.1634 7.30977 11.0047 7.34042 10.7978 7.54826Z" fill="white" fill-opacity="0.9"/>
</svg>
