<svg width="25" height="24" viewBox="0 0 25 24" fill="none" xmlns="http://www.w3.org/2000/svg">
<path d="M3.50386 5.63721C4.68412 6.04498 5.96468 6.6348 6.92895 7.98191C7.42651 7.37025 8.99248 6.31804 9.9529 6.15785C9.37819 4.79981 9.00406 3.8277 9.18148 2.20753C9.18148 2.20753 7.89707 3.31435 8.68777 5.42968C7.00609 3.48547 6.44295 2.81555 5.00426 2C5.19712 3.73304 6.83638 6.4746 6.83638 6.4746C6.83638 6.4746 5.30897 5.16025 3.5 5.63721H3.50386Z" fill="white" fill-opacity="0.9"/>
<path d="M18.7653 8.37667C17.3729 7.31354 15.6025 6.67639 13.6701 6.67639C10.2913 6.67639 7.39462 8.62424 6.17578 11.3985L18.7653 8.37667Z" fill="white" fill-opacity="0.9"/>
<path d="M8.5752 20.2997C9.9676 21.3629 11.738 22 13.6704 22C17.0492 22 19.9459 20.0522 21.1647 17.2778L8.5752 20.2997Z" fill="white" fill-opacity="0.9"/>
<path d="M6.92718 12.151C7.35917 12.0454 7.74873 12.1219 8.09201 12.3731C8.4353 12.6243 8.62815 12.9775 8.66286 13.4362C8.69758 13.9022 8.58186 14.3137 8.31187 14.6777C8.04187 15.0418 7.66774 15.2821 7.18174 15.3986L5.83948 15.719L5.58105 12.4714L6.92332 12.151H6.92718ZM7.83359 13.5746C7.81045 13.3306 7.72173 13.1522 7.56745 13.0394C7.41317 12.9265 7.22031 12.8974 6.99275 12.952L6.51833 13.0649L6.64561 14.7069L7.09689 14.5976C7.33603 14.5394 7.52117 14.4192 7.65616 14.2299C7.79116 14.0406 7.84902 13.8221 7.83359 13.5709V13.5746Z" fill="white" fill-opacity="0.9"/>
<path d="M11.5273 12.238C11.5427 12.4455 11.508 12.6384 11.4232 12.8168C11.3383 12.9953 11.211 13.1482 11.0413 13.272L11.7973 14.2914L10.9487 14.4953L10.293 13.5851L9.93433 13.6724L10.0153 14.721L9.17449 14.9249L8.91992 11.6773L10.2082 11.3678C10.536 11.2877 10.8292 11.335 11.0915 11.5061C11.3537 11.6773 11.4965 11.9212 11.5196 12.2452L11.5273 12.238ZM9.82248 12.238L9.88034 12.9661L10.3663 12.8496C10.4705 12.8278 10.5515 12.7768 10.6055 12.6931C10.6633 12.6093 10.6865 12.5147 10.6749 12.4054C10.6672 12.2962 10.6248 12.2161 10.5515 12.1651C10.4782 12.1142 10.3856 12.0996 10.2738 12.1287L9.82248 12.238Z" fill="white" fill-opacity="0.9"/>
<path d="M13.7101 13.8995C13.3783 13.9796 13.0659 13.9723 12.7766 13.874C12.4874 13.7757 12.2559 13.6119 12.0824 13.3825C11.9088 13.1531 11.8124 12.8873 11.7854 12.5815C11.7468 12.1191 11.8664 11.6931 12.1479 11.3036C12.4256 10.914 12.8229 10.6591 13.3398 10.5353C13.8566 10.4116 14.2693 10.488 14.6396 10.7501C15.006 11.0123 15.2105 11.38 15.2529 11.846C15.2915 12.3157 15.1757 12.7453 14.9019 13.1313C14.628 13.5172 14.2308 13.7757 13.7139 13.8995H13.7101ZM12.9309 13.0075C13.1083 13.1313 13.3205 13.164 13.5751 13.1021C13.8296 13.0402 14.034 12.9092 14.196 12.7016C14.3542 12.4941 14.4236 12.2611 14.4005 12.0062C14.3812 11.7477 14.2809 11.5584 14.0996 11.431C13.9183 11.3036 13.7023 11.2744 13.4478 11.3363C13.1932 11.3982 12.9888 11.5293 12.8384 11.7368C12.6841 11.9407 12.6185 12.1737 12.6378 12.4322C12.6571 12.6907 12.7574 12.8837 12.9309 13.0111V13.0075Z" fill="white" fill-opacity="0.9"/>
<path d="M16.7489 9.7907C17.0767 9.71061 17.3699 9.7543 17.6206 9.91813C17.8713 10.082 18.0178 10.3368 18.0564 10.6827C18.095 11.0067 18.0178 11.2944 17.825 11.5456C17.6321 11.7968 17.3467 11.9643 16.9649 12.059L16.5329 12.1645L16.61 13.1403L15.7692 13.3442L15.5107 10.0965L16.7527 9.79799L16.7489 9.7907ZM17.2079 10.8393C17.204 10.7337 17.1654 10.6572 17.0921 10.6135C17.0189 10.5662 16.9263 10.5589 16.8144 10.5844L16.4133 10.6791L16.4673 11.3708L16.8761 11.2725C16.988 11.247 17.069 11.1924 17.1307 11.116C17.1886 11.0359 17.2156 10.9449 17.2079 10.8393Z" fill="white" fill-opacity="0.9"/>
<path d="M19.7083 12.4681C19.3573 12.5518 19.0526 12.5518 18.8019 12.4681C18.5473 12.3807 18.3545 12.2278 18.2195 12.0057L18.8713 11.4632C19.0295 11.6999 19.2648 11.78 19.5772 11.7035C19.8356 11.6416 19.959 11.536 19.9475 11.3867C19.9398 11.2848 19.8472 11.2193 19.6659 11.1938C19.6389 11.1865 19.5116 11.1756 19.2918 11.161C18.9793 11.1392 18.7286 11.0663 18.5358 10.9462C18.3468 10.826 18.2388 10.6222 18.2156 10.3382C18.1925 10.0396 18.2774 9.78481 18.4663 9.57C18.6553 9.35519 18.9138 9.20955 19.2339 9.13309C19.5116 9.06756 19.7623 9.0712 19.9976 9.14766C20.2329 9.22412 20.4257 9.36247 20.58 9.57L19.959 10.1052C19.797 9.91588 19.6003 9.8467 19.3728 9.90131C19.1761 9.94864 19.0796 10.0433 19.0873 10.1816C19.0873 10.2617 19.1336 10.3163 19.2223 10.3455C19.311 10.3746 19.4692 10.4001 19.6929 10.4183C19.851 10.4328 19.9783 10.4474 20.0825 10.4656C20.1827 10.4838 20.2946 10.5239 20.4142 10.5785C20.5337 10.6331 20.6263 10.7168 20.6957 10.8297C20.7652 10.9426 20.8037 11.0809 20.8192 11.252C20.8423 11.5579 20.7536 11.8164 20.5569 12.0275C20.3602 12.2387 20.0786 12.3843 19.7122 12.4754L19.7083 12.4681Z" fill="white" fill-opacity="0.9"/>
<path d="M9.60291 17.6491C9.53734 17.9403 9.45634 18.1879 9.35606 18.3991L9.8382 18.7741L9.23263 19.2729L8.89707 19.018C8.67336 19.2219 8.3995 19.3639 8.07165 19.444C7.69366 19.535 7.38123 19.5095 7.13824 19.3639C6.89524 19.2183 6.76024 18.9998 6.7371 18.7049C6.70624 18.319 6.86824 17.9804 7.22309 17.6891C7.0881 17.5253 7.01095 17.3505 6.99553 17.1575C6.96853 16.8881 7.04567 16.6478 7.21924 16.4403C7.39281 16.2328 7.63966 16.0944 7.94823 16.018C8.49593 15.8869 8.92407 16.0362 9.23649 16.4621L8.57693 17.0228C8.43807 16.8226 8.27993 16.7461 8.10637 16.7862C8.02922 16.8044 7.96751 16.8408 7.92123 16.8954C7.87494 16.95 7.85566 17.0156 7.86337 17.0884C7.87108 17.1357 7.89037 17.1867 7.92123 17.234C7.95594 17.2813 7.9868 17.3214 8.01765 17.3469C8.04851 17.3724 8.10251 17.416 8.17579 17.4743L8.75821 17.9258C8.81221 17.751 8.84693 17.5799 8.86621 17.4124L9.60291 17.6418V17.6491ZM8.04079 18.7195C8.14879 18.694 8.24522 18.6503 8.33008 18.5848L7.73609 18.126C7.73609 18.126 7.72451 18.1187 7.72451 18.1151C7.61266 18.2243 7.56252 18.3445 7.57795 18.4755C7.58566 18.5738 7.62809 18.6467 7.71294 18.6976C7.79394 18.745 7.9058 18.7522 8.04465 18.7195H8.04079Z" fill="white" fill-opacity="0.9"/>
<path d="M10.6285 18.7638L9.44824 15.7383L10.3007 15.5344L10.9949 17.4531L11.4192 15.265L12.0903 15.1048L12.8425 17.0089L13.2012 14.839L14.123 14.6169L13.4635 18.0866L12.5725 18.3014L11.8975 16.5939L11.5195 18.5527L10.6285 18.7675V18.7638Z" fill="white" fill-opacity="0.9"/>
<path d="M14.4102 14.5411L15.251 14.3372L15.5094 17.5849L14.6686 17.7888L14.4102 14.5411Z" fill="white" fill-opacity="0.9"/>
<path d="M16.0309 17.4655L15.7725 14.2178L16.4282 14.0613L17.7241 15.4812L17.593 13.7809L18.43 13.5807L18.6884 16.8283L18.0404 16.9849L16.7444 15.5649L16.8756 17.2652L16.0347 17.4691L16.0309 17.4655Z" fill="white" fill-opacity="0.9"/>
<path d="M20.3851 16.4851C20.0341 16.5688 19.7294 16.5688 19.4787 16.4851C19.2241 16.4013 19.0313 16.2448 18.8963 16.0227L19.5481 15.4802C19.7062 15.7169 19.9415 15.797 20.2539 15.7205C20.5124 15.6586 20.6358 15.553 20.6242 15.4038C20.6165 15.3018 20.5239 15.2363 20.3427 15.2108C20.3157 15.2035 20.1884 15.1926 19.9685 15.178C19.6561 15.1562 19.4054 15.0834 19.2125 14.9632C19.0235 14.8431 18.9155 14.6392 18.8924 14.3552C18.8693 14.0566 18.9541 13.8018 19.1431 13.587C19.336 13.3722 19.5905 13.2265 19.9107 13.1501C20.1884 13.0845 20.4391 13.0882 20.6744 13.1646C20.9058 13.2411 21.1025 13.3794 21.2568 13.587L20.6358 14.1258C20.4738 13.9328 20.2771 13.8673 20.0495 13.9219C19.8528 13.9693 19.7564 14.0639 19.7641 14.2023C19.7641 14.2824 19.8104 14.337 19.8991 14.3661C19.9878 14.3952 20.1459 14.4207 20.3697 14.4389C20.5278 14.4535 20.6551 14.4681 20.7592 14.4863C20.8595 14.5045 20.9714 14.5445 21.0909 14.5991C21.2105 14.6537 21.3031 14.7375 21.3725 14.8503C21.4419 14.9632 21.4805 15.1016 21.4959 15.2727C21.5191 15.5785 21.4304 15.837 21.2336 16.0482C21.0369 16.2593 20.7554 16.4086 20.3889 16.496L20.3851 16.4851Z" fill="white" fill-opacity="0.9"/>
</svg>
