<svg width="24" height="24" viewBox="0 0 24 24" fill="none" xmlns="http://www.w3.org/2000/svg">
<path fill-rule="evenodd" clip-rule="evenodd" d="M10.47 15C10.7032 15 10.8473 15.2544 10.7273 15.4543L8.25716 19.5713C8.14064 19.7655 7.85918 19.7655 7.74266 19.5713L5.27246 15.4544C5.15249 15.2544 5.29652 15 5.52971 15H6.99991V4.3C6.99991 4.13431 7.13423 4 7.29991 4H8.69991C8.8656 4 8.99991 4.13431 8.99991 4.3V15H10.47Z" fill="white" fill-opacity="0.7"/>
<path fill-rule="evenodd" clip-rule="evenodd" d="M18.47 8.99999C18.7032 8.99999 18.8473 8.7456 18.7273 8.54564L16.2571 4.42873C16.1406 4.23453 15.8592 4.23453 15.7427 4.42873L13.2725 8.54564C13.1525 8.7456 13.2965 8.99999 13.5297 8.99999H14.9999V19.7C14.9999 19.8657 15.1342 20 15.2999 20H16.6999C16.8656 20 16.9999 19.8657 16.9999 19.7V8.99999H18.47Z" fill="white" fill-opacity="0.7"/>
</svg>
