<svg width="25" height="24" viewBox="0 0 25 24" fill="none" xmlns="http://www.w3.org/2000/svg">
<path d="M8.6009 8.54897C8.47646 8.35316 8.32475 8.06795 8.1823 7.78478C7.99057 7.40362 7.42493 7.39672 7.21568 7.76855C5.86765 10.1639 4.0269 12.2324 4.17216 14.982C4.45536 20.3428 10.3724 21.75 10.3724 21.75C8.55977 17.2826 8.59871 15.2216 11.2581 12.6366C11.5282 16.9804 12.8824 18.8507 16.2319 21.75C21.8595 19.1113 22.6478 13.1348 19.0195 8.45097C18.8026 8.171 18.3683 8.21995 18.1831 8.52178C17.9143 8.95965 17.5261 9.52394 17.1176 9.88917C17.0388 9.95959 16.9814 9.88917 16.9814 9.88917C16.0946 6.39384 14.4797 4.686 11.1468 2.66794C10.8265 2.474 10.4181 2.69634 10.3855 3.06936C10.1975 5.22555 9.70634 6.48457 8.73712 8.48196C8.73712 8.48196 8.65732 8.63773 8.6009 8.54897Z" fill="#FF6300"/>
</svg>
