<svg width="25" height="24" viewBox="0 0 25 24" fill="none" xmlns="http://www.w3.org/2000/svg">
<path d="M22.2832 7.33746C22.2631 7.28728 22.2126 7.24738 22.152 7.25741C22.0914 7.26744 22.051 7.31763 22.051 7.37784C22.051 8.7829 21.4855 9.82662 20.4051 10.499C19.3146 11.1714 17.9918 11.2417 17.5273 11.2015L18.5875 9.77643C18.5875 9.77643 18.6178 9.67607 18.5875 9.63596C18.5572 9.59579 18.4967 9.5757 18.4563 9.58577C17.497 9.80653 13.7811 9.88681 13.7407 9.88681C12.7108 9.91697 12.2261 9.25457 12.2059 9.23449C12.1756 9.19438 12.1352 9.1843 12.0847 9.1843C12.0342 9.1843 12.004 9.22448 11.9837 9.26459L10.7417 12.4862C5.44055 13.8812 3.44125 16.9723 3.42105 17.0024C3.40086 17.0325 3.40086 17.0827 3.41096 17.1128C3.42105 17.1429 3.46144 17.183 3.49173 17.193C5.77378 17.7852 6.20797 18.2067 6.28875 18.3673C4.93568 18.3873 2.85559 19.1702 2.76471 19.2103C2.71422 19.2304 2.67383 19.2805 2.68393 19.3407C2.68393 19.401 2.73442 19.4411 2.795 19.4512C4.82461 19.7522 7.3288 19.8225 9.2978 19.8225C10.8225 19.8225 12.0342 19.7823 12.4584 19.7623C12.5997 19.7623 12.731 19.7422 12.8622 19.7221C13.8922 19.5817 19.153 18.6784 21.3139 14.8346C23.707 10.5793 22.2934 7.36757 22.2832 7.33746ZM6.1171 16.611C5.81417 16.611 5.57183 16.3701 5.57183 16.069C5.57183 15.7679 5.81417 15.5271 6.1171 15.5271C6.42002 15.5271 6.66236 15.7679 6.66236 16.069C6.66236 16.3701 6.42002 16.611 6.1171 16.611Z" fill="white" fill-opacity="0.9"/>
<path d="M14.6485 6.66584C14.6485 6.66584 14.598 6.77624 14.6283 6.82642C14.6586 6.8766 14.7192 6.89667 14.7697 6.8766C16.9709 6.19415 19.152 6.47516 19.1722 6.47516C20.7676 6.71602 20.7373 7.6293 20.7373 7.66944C20.7373 7.72966 20.7777 7.78987 20.8383 7.79991H20.8585C20.909 7.79991 20.9595 7.7698 20.9796 7.70958C21.6158 5.6522 19.4953 4.88947 19.4852 4.87943L13.1237 2.25C13.1237 2.25 13.0127 2.25 12.9824 2.28011C12.942 2.32025 12.942 2.38047 12.9723 2.42061C13.0127 2.48083 13.8609 3.95612 14.7595 4.86939C15.5573 5.67228 14.6889 6.6257 14.6485 6.66584Z" fill="white" fill-opacity="0.9"/>
<path d="M20.6964 19.0302L18.3437 19.3213C18.3437 19.3213 18.3235 19.3213 18.3134 19.3213C16.9806 19.8632 15.8193 20.3048 15.7991 20.3148C15.7588 20.3349 15.7284 20.365 15.7183 20.4152C15.7183 20.4553 15.7183 20.5055 15.7588 20.5356C16.8694 21.479 17.748 21.7399 17.7883 21.75C17.7985 21.75 17.8085 21.75 17.8186 21.75C17.859 21.75 17.9095 21.7299 17.9297 21.6797C18.374 20.8668 20.7571 19.2811 20.7772 19.261C20.8277 19.2309 20.8479 19.1707 20.8277 19.1105C20.8075 19.0603 20.7469 19.0202 20.6964 19.0302Z" fill="white" fill-opacity="0.9"/>
</svg>
