<svg width="25" height="24" viewBox="0 0 25 24" fill="none" xmlns="http://www.w3.org/2000/svg">
<path d="M12.7461 2.25021C12.666 2.24969 12.5858 2.25013 12.5056 2.25152C12.2112 2.25762 11.9168 2.27788 11.624 2.31009C11.6386 2.31732 11.6478 2.32403 11.6446 2.32917L10.5483 4.04774L13.7809 6.20202L13.7754 6.21021L16.8645 6.22241L17.8185 4.23158L16.587 3.04274C15.8929 2.74627 15.1669 2.53017 14.4233 2.39868C13.87 2.30107 13.308 2.25226 12.7461 2.25021ZM9.94149 4.62238L6.71986 6.22511L6.1157 10.5133L8.36142 11.98L12.488 10.0871L13.1386 6.75352L9.94149 4.62238ZM18.5293 4.63737L17.5999 6.57651L19.2073 9.74538L21.9218 11.4407L22.4166 10.5133C22.4265 10.5196 22.4363 10.5309 22.4453 10.546C22.4116 10.3301 22.3705 10.1149 22.3224 9.90187C22.0405 8.65602 21.5093 7.46325 20.7697 6.41707C20.373 5.85615 19.9156 5.33733 19.4096 4.87011L18.5293 4.63737ZM5.29153 5.63962C4.98947 5.99019 4.71168 6.36125 4.4632 6.75082C3.77755 7.82558 3.30675 9.03831 3.08819 10.2941C2.98176 10.9069 2.9346 11.5284 2.94735 12.1502L3.83306 12.3722L5.27775 10.6073L5.91065 6.11617L5.29153 5.63962ZM18.9695 10.5569L16.5283 12.507L16.3765 16.9122L18.1097 17.8328L21.4858 15.6717L21.6785 12.2401L21.6744 12.2469L18.9695 10.5569ZM12.8091 10.8361L8.69624 12.7235L8.64297 16.0625L12.5425 18.5627L15.5578 16.975L15.7081 12.5411L12.8091 10.8361ZM3.00202 13.004C3.04182 13.3716 3.10218 13.7368 3.1838 14.0975C3.4657 15.3434 3.99822 16.5361 4.73793 17.5822C4.90733 17.8219 5.08871 18.0531 5.27915 18.2768L4.86914 16.1783L4.87457 16.1769L3.69231 13.1769L3.00202 13.004ZM8.12768 16.7012L5.87374 17.0566L6.31659 19.3267C6.69163 19.6532 7.091 19.9509 7.51127 20.2172C8.15183 20.6223 8.837 20.9527 9.5533 21.2018L12.2925 20.6053L12.1025 19.249L8.12768 16.7012ZM21.3559 16.723L18.547 18.5205L16.71 20.5849L16.9028 20.8532C17.4288 20.6116 17.9337 20.324 18.4077 19.9939C19.4561 19.2635 20.3586 18.3247 21.0442 17.2499C21.154 17.0779 21.2572 16.9017 21.3559 16.723ZM15.9857 20.9785L12.4892 21.3979L11.3534 21.6443C12.534 21.8186 13.7466 21.777 14.9099 21.5218C15.3216 21.4315 15.7271 21.313 16.1237 21.1704L15.9857 20.9785Z" fill="white" fill-opacity="0.9"/>
</svg>
