<svg width="24" height="24" viewBox="0 0 24 24" fill="none" xmlns="http://www.w3.org/2000/svg">
<path fill-rule="evenodd" clip-rule="evenodd" d="M11.9329 5.26293C13.5461 3.7972 15.5724 2.88784 17.6782 2.68456C17.8717 2.66588 18.4862 2.64819 19.0438 2.64527L20.0577 2.63995L19.3345 3.3789C18.9367 3.78535 18.5319 4.22426 18.4348 4.35432C17.6548 5.39965 17.2082 6.42917 16.9663 7.73985C16.9204 7.98857 16.9033 8.51541 16.889 10.1293L16.8707 10.7597L17.1772 10.8049C17.7757 10.8928 18.6991 11.2585 19.2169 11.6127C20.3975 12.42 21.1704 13.5922 21.4758 15.0381C21.5713 15.4902 21.5715 16.5306 21.4761 17.0132C21.3964 17.4168 21.1806 18.061 21.0116 18.4001C20.2671 19.8937 18.9158 20.9354 17.2679 21.286C16.8056 21.3844 15.7762 21.3844 15.3138 21.286C13.3875 20.8762 11.8887 19.532 11.2746 17.6639C10.7933 16.1991 11.0102 14.4736 11.8382 13.1808C12.6333 11.9395 14.0327 11.0064 15.4013 10.8052L15.7047 10.7607V10.3606C15.7047 8.45882 15.7288 7.99523 15.8641 7.29041C16.0687 6.22574 16.5083 5.11198 17.0512 4.2833C17.1477 4.13583 17.2383 3.99643 17.2523 3.97353C17.2864 3.91785 17.0561 3.95572 16.4776 4.10095C14.6536 4.55882 12.9287 5.69752 11.7327 7.23334C11.5978 7.40657 11.4683 7.56816 11.3448 7.72225C10.576 8.68155 10.0408 9.34952 9.88907 10.7186C9.90174 10.7314 10.0807 10.7766 10.2866 10.819C10.7007 10.9043 11.1561 11.0629 11.5221 11.2492L11.7619 11.3713L11.5936 11.5673C10.4595 12.8881 9.93333 14.1523 9.85624 15.7425C9.77762 17.3627 10.3861 19.1312 11.4293 20.3141C11.5535 20.4551 11.68 20.6002 11.7102 20.6368C11.7599 20.6969 11.7395 20.7164 11.4976 20.8389C11.1579 21.0109 10.6212 21.1954 10.1943 21.2869C9.73739 21.3848 8.74412 21.3842 8.2793 21.2857C6.35546 20.8783 4.85409 19.532 4.24014 17.6639C3.83014 16.4163 3.92323 14.9556 4.4892 13.7558C5.21645 12.2139 6.71208 11.0779 8.37622 10.8034L8.68808 10.752C8.80392 9.58291 9.05983 8.87581 9.80344 8.02282C9.80344 8.01254 9.71119 8.04528 9.59827 8.09557C9.22571 8.26157 8.65416 8.42662 8.23388 8.48956C6.51089 8.74754 4.78801 8.10625 3.2991 6.65267L2.82751 6.19227L3.1597 5.8516C4.15205 4.83399 5.32897 4.16054 6.54649 3.91375C7.07545 3.80651 8.0189 3.81652 8.54969 3.93495C9.52238 4.15202 10.4829 4.64465 11.3077 5.34944L11.5808 5.58286L11.9329 5.26293Z" fill="white" fill-opacity="0.9"/>
</svg>
