<svg width="25" height="24" viewBox="0 0 25 24" fill="none" xmlns="http://www.w3.org/2000/svg">
<mask id="mask0_116_30532" style="mask-type:luminance" maskUnits="userSpaceOnUse" x="0" y="0" width="25" height="24">
<path d="M24.6953 0H0.695312V24H24.6953V0Z" fill="white"/>
</mask>
<g mask="url(#mask0_116_30532)">
<path fill-rule="evenodd" clip-rule="evenodd" d="M10.7386 1.5H19.5769C20.3305 1.5 20.9437 2.12055 20.9437 2.88331V16.993C20.9437 17.7558 20.3305 18.3763 19.5769 18.3763H19.2049C19.274 18.1372 19.2783 17.879 19.2038 17.6255L15.1447 3.81834C14.9253 3.07194 14.1044 2.64434 13.3149 2.86516L9.37183 3.96798V2.88331C9.37183 2.12055 9.98495 1.5 10.7386 1.5Z" fill="white" fill-opacity="0.9"/>
<path fill-rule="evenodd" clip-rule="evenodd" d="M4.25884 6.51988L12.7547 4.05828C13.4792 3.84839 14.2315 4.25118 14.4317 4.95618L18.1363 17.9974C18.3366 18.7024 17.9101 19.4467 17.1857 19.6566L8.68979 22.1182C7.96536 22.3281 7.21306 21.9253 7.01279 21.2203L3.30822 8.17908C3.10796 7.47409 3.5344 6.72976 4.25884 6.51988ZM10.1678 11.2759C11.344 9.17192 16.1823 10.4695 11.479 15.8095C4.66891 13.865 8.05513 10.1421 10.1678 11.2759Z" fill="white" fill-opacity="0.9"/>
</g>
</svg>
