<svg width="25" height="24" viewBox="0 0 25 24" fill="none" xmlns="http://www.w3.org/2000/svg">
<path fill-rule="evenodd" clip-rule="evenodd" d="M19.3078 19.6001C21.137 18.0051 22.3851 15.7604 22.6923 13.2256C22.611 13.2481 22.5254 13.26 22.4369 13.26H14.4309L19.3078 19.6001ZM19.3078 4.39985C21.2842 6.12326 22.5821 8.60503 22.748 11.3916C22.6505 11.3581 22.5458 11.34 22.4369 11.34H13.9692L19.3078 4.39985ZM17.7466 20.7196C16.2594 21.5845 14.5306 22.08 12.6861 22.08C10.4966 22.08 8.47014 21.3819 6.81716 20.1962L12.3351 13.675C12.3532 13.705 12.3733 13.7342 12.3952 13.7626L17.7466 20.7196ZM12.6861 1.92C14.5306 1.92 16.2594 2.41541 17.7466 3.28041L12.7589 9.7644L7.86338 3.40021C7.81546 3.33791 7.76139 3.28312 7.70269 3.23603C9.17247 2.39848 10.8734 1.92 12.6861 1.92ZM10.1711 13.26L5.36999 18.9341C3.92146 17.4062 2.94642 15.425 2.67983 13.2254C2.76144 13.248 2.84741 13.26 2.93619 13.26H10.1711ZM11.5486 11.34L6.34154 4.57086C6.27462 4.48385 6.22492 4.38903 6.19192 4.2905C4.14384 6.01748 2.7935 8.54571 2.62415 11.3919C2.72198 11.3583 2.82696 11.34 2.93619 11.34H11.5486ZM13.5823 6.52247C13.2667 7.34267 12.1061 7.34267 11.7905 6.52247L11.006 4.48461C10.764 3.85577 11.2282 3.17977 11.902 3.17977H13.4708C14.1446 3.17977 14.6087 3.85577 14.3667 4.48461L13.5823 6.52247Z" fill="white" fill-opacity="0.9"/>
</svg>
