<svg width="25" height="24" viewBox="0 0 25 24" fill="none" xmlns="http://www.w3.org/2000/svg">
<path fill-rule="evenodd" clip-rule="evenodd" d="M10.7366 16.5H3.34474C2.71445 16.5 2.19855 15.9513 2.20167 15.375L2.26506 4.79508C2.26818 4.21883 2.7835 3.75 3.41379 3.75H10.8057C11.436 3.75 12.0121 4.21882 12.0089 4.79508L11.9512 15.4549C11.9481 16.0312 11.3669 16.5 10.7366 16.5ZM5.15536 11.7043C5.03546 11.5043 5.1795 11.25 5.41265 11.25H6.38202L6.38205 5.55C6.38205 5.38431 6.51636 5.25 6.68205 5.25H7.58111C7.74679 5.25 7.88111 5.38431 7.8811 5.55L7.88108 11.25H8.85046C9.08361 11.25 9.22765 11.5043 9.10775 11.7043L7.38883 14.5709C7.27233 14.7652 6.99076 14.7652 6.87425 14.5709L5.15536 11.7043ZM5.06566 5.94441C5.08805 5.97798 5.08807 6.0217 5.06573 6.05528L4.12667 7.46618C4.08712 7.5256 3.99983 7.52561 3.96021 7.46621L3.01974 6.05607C2.99735 6.0225 2.99733 5.97877 3.01968 5.94519L3.95881 4.53428C3.99836 4.47487 4.08566 4.47486 4.12527 4.53426L5.06566 5.94441ZM14.6539 7.5H22.0458C22.6761 7.5 23.192 8.04874 23.1889 8.625L23.1255 19.2049C23.1224 19.7812 22.6071 20.25 21.9768 20.25H14.5849C13.9546 20.25 13.3785 19.7812 13.3816 19.2049L13.4394 8.54508C13.4425 7.96882 14.0237 7.5 14.6539 7.5ZM20.2352 12.2957C20.3551 12.4957 20.2111 12.75 19.9779 12.75H19.0086L19.0085 18.45C19.0085 18.6157 18.8742 18.75 18.7085 18.75H17.8095C17.6438 18.75 17.5095 18.6157 17.5095 18.45V12.75H16.5401C16.307 12.75 16.1629 12.4957 16.2828 12.2957L18.0017 9.42909C18.1183 9.23479 18.3998 9.23479 18.5163 9.42909L20.2352 12.2957ZM20.3249 18.0556C20.3025 18.022 20.3025 17.9783 20.3249 17.9447L21.2639 16.5338C21.3035 16.4744 21.3908 16.4744 21.4304 16.5338L22.3708 17.9439C22.3932 17.9775 22.3933 18.0212 22.3709 18.0548L21.4318 19.4657C21.3922 19.5251 21.3049 19.5251 21.2653 19.4657L20.3249 18.0556Z" fill="white" fill-opacity="0.9"/>
</svg>
