<svg width="25" height="24" viewBox="0 0 25 24" fill="none" xmlns="http://www.w3.org/2000/svg">
<path fill-rule="evenodd" clip-rule="evenodd" d="M7.1548 3.27213C6.99082 1.79373 6.99072 1.77394 7.14663 1.62085C7.23164 1.53731 7.32531 1.5 7.44995 1.5C7.61765 1.5 7.69177 1.56183 8.50529 2.37961L9.38031 3.25923C9.38031 3.25923 10.1405 3.2991 10.6205 3.23422C15.9966 2.50762 18.0911 3.63424 18.7074 4.44883C18.9452 4.7632 18.5836 4.76377 18.1033 4.76454C17.6198 4.76531 17.0159 4.76626 16.7821 5.08777C16.6913 5.21265 16.5884 5.43228 16.5884 5.43228C16.6264 5.44614 16.6669 5.4528 16.7336 5.46374C16.8279 5.47923 16.9743 5.50329 17.2393 5.56843C20.3207 6.32593 22.2209 9.04959 21.5666 9.44834C21.5666 9.44834 18.9512 8.19613 19.1276 8.98231C19.1995 9.30263 19.3171 9.71112 19.4519 10.1792C20.173 12.6836 21.3852 16.8936 18.7074 18.4295C18.2575 18.6876 17.7689 18.9276 17.2965 19.1596C16.6427 19.4807 16.0202 19.7865 15.5749 20.1035C11.0166 23.3485 9.60073 22.4304 9.27311 22.2179C9.25107 22.2037 9.23395 22.1926 9.22113 22.1861C9.01785 22.0843 8.85517 21.9243 8.71744 21.5562C8.57972 21.1882 7.95224 18.1281 9.2507 16.4717C9.5782 16.0539 9.86423 15.6985 10.1118 15.3909C10.8458 14.479 11.2415 13.9873 11.3768 13.5357C11.5032 13.1137 11.6345 12.3885 11.6345 12.112C11.6345 11.6204 11.3186 10.8847 10.9132 10.4322L10.6949 10.1885L10.1729 10.6823C9.37369 11.4384 8.67078 11.8546 7.95224 11.9972L7.61173 12.0648L7.50187 12.3627C7.18237 13.2294 6.62761 13.7064 5.93793 13.7075C5.54585 13.7081 4.96468 13.5987 4.64883 13.4649C3.94878 13.1684 3.60522 12.593 3.71563 11.9021C3.76866 11.5699 4.19897 10.6963 4.68091 9.94221C4.90629 9.5896 5.0363 9.31729 5.13924 8.98231C5.61301 7.4411 6.41541 5.65947 6.97929 4.89657L7.28857 4.47815L7.1548 3.27213ZM7.56786 7.40314C7.45126 7.52029 7.37443 7.66756 7.37443 7.77394C7.37443 8.00718 7.70478 8.33908 7.93693 8.33908C8.14717 8.33908 8.49943 8.01117 8.49943 7.81543C8.49943 7.59589 8.36396 7.36166 8.19124 7.2826C7.93349 7.16466 7.77473 7.19531 7.56786 7.40314Z" fill="white" fill-opacity="0.9"/>
</svg>
