<svg width="25" height="24" viewBox="0 0 25 24" fill="none" xmlns="http://www.w3.org/2000/svg">
<path d="M8.75692 8.68703C8.63746 8.49905 8.49181 8.22525 8.35506 7.9534C8.171 7.58749 7.62799 7.58087 7.42711 7.93782C6.133 10.2374 4.36588 12.2231 4.50533 14.8627C4.7772 20.0091 10.4576 21.36 10.4576 21.36C8.71743 17.0713 8.75482 15.0927 11.3078 12.6111C11.5671 16.7812 12.8672 18.5767 16.0827 21.36C21.4852 18.8269 22.2419 13.0894 18.7588 8.59295C18.5506 8.32417 18.1336 8.37117 17.9558 8.66092C17.6978 9.08128 17.3251 9.623 16.933 9.97362C16.8573 10.0412 16.8022 9.97362 16.8022 9.97362C15.9509 6.6181 14.4006 4.97857 11.201 3.04124C10.8935 2.85505 10.5014 3.0685 10.4701 3.4266C10.2897 5.49654 9.81814 6.7052 8.88769 8.6227C8.88769 8.6227 8.81108 8.77224 8.75692 8.68703Z" fill="white" fill-opacity="0.9"/>
</svg>
