<svg width="25" height="24" viewBox="0 0 25 24" fill="none" xmlns="http://www.w3.org/2000/svg">
<mask id="mask0_116_30033" style="mask-type:luminance" maskUnits="userSpaceOnUse" x="3" y="2" width="20" height="20">
<path d="M22.0475 2.34631H3.32751V21.0663H22.0475V2.34631Z" fill="white"/>
</mask>
<g mask="url(#mask0_116_30033)">
<path fill-rule="evenodd" clip-rule="evenodd" d="M8.09211 4.68634C7.21722 4.68634 6.38975 5.08404 5.84321 5.76722L4.17187 7.8564C3.31691 8.92509 3.33214 10.4479 4.2083 11.4993L10.5031 19.0529C11.6544 20.4347 13.7766 20.4347 14.928 19.0529L21.2227 11.4993C22.0989 10.4479 22.1141 8.92509 21.2592 7.8564L19.5879 5.76722C19.0413 5.08404 18.2138 4.68634 17.339 4.68634H8.09211ZM9.51356 5.71792C9.43884 5.42919 9.14422 5.25571 8.8555 5.33042C8.56677 5.40514 8.39328 5.69976 8.468 5.98848L8.78017 7.19482C8.85488 7.48354 9.1495 7.65703 9.43823 7.58231C9.72695 7.5076 9.90045 7.21297 9.82573 6.92424L9.51356 5.71792ZM16.9613 6.0479C17.0663 5.76876 16.9251 5.45735 16.646 5.35233C16.3669 5.24732 16.0554 5.38846 15.9504 5.66759L15.4983 6.86938C15.3932 7.14851 15.5345 7.45992 15.8135 7.56495C16.0927 7.66996 16.4041 7.52881 16.5091 7.24968L16.9613 6.0479ZM5.5608 8.4706C5.26257 8.4706 5.0208 8.71237 5.0208 9.0106C5.0208 9.30884 5.26257 9.5506 5.5608 9.5506H19.8967C20.1949 9.5506 20.4367 9.30884 20.4367 9.0106C20.4367 8.71237 20.1949 8.4706 19.8967 8.4706H5.5608ZM15.6553 11.2371C15.7458 10.9529 15.5888 10.6492 15.3046 10.5588C15.0205 10.4682 14.7167 10.6252 14.6262 10.9094L12.6945 16.9744L10.7745 10.9102C10.6844 10.626 10.381 10.4684 10.0966 10.5585C9.81232 10.6485 9.65481 10.952 9.74483 11.2362L12.1782 18.9216C12.2492 19.1459 12.4573 19.2984 12.6926 19.2986C12.9278 19.2988 13.1361 19.1466 13.2075 18.9225L15.6553 11.2371Z" fill="white" fill-opacity="0.9"/>
</g>
</svg>
