<svg width="25" height="24" viewBox="0 0 25 24" fill="none" xmlns="http://www.w3.org/2000/svg">
<path fill-rule="evenodd" clip-rule="evenodd" d="M7.125 3C4.91586 3 3.125 4.79086 3.125 7V17.75C3.125 19.9591 4.91586 21.75 7.125 21.75H17.875C20.0841 21.75 21.875 19.9591 21.875 17.75V7C21.875 4.79086 20.0841 3 17.875 3H7.125ZM14.75 17.6249C13.9216 17.6249 13.25 18.2965 13.25 19.1249C13.25 19.9533 13.9216 20.6249 14.75 20.6249C15.5784 20.6249 16.25 19.9533 16.25 19.1249C16.25 18.2965 15.5784 17.6249 14.75 17.6249ZM10.25 13.8749C9.42157 13.8749 8.75 14.5465 8.75 15.3749C8.75 16.2033 9.42157 16.8749 10.25 16.8749C11.0784 16.8749 11.75 16.2033 11.75 15.3749C11.75 14.5465 11.0784 13.8749 10.25 13.8749ZM17.75 11.6249C17.75 10.7965 18.4216 10.1249 19.25 10.1249C20.0784 10.1249 20.75 10.7965 20.75 11.6249C20.75 12.4533 20.0784 13.1249 19.25 13.1249C18.4216 13.1249 17.75 12.4533 17.75 11.6249ZM16.8548 5.53283C17.3588 5.53283 17.6108 5.88533 17.6108 6.59033C17.6108 7.29533 17.3588 7.64783 16.8548 7.64783C16.3508 7.64783 16.0988 7.29533 16.0988 6.59033C16.0988 5.88533 16.3508 5.53283 16.8548 5.53283ZM16.8548 8.27783C17.3288 8.27783 17.7038 8.12933 17.9798 7.83233C18.2558 7.53233 18.3938 7.11833 18.3938 6.59033C18.3938 6.06233 18.2558 5.64983 17.9798 5.35283C17.7038 5.05283 17.3288 4.90283 16.8548 4.90283C16.3808 4.90283 16.0058 5.05283 15.7298 5.35283C15.4538 5.64983 15.3158 6.06233 15.3158 6.59033C15.3158 7.11833 15.4538 7.53233 15.7298 7.83233C16.0058 8.12933 16.3808 8.27783 16.8548 8.27783ZM6.68269 8.15633C6.73369 8.20733 6.79369 8.23283 6.86269 8.23283H7.11919C7.18819 8.23283 7.24669 8.20733 7.29469 8.15633C7.34569 8.10533 7.37119 8.04533 7.37119 7.97633V6.69383C7.37119 6.69083 7.37269 6.68933 7.37569 6.68933C7.38169 6.68933 7.38469 6.69083 7.38469 6.69383L8.19919 8.01683C8.28619 8.16083 8.41519 8.23283 8.58619 8.23283H8.96419C9.01819 8.23283 9.05719 8.20883 9.08119 8.16083C9.10819 8.11283 9.10669 8.06633 9.07669 8.02133L8.11369 6.55433C8.09869 6.53333 8.09869 6.51233 8.11369 6.49133L9.02719 5.15933C9.05719 5.11433 9.06019 5.06783 9.03619 5.01983C9.01219 4.97183 8.97319 4.94783 8.91919 4.94783H8.54119C8.37019 4.94783 8.23969 5.01983 8.14969 5.16383L7.38469 6.35183C7.38469 6.35483 7.38169 6.35633 7.37569 6.35633C7.37269 6.35633 7.37119 6.35483 7.37119 6.35183V5.20433C7.37119 5.13533 7.34569 5.07533 7.29469 5.02433C7.24669 4.97333 7.18819 4.94783 7.11919 4.94783H6.86269C6.79369 4.94783 6.73369 4.97333 6.68269 5.02433C6.63169 5.07533 6.60619 5.13533 6.60619 5.20433V7.97633C6.60619 8.04533 6.63169 8.10533 6.68269 8.15633ZM9.63132 8.15633C9.68231 8.20733 9.74231 8.23283 9.81131 8.23283H11.4043C11.4733 8.23283 11.5318 8.20733 11.5798 8.15633C11.6308 8.10533 11.6563 8.04533 11.6563 7.97633V7.87283C11.6563 7.80383 11.6308 7.74383 11.5798 7.69283C11.5318 7.64183 11.4733 7.61633 11.4043 7.61633H10.3603C10.3363 7.61633 10.3243 7.60433 10.3243 7.58033V6.85133C10.3243 6.82733 10.3363 6.81533 10.3603 6.81533H11.3143C11.3833 6.81533 11.4418 6.78983 11.4898 6.73883C11.5408 6.68783 11.5663 6.62783 11.5663 6.55883V6.49133C11.5663 6.42233 11.5408 6.36233 11.4898 6.31133C11.4418 6.26033 11.3833 6.23483 11.3143 6.23483H10.3603C10.3363 6.23483 10.3243 6.22133 10.3243 6.19433V5.60033C10.3243 5.57633 10.3363 5.56433 10.3603 5.56433H11.4043C11.4733 5.56433 11.5318 5.53883 11.5798 5.48783C11.6308 5.43683 11.6563 5.37683 11.6563 5.30783V5.20433C11.6563 5.13533 11.6308 5.07533 11.5798 5.02433C11.5318 4.97333 11.4733 4.94783 11.4043 4.94783H9.81131C9.74231 4.94783 9.68231 4.97333 9.63132 5.02433C9.58331 5.07533 9.55931 5.13533 9.55931 5.20433V7.97633C9.55931 8.04533 9.58331 8.10533 9.63132 8.15633ZM12.5536 8.23283C12.4846 8.23283 12.4246 8.20733 12.3736 8.15633C12.3226 8.10533 12.2971 8.04533 12.2971 7.97633V5.20433C12.2971 5.13533 12.3226 5.07533 12.3736 5.02433C12.4246 4.97333 12.4846 4.94783 12.5536 4.94783H12.7741C12.9451 4.94783 13.0696 5.02283 13.1476 5.17283L14.0926 6.95933C14.0926 6.96233 14.0941 6.96383 14.0971 6.96383C14.1001 6.96383 14.1016 6.96233 14.1016 6.95933V5.20433C14.1016 5.13533 14.1271 5.07533 14.1781 5.02433C14.2291 4.97333 14.2891 4.94783 14.3581 4.94783H14.5786C14.6476 4.94783 14.7076 4.97333 14.7586 5.02433C14.8096 5.07533 14.8351 5.13533 14.8351 5.20433V7.97633C14.8351 8.04533 14.8096 8.10533 14.7586 8.15633C14.7076 8.20733 14.6476 8.23283 14.5786 8.23283H14.3581C14.1871 8.23283 14.0626 8.15783 13.9846 8.00783L13.0396 6.22133C13.0396 6.21833 13.0381 6.21683 13.0351 6.21683C13.0321 6.21683 13.0306 6.21833 13.0306 6.22133V7.97633C13.0306 8.04533 13.0051 8.10533 12.9541 8.15633C12.9031 8.20733 12.8431 8.23283 12.7741 8.23283H12.5536ZM14.75 10.1249C13.9216 10.1249 13.25 10.7965 13.25 11.6249C13.25 12.4533 13.9216 13.1249 14.75 13.1249C15.5784 13.1249 16.25 12.4533 16.25 11.6249C16.25 10.7965 15.5784 10.1249 14.75 10.1249ZM8.75 11.6249C8.75 10.7965 9.42157 10.1249 10.25 10.1249C11.0784 10.1249 11.75 10.7965 11.75 11.6249C11.75 12.4533 11.0784 13.1249 10.25 13.1249C9.42157 13.1249 8.75 12.4533 8.75 11.6249ZM17.75 15.3749C17.75 14.5465 18.4216 13.8749 19.25 13.8749C20.0784 13.8749 20.75 14.5465 20.75 15.3749C20.75 16.2033 20.0784 16.8749 19.25 16.8749C18.4216 16.8749 17.75 16.2033 17.75 15.3749ZM8.75 19.1249C8.75 18.2965 9.42157 17.6249 10.25 17.6249C11.0784 17.6249 11.75 18.2965 11.75 19.1249C11.75 19.9533 11.0784 20.6249 10.25 20.6249C9.42157 20.6249 8.75 19.9533 8.75 19.1249ZM5.75 13.8749C4.92157 13.8749 4.25 14.5465 4.25 15.3749C4.25 16.2033 4.92157 16.8749 5.75 16.8749C6.57843 16.8749 7.25 16.2033 7.25 15.3749C7.25 14.5465 6.57843 13.8749 5.75 13.8749Z" fill="white" fill-opacity="0.9"/>
</svg>
