<svg width="24" height="24" viewBox="0 0 24 24" fill="none" xmlns="http://www.w3.org/2000/svg">
<path d="M18.429 9.15653C19.1962 8.74373 19.5787 8.06633 19.6006 7.18452C19.5681 6.32397 19.1852 5.65919 18.4292 5.25C17.6482 4.8273 16.8637 4.88912 16.1231 5.37582C15.0385 6.08873 14.2754 6.08747 13.1914 5.37762C12.4083 4.86461 11.5875 4.81865 10.7845 5.3102C9.69665 5.97608 9.38765 7.36351 10.066 8.39588C10.7782 9.47955 12.1343 9.74415 13.2157 9.01755C13.42 8.88038 13.6321 8.7423 13.8598 8.65523C14.6565 8.35043 15.3866 8.50883 16.0751 8.99408C16.8204 9.51938 17.6263 9.58845 18.429 9.15653Z" fill="url(#paint0_linear_116_30051)"/>
<path d="M10.8679 14.8613C10.116 15.2762 9.738 15.9442 9.71265 16.8119C9.74137 17.6739 10.1212 18.3428 10.8748 18.7531C11.6518 19.1762 12.4338 19.1109 13.1846 18.641C13.2261 18.615 13.2676 18.5884 13.309 18.5617L13.31 18.5611C13.4937 18.4431 13.6792 18.3239 13.8797 18.2497C14.6901 17.9499 15.4208 18.1345 16.1191 18.6228C17.074 19.2905 18.3165 19.1165 19.0709 18.2482C19.7664 17.4479 19.7709 16.1823 19.0813 15.3742C18.3343 14.4989 17.0841 14.3098 16.1332 14.9764C15.1301 15.6794 14.1733 15.6725 13.1713 14.9715C12.4456 14.4639 11.6443 14.4331 10.8679 14.8613Z" fill="url(#paint1_linear_116_30051)"/>
<path d="M3.65635 9.66787C4.20946 9.66682 4.63854 9.82162 5.03292 10.0927C6.01152 10.7655 6.88279 10.7626 7.86712 10.089C8.9577 9.34267 10.3237 9.60375 11.04 10.6954C11.716 11.7257 11.404 13.1207 10.318 13.78C9.51495 14.2677 8.6931 14.2246 7.91062 13.7107C6.83192 13.0023 6.06274 12.9969 4.98043 13.7164C4.19993 14.2354 3.25225 14.241 2.49494 13.7312C1.74087 13.2236 1.36338 12.3187 1.54511 11.4546C1.73655 10.5441 2.42268 9.87052 3.34375 9.69562C3.43612 9.67815 3.53113 9.67387 3.59749 9.67095C3.62126 9.6699 3.64136 9.66915 3.65635 9.66787Z" fill="url(#paint2_linear_116_30051)"/>
<path d="M21.1714 13.8356C21.9265 13.4255 22.308 12.7596 22.3368 11.8983C22.313 11.0168 21.9282 10.3409 21.1604 9.92994C20.3805 9.51241 19.5939 9.57444 18.854 10.0631C17.7839 10.7697 16.9926 10.7769 15.9459 10.0687C15.4471 9.73127 14.8978 9.59522 14.3083 9.69324C13.3768 9.84827 12.6923 10.5307 12.4915 11.4662C12.3136 12.2949 12.6869 13.2151 13.3998 13.7051C14.1728 14.2362 15.1352 14.2669 15.9067 13.7218C16.9051 13.0165 17.8646 13.0096 18.8682 13.7128C19.5934 14.2208 20.3923 14.2588 21.1714 13.8356Z" fill="url(#paint3_linear_116_30051)"/>
<path d="M8.65807 7.2054C8.6574 8.42775 7.67392 9.42113 6.46022 9.4254C5.23231 9.42998 4.23088 8.42955 4.2334 7.2009C4.23592 5.97208 5.24615 4.96445 6.46436 4.9758C7.6761 4.98698 8.65867 5.9856 8.65807 7.2054Z" fill="url(#paint4_linear_116_30051)"/>
<path d="M6.44442 19.0222C7.67033 19.0231 8.65328 18.0439 8.65845 16.8162C8.6637 15.5932 7.68473 14.5933 6.46635 14.5774C5.24994 14.5616 4.23198 15.5789 4.23413 16.8086C4.23629 18.0342 5.2219 19.0211 6.44442 19.0222Z" fill="url(#paint5_linear_116_30051)"/>
<defs>
<linearGradient id="paint0_linear_116_30051" x1="2.4674" y1="6.0212" x2="24.2539" y2="11.7701" gradientUnits="userSpaceOnUse">
<stop stop-color="#F4F9FF" stop-opacity="0.51"/>
<stop offset="1" stop-color="#DDEDFF"/>
</linearGradient>
<linearGradient id="paint1_linear_116_30051" x1="2.46742" y1="6.02119" x2="24.2539" y2="11.77" gradientUnits="userSpaceOnUse">
<stop stop-color="#F4F9FF" stop-opacity="0.51"/>
<stop offset="1" stop-color="#DDEDFF"/>
</linearGradient>
<linearGradient id="paint2_linear_116_30051" x1="2.46742" y1="6.02119" x2="24.2539" y2="11.77" gradientUnits="userSpaceOnUse">
<stop stop-color="#F4F9FF" stop-opacity="0.51"/>
<stop offset="1" stop-color="#DDEDFF"/>
</linearGradient>
<linearGradient id="paint3_linear_116_30051" x1="2.46741" y1="6.02121" x2="24.2539" y2="11.7701" gradientUnits="userSpaceOnUse">
<stop stop-color="#F4F9FF" stop-opacity="0.51"/>
<stop offset="1" stop-color="#DDEDFF"/>
</linearGradient>
<linearGradient id="paint4_linear_116_30051" x1="2.46742" y1="6.0212" x2="24.2539" y2="11.7701" gradientUnits="userSpaceOnUse">
<stop stop-color="#F4F9FF" stop-opacity="0.51"/>
<stop offset="1" stop-color="#DDEDFF"/>
</linearGradient>
<linearGradient id="paint5_linear_116_30051" x1="2.46743" y1="6.02121" x2="24.2539" y2="11.7701" gradientUnits="userSpaceOnUse">
<stop stop-color="#F4F9FF" stop-opacity="0.51"/>
<stop offset="1" stop-color="#DDEDFF"/>
</linearGradient>
</defs>
</svg>
