<svg width="26" height="24" viewBox="0 0 26 24" fill="none" xmlns="http://www.w3.org/2000/svg">
<path fill-rule="evenodd" clip-rule="evenodd" d="M15.9019 1.5H7.06353C6.30991 1.5 5.69678 2.12055 5.69678 2.88331V16.993C5.69678 17.7558 6.30991 18.3763 7.06353 18.3763H7.43552C7.36641 18.1372 7.36211 17.879 7.43665 17.6255L11.4958 3.81834C11.7152 3.07194 12.5361 2.64434 13.3256 2.86516L17.2687 3.96798V2.88331C17.2687 2.12055 16.6555 1.5 15.9019 1.5Z" fill="white" fill-opacity="0.9"/>
<path fill-rule="evenodd" clip-rule="evenodd" d="M22.3818 6.51987L13.8858 4.05829C13.1614 3.84839 12.4091 4.25119 12.2088 4.95618L9.737 13.6578C9.90496 13.8036 9.98125 14.0389 9.91297 14.2672C9.84637 14.4898 9.66012 14.6459 9.44503 14.6856L8.50426 17.9974C8.30399 18.7024 8.73044 19.4467 9.45487 19.6566L17.9508 22.1182C18.6753 22.3281 19.4276 21.9253 19.6278 21.2203L20.5655 17.9196C20.5554 17.9173 20.5454 17.9147 20.5354 17.9119L19.7967 17.7013C19.4818 17.6115 19.3026 17.2845 19.3965 16.9708C19.4903 16.6572 19.8216 16.4757 20.1364 16.5654L20.8752 16.776L20.8891 16.7802L23.3324 8.17908C23.5327 7.47409 23.1062 6.72977 22.3818 6.51987ZM18.4348 16.6967C18.5286 16.383 18.3494 16.056 18.0346 15.9662L17.2958 15.7556C16.981 15.6658 16.6497 15.8474 16.5559 16.161C16.462 16.4747 16.6412 16.8017 16.9561 16.8915L17.6948 17.1021C18.0097 17.1918 18.341 17.0103 18.4348 16.6967ZM15.194 15.1564C15.5088 15.2462 15.688 15.5732 15.5942 15.8868C15.5004 16.2005 15.1691 16.382 14.8542 16.2922L14.1155 16.0816C13.8006 15.9919 13.6214 15.6648 13.7153 15.3512C13.8091 15.0375 14.1404 14.856 14.4552 14.9458L15.194 15.1564ZM12.7536 15.077C12.8474 14.7634 12.6682 14.4363 12.3534 14.3466L11.6146 14.136C11.2998 14.0462 10.9685 14.2277 10.8747 14.5414C10.7808 14.855 10.96 15.1821 11.2749 15.2718L12.0136 15.4824C12.3285 15.5722 12.6598 15.3907 12.7536 15.077ZM16.5935 7.83704C16.8707 7.44518 17.4867 7.62079 17.5044 8.09672L17.5255 8.66672C17.5334 8.88008 17.6775 9.06321 17.8836 9.12198L18.4117 9.27254C18.8823 9.40669 18.8921 10.0648 18.4259 10.2229L17.9515 10.3838C17.7395 10.4557 17.5993 10.6575 17.6076 10.8789L17.6265 11.3888C17.6443 11.8691 17.034 12.1001 16.7325 11.7271L16.3603 11.2668C16.2294 11.1049 16.0098 11.0423 15.8102 11.1099L15.2427 11.3024C14.783 11.4583 14.3959 10.9431 14.6757 10.5476L14.9728 10.1278C15.1018 9.94543 15.0949 9.70172 14.9559 9.52979L14.6447 9.14491C14.3389 8.76673 14.71 8.21722 15.1805 8.35137L15.7086 8.50192C15.9148 8.56069 16.1372 8.48202 16.2614 8.30635L16.5935 7.83704Z" fill="white" fill-opacity="0.9"/>
</svg>
