<svg width="25" height="24" viewBox="0 0 25 24" fill="none" xmlns="http://www.w3.org/2000/svg">
<path fill-rule="evenodd" clip-rule="evenodd" d="M12.5434 21.36C17.7127 21.36 21.9034 17.1694 21.9034 12C21.9034 6.83056 17.7127 2.63995 12.5434 2.63995C7.37396 2.63995 3.18335 6.83056 3.18335 12C3.18335 17.1694 7.37396 21.36 12.5434 21.36ZM17.3536 7.29654L17.5834 17.3338C17.1085 17.4916 15.8186 17.7884 14.4582 17.7126C14.3817 17.6653 14.2285 17.5611 14.2285 17.5232C14.2285 17.4854 14.1672 14.067 14.1365 12.3625C13.631 12.9307 12.6108 14.067 12.574 14.067C12.5372 14.067 11.4251 12.9307 10.8736 12.3625L10.6897 17.6179C10.6897 17.6653 10.6714 17.76 10.5978 17.76C10.5059 17.76 7.38079 17.5232 7.33483 17.4759C7.29806 17.438 7.31951 12.938 7.33483 10.6927H7.19697C7.05909 10.5865 6.78335 10.3456 6.78335 10.232C6.78335 10.1184 7.27355 8.16454 7.51866 7.20184C8.13143 7.10715 9.61432 6.92724 10.6437 6.96512C11.2412 7.64373 12.4637 9.00098 12.574 9.00098C12.6843 9.00098 13.8148 7.64373 14.3663 6.96512C15.0557 6.98089 16.6182 7.06928 17.3536 7.29654Z" fill="white" fill-opacity="0.9"/>
</svg>
