<svg width="25" height="24" viewBox="0 0 25 24" fill="none" xmlns="http://www.w3.org/2000/svg">
<path fill-rule="evenodd" clip-rule="evenodd" d="M20.0436 2.95928C20.9458 2.73785 21.4563 2.4945 21.9141 2.06771C22.6257 1.40446 22.8935 1.33925 23.1344 1.77028C23.51 2.4429 22.0914 3.57959 20.427 3.93958C19.9418 4.04437 19.2872 4.26563 18.9721 4.43122C18.4182 4.72211 18.387 4.71964 18.0201 4.35188L17.6406 3.97192L18.2217 3.61794C18.5414 3.42319 19.3611 3.12682 20.0436 2.95928ZM18.2124 7.15349C16.666 6.16136 14.8702 3.87154 14.8702 2.89213C14.8702 2.68536 14.9861 2.53161 15.1418 2.53161C15.4791 2.53161 16.5887 3.11551 17.1194 3.57217C17.5771 3.96609 17.6089 4.24973 17.249 4.72618C17.059 4.97766 17.0433 5.12593 17.188 5.30053C17.4745 5.64638 17.8116 5.58842 18.1335 5.1383L18.4179 4.74067L18.8587 5.27084C19.4019 5.92384 19.9859 7.019 19.9859 7.38447C19.9859 7.8277 19.079 7.70947 18.2124 7.15349ZM9.78651 4.14316C5.67343 4.8285 2.4743 8.47893 2.21569 12.7816C2.04917 15.5548 2.8998 17.7805 4.88966 19.7785C6.83506 21.7317 8.68503 22.4891 11.5305 22.4973C14.151 22.5047 16.0405 21.7191 17.9121 19.8441C20.8004 16.9506 21.5224 12.6311 19.7152 9.05823L19.265 8.16824L18.7299 8.61942C18.4357 8.86737 18.0607 9.07043 17.8964 9.07043C16.8853 9.07043 13.8377 6.05515 13.475 4.69596C13.3825 4.34922 13.1978 4.17851 12.829 4.09881C12.1029 3.94205 10.8871 3.95972 9.78651 4.14316ZM7.63769 6.37722C6.21638 7.07475 4.62344 9.2649 5.0103 9.98929C5.2301 10.4005 5.54833 10.3908 6.41713 9.94688C8.3613 8.95315 10.0227 6.05575 8.6402 6.07024C8.42834 6.07237 7.97727 6.21056 7.63769 6.37722Z" fill="white" fill-opacity="0.9"/>
</svg>
