<svg width="16" height="16" viewBox="0 0 16 16" fill="none" xmlns="http://www.w3.org/2000/svg">
<g clip-path="url(#clip0_166_3)">
<path d="M9.37574 0.0335084C9.55425 0.126855 9.71476 0.249131 9.87586 0.369446C9.97589 0.442658 10.0782 0.511752 10.1816 0.580017C10.3781 0.709922 10.5731 0.841748 10.7676 0.974548C10.7968 0.994471 10.8259 1.01439 10.856 1.03492C10.9159 1.0758 10.9757 1.11669 11.0355 1.15758C11.1799 1.25617 11.3243 1.35461 11.4688 1.45306C11.526 1.49213 11.5833 1.53119 11.6406 1.57025C11.669 1.58959 11.6974 1.60892 11.7266 1.62885C12.0417 1.84369 12.3568 2.05853 12.6719 2.27338C12.7003 2.29273 12.7287 2.31208 12.7579 2.33202C12.8149 2.3709 12.8719 2.40979 12.9289 2.44868C13.0763 2.54922 13.2238 2.64963 13.3715 2.74982C13.5396 2.86399 13.7075 2.97858 13.875 3.09369C13.8951 3.10744 13.9151 3.12118 13.9358 3.13535C14.3812 3.44245 14.3812 3.44245 14.4375 3.71869C14.4834 4.14676 14.2825 4.41761 14.0449 4.75775C14.0039 4.81716 13.9628 4.87656 13.9218 4.93597C13.8933 4.97697 13.8933 4.97697 13.8643 5.0188C13.8043 5.1056 13.7456 5.19312 13.6875 5.28119C13.7266 5.28469 13.7266 5.28469 13.7665 5.28827C14.0404 5.32028 14.2321 5.38127 14.4247 5.58331C14.6187 5.82912 14.602 6.10757 14.5938 6.40619C14.6124 6.41417 14.6311 6.42214 14.6503 6.43036C14.7262 6.47284 14.7627 6.51262 14.8145 6.58197C14.8296 6.60171 14.8448 6.62145 14.8605 6.64178C14.9716 6.82843 15.0141 6.99956 15.0107 7.21509C15.0107 7.23829 15.0107 7.26149 15.0107 7.28539C15.0106 7.36115 15.0099 7.43688 15.0092 7.51263C15.009 7.56552 15.0089 7.61842 15.0088 7.67131C15.0084 7.80981 15.0075 7.94831 15.0064 8.08681C15.0055 8.22843 15.0051 8.37004 15.0046 8.51166C15.0036 8.78901 15.002 9.06635 15 9.34369C15.0315 9.34308 15.0315 9.34308 15.0636 9.34245C15.0914 9.34214 15.1192 9.34182 15.1478 9.34149C15.189 9.34088 15.189 9.34088 15.231 9.34026C15.3766 9.34639 15.5037 9.38257 15.6116 9.48322C15.7464 9.64079 15.7549 9.74941 15.7555 9.94974C15.7557 9.97688 15.7559 10.004 15.7562 10.032C15.7568 10.122 15.7571 10.2121 15.7575 10.3022C15.7576 10.3329 15.7577 10.3637 15.7578 10.3953C15.7585 10.558 15.7589 10.7208 15.7592 10.8835C15.7596 11.0515 15.7607 11.2196 15.7619 11.3877C15.7627 11.5169 15.763 11.6461 15.7631 11.7753C15.7632 11.8373 15.7636 11.8992 15.7642 11.9612C15.7649 12.0479 15.7649 12.1347 15.7647 12.2215C15.7651 12.247 15.7655 12.2725 15.7659 12.2988C15.7644 12.4639 15.7333 12.5559 15.625 12.6874C15.4772 12.8208 15.3783 12.8478 15.1816 12.8456C15.1477 12.8454 15.1137 12.8451 15.0787 12.8448C15.0528 12.8444 15.0268 12.8441 15 12.8437C15.0003 12.8727 15.0006 12.9018 15.0008 12.9318C15.0034 13.2067 15.0053 13.4816 15.0065 13.7565C15.0071 13.8978 15.008 14.0391 15.0094 14.1804C15.0108 14.317 15.0115 14.4535 15.0119 14.5901C15.0121 14.642 15.0125 14.6939 15.0132 14.7458C15.018 15.1279 14.9892 15.4367 14.7166 15.7264C14.512 15.9123 14.3018 16.0077 14.0246 16.008C14.0022 16.0081 13.9797 16.0082 13.9566 16.0083C13.8811 16.0086 13.8056 16.0084 13.7301 16.0083C13.6755 16.0084 13.6209 16.0086 13.5663 16.0087C13.4161 16.0091 13.266 16.0091 13.1158 16.009C12.9539 16.009 12.792 16.0094 12.6301 16.0097C12.3128 16.0102 11.9956 16.0103 11.6783 16.0104C11.4204 16.0104 11.1626 16.0105 10.9047 16.0107C10.1738 16.0113 9.44297 16.0116 8.7121 16.0115C8.67268 16.0115 8.63327 16.0115 8.59266 16.0115C8.53346 16.0115 8.53346 16.0115 8.47307 16.0115C7.83349 16.0115 7.19391 16.0121 6.55433 16.013C5.89782 16.0139 5.24131 16.0143 4.5848 16.0142C4.21614 16.0142 3.84748 16.0144 3.47881 16.0151C3.16492 16.0156 2.85103 16.0158 2.53713 16.0153C2.37697 16.0151 2.21682 16.0151 2.05666 16.0157C1.91 16.0162 1.76335 16.0161 1.61669 16.0155C1.56368 16.0154 1.51066 16.0156 1.45764 16.0159C1.08028 16.0182 0.809439 15.9798 0.524666 15.7143C0.290403 15.4708 0.240628 15.2475 0.241651 14.9151C0.241509 14.8813 0.241367 14.8476 0.241221 14.8128C0.240826 14.6997 0.240877 14.5866 0.240929 14.4734C0.240742 14.3923 0.240529 14.3112 0.240293 14.2301C0.239774 14.0326 0.239602 13.8351 0.239567 13.6377C0.239537 13.4771 0.239408 13.3165 0.23921 13.1559C0.23866 12.7004 0.238372 12.2448 0.238419 11.7892C0.238421 11.7647 0.238424 11.7401 0.238426 11.7148C0.238429 11.6903 0.238431 11.6657 0.238434 11.6403C0.238459 11.2422 0.237862 10.844 0.23698 10.4458C0.236082 10.0367 0.23565 9.62754 0.235704 9.2184C0.235725 8.98881 0.235555 8.75923 0.234881 8.52965C0.234252 8.31368 0.234271 8.09772 0.234726 7.88174C0.234791 7.80256 0.234644 7.72337 0.234266 7.64418C0.233783 7.53591 0.234074 7.42767 0.234555 7.3194C0.234234 7.28821 0.233913 7.25703 0.233582 7.2249C0.236262 6.95119 0.306987 6.70507 0.498055 6.50189C0.518317 6.4797 0.538579 6.4575 0.559456 6.43463C0.625008 6.37494 0.625008 6.37494 0.709236 6.33295C0.790895 6.28618 0.790895 6.28618 0.803596 6.18732C0.805893 6.15062 0.808189 6.11392 0.810555 6.07611C0.839012 5.82542 0.905088 5.63647 1.10279 5.4715C1.2657 5.35926 1.38674 5.30837 1.58631 5.30939C1.62126 5.30949 1.6562 5.30959 1.69221 5.30969C1.72868 5.30995 1.76516 5.31022 1.80274 5.31049C1.83958 5.31063 1.87642 5.31077 1.91438 5.31091C2.00542 5.31128 2.09646 5.31182 2.18751 5.31244C2.18904 5.28178 2.19057 5.25112 2.19215 5.21954C2.2116 4.85132 2.24474 4.4851 2.28114 4.11823C2.28725 4.05598 2.29336 3.99373 2.29947 3.93148C2.31219 3.80208 2.32499 3.67268 2.33784 3.5433C2.35424 3.37819 2.37039 3.21306 2.38648 3.04792C2.399 2.91978 2.41166 2.79166 2.42437 2.66354C2.43038 2.60267 2.43635 2.54178 2.44227 2.48089C2.45056 2.39576 2.45905 2.31064 2.46759 2.22553C2.46995 2.2009 2.4723 2.17627 2.47473 2.15089C2.51172 1.78837 2.56215 1.53434 2.85059 1.29047C3.09295 1.11402 3.37924 1.15408 3.66225 1.1832C3.69608 1.18645 3.72991 1.1897 3.76476 1.19305C3.87584 1.20379 3.98687 1.21495 4.09791 1.22614C4.17545 1.23376 4.253 1.24136 4.33054 1.24894C4.51346 1.2669 4.69635 1.28515 4.87923 1.3035C5.06615 1.32224 5.25311 1.3405 5.44008 1.35873C5.60009 1.37436 5.76008 1.3902 5.92007 1.4061C5.99664 1.4137 6.07321 1.42123 6.14979 1.42871C6.25683 1.43921 6.36384 1.44996 6.47085 1.46079C6.50235 1.46383 6.53385 1.46687 6.5663 1.47C6.72751 1.48661 6.8791 1.50506 7.03126 1.56244C7.09376 1.65619 7.09376 1.65619 7.09376 1.78119C7.20436 1.80396 7.29614 1.80874 7.40626 1.78119C7.51562 1.68126 7.58591 1.55967 7.66212 1.43353C7.68465 1.39807 7.70731 1.36268 7.73007 1.32736C7.77678 1.25469 7.82294 1.18173 7.86875 1.10849C7.97369 0.94163 8.0857 0.779585 8.19727 0.617127C8.21652 0.588722 8.23576 0.560317 8.25558 0.531052C8.53568 0.118478 8.83781 -0.157617 9.37574 0.0335084Z" fill="#030200"/>
<path d="M0.718761 8.3125C5.27689 8.3125 9.83501 8.3125 14.5313 8.3125C14.5313 8.66313 14.5313 9.01375 14.5313 9.375C14.3574 9.37581 14.1835 9.37661 14.0044 9.37744C13.8936 9.37823 13.7828 9.37905 13.672 9.38C13.4965 9.38151 13.3211 9.38289 13.1456 9.38347C13.0039 9.38395 12.8623 9.38503 12.7207 9.38651C12.6669 9.38697 12.6131 9.38722 12.5594 9.38725C12.0272 9.38777 11.555 9.49639 11.1621 9.88281C11.0178 10.0351 10.9026 10.1853 10.8125 10.375C10.7997 10.4017 10.7868 10.4284 10.7736 10.4559C10.5945 10.8977 10.6546 11.4234 10.8338 11.8547C11.0581 12.3048 11.4164 12.5735 11.88 12.7435C12.1541 12.8293 12.4254 12.8274 12.7094 12.8285C12.7621 12.829 12.8149 12.8296 12.8676 12.8302C13.0054 12.8317 13.1431 12.8326 13.2808 12.8334C13.4467 12.8345 13.6125 12.8363 13.7784 12.838C14.0294 12.8404 14.2803 12.842 14.5313 12.8438C14.5313 13.1944 14.5313 13.545 14.5313 13.9062C14.3905 13.9064 14.2498 13.9065 14.1048 13.9066C12.8154 13.9077 11.5259 13.9094 10.2365 13.9118C10.0676 13.9121 9.89876 13.9124 9.72989 13.9127C9.69627 13.9128 9.66265 13.9129 9.62801 13.9129C9.08307 13.9139 8.53813 13.9144 7.99318 13.9148C7.43436 13.9152 6.87553 13.916 6.3167 13.9173C5.97165 13.9181 5.62661 13.9185 5.28155 13.9185C5.0452 13.9185 4.80885 13.9189 4.57249 13.9198C4.43596 13.9202 4.29944 13.9205 4.16291 13.9202C4.03805 13.9199 3.91321 13.9202 3.78836 13.921C3.74306 13.9212 3.69776 13.9212 3.65246 13.9209C3.59114 13.9206 3.52981 13.9211 3.46849 13.9216C3.43435 13.9217 3.40021 13.9217 3.36504 13.9218C3.27796 13.9301 3.27796 13.9301 3.22232 13.9949C3.17318 14.0903 3.19013 14.1487 3.21876 14.25C3.30322 14.3345 3.34644 14.3204 3.46465 14.3207C3.50396 14.3209 3.54327 14.3211 3.58378 14.3214C3.62781 14.3213 3.67184 14.3213 3.71587 14.3212C3.76233 14.3214 3.80879 14.3215 3.85524 14.3218C3.98337 14.3222 4.1115 14.3224 4.23962 14.3224C4.37762 14.3225 4.51561 14.323 4.65361 14.3234C4.89285 14.3241 5.13208 14.3246 5.37132 14.3249C5.71723 14.3254 6.06313 14.3261 6.40903 14.327C6.97019 14.3285 7.53134 14.3296 8.09249 14.3306C8.63772 14.3315 9.18295 14.3326 9.72818 14.3338C9.76176 14.3339 9.79535 14.334 9.82996 14.3341C9.99845 14.3345 10.1669 14.3348 10.3354 14.3352C11.734 14.3385 13.1327 14.3413 14.5313 14.3438C14.5349 14.4687 14.5371 14.5937 14.5391 14.7188C14.5401 14.7539 14.5412 14.7891 14.5422 14.8253C14.5451 15.0678 14.529 15.2424 14.3608 15.4241C14.1557 15.5874 13.8786 15.553 13.6308 15.5513C13.5767 15.5515 13.5227 15.5518 13.4687 15.5521C13.3204 15.5528 13.1722 15.5526 13.0239 15.5521C12.8639 15.5518 12.704 15.5525 12.544 15.5529C12.2307 15.5538 11.9174 15.5537 11.6041 15.5534C11.3495 15.5531 11.0949 15.5531 10.8403 15.5534C10.804 15.5534 10.7678 15.5534 10.7305 15.5535C10.6569 15.5535 10.5833 15.5536 10.5096 15.5537C9.81938 15.5543 9.12911 15.5539 8.43885 15.5532C7.84653 15.5526 7.25421 15.553 6.66189 15.554C5.9741 15.5551 5.28631 15.5557 4.59852 15.5552C4.52518 15.5552 4.45184 15.5552 4.3785 15.5551C4.32438 15.5551 4.32438 15.5551 4.26916 15.5551C4.01484 15.555 3.76053 15.5553 3.50621 15.5559C3.1963 15.5565 2.88639 15.5565 2.57647 15.5556C2.41834 15.5551 2.26022 15.555 2.10208 15.5557C1.95731 15.5563 1.81257 15.5561 1.6678 15.5551C1.61544 15.5549 1.56308 15.5551 1.51072 15.5556C1.03871 15.5595 1.03871 15.5595 0.856307 15.3965C0.677077 15.1806 0.670821 14.9561 0.679699 14.6855C0.680545 14.636 0.680545 14.636 0.681408 14.5855C0.682867 14.5049 0.684912 14.4243 0.687511 14.3438C0.727726 14.3433 0.767942 14.3428 0.809375 14.3424C0.958417 14.3406 1.10744 14.3381 1.25647 14.3355C1.32101 14.3345 1.38554 14.3336 1.45008 14.3329C1.54278 14.3319 1.63546 14.3302 1.72816 14.3285C1.77152 14.3282 1.77152 14.3282 1.81576 14.3279C1.84266 14.3273 1.86956 14.3266 1.89727 14.326C1.92093 14.3257 1.94459 14.3253 1.96897 14.325C2.04845 14.3091 2.07654 14.2829 2.12501 14.2188C2.14064 14.125 2.14064 14.125 2.12501 14.0312C1.79225 13.6985 1.18923 13.9175 0.718761 13.9062C0.718761 12.0603 0.718761 10.2144 0.718761 8.3125Z" fill="#FEB024"/>
<path d="M2.15626 14.0938C2.29642 14.0936 2.4365 14.0947 2.57664 14.0968C2.62429 14.0974 2.67194 14.0976 2.71959 14.0975C2.7882 14.0974 2.85671 14.0985 2.9253 14.0999C2.98716 14.1004 2.98716 14.1004 3.05027 14.1009C3.10274 14.1128 3.10274 14.1128 3.15626 14.125C3.16995 14.156 3.18365 14.1869 3.19775 14.2188C3.2283 14.2729 3.2283 14.2729 3.28126 14.3125C3.42746 14.3428 3.57473 14.3378 3.72339 14.3363C3.7699 14.3365 3.81641 14.3368 3.86292 14.3371C3.99092 14.3379 4.11888 14.3375 4.24688 14.3369C4.38483 14.3365 4.52278 14.3372 4.66073 14.3377C4.8998 14.3384 5.13886 14.3385 5.37793 14.3381C5.72359 14.3376 6.06923 14.338 6.41489 14.3388C6.97566 14.3399 7.53643 14.3402 8.09721 14.34C8.64201 14.3398 9.18681 14.34 9.73161 14.3407C9.78197 14.3408 9.78197 14.3408 9.83334 14.3408C10.0018 14.3411 10.1702 14.3413 10.3386 14.3415C11.7361 14.3435 13.1337 14.3441 14.5313 14.3438C14.5349 14.4688 14.5371 14.5937 14.5391 14.7188C14.5401 14.7539 14.5412 14.7891 14.5422 14.8253C14.5451 15.0679 14.529 15.2424 14.3608 15.4241C14.1557 15.5874 13.8786 15.553 13.6308 15.5513C13.5767 15.5515 13.5227 15.5518 13.4687 15.5521C13.3204 15.5528 13.1722 15.5526 13.0239 15.5522C12.8639 15.5519 12.704 15.5525 12.544 15.553C12.2307 15.5538 11.9174 15.5537 11.6041 15.5534C11.3495 15.5531 11.0949 15.5532 10.8403 15.5534C10.804 15.5534 10.7678 15.5535 10.7305 15.5535C10.6569 15.5536 10.5833 15.5536 10.5096 15.5537C9.81938 15.5543 9.12911 15.5539 8.43885 15.5532C7.84653 15.5527 7.25421 15.553 6.66189 15.554C5.9741 15.5551 5.28631 15.5557 4.59852 15.5553C4.52518 15.5552 4.45184 15.5552 4.3785 15.5551C4.32438 15.5551 4.32438 15.5551 4.26916 15.5551C4.01484 15.555 3.76053 15.5553 3.50621 15.5559C3.1963 15.5565 2.88639 15.5565 2.57647 15.5556C2.41834 15.5552 2.26022 15.555 2.10208 15.5557C1.95731 15.5563 1.81257 15.5561 1.6678 15.5552C1.61544 15.555 1.56308 15.5551 1.51072 15.5556C1.03871 15.5596 1.03871 15.5596 0.856307 15.3965C0.677077 15.1806 0.670821 14.9562 0.679699 14.6856C0.680263 14.6526 0.680827 14.6195 0.681408 14.5855C0.682867 14.5049 0.684912 14.4244 0.687511 14.3438C0.727726 14.3433 0.767942 14.3429 0.809375 14.3424C0.958417 14.3406 1.10744 14.3382 1.25647 14.3356C1.32101 14.3345 1.38554 14.3336 1.45008 14.3329C1.54278 14.3319 1.63546 14.3303 1.72816 14.3285C1.77152 14.3282 1.77152 14.3282 1.81576 14.3279C1.84266 14.3273 1.86956 14.3267 1.89727 14.326C1.92093 14.3257 1.94459 14.3253 1.96897 14.325C2.04787 14.3092 2.07562 14.2811 2.12501 14.2188C2.14734 14.153 2.14734 14.153 2.15626 14.0938Z" fill="#FE6C39"/>
<path d="M1.33886 6.65197C1.36085 6.65189 1.38283 6.65181 1.40548 6.65172C1.47969 6.65148 1.55391 6.65146 1.62812 6.65144C1.68165 6.65132 1.73517 6.65118 1.7887 6.65103C1.93622 6.65066 2.08375 6.65048 2.23128 6.65034C2.39021 6.65015 2.54915 6.64979 2.70809 6.64945C3.09214 6.64869 3.47619 6.64823 3.86024 6.64783C3.96867 6.64771 4.07711 6.64759 4.18554 6.64746C4.8586 6.64667 5.53166 6.64598 6.20472 6.64559C6.36066 6.6455 6.5166 6.64541 6.67254 6.64531C6.7113 6.64529 6.75006 6.64527 6.78999 6.64524C7.41808 6.64485 8.04617 6.64381 8.67426 6.64251C9.31879 6.64118 9.96333 6.64045 10.6079 6.64028C10.9699 6.64017 11.3319 6.63981 11.6939 6.63878C12.0021 6.6379 12.3104 6.63756 12.6187 6.63791C12.776 6.63807 12.9333 6.63798 13.0906 6.63721C13.2346 6.63651 13.3786 6.63653 13.5226 6.63712C13.5747 6.63721 13.6268 6.63703 13.6789 6.63656C14.186 6.63229 14.186 6.63229 14.375 6.8125C14.6708 7.13868 14.5312 7.23358 14.5312 7.84375C9.97312 7.84375 5.415 7.84375 0.71875 7.84375C0.71875 6.97242 0.71875 6.97242 0.893677 6.79236C1.04785 6.66943 1.14455 6.65233 1.33886 6.65197Z" fill="#FE6C39"/>
<path d="M9.84375 2.03129C9.93871 2.08035 10.0231 2.14225 10.1094 2.20512C10.1625 2.2427 10.2157 2.28026 10.2689 2.31779C10.2966 2.33751 10.3242 2.35722 10.3527 2.37753C10.4923 2.47631 10.6339 2.57202 10.7754 2.66801C10.8332 2.70743 10.891 2.74686 10.9489 2.7863C11.0977 2.88777 11.2467 2.98903 11.3959 3.09012C11.4544 3.12998 11.5127 3.17011 11.5708 3.21051C11.6954 3.29697 11.8186 3.38033 11.9518 3.45305C12.2273 3.60967 12.2273 3.60967 12.2693 3.75352C12.2916 3.90722 12.2867 4.05931 12.2812 4.21408C12.2813 4.39034 12.3488 4.54427 12.4297 4.69731C12.4776 4.8003 12.4701 4.83015 12.4375 4.93754C12.3834 5.02965 12.3834 5.02965 12.3134 5.13102C12.3008 5.14934 12.2883 5.16765 12.2753 5.18651C12.2352 5.24497 12.1948 5.30317 12.1543 5.36137C12.1148 5.41862 12.0754 5.47592 12.0361 5.53326C12.01 5.57109 11.9837 5.60877 11.9572 5.64631C11.8938 5.73652 11.835 5.82601 11.7834 5.92352C11.6445 6.17204 11.6445 6.17204 11.4982 6.21673C11.3869 6.22449 11.2829 6.2205 11.1719 6.21098C11.1343 6.20929 11.0966 6.2076 11.0579 6.20585C10.9654 6.20145 10.8735 6.19531 10.7812 6.18754C10.7759 6.15922 10.7706 6.13091 10.7651 6.10173C10.6651 5.59901 10.4521 5.12499 10.0183 4.82243C9.51875 4.51233 8.99632 4.41906 8.41418 4.52043C7.88042 4.68559 7.51557 5.02229 7.25 5.50004C7.13396 5.72658 7.10559 5.92901 7.0625 6.18754C6.68094 6.18754 6.29937 6.18754 5.90625 6.18754C6.08073 5.87348 6.08073 5.87348 6.18164 5.74028C6.26794 5.62465 6.35043 5.50752 6.42993 5.38713C6.55674 5.19596 6.6853 5.00604 6.81445 4.81645C6.83741 4.78272 6.86037 4.74899 6.88402 4.71424C7.12904 4.35425 7.37442 3.99451 7.61981 3.63478C7.67754 3.55016 7.73525 3.46553 7.79297 3.3809C7.81183 3.35325 7.83069 3.3256 7.85013 3.29712C7.95953 3.1367 8.06872 2.97615 8.17773 2.81547C8.20238 2.77917 8.22702 2.74287 8.25166 2.70656C8.29938 2.63627 8.34705 2.56595 8.3947 2.49561C8.42688 2.4482 8.42688 2.4482 8.45972 2.39982C8.48838 2.35754 8.48838 2.35754 8.51762 2.3144C8.5625 2.25004 8.5625 2.25004 8.59375 2.21879C8.63657 2.21502 8.67956 2.21318 8.72253 2.2122C8.74906 2.21138 8.77559 2.21056 8.80292 2.20971C8.83122 2.20884 8.85952 2.20797 8.88867 2.20707C9.13423 2.19733 9.37256 2.18669 9.58984 2.05949C9.68519 2.019 9.74021 2.01638 9.84375 2.03129Z" fill="#76DB00"/>
<path d="M3.35975 1.64264C3.39004 1.64355 3.39004 1.64355 3.42094 1.64447C3.67664 1.65435 3.93158 1.68145 4.18593 1.70834C4.27758 1.71802 4.36925 1.72739 4.46094 1.73669C4.68849 1.75983 4.91599 1.78347 5.14349 1.80712C5.33644 1.82717 5.52942 1.84701 5.72242 1.86657C5.81182 1.87572 5.90118 1.88516 5.99055 1.89462C6.53 1.98846 6.53 1.98846 7.02711 1.89393C7.06464 1.84339 7.06464 1.84339 7.09375 1.78125C7.18656 1.78125 7.27938 1.78125 7.375 1.78125C7.375 1.92257 7.3537 1.95246 7.27527 2.06519C7.25371 2.09649 7.23216 2.1278 7.20995 2.16006C7.18643 2.19361 7.1629 2.22715 7.13867 2.26172C7.11431 2.29691 7.08999 2.33212 7.06569 2.36735C7.01593 2.43942 6.96604 2.5114 6.91603 2.5833C6.81144 2.73384 6.70851 2.88551 6.60547 3.03711C6.56699 3.09355 6.52849 3.14999 6.48999 3.20642C6.37351 3.37718 6.25706 3.54796 6.14062 3.71875C6.10156 3.77604 6.0625 3.83333 6.02344 3.89063C6.0041 3.91899 5.98477 3.94734 5.96484 3.97656C5.75 4.29167 5.53516 4.60677 5.32031 4.92188C5.30094 4.95029 5.28158 4.9787 5.26162 5.00797C5.2229 5.06476 5.18416 5.12154 5.14542 5.17832C5.0425 5.32918 4.93976 5.48018 4.83728 5.63135C4.81581 5.66297 4.79434 5.69459 4.77222 5.72717C4.73086 5.78809 4.68956 5.84904 4.64832 5.91004C4.62979 5.93731 4.61125 5.96458 4.59216 5.99268C4.57584 6.01678 4.55951 6.04088 4.54269 6.06571C4.5 6.125 4.5 6.125 4.4375 6.1875C4.3546 6.19297 4.275 6.19474 4.19214 6.1936C4.15586 6.19347 4.15586 6.19347 4.11884 6.19334C4.04146 6.19299 3.96409 6.1922 3.88672 6.19141C3.83431 6.19109 3.7819 6.19081 3.72949 6.19055C3.60091 6.18986 3.47233 6.18878 3.34375 6.1875C3.33558 5.89757 3.36113 5.61264 3.3894 5.32459C3.39417 5.27508 3.39892 5.22558 3.40367 5.17607C3.41359 5.07297 3.42364 4.96989 3.43378 4.86681C3.44672 4.73504 3.45931 4.60324 3.4718 4.47143C3.48151 4.36946 3.49143 4.26751 3.50141 4.16556C3.50613 4.11697 3.51079 4.06837 3.51538 4.01976C3.52182 3.95186 3.52854 3.88399 3.53532 3.81612C3.53907 3.77761 3.54282 3.73909 3.54668 3.6994C3.56239 3.59447 3.58413 3.50415 3.625 3.40625C3.70898 3.34998 3.70898 3.34998 3.8125 3.30274C4.05743 3.18 4.28756 3.03075 4.4082 2.77734C4.44482 2.72461 4.44482 2.72461 4.5 2.6875C4.64726 2.67192 4.79005 2.69026 4.93633 2.70772C5.11373 2.72834 5.2916 2.74444 5.46939 2.76123C5.53342 2.76741 5.59738 2.774 5.66135 2.78069C5.94262 2.80881 6.21769 2.81774 6.5 2.8125C6.50773 2.77383 6.51547 2.73516 6.52344 2.69531C6.52779 2.67356 6.53214 2.65181 6.53662 2.6294C6.53657 2.55767 6.53657 2.55767 6.48279 2.49378C6.38258 2.4201 6.31332 2.41524 6.18945 2.4043C6.14184 2.39979 6.09424 2.39527 6.04663 2.39075C6.01979 2.38838 5.99295 2.386 5.9653 2.38356C5.86348 2.37391 5.76199 2.36228 5.6604 2.35046C5.31145 2.31052 4.9628 2.27244 4.61133 2.26758C4.5866 2.26689 4.56188 2.2662 4.5364 2.26549C4.37344 2.2661 4.28077 2.30217 4.15625 2.40625C4.10613 2.46265 4.10613 2.46265 4.06836 2.52344C3.88937 2.77226 3.68353 2.92306 3.3999 3.03711C3.2718 3.12013 3.21065 3.2007 3.15625 3.34375C3.12144 3.52238 3.10665 3.7016 3.0918 3.88281C3.08694 3.93613 3.08202 3.98944 3.07705 4.04274C3.06659 4.15614 3.05653 4.26956 3.04678 4.38303C3.03085 4.56833 3.01391 4.75353 2.99683 4.93872C2.98004 5.12101 2.96331 5.30329 2.94707 5.48563C2.94457 5.51372 2.94207 5.54182 2.93948 5.57077C2.93485 5.62288 2.93024 5.675 2.92566 5.72713C2.91105 5.89129 2.89367 6.05499 2.875 6.21875C2.77188 6.21875 2.66875 6.21875 2.5625 6.21875C2.58238 5.97395 2.60409 5.72941 2.62786 5.48496C2.63112 5.45126 2.63437 5.41757 2.63773 5.38285C2.64839 5.27265 2.65909 5.16245 2.6698 5.05225C2.67731 4.97481 2.68483 4.89737 2.69234 4.81993C2.70805 4.65803 2.72379 4.49612 2.73954 4.33421C2.7596 4.12795 2.77958 3.92167 2.79953 3.71539C2.815 3.55554 2.83054 3.3957 2.8461 3.23586C2.85348 3.15986 2.86085 3.08387 2.86819 3.00788C2.8878 2.80494 2.90795 2.60206 2.92886 2.39925C2.93691 2.31847 2.94402 2.23766 2.95088 2.15677C2.95523 2.11177 2.9596 2.06676 2.964 2.02176C2.96726 1.98446 2.97053 1.94716 2.97389 1.90872C3.03076 1.69916 3.15221 1.63535 3.35975 1.64264Z" fill="#76DC00"/>
<path d="M12.5568 9.80489C12.6007 9.8048 12.6007 9.8048 12.6455 9.80471C12.7412 9.8046 12.8369 9.80493 12.9326 9.80528C12.9994 9.80532 13.0662 9.80533 13.133 9.80532C13.2724 9.80537 13.4118 9.80563 13.5512 9.80605C13.7304 9.80658 13.9095 9.8067 14.0886 9.80668C14.2262 9.80669 14.3638 9.80686 14.5014 9.80708C14.5675 9.80718 14.6336 9.80724 14.6997 9.80727C14.7917 9.80733 14.8836 9.80761 14.9755 9.80794C15.003 9.80793 15.0305 9.80791 15.0589 9.8079C15.2464 9.8089 15.2464 9.8089 15.2813 9.84373C15.2842 9.92265 15.2852 10.0007 15.2848 10.0796C15.2848 10.1043 15.2848 10.129 15.2848 10.1545C15.2848 10.2365 15.2846 10.3185 15.2843 10.4005C15.2843 10.4572 15.2842 10.5139 15.2842 10.5706C15.2841 10.7202 15.2837 10.8697 15.2834 11.0193C15.2831 11.1718 15.2829 11.3242 15.2828 11.4767C15.2824 11.7761 15.2819 12.0756 15.2813 12.375C14.8757 12.3779 14.4701 12.3801 14.0645 12.3815C13.8761 12.3821 13.6878 12.383 13.4994 12.3844C13.3175 12.3858 13.1355 12.3865 12.9536 12.3868C12.8843 12.3871 12.8151 12.3875 12.7459 12.3882C12.2086 12.3932 11.8424 12.357 11.4395 11.9736C11.1717 11.692 11.0816 11.3689 11.0851 10.9897C11.1103 10.6559 11.2814 10.3592 11.5234 10.1328C11.8319 9.87955 12.1659 9.80235 12.5568 9.80489Z" fill="#FC6B39"/>
<path d="M9.15625 0.468756C9.23213 0.510825 9.23213 0.510825 9.31567 0.56568C9.34608 0.585565 9.37649 0.60545 9.40781 0.625937C9.54653 0.71858 9.68475 0.811838 9.82227 0.906256C9.88269 0.947599 9.94311 0.98894 10.0035 1.03028C10.0493 1.06164 10.0493 1.06164 10.096 1.09363C10.241 1.19285 10.3861 1.29173 10.5312 1.39063C10.5885 1.42969 10.6458 1.46875 10.7031 1.50782C10.7315 1.52715 10.7598 1.54649 10.7891 1.56641C11.0469 1.74219 11.0469 1.74219 11.1328 1.80077C11.1902 1.83989 11.2475 1.879 11.3049 1.91811C11.447 2.01498 11.589 2.11185 11.7311 2.20875C12.0011 2.39292 12.2712 2.57698 12.5415 2.76072C12.6073 2.80548 12.6731 2.85026 12.7389 2.89506C12.9006 3.00509 13.0624 3.11482 13.2247 3.22388C13.2556 3.24473 13.2865 3.26558 13.3184 3.28705C13.3762 3.32605 13.4341 3.36492 13.4921 3.40363C13.9489 3.71254 13.9489 3.71254 13.998 3.88282C13.9532 4.06221 13.8554 4.1935 13.75 4.34376C13.7251 4.3801 13.7002 4.41648 13.6754 4.45289C13.6187 4.53596 13.5616 4.61881 13.5044 4.70154C13.4153 4.83044 13.3268 4.95977 13.2387 5.08931C13.1993 5.14709 13.1597 5.20476 13.12 5.26233C13.0146 5.41544 12.9129 5.56975 12.8154 5.72803C12.7953 5.75983 12.7752 5.79163 12.7544 5.82439C12.7159 5.88539 12.6783 5.94699 12.6418 6.00924C12.5888 6.09187 12.5446 6.15626 12.4688 6.21876C12.3499 6.24296 12.2443 6.23752 12.125 6.21876C12.1622 6.11889 12.2016 6.0345 12.2646 5.94861C12.2798 5.92772 12.2949 5.90682 12.3105 5.88528C12.3266 5.8632 12.3428 5.84112 12.3594 5.81837C12.4104 5.74666 12.4611 5.67479 12.5119 5.60291C12.5447 5.55645 12.5776 5.51006 12.6107 5.46375C12.8469 5.13603 12.8469 5.13603 12.8962 4.74451C12.8655 4.6166 12.8168 4.50314 12.756 4.38672C12.6974 4.26995 12.6838 4.1682 12.682 4.03834C12.6813 4.00998 12.6805 3.98162 12.6797 3.9524C12.6784 3.89324 12.6774 3.83408 12.6768 3.77491C12.6713 3.59492 12.6595 3.47989 12.5312 3.34376C12.4169 3.25461 12.2971 3.17508 12.1758 3.09571C12.1405 3.07227 12.1053 3.0488 12.0702 3.02529C11.9983 2.9773 11.9263 2.92947 11.8542 2.88177C11.7019 2.78077 11.5512 2.67746 11.4004 2.57422C11.3443 2.53597 11.2882 2.49772 11.2321 2.45948C11.1153 2.37987 10.9987 2.30009 10.8822 2.22022C10.7656 2.1403 10.6487 2.06077 10.5316 1.98157C10.4357 1.91667 10.3407 1.85077 10.2467 1.78309C10.0628 1.65308 9.90909 1.55344 9.67688 1.57361C9.55389 1.60341 9.44565 1.65292 9.33447 1.71277C9.12506 1.80507 8.8799 1.78929 8.65436 1.79194C8.48471 1.79777 8.3822 1.82164 8.25 1.93751C8.19883 2.00354 8.15493 2.06615 8.11133 2.13672C8.0842 2.17895 8.05701 2.22115 8.02979 2.26331C8.0151 2.28622 8.00042 2.30912 7.98529 2.33272C7.89683 2.46884 7.80463 2.60242 7.71289 2.73633C7.6724 2.79562 7.63191 2.8549 7.59143 2.91419C7.57111 2.94392 7.55079 2.97366 7.52986 3.00429C7.43127 3.14863 7.33283 3.29307 7.23438 3.43751C7.19531 3.4948 7.15625 3.55209 7.11719 3.60938C7.09785 3.63774 7.07852 3.6661 7.05859 3.69532C6.88281 3.95313 6.88281 3.95313 6.82423 4.03905C6.78512 4.09641 6.74601 4.15378 6.70689 4.21115C6.61003 4.35322 6.51316 4.49529 6.41626 4.63734C6.38771 4.6792 6.38771 4.6792 6.35857 4.72191C6.32015 4.77824 6.28173 4.83457 6.24329 4.89089C6.14783 5.03085 6.05252 5.1709 5.95753 5.31118C5.90977 5.38172 5.86197 5.45222 5.81418 5.52273C5.78033 5.57269 5.74656 5.6227 5.71278 5.67271C5.67152 5.73357 5.63003 5.79427 5.58826 5.85477C5.55173 5.90778 5.51578 5.9612 5.48059 6.01511C5.36726 6.18137 5.36726 6.18137 5.25024 6.21192C5.22052 6.20902 5.19079 6.20612 5.16016 6.20313C5.12994 6.20088 5.09973 6.19862 5.0686 6.1963C5.04596 6.19339 5.02333 6.19049 5 6.18751C5.03119 6.13799 5.06246 6.08852 5.09375 6.03907C5.11115 6.01151 5.12855 5.98396 5.14648 5.95557C5.33218 5.66589 5.527 5.38202 5.7207 5.09766C5.74366 5.06393 5.76662 5.0302 5.79027 4.99545C5.99705 4.69165 6.20407 4.38802 6.41116 4.08443C6.50851 3.94172 6.60581 3.79899 6.70312 3.65626C6.74219 3.59896 6.78125 3.54167 6.82031 3.48438C6.83965 3.45602 6.85898 3.42766 6.87891 3.39844C7.25 2.85417 7.62109 2.3099 7.99219 1.76563C8.01155 1.73722 8.03091 1.70882 8.05087 1.67955C8.08962 1.62272 8.1284 1.56591 8.16721 1.50912C8.2698 1.35893 8.3718 1.20837 8.47302 1.05726C8.49421 1.02578 8.5154 0.994295 8.53723 0.961859C8.57789 0.901428 8.61839 0.840886 8.65869 0.780219C8.67702 0.753048 8.69535 0.725877 8.71423 0.697882C8.73023 0.673946 8.74623 0.650011 8.76272 0.62535C8.87818 0.479597 8.97032 0.439244 9.15625 0.468756Z" fill="#A5E439"/>
<path d="M0.687513 14.3438C1.11033 14.3438 1.53314 14.3438 1.96876 14.3438C1.96876 14.3541 1.96876 14.3644 1.96876 14.375C1.55626 14.375 1.14376 14.375 0.718763 14.375C0.68579 14.8739 0.68579 14.8739 0.871107 15.0156C0.935792 15.0448 0.935792 15.0448 1.00001 15.0625C1.03095 15.0728 1.06189 15.0831 1.09376 15.0938C1.16117 15.0967 1.22866 15.0976 1.29612 15.0976C1.31686 15.0976 1.3376 15.0977 1.35897 15.0977C1.42895 15.0978 1.49893 15.0976 1.56891 15.0975C1.61939 15.0975 1.66987 15.0975 1.72035 15.0976C1.85945 15.0977 1.99855 15.0975 2.13765 15.0974C2.28751 15.0972 2.43737 15.0973 2.58723 15.0973C2.847 15.0973 3.10677 15.0972 3.36654 15.0971C3.74212 15.0968 4.11771 15.0967 4.49329 15.0967C5.10261 15.0966 5.71193 15.0964 6.32125 15.0961C6.91325 15.0958 7.50525 15.0956 8.09725 15.0955C8.13372 15.0955 8.1702 15.0955 8.20777 15.0954C8.39074 15.0954 8.57371 15.0954 8.75668 15.0953C10.2753 15.095 11.7939 15.0944 13.3125 15.0938C13.3228 14.8566 13.3331 14.6194 13.3438 14.375C10.0438 14.375 6.74376 14.375 3.34376 14.375C3.34376 14.3647 3.34376 14.3544 3.34376 14.3438C7.03564 14.3438 10.7275 14.3438 14.5313 14.3438C14.5313 15.125 14.5313 15.125 14.4063 15.375C14.1823 15.5822 13.9182 15.5533 13.6308 15.5513C13.5767 15.5515 13.5227 15.5518 13.4687 15.5521C13.3204 15.5528 13.1722 15.5526 13.0239 15.5521C12.8639 15.5518 12.704 15.5525 12.544 15.5529C12.2307 15.5538 11.9174 15.5537 11.6041 15.5534C11.3495 15.5531 11.0949 15.5531 10.8403 15.5534C10.804 15.5534 10.7678 15.5534 10.7305 15.5535C10.6569 15.5535 10.5833 15.5536 10.5096 15.5537C9.81938 15.5543 9.12912 15.5539 8.43885 15.5532C7.84653 15.5526 7.25421 15.553 6.66189 15.554C5.9741 15.5551 5.28631 15.5557 4.59852 15.5552C4.52518 15.5552 4.45184 15.5552 4.37851 15.5551C4.32438 15.5551 4.32438 15.5551 4.26916 15.5551C4.01484 15.555 3.76053 15.5553 3.50621 15.5559C3.1963 15.5565 2.88639 15.5565 2.57647 15.5556C2.41834 15.5551 2.26022 15.555 2.10208 15.5557C1.95731 15.5563 1.81257 15.5561 1.6678 15.5551C1.61544 15.5549 1.56308 15.5551 1.51072 15.5556C1.03871 15.5595 1.03871 15.5595 0.856309 15.3965C0.677106 15.1806 0.670902 14.9559 0.679701 14.6855C0.682279 14.5728 0.684857 14.46 0.687513 14.3438Z" fill="#E85528"/>
<path d="M9.84375 2.03129C9.93871 2.08035 10.0231 2.14225 10.1094 2.20512C10.1625 2.2427 10.2157 2.28026 10.2689 2.31779C10.3104 2.34736 10.3104 2.34736 10.3527 2.37753C10.4923 2.47631 10.6339 2.57202 10.7754 2.66801C10.8332 2.70743 10.891 2.74686 10.9489 2.7863C11.0977 2.88777 11.2467 2.98903 11.3959 3.09012C11.4544 3.12998 11.5127 3.17011 11.5708 3.21051C11.6954 3.29697 11.8186 3.38033 11.9518 3.45305C12.2273 3.60967 12.2273 3.60967 12.2693 3.75352C12.2916 3.90722 12.2867 4.05931 12.2812 4.21408C12.2813 4.39034 12.3488 4.54427 12.4297 4.69731C12.4776 4.8003 12.4701 4.83015 12.4375 4.93754C12.3834 5.02965 12.3834 5.02965 12.3134 5.13102C12.3008 5.14934 12.2883 5.16765 12.2753 5.18651C12.2352 5.24497 12.1948 5.30317 12.1543 5.36137C12.1148 5.41863 12.0754 5.47594 12.0361 5.53326C12.01 5.57102 11.9839 5.60868 11.9576 5.64626C11.8941 5.73738 11.8331 5.82887 11.7763 5.92434C11.745 5.97577 11.745 5.97577 11.713 6.02824C11.6951 6.05898 11.6773 6.08971 11.6589 6.12137C11.5938 6.18754 11.5938 6.18754 11.4769 6.1975C11.4433 6.19421 11.4097 6.19093 11.375 6.18754C11.3866 6.16752 11.3983 6.1475 11.4103 6.12687C11.5045 5.9558 11.5045 5.9558 11.5332 5.76567C11.5061 5.67627 11.4752 5.5939 11.4395 5.50786C11.3264 5.23519 11.3041 4.98202 11.3256 4.68889C11.3053 4.54148 11.2133 4.45144 11.1 4.36173C11.0335 4.31501 10.966 4.27039 10.8978 4.22624C10.8723 4.20936 10.8467 4.19247 10.8204 4.17507C10.7366 4.11973 10.6525 4.06477 10.5684 4.00981C10.4801 3.95164 10.3919 3.89336 10.3037 3.83507C10.2428 3.7949 10.182 3.75476 10.1212 3.71466C9.82174 3.51725 9.52415 3.31716 9.22702 3.11633C9.14561 3.06132 9.06415 3.00637 8.98269 2.95144C8.93287 2.9178 8.88306 2.88416 8.83325 2.85051C8.81072 2.83531 8.78819 2.82012 8.76497 2.80446C8.68163 2.74807 8.59971 2.69224 8.52068 2.62987C8.46947 2.58559 8.46947 2.58559 8.39844 2.60356C8.37137 2.61419 8.37137 2.61419 8.34375 2.62504C8.39241 2.46933 8.47302 2.32895 8.59375 2.21879C8.69604 2.18658 8.79197 2.1896 8.89844 2.1934C8.95427 2.19311 9.01009 2.19255 9.06592 2.19169C9.10565 2.19123 9.10565 2.19123 9.14618 2.19075C9.30411 2.18377 9.45364 2.13923 9.58984 2.05949C9.68519 2.019 9.74021 2.01638 9.84375 2.03129Z" fill="#72CA00"/>
<path d="M3.35975 1.64264C3.39004 1.64355 3.39004 1.64355 3.42094 1.64447C3.67664 1.65435 3.93158 1.68145 4.18593 1.70834C4.27758 1.71802 4.36925 1.72739 4.46094 1.73669C4.68849 1.75983 4.91599 1.78347 5.14349 1.80712C5.33644 1.82717 5.52942 1.84701 5.72242 1.86657C5.81182 1.87572 5.90118 1.88516 5.99055 1.89462C6.53 1.98846 6.53 1.98846 7.02711 1.89393C7.06464 1.84339 7.06464 1.84339 7.09375 1.78125C7.18656 1.78125 7.27938 1.78125 7.375 1.78125C7.375 1.96687 7.27782 2.0834 7.17854 2.23612C7.14476 2.2887 7.11247 2.34223 7.0802 2.39575C6.91901 2.64462 6.91901 2.64462 6.78842 2.67914C6.7096 2.67919 6.63937 2.6731 6.5625 2.65625C6.55154 2.6266 6.54059 2.59695 6.5293 2.56641C6.46359 2.46042 6.43627 2.44757 6.31976 2.41869C6.17334 2.39258 6.02518 2.38479 5.87695 2.375C5.65297 2.35899 5.43123 2.34086 5.20898 2.30859C5.01803 2.28359 4.82929 2.27264 4.63672 2.26953C4.6104 2.26872 4.58408 2.26791 4.55697 2.26708C4.38716 2.26656 4.28995 2.29211 4.15625 2.40625C4.10613 2.46265 4.10613 2.46265 4.06836 2.52344C3.88937 2.77226 3.68353 2.92306 3.3999 3.03711C3.2718 3.12013 3.21065 3.2007 3.15625 3.34375C3.12144 3.52238 3.10665 3.7016 3.0918 3.88281C3.08694 3.93613 3.08202 3.98944 3.07705 4.04274C3.06659 4.15614 3.05653 4.26956 3.04678 4.38303C3.03085 4.56833 3.01391 4.75353 2.99683 4.93872C2.98004 5.12101 2.96331 5.30329 2.94707 5.48563C2.94457 5.51372 2.94207 5.54182 2.93948 5.57077C2.93485 5.62288 2.93024 5.675 2.92566 5.72713C2.91105 5.89129 2.89367 6.05499 2.875 6.21875C2.77188 6.21875 2.66875 6.21875 2.5625 6.21875C2.58238 5.97395 2.60409 5.72941 2.62786 5.48496C2.63112 5.45126 2.63437 5.41757 2.63773 5.38285C2.64839 5.27265 2.65909 5.16245 2.6698 5.05225C2.67731 4.97481 2.68483 4.89737 2.69234 4.81993C2.70805 4.65803 2.72379 4.49612 2.73954 4.33421C2.7596 4.12795 2.77958 3.92167 2.79953 3.71539C2.815 3.55554 2.83054 3.3957 2.8461 3.23586C2.85348 3.15986 2.86085 3.08387 2.86819 3.00788C2.8878 2.80494 2.90795 2.60206 2.92886 2.39925C2.93691 2.31847 2.94402 2.23766 2.95088 2.15677C2.95523 2.11177 2.9596 2.06676 2.964 2.02176C2.96726 1.98446 2.97053 1.94716 2.97389 1.90872C3.03076 1.69916 3.15221 1.63535 3.35975 1.64264Z" fill="#A5E439"/>
<path d="M12.25 9.81248C12.6406 9.81176 13.0312 9.8112 13.4218 9.81086C13.6032 9.8107 13.7845 9.81048 13.9659 9.81012C14.1408 9.80979 14.3156 9.8096 14.4905 9.80952C14.5574 9.80946 14.6242 9.80935 14.6911 9.80918C14.7844 9.80895 14.8777 9.80892 14.9711 9.80893C14.999 9.80882 15.0269 9.80871 15.0557 9.80859C15.2464 9.80892 15.2464 9.80892 15.2812 9.84373C15.2842 9.92265 15.2852 10.0007 15.2848 10.0796C15.2848 10.1043 15.2848 10.129 15.2848 10.1545C15.2848 10.2365 15.2845 10.3185 15.2843 10.4005C15.2842 10.4572 15.2842 10.5139 15.2842 10.5706C15.284 10.7202 15.2837 10.8697 15.2834 11.0193C15.2831 11.1718 15.2829 11.3242 15.2828 11.4767C15.2824 11.7761 15.2819 12.0756 15.2812 12.375C14.8757 12.3779 14.4701 12.3801 14.0645 12.3815C13.8761 12.3821 13.6878 12.383 13.4994 12.3844C13.3175 12.3858 13.1355 12.3865 12.9536 12.3868C12.8843 12.3871 12.8151 12.3875 12.7459 12.3882C11.9309 12.3959 11.9309 12.3959 11.623 12.1387C11.6008 12.1206 11.5785 12.1025 11.5555 12.0838C11.5 12.0312 11.5 12.0312 11.4375 11.9375C11.5697 11.9881 11.6916 12.0507 11.8159 12.1181C12.0635 12.2225 12.3131 12.2287 12.5786 12.2292C12.6153 12.2294 12.652 12.2296 12.6898 12.2299C12.7669 12.2302 12.844 12.2303 12.9211 12.2303C13.0391 12.2305 13.1571 12.2316 13.2751 12.2328C13.3503 12.233 13.4254 12.2331 13.5005 12.2331C13.5533 12.2338 13.5533 12.2338 13.6072 12.2345C13.8004 12.2346 13.8004 12.2346 13.9746 12.1592C14.0725 12.046 14.0671 11.9715 14.0689 11.8233C14.0692 11.802 14.0695 11.7806 14.0699 11.7586C14.0708 11.688 14.0716 11.6173 14.0724 11.5466C14.073 11.4977 14.0737 11.4487 14.0744 11.3997C14.0761 11.2708 14.0776 11.1418 14.0791 11.0129C14.081 10.8582 14.083 10.7036 14.0851 10.5489C14.0881 10.3138 14.0909 10.0788 14.0938 9.84373C13.4853 9.84373 12.8769 9.84373 12.25 9.84373C12.25 9.83342 12.25 9.82311 12.25 9.81248Z" fill="#E95528"/>
<path d="M6.56249 2.65625C6.6553 2.65625 6.74811 2.65625 6.84374 2.65625C6.71678 2.85779 6.58764 3.05762 6.455 3.25546C6.35227 3.40882 6.24994 3.56246 6.14757 3.71606C6.12733 3.74643 6.10709 3.7768 6.08623 3.80808C6.03665 3.88247 5.98707 3.95686 5.93749 4.03125C5.64627 4.00338 5.35507 3.97541 5.06387 3.9473C4.92866 3.93426 4.79344 3.92125 4.65822 3.90832C4.52772 3.89584 4.39724 3.88327 4.26676 3.87063C4.21697 3.86582 4.16718 3.86105 4.11739 3.85632C4.04766 3.84967 3.97794 3.84292 3.90822 3.83613C3.86853 3.83231 3.82883 3.82849 3.78794 3.82456C3.7096 3.81516 3.63801 3.80319 3.56249 3.78125C3.5464 3.6562 3.54888 3.55619 3.59374 3.4375C3.69535 3.35873 3.80018 3.30588 3.91478 3.2489C4.12316 3.1444 4.3073 2.9888 4.40819 2.77734C4.44481 2.72461 4.44481 2.72461 4.49999 2.6875C4.64725 2.67192 4.79004 2.69026 4.93631 2.70772C5.11371 2.72834 5.29158 2.74444 5.46938 2.76122C5.5334 2.76741 5.59737 2.774 5.66134 2.78069C5.94261 2.80881 6.21767 2.81774 6.49999 2.8125C6.52061 2.76094 6.54124 2.70938 6.56249 2.65625Z" fill="#72CA00"/>
<path d="M9.79468 5.18434C10.0451 5.38912 10.2289 5.65462 10.3125 5.96877C10.3125 6.04095 10.3125 6.11314 10.3125 6.18752C9.38437 6.18752 8.45625 6.18752 7.5 6.18752C7.55106 5.77906 7.7262 5.45207 8.04248 5.18312C8.5879 4.79907 9.24677 4.80895 9.79468 5.18434Z" fill="#B4F74B"/>
<path d="M12.8695 10.2737C13.1173 10.4152 13.2537 10.6017 13.3437 10.875C13.387 11.1774 13.3438 11.4113 13.1727 11.6609C13.019 11.8564 12.8266 11.9536 12.5937 12.0313C12.2894 12.0622 12.0435 11.9993 11.8027 11.8086C11.639 11.6555 11.5132 11.4253 11.4925 11.2C11.4846 10.877 11.5636 10.6681 11.7832 10.431C12.0855 10.1513 12.4942 10.0956 12.8695 10.2737Z" fill="#040201"/>
<path d="M8.3125 1.375C8.49856 1.47612 8.67556 1.58981 8.84375 1.71875C8.84375 1.72906 8.84375 1.73937 8.84375 1.75C8.8166 1.75306 8.78945 1.75612 8.76147 1.75928C8.70745 1.76629 8.70745 1.76629 8.65234 1.77344C8.61681 1.77779 8.58128 1.78214 8.54468 1.78662C8.33177 1.83803 8.2228 1.95629 8.11133 2.13672C8.0842 2.17895 8.05701 2.22114 8.02979 2.26331C8.0151 2.28621 8.00042 2.30912 7.98529 2.33272C7.89683 2.46883 7.80463 2.60241 7.71289 2.73633C7.6724 2.79561 7.63191 2.8549 7.59143 2.91418C7.57111 2.94392 7.55079 2.97365 7.52986 3.00429C7.43127 3.14862 7.33283 3.29307 7.23438 3.4375C7.19531 3.49479 7.15625 3.55208 7.11719 3.60938C7.09785 3.63773 7.07852 3.66609 7.05859 3.69531C6.88281 3.95312 6.88281 3.95312 6.82423 4.03904C6.78512 4.09641 6.74601 4.15378 6.70689 4.21114C6.61003 4.35322 6.51316 4.49528 6.41626 4.63733C6.38771 4.6792 6.38771 4.6792 6.35857 4.72191C6.32015 4.77824 6.28173 4.83456 6.24329 4.89088C6.14783 5.03084 6.05252 5.17089 5.95753 5.31118C5.90977 5.38171 5.86197 5.45222 5.81418 5.52272C5.78033 5.57269 5.74656 5.6227 5.71278 5.67271C5.67152 5.73356 5.63003 5.79426 5.58826 5.85477C5.55173 5.90778 5.51578 5.9612 5.48059 6.01511C5.36726 6.18136 5.36726 6.18136 5.25024 6.21191C5.22052 6.20901 5.19079 6.20611 5.16016 6.20312C5.12994 6.20087 5.09973 6.19861 5.0686 6.19629C5.04596 6.19339 5.02333 6.19049 5 6.1875C5.03119 6.13798 5.06246 6.08852 5.09375 6.03906C5.11115 6.01151 5.12855 5.98396 5.14648 5.95557C5.33218 5.66588 5.527 5.38201 5.7207 5.09766C5.74366 5.06393 5.76662 5.0302 5.79027 4.99545C5.99705 4.69165 6.20407 4.38801 6.41116 4.08443C6.50851 3.94172 6.60581 3.79898 6.70312 3.65625C6.74219 3.59896 6.78125 3.54167 6.82031 3.48438C6.83965 3.45602 6.85898 3.42766 6.87891 3.39844C6.9375 3.3125 6.99609 3.22656 7.05469 3.14062C7.07403 3.11225 7.09338 3.08388 7.11331 3.05464C7.15227 2.9975 7.19123 2.94036 7.23019 2.88322C7.34966 2.70802 7.46908 2.53278 7.58847 2.35751C7.64714 2.27143 7.70589 2.18539 7.76465 2.09937C7.83595 1.99494 7.9069 1.89028 7.97754 1.7854C8.00846 1.73975 8.03939 1.69409 8.07031 1.64844C8.08412 1.62776 8.09793 1.60708 8.11215 1.58577C8.17394 1.49488 8.21986 1.43676 8.3125 1.375Z" fill="#B1F34A"/>
<path d="M13.3438 12.8438C13.7356 12.8438 14.1275 12.8438 14.5312 12.8438C14.5312 13.1944 14.5312 13.545 14.5312 13.9062C10.8394 13.9062 7.1475 13.9062 3.34375 13.9062C3.34375 13.8959 3.34375 13.8856 3.34375 13.875C6.64375 13.875 9.94375 13.875 13.3438 13.875C13.3438 13.5347 13.3438 13.1944 13.3438 12.8438Z" fill="#EF8C1C"/>
<path d="M13.125 6.65624C13.2628 6.65234 13.4006 6.64952 13.5385 6.64765C13.5853 6.64687 13.6321 6.64581 13.6789 6.64445C14.1479 6.63116 14.1479 6.63116 14.331 6.77045C14.436 6.87074 14.5283 6.96396 14.5348 7.11292C14.5346 7.14663 14.5345 7.18034 14.5343 7.21507C14.5342 7.24791 14.5341 7.28074 14.5341 7.31458C14.5338 7.35642 14.5335 7.39827 14.5332 7.44139C14.5326 7.57416 14.5319 7.70694 14.5312 7.84374C14.1394 7.84374 13.7475 7.84374 13.3438 7.84374C13.334 7.48631 13.334 7.48631 13.3316 7.37542C13.322 7.0993 13.271 6.89112 13.125 6.65624Z" fill="#EC5628"/>
<path d="M13.3438 8.3125C13.7356 8.3125 14.1275 8.3125 14.5312 8.3125C14.5312 8.66313 14.5312 9.01375 14.5312 9.375C13.7991 9.375 13.0669 9.375 12.3125 9.375C12.3125 9.36469 12.3125 9.35438 12.3125 9.34375C12.6528 9.34375 12.9931 9.34375 13.3438 9.34375C13.3438 9.00344 13.3438 8.66313 13.3438 8.3125Z" fill="#FD8F1C"/>
<path d="M2.90625 2.8125C3.23109 2.84344 3.23109 2.84344 3.5625 2.875C3.51863 3.00661 3.43594 3.03256 3.31958 3.10022C3.20176 3.19509 3.16264 3.30839 3.13612 3.45509C3.13174 3.4968 3.12778 3.53855 3.12415 3.58032C3.12184 3.60339 3.11954 3.62646 3.11716 3.65023C3.10965 3.72642 3.10267 3.80266 3.0957 3.87891C3.09053 3.9325 3.08533 3.9861 3.0801 4.03969C3.06325 4.21391 3.04722 4.3882 3.03125 4.5625C3.02549 4.62494 3.01974 4.68738 3.01398 4.74982C2.9914 4.99506 2.96893 5.2403 2.94709 5.48561C2.94458 5.51371 2.94208 5.54181 2.93949 5.57076C2.93485 5.62288 2.93024 5.675 2.92566 5.72713C2.91105 5.89129 2.89367 6.05499 2.875 6.21875C2.77188 6.21875 2.66875 6.21875 2.5625 6.21875C2.58973 5.87594 2.62342 5.53386 2.65723 5.19165C2.66341 5.12888 2.6696 5.06611 2.67579 5.00333C2.68869 4.87248 2.70161 4.74163 2.71455 4.61078C2.73111 4.44329 2.74759 4.2758 2.76404 4.10831C2.77676 3.97898 2.78953 3.84965 2.80233 3.72033C2.80843 3.65856 2.81451 3.59679 2.82056 3.53501C2.82903 3.4488 2.83757 3.36259 2.84613 3.27638C2.8486 3.25105 2.85107 3.22573 2.85361 3.19963C2.85597 3.17599 2.85834 3.15234 2.86077 3.12798C2.86278 3.10767 2.86478 3.08736 2.86685 3.06644C2.87728 2.98142 2.89217 2.89699 2.90625 2.8125Z" fill="#B0F249"/>
<path d="M12.6289 10.6601C12.7578 10.7442 12.8491 10.8248 12.896 10.9721C12.9232 11.13 12.9027 11.2453 12.8214 11.3834C12.7385 11.4951 12.6574 11.5525 12.5188 11.5742C12.3408 11.5827 12.2316 11.5585 12.0938 11.4375C11.9766 11.3042 11.9574 11.1813 11.9602 11.0088C11.9762 10.8757 12.0398 10.7928 12.1431 10.7108C12.3049 10.6062 12.4453 10.594 12.6289 10.6601Z" fill="#ECECEC"/>
<path d="M13.2812 5.78123C13.377 5.77869 13.4726 5.77683 13.5684 5.77537C13.6089 5.77419 13.6089 5.77419 13.6502 5.77299C13.8039 5.77122 13.9063 5.77481 14.0312 5.87498C14.0938 5.93748 14.0938 5.93748 14.0938 6.18748C13.7431 6.18748 13.3925 6.18748 13.0312 6.18748C13.1034 6.07404 13.1756 5.9606 13.25 5.84373C13.2603 5.8231 13.2706 5.80248 13.2812 5.78123Z" fill="#FDAF24"/>
<path d="M1.64966 5.77814C1.67906 5.77824 1.70847 5.77834 1.73877 5.77844C1.76955 5.77871 1.80032 5.77897 1.83203 5.77924C1.86305 5.77938 1.89407 5.77952 1.92603 5.77967C2.00277 5.78003 2.07951 5.78059 2.15625 5.78119C2.14594 5.91525 2.13563 6.04932 2.125 6.18744C1.85688 6.18744 1.58875 6.18744 1.3125 6.18744C1.3125 5.96869 1.3125 5.96869 1.37109 5.87885C1.46727 5.78267 1.51747 5.77734 1.64966 5.77814Z" fill="#FCAF24"/>
<path d="M12.8125 4.4375C12.9847 4.57146 13.0769 4.65815 13.1074 4.88086C13.0763 5.15199 12.9068 5.36433 12.7483 5.57858C12.6771 5.67515 12.6102 5.7721 12.5488 5.87524C12.5367 5.89548 12.5245 5.91571 12.5119 5.93655C12.4888 5.97543 12.4663 6.01463 12.4444 6.05417C12.4126 6.10718 12.4126 6.10718 12.3438 6.1875C12.2417 6.19946 12.2417 6.19946 12.1562 6.1875C12.2044 6.04894 12.2786 5.93357 12.3605 5.81311C12.3742 5.79267 12.3879 5.77223 12.402 5.75117C12.4456 5.68624 12.4894 5.62143 12.5332 5.55664C12.5771 5.49149 12.6209 5.42631 12.6647 5.3611C12.6919 5.32062 12.7192 5.28017 12.7465 5.23976C12.844 5.09508 12.8798 5.02242 12.8809 4.84766C12.8815 4.79847 12.8815 4.79847 12.8822 4.74829C12.875 4.65676 12.8557 4.61021 12.8125 4.53125C12.8125 4.50031 12.8125 4.46937 12.8125 4.4375Z" fill="#AFF149"/>
</g>
<defs>
<clipPath id="clip0_166_3">
<rect width="16" height="16" fill="white"/>
</clipPath>
</defs>
</svg>
