<svg width="25" height="24" viewBox="0 0 25 24" fill="none" xmlns="http://www.w3.org/2000/svg">
<g clip-path="url(#clip0_116_31145)">
<path fill-rule="evenodd" clip-rule="evenodd" d="M12.5 24C19.1274 24 24.5 18.6274 24.5 12C24.5 5.37258 19.1274 0 12.5 0C5.87258 0 0.5 5.37258 0.5 12C0.5 18.6274 5.87258 24 12.5 24ZM5.21429 14.1429C6.39775 14.1429 7.35714 13.1835 7.35714 12C7.35714 10.8165 6.39775 9.85714 5.21429 9.85714C4.03082 9.85714 3.07143 10.8165 3.07143 12C3.07143 13.1835 4.03082 14.1429 5.21429 14.1429ZM14.6429 12C14.6429 13.1835 13.6835 14.1429 12.5 14.1429C11.3165 14.1429 10.3571 13.1835 10.3571 12C10.3571 10.8165 11.3165 9.85714 12.5 9.85714C13.6835 9.85714 14.6429 10.8165 14.6429 12ZM19.7857 14.1429C20.9692 14.1429 21.9286 13.1835 21.9286 12C21.9286 10.8165 20.9692 9.85714 19.7857 9.85714C18.6023 9.85714 17.6429 10.8165 17.6429 12C17.6429 13.1835 18.6023 14.1429 19.7857 14.1429Z" fill="white" fill-opacity="0.9"/>
</g>
<defs>
<clipPath id="clip0_116_31145">
<rect width="24" height="24" fill="white" transform="translate(0.5)"/>
</clipPath>
</defs>
</svg>
