<svg width="25" height="24" viewBox="0 0 25 24" fill="none" xmlns="http://www.w3.org/2000/svg">
<path fill-rule="evenodd" clip-rule="evenodd" d="M12.7184 1.53327C8.86229 1.9491 5.36626 4.3111 3.55367 7.72521C3.42235 7.97251 3.31495 8.1889 3.31495 8.20611C3.31495 8.22333 5.45265 8.23741 8.06536 8.23741H12.8158L13.025 8.34297C13.1776 8.41992 13.2636 8.50582 13.3422 8.65966C13.4498 8.87009 13.4501 8.87614 13.4328 10.4894C13.417 11.9601 13.4063 12.1409 13.3163 12.4667C13.0229 13.5289 12.2113 14.4952 11.2634 14.9111C11.1608 14.9561 9.22384 15.6662 6.95899 16.4892C4.69414 17.3121 2.83 17.9965 2.81645 18.0101C2.78123 18.0453 2.96493 18.683 3.1841 19.2864C3.66759 20.6176 4.55456 22.0636 5.09068 22.3944C5.18682 22.4538 5.33728 22.4999 5.43544 22.5C5.55325 22.5001 7.35806 21.8242 11.0165 20.4096C13.9904 19.2598 17.6675 17.8399 19.188 17.2544C21.5848 16.3315 21.975 16.1678 22.1209 16.0241C22.267 15.8801 22.3153 15.7689 22.4872 15.1796C22.7317 14.3413 22.9306 13.4386 23.0608 12.5772C23.1873 11.7398 23.2353 10.2001 23.1582 9.45341C22.713 5.14237 19.9881 2.27391 15.6966 1.59881C15.105 1.50573 13.335 1.46679 12.7184 1.53327ZM2.68958 9.77395C2.64859 9.84193 2.42483 10.7987 2.35758 11.1932C2.22321 11.9819 2.17542 12.7842 2.20267 13.7934C2.22654 14.6769 2.3625 16.0572 2.46005 16.407L2.4942 16.5293L6.57783 15.0436C8.82383 14.2264 10.7553 13.5028 10.8698 13.4356C11.1478 13.2727 11.5312 12.8605 11.6822 12.5624C11.9086 12.1156 11.9446 11.8685 11.9446 10.7611V9.73876H7.32767C4.78836 9.73876 2.70126 9.75457 2.68958 9.77395Z" fill="white" fill-opacity="0.9"/>
</svg>
