<svg width="24" height="24" viewBox="0 0 24 24" fill="none" xmlns="http://www.w3.org/2000/svg">
<path fill-rule="evenodd" clip-rule="evenodd" d="M12.1875 21.3438C17.3569 21.3438 21.5475 17.1604 21.5475 12C21.5475 6.83959 17.3569 2.65625 12.1875 2.65625C7.01814 2.65625 2.82751 6.83959 2.82751 12C2.82751 17.1604 7.01814 21.3438 12.1875 21.3438ZM12.8266 7.49476C12.6255 6.87672 11.7496 6.87672 11.5484 7.49476L10.8835 9.53747C10.7936 9.81386 10.5355 10.001 10.2445 10.001H8.09286C7.44188 10.001 7.17122 10.8326 7.69787 11.2146L9.43852 12.477C9.67403 12.6478 9.77262 12.9507 9.68267 13.227L9.01777 15.2697C8.8166 15.8878 9.52521 16.4017 10.0519 16.0197L11.7926 14.7573C12.0281 14.5864 12.347 14.5864 12.5825 14.7573L14.3231 16.0197C14.8498 16.4017 15.5584 15.8878 15.3572 15.2697L14.6923 13.227C14.6024 12.9507 14.701 12.6478 14.9365 12.477L16.6771 11.2146C17.2038 10.8326 16.9332 10.001 16.2822 10.001H14.1306C13.8395 10.001 13.5814 9.81386 13.4915 9.53746L12.8266 7.49476Z" fill="white" fill-opacity="0.9"/>
</svg>
