<svg width="25" height="24" viewBox="0 0 25 24" fill="none" xmlns="http://www.w3.org/2000/svg">
<path fill-rule="evenodd" clip-rule="evenodd" d="M12.6953 8.25C14.3522 8.25 15.6953 6.90685 15.6953 5.25C15.6953 3.59315 14.3522 2.25 12.6953 2.25C11.0385 2.25 9.69531 3.59315 9.69531 5.25C9.69531 6.90685 11.0385 8.25 12.6953 8.25ZM8.94531 15C10.6022 15 11.9453 13.6569 11.9453 12C11.9453 10.3431 10.6022 9 8.94531 9C7.28846 9 5.94531 10.3431 5.94531 12C5.94531 13.6569 7.28846 15 8.94531 15ZM19.4453 12C19.4453 13.6569 18.1022 15 16.4453 15C14.7885 15 13.4453 13.6569 13.4453 12C13.4453 10.3431 14.7885 9 16.4453 9C18.1022 9 19.4453 10.3431 19.4453 12ZM5.19531 21.75C6.85217 21.75 8.19531 20.4069 8.19531 18.75C8.19531 17.0931 6.85217 15.75 5.19531 15.75C3.53846 15.75 2.19531 17.0931 2.19531 18.75C2.19531 20.4069 3.53846 21.75 5.19531 21.75ZM15.6953 18.75C15.6953 20.4069 14.3522 21.75 12.6953 21.75C11.0385 21.75 9.69531 20.4069 9.69531 18.75C9.69531 17.0931 11.0385 15.75 12.6953 15.75C14.3522 15.75 15.6953 17.0931 15.6953 18.75ZM20.1953 21.75C21.8522 21.75 23.1953 20.4069 23.1953 18.75C23.1953 17.0931 21.8522 15.75 20.1953 15.75C18.5385 15.75 17.1953 17.0931 17.1953 18.75C17.1953 20.4069 18.5385 21.75 20.1953 21.75Z" fill="white" fill-opacity="0.9"/>
</svg>
