<svg width="25" height="24" viewBox="0 0 25 24" fill="none" xmlns="http://www.w3.org/2000/svg">
<path d="M8.49715 11.25H6.48278C6.30669 11.25 6.20943 11.0324 6.31768 10.8935C6.53723 10.6119 6.80881 10.2069 6.88835 9.84278C6.96401 9.49643 6.88835 8.93814 6.88835 8.93814C6.88835 8.93814 5.78075 9.53164 5.0313 9.44072C3.83354 9.29542 2.83145 8.43565 2.95576 7.3299C3.25227 4.69244 6.67887 2.05498 7.32857 1.57673C7.3928 1.52945 7.47784 1.52672 7.54466 1.57026C8.21412 2.00653 11.7158 4.42171 11.9133 7.3299C11.9836 8.36421 11.2612 9.20081 10.1655 9.44072C9.35014 9.61926 8.08998 8.93814 8.08998 8.93814C8.08998 8.93814 8.01957 9.49549 8.08998 9.84278C8.16228 10.1995 8.43887 10.6096 8.66177 10.8948C8.77007 11.0333 8.673 11.25 8.49715 11.25Z" fill="white" fill-opacity="0.9"/>
<path d="M20.1002 2.29614C18.6727 2.29614 17.959 3.7785 17.959 3.7785C17.959 3.7785 17.2453 2.29613 15.6139 2.29614C14.344 2.29615 13.4727 3.51866 13.4727 4.83732C13.4726 7.70896 17.1392 10.6671 17.843 11.2084C17.9121 11.2616 18.006 11.2616 18.075 11.2084C18.7788 10.6671 22.4454 7.70896 22.4454 4.83732C22.4454 3.46279 21.4239 2.29614 20.1002 2.29614Z" fill="white" fill-opacity="0.9"/>
<path d="M3.07714 17.4886L7.24096 12.9072C7.31967 12.8206 7.4556 12.8198 7.53535 12.9055L11.8008 17.4868C11.8723 17.5636 11.8723 17.6826 11.8008 17.7594L7.53535 22.3408C7.4556 22.4264 7.31967 22.4256 7.24096 22.339L3.07714 17.7576C3.00781 17.6814 3.00781 17.5649 3.07714 17.4886Z" fill="white" fill-opacity="0.9"/>
<path d="M15.593 14.2205C15.4226 14.9484 15.9962 16.0916 15.9962 16.0916C15.9962 16.0916 13.2742 15.7962 13.2742 18.3566C13.2742 19.5263 14.2947 20.4285 15.4921 20.4247C16.1797 20.4225 17.1052 19.7353 17.1052 19.7353C17.1052 19.7353 17.1297 20.4704 17.0044 20.917C16.9164 21.2307 16.6977 21.6051 16.5269 21.8677C16.4369 22.006 16.5348 22.1973 16.6999 22.1973H18.8772C19.0498 22.1973 19.1468 21.9885 19.0433 21.8504C18.8495 21.5918 18.6102 21.2307 18.5167 20.917C18.395 20.5092 18.4158 19.8338 18.4158 19.8338C18.4158 19.8338 19.4217 20.4732 20.1297 20.4247C21.2961 20.3446 22.2469 19.4988 22.2469 18.3566C22.2469 15.7962 19.6256 16.0916 19.6256 16.0916C19.6256 16.0916 20.2809 14.9615 20.1297 14.2205C19.9051 13.1189 18.9606 12.4235 17.8109 12.4479C16.6921 12.4716 15.8424 13.1548 15.593 14.2205Z" fill="white" fill-opacity="0.9"/>
</svg>
