<svg width="25" height="24" viewBox="0 0 25 24" fill="none" xmlns="http://www.w3.org/2000/svg">
<mask id="mask0_97_12962" style="mask-type:luminance" maskUnits="userSpaceOnUse" x="0" y="0" width="25" height="24">
<path d="M24.2648 0.235291H0.735352V23.7647H24.2648V0.235291Z" fill="white"/>
</mask>
<g mask="url(#mask0_97_12962)">
<path d="M8.08828 5.38233C8.08828 5.96736 7.85587 6.52845 7.44219 6.94213C7.02851 7.35581 6.46743 7.58822 5.8824 7.58822C5.29737 7.58822 4.73628 7.35581 4.3226 6.94213C3.90893 6.52845 3.67651 5.96736 3.67651 5.38233C3.67651 4.79731 3.90893 4.23622 4.3226 3.82254C4.73628 3.40886 5.29737 3.17645 5.8824 3.17645C6.46743 3.17645 7.02851 3.40886 7.44219 3.82254C7.85587 4.23622 8.08828 4.79731 8.08828 5.38233ZM8.08828 12C8.08828 12.585 7.85587 13.1461 7.44219 13.5598C7.02851 13.9735 6.46743 14.2059 5.8824 14.2059C5.29737 14.2059 4.73628 13.9735 4.3226 13.5598C3.90893 13.1461 3.67651 12.585 3.67651 12C3.67651 11.415 3.90893 10.8539 4.3226 10.4402C4.73628 10.0265 5.29737 9.7941 5.8824 9.7941C6.46743 9.7941 7.02851 10.0265 7.44219 10.4402C7.85587 10.8539 8.08828 11.415 8.08828 12ZM5.8824 20.8235C6.46743 20.8235 7.02851 20.5912 7.44219 20.1775C7.85587 19.7638 8.08828 19.2026 8.08828 18.6176C8.08828 18.0326 7.85587 17.4715 7.44219 17.0578C7.02851 16.6441 6.46743 16.4117 5.8824 16.4117C5.29737 16.4117 4.73628 16.6441 4.3226 17.0578C3.90893 17.4715 3.67651 18.0326 3.67651 18.6176C3.67651 19.2026 3.90893 19.7638 4.3226 20.1775C4.73628 20.5912 5.29737 20.8235 5.8824 20.8235ZM14.7059 5.38233C14.7059 5.96736 14.4735 6.52845 14.0598 6.94213C13.6462 7.35581 13.0851 7.58822 12.5 7.58822C11.915 7.58822 11.3539 7.35581 10.9402 6.94213C10.5266 6.52845 10.2942 5.96736 10.2942 5.38233C10.2942 4.79731 10.5266 4.23622 10.9402 3.82254C11.3539 3.40886 11.915 3.17645 12.5 3.17645C13.0851 3.17645 13.6462 3.40886 14.0598 3.82254C14.4735 4.23622 14.7059 4.79731 14.7059 5.38233ZM12.5 14.2059C13.0851 14.2059 13.6462 13.9735 14.0598 13.5598C14.4735 13.1461 14.7059 12.585 14.7059 12C14.7059 11.415 14.4735 10.8539 14.0598 10.4402C13.6462 10.0265 13.0851 9.7941 12.5 9.7941C11.915 9.7941 11.3539 10.0265 10.9402 10.4402C10.5266 10.8539 10.2942 11.415 10.2942 12C10.2942 12.585 10.5266 13.1461 10.9402 13.5598C11.3539 13.9735 11.915 14.2059 12.5 14.2059ZM14.7059 18.6176C14.7059 19.2026 14.4735 19.7638 14.0598 20.1775C13.6462 20.5912 13.0851 20.8235 12.5 20.8235C11.915 20.8235 11.3539 20.5912 10.9402 20.1775C10.5266 19.7638 10.2942 19.2026 10.2942 18.6176C10.2942 18.0326 10.5266 17.4715 10.9402 17.0578C11.3539 16.6441 11.915 16.4117 12.5 16.4117C13.0851 16.4117 13.6462 16.6441 14.0598 17.0578C14.4735 17.4715 14.7059 18.0326 14.7059 18.6176ZM19.1177 7.58822C19.7027 7.58822 20.2639 7.35581 20.6775 6.94213C21.0912 6.52845 21.3236 5.96736 21.3236 5.38233C21.3236 4.79731 21.0912 4.23622 20.6775 3.82254C20.2639 3.40886 19.7027 3.17645 19.1177 3.17645C18.5327 3.17645 17.9715 3.40886 17.5578 3.82254C17.1442 4.23622 16.9118 4.79731 16.9118 5.38233C16.9118 5.96736 17.1442 6.52845 17.5578 6.94213C17.9715 7.35581 18.5327 7.58822 19.1177 7.58822ZM21.3236 12C21.3236 12.585 21.0912 13.1461 20.6775 13.5598C20.2639 13.9735 19.7027 14.2059 19.1177 14.2059C18.5327 14.2059 17.9715 13.9735 17.5578 13.5598C17.1442 13.1461 16.9118 12.585 16.9118 12C16.9118 11.415 17.1442 10.8539 17.5578 10.4402C17.9715 10.0265 18.5327 9.7941 19.1177 9.7941C19.7027 9.7941 20.2639 10.0265 20.6775 10.4402C21.0912 10.8539 21.3236 11.415 21.3236 12ZM19.1177 20.8235C19.7027 20.8235 20.2639 20.5912 20.6775 20.1775C21.0912 19.7638 21.3236 19.2026 21.3236 18.6176C21.3236 18.0326 21.0912 17.4715 20.6775 17.0578C20.2639 16.6441 19.7027 16.4117 19.1177 16.4117C18.5327 16.4117 17.9715 16.6441 17.5578 17.0578C17.1442 17.4715 16.9118 18.0326 16.9118 18.6176C16.9118 19.2026 17.1442 19.7638 17.5578 20.1775C17.9715 20.5912 18.5327 20.8235 19.1177 20.8235Z" fill="#FFBC0F"/>
</g>
</svg>
