<svg width="25" height="24" viewBox="0 0 25 24" fill="none" xmlns="http://www.w3.org/2000/svg">
<path fill-rule="evenodd" clip-rule="evenodd" d="M22.4453 12C22.4453 17.3848 18.0801 21.75 12.6953 21.75C7.31054 21.75 2.94531 17.3848 2.94531 12C2.94531 6.61522 7.31054 2.25 12.6953 2.25C18.0801 2.25 22.4453 6.61522 22.4453 12ZM12.6953 19.3125C16.7339 19.3125 20.0078 16.0386 20.0078 12C20.0078 7.96142 16.7339 4.6875 12.6953 4.6875C8.65673 4.6875 5.38281 7.96142 5.38281 12C5.38281 16.0386 8.65673 19.3125 12.6953 19.3125ZM18.1797 4.74842C18.1797 5.25325 17.7704 5.66249 17.2656 5.66249C16.7608 5.66249 16.3516 5.25325 16.3516 4.74842C16.3516 4.2436 16.7608 3.83436 17.2656 3.83436C17.7704 3.83436 18.1797 4.2436 18.1797 4.74842ZM18.7891 12C18.7891 15.3655 16.0608 18.0938 12.6953 18.0938C9.32983 18.0938 6.60156 15.3655 6.60156 12C6.60156 8.63451 9.32983 5.90625 12.6953 5.90625C16.0608 5.90625 18.7891 8.63451 18.7891 12ZM13.9141 12C13.9141 12.6731 13.3684 13.2188 12.6953 13.2188C12.0222 13.2188 11.4766 12.6731 11.4766 12C11.4766 11.3269 12.0222 10.7812 12.6953 10.7812C13.3684 10.7812 13.9141 11.3269 13.9141 12ZM14.8281 11.3906C14.4916 11.3906 14.2188 11.6635 14.2188 12C14.2188 12.3365 14.4916 12.6094 14.8281 12.6094H15.4375C15.774 12.6094 16.0469 12.3365 16.0469 12C16.0469 11.6635 15.774 11.3906 15.4375 11.3906H14.8281ZM9.34375 12C9.34375 11.6635 9.61658 11.3906 9.95312 11.3906H10.5625C10.899 11.3906 11.1719 11.6635 11.1719 12C11.1719 12.3365 10.899 12.6094 10.5625 12.6094H9.95312C9.61658 12.6094 9.34375 12.3365 9.34375 12ZM12.0859 9.86719C12.0859 10.2037 12.3588 10.4766 12.6953 10.4766C13.0319 10.4766 13.3047 10.2037 13.3047 9.86719V9.25781C13.3047 8.92126 13.0319 8.64844 12.6953 8.64844C12.3588 8.64844 12.0859 8.92126 12.0859 9.25781V9.86719ZM12.6953 15.3516C12.3588 15.3516 12.0859 15.0787 12.0859 14.7422V14.1328C12.0859 13.7963 12.3588 13.5234 12.6953 13.5234C13.0319 13.5234 13.3047 13.7963 13.3047 14.1328V14.7422C13.3047 15.0787 13.0319 15.3516 12.6953 15.3516Z" fill="white" fill-opacity="0.9"/>
</svg>
