<svg width="25" height="24" viewBox="0 0 25 24" fill="none" xmlns="http://www.w3.org/2000/svg">
<path fill-rule="evenodd" clip-rule="evenodd" d="M6.46012 2.90918C4.85347 2.90918 3.55103 4.21162 3.55103 5.81827V18.1819C3.55103 19.7885 4.85347 21.091 6.46012 21.091H18.8237C20.4304 21.091 21.7328 19.7885 21.7328 18.1819V5.81827C21.7328 4.21162 20.4304 2.90918 18.8237 2.90918H6.46012ZM5.00557 11.1337C5.00557 11.1337 5.13659 10.0852 5.76921 9.8486C6.56941 9.54933 7.29648 11.5621 7.29648 11.5621C7.29648 11.5621 7.98025 9.8486 8.82375 9.8486C9.66724 9.8486 10.351 11.5621 10.351 11.5621C10.351 11.5621 11.0781 9.54933 11.8783 9.8486C12.5109 10.0852 12.6419 11.5621 12.6419 11.5621C12.6419 11.5621 13.3257 9.8486 14.1692 9.8486C15.0127 9.8486 15.6965 11.5621 15.6965 11.5621C15.6965 11.5621 15.8275 10.0852 16.4601 9.8486C17.2603 9.54933 17.9874 11.5621 17.9874 11.5621C17.9874 11.5621 18.7144 9.54933 19.5147 9.8486C20.1472 10.0852 20.2783 11.1337 20.2783 11.1337V17.529C20.2783 17.529 20.1472 19.0059 19.5147 19.2425C18.7144 19.5417 17.9874 17.529 17.9874 17.529C17.9874 17.529 17.2603 19.5417 16.4601 19.2425C15.8275 19.0059 15.6965 17.529 15.6965 17.529C15.6965 17.529 15.0127 19.2425 14.1692 19.2425C13.3257 19.2425 12.6419 17.529 12.6419 17.529C12.6419 17.529 12.5109 19.0059 11.8783 19.2425C11.0781 19.5417 10.351 17.529 10.351 17.529C10.351 17.529 9.66724 19.2425 8.82375 19.2425C7.98025 19.2425 7.29648 17.529 7.29648 17.529C7.29648 17.529 6.56941 19.5417 5.76921 19.2425C5.13659 19.0059 5.00557 17.529 5.00557 17.529V11.1337ZM8.60491 7.61325C8.61873 7.72569 8.50433 7.81005 8.40091 7.76365L7.62492 7.41514C7.58636 7.39783 7.54217 7.39813 7.50386 7.41602L6.73289 7.77558C6.6302 7.82343 6.5146 7.74074 6.52681 7.62809L6.61844 6.78233C6.62299 6.74031 6.60904 6.69837 6.5802 6.66746L6.00003 6.04533C5.92275 5.96246 5.96571 5.82695 6.07662 5.80375L6.90927 5.62956C6.95065 5.6209 6.98621 5.59467 7.00671 5.5577L7.41911 4.81367C7.47404 4.71456 7.61618 4.71354 7.67252 4.81186L8.09553 5.54993C8.11655 5.58661 8.15247 5.61232 8.19393 5.62039L9.02898 5.78269C9.14025 5.8043 9.18513 5.93917 9.10905 6.02314L8.53778 6.65349C8.50942 6.68482 8.49604 6.72693 8.5012 6.7689L8.60491 7.61325ZM13.6901 7.61325C13.704 7.72569 13.5896 7.81005 13.4861 7.76365L12.7101 7.41514C12.6716 7.39783 12.6274 7.39813 12.5891 7.41602L11.8181 7.77558C11.7155 7.82343 11.5998 7.74074 11.612 7.62809L11.7037 6.78233C11.7083 6.74031 11.6943 6.69837 11.6654 6.66746L11.0853 6.04533C11.008 5.96246 11.0509 5.82695 11.1619 5.80375L11.9945 5.62956C12.0359 5.6209 12.0715 5.59467 12.092 5.5577L12.5043 4.81367C12.5592 4.71456 12.7014 4.71354 12.7578 4.81186L13.1807 5.54993C13.2017 5.58661 13.2377 5.61232 13.2792 5.62039L14.1142 5.78269C14.2255 5.8043 14.2704 5.93917 14.1943 6.02314L13.623 6.65349C13.5947 6.68482 13.5813 6.72693 13.5864 6.7689L13.6901 7.61325ZM18.5707 7.76365C18.6741 7.81005 18.7885 7.72569 18.7747 7.61325L18.6709 6.7689C18.6658 6.72693 18.6792 6.68482 18.7075 6.65349L19.2788 6.02314C19.3549 5.93917 19.31 5.8043 19.1987 5.78269L18.3637 5.62039C18.3222 5.61232 18.2863 5.58661 18.2653 5.54993L17.8423 4.81186C17.7859 4.71354 17.6437 4.71456 17.5888 4.81367L17.1765 5.5577C17.156 5.59467 17.1204 5.6209 17.079 5.62956L16.2464 5.80375C16.1355 5.82695 16.0925 5.96246 16.1698 6.04533L16.7499 6.66746C16.7788 6.69837 16.7928 6.74031 16.7882 6.78233L16.6965 7.62809C16.6843 7.74074 16.8 7.82343 16.9027 7.77558L17.6736 7.41602C17.7119 7.39813 17.7561 7.39783 17.7947 7.41514L18.5707 7.76365Z" fill="white" fill-opacity="0.9"/>
<path d="M8.25277 14.1389C8.20528 14.1762 8.15437 14.1813 8.10005 14.1541C8.04914 14.127 8.02368 14.0829 8.02368 14.0218V13.6501C8.02368 13.4567 8.10172 13.3039 8.25786 13.1919L8.77205 12.8152C8.92477 12.7032 9.09954 12.6472 9.29641 12.6472H9.61714C9.69517 12.6472 9.7631 12.6761 9.82077 12.7338C9.87845 12.7915 9.90732 12.8594 9.90732 12.9374V16.0734C9.90732 16.1515 9.87845 16.2194 9.82077 16.277C9.7631 16.3348 9.69517 16.3636 9.61714 16.3636H9.29641C9.21837 16.3636 9.15045 16.3348 9.09277 16.277C9.0351 16.2194 9.00623 16.1515 9.00623 16.0734V13.5992H8.99605L8.25277 14.1389Z" fill="white" fill-opacity="0.9"/>
<path d="M12.9437 13.5329C12.8487 13.3463 12.6993 13.2529 12.4957 13.2529C12.292 13.2529 12.141 13.3463 12.0426 13.5329C11.9476 13.7196 11.9 14.0438 11.9 14.5053C11.9 14.9669 11.9476 15.291 12.0426 15.4776C12.141 15.6643 12.292 15.7576 12.4957 15.7576C12.6993 15.7576 12.8487 15.6643 12.9437 15.4776C13.0421 15.291 13.0913 14.9669 13.0913 14.5053C13.0913 14.0438 13.0421 13.7196 12.9437 13.5329ZM13.6055 15.9664C13.3645 16.2651 12.9946 16.4144 12.4957 16.4144C11.9967 16.4144 11.6251 16.2651 11.3807 15.9664C11.1398 15.6678 11.0193 15.1807 11.0193 14.5053C11.0193 13.8299 11.1398 13.3429 11.3807 13.0442C11.6251 12.7456 11.9967 12.5962 12.4957 12.5962C12.9946 12.5962 13.3645 12.7456 13.6055 13.0442C13.8498 13.3429 13.972 13.8299 13.972 14.5053C13.972 15.1807 13.8498 15.6678 13.6055 15.9664Z" fill="white" fill-opacity="0.9"/>
<path d="M16.2547 13.5329C16.1596 13.3463 16.0103 13.2529 15.8067 13.2529C15.603 13.2529 15.452 13.3463 15.3536 13.5329C15.2585 13.7196 15.211 14.0438 15.211 14.5053C15.211 14.9669 15.2585 15.291 15.3536 15.4776C15.452 15.6643 15.603 15.7576 15.8067 15.7576C16.0103 15.7576 16.1596 15.6643 16.2547 15.4776C16.3531 15.291 16.4023 14.9669 16.4023 14.5053C16.4023 14.0438 16.3531 13.7196 16.2547 13.5329ZM16.9165 15.9664C16.6756 16.2651 16.3056 16.4144 15.8067 16.4144C15.3078 16.4144 14.9361 16.2651 14.6918 15.9664C14.4508 15.6678 14.3303 15.1807 14.3303 14.5053C14.3303 13.8299 14.4508 13.3429 14.6918 13.0442C14.9361 12.7456 15.3078 12.5962 15.8067 12.5962C16.3056 12.5962 16.6756 12.7456 16.9165 13.0442C17.1609 13.3429 17.283 13.8299 17.283 14.5053C17.283 15.1807 17.1609 15.6678 16.9165 15.9664Z" fill="white" fill-opacity="0.9"/>
</svg>
