<svg width="29" height="24" viewBox="0 0 29 24" fill="none" xmlns="http://www.w3.org/2000/svg">
<path d="M24.1082 4.88128L23.2339 4.14533C22.9868 3.93734 22.5306 3.96935 22.2455 4.2573L19.2039 6.80126C17.8352 6.30532 16.3336 6.06532 14.7559 6.06532C10.0606 6.08126 5.99305 8.38523 4.03503 11.6974C3.92094 11.9054 3.92094 12.1614 4.03503 12.3373C4.94736 13.9054 6.31606 15.2014 8.02683 16.1773L5.53672 18.3053C5.25159 18.5453 5.21356 18.9293 5.4037 19.1373L6.27803 19.8732C6.52513 20.0812 6.98132 20.0492 7.26645 19.7613L23.9558 5.71339C24.317 5.47352 24.3551 5.08956 24.108 4.88155L24.1082 4.88128ZM15.7633 9.71316C15.4401 9.64914 15.0981 9.56919 14.7749 9.56919C13.1591 9.56919 11.8667 10.6572 11.8667 12.0171C11.8667 12.2891 11.9427 12.5771 12.0377 12.8491L10.764 13.9051C10.3839 13.3452 10.1748 12.7211 10.1748 12.0172C10.1748 9.88918 12.2087 8.17715 14.7368 8.17715C15.5733 8.17715 16.3146 8.35314 16.9798 8.6731L15.7633 9.71316Z" fill="white" fill-opacity="0.8"/>
<path d="M25.4768 11.6974C24.8116 10.5773 23.9371 9.56939 22.8537 8.75336L19.3181 11.6974V12.0173C19.3181 14.1453 17.2842 15.8573 14.756 15.8573H14.3759L12.1329 17.7453C12.9694 17.8893 13.8437 17.9853 14.6991 17.9853C19.3944 17.9853 23.4619 15.6813 25.4199 12.3532C25.591 12.1291 25.591 11.9052 25.4769 11.6972L25.4768 11.6974Z" fill="white" fill-opacity="0.8"/>
</svg>
