<svg width="24" height="24" viewBox="0 0 24 24" fill="none" xmlns="http://www.w3.org/2000/svg">
<g clip-path="url(#clip0_116_30523)">
<mask id="mask0_116_30523" style="mask-type:luminance" maskUnits="userSpaceOnUse" x="0" y="0" width="24" height="24">
<path d="M24 0H0V24H24V0Z" fill="white"/>
</mask>
<g mask="url(#mask0_116_30523)">
<path fill-rule="evenodd" clip-rule="evenodd" d="M15.2912 8.90105C16.9842 7.23175 17.0034 4.50609 15.3341 2.8131L15.3326 2.81161C13.6661 1.09725 10.9254 1.05842 9.21105 2.7249C9.19481 2.74068 9.17871 2.75657 9.16273 2.7726C8.51371 3.37315 8.12254 4.20173 8.07133 5.08449L12.9793 9.99245C13.862 9.94124 14.6906 9.55007 15.2912 8.90105ZM9.50326 9.92408L8.14116 8.56199C8.54528 8.15787 8.4164 7.54017 8.26061 6.79346C8.1947 6.47756 8.12398 6.13857 8.08675 5.78289L12.2819 9.97802C11.926 9.94091 11.5869 9.87016 11.271 9.80423C10.5249 9.64856 9.90758 9.51977 9.50326 9.92408ZM6.09756 11.2842C5.90954 11.0961 5.90954 10.7913 6.09756 10.6032L7.80063 8.90247L9.16273 10.266L7.45963 11.9677C7.27156 12.1557 6.96668 12.1557 6.77859 11.9677L6.09756 11.2842ZM17.2351 11.3738C17.2351 12.1718 16.5882 12.8188 15.7902 12.8188C14.9921 12.8188 14.3452 12.1718 14.3452 11.3738C14.3452 10.5758 14.9921 9.92889 15.7902 9.92889C16.5882 9.92889 17.2351 10.5758 17.2351 11.3738ZM6.32977 14.4632C6.34279 14.69 6.3575 14.9471 6.26602 15.0683C6.18937 15.1699 6.04895 15.3178 5.86276 15.4779C5.31707 15.0905 4.82613 14.8283 4.50897 14.6759C4.95358 14.5079 5.4353 14.4152 5.93875 14.4152C6.07013 14.4152 6.19994 14.422 6.32818 14.4342L6.32977 14.4632ZM7.80369 17.4759C7.94747 17.4301 8.11559 17.3974 8.31493 17.3748C8.88807 17.3099 9.50962 18.0428 9.9788 18.6192C9.93791 19.6576 9.50548 20.595 8.82457 21.2885C8.75899 20.1907 8.49101 18.6753 7.80369 17.4759ZM4.22916 16.3394C4.71209 16.239 5.1658 15.9961 5.52755 15.7396C4.77287 15.2201 4.14341 14.9505 4.0182 14.8992C3.23524 15.3222 2.6087 15.9963 2.2442 16.813C2.71798 16.6243 3.23109 16.5283 3.73506 16.4348L3.73652 16.4345C3.89909 16.4043 4.06715 16.3731 4.22916 16.3394ZM7.15321 16.5895C7.11052 16.5446 7.06753 16.5006 7.02442 16.4573C7.43674 16.1982 7.78376 16.0215 8.00165 15.9565C8.33381 15.8574 8.65971 15.7977 8.95203 15.7625C9.48758 16.3604 9.847 17.1185 9.95072 17.9561C9.46696 17.4036 8.90333 16.9017 8.26946 16.9734C8.00044 17.0038 7.7757 17.0548 7.58479 17.1269C7.45371 16.9356 7.31076 16.7548 7.15321 16.5895ZM6.49224 18.5447C6.65812 17.9831 6.85027 17.5783 7.22255 17.3155C7.11082 17.1552 6.99059 17.0047 6.86035 16.868C6.8001 16.8048 6.73917 16.7437 6.67798 16.6837C5.18439 17.6998 3.13845 19.5664 2.95241 21.1837C3.57342 21.8628 4.42332 22.3286 5.38007 22.4607C5.72844 21.7675 6.05632 20.3582 6.25121 19.5201L6.25193 19.517C6.34527 19.1157 6.42584 18.7693 6.49224 18.5447ZM6.37256 16.3988C5.86954 16.7445 5.31958 17.1746 4.79881 17.6543C3.9302 18.4543 2.91533 19.5957 2.61945 20.7666C2.16274 20.1119 1.89404 19.3163 1.89404 18.4577C1.89404 18.0738 1.94873 17.7029 2.04873 17.3511C2.56218 17.0648 3.17274 16.9505 3.80878 16.8324C3.97385 16.8018 4.1446 16.7701 4.31135 16.7354C4.90678 16.6116 5.45379 16.3024 5.87159 15.9885C6.0367 16.1139 6.20489 16.2506 6.37256 16.3988ZM6.72075 16.168C7.20191 15.8614 7.61673 15.6494 7.88587 15.5691C8.12755 15.4969 8.36464 15.4444 8.58915 15.4061C8.07035 14.9555 7.43618 14.6343 6.7361 14.4943C6.75163 14.7767 6.75839 15.0866 6.58847 15.3118C6.50774 15.4188 6.37116 15.5654 6.19344 15.7245C6.36748 15.8599 6.54436 16.0076 6.72075 16.168ZM6.64508 19.6116C6.73724 19.2153 6.81689 18.873 6.88004 18.6592C7.02425 18.1712 7.16913 17.8566 7.43832 17.6566C8.13239 18.8628 8.40793 20.4878 8.43509 21.6366C7.74744 22.1768 6.88095 22.5 5.93837 22.5C5.90447 22.5 5.87078 22.4988 5.83712 22.4977L5.80854 22.4967C6.11261 21.829 6.37298 20.7818 6.64508 19.6116ZM17.985 14.4158C18.0182 14.4152 18.0515 14.4151 18.0847 14.4153C18.3177 14.4161 18.5507 14.4364 18.7801 14.4768C19.0884 14.5313 19.3894 14.6209 19.6772 14.7439L20.1878 15.2368L19.7922 16.0622L18.5115 16.0571L18.5137 16.0537L17.1735 15.1605L17.628 14.448C17.6294 14.4459 17.6255 14.4431 17.6195 14.4401C17.7409 14.4267 17.863 14.4183 17.985 14.4158ZM15.5862 16.0633L16.9219 15.3988L18.2474 16.2824L17.9777 17.6645L16.2668 18.4493L15.3357 17.8412L15.5862 16.0633ZM20.0971 16.209L20.4825 15.405L20.8475 15.5015C21.0572 15.6952 21.2469 15.9103 21.4113 16.1429C21.718 16.5766 21.9382 17.0712 22.0551 17.5877C22.0751 17.676 22.0921 17.7653 22.1061 17.8548C22.1023 17.8485 22.0982 17.8438 22.0942 17.8412L21.889 18.2257L20.7636 17.5228L20.0971 16.209ZM14.6506 16.2813C14.7536 16.1197 14.8688 15.9659 14.994 15.8205L15.2507 16.0181L14.9883 17.8802L14.3893 18.6119L14.0221 18.5199C14.0168 18.2621 14.0364 18.0044 14.0805 17.7503C14.1711 17.2297 14.3663 16.7269 14.6506 16.2813ZM19.6528 18.6678L20.665 17.8593L21.7864 18.56L21.7882 18.5571L21.7083 19.9799L20.3085 20.8759L19.5899 20.4942L19.6528 18.6678ZM16.4056 18.7576L18.1109 17.975L19.3128 18.6819L19.2505 20.5202L18.0003 21.1785L16.3835 20.1419L16.4056 18.7576ZM14.1201 19.3272C14.0863 19.1777 14.0613 19.0263 14.0448 18.8739L14.331 18.9456L14.8211 20.1894L14.8189 20.1899L14.9889 21.06C14.9099 20.9672 14.8347 20.8714 14.7645 20.772C14.4578 20.3383 14.237 19.8438 14.1201 19.3272ZM15.2354 20.5541L16.1699 20.4067L17.8179 21.4631L17.8966 22.0254L16.761 22.2727C16.464 22.1694 16.1799 22.0325 15.9143 21.8645C15.7401 21.7541 15.5745 21.6307 15.419 21.4953L15.2354 20.5541ZM20.4898 21.161L21.6544 20.4158C21.6135 20.4899 21.5707 20.5629 21.5252 20.6342C21.2409 21.0799 20.8667 21.4691 20.432 21.7719C20.2355 21.9088 20.0262 22.028 19.8081 22.1282L19.7282 22.017L20.4898 21.161ZM17.9782 22.354L19.4279 22.1801L19.4851 22.2597C19.3207 22.3188 19.1525 22.3679 18.9818 22.4054C18.4995 22.5112 17.9968 22.5285 17.5073 22.4562L17.9782 22.354Z" fill="white" fill-opacity="0.9"/>
</g>
</g>
<defs>
<clipPath id="clip0_116_30523">
<rect width="24" height="24" fill="white"/>
</clipPath>
</defs>
</svg>
