<svg width="24" height="24" viewBox="0 0 24 24" fill="none" xmlns="http://www.w3.org/2000/svg">
<path fill-rule="evenodd" clip-rule="evenodd" d="M4.94798 15.7522L5.01359 5.56995L2.9282 6.24512C2.39585 6.41748 2.11663 7.03167 2.30578 7.61424L4.94798 15.7522Z" fill="white" fill-opacity="0.9"/>
<path fill-rule="evenodd" clip-rule="evenodd" d="M18.2543 18.9759C18.3183 18.8189 18.3532 18.645 18.352 18.4621L18.2618 5.43032C18.2611 5.31741 18.2466 5.20778 18.22 5.10326L21.2366 5.75929C21.7835 5.87824 22.1227 6.46182 21.9926 7.0602L19.5867 18.1291C19.4566 18.7276 18.9059 19.1176 18.3589 18.9987L18.2543 18.9759Z" fill="white" fill-opacity="0.9"/>
<path fill-rule="evenodd" clip-rule="evenodd" d="M7.38211 2.8766L15.9538 2.85497C16.6847 2.85313 17.2779 3.48702 17.2762 4.26801L17.2437 18.7152C17.242 19.4962 16.6459 20.133 15.9151 20.135L7.34334 20.1566C6.61246 20.1584 6.01925 19.5245 6.021 18.7435L6.05341 4.29633C6.05517 3.51533 6.65122 2.87844 7.38211 2.8766ZM9.21421 10.361C8.91486 10.7081 8.90101 11.2168 9.18112 11.5768L10.8767 13.7559C11.2626 14.2518 12.0157 14.2457 12.3987 13.7438L14.0558 11.5714C14.3289 11.2135 14.318 10.7156 14.0298 10.3727L12.3722 8.40047C11.9925 7.94876 11.2966 7.94637 10.9093 8.39544L9.21421 10.361Z" fill="white" fill-opacity="0.9"/>
</svg>
