<svg width="25" height="24" viewBox="0 0 25 24" fill="none" xmlns="http://www.w3.org/2000/svg">
<g clip-path="url(#clip0_237_20524)">
<path d="M12.5 0C5.87253 0 0.5 5.37253 0.5 12C0.5 18.6275 5.87253 24 12.5 24C19.1275 24 24.5 18.6275 24.5 12C24.5 5.37253 19.1275 0 12.5 0Z" fill="#40B3E0"/>
<path d="M18.339 6.9029L16.1957 17.7092C16.1957 17.7092 15.896 18.4586 15.0716 18.0989L10.1256 14.3069L8.32706 13.4377L5.2995 12.4184C5.2995 12.4184 4.83488 12.2536 4.78988 11.8939C4.74497 11.5342 5.3145 11.3393 5.3145 11.3393L17.3498 6.61809C17.3498 6.61809 18.339 6.18347 18.339 6.9029Z" fill="white"/>
<path d="M9.74537 17.5878C9.74537 17.5878 9.60099 17.5743 9.42109 17.0047C9.24128 16.4352 8.32703 13.4376 8.32703 13.4376L15.5961 8.82138C15.5961 8.82138 16.0158 8.56657 16.0008 8.82138C16.0008 8.82138 16.0757 8.86629 15.8509 9.0761C15.6261 9.28601 10.1405 14.217 10.1405 14.217" fill="#D2E5F1"/>
<path d="M12.022 15.7608L10.0656 17.5445C10.0656 17.5445 9.91271 17.6606 9.74536 17.5878L10.12 14.2746" fill="#B5CFE4"/>
</g>
<defs>
<clipPath id="clip0_237_20524">
<rect width="24" height="24" fill="white" transform="translate(0.5)"/>
</clipPath>
</defs>
</svg>
