<svg width="25" height="24" viewBox="0 0 25 24" fill="none" xmlns="http://www.w3.org/2000/svg">
<mask id="mask0_116_30042" style="mask-type:luminance" maskUnits="userSpaceOnUse" x="1" y="0" width="23" height="24">
<path d="M23.4875 0.75H1.88745V23.25H23.4875V0.75Z" fill="white"/>
</mask>
<g mask="url(#mask0_116_30042)">
<path fill-rule="evenodd" clip-rule="evenodd" d="M17.898 4.55127H20.3128C20.5751 4.55127 20.7874 4.77239 20.7874 5.04565V6.29803C20.7874 9.05802 18.6653 11.3 16.0499 11.4451C15.5043 12.2267 14.8545 12.8069 14.1191 13.1364C14.2269 15.4047 15.3758 16.9578 15.7474 17.4052H9.62668C9.99839 16.9547 11.1475 15.3922 11.2553 13.1364C10.5201 12.8068 9.87057 12.2266 9.32512 11.4451C6.70954 11.3001 4.5874 9.05805 4.5874 6.29803V5.04565C4.5874 4.77239 4.79968 4.55127 5.06202 4.55127H7.47679C7.47575 4.50817 7.47457 4.46518 7.47338 4.42218C7.47004 4.30125 7.4667 4.18031 7.4667 4.05688C7.4667 3.78362 7.67898 3.5625 7.94131 3.5625H17.4335C17.6958 3.5625 17.9081 3.78362 17.9081 4.05688C17.9081 4.18026 17.9048 4.30113 17.9014 4.42202C17.9003 4.46506 17.899 4.50811 17.898 4.55127ZM5.53662 5.54004V6.29803C5.53662 8.29024 6.91353 9.955 8.70584 10.3754C8.07705 9.07496 7.66566 7.42361 7.52406 5.54004H5.53662ZM13.9921 8.45322L14.6007 7.82898C14.7286 7.69767 14.7745 7.50212 14.7189 7.32398C14.6633 7.14633 14.5159 7.01598 14.3379 6.98796L13.4934 6.85566L13.112 6.0605C12.9517 5.72543 12.4232 5.72543 12.2629 6.0605L11.8814 6.85566L11.037 6.98796C10.859 7.01594 10.7116 7.1463 10.6559 7.32398C10.6016 7.49728 10.6436 7.695 10.7741 7.82898L11.3827 8.45322L11.2427 9.33095C11.2131 9.51588 11.2863 9.70223 11.4318 9.81182C11.5773 9.9219 11.7692 9.93591 11.9296 9.85094L12.6874 9.44103L13.4452 9.85094C13.6052 9.937 13.7971 9.92227 13.943 9.81182C14.0885 9.70223 14.1618 9.51585 14.1321 9.33095L13.9921 8.45322ZM16.669 10.3753C18.4613 9.95493 19.8381 8.29017 19.8381 6.29803V5.54004H17.8508C17.7092 7.42368 17.2978 9.07489 16.669 10.3753ZM12.7548 7.52781L12.6875 7.3878L12.6231 7.52201C12.5177 7.74825 12.3146 7.7864 12.2735 7.79413C12.2691 7.79497 12.2662 7.79577 12.2662 7.79577L12.117 7.81894L12.2194 7.92418C12.3318 8.03568 12.3872 8.20383 12.3585 8.36837L12.3349 8.51754L12.4688 8.44513C12.6032 8.37226 12.7676 8.36995 12.9063 8.44513L13.0402 8.51754L13.0157 8.36256C12.9902 8.20374 13.0407 8.04197 13.1506 7.92948L13.2581 7.81894L13.1088 7.79577C12.9559 7.77161 12.8238 7.67168 12.7548 7.52781ZM16.4843 19.4487H16.0097V18.394H9.36514V19.4487H8.89053C8.6282 19.4487 8.41592 19.6699 8.41592 19.9431C8.41592 20.2164 8.6282 20.4375 8.89053 20.4375H16.4843C16.7467 20.4375 16.9589 20.2164 16.9589 19.9431C16.9589 19.6699 16.7467 19.4487 16.4843 19.4487Z" fill="white" fill-opacity="0.9"/>
</g>
</svg>
