<svg width="24" height="24" viewBox="0 0 24 24" fill="none" xmlns="http://www.w3.org/2000/svg">
<path d="M3.00386 5.63721C4.18412 6.04498 5.46468 6.6348 6.42895 7.98191C6.92651 7.37025 8.49248 6.31804 9.4529 6.15785C8.87819 4.79981 8.50406 3.8277 8.68148 2.20753C8.68148 2.20753 7.39707 3.31435 8.18777 5.42968C6.50609 3.48547 5.94295 2.81555 4.50426 2C4.69712 3.73304 6.33638 6.4746 6.33638 6.4746C6.33638 6.4746 4.80897 5.16025 3 5.63721H3.00386Z" fill="white" fill-opacity="0.9"/>
<path d="M18.2653 8.37664C16.8729 7.31351 15.1025 6.67636 13.1701 6.67636C9.79129 6.67636 6.89462 8.62421 5.67578 11.3985L18.2653 8.37664Z" fill="white" fill-opacity="0.9"/>
<path d="M8.0752 20.2997C9.4676 21.3629 11.238 22 13.1704 22C16.5492 22 19.4459 20.0522 20.6647 17.2778L8.0752 20.2997Z" fill="white" fill-opacity="0.9"/>
<path d="M6.42718 12.151C6.85917 12.0454 7.24873 12.1219 7.59201 12.3731C7.9353 12.6243 8.12815 12.9775 8.16286 13.4362C8.19758 13.9022 8.08186 14.3137 7.81187 14.6777C7.54187 15.0418 7.16774 15.2821 6.68174 15.3986L5.33948 15.719L5.08105 12.4714L6.42332 12.151H6.42718ZM7.33359 13.5746C7.31045 13.3306 7.22173 13.1522 7.06745 13.0394C6.91317 12.9265 6.72031 12.8974 6.49275 12.952L6.01833 13.0649L6.14561 14.7069L6.59689 14.5976C6.83603 14.5394 7.02117 14.4192 7.15616 14.2299C7.29116 14.0406 7.34902 13.8221 7.33359 13.5709V13.5746Z" fill="white" fill-opacity="0.9"/>
<path d="M11.0273 12.2381C11.0427 12.4456 11.008 12.6385 10.9232 12.8169C10.8383 12.9954 10.711 13.1483 10.5413 13.2721L11.2973 14.2915L10.4487 14.4954L9.79304 13.5852L9.43433 13.6725L9.51533 14.7211L8.67449 14.925L8.41992 11.6774L9.70819 11.3679C10.036 11.2878 10.3292 11.3351 10.5915 11.5062C10.8537 11.6774 10.9965 11.9213 11.0196 12.2453L11.0273 12.2381ZM9.32248 12.2381L9.38034 12.9662L9.86633 12.8497C9.97047 12.8279 10.0515 12.7769 10.1055 12.6932C10.1633 12.6094 10.1865 12.5148 10.1749 12.4055C10.1672 12.2963 10.1248 12.2162 10.0515 12.1652C9.97818 12.1143 9.88561 12.0997 9.77376 12.1288L9.32248 12.2381Z" fill="white" fill-opacity="0.9"/>
<path d="M13.2101 13.8995C12.8783 13.9796 12.5659 13.9723 12.2766 13.874C11.9874 13.7757 11.7559 13.6119 11.5824 13.3825C11.4088 13.1531 11.3124 12.8873 11.2854 12.5815C11.2468 12.1191 11.3664 11.6931 11.6479 11.3036C11.9256 10.914 12.3229 10.6591 12.8398 10.5353C13.3566 10.4116 13.7693 10.488 14.1396 10.7501C14.506 11.0123 14.7105 11.38 14.7529 11.846C14.7915 12.3157 14.6757 12.7453 14.4019 13.1313C14.128 13.5172 13.7308 13.7757 13.2139 13.8995H13.2101ZM12.4309 13.0075C12.6083 13.1313 12.8205 13.164 13.0751 13.1021C13.3296 13.0402 13.534 12.9092 13.696 12.7016C13.8542 12.4941 13.9236 12.2611 13.9005 12.0062C13.8812 11.7477 13.7809 11.5584 13.5996 11.431C13.4183 11.3036 13.2023 11.2744 12.9478 11.3363C12.6932 11.3982 12.4888 11.5293 12.3384 11.7368C12.1841 11.9407 12.1185 12.1737 12.1378 12.4322C12.1571 12.6907 12.2574 12.8837 12.4309 13.0111V13.0075Z" fill="white" fill-opacity="0.9"/>
<path d="M16.2489 9.7907C16.5767 9.71061 16.8699 9.7543 17.1206 9.91813C17.3713 10.082 17.5178 10.3368 17.5564 10.6827C17.595 11.0067 17.5178 11.2944 17.325 11.5456C17.1321 11.7968 16.8467 11.9643 16.4649 12.059L16.0329 12.1645L16.11 13.1403L15.2692 13.3442L15.0107 10.0965L16.2527 9.79799L16.2489 9.7907ZM16.7079 10.8393C16.704 10.7337 16.6654 10.6572 16.5921 10.6135C16.5189 10.5662 16.4263 10.5589 16.3144 10.5844L15.9133 10.6791L15.9673 11.3708L16.3761 11.2725C16.488 11.247 16.569 11.1924 16.6307 11.116C16.6886 11.0359 16.7156 10.9449 16.7079 10.8393Z" fill="white" fill-opacity="0.9"/>
<path d="M19.2083 12.4679C18.8573 12.5516 18.5526 12.5516 18.3019 12.4679C18.0473 12.3805 17.8545 12.2276 17.7195 12.0055L18.3713 11.463C18.5295 11.6997 18.7648 11.7798 19.0772 11.7033C19.3356 11.6414 19.459 11.5358 19.4475 11.3865C19.4398 11.2846 19.3472 11.2191 19.1659 11.1936C19.1389 11.1863 19.0116 11.1754 18.7918 11.1608C18.4793 11.139 18.2286 11.0661 18.0358 10.946C17.8468 10.8258 17.7388 10.622 17.7156 10.338C17.6925 10.0394 17.7774 9.78457 17.9663 9.56976C18.1553 9.35495 18.4138 9.20931 18.7339 9.13285C19.0116 9.06732 19.2623 9.07096 19.4976 9.14742C19.7329 9.22388 19.9257 9.36223 20.08 9.56976L19.459 10.105C19.297 9.91564 19.1003 9.84646 18.8728 9.90107C18.6761 9.9484 18.5796 10.0431 18.5873 10.1814C18.5873 10.2615 18.6336 10.3161 18.7223 10.3453C18.811 10.3744 18.9692 10.3999 19.1929 10.4181C19.351 10.4326 19.4783 10.4472 19.5825 10.4654C19.6827 10.4836 19.7946 10.5237 19.9142 10.5783C20.0337 10.6329 20.1263 10.7166 20.1957 10.8295C20.2652 10.9424 20.3037 11.0807 20.3192 11.2518C20.3423 11.5577 20.2536 11.8162 20.0569 12.0273C19.8602 12.2385 19.5786 12.3841 19.2122 12.4752L19.2083 12.4679Z" fill="white" fill-opacity="0.9"/>
<path d="M9.10291 17.6491C9.03734 17.9403 8.95634 18.1879 8.85606 18.3991L9.3382 18.7741L8.73263 19.2729L8.39707 19.018C8.17336 19.2219 7.8995 19.3639 7.57165 19.444C7.19366 19.535 6.88123 19.5095 6.63824 19.3639C6.39524 19.2183 6.26024 18.9998 6.2371 18.7049C6.20624 18.319 6.36824 17.9804 6.72309 17.6891C6.5881 17.5253 6.51095 17.3505 6.49553 17.1575C6.46853 16.8881 6.54567 16.6478 6.71924 16.4403C6.89281 16.2328 7.13966 16.0944 7.44823 16.018C7.99593 15.8869 8.42407 16.0362 8.73649 16.4621L8.07693 17.0228C7.93807 16.8226 7.77993 16.7461 7.60637 16.7862C7.52922 16.8044 7.46751 16.8408 7.42123 16.8954C7.37494 16.95 7.35566 17.0156 7.36337 17.0884C7.37108 17.1357 7.39037 17.1867 7.42123 17.234C7.45594 17.2813 7.4868 17.3214 7.51765 17.3469C7.54851 17.3724 7.60251 17.416 7.67579 17.4743L8.25821 17.9258C8.31221 17.751 8.34693 17.5799 8.36621 17.4124L9.10291 17.6418V17.6491ZM7.54079 18.7195C7.64879 18.694 7.74522 18.6503 7.83008 18.5848L7.23609 18.126C7.23609 18.126 7.22451 18.1187 7.22451 18.1151C7.11266 18.2243 7.06252 18.3445 7.07795 18.4755C7.08566 18.5738 7.12809 18.6467 7.21294 18.6976C7.29394 18.745 7.4058 18.7522 7.54465 18.7195H7.54079Z" fill="white" fill-opacity="0.9"/>
<path d="M10.1285 18.7639L8.94824 15.7384L9.80066 15.5345L10.4949 17.4532L10.9192 15.2651L11.5903 15.1049L12.3425 17.009L12.7012 14.8391L13.623 14.617L12.9635 18.0867L12.0725 18.3015L11.3975 16.594L11.0195 18.5528L10.1285 18.7676V18.7639Z" fill="white" fill-opacity="0.9"/>
<path d="M13.9102 14.5411L14.751 14.3372L15.0094 17.5849L14.1686 17.7888L13.9102 14.5411Z" fill="white" fill-opacity="0.9"/>
<path d="M15.5309 17.4655L15.2725 14.2178L15.9282 14.0613L17.2241 15.4812L17.093 13.7809L17.93 13.5807L18.1884 16.8283L17.5404 16.9849L16.2444 15.5649L16.3756 17.2652L15.5347 17.4691L15.5309 17.4655Z" fill="white" fill-opacity="0.9"/>
<path d="M19.8851 16.4851C19.5341 16.5688 19.2294 16.5688 18.9787 16.4851C18.7241 16.4013 18.5313 16.2448 18.3963 16.0227L19.0481 15.4802C19.2062 15.7169 19.4415 15.797 19.7539 15.7205C20.0124 15.6586 20.1358 15.553 20.1242 15.4038C20.1165 15.3018 20.0239 15.2363 19.8427 15.2108C19.8157 15.2035 19.6884 15.1926 19.4685 15.178C19.1561 15.1562 18.9054 15.0834 18.7125 14.9632C18.5235 14.8431 18.4155 14.6392 18.3924 14.3552C18.3693 14.0566 18.4541 13.8018 18.6431 13.587C18.836 13.3722 19.0905 13.2265 19.4107 13.1501C19.6884 13.0845 19.9391 13.0882 20.1744 13.1646C20.4058 13.2411 20.6025 13.3794 20.7568 13.587L20.1358 14.1258C19.9738 13.9328 19.7771 13.8673 19.5495 13.9219C19.3528 13.9693 19.2564 14.0639 19.2641 14.2023C19.2641 14.2824 19.3104 14.337 19.3991 14.3661C19.4878 14.3952 19.6459 14.4207 19.8697 14.4389C20.0278 14.4535 20.1551 14.4681 20.2592 14.4863C20.3595 14.5045 20.4714 14.5445 20.5909 14.5991C20.7105 14.6537 20.8031 14.7375 20.8725 14.8503C20.9419 14.9632 20.9805 15.1016 20.9959 15.2727C21.0191 15.5785 20.9304 15.837 20.7336 16.0482C20.5369 16.2593 20.2554 16.4086 19.8889 16.496L19.8851 16.4851Z" fill="white" fill-opacity="0.9"/>
</svg>
