<svg width="25" height="24" viewBox="0 0 25 24" fill="none" xmlns="http://www.w3.org/2000/svg">
<path fill-rule="evenodd" clip-rule="evenodd" d="M7.09613 2.6318C5.16321 2.63278 3.59703 4.20046 3.5979 6.13339L3.60145 13.9805C3.60233 15.9129 5.16907 17.4789 7.10145 17.4789H11.1088V18.3211C11.1088 18.8734 11.5565 19.3211 12.1088 19.3211H14.6278C15.1801 19.3211 15.6278 18.8734 15.6278 18.3211V17.4789H19.5974C21.5303 17.4789 23.0973 15.9119 23.0973 13.9789V6.12549C23.0973 4.1918 21.5293 2.62451 19.5956 2.62549L7.09613 2.6318ZM13.3586 5.07539C15.0821 3.39016 19.3555 6.00376 13.3335 9.79479C7.35182 6.00277 11.6531 3.39016 13.3586 5.07539ZM15.5865 13.0871C15.3002 12.7256 15.2982 12.2152 15.5817 11.8515L16.9617 10.0813C17.362 9.56764 18.1387 9.56765 18.539 10.0813L19.919 11.8515C20.2025 12.2152 20.2005 12.7256 19.9142 13.0871L18.5343 14.8296C18.1339 15.3351 17.3668 15.3351 16.9664 14.8296L15.5865 13.0871ZM8.42975 11.6872C8.42975 11.6872 8.07673 10.9837 8.18159 10.5357C8.3351 9.87988 8.85795 9.45944 9.5465 9.44485C10.254 9.42986 10.8352 9.8578 10.9734 10.5357C11.0665 10.9917 10.6632 11.6872 10.6632 11.6872C10.6632 11.6872 12.2763 11.5053 12.2763 13.081C12.2763 13.7839 11.6912 14.3044 10.9734 14.3536C10.5377 14.3836 9.91874 13.99 9.91874 13.99C9.91874 13.99 9.90592 14.4057 9.98079 14.6567C10.0229 14.798 10.1131 14.9549 10.2052 15.0913C10.3018 15.2344 10.2038 15.4445 10.0311 15.4445H9.01706C8.85203 15.4445 8.75345 15.2524 8.83808 15.1107C8.92311 14.9684 9.00942 14.8019 9.05017 14.6567C9.12725 14.3818 9.11221 13.9294 9.11221 13.9294C9.11221 13.9294 8.54268 14.3523 8.11955 14.3536C7.38267 14.356 6.75464 13.8008 6.75464 13.081C6.75463 11.5053 8.42975 11.6872 8.42975 11.6872Z" fill="white" fill-opacity="0.9"/>
<path d="M8.11108 22.125C8.11108 21.2297 8.83689 20.5039 9.73221 20.5039H16.8856C17.781 20.5039 18.5068 21.2297 18.5068 22.125H8.11108Z" fill="white" fill-opacity="0.9"/>
</svg>
